<svg xmlns="http://www.w3.org/2000/svg" fill="none" viewBox="0 0 238 80"><path d="m144.8 29.19h-64.8v32.4h64.8z" fill="#6cbaab"/><g fill="#1e1e1e"><path d="m156.63 37.83c.01-.05.03.07.03.09-.01.05-.03-.07-.03-.09z"/><path d="m155.8 30.63c.02 0 .03.11.03.18l.02.27c-.05.01-.03-.32-.05-.45z"/><path d="m155.1 23.89c.03.02.04.18.01.18-.02-.08-.04-.17-.01-.18z"/><path d="m151.89 19.78c.01.1-.63.12-.72.07-.46.06-.53.04-.9.03.2-.07.42-.06.63-.04.27-.01.77-.11.99-.06z"/><path d="m147.75 20.14-.36.02c-.06-.09.38-.1.36-.02z"/><path d="m153.02 54.06c-.02.03-.18.04-.18.01.04-.03.08 0 .18-.01z"/><path d="m152.06 19.89.27-.02c.07.06.17.12.26.17-.46.05-.45.04-.72-.01.19-.06.1-.08.19-.14z"/><path d="m155.54 53.84-.18.01v-.05l.18-.01z"/><path d="m155.18 53.81c0 .02-.11.03-.18.04 0-.02.11-.02.18-.04z"/><path d="m153.21 53.93v-.05c.18-.05.11-.01.36-.02v.05c-.25.01-.19.05-.36.02z"/><path d="m151.43 20.12c.04-.04.08 0 .18-.01-.03.03-.18.03-.18.01z"/><path d="m154.37 31.92c-.01.37.05.93-.1.98.02-.13.01-.37.04-.45-.02-.19-.11-.03-.13-.18.01-.26.07-.4.19-.35z"/><path d="m153.76 22.94c.01-.05.03.07.03.09-.01.05-.04-.07-.03-.09z"/><path d="m153.78 23.21c.01-.05.03.07.03.09-.01.05-.04-.07-.03-.09z"/><path d="m154.15 30.75c.02-.25-.06-1.17-.07-1.53.14.1.04.73.14 1.08 0 .21-.01.42-.07.45z"/><path d="m153.97 28.59c-.05-.51.09-.52-.01-.99.13.17.12.85.01.99z"/><path d="m154.13 30.84c-.06.03-.07-.19-.09-.36.04.07.08.13.09.36z"/><path d="m153.75 25.8c.01-.04.03.07.03.09-.01.05-.04-.06-.03-.09z"/><path d="m154.02 30.2c.02 0 .02.11.03.18-.01 0-.02-.1-.03-.18z"/><path d="m154.15 33.35c-.09-.28-.05-.75-.18-.99-.02-.2.09-.49-.03-.54-.01-.21.07-.16.04-.45.12.06.1.82.2.99.04.47-.02.65-.03.99z"/><path d="m153.64 24.46c-.11-.45.02-.58 0 0z"/><path d="m153.41 20.69c0 .11-.02.18-.06.18-.03-.2.02-.18.06-.18z"/><path d="m153.95 30.56c-.08-.13-.09-.57-.13-.9.05 0 .02-.24.08-.18.04.06.03.34.07.36-.06.3-.01.43-.02.72z"/><path d="m153.52 23.2c.09.23-.11.21 0 0z"/><path d="m153.85 28.23h-.09l-.05-.81c.06.18.1.5.14.81z"/><path d="m153.59 25.17c.03.36-.03.45 0 .81-.1-.04 0-.39-.1-.45-.01-.33-.01-.24-.02-.63.07-.03.05.35.12.27z"/><path d="m153.63 26.16c0 .17-.06.16-.02.45-.14-.04-.06-.46.02-.45z"/><path d="m153.62 26.79c.01-.05.03.07.03.09-.01.04-.03-.07-.03-.09z"/><path d="m123.43 23.26c-.05-.01.07-.03.09-.03.05.01-.07.03-.09.03z"/><path d="m123.43 23.28c.01.05-.08.08-.27.09-.28.05-.42.22-.82.17-.06-.06.19-.06.27-.09-.22-.04.14-.05.1-.12.37-.02.42-.07.72-.05z"/><path d="m120.5 24.61c-.05-.01.07-.03.09-.03.05.01-.06.04-.09.03z"/><path d="m155.89 53.84c.05-.02.1-.04.16-.06l.55-.15-.1-.37c-.08-.28-.08-.71-.1-1.19-.06-.55-.11-1.2-.2-1.62 0-.37-.02-.75-.06-.99-.02-.21.06-.1.05-.27-.01-.28-.03-.54-.09-.63.01-.23 0-.6-.07-.72.02-.2.03-.43 0-.81.02-.34-.01-.44 0-.72-.02-.13-.04-.23-.07-.36-.01-.65-.06-.84-.11-1.71-.03-.18-.08-.32-.12-.45-.08.12.01 1.03.09 1.08-.07.16.05.88-.03.98.01.32.1.22.1.54-.09.11-.03.64-.04.81.08.67.09.96.19 1.53.02.22-.02.28-.05.35.01.15.03.23.06.27-.05.44.02.65.08 1.26-.01.2.02.49-.04.54.05.26.07.64.06.9.06.34.04.84.07 1.22l.02.22-.23.02c-.16.01-.3.04-.4.08-.3-.07-.79.06-1.16.01-.17.02-.23.07-.45.08-.32-.01-.88.06-1.16.03-1.25.17-2.75.14-3.5.29-.25-.05-.3-.17-.8-.13-.04-.12-.32-.16-.53-.22-.07-.12.4-.14.36-.26 1-.19 1.71-.18 2.97-.33.39-.03.57.02.99-.02.32-.03.49-.09.72-.15.34-.03.43.03.71.02.19 0 .24-.03.36-.05.35.02.73.01 1.26-.06.22-.01.41-.01.58-.02l-.47.54c-.03-.62-.1-1.08-.08-1.75 0-.25-.06-.18-.07-.36-.03-.27 0-.32-.01-.54 0-.25-.05-.23-.05-.45.06-.26-.04-.83-.1-1.17.06-.22-.05-.65.03-.72-.01-.15-.03-.23-.06-.27.05-.24-.07-.72-.03-.9-.02-.17-.07-.23-.08-.45-.02-.22.02-.28.02-.45-.03-.21 0-.7-.09-.63.05-.13.02-.87-.06-.99-.12-1.39-.13-2.38-.24-3.41-.05-.09-.07-.28-.1-.45-.03-.35.04-.37.03-.63-.03-.29-.17-.69-.08-.9-.01-.24-.05-.3-.11-.27.02-.53.01-1.12.01-1.7-.02-.16-.03-.37-.07-.45.02-.75-.15-1.4-.22-2.07-.01-.48.01-.85-.01-1.34.2.17.06 1.34.28 1.44.07-.31-.04-.45-.06-.9.14-.09.14.47.27.46-.04.46-.06.81.01 1.34l-.14-.01c-.06-.36.03-.28.01-.54-.07-.25-.07.3-.03.63.01.07.09.27.08.09.06 0 .01.25-.04.18.02.31.1.27.03.45.03.19.06.31.12.36.01.31-.06.28-.04.45.04.22.1.35.17.46.07.43.08.5.15.9h-.05c.11.28.01.74.08 1.35-.05-.04-.06.06-.09.09.06.32.23.82.14 1.17.03.34.11.48.15.81-.01.19.03.54-.07.45.07.27.08.86.2.9.05-.23-.03-.5-.04-.72-.01-.16.02-.19 0-.36-.03-.33-.12-.69-.13-1.26-.03-.28.05-.24.04-.45-.02-.62-.1-1-.18-1.35-.03-.2.03-.21.02-.36 0-.11-.04-.32-.05-.45-.02-.24-.02-.42.01-.63-.12-1.72-.24-3.03-.3-4.4-.02-.23-.04-.43-.08-.54.02-.86-.13-1.8-.13-2.42-.03-.25-.06-.47-.09-.72.06-.43-.05-1.43-.09-1.8-.02-.29.02-.38-.02-.72.03-.03.03-.16.06-.18-.07-.33.02-.36-.03-.81-.11-.09-.09.21-.06.54-.13-.01-.15-.5-.2-.9-.01-.09-.03-.07-.05-.09.04-.17-.04-.71.05-.71-.04-.41-.12-.91-.1-1.26-.01-.23-.05-.28-.09-.36-.04-.18.03-.18.03-.36 0-.1-.05-.17-.06-.27-.03-.23 0-.48-.06-.63-.07.07.03.29.03.45-.11.03-.07.52-.15.62-.02-.15.01-.17.04-.18-.01-.22-.07-.22-.09-.36.04-.27.01-.7.02-.9.13.29.08-.24.17-.26-.01-.29-.16-.36-.06-.54-.03-.21-.13-.07-.12-.45-.04.04-.03.26-.11.18-.01-.08-.02-.16-.02-.24l.31.27c-.21.01-.43.02-.57.09-.14.01-.14-.05-.19-.09-.17.06-.42.04-.63.04-.2.11-.48.06-.98.1.15.14 1-.06 1.34-.01-.19.17-.96.09-1.62.14-.07-.06-.6.02-.53-.09-.4.04-.58.14-.9.08-.13.02-.22.05-.27.09-.05.12.38.08.35.19.41-.02.26-.15.63-.18.13.04.34.05.35.12.23-.02.13-.1.36-.12.23.03.77-.04.99-.01-.05.09-.59.07-.9.1-.22.05-.53.08-.72.14-.42-.02-.55.1-.9.03-.15.01-.23.03-.27.06-.36-.03-1.01 0-1.53.04-.04-.05.06-.07.09-.1-.31.03-.55.08-.72.14-.43.02-.81.06-.99.13-.39.04-.5-.01-.9.03-.06-.03-.4-.09-.45-.05-.13 0 .01-.02 0-.05-.24-.01-.53.08-.54.03-.22.03-.26.1-.52.11-.19.11-.6.09-.72.16-.13.01-.25.02-.27-.01-.24.08-.34.07-.63.11-.24.01-.51.04-.63.01-.21.03-.31.08-.45.12-.18 0-.18-.05-.26-.08-.42.08-1.2.23-1.71.15-.12.02-.17.06-.18.11-.56.03-.66.15-1.35.15-.2.04-.33.09-.36.16-.41.01-.83.13-.9 0-.32.01-.33.09-.63.11-.03-.03-.16.01-.18.03-.19-.02-.29-.06-.53-.06-.43.06-.78.22-1.35.17-.35.03-.53.1-.72.16-.21-.02-.17.01-.45 0-.34.04-.47.13-.99.13-.13.04-.4.04-.36.12-.27.02-.35-.03-.54-.04-.4 0-.54.06-.9.08-.32-.02-.81.01-1.08.06-.25-.03-.38-.1-.62-.13-.17-.13.14-.26-.19-.32-.29 0-.13.09-.36.09-.41-.01-.76-.05-1.08.01-.29-.06-.98.02-1.25-.05l-.54.05c-.01-.02-.29-.05-.27-.01-.12-.02-.18-.05-.27-.08-.24.04-.25.12-.45.17-.4-.03-.81.07-.8-.07-.28.02-.66.02-.81.07-.07.07.6.08-.01.12.02.06.26.06.45.07-.3.07-.39.04-.72.11-.18-.05-.23-.04-.45-.04-.12.01-.08.06-.09.1-.31-.02-.84-.04-.99.08-.22.02-.28-.02-.45-.02-.49.02-.7.09-.99.03-.19.1-.97.07-.9.22-.15-.05-.5-.03-.62-.08-.18.03-.24.08-.27.13-.58.02-1.27.06-1.8.15-.29.02-.26-.06-.45-.07-.39.08-.83.15-1.26.21l-.27-.06c-.24.01.08.13-.27.11-.07-.06.13-.07.1-.12-.33 0-.36.07-.36.14-.27.07-.92.06-.99.18-.28-.04-.62.08-.81 0-.1.01-.08.05-.09.08-.16.01-.52-.03-.63.04-.13 0-.03-.07-.18-.06-.2.03.11.03-.09.08-.3-.02-.73-.03-1.08.04-.19-.09-.63.03-.8-.05-.29.07-.76.1-1.26.12-.17-.05-.43-.1-.26-.2.15-.02.17.01.18.04.21-.12.71-.17 1.17-.14.09-.05.34-.07.45-.12.3-.02.45.01.81-.02.44-.09 1.12-.09 1.62-.21.19.06.49-.07.54.02.26-.06.76-.06.99-.13.16-.01.19.02.36 0 .32-.01.23-.1.54-.1.04.12.34-.03.54-.03v.07c.28-.05.54-.04.81-.02.47-.09.41-.02.9-.08.09.03.24.03.36.05.15 0 .16-.03.27-.04.19.03.58-.01.63.06.15-.1.5-.17.82-.24.45-.01.44-.02.81-.07.09.03.24.03.36.05.19-.01.29-.04.27-.09.19 0 .25.04.54.02.18.02.13-.05.18-.06.19-.03.48 0 .36-.12.17 0 .07.09.36.05.01-.09-.28.03-.17-.11-.25.03-.55.06-.81.02-.1.01-.06.05-.18.06-.64.01-1.05.08-1.44.04-.08.02-.14.05-.18.08-.24.03-.71.01-.81.07-.73-.06-2.22.15-3.14.18-.28 0-.18.07-.45.07-.2 0-.28-.03-.45-.05-.28.03-.62.13-.81.05-.12.03-.27.05-.36.09-.58-.03-1.7.11-2.15.1-.33.06-.83.07-1.17.09-.17.01-.28.03-.45.1-.53 0-.99-.02-1.53.09-.22.01-.33-.02-.53-.02-.31.01-.67.09-.99.1-.22.01-.3-.05-.54-.02-.07-.02-.12-.06-.08-.11-.25.01-.18.05-.36.02-.13.06-.33.11-.63.13-.15-.07-.62-.03-.53-.18l-1.17.07c-.12.14-.88.14-.82.31-.2.02-.46.07-.63.04-.14 0-.16.03-.27.04-.4-.04-1.32.09-1.7.05-.26.07-.58.07-1.17.11-.01-.03-.16-.01-.27-.01-.05-.05-.18-.07-.26-.1-.22-.02-.37.09-.45.03-.26-.06.3-.08.37-.14.43-.01.76.01 1.16 0 .22-.03.27-.05.63-.08.41-.04.61-.15 1.35-.15.11-.11-.24-.08-.17-.18.43-.04.66-.12.9-.19l.45-.03c.37-.09.9-.15 1.18-.26.39.05.94-.11 1.26-.07.06.08-.39.06-.45.12.06.08.65-.03.9-.05.02-.05-.07-.07-.27-.05.11-.12.65-.1.9-.08.57-.07 1.6-.2 1.89-.18.1-.01.06-.05.18-.06.36 0 .67-.07.81-.05.3-.04.47-.11.72-.16.26.11.82-.12 1.07.01.2-.08.83-.07.99-.15.29.09.78-.06 1.17-.02.2-.04.4-.08.54-.13.26.01.8-.1 1.17-.14.08-.02.14-.05.18-.08.28-.03.24.05.45.04.33.01.26-.07.54-.08-.18.06.02.02.08.07.38-.06.83-.12 1.09-.21.43 0 .77-.11 1.08-.06.42-.04.54-.14.99-.18-.19-.12-.71 0-1.07-.06-.31.01-.5.04-.72.07-.22-.03-.2-.11-.54-.04-.09.05.01.05.12.05-.21.05-1.18.03-1.53.11-.14.02-.15-.01-.26-.01-.2.04-.58.04-.63.11-.36-.02-.5-.12-.98-.04-.01-.06-.3-.03-.54-.02-.35.05-.64.1-.99.15-.31-.03-.79 0-1.16 0-.36.04-.74.07-.99.13-.59.01-.65.1-1.08.09-.11.04-.23.08-.36.12-.11-.02-.32-.01-.54.01-.11-.04-.14-.11-.44-.09-.27.04.09.08-.01.14-.3.07-.91.07-1.35.1-.41.06-1.11.18-1.53.16-.25.03-.38.08-.63.11-.27.03-.26-.03-.54.01-.52.11-1.58.1-1.98.23.16.07-.11.1-.19.18l-.54.03v-.09c.03-.06-.26-.01-.27-.06.21-.01-.03-.06-.18-.04.15-.06.25-.12.55-.15-.07-.09.22-.1.28-.16.15-.01.23-.03.27-.06.68.02 1.66-.28 2.34-.18.26-.01.28-.07.54-.08.28.07.64-.03 1.07-.02.34-.06.68-.11 1.17-.14.15-.01.23-.03.27-.06.51.03.85-.08 1.26-.05.39-.02.49-.12.81-.09.1-.01.06-.05.18-.06.64-.03 1.18-.07 1.53-.16.41 0 1.05-.04 1.35-.13.39 0 .72.02 1.26-.03.36-.03.57-.13.9-.1.27-.05.76-.15 1.08-.11.24-.08.84-.08 1.08-.16.48-.02.45-.01.9-.03.35-.06.88-.09 1.17-.16.21.04.24.03.45-.03.15-.01.16.01.27.01.22-.01.28-.05.45-.07.6-.02.8-.03 1.35-.05.15-.01.23-.03.27-.06.11.03.54.01.54-.06.21.04.24.01.45.02.24-.02.46-.12.72-.07.09-.03.33-.03.27-.09.13.01.23.02.36.03.2-.07.83-.05.9-.15.13.03.47-.01.45.07.16 0 .45-.05.36.03.68-.13 1.11-.07 1.53-.23.55.02.7-.1 1.17-.04.59-.09 1.02-.1 1.71-.12.73-.09 1.24-.21 2.07-.22.24 0 .18-.06.36-.07.27.01.35 0 .54-.05.41-.02.54 0 .81-.07.19 0 .59-.06.63-.01.22-.01.28-.05.36-.09.11.02.32.01.54-.01.15 0 .17-.03.18-.06.13.02.23.01.36-.02.26-.02.27.04.54.02.48-.02.4-.06.81-.12.06.04.42-.01.45.04.21-.03.2-.11.51-.13.31.12 1.11-.09 1.71-.05.2-.03.36-.07.36-.14.1.04.59-.05.44.07.57-.08.99-.06 1.62-.09.05.02.09.03.09.07.48-.03 1.01-.04 1.26-.12.29-.03.42-.01.63-.01.53-.04.54-.07.99-.03.87-.03 1.47-.06 2.33-.14.21-.04.43-.07.63-.11.32.02.97.02 1.53-.07.18 0 .59-.06.63-.01.61-.12 1.42-.03 1.98-.16.31.02 1.02-.03 1.26-.05.28-.01.24-.08.45-.1.74-.01 1.26-.01 1.97-.09h.36l1.69.02.02 1.47c.01.34.04.67.13.9.03.47-.08.8.05 1.17-.06.54.05 1.23.11 1.8-.04.14-.05.37-.11.44.04.3.13.4.2.54.04.3.01.4.09.63-.01.32.05.88.02 1.17.06.28.09.72.16.99-.04.21.07.57-.01.54 0 .24.06.18.09.27-.01.46.11.71.08.9.02.18.08.18.09.36 0 .35-.03.33.02.72-.1-.08-.03.4-.06.54.03.2.04.49.11.54-.02.32.05.94.03 1.26.06.6.08.78.05 1.17.02.3.06.48.11.63.01.21-.01.37-.01.54.11.49.06.96.17 1.53-.03.44-.03.58-.11.89l.05.72c.11.01.06-.49.16-.53.1.09.02.55.03.81.04.44.13 1.13.1 1.53 0 .37.08.75.06.9.02.27.08.31.1.54-.05.81.15 1.96.08 2.87.01.26.07.28.08.54-.05.03.03.49-.04.45.09.49.08 1.26.05 1.61.05.34.01.43.07.72-.01.2.02.49-.04.54.02.17.06.23.07.45-.02.28-.05.52-.01.98-.04.1-.03.35-.07.45.02.11.04.19.08.18.01.21-.03.26.01.54.06.3.01.5.09.63 0 .23-.01.41-.04.53.06.43-.01.5-.02.74l-.05 1.49-1.17-.08c-.04 0-.09 0-.16 0-.01-.03.07-.04.15-.05l1.34-.2-.16-1.16c-.01-.08-.02-.16-.06-.12v.12 1.27l-1.11.03c-.43.01-.87.09-1.22.05-.62.09-1.15.06-1.62.16-.04-.03-.11-.04-.27-.03-.56.12-1.64.14-1.98.3-.32.01-.22-.05-.54.01.02-.09-.37-.05-.53-.08-.07-.07-.18-.13-.35-.16.24-.05.53-.21.81-.18.16-.06.54-.09.72-.15.51 0 .93-.04 1.44-.12.77-.04 1.33-.07 1.71-.21.16-.01.52.03.63-.04.17 0 .16.06.45.02.22-.01.22-.07.36-.1h.36.63v-.72c0-.1 0-.19.01-.27-.08-.36-.06.1-.12-.1-.02.07-.01.23-.01.37l.02.57-.53.02c-.15.01-.3.01-.34-.02-.02-.02.04-.02.09-.03.03-.02.02.01.03.03zm1.11-5.96c.07-.64 0-1.19-.05-1.97 0-.21.01-.54-.05-.72.05-.34-.01-1.05-.03-1.61-.04-.18-.07-.43-.11-.63 0-.48-.01-.99.06-1.25 0-.29-.06-.28-.03-.45-.06-.01-.1-.13-.12-.36-.02-.59-.04-1.28-.12-1.88-.03.3-.12-.12-.17-.1.02.5.1.68.16.99-.05.2.07.51.09.72-.08-.07-.01.31-.11.18-.02.53.01 1.77.16 2.16-.1.21-.04 1.03.04 1.43-.1.22-.02.77.01 1.25.01.12.05.08.06.18-.05.5.03 1.01.03 1.61.06.1.1.28.13.54-.05.43.07 1.11.02 1.52.08.29.03.58.12.72-.04-.75-.02-1.57-.09-2.33zm-.74-12.57c.01-.18-.05-.77-.13-.9.07.38 0 .34.01.54.02.15.04.39.06.54.02.18-.01.4.08.45.04-.24.02-.42-.02-.63zm-.16-1.08c.04.01.06-.07.06-.18-.04-.13-.1-.14-.06.18zm.2 2.06c.01-.02-.02-.14-.03-.09-.01.03.02.14.03.09zm-.48-5.75c-.08-.08-.09.07-.11.17.05.58.15.72.13 1.35.06.13.08.48.15.54 0-.72 0-1.16-.11-1.8-.04-.31.01-.35-.02-.63-.06-.41-.21-.89-.2-1.26-.05-.02-.05.1-.09.09.06.29.1.68.14 1.08.04.04.05-.13.07 0-.05.09.06.24.04.46zm.15 2.43c.03.34.07.67.15.81-.02-.42-.06-.74-.15-.81zm1.16 17.78c0-.02-.02-.14-.03-.09 0 .02.02.13.03.09zm.02.72c-.09-.09-.01.35-.01.54.07.02.06-.4.01-.54zm-1.6-23.71c-.09-.36-.09-.61-.13-.99.04.02.01-.58-.05-.45-.08.16.11 1.07.01.99 0 .27.06.27.06.54.08.07.05.06.12 0 .03.17-.05.3.02.36-.01-.21.07-.16.04-.45zm-6.09-7.81c.26-.04.57-.12.72-.04 0 .05-.25.04-.18.1.48.04 1.14-.14 1.7-.08-.16.08-.57.1-.9.15-.02.06.14.07.27.08-.01-.04.09-.06.27-.06-.11.08.14.05.17.08.5-.05 1.13-.03 1.8-.13-.14 0-.01-.04.09-.05.04.03.15.04.29.05l.59.01v.51.15c.03.02.07-.01.08.09-.01.1-.02.24 0 .45.08.24.08.57.12 1.17.04.17.08.39.11.63-.03.01-.07-.02-.07.09.02.02.05 0 .05.09-.04.12.06.49.07.72.05.75.06 1.03.14 1.53-.05.02.02.4-.02.45.08.33.05.58.1.9.01.44.08.61.03.81.05.13.11.24.18.28.06.34.11.72.22.82 0-.28.05-.39-.02-.72.02 0 .03.07.05.09-.04-.55-.07-.83-.1-1.26-.13-.06-.19-.53-.18-.99-.01-.17-.08-.07-.09-.27.1-.54-.16-1.27-.09-1.8-.04 0-.06-.07-.08-.18.04-.28-.12-.79-.07-1.17-.14-.22-.03-1.07-.15-1.26.07-.11.17-.1.22-.26.04.48.05.58.1 1.17 0 .17-.06.16-.02.45.04.15.14.01.16.27-.09.1-.08.27-.15.26.04.57.11.94.2 1.26-.03.02-.01.2-.03.27.09-.04.1.28.16.36.04-.11.08-.23.09-.45-.08.08-.05-.39-.1-.45.04-.13-.03-.59 0-.72-.03-.01-.06-.03-.06-.18-.02-.74 0-1.22-.13-2.06 0-.23 0-.42 0-.59v-1.21l-1.35.03c-.29.01-.53.03-.85.08v-.05c-.26.04-.28.04-.54.03-.02.07-.32.09-.54.13-.17.03-.21-.03-.27-.03-.21 0-.45.08-.72.04-.19.04-.36.08-.54.13-.53-.05-.94.06-1.34.01-.35.08-1.04.13-1.44.13-.3.1-.55.12-1.08.13-.52.1-1.03.15-1.71.15-.45.02-.44.05-.81.05-.37.08-1.19.07-1.35.2.29 0 .31.07.63.01v.07l.36-.02c.39.09.85.04 1.34.06.02-.03-.01-.07.09-.08.5-.02 1.05 0 1.44-.06.09.02.02.09.27.06.25-.05.68-.07.9-.12.12.03.31.04.54.04.17-.01.06-.08.27-.09.01.03-.02.07.09.07-.01-.06.14-.09.27-.06-.15.03-.28.1 0 .1.01-.06.06-.12.19-.15.14.03.49-.04.62.04.06-.06.06-.11.28-.18-.31 0-.4.04-.54-.04-.05 0-.3.1-.38.04.05-.12.5-.06.63-.08zm5.78 5.02.02.27c.04.01.05-.09.03-.27zm.2 4.75c-.02-.51-.02-.75-.15-.9.05.45.14.79.12 1.26h.09c.01-.24-.05-.18-.06-.36zm.07.81c0-.03-.02-.14-.03-.09 0 .03.02.14.03.09zm-16.19-10.09v-.05c-.54.01-.65.02-1.08.09.09.08-.19.09-.27.13.17.04.51-.01.72-.04.49-.01.9-.08 1.17-.07.07-.06.62-.01.54-.1-.46.05-.7.02-1.08.04zm1.43-.06c.3-.01.4.05.81 0 0-.06.29-.07.27-.13-.53-.01-.79.04-1.08.13zm-16.25.92c-.29.04-.28-.02-.45-.02-.48.11-.91.08-1.35.2-.24-.05-.81.01-1.08-.03-.08.04-.23.06-.45.07-.54.01-1.17.05-1.61.02-.02.03-.1.04-.18.06-.51.01-.87.14-1.26.1-.1.07-.48.08-.81.09-.02.09.07 0 .27.01.06.03.19.03.36.03.44-.03.95-.04 1.26-.1.2.01.45.01.63.03.06-.05.24-.08.45-.1.17 0 .07.09.36.05.53-.12 1.25-.06 1.8-.17.31.06 1.01-.01 1.26-.05.18 0 .17.05.36.05.41-.08.78-.03 1.17-.07.08-.06.7-.01.63-.11-.53.09-.65-.04-1.34.03-.03-.06.13-.05-.02-.09zm12.84-.74c-.18.09-1 .05-.99.18.41-.04.56.01.99-.03.24-.04.23-.1.54-.08-.01-.08-.2-.1-.54-.07zm-21.74 1.36c.21 0 .24.06.44.07 0-.08.46-.06.45-.14-.37.01-.65-.02-.89.07zm20.3-1.23c-.72.04-.98.2-1.71.17-.13.04-.51.04-.45.12.06.03.35-.02.36.03.25-.04.57-.02.81-.05.04 0 .19-.05.27-.06.33-.04.79-.07.9-.17-.11 0-.21 0-.18-.04zm20.71 32.01c.04.01.06-.07.06-.18-.04-.01-.06.07-.06.18zm-40.02-30.82c.23-.12.46.04 0 0zm15.63-.86c.1 0 .14.02.18.04.23-.03.48-.06.46-.15-.35.01-.57.05-.64.11zm24.32 30.15c-.01-.1-.01-.25-.04-.27.01.11.01.26.04.27zm-42.64-29.11c0-.01-.07-.02-.09.01-.01.01.07.02.09-.01zm25.95-1.51c0-.02-.16-.02-.18.01.02.03.1.01.18-.01zm-10.42.68c.03-.08-.47-.06-.63-.01v.07c.46.03 1.25-.01 1.53-.14-.35.02-.66.04-.9.08zm4.22-.29c0-.02-.16-.02-.18.01.1-.01.14.02.18-.01zm22.69 28.52.01.18h.05l-.01-.18zm-29.96-28.08c0-.01-.07-.02-.09 0 0 .02.07.03.09 0zm.54-.05c-.07.01-.18.01-.18.03.07-.01.17-.01.18-.03zm.62.03c.22-.01.37-.03.45-.07-.13-.03-.38.02-.45.07zm-.45.03c.47-.12.34.1 0 0zm.99.01c.26.02.27-.12 0-.07zm-23.09 1.39c0-.01-.07-.02-.09 0 0 .02.08.03.09 0zm50.71 20.29c0 .17-.04.22-.02.45.08.04.12-.38.02-.45zm-38.23-20.92c.01-.03-.04-.06-.09-.02 0 .03.04.06.09.02zm5.47-.13c-.15-.07-.51 0-.81.02.07.09-.19.1-.36.14-.17 0-.22-.04-.45-.02-.4.09-.74-.03-.99.08.14-.07-.23-.09-.27-.03.43-.01-.29.1-.28.16-.34.03-.42.06-.63.01.01.04-.09.06-.27.06-.37-.02-.46-.01-.8-.05.16-.01.21-.04.18-.08-.32 0-.22 0-.54.01-.02.02-.01.05-.09.05-.54 0-.83.09-1.26.17-.05-.05-.14-.08-.45-.04-.22.11-.73.15-1 .25-.22-.06-1.13 0-1.26.1-.42-.03-1.16.06-1.17.19.41.05.53-.05.99-.01.43-.04.89-.12 1.35-.1.13-.01.15-.05.27-.06.04.03.11.04.27.03.31-.06.71-.03 1.08-.11v.05c.42-.05.71.02.99-.06.02.04.15.05.36.03.65-.15 1.56-.19 2.16-.29.3.07.69-.07 1.08-.04.18-.02.18-.07.36-.09.25.06.63-.06.9-.08.08.02.33-.01.27.06.22-.01.28-.05.45-.07.05.14.33-.05.54.04.12-.11 1.08-.15 1.44-.13.22-.08.5-.15.9-.19.01.06-.15.06-.01.1.4-.05.87-.08 1.17-.04.19-.1.33-.2.64-.27-.44-.02-.6.04-.99.08-.23 0-.27-.06-.54-.04-.12.01-.17.04-.36.04 0 .04-.07.06-.18.08-.42.03-.52.13-.9.17-.24-.03-.42.06-.54-.02.12-.07.2-.08.1-.15-.44.01-.97-.03-1.35.05zm31.21 2.63c.1-.04 0 .19.05.45.07 0 .08-.57.03-.72 0 .19-.1.02-.08.27zm.13.99c-.06-.02-.07.14-.08.27.06-.04.04.33.09.36 0-.33.05-.33-.01-.63zm-.07-.45.02.27c.04.01.05-.09.03-.27zm-18.88-3.7c-.24 0-.18.06-.36.07-.56-.06-1.37.01-2.06.1-.26.01-.19-.08-.54-.04-.05.04-.14.07-.27.09-.28.03-.33 0-.54.01-.08.06-.22.1-.54.1v.12c.92-.09 1.95-.08 2.79-.21.38.08.52-.06.99-.03.28-.08.39-.04.72-.11.22.03.68-.03.9-.08-.13-.09-.87.03-1.09-.02zm18.67 1.45c-.04.2.04.31.08.45-.03-.16-.04-.37-.08-.45zm-46.97.39c-.27.02-.7.01-.72.09.29.05.32-.08.63-.04.11-.01.12-.04.27-.04.3-.04.97 0 .99-.11-.23-.07-.99.02-1.17.1zm4.67-.32c.24-.1.22.11 0 0zm-.45.07c-.07.01-.18.01-.18.03.07 0 .18-.01.18-.03zm-1.44.13c-.12 0-.17-.02-.36 0-.14.07.39.04.36 0zm-2.61.27c.34.03.59-.05.9-.03-.02-.04.1-.06.09-.1-.45.05-.72.02-.99.13zm47.41 14.26.01.18h.05l-.01-.18zm.02.27c.01.11-.02.12-.01.27.04.01.06-.07.06-.18-.02 0-.03-.07-.05-.09zm-53-14.13c.19-.02.82-.07.54-.1.02.04-.54 0-.54.1zm8.81-.54c-.14.04-.22.08-.45.1.01.09.36.08.71.08-.01-.08.42-.07.37-.16-.37.04-.28-.06-.63-.02zm1.88-.11c-.02-.01-.14.02-.09.03.02.01.14-.02.09-.03zm-.54.06c-.02-.01-.14.02-.09.03.02 0 .14-.02.09-.03zm.9-.03c-.1.01-.14-.03-.18.01 0 .02.15.02.18-.01zm-4.5.4c.37.01.35-.07.63-.08.17-.01.2.02.36 0 .15-.06.58-.07.63-.15-.55.08-1.09.12-1.53.09-.16.05-.2.08-.09.14zm-.81.05c.22-.01.37-.03.45-.07-.17 0-.16-.06-.45-.02zm13-.31c-.06.06.43.06.45.02-.17 0-.16-.05-.45-.02zm.9-.03c-.07-.05-.05-.13-.26-.13-.16.03-.44.05-.28.16zm-5.93.47c-.03-.01-.14.02-.09.03.02 0 .14-.02.09-.03z"/><path d="m152.76 53.96c-.14.03-.07-.01 0-.02.12-.02.2 0 .09.02-.03 0-.07 0-.09 0z"/><path d="m115.48 22.73c-.26-.04.12-.05.27-.04-.02.08-.3-.04-.27.04z"/><path d="m153.7 24.28c.15.13.1.54.16 1.08-.07-.06-.03.18-.05.27-.02-.31-.17-.91-.11-1.35z"/><path d="m153.42 22.03c.07.2-.06-.08-.07.09.05.37.01.52.1.81.01.18-.05.18-.08.26.1.44-.02.73.07 1.08-.14.25-.06-.59-.11-.63 0-.1.04-.07.07-.09-.08-.23-.05-.62-.11-1.08.1-.13.04-.64-.03-.9-.01-.15.01-.15.01-.27-.08-.24-.04-.48-.09-.66l.61.53-.06.02c-.08-.01-.16-.01-.18-.04-.11.02-.19.04-.18.08-.5-.02-.63.1-.99.03-.07-.09.43-.05.63-.08.16-.05.17-.14.62-.15-.03.05.03.06.13.06l-.52-.46c0 .2.07.56.11.58-.06.18-.02.72.07.82z"/><path d="m104.92 51.64c-.04-.03-.07-.09-.09-.08.02.04.07.09.09.08zm.09-.14c-.2-.14-.33-.55-.48-.53.13.2.5.67.59.8.05-.05-.03-.16-.11-.27zm-1.05-1.42c.23.23.1.3.29.58.05-.13-.13-.54-.29-.58zm-.5-.37c0 .02.05.08.05.05 0-.02-.05-.08-.05-.05zm-.78-2.29c.02-.06.08-.07.06-.19-.09-.18-.06-.29-.12-.53 0-.11.14.06.06-.06-.1-.06-.14-.42-.07-.54-.05-.02-.16-.55-.02-.48.01-.29-.07-.31-.12-.43-.01-.14.07-.47-.02-.43-.1.23 0 .33-.06.67.04 0 .06.05.08.13-.03.01-.03.07-.04.12.08.13.01.31.09.49 0 .08-.03.08-.02.18.06.17.15.51.05.6.07.3.07.57.18.71-.03.01-.07 0-.06.07.05.02.06.6.17.4-.11-.22-.03-.44-.16-.71zm.14-.02c-.09.16.11.14 0 0zm14.04-11.02c-.01-.01-.09-.03-.07-.01s.09.04.07.01zm-14.17 9.37c-.04 0-.08-.01-.07.12.05 0 .06-.05.07-.12zm7.06 6.84c-.01-.01-.07-.01-.05.01 0 .01.07.01.05-.01zm9.56-16.03c-.01-.02-.09-.05-.07-.02.01.01.09.05.07.02zm-2 .03c.01-.08.22.06.12-.07.06.01.2.12.2.04-.2-.21-.36-.13-.55-.18-.12-.06-.19-.07-.2-.02.15.13.21.09.43.23zm-14.25 11.62c-.04-.39-.15-.28 0 0zm.9 2.34.08-.04c-.12-.17-.25-.34-.36-.43zm.52.67c-.08 0 .03.12-.01.15.14.17.31.42.43.44-.11-.16-.19-.21-.24-.42-.04.01-.13-.16-.18-.17zm-1.11-2.18c0 .02.04.08.04.05.01-.02-.04-.08-.04-.05zm-.04.27c-.07.02-.05.32.08.29-.1-.17-.05-.18-.08-.29zm.08-.59c-.15-.33-.15-.6-.31-.65-.02.31.24.65.3.83.01-.05-.06-.2.01-.18zm-.44-.18c.07.25.05.19.12.41.11.01.07.27.17.26-.09-.23-.05-.3-.14-.53-.06.07-.1-.18-.15-.14zm3.4 2.14c.06.05.15.21.18.17l-.1-.11c-.02-.02-.06-.07-.08-.06zm12.82.64c.1-.11.1-.05.15-.16l-.04-.03c-.1.05-.05.05-.15.16zm.09-.36c.04-.05.08-.04.07-.08-.02-.02-.08.05-.07.08zm-15.42-6.23c-.05-.06-.08-.01-.14-.13-.07.15-.07.15-.07.42.07-.04.13-.1.2-.14zm15.63 6.2c.02-.04.02-.09-.02-.02-.01.01-.02.03-.03.04-.04.07.02.05.05-.02zm-1.05 1.04c.03-.03.08-.07.07-.09-.03.03-.08.07-.07.09zm-.08.07-.03-.04-.08.07.03.04zm-15.28-4.79c0-.02-.02-.09-.03-.05-.01.01.02.08.03.05zm1.86 4.45c.08.08.18.19.21.14-.09-.12-.15-.12-.21-.14zm-1.83-4.28c0-.02-.03-.08-.04-.05 0 .01.04.08.04.05zm16.85-6.93c-.06.05-.03-.17-.1-.13.02.09.13.3.1.13zm-14.02 12.06c.01.07.12.17.17.25.08-.14-.2-.37-.35-.56-.1.06-.09.16.01.3.09.07.08-.07.17.01zm-1.49-4.93c.02-.01.01-.09-.02-.1-.03.02 0 .06.02.1zm.79 4.6c.14.13.05.16.15.27.11-.06.16.16.27.25.2.03.38.3.58.36-.16-.15-.19-.3-.43-.5-.15-.02-.46-.41-.57-.38zm-1.18-8.14c.06-.11.1-.23.06-.36-.07.2-.1.24-.11.5-.07.04-.14.41-.03.41.06-.1.06-.39.08-.55zm-.35.25c-.02 0-.04.09-.02.1.01-.05.05-.07.02-.1zm.8-2.22-.07.2c.07.04.17-.19.07-.2zm16.36 4.07c0-.13.01-.25.04-.31-.02-.08-.05-.15-.08-.22.03-.12.02-.19.01-.26h-.23c0 .05-.01.09-.01.14 0 .07.04.05.04.1-.06.18.03.24.02.46-.06.22-.03.43-.13.7.03.03.04.08.02.16-.05.27-.08.46-.1.66-.09.23-.1.45-.24.56-.06.14-.01.17-.07.3-.12.16-.22.37-.29.61-.04.01-.08.02-.13.02-.08.07-.16.26-.24.2-.06.17-.08.09-.18.24.03.25-.37.7-.5 1-.05.07-.09.09-.13.09-.14.23-.37.42-.59.68-.22.08-.36.33-.6.45-.08-.04.12-.12.06-.17-.17.13-.23.04-.44.23-.08.01-.17.05-.27.11-.02.1-.15.09-.27.21-.12.09-.16.07-.26.13.02.03 0 .07-.05.11-.06-.01-.19.04-.26.02-.22.11-.36.13-.51.16-.11.05-.13.09-.21.13-.04-.05-.19.01-.29.03-.13.09-.19.07-.35.14-.2-.02-.59.05-.84.14.01-.08-.22.01-.24-.04-.14.01-.14.07-.28.09-.48-.08-1.08.06-1.5-.09-.12 0-.15.07-.29.04-.07-.04-.27-.03-.46-.08-.2-.07-.55-.15-.77-.19-.13-.03-.31-.22-.39-.16-.02.1.24.18.2.28l-.36-.14c-.11-.16-.18-.18-.37-.32-.29-.08-.48-.24-.74-.3-.06-.06-.12-.13-.21-.19-.09-.01-.19-.03-.32-.12-.13-.17-.21-.22-.47-.39-.11-.12-.36-.34-.45-.47-.06.02-.17-.08-.25-.15-.01-.08-.22-.24-.11-.27-.15-.13-.12-.14-.23-.29-.07-.07-.11-.04-.17-.11-.03-.1-.18-.15-.29-.37-.05-.03-.09.04-.14-.08.08-.03-.09-.14-.1-.27-.11-.1-.24-.29-.34-.41-.02-.16-.17-.41-.21-.57-.11-.09-.08-.16-.16-.3-.09-.05-.18-.08-.25-.22.05-.06.03-.18.06-.26-.08-.28-.27-.62-.2-.92-.12-.18-.04-.37-.05-.61-.11-.16-.1-.43-.07-.66-.02-.38.01-.66.1-1.04.01-.11-.07-.1-.03-.25.01-.13.07-.5.16-.64-.03-.32.24-.67.28-1 .05 0 .09-.21.15-.29.09-.28.26-.58.4-.7.03-.1.08-.21.12-.32.23-.39.43-.65.76-.97.21-.13.18-.16.37-.36.09-.07.16-.09.26-.2.06-.13.27-.31.49-.45.02.03.05.03.08.03.26-.2.47-.28.71-.46-.01.13.18-.04.24-.03-.03-.07.03-.13.12-.19.31-.06.62-.4.83-.3.15-.05.12-.13.24-.18.03.05.2-.05.24-.01.2-.08.15-.11.39-.17.13-.04.15.02.28-.02.06-.04.11-.04.19-.03 0-.03.01-.06.09-.06.11-.02.22-.03.28-.02.04-.04.06-.08.18-.1.02.04.23 0 .33.01.14-.06.21-.04.43-.04.1-.05.14-.05.29-.01.09.01.07-.06.19-.03.43.05.71.04 1.11.05.35.1.57.18.89.21.21.17.32.1.57.24.27-.04.43.16.81.23-.08.04.07.09.14.14-.05.06.11.14.15.21.08-.05.35.16.46.19.04.05.08.1.12.15.01-.07.11.03.16.03.06.14.22.14.32.23.06.1.1.09.14.2.05-.05.21.12.23.18.04-.01.08.01.14.07.19.23.25.31.46.56.07.06.11.07.18.17.04.05.01.07.07.13.11.06.12.08.14.2.15.09.28.35.42.49.11.22.11.2.21.44.11.1.22.4.34.5 0 .18.16.41.24.55.02.18.12.27.18.47.08.29.1.47.1.69.08.16.16.51.14.74.06.16.09.42.1.71h.23c-.02-.08-.04-.18-.03-.35-.05-.14-.06-.36-.1-.56 0-.21-.04-.48-.02-.67-.05-.2-.15-.35-.22-.53-.03-.13-.08-.29-.02-.31-.13-.25-.07-.35-.09-.56-.07-.01-.12-.22-.19-.32-.03-.06 0-.08-.04-.15-.14-.15-.3-.69-.41-.78.03.06.06.11.01.11-.14-.14-.06-.17-.09-.3-.08-.1-.15-.19-.23-.34-.06-.21-.31-.4-.27-.57.16.21.28.22.44.41.05.18.22.31.33.54.15.09.29.32.42.51-.02.05.05.15-.04.08.06.16.12.08.18.27.05.12-.03.12.03.27.03.02.07.04.1.08.09.2.29.48.29.65.06.08.12.18.17.3 0 .24.19.51.09.7.09.09.09.47.18.59-.14.16.07.5-.04.66l.09.29h.08v-.01c-.07-.12-.14-.57-.05-.72.1.01.04.43.07.61 0 .06.01.09.02.12h.83c.01-.12.01-.24.02-.37-.06-.12-.08-.19-.08-.3 0-.23-.03-.56-.1-.78.01-.31-.23-1.03-.27-1.42-.04-.05-.09-.14-.14-.21.04-.14-.1-.34-.18-.51-.02-.11.01-.18-.04-.31-.06-.18-.11-.08-.17-.26-.22-.59-.85-1.38-1.07-1.82-.09-.02-.22-.31-.35-.42-.04-.01-.09-.02-.14-.05-.13-.22-.32-.43-.62-.73-.06-.05-.07-.01-.12-.05-.09-.15-.25-.28-.38-.38.15-.05-.07-.11-.01-.16.17.1.05.13.14.21.02-.15.13.03.24.1.03.02.05-.05.12.05.15.12.15.19.23.28.03-.04.1-.02.18.09.04.08.09.16.11.23.19.17.2.16.38.4.18.13.35.31.49.34-.04.07.13.28.17.4.05.06.07.06.12.15.02.08.06.18.06.24.19.27.12.27.33.52.05.18.1.35.21.51l-.07.03c.04.12.25.27.15.33.07.2.13.11.19.32.04.11.02.13.06.24.1.13.19.46.27.63-.07.02.09.2.05.33.19.31.2.78.31 1.08.06.25.02.35.02.55.04.08.06.25.11.31-.02.14-.03.29-.01.42h.27c-.01-.21-.03-.41-.07-.54.09-.12-.02-.43.07-.57-.08-.24-.09-.55-.08-.76-.05-.14-.05.08-.08-.06-.01-.1.06-.04.05-.13-.07-.07-.07-.32-.1-.44-.03-.01-.06.02-.09-.05.05-.14-.1-.36-.09-.57-.12-.02-.23-.47-.35-.63-.07.02-.14.02-.2-.2.05-.04.09.09.13.02-.05-.25-.1.01-.16-.15l-.01-.19c-.18-.26-.33-.53-.52-.74-.05-.12.04-.14-.07-.31-.23-.3-.5-.69-.74-1.02-.06.01-.12 0-.21-.08 0-.11-.16-.29-.19-.4-.09.13-.39-.32-.54-.36-.09-.18-.24-.24-.48-.48-.08-.09-.08-.14-.2-.24-.16.02-.41-.24-.56-.4-.03.02-.04.08-.11.03-.11-.11-.14-.12-.21-.23-.22-.08-.25-.14-.46-.21.09.09.23.18.21.24-.36-.21.01.06-.07.1-.11-.02-.31-.17-.48-.27.08-.12-.21-.19-.42-.35-.14-.03-.19.04-.34-.01-.04-.05-.06-.11-.12-.16 0 .05-.16-.07-.16-.09l-.34-.13c-.14-.14-.6-.27-.77-.38-.23-.01-.44-.14-.71-.23-.16-.03-.07.08-.26.03-.21-.11.02-.19-.05-.34-.16-.07-.23-.16-.41-.23-.2 0-.55 0-.77-.06-.26-.02-.36.01-.65 0-.13-.02-.19-.07-.39-.06.03.07-.16.07-.26.11-.38-.02-.47.1-.7.15-.2 0-.17.03-.32.02-.13.07-.25.14-.49.21-.41.03-.63.2-.9.34-.16.04-.24.01-.38.03-.01.03-.08.09-.11.07-.2.08-.19.14-.39.23-.09-.1-.33.12-.59.22.01.08-.05.15-.17.24-.44.21-.44.35-.78.54.01.04 0 .09-.06.15-.34.12-.74.5-.9.75-.06.02-.1-.03-.2.05-.05.09-.08.17-.17.28-.08.03-.21.16-.32.29-.12.16-.18.2-.24.37-.03-.01-.08.05-.14.12-.02.1-.21.3-.22.46-.11.14-.08.2-.17.34-.04-.02-.11.17-.21.3-.02-.01.02-.1-.04-.03.02.05-.17.2-.22.22-.12.24-.22.27-.33.51 0 .14-.11.38-.24.64-.01.12-.04.29-.1.49-.02-.03-.01-.1-.06-.1-.11.34-.29.74-.38.97.02.03.03.09 0 .19-.15.2-.08.32-.17.59.02.14 0 .35.01.5-.03.21-.12.56-.03.61.04-.14.07-.5.13-.65.02-.15-.08-.11-.05-.26.07.01.12-.13.18-.2.05-.25-.11-.18-.03-.45.1.05.16-.23.26-.16.02.04.03.11.02.19-.13.18-.1.32-.11.58-.09-.07-.1.29-.17.32-.07.43-.21.93-.06 1.07.08-.22-.03-.8.15-.87-.06.33-.1.5-.02.65-.02.13-.07.29-.03.41-.04.03-.1.02-.12.11.08.13.05.36.08.54.08.05.07-.09.11-.11-.02.25.08.16.11.29-.14.1.01.14.01.33-.1.02-.02.36-.17.18 0 .13.04.4.01.59.03.09.08.08.11.22-.03.01-.05.02-.02.12.07-.08.01-.39.11-.43 0-.1-.1-.23-.04-.29.07.09.04.25.08.4.02.06.06.11.08.16.03.11-.05.12.01.23.05.04.09.07.13.21.01.23.14.53.25.76-.09.03.07.34.06.46.02.01.04-.01.06.04.13.23.26.52.37.47-.09-.18-.17-.35-.06-.34.14.25.06.3.19.47-.03.03 0 .1-.02.13.12.18.11.25.21.4.12.21.51.7.61.96.1.12.2.22.32.33.11.16.29.34.47.53.2.18.41.37.59.58.07.03.18.09.3.18.66.58 1.42.97 2.43 1.37.11.09.21.13.36.19.08.03.22.05.28.07.09.03.08.08.21.1.24 0 .47.04.86.1.13.03.09.1.27.12.36.1.59.03.81.04.11 0 .12.03.23.04.14.01.32-.04.46.01-.03.13-.41.09-.59.12.07-.09-.16-.08-.28-.11-.21.01-.31.07-.53.04-.21-.15-.55-.06-.77-.06-.01-.04-.07-.06-.03-.11-.39-.07-.64-.26-.84-.23l.02-.04c-.25-.06-.3-.06-.58-.12-.09.03-.19.05-.34.02-.1-.04-.05-.09-.23-.19-.05.03-.14.02-.26-.02-.07-.12-.08-.05-.26-.13.06-.01-.05-.14-.08-.09.11.05-.05.06-.09.03-.2-.1-.48-.32-.31-.28.14.08.05.13.27.23l.08-.12c-.31-.15-.49-.3-.69-.52-.07.11-.34-.14-.38.01.23.19.36.16.48.34-.2.16-.68-.49-.89-.42.26.2.42.41.69.59.4.22.84.34 1.26.61.06-.01.19.06.29.09.35.17.7.34 1.03.51.01-.06.06-.09.21-.04.11.14.4.1.59.13.16.05.16.12.4.14.12 0 .25.01.31-.02.69.07 1.35.15 2.29.06.07-.08.56-.13.66-.09-.06-.08.28-.07.41-.11.11-.02.15.01.3-.02s.17-.08.29-.12c.13.02.41-.15.58-.14.02-.04.06-.07.16-.1.07.06.31-.11.48-.09.2-.12.52-.35.71-.35.13-.06.1-.09.26-.16.12-.07.17-.05.32-.16.1-.06.04-.1.19-.16.52-.25.77-.51 1.29-.89.24-.27.46-.41.64-.56.05-.07.06-.11.15-.2.14-.13.23-.13.38-.31.07-.15.1-.27.23-.45.16-.23.29-.28.43-.51.41-.75.68-1.16.83-1.83-.12-.03 0-.31-.13-.32l-.02.02.11-.28c.11.11.21-.19.3-.26.05-.2.05-.34.02-.44.07-.1.02-.07.06-.23.05.03.09.02.13-.03.01-.16.08-.2.11-.35.04-.21.02-.46.06-.67.01-.14.06-.21.07-.35-.04-.24-.02-.45.01-.67h-.86c0 .01.01.03.01.05-.07.19.05.22-.02.39-.07-.02-.02-.27-.02-.44h-.08c.01.05.02.09.03.15-.04.09 0 .28-.03.49 0 .07.04.06.04.12-.04.17-.08.81-.11 1.16-.08.14-.21.45-.12.54.03-.12.06-.16.11-.14-.03.15-.06.53-.16.54-.03-.06.09-.3 0-.3-.09.17-.12.53-.26.73.02.14-.02.33-.08.51l-.05.03c-.11.49-.69 1.23-1.13 1.88-.13.12-.36.38-.52.51-.1.1-.09.15-.16.24-.22.1-.39.37-.59.43-.08.25-.57.42-.77.65-.15.07-.35.18-.48.29-.05-.03-.2.06-.32.11-.32.18-.43.29-.7.33-.01.04-.05.08-.13.12-.06-.02-.1-.04-.23.01-.31.17-.48.26-.87.38-.1 0-.42.11-.5.03-.19.03-.12.11-.32.13-.08-.08-.51.05-.61-.01-.02.1-.58.14-.66.06.08-.04.17-.08.27-.1.53-.01.63-.11 1.03-.12.08-.02.13-.05.21-.08.17-.01.22-.05.43-.06.22-.07.36-.07.49-.08.05-.09.27-.14.41-.17.03-.07.18-.11.34-.18.09-.04.06.06.17 0 .12-.09.33-.19.55-.26.19-.18.54-.38.8-.59.29-.19.56-.35.62-.54.02.01.03.04.07 0 .02-.02.05-.05.03-.06-.07-.01-.28.19-.38.21.06-.11-.16.04-.02-.13.1-.04.22-.12.32-.19.05-.07.01-.11.12-.2.11-.13.15-.08.23-.14.01-.09.21-.19.27-.26.06-.25.32-.47.59-.83.07-.14.15-.26.24-.38-.01.06-.01.11-.02.16.04-.08.18-.15.1-.05.04.03.11-.13.15-.09l.07.06.14-.26c-.04-.08.04-.22-.08-.19.06-.25.37-.78.45-1.09.04-.16.09-.13.13-.29.04-.14.02-.23.07-.37.13-.21.15-.64.18-.88.05-.25.13-.6.12-.77-.05-.07-.14.13-.14-.03.02-.16.09-.17.14-.23zm-1.11-4.48c-.03 0-.03-.04-.02-.05.03 0 .03.05.02.05zm2.1 3.48h-.09c-.03-.18.03-.17.04-.29.03.05.05.15.05.29zm-.23.1c-.1-.17-.06-.34-.09-.62.04-.01.05.07.1.06-.04.19.03.35-.01.56zm.12-1.25c.02.1-.01.12.01.23.02.18.1.16.08.4-.07.07-.09.04-.14-.06.05-.28-.02-.62-.12-.96.08.03.1.3.17.39zm-.37-.14c-.03-.11 0-.15-.01-.22.04-.02.08.31.01.22zm.22-.83c.04.22.09.44-.01.47-.03-.14-.09-.19-.14-.27-.08-.21.03-.18-.05-.4.09-.05.12.23.2.2zm-.43-.14c-.02 0-.03-.06-.05-.1.02-.01.04.06.05.1zm.12-.44c0 .03-.04-.03-.04-.05.01-.02.05.04.04.05zm-.29.08c-.13-.11.07-.16 0 0zm.16-.39c0 .03-.04-.03-.04-.05 0-.03.04.03.04.05zm-.14-2.12c.01.03-.05-.02-.05-.04-.01-.03.04.03.05.04zm-6.91-2.92c-.29.05-.17-.15 0 0zm.08.09c.01-.02.06 0 .11 0-.02.03-.07.01-.11 0zm.3.06c.02-.02.05 0 .05.01-.02.03-.06 0-.05-.01zm3.82 2.51c-.09-.22-.32-.26-.51-.47-.04-.02-.08-.05-.11-.03-.13-.21-.43-.4-.65-.61-.09-.08-.18-.1-.23-.1-.09-.12-.38-.27-.46-.4-.26-.04-.45-.19-.73-.23-.08-.05-.05-.1-.21-.14-.06-.07.02-.03.04-.09-.38-.1-.39-.27-.69-.3 0-.11.3.08.36.05.21.07.39.19.62.24.09.05.06.1.15.15.13.05.51.18.61.35.31.09.6.39.88.51.14.08.04.11.11.18.1.06.19.11.25.11.05.09.14.2.21.29.16.09.35.3.51.49.06.07.1.14.1.18.06.09.16.08.08.13-.11-.14-.24-.31-.33-.31zm.57 0c.05 0 .04.04.02.05-.05 0-.04-.04-.02-.05zm.29.8c.05.1.02.15.06.25-.13-.07-.19-.22-.31-.39.07-.05.18.19.25.14zm-.24-.21c-.16-.03-.09-.24 0 0zm2.19 1.62c-.04-.01-.01-.05-.04-.11.04 0 .07.1.04.11zm-2.53-4.47c-.17-.1-.12-.14-.21-.22.04-.03.28.2.21.22zm-.17-.17c.01.16-.14.05-.24 0-.11-.1-.05-.15-.05-.22zm-4.14-.87c.17.1.44.18.69.21.07.07-.01.03-.03.09.25.04.42.07.57.05.2.1.73.36.84.31.06.15.3.07.26.21.1.04.15.02.27.1-.07.03.07.1.1.15.14.09.4.13.48.27.09.06.13.02.22.08.16.19.42.24.51.42.32.21.74.59 1.07.84.09.09.14.16.11.2.17.09.2.29.38.49l-.04.03c.19.15.29.38.42.53.05.08.06.13.04.17.04.06.08.06.13.12.12.26.28.5.4.74.05.28.18.32.19.58-.12.03-.33-.37-.39-.62-.11-.04-.36-.53-.38-.67-.16-.1-.31-.37-.48-.42-.13-.14-.12-.2-.1-.26-.2-.18-.35-.28-.54-.54-.03-.04-.05-.01-.07-.01-.12-.16-.08-.1-.19-.26.02-.04.06-.04.12.03-.09-.2-.13-.24-.27-.42-.07-.08-.13-.11-.15-.08-.05-.13-.1-.15-.26-.28-.03.04-.41-.17-.22 0-.06.03-.21-.14-.1-.13-.18-.02-.26-.25-.49-.34-.11-.07-.12-.12-.2-.18-.1-.03-.24-.12-.25-.02-.16-.08-.35-.17-.4-.27-.23-.04-.48-.25-.72-.36-.03-.08.02-.08.11-.11-.03-.11-.16-.07-.29-.16-.23-.07-.32 0-.56-.09-.07-.01-.12 0-.13.04-.11-.04-.14-.02-.22-.03-.15-.04-.16-.11-.29-.15-.23-.05-.34-.01-.59-.1.21-.01.32-.11.45-.16zm-.43.6c-.05.04-.2.05-.26 0 .05-.03.14-.03.26 0zm-.29-.12-.01.06c-.16.01-.13-.12.01-.06zm-.42.01-.01.07c-.1.03-.38.01-.35-.07-.14.02-.32-.01-.52 0 .16-.13.62-.06.88 0zm-3.05.37c-.42.03-.51.25-.9.37.01-.04-.05-.03-.11 0 .02-.13.28-.2.44-.29.04-.02.11-.09.14-.1.13-.06.31-.08.45-.13.02.04.17-.03.21 0 .05.07-.16.1-.23.15zm.29-.12c.02-.04.04-.01.1-.02-.01.03-.1.04-.1.02zm.46-.03c-.03-.08.11-.11.24-.15.02.02.05.04.11.03-.04.07-.16.11-.35.12zm-1.72-.38c.18-.11.25-.1.4-.22.29-.04.35-.18.6-.14.24-.11.53-.17.83-.2.3-.05.6-.07.89-.09v.12c-.2-.01-.29.03-.33.08-.13.01-.16-.02-.33.02-.08.02-.13.06-.16.09-.21.05-.17-.05-.34-.03-.41.13-.89.26-1.24.29-.1.04-.05.09-.2.12-.15-.02-.55.21-.64.18.12-.08.38-.22.52-.22zm-.7 1.15c.22-.12.31-.1.52-.22.05.12-.4.23-.46.34-.16.1-.26.13-.3.07.16-.04.13-.09.24-.19zm-1.13.72c.01.03-.07.08-.08.06.02-.04.05-.08.08-.06zm-.06.1c.14-.07.3-.25.54-.39.09-.07.24-.2.35-.21-.02.06-.16.13-.08.18-.19.16-.24.19-.49.35l-.03-.04c-.17.13-.32.17-.5.35-.08-.04.21-.18.21-.24zm-.72.65c.16-.17.24-.16.37-.27-.07.17-.17.28-.4.46-.05-.04.06-.15.03-.19zm-1.41 9.54c.11.18.15.32.31.45l.06-.03c.09.13.01.14.06.24-.08.01-.03-.1-.1-.17-.05.06-.02.05-.11.05-.06-.14-.11-.11-.17-.25.11.01-.23-.4-.19-.52.05-.08.18.22.14.23zm-.39-.91c.04.09.05.15 0 .15l-.05-.14zm-1.43-.9c.04.04.07.18.1.27-.04-.08-.14-.13-.1-.27zm.3 1.03c-.06-.15.07-.07.05-.18.06.08.14.42.07.44-.09-.14-.04-.3-.12-.26zm.13.32.05-.01c.05.1.05.17.01.17zm.11.44c-.01-.09-.03-.18.03-.19.1.16.04.19.12.37-.05 0-.1-.22-.15-.18zm1.22.78c-.07.02-.15-.02-.23-.06 0-.13-.1-.19-.19-.44-.11-.16-.13-.31-.27-.46.03-.04-.09-.24-.04-.27-.14-.27-.22-.42-.31-.85-.03-.13-.16-.33-.12-.41-.01-.05-.04-.04-.06-.05-.01-.06.03-.05.06-.06-.03-.14-.07-.26-.12-.36-.06-.35-.07-.55-.12-.69-.01-.12 0-.21.01-.27-.01-.06-.05-.05-.07-.06 0-.13.02-.23.06-.27-.01-.06-.05-.14-.05-.06-.04-.4.03-.78.05-1.08.04-.02.05-.16.11-.09.03-.1.02-.17-.02-.17.03-.07.06-.16.12-.14-.01.2-.05.44.01.54.16-.31.06-.72.2-.97.07-.02.02.11.06.13.11-.06.1-.24.11-.4.01-.08.15-.3.05-.37-.07.02-.03.19-.01.22-.1.05-.08.11-.15.28-.03-.14-.07-.15-.12-.2.1-.05.11-.27.16-.33-.01-.08-.04-.12-.1-.15.08-.15.1-.06.09.03.06-.06.08-.15.01-.17.03-.06.06-.03.08-.02.05-.11-.04-.08-.01-.18.06-.12.12-.21.18-.27 0-.14.13-.36.17-.51.05-.14.09-.07.13-.11.06-.23.29-.47.44-.71.03-.05-.01-.06-.03-.09.19-.22.36-.43.58-.54l.13-.17.05.05c.09-.16.15-.13.28-.23.01.14-.33.45-.4.67-.14.15-.13.16-.27.37-.23.3-.39.55-.45.85-.15.26-.22.38-.2.57-.09.2-.24.56-.23.76-.13.19-.1.44-.26.7l.04.32c-.08.14-.03.28-.07.39-.01.03-.08.04-.07.14.01.13 0 .29.08.31-.03.14-.03.15-.02.3h-.05c.03.28.05.46.01.8.09.46.11.73.16 1.13.01.08.04.09.07.09-.03.08.07.32.05.39.05.02.05.29.13.22.02.12-.01.19-.03.27-.07-.03-.13-.2-.21-.15 0-.04-.03-.14 0-.16-.11-.16-.21-.35-.29-.67.07-.01.06-.11.14-.17-.02-.15-.12-.05-.16-.13-.04-.16.01-.16.01-.26-.06-.33-.05-.39-.08-.66-.06.09-.16.09-.23.16.1.11 0 .61.15.72-.05.23.14.5.12.67.03.06.06.1.09.09-.05.33.3.66.28 1 .03.11.08.03.12.12.06.26.22.49.34.47.1.22.18.36.36.62-.02 0-.05-.03-.07-.02.14.14.12.21.19.36-.1.01-.23-.16-.37-.31zm.85.93c-.12-.24-.29-.36-.46-.55.15.01.22.12.38.36.06.08.09.02.16.14zm.17.13c-.01-.03.05.01.05.02.01.03-.04-.01-.05-.02zm.82.49c-.22-.26-.32-.28-.55-.51-.01-.06-.06-.13.03-.15-.05-.11-.19-.11-.16-.18-.05-.05-.01.03-.06.04-.14-.17-.28-.33-.41-.44.04-.02.01-.08.05-.09.09.18.34.33.5.49.11.11.08.15.21.27.27.22.43.4.68.69-.07.02-.2-.11-.29-.12zm.41.28c.09-.04.24.05.41.2-.1.01-.26-.09-.41-.2zm.54.27c.04.04.06.08.03.11-.15-.08-.11-.13-.03-.11zm.61.47c-.07-.04-.19-.09-.26-.14-.09-.06-.03-.1-.23-.17.1-.02.38.12.45.2.11.04.19.09.28.2-.07.06-.15-.04-.24-.09zm.36.16c-.02-.02.05-.01.06 0 .01.03-.06.02-.06 0zm.16 2-.11-.04.02-.04.11.04zm.06.02c.02-.01.07 0 .07-.02.06.04.1.07.08.11-.09-.03-.08-.06-.15-.09zm12.07-6.12c.11-.14-.02.23-.05.34-.09-.03.1-.33.05-.34zm-8.77 6.02c.05-.08.3-.03.27.04-.13.01-.16-.02-.27-.04zm3.82-1.03-.1.05-.02-.04.1-.04zm-.33-.55c-.23.04-.56.23-.81.24-.13.06-.22.12-.26.18-.34.03-.59.18-.88.12-.05.01-.03.05-.09.06-.26.03-.56.13-.69.01-.22.06-.67.1-.78-.03-.22.11-.9.02-1.17-.1.09-.08-.12-.07-.07-.13-.11-.01-.3.07-.39-.03-.17-.01-.29.03-.54-.05.01-.06.24-.05.1-.14.32.05.67.17.98.23.12.02.19 0 .21-.06.08.06.09.01.23.04.12.1.4.13.66.18.11-.01.25-.04.34-.07.3.01.68-.03.87.01.09-.06.27-.05.39-.05.41-.09.7-.18 1.05-.19.19-.08.4-.14.61-.2.2-.08.4-.15.59-.24-.05.09-.23.09-.35.22zm.56-.33c-.03 0 .02-.05.03-.05.03 0-.01.05-.03.05zm.41.48c0-.03.08-.07.13-.1 0 .02-.08.06-.13.1zm-.02-.7c.05-.07.25-.18.28-.12-.09.05-.28.21-.28.12zm.79.12c.06-.03.11-.04.13 0-.06.03-.11.04-.13 0zm3.15-5.81c-.02-.01 0-.05.01-.05.02.01 0 .05-.01.05zm1.93-.78c-.03 0-.06.01-.05.12.08.13.15-.05.22-.16.01-.12.01-.24.02-.35h-.27c0 .15.02.3.08.39z"/></g></svg>