<svg xmlns="http://www.w3.org/2000/svg" fill="none" viewBox="0 0 88 88"><path d="m74.2 27.27h-61.2v43.2h61.2z" fill="#49a4d5"/><g fill="#1e1e1e"><path d="m53.18 18.16c-.02-.01.03-.03.03-.02.02.01-.02.03-.03.02z"/><path d="m50.52 18.49c0-.02.04-.02.07-.02h.1c0 .05-.12.01-.17.02z"/><path d="m48.03 18.72c.01-.03.07-.02.07 0-.04.02-.07.03-.07 0z"/><path d="m46.14 18.92c0 .1-.23.08-.27.02-.17.03-.19.01-.33-.03.08-.06.15-.03.23 0 .1 0 .29-.06.37.01z"/><path d="m44.61 19h-.13c-.02-.09.14-.07.13 0z"/><path d="m54.8898 25.45c.03.01.02.07 0 .07-.04-.02 0-.03 0-.07z"/><path d="m46.1999 19.04h.1c.02.07.06.13.09.19-.17.02-.17.01-.26-.05.06-.06.03-.09.07-.14z"/><path d="m54.8601 24.52v.07h-.05v-.07z"/><path d="m54.8101 24.65c.02 0 .02.04.02.07-.02 0-.02-.04-.02-.07z"/><path d="m54.7699 25.38h-.05c-.04-.07 0-.04 0-.13h.05c0 .09.04.07 0 .13z"/><path d="m45.96 19.22c.02-.03.03 0 .07 0-.02.03-.07.03-.07 0z"/><path d="m50.9499 20.01c.14.03.34.01.36.17-.05-.03-.13-.03-.16-.07-.07 0-.01.1-.07.12-.1-.04-.15-.11-.13-.22z"/><path d="m47.6501 19.99c-.02-.01.02-.03.03-.02.02.01-.02.03-.03.02z"/><path d="m47.7498 19.99c-.02-.01.03-.03.03-.02.02.01-.03.03-.03.02z"/><path d="m50.52 20.14c-.09-.04-.43-.02-.56-.04.04-.13.27.01.4-.06.07.02.15.04.16.1z"/><path d="m49.7199 20.17c-.19.02-.19-.13-.36-.05.07-.12.32-.06.36.05z"/><path d="m50.5499 20.17c.01.06-.07.06-.13.07.03-.04.05-.08.13-.07z"/><path d="m48.7 20.2c-.02-.01.03-.03.03-.02.02.01-.02.03-.03.02z"/><path d="m50.3198 20.23c0-.02.04-.02.07-.02-.01.02-.05.02-.07.02z"/><path d="m51.47 20.33c-.11.07-.28 0-.37.11-.07.01-.18-.12-.2 0-.08-.01-.06-.08-.16-.07.03-.12.3-.05.37-.13.17-.02.24.05.36.09z"/><path d="m48.2 20.21c-.17.09-.21-.05 0 0z"/><path d="m46.8098 20.18c.04.01.07.03.06.07-.07.02-.06-.03-.06-.07z"/><path d="m50.4398 20.33c-.05.07-.21.05-.33.06 0-.05-.09-.03-.06-.1.02-.03.13 0 .13-.04.11.09.16.05.26.08z"/><path d="m47.74 20.25c.08-.08.07.12 0 0z"/><path d="m49.59 20.27v.09l-.3-.01c.07-.05.18-.07.3-.08z"/><path d="m48.4599 20.31c.13 0 .16.06.3.05-.02.09-.14-.03-.17.07-.12-.02-.09-.01-.23-.03-.01-.06.13-.01.1-.09z"/><path d="m48.8198 20.34c.06.01.06.07.16.05-.01.14-.16.03-.16-.05z"/><path d="m49.05 20.4c-.02-.01.02-.03.03-.02.02.01-.02.02-.03.02z"/><path d="m35.62 20.52c-.02-.01.02-.03.03-.02.02.01-.02.03-.03.02z"/><path d="m35.6199 20.55c0 .05-.03.07-.1.07-.1.03-.16.19-.3.11-.02-.06.07-.04.1-.07-.08-.06.05-.04.04-.12.13.01.15-.03.26.01z"/><path d="m34.5098 21.68c-.02-.01.03-.03.03-.02.02.01-.02.03-.03.02z"/><path d="m54.8899 24.39c-.12-.1-.08-.28-.06-.5-.02-.2-.02-.44-.08-.6.03-.14.04-.28.01-.36-.01-.08.07-.03.07-.1.01-.1.01-.2-.04-.23.02-.09.05-.22-.02-.27.04-.07.06-.16.05-.3.04-.12.02-.16.05-.26-.01-.04-.03-.09-.04-.13.04-.24 0-.31.01-.63-.02-.07-.06-.12-.09-.17-.09.04-.06.38.02.4-.08.06-.01.32-.1.36-.02.12.08.08.07.2-.1.04-.07.23-.1.29.03.25.02.35.08.57 0 .08-.04.1-.07.13 0 .06.02.09.05.1-.08.16-.02.24-.01.46-.02.07-.02.18-.08.2.03.1.03.24-.01.33.05.18-.08.46.04.6-.09.11 0 .29-.08.43.01.06.05.09.04.17-.04.12-.01.32-.06.43.07.46-.08 1.01.02 1.29-.07.09-.19.1-.19.29-.12.01-.19.11-.26.19-.13.02-.11-.15-.23-.14-.12-.37-.05-.63-.1-1.1 0-.14.06-.21.05-.36-.01-.12-.06-.18-.09-.27 0-.13.06-.16.08-.26.01-.07-.01-.09-.02-.13.04-.13.07-.27.03-.46.06-.35-.01-.54.06-.86.02-.09-.04-.07-.04-.13-.01-.1.03-.12.03-.2.02-.09-.03-.09-.02-.17.08-.09.02-.3-.01-.43.08-.08 0-.24.08-.26 0-.06-.02-.09-.04-.1.07-.09-.02-.27.03-.33-.01-.06-.05-.09-.04-.17 0-.08.04-.1.05-.16-.02-.08.05-.26-.04-.23.06-.05.08-.32.01-.36-.02-.51.03-.88 0-1.26-.01-.01-.02-.02-.02-.03l.51.51c-.04.02-.09.03-.14.04-.13.01-.13-.06-.23-.08-.11.01-.26.13-.33.02-.09-.01-.11.03-.1.09-.19-.05-.41-.09-.62-.13-.06.01-.14.01-.17.04-.27-.07-.52.05-.76.08-.17-.02-.31-.07-.49-.08.07-.18.49.04.54-.18-.11-.09-.17.01-.33-.01-.03-.14.18-.11.17-.23.17.07.3.11.49.08l-.01.14c-.13.03-.1-.05-.2-.05-.09.05.11.09.23.08.03 0 .1-.08.04-.07 0-.06.09.01.06.05.11 0 .1-.08.17 0 .07-.01.11-.04.14-.09.12.01.1.08.16.07.08-.03.13-.08.17-.14.16-.05.18-.06.33-.09v.05c.1-.09.27.04.5.01-.02.05.02.06.03.09.1-.03.24-.13.36-.1l-.11-.11c-.01.03-.02.05-.04.08.01.13.07.18.09.3-.02.07 0 .2-.1.16.05.1.02.32.13.34.07-.08 0-.18.01-.26 0-.06.03-.07.03-.13-.01-.12-.08-.25-.04-.46 0-.01 0-.02 0-.02l.03.03c-.09 0-.08-.07-.15-.07-.23-.02-.37.03-.5.08-.08.01-.08-.04-.13-.05-.04-.01-.12.02-.17.02-.09 0-.15-.01-.23-.05-.63 0-1.12.03-1.62-.01-.08 0-.16.01-.2.04-.31-.08-.66.01-.89-.04l-.31.03c-.16-.09-.52-.05-.66-.04-.11 0-.14-.04-.26-.03-.01-.03-.06-.04-.06-.07-.12.05-.13-.04-.3-.03-.03.1.08.1.19.1-.01.13-.19.12-.34.14-.03 0-.03.03-.03.05-.06-.05-.26-.01-.26-.1-.15.01-.33.06-.46.01-.08-.01-.1.03-.14.07-.07.02-.06-.05-.13-.05-.04 0-.06.04-.1.04-.09.02-.18-.03-.23.02.03.07.11-.01.17 0 .01.11.19.1.22.19-.06.01-.06-.02-.06-.05-.08-.01-.08.05-.14.07-.1-.06-.26-.06-.33-.08.11-.11-.09-.09-.09-.19-.11-.01-.14.14-.2.02-.08.01-.03.12-.17.09.01.05.09.04.06.12-.1.02-.23-.02-.3.06-.05-.02-.04-.08-.06-.12-.06.05-.16.01-.23 0-.08.1-.18.04-.37.04.05.15.37.01.49.08-.07.16-.35.02-.6.04-.02-.07-.22-.02-.19-.12-.15.02-.22.1-.33.02-.05.01-.08.04-.1.07-.02.11.14.11.12.21.15.01.1-.14.24-.14.05.05.12.07.13.14.09 0 .05-.09.14-.09.08.04.28.01.36.06-.02.08-.22.03-.33.04-.08.04-.2.04-.27.09-.15-.05-.2.06-.33-.03-.06 0-.09.02-.1.05-.13-.05-.37-.07-.56-.06-.01-.05.02-.06.04-.09-.11.01-.2.04-.27.09-.16-.01-.3 0-.37.06-.15.01-.19-.04-.33-.03-.02-.03-.15-.11-.16-.07-.05-.01 0-.02 0-.05-.09-.03-.2.04-.2 0-.09.01-.1.07-.2.07-.07.09-.22.05-.27.11-.05 0-.09 0-.1-.03-.09.07-.13.04-.23.07-.09 0-.19 0-.23-.03-.08.01-.12.06-.17.09-.07-.01-.06-.06-.09-.1-.16.05-.45.15-.63.03-.05.01-.06.05-.07.09-.21-.01-.25.11-.5.06-.08.02-.12.07-.14.14-.15-.02-.31.07-.33-.05-.12-.01-.13.07-.24.07-.01-.03-.06 0-.07.02-.07-.03-.11-.08-.19-.1-.16.03-.29.17-.5.08-.13.01-.2.06-.27.11-.08-.03-.06 0-.16-.03-.12.02-.18.09-.37.06-.05.03-.15.02-.14.09-.1 0-.13-.05-.2-.07-.15-.02-.2.03-.33.02-.12-.04-.3-.04-.4-.01-.09-.04-.14-.12-.22-.17-.05-.14.07-.26-.05-.33-.11-.02-.05.08-.13.07-.15-.04-.28-.1-.4-.06-.1-.07-.36-.05-.46-.13h-.2c0-.02-.11-.07-.1-.03-.04-.02-.06-.06-.1-.1-.09.02-.09.11-.17.14-.15-.06-.3.02-.29-.12-.1 0-.24-.02-.3.02-.03.07.22.12 0 .12.01.06.09.07.16.1-.11.05-.15.02-.27.07-.06-.06-.08-.05-.16-.07-.04.01-.03.06-.04.09-.11-.04-.31-.09-.36.02-.08 0-.1-.04-.16-.05-.18-.01-.26.04-.36-.03-.07.08-.36 0-.34.16-.05-.06-.18-.06-.23-.12-.07.02-.09.06-.1.12-.12-.01-.26-.02-.39-.01l.89-.89c.01.1.02.19.04.27 0 .11-.08.09-.1.16.05.15.09.31.13.47l-.07.1c-.01.09.13-.03.09.1-.07.02-.06-.05-.12-.04-.02.12.05.13.12.14.05.1 0 .34.11.37-.06.1.04.23-.05.3 0 .04.04.03.07.04 0 .06-.07.19 0 .23 0 .03-.07-.01-.07.04.01.08.04-.04.07.04-.04.11-.07.27-.03.4-.1.07-.01.23-.1.29.05.11.05.28.04.46-.07.06-.13.16-.22.09-.01-.06.02-.06.05-.06-.11-.08-.13-.27-.06-.44-.05-.03-.05-.12-.09-.17 0-.11.04-.16.03-.3-.06-.16-.02-.41-.11-.6.07-.07-.04-.18.05-.2-.04-.1-.01-.28-.06-.37 0-.06.03-.07.03-.13.02-.12-.08-.08-.07-.2.12-.01-.01-.13 0-.2h.07c-.03-.1 0-.2.03-.3-.06-.17.01-.15-.02-.33.03-.03.05-.09.07-.13.01-.03 0-.05-.01-.07l-.71.74c.01 0 .02-.01.03-.01.07.04.21.03.23.1.06-.09.19-.13.31-.18.16.02.16.01.3-.02.03.03.09.05.13.07.07.01.11-.02.1-.07.07.02.09.06.2.05.07.03.05-.04.07-.05.07-.02.18.03.14-.09.06.01.02.09.13.07.01-.08-.1.01-.06-.12-.09.01-.2.02-.3-.03-.04 0-.02.05-.07.05-.24-.03-.39.01-.53-.06-.03.02-.05.04-.07.07-.09.01-.26-.03-.3.02-.08-.03-.19-.04-.31-.05l.47-.47c0 .27.05.61.02.85-.02.1.06.07.04.17-.01.07-.05.1-.07.16.01.1.08.23-.01.3.02.04.04.1.07.14-.07.21 0 .63-.04.79.03.12.01.31.01.43 0 .06.01.1.07.17-.03.19-.09.36-.01.56 0 .08-.05.12-.05.2-.01.11.05.25.04.37-.01.08-.07.11-.05.2-.03.03-.06.04-.12.03 0 .09.04.07 0 .13.05.05.08.12.09.24-.08.05-.08.23-.22.19l-.01.43c.13.05.08.33.25.31.01.08.04.17-.01.23-.01.05.02.06.02.1-.06.14.01.49-.06.63.05.1.04.21.04.43-.03 0-.02.06-.03.1-.05.02-.08.07-.12.09-.03.08.07.14 0 .17-.07.09-.06-.11-.12-.14.02-.16.06-.28.08-.43-.02-.08-.03-.1-.04-.23.01-.17-.08-.24-.04-.52-.11-.04-.09.09-.19.06-.01-.16-.08-.24-.14-.34v-.17c-.06-.14-.09-.33-.18-.44.07-.14-.05-.35.01-.46.09-.02.04.14.09.17.08-.02.02-.24.01-.33-.05-.01-.08.02-.07.1-.11-.04-.06-.24-.02-.33-.03-.21-.1-.59-.06-.7-.01-.04-.05-.02-.05-.07.02-.13-.03-.25.01-.3-.02-.11-.08-.18-.11-.27.13-.09-.07-.3.08-.39-.07-.07-.01-.3-.09-.37.11-.11-.01-.29.06-.43-.02-.08-.05-.15-.09-.2.03-.09-.04-.3-.06-.43-.02-.03-.04-.05-.07-.07-.01-.1.06-.09.07-.16.03-.12-.06-.1-.04-.2.05.07.03-.01.07-.03-.04-.14-.06-.31-.13-.4.02-.13-.03-.24-.01-.34l.16-.82.55.11c.02 0 .04.01.06.02.15-.01.2-.11.37-.11-.07-.14-.26-.05-.39-.13-.01 0-.03 0-.03 0l-.88-.08-.05 1.01c-.01.1.01.16.02.23-.04.08-.12.07-.07.2.04.01.04-.02.05-.06.03.08-.05.43.01.56 0 .05-.02.06-.03.1.03.07 0 .21.07.23-.05.13-.15.18-.1.36-.06 0-.05.11-.05.2.02.13.07.23.09.37-.05.11-.05.29-.08.43.01.13.02.27.06.37-.03.22.06.24.02.4.03.04.06.09.09.14-.03.04-.03.12-.03.2-.06.02-.13.03-.13.14.03.1.08-.03.14.01.05.11.01.33.01.5.04.15.1.41.06.56.01.09.05.14.07.23.02.1-.04.1-.03.2.07.19 0 .58.1.73.08-.06.09.04.16.07v.2h-.09c-.05-.01-.03.09-.07.1 0-.08-.06.01-.05.06-.05-.06-.11-.09-.11-.2-.09.02-.08-.08-.14-.1 0-.06-.02-.09-.05-.1.06-.25-.17-.61-.03-.86.01-.1-.05-.1-.04-.2.09-.1.01-.24.06-.39-.03-.13-.07-.25-.06-.43 0-.06-.02-.09-.05-.1.07-.18-.03-.31.03-.46 0-.14-.09-.18-.04-.3-.01-.04-.05-.02-.05-.07.02-.23 0-.43-.06-.56.03-.15.03-.38-.04-.5.03-.14.07-.26.06-.46-.01-.13-.09-.21-.04-.33-.03-.1-.1-.28-.04-.4-.06-.09-.03-.31-.09-.4.01-.18.01-.16.03-.33-.03-.09-.03-.21-.05-.31l-.2-1.13 1.61-.28c.05-.01.09-.02.12-.04.07.05.09.05.16 0 .05-.01.06.02.1.03.08.01.1-.04.17-.04.22.03.3.01.49.03.06 0 .09-.02.1-.04.04.03.2.04.2-.02.08.05.09.02.16.05.09-.01.17-.09.27-.02.03-.02.12-.01.1-.07.04.02.09.03.13.05.08-.06.31 0 .33-.09.05.04.17.02.16.1.06.01.17-.02.13.05.25-.09.41 0 .57-.13.2.05.26-.05.43.03.22-.05.38-.04.63-.01.27-.04.46-.12.77-.08.09.02.07-.04.13-.04.1.03.13.02.2-.02.15.01.2.04.3-.02.07.02.22-.02.23.03.08.01.1-.03.13-.07.04.03.12.03.2.03.06.01.06-.02.07-.05.05.03.08.03.13 0 .1 0 .1.06.2.05.18.01.15-.03.3-.06.02.05.15.02.16.07.09-.01.09-.1.2-.09.11.14.41-.02.63.06.07-.02.13-.04.14-.12.04.04.22-.01.16.1.21-.04.36.01.59.01.02.02.03.04.03.07.18 0 .37.02.46-.04.11-.01.15.02.23.03.2-.01.2-.03.36.03.32.02.54.04.86.02.08-.02.16-.04.23-.07.12.04.36.08.56.03.07.02.22-.02.23.03.23-.08.52.06.73-.03.11.04.38.04.46.03.1.01.09-.06.17-.07.27.03.46.07.73.04.16.04.35.06.46-.04.17.01.29.13.43.03.2.1.45.04.66.01.05.05.13.08.16.14.11-.02.15-.1.2-.16.11-.02.15.02.23-.04.12.04.32.01.43.06.11-.04.27-.04.37-.09.08.06.21-.03.2.05.09.02.07-.05.1-.07.17.04.26-.06.33-.02.07-.01.07-.06.13-.07.13.02.12.05.26.03-.03.1.15.05.19.1.07-.02.18-.01.2-.07.12.05.35.01.46.06.22-.02.29-.02.43.03.11 0 .18-.03.23-.07.08.01.14.03.2.05.18-.07.36 0 .56-.06.16.06.21.07.32.17h.26c.01-.11-.18-.09-.19-.19.04-.09.2.02.3.03.16-.01.42-.05.56.01.06.01.12.01.18 0l1.61-.11.16 1.86c.01.07.01.12-.01.15 0 .1.06.11.07.2-.11.29.01.72-.12 1.05-.01.1.05.1.04.2-.05.01 0 .18-.07.16.05.18 0 .46-.06.59.03.13-.02.16.02.27-.02.07-.02.18-.07.2.01.06.05.08.04.17-.04.1-.09.19-.08.36-.05.04-.05.13-.1.16.01.04.03.07.07.07 0 .08-.04.1-.03.2.04.11-.03.18.04.23-.01.08-.04.15-.08.19.03.19-.08.18-.08.33-.06.01-.02-.13-.09-.1-.04.17.03.35-.06.49.04.23-.03.42.03.6-.03.01-.05.04-.05.1.08.21.01.61.15.73-.01.12-.07.08-.03.2-.06-.01-.05.13-.1.19-.08.02-.14.06-.19.12-.03-.09-.17-.2-.11-.3-.05-.06-.04-.2-.09-.27.04-.19.04-.34-.01-.53.02-.28.03-.49-.08-.63 0-.06.07-.19 0-.23.01-.06.07-.06.05-.16.01-.08-.05-.08-.07-.13.02-.07.02-.17.05-.23-.05-.14-.06.03-.11-.04-.05.06-.01.23-.08.26-.02.01-.02-.01-.02-.03 0-.04.03-.03.05-.04zm.82-2.01c.11-.23.09-.44.09-.72.02-.08.05-.2 0-.26.08-.12.06-.39.08-.59-.03-.07-.04-.16-.07-.23.03-.18.06-.36.15-.46.02-.1-.04-.1 0-.17-.04 0-.07-.03-.09-.08l-.43-1.8-1.1.27c-.02 0-.03.01-.05.01-.22-.02-.47-.05-.69-.01.11.05-.05.11-.04.16.18.02.25-.05.37-.09.07.05.19-.05.27-.06-.03.07.11.03.06.12.03.01.06.01.09.02l1.57.37-.2.99c-.04.22-.07.57.03.7-.11.08-.11.38-.06.53-.11.08-.08.28-.08.46 0 .04.04.03.05.07-.09.18-.04.37-.08.59.05.04.08.1.09.2-.08.16 0 .41-.08.56.06.11-.02.21.06.27 0-.27.08-.57.06-.85zm-3.47-4.02c-.07-.03-.28 0-.33.06.14-.04.12.02.2.03.06 0 .14-.02.2-.02.07 0 .15.04.17-.04-.09-.06-.16-.05-.24-.03zm-.4.08c0-.04-.02-.06-.06-.07-.05.03-.05.09.06.07zm.77-.05c-.01-.01-.05.01-.03.02 0 .01.04-.01.03-.02zm-2.12.07c-.03.07.02.09.06.12.21-.01.27-.1.5-.04.05-.05.18-.04.2-.11-.26-.05-.42-.08-.66-.01-.12.02-.13-.04-.23-.03-.15.03-.33.15-.47.11-.01.04.04.05.03.1.11-.04.25-.05.4-.06.01-.04-.05-.06 0-.07.03.06.09-.04.17-.01zm.89.02c.13-.01.25-.02.3-.09-.15-.01-.27.01-.3.09zm4.26 4.95c.01-.01-.01-.05-.02-.03-.01.01.01.05.02.03zm-.03.26c-.08-.04-.04.13-.05.2.07.01.09-.14.05-.2zm-6.15-5.15c-.13.06-.23.04-.37.06.01-.04-.21-.05-.17.02.06.09.4-.04.36.05.1.02.1-.04.2-.02.03-.07.02-.04 0-.12.06-.02.11.07.13 0-.08-.01-.06-.08-.16-.07zm-4.22.38c.1-.03.21-.08.26.01 0 .05-.09.03-.07.09.17.07.42-.07.63.04-.06.07-.21.06-.33.09-.01.06.05.07.1.1 0-.04.03-.06.1-.05-.04.07.05.06.06.1.18-.02.41.05.66-.01-.05-.01 0-.04.04-.05.02.05.09.06.16.07.01-.03 0-.07.04-.07.04.02.09.03.16.03.09-.06.21-.04.43-.04.06-.03.15-.05.23-.07 0 .03-.01.07.03.07.01-.02 0-.05.03-.05.04.05.18-.02.27-.02.27 0 .38.01.56-.04.01.05.15.01.16.05.12-.06.21-.01.33-.04.16.02.23-.04.3.03.05-.04.09-.09.11-.16.12-.04.27-.06.3-.16-.1-.02-.14-.07-.26-.03 0-.02.03-.03.04-.05-.21.01-.3.01-.46.01-.02.13-.2.16-.37.11-.06 0-.03.08-.1.07-.2-.14-.47.08-.66-.04 0 .04-.03.06-.07.07-.1-.06-.29.07-.43-.01-.09.13-.39-.05-.47.06-.04-.07-.03-.18-.09-.24.18-.01.21-.01.43-.01.06.01.06.07.16.05.06-.03.01-.14.1-.14.03.09.1.1.09.17.21 0 .35-.04.47-.11.01.03.07.03.1.05-.01-.09.11-.08.14-.14-.04-.05-.08-.1-.16-.12.03.09-.14.02-.17.07-.05-.05-.22-.01-.26-.05-.01.03-.01.06-.07.05-.27-.01-.45-.06-.76.01-.22-.05-.34-.07-.53-.01v-.05c-.1.02-.1.02-.2 0-.01.07-.12.07-.2.09-.06.02-.07-.05-.1-.05-.08-.01-.17.05-.26-.01-.07.03-.14.06-.2.09-.19-.09-.35 0-.49-.08-.13.06-.38.06-.53.04-.11.08-.2.08-.4.06-.19.06-.38.08-.63.03-.16-.01-.16.02-.3-.01-.14.06-.44-.01-.5.11.11.02.11.09.23.05v.07h.13c.14.11.31.09.49.15.01-.03 0-.07.04-.07.18.01.39.07.53.03.03.02.01.09.1.07.09-.03.25-.02.33-.06.04.04.11.06.2.08.06 0 .03-.08.1-.07 0 .03-.01.07.03.07 0-.07.05-.08.1-.05-.06.02-.11.08 0 .09.01-.06.02-.11.07-.14.05.04.18-.01.23.08.02-.06.02-.1.11-.16-.11-.02-.15.01-.2-.07-.01.03-.11.11-.13.04.01-.09.17 0 .22-.02zm3.19-.26h.1c.01-.04-.03-.06-.1-.05zm1.75.13c-.19-.02-.28-.03-.33.09.17-.02.29-.08.46-.04v-.09c-.09-.03-.07.04-.13.04zm.29-.02c-.01-.01-.05.01-.03.02.01.01.05-.01.03-.02zm-8.96-.02v-.05c-.2-.03-.24-.02-.4.02.03.09-.07.07-.1.12.06.05.19.02.26.01.18.02.33-.02.43.01.03-.05.23.03.2-.07-.16.01-.25-.03-.39-.04zm.53.04c.11.01.14.07.3.05 0-.06.11-.05.1-.12-.2-.04-.29-.01-.4.07zm-5.98-.15c-.11.02-.1-.04-.16-.05-.18.08-.34.02-.5.11-.09-.07-.3-.05-.4-.1-.03.03-.09.05-.17.04-.2-.03-.43-.03-.59-.08-.01.03-.04.04-.07.05-.19-.03-.32.08-.46.01-.04.06-.18.04-.3.04-.01.09.03.01.1.03.02.03.07.05.13.05.16 0 .35.02.46-.01.07.03.16.04.23.08.02-.05.09-.06.17-.07.06.01.02.09.13.07.2-.09.46.02.66-.06.11.08.37.05.46.03.07.01.06.07.13.07.15-.05.29.02.43.01.03-.06.26.03.23-.07-.2.05-.24-.09-.49-.06 0-.06.06-.04.01-.09zm4.72.1c-.07.08-.37-.02-.37.11.15-.01.2.05.36.03.09-.03.09-.09.2-.04.01-.08-.06-.11-.19-.1zm-9.16 1.14c0-.01 0-.02.01-.02l.83-1.32.35.14c.06.02.07.07.14.09 0-.08.17-.03.17-.11-.13-.01-.23-.05-.31 0l-1.44.84.24.36zm8.63-1.11c-.27-.01-.36.13-.63.06-.05.04-.19 0-.17.09.02.03.13.01.13.05.09-.02.21.02.3.01.02 0 .07-.04.1-.04.12-.02.29-.01.33-.11-.03-.01-.07-.02-.06-.06zm14.74 5.36c.04 0 .06-.02.07-.06-.04 0-.06.02-.07.06zm-21.85-5.43c.17.07.09-.11 0 0zm5.75.16c.04.01.05.03.06.05.08-.02.18-.03.17-.11-.12-.02-.2 0-.23.06zm16.13 4.71c0-.04.01-.09-.02-.1 0 .04-.01.09.02.1zm-23.37-3.06c-.01 0-.03.03 0 .03.01 0 .03-.02 0-.03zm10.05-1.61c0-.02-.06-.03-.07 0 .01.03.04.01.07 0zm-3.83-.01c.01-.08-.17-.09-.23-.05v.07c.17.06.46.07.56-.04-.13 0-.25 0-.33.02zm1.55-.01c0-.02-.06-.03-.07 0 .04-.01.06.03.07 0zm15.52 4.06v.07h.05v-.07zm-18.2-4.1c0-.01-.03-.03-.03 0 0 .02.03.03.03 0zm.2-.02c-.03 0-.07 0-.07.02.03 0 .07.01.07-.02zm.23.08c.08.01.14-.01.17-.04-.05-.04-.14-.01-.17.04zm-.16 0c.12.12.17-.09 0 0zm.36.07c.1.04.1-.1 0-.07zm-5.58 4.82c-.01 0-.03.03 0 .03.02 0 .03-.02 0-.03zm22.96-3.21c-.01.06-.05.08-.05.16.08.02.14-.13.05-.16zm-21.29-1.54c0-.03-.01-.06-.03-.02 0 .02.01.05.03.02zm2.01.23c-.05-.08-.19-.04-.3-.03.02.09-.07.09-.14.12-.06-.01-.08-.05-.16-.05-.15.07-.27-.08-.36.02.05-.06-.08-.11-.1-.05.16.02-.11.08-.1.14-.12.01-.16.03-.23-.03 0 .04-.03.05-.1.05-.14-.04-.17-.04-.29-.1.06 0 .08-.02.07-.07-.12-.02-.08 0-.2-.03-.01.02 0 .05-.04.05-.2-.04-.31.04-.47.08-.02-.06-.05-.1-.16-.08-.02.02-.05.04-.09.06l-.62.29.11.23c.04.09.06.21.12.29-.08.08-.08.41.01.46-.06.15-.02.43.11.43.07-.15-.02-.2.05-.36-.01-.16-.06-.33-.01-.5 0-.05-.04-.06-.04-.1.03-.01.05-.04.05-.1-.01-.04-.01-.08-.01-.13v-.24h.23c.09 0 .18.01.27-.03v.05c.16-.02.26.07.36.01.01.04.05.06.13.05.24-.1.58-.09.8-.15.11.09.25-.03.4.03.07-.01.07-.06.13-.07.09.07.23-.02.33-.02.03.03.12.01.1.07.08.01.1-.03.17-.04.02.14.12-.03.2.07.05-.1.4-.08.53-.04.08-.07.19-.12.34-.14 0 .06-.06.05 0 .09.15-.03.32-.02.43.03.07-.08.12-.18.24-.23-.16-.05-.22 0-.36.02-.09-.01-.1-.07-.2-.08-.04.01-.06.03-.13.02 0 .04-.03.06-.07.07-.15.01-.19.1-.33.11-.09-.04-.16.03-.2-.05.05-.06.08-.07.04-.14-.18.03-.37-.04-.51.02zm12.82.45c-.01-.1.07.01.17-.02 0-.07-.21-.12-.26-.08.06.01-.01.11.09.1zm.36-.06c-.01.06.05.07.1.1-.01-.07.12-.02.13-.07-.12-.02-.12-.07-.23-.03zm-.16.04h.1c.01-.04-.03-.06-.1-.05zm-8.47-.15c-.09-.02-.07.05-.13.04-.21-.1-.5-.08-.76-.04-.1 0-.07-.09-.2-.08-.02.03-.05.06-.1.07-.1.02-.12-.03-.2-.03-.03.05-.08.08-.2.07v.12c.34-.03.72.05 1.03-.03.14.11.19-.02.36.03.11-.06.15-.02.27-.07.08.05.25.01.33-.02-.04-.07-.32 0-.4-.06zm7.64.2c.07.06.12-.02.17-.04-.07.01-.14.01-.17.04zm-15.19 3.31c.01.1-.03.26.04.27.07-.1-.05-.12 0-.23 0-.04-.03-.05-.02-.1-.02-.11.06-.36-.04-.37-.09.08-.04.36.02.43zm-.01-1.73c.12-.07-.08-.08 0 0zm.04.17c.01.03 0 .06.02.07 0-.03.01-.07-.02-.07zm.04.53c-.01.05-.04.06-.03.13.07.06.07-.14.03-.13zm.1.97c.05-.12-.01-.22.03-.33-.04.01-.05-.04-.09-.04.01.17-.03.26.06.37zm20.46-2.83h.07v-.05h-.07zm.1 0c.04 0 .04.03.1.03 0-.04-.02-.06-.06-.07-.01.02-.04.02-.04.04zm-20.53 4.88c-.01-.07-.01-.3-.07-.2.04-.01-.03.19.07.2zm.04-3.24c.03.05.07.08.07.17.1 0 .11-.13.12-.26-.08 0-.04-.16-.14-.14.02.13-.07.09-.05.23zm.01-.7c-.01.01.01.05.02.03.01 0 0-.04-.02-.03zm.02.2c-.01.01.01.05.02.03.01 0 0-.04-.02-.03zm.03-.33c0 .04-.04.05 0 .07.03 0 .03-.06 0-.07zm.11 1.66c.03-.14-.05-.13-.04-.23 0-.06.03-.07.03-.13-.05-.06-.03-.22-.11-.24.05.2.05.4-.01.56.04.06.06.08.13.04zm0 .3c.01-.08-.01-.14-.04-.17-.01.06-.07.06-.05.16zm1.61-2.46c-.02.06.15.09.16.05-.05-.01-.05-.07-.16-.05zm.33.03c-.02-.05-.01-.13-.09-.14-.06.01-.16.02-.1.14zm-1.29-.49c-.01.01.01.05.02.03.01 0-.01-.05-.02-.03z"/><path d="m54.7698 25.55c.02.05-.02.02-.02 0-.01-.05.02-.07.02-.03z"/><path d="m32.4199 19.94c-.05.09-.04-.03-.03-.09l.16-.5.26.08h.01c0 .02-.01.02-.01.03l-.46.2.08.18c.01.04-.07.11-.01.1z"/><path d="m48.1399 20.14c.05-.14.2-.06.4-.09-.02.06.07.05.1.07-.12.01-.34.11-.5.02z"/><path d="m47.3099 20.27c.07-.05-.03.06.03.07.14-.02.19.02.3-.04.07.01.06.06.1.1.16-.07.27.07.4.01.09.16-.22.02-.23.07-.04 0-.03-.04-.03-.07-.09.06-.23.01-.4.04-.04-.11-.23-.08-.33-.03-.05 0-.06-.02-.1-.03-.1.07-.2-.01-.27.07-.03-.01-.06-.02-.06-.05-.04.01-.07.03-.07.07-.18-.05-.23.06-.36-.03-.02-.09.16-.03.23-.04.07-.05.07-.14.24-.11-.04.14.25.05.26.01.05.04.25.04.29-.04z"/><path d="m45.29 54.57c.01-.01.03.02.02.02-.01.01-.02-.01-.02-.02z"/><path d="m44.9701 52.99c.02 0 .02.02.02.04v.06c-.05.01-.01-.07-.02-.1z"/><path d="m44.7401 51.52c.03.01.02.04 0 .04-.02-.02-.03-.04 0-.04z"/><path d="m44.54 50.39c-.1 0-.08-.14-.02-.16-.03-.1-.01-.11.03-.2.06.05.03.09 0 .14-.01.07.05.18-.01.22z"/><path d="m44.45 49.49c0-.03 0-.05 0-.08.1-.01.08.08 0 .08z"/><path d="m44.1401 58.59c.03.01.02.04 0 .04-.04-.01 0-.02 0-.04z"/><path d="m44.4201 50.43v.06c-.07.01-.13.04-.19.05-.02-.1-.01-.1.05-.16.06.05.09.03.14.05z"/><path d="m44.1101 58.04v.04c-.02 0-.03 0-.05 0 0-.01 0-.03 0-.04z"/><path d="m44.0601 58.12c.02 0 .02.02.02.04-.02 0-.02-.03-.02-.04z"/><path d="m44.0199 58.55c-.02 0-.03 0-.05 0-.04-.04 0-.02 0-.08h.05c0 .05.04.04 0 .08z"/><path d="m44.2301 50.29c.03.01 0 .02 0 .04-.03-.01-.02-.04 0-.04z"/><path d="m43.45 53.25c-.03.08-.01.2-.17.21.03-.03.03-.08.07-.1 0-.04-.1-.01-.12-.04.04-.05.1-.08.22-.07z"/><path d="m43.47 51.29c.01-.01.03.01.02.02s-.03-.01-.02-.02z"/><path d="m43.47 51.35c.01-.01.03.02.02.02-.01.01-.03-.02-.02-.02z"/><path d="m43.3101 52.99c.04-.05.02-.26.04-.33.13.02-.01.16.06.24-.01.05-.03.09-.1.09z"/><path d="m43.2799 52.52c-.02-.11.13-.11.05-.21.12.04.07.18-.05.21z"/><path d="m43.29 53.01c-.06 0-.06-.04-.07-.08.04.02.08.03.07.08z"/><path d="m43.26 51.91c.01-.01.0301.01.0201.02s-.0301-.01-.0201-.02z"/><path d="m43.22 52.87c.02 0 .02.02.02.04-.02 0-.01-.02-.02-.04z"/><path d="m43.1301 53.56c-.07-.06 0-.16-.11-.22-.01-.04.12-.11 0-.12.01-.05.08-.03.07-.1.12.02.05.18.13.22.01.11-.06.15-.09.22z"/><path d="m43.24 51.62c-.08-.1.06-.13 0 0z"/><path d="m43.27 50.79c-.01.02-.03.04-.07.04-.01-.04.03-.03.07-.04z"/><path d="m43.1301 52.95c-.07-.03-.05-.13-.06-.2.05 0 .03-.05.1-.04.03.01 0 .08.04.08-.09.07-.05.1-.08.16z"/><path d="m43.2101 51.34c.07.06-.13.05 0 0z"/><path d="m43.1901 52.44c-.03 0-.06 0-.09 0 0-.06 0-.12.01-.18.05.05.06.11.08.18z"/><path d="m43.14 51.77c0 .08-.06.1-.05.18-.09-.01.03-.08-.07-.1.02-.07.01-.05.03-.14.06 0 .02.08.09.06z"/><path d="m43.1101 51.99c-.01.04-.07.03-.05.1-.13-.01-.02-.1.05-.1z"/><path d="m43.0601 52.12c.01-.01.03.01.02.02s-.03-.01-.02-.02z"/><path d="m42.9299 44.15c.01-.01.03.02.02.02-.01.01-.02-.02-.02-.02z"/><path d="m42.9099 44.15c-.05 0-.07-.02-.07-.06-.03-.06-.19-.09-.11-.18.06-.01.04.04.07.06.06-.05.04.03.12.02-.01.08.03.09-.01.16z"/><path d="m41.77 43.49c.01-.01.03.01.02.02s-.02-.01-.02-.02z"/><path d="m44.1401 57.96c-.12-.06-.08-.17-.06-.3-.02-.12-.02-.26-.08-.36.03-.08.04-.16.01-.22-.01-.05.07-.02.07-.06.01-.06.01-.12-.04-.14.03-.05.05-.13-.02-.16.04-.04.06-.09.05-.18.04-.07.02-.09.05-.16-.01-.03-.03-.05-.04-.08.04-.14 0-.18.01-.37-.02-.04-.06-.07-.09-.1-.09.03-.06.22.02.24-.08.03-.01.19-.1.21-.02.07.08.05.07.12-.1.02-.07.14-.1.17.03.15.02.21.08.34 0 .05-.04.06-.07.08 0 .03.02.05.05.06-.08.09-.02.14-.01.27-.02.04-.02.11-.08.12.03.06.03.14-.01.2.05.11-.08.27.04.35-.09.06 0 .17-.08.25.01.04.05.05.04.1-.04.07-.01.19-.06.25.07.27-.08.6.02.77-.07.05-.19.06-.19.17-.12.01-.19.07-.26.11-.13.01-.11-.09-.23-.08-.12-.22-.05-.37-.1-.65 0-.09.06-.12.05-.21-.01-.07-.06-.11-.09-.16 0-.07.06-.09.08-.16.01-.04-.01-.05-.02-.08.04-.08.07-.16.03-.27.06-.21-.01-.32.06-.51.02-.05-.04-.04-.04-.08-.01-.06.03-.07.03-.12.02-.05-.03-.05-.02-.1.08-.06.02-.18-.01-.26.08-.05 0-.14.08-.16 0-.03-.02-.05-.04-.06.07-.05-.02-.16.03-.2-.01-.04-.05-.05-.04-.1 0-.05.04-.06.05-.1-.02-.05.05-.15-.04-.14.06-.03.08-.19.01-.22-.02-.31.03-.52 0-.75-.04-.02-.05-.06-.07-.1-.01-.08.06-.08.08-.14-.01-.06-.12-.15-.02-.2.01-.05-.03-.07-.09-.06.05-.12.09-.24.13-.37-.01-.04-.01-.08-.04-.1.07-.16-.05-.31-.08-.45.02-.1.07-.18.08-.29.18.04-.04.29.18.32.09-.07-.01-.1.01-.2.14-.02.11.1.23.1-.07.1-.11.18-.08.29-.05 0-.09 0-.14 0-.03-.08.05-.06.05-.12-.05-.06-.09.06-.08.14 0 .02.08.06.07.02.06 0-.01.05-.05.04 0 .07.08.06 0 .1.01.04.04.07.09.08-.01.07-.08.06-.07.1.03.05.08.08.14.1.05.09.06.11.09.2-.02 0-.03 0-.05 0 .09.06-.04.16-.01.29-.05-.01-.06.01-.09.02.04.07.17.18.06.26.01.08.08.11.09.18-.02.04 0 .12-.1.1.05.06.02.19.13.2.07-.05 0-.11.01-.16 0-.04.03-.04.03-.08-.01-.07-.08-.15-.04-.28-.01-.06.07-.05.07-.1.02-.14-.03-.22-.08-.3-.01-.04.04-.05.05-.08.01-.02-.02-.07-.02-.1 0-.05.01-.09.05-.14 0-.38-.03-.66.01-.96 0-.05-.01-.09-.04-.12.08-.19-.01-.39.04-.53-.01-.06-.03-.1-.04-.16.09-.09.05-.31.04-.39 0-.06.04-.08.03-.16.03-.01.04-.03.07-.04-.05-.07.04-.08.03-.18-.1-.02-.1.04-.1.12-.12 0-.12-.11-.14-.2 0-.02-.03-.02-.05-.02.05-.04.01-.16.1-.15-.01-.09-.06-.2-.01-.28.01-.05-.03-.06-.07-.08-.02-.04.05-.04.05-.08 0-.02-.04-.04-.04-.06-.02-.05.03-.11-.02-.14-.07.02.01.06 0 .1-.11 0-.1.11-.19.13-.01-.03.02-.04.05-.04 0-.05-.05-.05-.07-.08.06-.06.06-.15.08-.19.11.07.09-.05.19-.05.01-.06-.14-.08-.02-.12-.01-.05-.12-.02-.09-.1-.04.01-.04.06-.12.04-.02-.06.02-.14-.06-.18.02-.03.08-.03.12-.04-.05-.04-.01-.09 0-.14-.1-.05-.04-.11-.04-.22-.15.03-.01.22-.08.29-.16-.04-.02-.21-.04-.35.07-.01.02-.13.12-.11-.02-.09-.1-.13-.02-.2-.01-.03-.04-.05-.07-.06-.11-.01-.11.08-.21.07-.01.09.14.06.14.14-.05.03-.07.07-.14.08 0 .05.09.03.09.08-.04.05-.01.17-.06.21-.08-.01-.03-.13-.04-.2-.04-.05-.04-.12-.09-.16.05-.09-.06-.12.03-.2 0-.03-.02-.05-.05-.06.05-.08.07-.22.06-.33.05-.01.06.01.09.02-.01-.07-.04-.12-.09-.16.01-.09 0-.18-.06-.22-.01-.09.04-.11.03-.2.03-.01.11-.09.07-.1.01-.03.02 0 .05 0 .03-.05-.04-.12 0-.12-.01-.05-.07-.06-.07-.12-.09-.04-.05-.13-.11-.16 0-.03 0-.06.03-.06-.07-.05-.04-.08-.07-.14 0-.05 0-.11.03-.14-.01-.05-.06-.07-.09-.1.01-.04.06-.04.1-.06-.05-.09-.15-.26-.03-.37-.01-.03-.05-.04-.09-.04.01-.12-.11-.15-.06-.3-.02-.05-.07-.07-.14-.08.02-.09-.07-.18.05-.2.01-.07-.07-.07-.07-.14.03-.01 0-.03-.02-.04.03-.04.08-.06.1-.12-.03-.09-.17-.17-.08-.3-.01-.08-.06-.12-.11-.16.03-.05 0-.04.03-.1-.02-.07-.09-.1-.06-.22-.03-.03-.02-.09-.09-.08 0-.06.05-.07.07-.12.02-.09-.03-.12-.02-.2.04-.07.04-.18.01-.24.04-.05.12-.08.17-.13.14-.03.26.04.33-.03.02-.06-.08-.03-.07-.08.04-.09.1-.16.06-.23.07-.06.05-.21.13-.27 0-.04 0-.08 0-.12.02 0 .07-.06.03-.06.02-.03.06-.04.1-.06-.02-.05-.11-.06-.14-.1.06-.09-.02-.18.12-.17 0-.06.02-.14-.02-.18-.07-.02-.12.13-.12 0-.06 0-.07.06-.1.1-.05-.07-.02-.09-.06-.16.06-.04.05-.05.07-.1-.01-.03-.06-.02-.09-.02.04-.07.09-.18-.02-.22 0-.05.04-.06.05-.1.01-.11-.04-.15.03-.22-.08-.04 0-.21-.16-.2.06-.03.06-.11.12-.13-.02-.04-.06-.05-.12-.06.02-.13.02-.28-.03-.39 0-.06.08-.06.1-.1-.05-.09-.09-.18-.13-.28.02-.02.05-.04.07-.06.01-.05-.13.02-.09-.06.07-.01.06.03.12.02.02-.07-.05-.08-.12-.08-.05-.06 0-.2-.11-.22.06-.06-.04-.14.05-.18 0-.02-.04-.02-.07-.02 0-.04.07-.11 0-.14.01-.03.07 0 .07-.04-.01-.04-.04.02-.07-.02.04-.06.07-.16.03-.23.1-.04.01-.14.1-.17-.05-.06-.05-.17-.04-.28.06-.04.13-.09.22-.05.01.03-.02.04-.05.04.11.05.13.16.06.26.05.02.05.07.09.1 0 .06-.04.1-.03.18.06.1.02.24.11.36-.07.04.04.11-.05.12.04.06.02.17.06.22 0 .03-.03.04-.03.08-.02.07.08.05.07.12-.12.01.01.07 0 .12-.02 0-.05 0-.07 0 .03.06 0 .12-.03.18.06.1-.01.09.02.2-.03.02-.05.05-.07.08-.01.03.02.03.02.06-.04.04-.03.13-.1.14.09.03.13.11.18.18-.02.1-.01.1.02.18-.03.02-.05.05-.07.08-.01.04.02.06.07.06-.02.04-.06.05-.05.12-.03.04.04.03.05.04.02.04-.03.11.09.08-.01.04-.09.01-.07.08.08 0-.01-.06.12-.04-.01-.06-.02-.12.03-.18 0-.02-.05-.01-.05-.04.03-.14-.01-.23.06-.31-.02-.02-.04-.03-.07-.04-.01-.05.03-.16-.02-.18.11-.16-.01-.48.02-.69.02-.06-.06-.04-.04-.1.01-.04.05-.06.07-.1-.01-.06-.08-.14.01-.18-.02-.03-.04-.06-.07-.08.07-.13 0-.37.04-.47-.03-.07-.01-.18-.01-.26 0-.04-.02-.06-.07-.1.03-.11.09-.22.01-.33 0-.05.05-.07.05-.12.01-.07-.05-.15-.04-.22.01-.05.07-.06.05-.12.03-.02.06-.02.12-.02 0-.05-.04-.04 0-.08-.05-.03-.08-.07-.09-.14.08-.03.08-.14.22-.11 0-.09.01-.17.01-.26-.13-.03-.08-.19-.25-.18-.01-.04-.04-.1.01-.14.01-.03-.02-.03-.02-.06.06-.09-.01-.29.06-.37-.05-.06-.04-.13-.04-.26.03 0 .02-.04.03-.06.05-.01.08-.04.12-.06.03-.05-.07-.08 0-.1.07-.06.06.07.12.08-.02.09-.06.17-.08.25.02.05.03.06.04.14.01.09.11.13.06.3.11.03.09-.05.19-.03.01.09.08.14.14.2v.1c.06.08.09.2.18.26-.07.08.05.21-.01.27-.09.01-.04-.08-.09-.1-.08.01-.02.14-.01.2.05 0 .08-.01.07-.06.11.03.06.14.02.2.03.12.1.35.06.41.01.02.05.01.05.04-.02.08.03.15-.01.18.02.07.08.1.11.16-.13.06.07.18-.08.23.07.04.01.18.09.22-.11.06.01.17-.06.25.02.05.05.09.09.12-.03.06.04.18.06.26.02.02.04.03.07.04.01.06-.06.05-.07.1-.03.07.06.06.04.12-.05-.04-.03 0-.07.02.04.08.06.18.13.24-.03.09.06.17-.01.24.01.09.11.12.11.22.14-.04.05-.16.13-.23.01-.07-.01-.11-.02-.16.04-.05.12-.04.07-.12-.04-.01-.05.01-.05.04-.03-.05.05-.26-.01-.33 0-.03.02-.03.03-.06-.03-.04 0-.13-.07-.14.05-.08.15-.11.1-.21.06 0 .05-.06.05-.12-.02-.08-.07-.14-.09-.22.05-.07.05-.17.08-.25-.01-.08-.02-.16-.06-.22.03-.13-.06-.14-.02-.24-.03-.02-.06-.05-.09-.08.03-.02.03-.07.03-.12.05-.02.12-.03.12-.1-.03-.06-.08.02-.14 0-.05-.07-.01-.2-.01-.29-.04-.09-.1-.25-.06-.34-.01-.06-.05-.08-.07-.14s.04-.06.03-.12c-.07-.11 0-.34-.1-.43-.08.03-.09-.02-.16-.04 0-.04 0-.08 0-.12h.09c.05.01.03-.06.07-.06 0 .05.06-.01.05-.04.05.03.11.06.11.12.09-.01.08.05.14.06 0 .03.02.05.05.06-.06.15.17.36.03.51-.01.06.05.06.04.12-.09.06-.01.14-.05.23.03.08.07.15.06.26 0 .03.02.05.05.06-.07.11.02.19-.03.27 0 .09.09.11.04.18.01.02.05.01.05.04-.02.14 0 .26.06.33-.03.09-.03.23.04.3-.03.08-.07.16-.06.27.01.08.09.13.04.2.03.06.1.17.04.24.06.05.03.18.09.24-.01.1-.01.1-.03.2.04.08.03.19.09.26-.05.04-.05.05 0 .1 0 .03-.02.03-.03.06 0 .05.04.06.04.1-.02.13-.01.18-.03.29 0 .03.02.05.04.06-.03.02-.04.12.02.12-.05.04-.02.05-.05.1.01.05.09.1.02.16.02.02.01.07.07.06-.01.03-.04.05-.05.08.06.05 0 .18.09.2-.04.03-.02.1-.1.1-.01.03.02.1-.05.08.09.15 0 .24.13.34-.05.12.05.15-.03.25.05.13.04.22.01.37.04.16.12.27.08.45-.02.05.04.04.04.08-.03.06-.02.08.02.12-.01.09-.04.12.02.18-.02.04.02.13-.03.14-.01.05.03.06.07.08-.03.02-.03.07-.03.12-.01.03.02.04.05.04-.03.03-.03.05 0 .08 0 .06-.06.06-.05.12-.01.11.03.09.06.18-.05.01-.02.09-.07.1.01.05.1.05.09.12-.14.07.02.24-.06.37.02.04.04.08.12.08-.04.02.01.13-.1.1.04.13-.01.22-.01.35-.02.01-.04.02-.07.02 0 .1-.02.22.04.28.01.06-.02.09-.03.14.01.12.03.12-.03.22-.02.19-.04.32-.02.51.02.05.04.1.07.14-.04.07-.08.21-.04.33-.02.04.02.13-.03.14.08.13-.06.31.03.43-.04.07-.04.22-.03.27-.01.06.06.05.07.1-.04.16-.07.27-.04.43-.04.1-.06.21.04.28-.01.1-.13.17-.03.25-.1.12-.04.27-.01.39-.05.03-.08.08-.14.09.02.06.1.09.16.12.02.07-.02.09.04.14-.04.07-.01.19-.06.25.04.06.04.16.09.22-.06.04.03.13-.05.12-.02.05.05.04.07.06-.04.1.06.16.02.2.01.04.06.04.07.08-.02.08-.05.07-.03.16-.1-.02-.05.09-.1.12.02.04.01.11.07.12-.05.07-.01.21-.06.27.02.13.02.17-.03.25 0 .07.03.1.07.14-.01.05-.03.08-.05.12.07.11 0 .21.06.34-.06.1-.07.13-.17.19v.16c.11 0 .09-.11.19-.11.09.02-.02.12-.03.18.01.1.05.25-.01.33-.02.08.03.16-.01.2 0 .06.06.07.07.12-.11.17.01.43-.12.63-.01.06.05.06.04.12-.05.01 0 .11-.07.1.05.11 0 .27-.06.35.03.08-.02.09.02.16-.02.04-.02.11-.07.12.01.04.05.05.04.1-.04.06-.09.11-.08.21-.05.02-.05.07-.1.1.01.02.03.04.07.04 0 .05-.04.06-.03.12.04.07-.03.11.04.14-.01.05-.04.09-.08.12.03.11-.08.11-.08.19-.06 0-.02-.08-.09-.06-.04.1.03.21-.06.29.04.14-.03.25.03.35-.03.01-.05.02-.05.06.08.12.01.36.15.44-.01.07-.07.05-.03.12-.09-.01-.08.08-.12.11-.08.01-.14.04-.19.07-.03-.05-.17-.12-.11-.18-.05-.04-.04-.12-.09-.16.04-.11.04-.2-.01-.31.02-.17.03-.29-.08-.38 0-.04.07-.11 0-.14.01-.04.07-.03.05-.1.01-.05-.05-.05-.07-.08.02-.04.02-.1.05-.14-.05-.08-.07.02-.12-.02-.05.03-.01.14-.08.16-.02 0-.02-.01-.02-.02-.08.05-.05.06-.03.05zm.82-1.19c.11-.14.09-.26.09-.43.02-.04.05-.12 0-.16.08-.07.06-.23.08-.35-.03-.04-.04-.09-.07-.14.03-.1.06-.22.15-.27.02-.06-.04-.06 0-.1-.06 0-.09-.03-.09-.08.02-.13.05-.28.01-.41-.05.06-.11-.03-.16-.02-.02.11.05.15.09.22-.07.04.03.11.04.16-.07-.02-.03.07-.12.04-.06.12-.11.38.01.47-.11.04-.11.22-.06.31-.11.05-.08.17-.08.27 0 .03.04.02.05.04-.09.11-.04.22-.08.35.05.02.08.06.09.12-.08.09 0 .24-.08.33.06.06-.02.13.06.16 0-.17.09-.35.07-.51zm.14-2.75c.03-.04 0-.17-.06-.2.04.08-.02.07-.03.12 0 .03.02.09.02.12 0 .04-.04.09.04.1.06-.05.05-.09.03-.14zm-.09-.24c.04 0 .06-.01.07-.04-.03-.02-.09-.03-.07.04zm.06.45c.01-.01-.01-.03-.02-.02s.01.03.02.02zm-.08-1.25c-.07-.02-.09.01-.12.04.01.13.1.16.04.3.05.03.04.11.11.12.05-.16.08-.25.01-.39-.02-.07.04-.07.03-.14-.03-.09-.15-.2-.11-.28-.04-.01-.05.02-.1.02.04.06.05.15.06.24.04.01.06-.03.07 0-.05 0 .05.04.01.09zm-.02.53c.01.08.02.15.09.18.02-.1 0-.17-.09-.18zm-.08 3.88c.01-.01-.01-.03-.02-.02s.01.03.02.02zm-.03.16c-.08-.02-.04.08-.05.12.07 0 .09-.09.05-.12zm.06-5.18c-.06-.08-.04-.13-.06-.22.04 0 .05-.13-.02-.1-.09.03.04.24-.05.21-.02.06.04.06.02.12.07.02.04.01.12 0 .02.04-.07.06 0 .08.01-.05.08-.03.07-.1-.03.01-.06.01-.08.01zm-.39-2.51c.03.06.08.13-.01.16-.05 0-.03-.05-.09-.04-.07.1.07.25-.04.37-.07-.03-.07-.13-.09-.2-.06 0-.07.03-.1.06.04 0 .06.02.05.06-.07-.02-.06.03-.1.04.02.11-.05.25.01.39.01-.03.04 0 .05.02-.05.01-.06.05-.07.1.03 0 .07 0 .07.02-.02.02-.03.05-.03.1.06.05.04.13.04.26.03.04.05.09.07.14-.03 0-.07-.01-.07.02.02.01.05 0 .05.02-.05.02.02.11.02.16 0 .16-.01.22.04.33-.05 0-.01.09-.05.1.06.07.01.13.04.2-.02.1.04.13-.03.18.04.03.09.05.16.06.04.07.06.16.16.18.02-.06.07-.08.03-.16.02 0 .03.02.05.02-.01-.12-.01-.18-.01-.28-.13-.01-.16-.12-.11-.22 0-.04-.08-.02-.07-.06.14-.12-.08-.28.04-.39-.04 0-.06-.02-.07-.04.06-.06-.07-.17.01-.25-.13-.05.05-.23-.06-.28.07-.02.18-.02.24-.05.01.1.01.13.02.26-.01.04-.07.03-.05.1.03.03.14 0 .14.06-.09.02-.1.06-.17.05 0 .12.04.21.11.28-.03 0-.03.04-.05.06.09-.01.08.06.14.08.05-.02.1-.05.12-.1-.09.02-.02-.08-.07-.1.05-.03.01-.13.05-.16-.03 0-.06-.01-.05-.04.01-.16.06-.27-.01-.45.05-.13.07-.2.01-.31h.05c-.02-.06-.02-.06 0-.12-.07-.01-.07-.07-.09-.12-.02-.04.05-.04.05-.06.01-.05-.05-.1.01-.16-.03-.04-.06-.08-.09-.12.09-.12 0-.21.08-.29-.06-.08-.06-.23-.04-.31-.08-.07-.08-.12-.06-.24-.06-.11-.08-.23-.03-.37.01-.1-.02-.1.01-.18-.06-.08.01-.26-.11-.3-.02.06-.09.07-.05.14-.02 0-.05 0-.07 0v.08c-.11.08-.09.18-.15.29.03 0 .07 0 .07.02-.01.11-.07.23-.03.31-.02.02-.09 0-.07.06.03.06.02.15.06.2-.04.03-.06.07-.08.12 0 .04.08.02.07.06-.03 0-.07-.01-.07.02.07 0 .08.03.05.06-.02-.03-.08-.06-.09 0 .06 0 .11.01.14.04-.04.03.01.11-.08.14.06.01.1.01.16.06.02-.07-.01-.09.07-.12-.03-.01-.11-.06-.04-.08.09 0 0 .09.01.12zm.27 1.89v.06c.04 0 .06-.02.05-.06-.02 0-.04 0-.05 0zm-.13 1.04c.02-.11.03-.16-.09-.2.02.1.08.17.04.28h.09c.02-.05-.04-.04-.04-.08zm.02.18c.01-.01-.01-.03-.02-.02-.01 0 0 .03.02.02zm.01-5.32h.05c.02-.12.02-.14-.02-.24-.09.02-.08-.04-.12-.06-.05.04-.02.11-.01.16-.02.11.02.2-.01.25.05.02-.03.14.07.12 0-.1.04-.15.04-.23zm-.03.31c-.01.07-.07.09-.05.18.06 0 .05.06.12.06.04-.12 0-.18-.07-.24zm.15-3.55c-.02-.06.04-.06.05-.1-.08-.11-.02-.2-.11-.3.07-.05.05-.18.1-.23-.03-.02-.05-.05-.04-.1.03-.12.03-.26.08-.35-.03 0-.04-.02-.05-.04.03-.11-.08-.19-.01-.28-.06-.02-.04-.11-.04-.18-.09-.01-.01.02-.03.06-.03.01-.05.04-.05.08 0 .1-.02.21.01.28-.03.04-.04.1-.08.14.05.01.06.05.07.1-.01.04-.09.01-.07.08.09.12-.02.27.06.39-.08.07-.05.22-.03.27-.01.04-.07.04-.07.08.05.09-.02.17-.01.25.06.02-.03.15.07.14-.05-.12.09-.14.06-.29.06 0 .04.03.09 0zm-.1 2.81c-.08-.05.02-.22-.11-.22.01.09-.05.12-.03.22.03.05.09.05.04.12.08-.01.11-.05.1-.12zm.07-4.76c-.02.04-.08.05-.1.1.08 0 .03.1.11.1.01-.08.06-.14-.01-.2zm-.11 4.44c.01-.16-.13-.22-.06-.37-.04-.03 0-.11-.09-.1-.03.01-.01.08-.05.08.02.06-.02.12-.01.18 0 .01.04.04.04.06.02.07.01.17.11.2.02-.04.02-.06.06-.05zm-.44 10.91c.04 0 .06-.01.07-.04-.04 0-.06.01-.07.04zm.52-15.13c-.07.1.11.05 0 0zm-.17 3.41c-.01.02-.03.03-.05.04.02.05.03.11.11.1.02-.07 0-.12-.06-.14zm-.32 11.39c0-.02.01-.06-.02-.06 0 .02-.01.05.02.06zm.48-15.39c.01 0 .03-.02 0-.02-.01 0-.02.02 0 .02zm-.19 5.67c.02 0 .03-.03 0-.04-.03.01-.02.02 0 .04zm.01-2.28c.08.01.09-.1.05-.14-.02 0-.05 0-.07 0-.06.1-.07.27.04.33 0-.07 0-.13-.02-.19zm.01.93c.02 0 .03-.03 0-.04 0 .02-.03.03 0 .04zm-.39 10.69v.04h.05c0-.01 0-.03 0-.04-.02 0-.04 0-.05 0zm.42-12.28c.01 0 .03-.02 0-.02-.01 0-.02.01 0 .02zm.02.12c0-.02 0-.04-.02-.04 0 .01 0 .03.02.04zm-.07.13c-.01.05.01.08.04.1.04-.03 0-.08-.04-.1zm0-.1c-.13.08.09.11 0 0zm-.08.22c-.04.06.1.06.07 0-.02 0-.04 0-.07 0zm.13-5.05c.01 0 .03-.02 0-.02-.01 0-.03.02 0 .02zm-.61 15.56c-.01.04-.05.05-.05.1.08.01.14-.08.05-.1zm.42-12.83c.03 0 .06-.01.02-.02-.02 0-.06.01-.02.02zm-.23 1.19c.08-.03.04-.11.03-.18-.09.01-.09-.04-.12-.08.01-.04.05-.05.05-.1-.06-.09.08-.16-.02-.22.06.03.11-.05.05-.06-.02.09-.08-.07-.14-.06-.01-.07-.03-.09.03-.14-.04 0-.05-.02-.05-.06.04-.08.04-.1.1-.17 0 .04.02.05.07.04.02-.07 0-.05.03-.12-.02 0-.05 0-.05-.02.04-.12-.04-.18-.08-.28.05-.01.09-.03.07-.1-.09-.05-.1-.16-.18-.22.08-.05.08-.25-.01-.28.06-.09.02-.25-.11-.26-.07.09.02.12-.05.21.01.09.06.2.01.29 0 .03.04.03.05.06-.03.01-.05.02-.05.06.04.07-.02.16.04.24-.02 0-.03 0-.05 0 .02.09-.07.15-.01.22-.04 0-.06.03-.05.08.1.14.09.34.15.47-.09.06.03.15-.03.23.01.04.06.04.07.08-.07.05.02.14.02.2-.03.02-.01.07-.07.06 0 .05.04.06.04.1-.14.01.03.07-.07.12.1.03.08.24.04.32.07.05.12.11.14.2-.06 0-.05-.03-.09 0 .03.09.02.19-.03.25.08.04.18.07.23.14.05-.09 0-.13-.02-.22.01-.05.07-.06.08-.12-.01-.03-.03-.04-.02-.08-.04 0-.06-.02-.07-.04-.01-.09-.1-.11-.11-.2.04-.05-.03-.09.05-.12.06.03.07.04.14.02-.02-.06.05-.18-.01-.26zm-.45 7.61c.1-.01-.01.04.02.1.07 0 .12-.12.08-.16-.01.04-.11 0-.1.06zm.06.22c-.06 0-.08.03-.1.06.06-.01.02.07.07.08.01-.08.07-.08.03-.14zm-.04-.1v.06c.04 0 .06-.02.05-.06-.02 0-.04 0-.05 0zm.15-5.03c.02-.05-.05-.04-.04-.08.1-.12.08-.3.04-.45 0-.06.09-.04.08-.12-.03-.01-.06-.03-.07-.06-.02-.06.03-.07.03-.12-.05-.02-.08-.05-.07-.12-.04 0-.08 0-.12 0 .03.2-.05.43.03.61-.11.08.02.11-.03.22.06.06.02.09.07.16-.05.05-.01.15.02.2.06-.03 0-.19.06-.24zm-.21 4.54c-.06.04.02.07.04.1 0-.04 0-.09-.04-.1zm.23-10.72c-.01-.06.03-.15-.04-.16-.07.06.05.07 0 .14 0 .03.03.03.02.06.02.07-.06.21.04.22.09-.05.04-.22-.02-.26zm.01 1.02c-.12.04.08.05 0 0zm-.04-.1c-.01-.02 0-.04-.02-.04 0 .02 0 .04.02.04zm-.04-.31c.01-.03.04-.04.03-.08-.07-.04-.07.08-.03.08zm-.1-.58c-.05.07.01.13-.03.2.04 0 .05.02.09.02-.01-.1.04-.16-.06-.22zm-.47 13.92v.04h.05c0-.01 0-.03 0-.04-.02 0-.04 0-.05 0zm-.01.06c0 .03-.03.03-.03.06.04 0 .06-.01.07-.04-.01 0-.02-.02-.04-.02zm.46-15.19c.01.04.01.18.07.12-.05 0 .02-.12-.07-.12zm-.05 1.92c-.03-.03-.07-.05-.07-.1-.1 0-.11.08-.12.15.08 0 .04.09.14.08-.02-.07.07-.05.05-.13zm-.01.41c.01-.01-.01-.03-.02-.02s.01.03.02.02zm-.02-.12c.01-.01-.01-.03-.02-.02s.01.03.02.02zm-.03.2c0-.02.04-.03 0-.04-.02 0-.03.03 0 .04zm-.11-.99c-.03.08.05.08.04.14 0 .04-.03.04-.03.08.05.03.03.13.11.14-.05-.12-.05-.24.01-.33-.04-.04-.06-.05-.13-.03zm.01-.17c-.01.05.01.08.04.1.01-.04.07-.03.05-.1-.03 0-.06 0-.09 0zm-.55 2.83c-.06-.01-.09.09-.05.1.01-.04.07-.03.05-.1zm-.03.2c.05-.01.13-.01.14-.06-.01-.04-.02-.1-.14-.06zm-.07-1.3c.01-.01-.01-.03-.02-.02-.01 0 0 .03.02.02z"/><path d="m44.0201 58.65c.02.03-.02.01-.02 0-.01-.03.02-.04.02-.02 0 0-.01.01 0 .02z"/><path d="m43.99 42.43c.06-.06.04.03.02.06-.09-.01.05-.07-.02-.06z"/><path d="m43.32 51.58c.14.03.06.12.09.24-.06-.02-.05.04-.07.06-.01-.07-.11-.2-.02-.3z"/><path d="m43.1901 51.09c.05.04-.06-.02-.07.02.02.08-.02.11.04.18-.01.04-.06.04-.1.06.07.1-.07.16-.01.24-.16.05-.02-.13-.07-.14 0-.02.04-.02.07-.02-.06-.05-.01-.14-.04-.24.11-.03.08-.14.03-.2 0-.03.02-.03.03-.06-.07-.06.01-.12-.06-.16.01-.02.02-.03.05-.04-.01-.02-.03-.04-.07-.04.05-.11-.06-.14.03-.22.09-.01.03.09.04.14.05.04.14.04.11.14-.14-.02-.05.15-.01.16-.06.04-.05.15.03.18z"/><path d="m49.3001 47.18c-.01-.01.02-.03.02-.02.01.01-.01.03-.02.02z"/><path d="m47.7202 47.5c0-.02.02-.02.04-.02h.06c0 .06-.07.01-.1.02z"/><path d="m46.24 47.74c.01-.03.04-.02.04 0-.02.01-.03.03-.04 0z"/><path d="m45.12 47.94c0 .1-.14.08-.16.02-.1.03-.12.01-.2-.03.05-.06.09-.03.14 0 .06 0 .17-.06.22.01z"/><path d="m44.2101 48.02c-.03 0-.05 0-.08 0-.01-.09.09-.08.08 0z"/><path d="m53.3201 48.34c.01-.03.04-.02.04 0-.01.03-.02-.01-.04 0z"/><path d="m45.1601 48.05h.06c.01.07.04.13.05.19-.1.02-.1.01-.16-.05.04-.06.02-.08.05-.14z"/><path d="m52.77 48.36h.04v.05c-.01 0-.03 0-.04 0 0-.01 0-.03 0-.05z"/><path d="m52.8501 48.41c0-.02.02-.02.04-.02-.01.03-.03.02-.04.02z"/><path d="m53.2802 48.45v.05c-.04.04-.02 0-.08 0 0-.02 0-.03 0-.05.05 0 .04-.04.08 0z"/><path d="m45.01 48.24c.01-.03.02 0 .04 0 0 .03-.04.02-.04 0z"/><path d="m47.9802 49.03c.08.03.2.01.21.17-.03-.03-.08-.03-.1-.07-.04 0-.01.1-.04.12-.05-.04-.08-.11-.07-.22z"/><path d="m46.0201 49.01c-.01-.01.01-.03.02-.02s-.02.02-.02.02z"/><path d="m46.0802 49.01c-.01-.01.02-.03.02-.02.01.01-.02.03-.02.02z"/><path d="m47.7201 49.16c-.05-.04-.25-.02-.33-.04.02-.13.16.01.24-.06.04.02.09.04.09.1z"/><path d="m47.25 49.19c-.11.02-.11-.13-.21-.05.03-.12.18-.06.21.05z"/><path d="m47.7402 49.18c0 .06-.04.06-.08.07.02-.03.03-.07.08-.07z"/><path d="m46.64 49.22c-.01-.01.02-.03.02-.02.01.01-.02.02-.02.02z"/><path d="m47.6001 49.25c0-.02.02-.02.04-.02 0 .02-.02.02-.04.02z"/><path d="m48.2901 49.34c-.06.07-.16 0-.22.11-.04.01-.11-.12-.12 0-.05-.01-.03-.08-.1-.07.02-.12.18-.05.22-.13.1-.01.14.06.22.09z"/><path d="m46.3502 49.23c-.11.08-.13-.05 0 0z"/><path d="m45.52 49.2c.02.01.04.03.04.07-.04.01-.04-.03-.04-.07z"/><path d="m47.68 49.35c-.03.07-.13.05-.2.06 0-.05-.05-.03-.04-.1.01-.03.08 0 .08-.04.06.09.09.05.16.08z"/><path d="m46.0701 49.27c.05-.08.04.12 0 0z"/><path d="m47.17 49.28v.09c-.06 0-.12 0-.18-.01.04-.04.11-.06.18-.08z"/><path d="m46.5001 49.33c.08 0 .1.06.18.05-.01.09-.08-.03-.1.07-.07-.02-.05-.01-.14-.03-.01-.06.07-.01.06-.09z"/><path d="m46.7102 49.36c.04.01.03.07.1.05-.01.14-.1.03-.1-.05z"/><path d="m46.8502 49.41c-.01-.01.02-.03.02-.02.01.01-.01.03-.02.02z"/><path d="m38.8702 49.54c-.01-.01.02-.03.02-.02.01.01-.01.03-.02.02z"/><path d="m38.8702 49.56c0 .05-.02.07-.06.07-.06.03-.09.19-.18.11-.01-.06.04-.04.06-.07-.05-.06.03-.04.02-.12.09.02.1-.03.16.01z"/><path d="m38.22 50.7c-.01-.01.01-.03.02-.02s-.02.03-.02.02z"/><path d="m52.6901 48.34c-.06.12-.17.08-.3.06-.12.02-.26.02-.35.08-.08-.03-.16-.04-.22-.01-.05.01-.02-.07-.06-.07-.06-.01-.12-.01-.14.04-.05-.03-.13-.05-.16.02-.04-.04-.09-.06-.18-.05-.07-.04-.1-.02-.16-.05-.03.01-.05.03-.08.04-.14-.04-.18 0-.37-.01-.04.02-.07.06-.1.09.03.09.22.06.24-.02.03.08.19.01.21.1.07.01.05-.08.12-.07.02.1.14.07.17.1.15-.03.21-.02.34-.08.05 0 .06.04.08.07.03 0 .05-.02.06-.05.09.08.14.02.27.01.04.02.11.02.12.08.06-.03.14-.03.2.01.1-.05.27.08.35-.04.06.09.17 0 .25.08.04-.01.05-.05.1-.04.07.04.19.01.25.06.27-.07.6.08.77-.02.05.07.06.19.17.19.01.12.07.18.11.26.01.13-.09.11-.08.23-.22.12-.37.05-.65.1-.09 0-.12-.06-.22-.05-.07.01-.11.06-.16.09-.07 0-.09-.06-.15-.08-.04-.01-.05.01-.08.02-.08-.04-.16-.07-.27-.03-.21-.06-.32.01-.51-.06-.05-.02-.04.05-.08.04-.06.01-.07-.03-.12-.03-.05-.02-.05.03-.1.02-.06-.08-.18-.02-.26.01-.05-.08-.14.01-.16-.08-.03 0-.05.02-.06.04-.05-.07-.16.02-.2-.03-.04.01-.05.05-.1.04-.05 0-.06-.04-.1-.05-.05.02-.15-.05-.14.04-.03-.06-.19-.09-.22-.01-.31.02-.52-.03-.75 0-.02.04-.06.05-.1.07-.08.01-.08-.06-.14-.08-.06.01-.15.13-.2.02-.05-.01-.07.03-.06.09-.12-.05-.24-.09-.37-.13-.04.01-.08.01-.1.04-.16-.07-.31.05-.45.08-.1-.02-.18-.07-.29-.08.04-.18.29.04.32-.18-.07-.09-.1.01-.2-.01-.02-.14.1-.11.1-.23.1.07.18.11.29.08v.14c-.08.03-.06-.05-.12-.05-.06.05.06.09.14.08.02 0 .06-.08.02-.07 0-.06.05.01.04.05.07 0 .06-.08.1 0 .04-.01.07-.04.08-.09.07.01.06.08.1.07.05-.03.08-.08.1-.14.09-.05.11-.06.2-.09v.05c.06-.09.16.04.29.01-.01.05.01.06.02.09.07-.04.18-.17.26-.06.08-.01.11-.07.18-.09.04.02.12 0 .1.1.06-.05.19-.02.2-.13-.05-.07-.11 0-.16-.01-.04 0-.04-.03-.08-.03-.07.01-.15.08-.28.04-.06.01-.05-.07-.1-.07-.14-.02-.22.03-.3.08-.04.01-.05-.04-.08-.05-.02-.01-.07.02-.1.02-.05 0-.09-.01-.14-.05-.38 0-.66.03-.96-.01-.05 0-.09.01-.12.04-.19-.08-.39.01-.53-.04-.06.01-.1.03-.16.04-.09-.09-.31-.05-.39-.04-.06 0-.08-.04-.16-.03-.01-.03-.03-.04-.04-.07-.07.05-.08-.04-.18-.03-.02.1.04.1.12.1 0 .13-.11.12-.2.14-.02 0-.02.03-.02.05-.04-.05-.15-.01-.15-.1-.09.01-.2.06-.27.01-.05-.01-.06.03-.08.07-.04.02-.04-.05-.08-.05-.02 0-.04.04-.06.04-.05.02-.11-.03-.14.02.02.07.06-.01.1 0 0 .11.11.1.13.19-.03.01-.04-.02-.04-.05-.05-.01-.05.05-.08.07-.06-.06-.15-.06-.19-.08.07-.11-.05-.09-.05-.19-.06-.01-.08.14-.12.02-.05.01-.02.12-.1.09.01.05.06.04.04.12-.06.02-.14-.02-.18.06-.03-.02-.03-.08-.04-.12-.04.05-.09.01-.14 0-.05.1-.11.04-.22.04.03.15.22.01.29.08-.04.16-.21.02-.35.04-.01-.07-.13-.02-.11-.12-.09.02-.13.1-.2.02-.03.01-.05.04-.06.07-.01.11.08.11.07.21.09.01.06-.14.14-.14.03.05.07.07.08.14.05 0 .03-.09.08-.09.05.04.17.01.21.06-.01.08-.13.03-.2.04-.05.04-.12.04-.16.09-.09-.05-.12.06-.2-.03-.03 0-.05.02-.06.05-.08-.05-.22-.07-.33-.06-.01-.05.01-.06.02-.09-.07.01-.12.04-.16.09-.09-.01-.18 0-.22.06-.09.01-.11-.04-.2-.03-.01-.03-.09-.11-.1-.07-.03-.01 0-.02 0-.05-.05-.03-.12.04-.12 0-.05.01-.06.07-.12.07-.04.09-.13.05-.16.11-.03 0-.06 0-.06-.03-.05.07-.08.04-.14.07-.05 0-.11 0-.14-.03-.05.01-.07.06-.1.09-.04-.01-.04-.06-.06-.1-.09.05-.26.15-.37.03-.03.01-.04.05-.04.09-.12-.01-.15.11-.3.06-.04.02-.07.07-.08.14-.09-.02-.18.07-.2-.05-.07-.01-.07.07-.14.07-.01-.03-.03 0-.04.02-.04-.03-.06-.08-.12-.1-.09.03-.17.17-.3.08-.08.01-.12.06-.16.11-.05-.03-.04 0-.1-.03-.07.02-.1.09-.22.06-.03.03-.09.02-.08.09-.06 0-.07-.05-.12-.07-.09-.02-.12.03-.2.02-.07-.04-.18-.04-.24-.01-.05-.04-.08-.12-.13-.17-.03-.14.04-.26-.03-.33-.06-.02-.03.08-.08.07-.09-.04-.16-.1-.23-.06-.06-.07-.21-.05-.27-.13-.04 0-.08 0-.12 0 0-.02-.06-.07-.06-.03-.03-.02-.04-.06-.06-.1-.05.02-.06.11-.1.14-.09-.06-.18.02-.17-.12-.06 0-.14-.02-.18.02-.02.07.13.12 0 .12 0 .06.06.07.1.1-.07.05-.09.02-.16.07-.04-.06-.05-.05-.1-.07-.03.01-.02.06-.02.09-.07-.04-.18-.09-.22.02-.05 0-.06-.04-.1-.05-.11-.01-.15.04-.22-.03-.04.08-.21 0-.2.16-.03-.06-.11-.06-.13-.12-.04.02-.05.06-.06.12-.13-.02-.28-.02-.39.03-.06 0-.06-.08-.1-.1-.09.05-.18.09-.28.13-.02-.02-.04-.05-.06-.07-.05-.01.02.13-.06.09-.01-.07.03-.06.02-.12-.07-.02-.08.05-.08.12-.06.05-.2 0-.22.11-.06-.06-.14.03-.18-.05-.02 0-.02.04-.02.07-.04 0-.11-.07-.14 0-.03-.01 0-.07-.04-.07-.04.01.02.04-.02.07-.06-.04-.16-.07-.23-.03-.04-.1-.14-.01-.17-.1-.06.05-.17.05-.28.04-.04-.06-.09-.13-.05-.22.03-.01.04.02.04.05.05-.11.16-.13.26-.06.02-.05.07-.05.1-.09.06 0 .1.04.18.03.1-.06.24-.02.36-.11.04.07.11-.04.12.05.06-.04.17-.01.22-.06.03 0 .04.03.08.03.07.01.05-.08.12-.07.01.12.07-.01.12 0v.07c.06-.03.12 0 .18.03.1-.06.09.01.2-.02.02.03.05.05.08.07.03.01.03-.02.06-.02.04.04.13.03.14.1.03-.09.11-.13.18-.18.1.02.1.01.18-.02.02.03.05.05.08.07.04.01.06-.02.06-.07.04.02.05.06.12.05.04.03.03-.04.04-.05.04-.02.11.03.08-.09.04.01.01.09.08.07 0-.08-.06.01-.04-.12-.06.01-.12.02-.18-.03-.02 0-.01.05-.04.05-.14-.03-.23.01-.31-.06-.02.02-.03.04-.04.07-.05.01-.15-.03-.18.02-.16-.11-.48.01-.69-.02-.06-.02-.04.06-.1.04-.04-.01-.06-.05-.1-.07-.06.01-.14.08-.18-.01-.03.02-.06.04-.08.07-.12-.07-.37 0-.47-.04-.07.03-.18.01-.26.01-.04 0-.06.01-.1.07-.12-.03-.22-.09-.33-.01-.05 0-.07-.05-.12-.05-.07-.01-.15.05-.22.04-.05-.01-.06-.07-.12-.05-.02-.03-.02-.06-.02-.12-.05 0-.04.04-.08 0-.03.05-.07.08-.14.09-.03-.08-.13-.08-.11-.22-.08 0-.17-.01-.25-.01-.03.13-.19.08-.18.25-.04.01-.1.04-.14-.01-.03-.01-.03.02-.06.02-.09-.06-.29.01-.37-.06-.06.05-.13.04-.26.04 0-.03-.04-.02-.06-.03-.01-.05-.04-.08-.06-.12-.05-.03-.08.07-.1 0-.06-.07.07-.06.08-.12.09.02.17.06.25.08.05-.02.06-.03.14-.04.09-.01.13-.11.3-.06.03-.11-.05-.09-.03-.19.09-.01.14-.08.2-.14h.1c.08-.06.2-.09.26-.18.08.07.21-.05.27.01.01.09-.08.04-.1.09.01.08.14.02.2.01 0-.05-.01-.08-.06-.07.02-.11.14-.06.2-.02.12-.03.35-.1.41-.06.02-.01.01-.05.04-.05.08.02.15-.03.18.01.07-.02.1-.08.16-.11.06.13.18-.07.23.08.04-.07.18-.01.22-.09.06.11.17-.01.25.06.04-.02.09-.05.12-.09.06.03.18-.04.26-.06.02-.02.03-.04.04-.07.06-.01.05.07.1.07.07.03.06-.06.12-.04-.04.05 0 .03.02.07.08-.04.18-.06.24-.13.09.03.17-.06.23.01.09-.01.12-.11.22-.11-.04-.14-.15-.05-.23-.13-.07-.01-.11.01-.16.02-.05-.04-.04-.12-.12-.07-.01.04.01.05.04.05-.05.03-.26-.05-.33.01-.03.01-.03-.02-.06-.03-.04.03-.13 0-.14.07-.08-.05-.11-.15-.21-.1 0-.06-.06-.05-.12-.05-.08.02-.14.07-.22.09-.07-.05-.17-.05-.25-.08-.08.01-.16.02-.22.06-.13-.03-.14.06-.24.02-.02.03-.05.06-.08.09-.02-.03-.07-.03-.12-.03-.02-.05-.03-.12-.1-.12-.06.03.02.08 0 .14-.07.05-.2.01-.29.01-.09.04-.25.1-.34.06-.06.01-.08.05-.14.07s-.06-.04-.12-.03c-.11.07-.34 0-.43.1.03.08-.02.09-.04.16-.04 0-.08 0-.12 0 0-.03 0-.06 0-.09.01-.05-.06-.03-.06-.07.05 0-.01-.06-.04-.05.03-.05.06-.11.12-.11-.01-.09.05-.08.06-.14.03 0 .05-.02.06-.05.15.06.36-.17.51-.03.06.01.06-.05.12-.04.06.09.14.01.23.05.08-.03.15-.07.26-.06.03 0 .05-.02.06-.05.11.07.19-.03.27.03.09 0 .11-.09.18-.04.02-.01.01-.05.04-.05.14.01.26 0 .33-.06.09.03.23.03.3-.04.08.03.16.07.27.06.08-.01.13-.09.2-.04.06-.03.17-.1.24-.04.05-.06.18-.03.24-.09.1.01.1.01.2.03.08-.04.19-.03.26-.09.04.05.05.05.1 0 .03-.01.03.02.06.03.05.01.06-.04.1-.04.13.03.18.01.29.03.03 0 .05-.02.06-.04.02.03.12.04.12-.02.04.05.05.02.1.05.05-.01.1-.09.16-.02.02-.02.07-.01.06-.07.03.01.05.04.08.05.04-.06.18 0 .2-.09.03.04.1.02.1.1.04.01.1-.02.08.05.15-.09.24 0 .34-.13.12.05.15-.05.25.03.13-.05.22-.04.37-.01.16-.04.27-.12.45-.08.05.02.04-.04.08-.04.06.03.08.02.12-.02.09.01.12.04.18-.02.04.02.13-.02.14.03.05.01.06-.03.08-.07.02.03.07.03.12.03.03.01.04-.02.04-.05.03.03.05.03.08 0 .06 0 .06.06.12.05.11.01.09-.03.18-.06.01.05.09.02.1.07.05-.01.05-.1.12-.09.07.14.24-.02.37.06.04-.02.08-.04.08-.12.02.04.13-.01.1.1.13-.04.22.01.35.01.01.02.02.04.02.07.1 0 .22.02.28-.04.06-.01.09.02.14.03.12-.01.12-.03.22.03.19.02.32.04.51.02.05-.02.1-.04.14-.07.07.04.21.08.33.03.04.02.13-.02.14.03.14-.08.31.06.43-.03.07.04.22.04.27.03.06.01.05-.06.1-.07.16.03.27.07.43.04.1.04.21.06.28-.04.1.01.17.13.25.03.12.1.27.04.39.01.03.05.08.08.09.14.06-.02.09-.1.12-.16.06-.02.09.02.14-.04.07.04.19.01.25.06.06-.04.16-.04.22-.09.04.06.13-.03.12.05.05.02.04-.05.06-.07.1.04.16-.06.2-.02.04-.01.04-.06.08-.07.08.02.07.05.16.03-.02.1.09.05.12.1.04-.02.11-.01.12-.07.07.05.21.01.27.06.13-.02.17-.02.25.03.07 0 .1-.03.14-.07.05.01.08.03.12.05.11-.07.21 0 .34-.06.1.06.13.07.19.17h.16c0-.11-.11-.09-.11-.19.02-.09.12.02.18.03.1-.01.25-.05.33.01.08.02.16-.03.2.01.06 0 .07-.06.12-.07.17.11.43-.01.63.12.06.01.06-.05.12-.04.01.05.11 0 .1.07.11-.05.27 0 .35.06.08-.03.09.02.16-.02.04.02.11.02.12.07.04-.01.05-.05.1-.04.06.04.11.09.21.08.02.05.07.05.1.1.02-.01.04-.03.04-.07.05 0 .06.04.12.03.07-.04.11.03.14-.04.05.01.09.04.12.08.11-.03.11.08.19.08 0 .06-.08.02-.06.09.1.04.21-.03.29.06.14-.04.25.03.35-.03.01.03.02.05.06.05.12-.08.36-.01.44-.15.07.01.05.07.12.03 0 .09.08.08.12.12.01.08.04.14.07.19-.05.03-.12.17-.18.11-.04.05-.12.04-.16.09-.11-.04-.2-.04-.31.01-.17-.02-.29-.03-.38.08-.04 0-.11-.07-.14 0-.04-.01-.03-.07-.1-.05-.05-.01-.05.05-.08.07-.04-.02-.1-.02-.14-.05-.08.05.02.07-.02.12.03.05.14.01.16.08 0 .02-.01.02-.02.02.02.07.02.05.02.03zm-1.2-.82c-.14-.11-.26-.09-.43-.09-.04-.02-.12-.05-.16-.01-.07-.08-.23-.06-.35-.08-.04.03-.09.04-.14.07-.1-.03-.22-.06-.27-.15-.06-.02-.06.04-.1 0 0 .06-.03.09-.08.09-.13-.02-.28-.05-.41-.01.06.05-.03.11-.02.16.11.02.15-.05.22-.09.04.07.11-.03.16-.04-.02.07.07.03.04.12.12.06.38.11.47-.01.04.11.22.11.31.06.05.11.17.08.27.08.03 0 .02-.04.04-.05.11.09.22.04.35.08.02-.05.06-.08.12-.09.09.08.24 0 .33.08.06-.06.13.02.16-.07-.16.01-.34-.08-.51-.05zm-2.74-.15c-.04-.03-.17 0-.2.06.08-.04.07.02.12.03.03 0 .08-.02.12-.02s.09.04.1-.04c-.06-.05-.1-.05-.14-.03zm-.24.09c0-.04-.01-.06-.04-.07-.03.03-.03.09.04.07zm.45-.05c-.01-.01-.03.01-.02.02.01 0 .03-.01.02-.02zm-1.26.07c-.02.07.02.09.04.12.13-.01.16-.1.3-.04.03-.05.11-.04.12-.11-.16-.05-.25-.08-.39-.01-.07.02-.07-.04-.14-.03-.09.03-.2.15-.28.11-.01.04.02.05.02.1.06-.04.15-.05.24-.06.01-.04-.03-.06 0-.07.01.06.04-.04.09-.01zm.53.02c.08-.01.15-.02.18-.09-.09-.01-.16 0-.18.09zm3.89.09c0-.01-.03.01-.02.02 0 0 .03-.01.02-.02zm.15.02c-.02.08.08.04.12.05.01-.07-.08-.08-.12-.05zm-5.18-.06c-.08.06-.13.04-.22.06 0-.04-.13-.05-.1.02.03.09.24-.04.21.05.06.02.06-.04.12-.02.02-.07.01-.04 0-.12.04-.02.06.07.08 0-.05-.01-.03-.08-.1-.07.01.04.01.06.01.08zm-2.5.39c.06-.03.13-.08.16.01 0 .05-.05.03-.04.09.1.07.25-.07.37.04-.04.07-.13.07-.2.09 0 .06.03.07.06.1 0-.04.02-.06.06-.05-.02.07.03.06.04.1.11-.02.25.05.39-.01-.03-.01 0-.04.02-.05.01.05.05.06.1.07 0-.03 0-.07.02-.07.02.02.05.03.1.03.05-.06.13-.04.26-.04.04-.03.09-.05.14-.07 0 .03 0 .07.02.07 0-.02 0-.05.02-.05.02.05.11-.02.16-.02.16 0 .22.01.33-.04 0 .05.09.01.1.05.07-.06.13-.01.2-.04.1.02.13-.04.18.03.03-.04.05-.09.06-.16.07-.04.16-.06.18-.16-.06-.02-.08-.07-.16-.03 0-.02.02-.03.02-.05-.12.01-.18.01-.27.01-.02.13-.12.16-.22.11-.04 0-.02.08-.06.07-.12-.14-.28.08-.39-.04 0 .04-.02.06-.04.07-.06-.06-.17.07-.25-.01-.05.13-.23-.05-.28.06-.02-.07-.02-.18-.05-.24.1-.01.13-.01.26-.01.04.01.03.07.1.05.03-.03 0-.14.06-.14.02.09.06.1.06.17.12 0 .21-.04.28-.11 0 .03.04.03.06.05-.01-.09.06-.08.08-.14-.02-.05-.05-.1-.1-.12.02.09-.08.02-.1.07-.03-.05-.13-.01-.16-.05 0 .03-.01.06-.04.05-.16-.01-.27-.06-.45.01-.13-.05-.2-.07-.31-.01 0-.02 0-.03 0-.05-.06.02-.06.02-.12 0-.01.07-.07.07-.12.09-.04.02-.04-.05-.06-.05-.05-.01-.1.05-.16-.01-.04.03-.08.06-.12.09-.12-.09-.21 0-.29-.08-.08.06-.23.06-.31.04-.07.08-.12.08-.24.06-.11.06-.23.08-.37.03-.1-.01-.1.02-.18-.01-.08.06-.26-.01-.3.11.06.02.07.09.14.05v.07h.08c.08.11.18.09.29.15 0-.03 0-.07.02-.07.11.01.23.07.31.03.02.02 0 .09.06.07.06-.03.15-.02.2-.06.03.04.07.06.12.08.04 0 .02-.08.06-.07 0 .03-.01.07.02.07 0-.07.03-.08.06-.05-.03.02-.06.08 0 .09 0-.06.01-.11.04-.14.03.04.11-.01.14.08.01-.06.01-.1.06-.16-.07-.02-.09.01-.12-.07-.01.03-.06.11-.08.04-.03-.09.07-.01.1-.02zm1.89-.27h.06c0-.04-.02-.06-.06-.05zm1.04.14c-.11-.02-.16-.03-.2.09.1-.02.18-.08.28-.04 0-.03 0-.06 0-.09-.06-.03-.04.04-.08.04zm.18-.02c-.01-.01-.03.01-.02.02 0 .01.02-.01.02-.02zm-5.33-.02c0-.02 0-.03 0-.05-.12-.03-.14-.02-.24.02.02.09-.04.07-.06.12.04.05.11.02.16.01.11.02.2-.02.25.01.02-.05.14.03.12-.07-.09 0-.14-.04-.23-.04zm.32.03c.06.01.09.07.18.05 0-.06.06-.05.06-.12-.12-.03-.18 0-.24.07zm-3.55-.14c-.06.02-.06-.04-.1-.05-.11.08-.2.02-.3.11-.05-.07-.18-.05-.23-.1-.02.03-.05.05-.1.04-.12-.03-.26-.03-.35-.08-.01.03-.02.04-.04.05-.11-.03-.19.08-.28.01-.02.06-.11.04-.18.04-.01.09.02.01.06.03.01.03.04.05.08.05.1 0 .21.02.28-.01.04.03.1.04.14.08.01-.05.05-.06.1-.07.04.01.01.09.08.07.12-.09.27.02.39-.06.07.08.22.05.27.03.04.01.04.07.08.07.09-.05.17.02.25.01.02-.06.15.03.14-.07-.12.05-.14-.09-.29-.06-.01-.06.03-.04 0-.09zm2.8.09c-.04.08-.22-.02-.22.11.09-.01.12.05.21.03.05-.03.05-.09.12-.04.01-.07-.04-.1-.11-.1zm-4.75-.06c.04.02.05.08.1.1 0-.08.1-.03.1-.11-.09-.02-.15-.06-.2.01zm4.44.1c-.16-.01-.22.13-.38.06-.03.04-.11 0-.1.09.01.03.08.01.08.05.06-.02.12.02.18.01.01 0 .04-.04.06-.04.07-.02.17-.01.2-.11-.03-.01-.05-.02-.04-.06zm10.91.45c0-.04-.01-.06-.04-.07-.01.04.01.06.04.07zm-15.13-.52c.1.07.05-.11 0 0zm3.41.16c.02.01.03.03.04.05.05-.02.11-.03.1-.11-.08-.02-.12 0-.14.06zm11.38.32c-.02 0-.06-.01-.06.02.03 0 .06.01.06-.02zm-15.38-.48c0-.01-.02-.03-.02 0 0 .01.01.03.02 0zm5.67.2c0-.02-.03-.03-.04 0 0 .02.02.01.04 0zm-2.28-.01c.01-.08-.1-.09-.14-.05v.07c.1.06.27.07.33-.04-.07-.01-.14-.01-.19.02zm.92-.02c0-.02-.03-.03-.04 0 .03 0 .03.04.04 0zm10.7.39h.04c0-.02 0-.03 0-.05-.01 0-.03 0-.04 0zm-12.29-.42c0-.01-.02-.03-.02 0 0 .01.02.03.02 0zm.12-.02c-.02 0-.04 0-.04.02.02 0 .04 0 .04-.02zm.14.08c.05.01.08-.01.1-.04-.03-.05-.09-.01-.1.04zm-.1-.01c.07.13.1-.09 0 0zm.21.08c.06.04.06-.1 0-.07zm-5.04-.12c0-.01-.02-.03-.02 0 0 .01.02.02.02 0zm15.56.6c.04.01.05.05.1.05.01-.07-.09-.13-.1-.05zm-12.84-.42c0-.03-.01-.06-.02-.02 0 .03.01.06.02.02zm1.2.23c-.03-.08-.11-.04-.18-.03.01.09-.04.09-.08.12-.04-.01-.05-.05-.1-.05-.09.07-.16-.08-.22.02.03-.06-.05-.11-.06-.05.09.02-.07.08-.06.14-.07.01-.09.03-.14-.03 0 .04-.02.05-.06.05-.08-.04-.1-.04-.17-.1.04 0 .05-.02.04-.07-.07-.02-.05 0-.12-.03 0 .02 0 .05-.02.05-.12-.04-.18.04-.28.08-.01-.05-.03-.09-.1-.07-.05.09-.16.1-.22.18-.05-.08-.25-.08-.27.01-.09-.06-.25-.02-.26.11.09.07.12-.02.21.05.09-.01.2-.06.29-.01.03 0 .03-.04.06-.05.01.03.02.05.06.05.07-.04.16.02.24-.04v.05c.09-.02.15.07.22.01 0 .04.03.06.08.05.14-.1.34-.09.48-.15.06.09.15-.03.23.03.04-.01.04-.06.08-.07.05.07.14-.02.2-.02.02.03.07.01.06.07.05.01.06-.03.1-.04.01.14.07-.03.12.07.03-.1.24-.08.32-.04.05-.07.11-.12.2-.14 0 .06-.03.05 0 .09.09-.03.19-.02.25.03.04-.08.07-.18.14-.23-.1-.05-.13 0-.22.02-.05-.01-.06-.07-.12-.08-.03.01-.04.03-.08.02 0 .04-.02.06-.04.07-.09.01-.11.1-.2.11-.05-.04-.09.03-.12-.05.03-.06.04-.07.02-.14-.09.03-.2-.05-.28.01zm7.61.46c-.01-.1.04.01.1-.02 0-.07-.12-.12-.16-.08.04.01 0 .1.06.1zm.21-.07c0 .06.03.07.06.1-.01-.07.07-.02.08-.07-.07-.01-.07-.07-.14-.03zm-.1.05h.06c0-.04-.02-.06-.06-.05zm-5.02-.15c-.05-.02-.04.05-.08.04-.12-.1-.3-.08-.45-.04-.06 0-.04-.09-.12-.08-.01.03-.03.06-.06.07-.06.02-.07-.03-.12-.03-.02.05-.05.08-.12.07v.12c.2-.03.43.05.61-.03.08.11.11-.02.22.03.06-.06.09-.02.16-.07.05.05.15.01.2-.02-.03-.07-.19 0-.24-.06zm4.53.2c.04.06.07-.02.1-.04-.03.01-.08.01-.1.04zm-10.72-.23c-.06.01-.15-.03-.16.04.06.07.07-.05.14 0 .02 0 .03-.03.06-.02.07-.02.21.06.22-.04-.05-.09-.21-.04-.26.02zm1.03-.01c.04.12.05-.08 0 0zm-.1.04c-.02.01-.04 0-.04.02.01 0 .04.01.04-.02zm-.32.04c-.03-.01-.04-.04-.08-.03-.03.07.09.07.08.03zm-.57.1c.07.05.13-.01.2.03 0-.04.02-.05.02-.09-.1.01-.16-.03-.22.06zm13.91.48h.04c0-.02 0-.03 0-.05-.01 0-.03 0-.04 0zm.06 0c.02 0 .03.03.06.03 0-.04-.01-.06-.04-.07 0 .02-.01.02-.02.04zm-15.19-.45c.04-.01.18-.01.12-.07 0 .04-.12-.03-.12.07zm1.93.04c-.03.03-.05.07-.1.07 0 .1.08.11.15.12 0-.08.09-.04.08-.14-.08.02-.06-.07-.13-.05zm.41.01c-.01-.01-.03.01-.02.02 0 .01.03 0 .02-.02zm-.12.02c-.01-.01-.03.01-.02.02 0 .01.03 0 .02-.02zm.2.04c-.02 0-.03-.04-.04 0-.01.02.03.02.04 0zm-.99.1c.08.03.08-.05.14-.04.04 0 .04.03.08.03.03-.05.13-.03.14-.11-.12.05-.24.05-.33-.01-.04.04-.05.06-.03.13zm-.18 0c.05.01.08-.01.1-.04-.04-.01-.03-.07-.1-.05.01.02 0 .06 0 .09zm2.84.54c-.01.06.09.09.1.05-.04-.01-.04-.06-.1-.05zm.19.03c-.01-.05-.01-.13-.06-.14-.04.01-.1.02-.06.14zm-1.29.08c-.01-.01-.03.01-.02.02 0 .01.03-.01.02-.02z"/><path d="m53.37 48.46c.03-.02.01.02 0 .02-.03.01-.04-.02-.02-.02.01-.01.02 0 .02 0z"/><path d="m37.1501 48.49c-.06-.06.03-.04.06-.02 0 .08-.06-.06-.06.02z"/><path d="m46.3101 49.16c.03-.14.12-.06.24-.09-.01.06.04.05.06.07-.07 0-.21.11-.3.02z"/><path d="m45.8102 49.28c.04-.05-.02.06.02.07.08-.02.11.02.18-.04.04.01.04.06.06.1.1-.07.16.07.24.01.05.16-.13.02-.14.07-.02 0-.02-.04-.02-.07-.05.06-.14.01-.24.04-.03-.11-.14-.08-.2-.03-.03 0-.03-.02-.06-.03-.06.07-.12-.01-.16.07-.02-.01-.03-.02-.04-.05-.02.01-.04.03-.04.07-.11-.05-.14.06-.22-.03-.01-.09.09-.03.14-.04.04-.05.04-.14.14-.11-.02.14.15.05.16.01.04.05.16.04.18-.04z"/></g></svg>