<svg xmlns="http://www.w3.org/2000/svg" fill="none" viewBox="0 0 88 88"><path d="m57.8 23.83h-37.8v48.6h37.8z" fill="#49a4d5"/><g fill="#1e1e1e"><path d="m37.5301 30.7c-.07 0-.18 0-.19.02.07 0 .19 0 .19-.02zm-.07-.16c-.37.08-1.02-.07-1.13.06.37.02 1.33 0 1.58.04-.02-.07-.23-.09-.45-.1zm-2.81.07c.5-.07.49.07 1.02.05-.14-.11-.84-.17-1.02-.05zm-.87.28c.02.01.14-.01.1-.02-.03-.01-.15 0-.1.02zm-3.74-.01c-.09-.03-.08-.09-.27-.1-.3.06-.46.02-.85.04-.17-.01.13-.13-.08-.07-.11.08-.67.09-.84.02-.04.05-.85.13-.75-.01-.17-.01-.28 0-.36.01l.43-.43c.02.14.07.19.1.31.02.21-.05.72.04.66.08-.35-.01-.49.03-.97l-.6.6h.06c0-.04.08-.06.19-.07.02.03.1.04.18.05.2-.07.48 0 .75-.07.12 0 .13.03.28.03.28-.05.81-.08.93.03.48-.03.88.02 1.12-.04.01.03-.02.07.09.07.04-.05.91.09.66-.07-.36.09-.65-.05-1.11.01zm.0099-.14c.22.13.25-.08 0 0zm3.7301 22.98c-.03-.01-.14.01-.09.02.02 0 .13-.01.09-.02zm-6.33-23.04c0 .04-.02.08.18.07.01-.04-.07-.06-.18-.07zm18.06-2.05c-.02-.01-.14.01-.1.02.03.01.15-.01.1-.02zm-9.06 24.01c-.03-.01-.13.01-.08.02.03 0 .13-.01.08-.02zm-1.94 1.06c-.06-.07.31-.06.08-.11.08-.02.33 0 .26-.06-.41-.08-.5201.08-.8001.1-.2-.01-.2899.01-.2599.07.29.03.33-.01.72 0zm-3.14-23c-.6-.05-.48.09 0 0zm3.9.15.01-.09c-.33.02-.65.04-.85.09zm1.32-.06c-.08.06.18.05.18.1.34-.01.8 0 .94-.06-.3-.03-.44.01-.74-.08-.02.04-.32.01-.38.04zm-3.82-.1c.03.01.14-.01.1-.02-.03-.01-.15.01-.1.02zm.36.15c-.02.07.42.19.46.05-.3.01-.29-.04-.46-.05zm-.81-.29c-.57.02-.99-.06-1.13.09.45.09 1.09-.02 1.4-.01-.08-.04-.34-.02-.27-.08zm-.51.35c.41.02.3.01.65.03.08-.1.42.03.47-.07-.37 0-.46-.06-.83-.05.08.07-.31.02-.29.09zm6.1-1.92c.14-.01.48.03.47-.02h-.28c-.07 0-.18 0-.19.02zm13.34 14.56c0 .26-.04.17 0 .38l.04.03c.04-.17-.0001-.12.0099-.38zm.15.66c0 .11-.03.13 0 .19.01.01.02-.15 0-.19zm-25.33-12.67c.05.11.08.01.14.2.06-.27.07-.27.05-.74-.06.08-.12.19-.19.26zm25.19 12.87c.01.07.04.17.02.01 0-.03 0-.07 0-.1 0-.11-.03-.04-.02.09zm.08-2.52c0 .08-.0001.19.0199.2 0-.08.0001-.19-.0199-.2zm0-.19.04.02v-.19l-.04-.02zm-21.44-11.23c-.03-.01-.1401.01-.1001.02.03.01.1501-.01.1001-.02zm7.72.27c.18-.01.4-.01.38-.07-.23-.01-.29.03-.38.07zm-7.44-.27c-.03-.01-.14.01-.1.02.03.01.15-.01.1-.02zm12.1199 24.24c.06.06-.2999-.05-.2799.02.18.02.5799.03.2799-.02zm-2.6099-24.1c.08.04.32.05.46.07-.05-.16-.62-.14-1.01-.17-.06.11.08.18.35.22.16-.02.01-.12.2-.12zm-8.62-1.39c0-.02-.16-.03-.19 0 .02.03.1.02.19 0zm7.47 1.64c.29-.01.24.07.46.07.06-.12.35.01.56 0 .26-.11.74-.04 1.04-.11-.34-.03-.53-.1-1.02-.1-.18.1-.96.02-1.04.14zm-12.59 1.88c-.04.22-.06.44 0 .65.04-.38.06-.45.03-.93.06-.09.08-.76-.02-.75-.07.23-.01.75-.01 1.03zm.31-.53c.02 0 .03-.16 0-.19 0 .11-.04.15 0 .19zm-.22 4.18v-.37c-.08-.03-.1.43 0 .37zm25.52 17.16c0 .24-.01.46-.03.55.02.16.04.31.06.46-.02.2-.01.34-.01.49l.16.16c0-.09.01-.18.01-.27 0-.13-.03-.12-.03-.23.04-.31-.02-.48-.01-.89.05-.39-.01-.83.05-1.32-.02-.06-.03-.16-.03-.32.02-.52 0-.9-.02-1.29.04-.43-.01-.87.07-1.11.01-.28-.04-.33-.02-.61.06-.32.05-.79.03-1.26.03-.04.06-.07.09-.08.04-.16.04-.57.12-.5-.03-.37.02-.23.04-.56-.11-.44-.03-1.57-.09-2.22 0-.17.02-.24.05-.26-.05-.54.02-1.07 0-1.76.08-.38.03-.94.07-1.43.07-.05.02.33.08.33.01-.42.11-.36.09-.94.04-.12.06-.31.08-.55-.06-.16 0-.36-.03-.7-.01-.31.03-.35.03-.58-.04-.01-.06-.1-.06-.22.04-.09.0499-.36.0999-.45 0-.51.0501-.76.0901-1.05.01-.24-.03-.32-.04-.5.06-.04.06-.35.08-.57-.04-.32.01-.41-.01-.79.06-.38.1199-1.21.0699-1.75.07.06.0201-.45.0801-.48.01-.29-.05-.31-.04-.6.08-.57.07-1.25.07-1.88v-1.73h-1.73c-.43 0-.84-.01-1.19-.05-.24.01-.29.07-.57.07-.15-.03-.55.02-.93-.01-.41-.06-1.13-.02-1.59-.01-.26-.01-.73-.12-.84-.03.04.1.56.08.54.19-.25 0-.5 0-.75 0-.31-.11-.46-.11-.91-.17-.59.06-1.08-.01-1.59.06-.17-.02-.34-.04-.56-.05-.16.04-.35.07-.66.07-.4-.06-.59-.05-1.21-.03-.33-.04-.97-.01-1.3-.06-.06.06-.3601.05-.5701.07-.14-.04-.6399 0-.5499-.1-.4.02-.38-.01-.75-.03-.19.01-.19.06-.38.07-.2-.04-.46.06-.94.02-.1.02-.04.09-.29.07.04-.09-.34.01-.55-.05-.29.04-.7401.04-1.0401.09-.29-.04-.8799-.02-1.2099-.06-.25.06-.35.02-.66.04-.16.06-.27.14-.58.16-.07-.07-.31-.09-.45-.14-.59.03-1.31.08-1.87-.01-.39.1-.73-.03-1.21-.03-.33.1-.85.08-1.31.04-.04 0-.09 0-.12.01l-1.69.07.05 1.56c.02.68-.01 1.21-.04 1.93.01.22.08.18.07.47.01.25.01.98-.03 1.3.09.59-.05 1.42.03 2.06-.05.04-.01.46-.03.65.05.58.01 1.25-.03 1.58.02.21.04.44.07.66.02.9 0 1.52-.02 2.42-.06.46-.04.47-.03 1.02-.01.22-.04.34-.03.65.06.26.04.81.04 1.31-.03-.01-.05.04-.07.09-.01.65-.05 1.08-.01 1.68-.11-.16-.05.35-.1.46.07.01.1.18.12.39-.08.61.08 1.45-.06 1.77-.01.33.08.32.09.57-.06.03-.03.4-.07.46.03.44.07.35.06.85 0 .28-.06.28-.05.55.03.14.02.24 0 .37.03.02.06.04.05.19 0 .23 0 .45-.03.56.03.09.07.15.07.38-.05.04-.01.46-.03.65.06.29.03.42.02.84.01.06.02.1.03.14l.33 1.83 1.31-.18c.12-.02.22-.02.44.01.19 0 .13-.06.4-.04.9.04 1.46-.04 2.26-.09.75.02 1.22.03 1.86-.02.52.08.67-.03 1.28.02.44-.14.9199-.05 1.6499-.14-.09.07.2201.04.4001.04-.01.07.36.05.5.09.06-.09.76-.04.97-.1.14.02.26.03.4.04-.08-.06.19-.05.28-.07.29.06.52-.02.78-.03.23.02.26-.01.5.04-.01-.06.45-.06.58-.03.03-.03.11-.05.28-.05h1.47c.18-.01.23-.05.47-.05.13 0 .15.03.3.02.21-.05.24-.05.49-.01.29-.06.87-.06 1.23-.1h.98c.24-.06.89-.04 1.13-.1.37.04.86-.03 1.14-.06.38.03.56-.04.94-.05.56-.02.95 0 1.38.01.29-.06.97-.07 1.42-.06.29-.05.76-.07 1.32-.08l-.16-.16c-.15.01-.31.03-.65.02-.24.04-.64.05-1.01.07-.42-.01-.93-.01-1.29-.04-.36.03-.66.06-1.01.09-.25 0-.56.02-.6-.03-.5.05-.7-.03-1.1-.06-.02.05-.4401.04-.6401.07-.12 0-.1499-.02-.2999-.02-.34.06-1.41.01-1.63.04.12 0 .23 0 .21.04-.34.05-.36-.02-.6-.06-.22.01-.43.03-.76.03-.42-.07-.94.02-1.19-.1.49-.01.58-.09 1.01-.11.35.06.68-.02 1.15-.01.25-.07.7-.09 1.09-.13.09.04.29.01.12.06.3.01.18-.06.55-.04.23 0 .21.07.51.06.03-.02.08-.04.16-.06.38-.02.92-.08 1.2-.06.13-.03.32-.06.52-.08.44.04.89-.05 1.26.03.13-.06.82-.02.99-.08.36.11.83-.04 1.18.05.15-.02.29-.04.44-.06l-.06-.06h-.01c-.15.05-.92.09-1.21.02-.04-.07.71-.02 1.01-.04.1 0 .14 0 .19-.01l-.59-.59c-.19-.01-.38-.02-.58-.03-.14.04-.24.05-.42.04-.35 0-.87-.02-1.19 0-.49-.03-1.61.01-2.23-.05-.08.02-.22.03-.34.05-.24-.07-.55-.02-.83-.01-.18-.02-.28-.05-.49-.07-.29-.02-.15.05-.44.03-.96-.04-2.43.05-3.23-.05-.08.05-.58 0-.82.01-.04.02-.08.05-.16.06-.42-.06-.82-.03-1.49-.06-.12 0-.07.04-.17.04-.28-.05-.58-.04-.84-.03.08-.13-.2-.03-.21-.11.29-.02.2.06.39.07-.16-.12.15-.06.34-.08.05-.01-.02-.07.17-.04.28-.01.37.04.56.05-.03-.05.05-.07.25-.06.13.02.29.04.39.07.37-.02.35-.03.82-.01.3-.04.65-.07.76-.16.08.07.47.06.67.1.12 0 .11-.02.27-.02.13.02.2899.04.3899.07.48-.01.4601.04.9101 0 .29.03.5699.06.8399.04l.0301.06c.21.01.46-.09.55.01.33.02.19-.06.52-.05.17 0 .22.03.38.03.21-.04.74-.01.98-.04.1.07.35-.01.58.05.47-.06 1.18-.02 1.6-.06.36 0 .54.03.84.03.1-.03.34-.03.41-.06.23.02.45.03.65.03l-.19-.19c-.31-.01-.58-.01-.75.01-.23-.07-.62-.01-.88-.09-.32.02-.79-.01-1.11-.05-.19.02.15.05-.06.05-.15 0-.09-.05-.22-.06-.07.05-.4801-.01-.6401-.02 0 .02.0501.05-.0499.05-.23-.07-.53 0-.84-.06-.02.08-.7.03-.95.07.03.06.03.11-.31.09-.06-.05.14-.04.04-.1-.38-.04.01.08-.23.07l-.3-.07c-.42.03-.85.05-1.22.09-.2-.02-.2-.09-.49-.09-.51.04-1.21.03-1.8 0-.01.05-.06.09-.23.1-.15-.06-.5-.07-.67-.12.12.14-.7.06-.86.13-.31-.07-.51-.02-1.01-.04-.18-.01-.24-.05-.47-.05-.12.1-.68.05-1 .01-.01.03.05.08-.07.09-.23-.02-.27-.01-.47-.07-.32.04-.42.01-.72.06.19.02.44.03.47.1-.62 0 .07.05.02.11-.15.04-.54.01-.82.01-.02-.14-.42-.06-.84-.12-.21.03-.2.11-.44.13-.1-.03-.16-.07-.28-.1.03.05-.26-.01-.28-.03l-.55-.01c-.28-.08-.98-.06-1.28-.13-.32.05-.68-.02-1.09-.06-.24-.01-.07.09-.37.07-.34-.07-.03-.19-.17-.33-.24-.05-.37-.13-.62-.17-.27.04-.76.04-1.08-.01-.26-.01-.41.02-.63.02l1.21 1.21c0-.08 0-.17 0-.29.02-.19.07-.27.08-.55-.07.04-.06-.24-.09-.38.03-.54-.04-.68-.06-1.03.03-.29-.0001-.25.0299-.46-.05-.2-.0999-.4-.1099-.76.08-.59-.05-.97-.08-1.41.02-.25.07-.35.1-.55-.03-.03-.06-.16-.02-.19 0-.31-.07-.33-.07-.66.13-.07.04-.51.05-.93-.07-.04-.12-.18-.14-.39.05-.71-.07-.82-.06-1.41-.04-.02-.08-.07-.09-.2.11-.52.02-1.34-.03-1.78.03-.09.09-.08.1-.27-.03-.15-.08-.26-.09-.48.03-.12.03-.4.03-.65-.02-.3 0-.41-.07-.66.03-.01.03-.14.03-.28-.06-.13-.0201-.56-.1101-.76 0-.28-.0599-.32-.0699-.57.04-.01-.03-.31 0-.56.03-.01.04.14.05.01-.04-.05.04-.4.07-.46-.01-.41.04-.52.03-.93-.06-.19-.07-.59-.06-1.03-.05-.18-.08-.44-.09-.76.03.03.04.14.09.1-.01-.54.01-1.21.06-1.58-.03-.04-.05-.13-.05-.29.09-.35-.0201-.5.0299-.93-.04-.2-.0499-.53-.0899-.76-.01-.32.04-.88-.04-.94-.05.22-.01.78-.06 1.02 0 .24.09.15.09.38-.07.01-.1001.23-.1501.36 0 .39.1501.25.1401.67-.11-.04-.1.41-.22.35-.03-.06-.06-.15-.07-.29.08-.33 0-.52-.02-.94.1.08.05-.48.12-.55-.01-.69.12-1.48-.04-1.69-.07.35.07 1.24-.08 1.39 0-.53.06-.8-.04-1.03.01-.21.05-.47 0-.65.04-.05.1-.04.12-.17-.01-.03-.02-.06-.03-.1l-.31.32c.21-.04.5-.01.75-.03.09-.07-.14-.07-.17-.12.39.03.26-.08.48-.09.18.12.2599-.03.5599-.02.01.1.5701.08.2601.19.2.02.64.02.93.08.15-.02.15-.07.38-.07.01.03.0199.06.1799.05-.1-.09-.6099-.08-.6299-.19-.16-.02-.39.07-.47 0 .16-.05.4099 0 .6599-.02.11-.01.1901-.05.2901-.04.19 0 .18.07.37.05.08-.03.15-.07.38-.07.36.04.89 0 1.31-.01 0 .09.56.05.74.1.02-.02.0099-.05.0999-.05.42-.02.9301-.01.9501-.14-.34 0-.65 0-.55-.1.47-.02.49.08.84.03.02.03.15.04.18.07.35-.02.44.03.74.03.38-.01 1.42-.05 1.86.04.26-.01.49-.03.75-.04.64.05 1.63-.03 2.52.04.12-.03.33-.04.56-.04 1.42.04 2.79.01 4.58.01.21.05.39.05.65.05.14 0 .36-.03.47-.02.15.01.15.06.37.05.37-.05.76-.1 1.41-.08.22.01.16.08.46.07.6.04.96-.03 1.31-.04.17 0 .2.02.37.03.14 0 .3-.02.46-.03 0 .1 0 .2-.03.29-.05-.02-.07-.14-.08-.29l.11.11c-.21.02-.49.02-.66.05.1-.09-.2601-.08-.4601-.1-.34.01-.4899.08-.8499.09-.36-.11-.88.02-1.22.06-.03-.03-.13-.05-.08-.09-.64.03-1.1-.1-1.4-.01v-.05c-.42.04-.49.05-.94.09-.11.06-.25.11-.48.14-.17 0-.13-.06-.46-.07-.06.05-.1901.08-.3801.09-.18-.08-.1499-.01-.4699 0 .07-.04-.17-.1-.18-.05.19-.01-.0201.07-.1001.07-.34.02-.9099-.02-.6399-.08.26 0 .17.08.55.05l.01-.14c-.56.03-.92-.01-1.39-.08.01.12-.57.09-.49.23.46.01.62-.09.93.01-.13.21-1.32-.01-1.51.18.51.03.9.05 1.39.08.7-.02 1.38-.15 2.16-.08.08-.03.3-.03.47-.04.61.04 1.21.08 1.76.13-.02-.06.05-.1.29-.09.21.11.64 0 .94-.02.27.01.28.09.64.08.18-.02.38-.03.47-.07.67-.02 1.31 0 2.1 0l-.49-.49v1.43c.08.13.05.89-.01 1.01.09-.06.03.44.04.65-.01.17-.05.22-.05.45-.01.23.03.29.04.47-.05.17.04.68-.03.91.03.04.05.13.04.29-.08.05 0 .51-.07.71.03.36.09.96.02 1.2-.01.22.04.21.02.47 0 .22-.04.26-.02.54 0 .18.06.14.04.38-.07.85 0 1.41-.05 2.36.04.55.01.94-.02 1.27.01.13.03.19.02.38-.01.29-.07.34-.06.69.03.25.08.45.09.78.01.43-.04.58-.04.98.05 1.32 0 2 .11 3.1.1.04.09.51.19.53l.01-.03v.47c-.11-.19-.11.3-.17.4.01.31.03.55.08.71-.03.15 0 .12 0 .37-.04-.07-.07-.05-.09 0 .02.26-.0301.3-.0301.51 0 .32.0401.73.0401 1.05 0 .21-.03.29-.03.51.04.39.04.71.03 1.03l.59.59c0-.03 0-.05-.01-.09.04-.28-.04-.41.01-.66.05.08.02.49.03.77l.06.06c-.01-.09-.01-.18-.02-.29.03-.12-.01-.49.01-.84 0-.12-.03-.12-.03-.23.03-.27-.01-1.4-.03-2.02.03-.23.08-.77-.01-.95 0 .21-.02.28-.06.23-.01-.27-.06-.92.01-.93.04.11 0 .54.07.53.05-.3-.05-.95.02-1.31-.05-.24-.08-.59-.1-.92l.03-.07c-.08-.85.05-2.33-.01-3.68.04-.28.02-.87.05-1.19.01-.23-.03-.31-.04-.49.08-.35-.01-.91.08-1.18-.11-.42.02-1.19-.03-1.71.03-.26.04-.66.01-.94.06-.03.05-.33.07-.54-.01-.64-.0701-.88.0099-1.32-.03-.05-.0499-.14-.0399-.3.04-.07.07-.12.07-.36-.06-.62-.05-.92-.08-1.63.03-.17 0-.73.1-.83.02-.33-.08-.25-.07-.58.09-.1.03-.86.1-1.02-.08-.07-.1001-1.02-.0201-1.14.03.15.0701.29.0901.49-.02.91.03 1.12-.01 1.8.02.14.03.25.04.39-.03.29-.01.4-.05.75.01.4-.02.64-.05.84.06.14.04.52.02.76.05.1.05.38.04.68 0 .18-.08.04-.07.26.03.26.0199.66-.0101 1.04.06.46.0501 1.14.0701 1.73-.03.61-.06 1.12.05 1.45-.02.01-.04-.02-.05.07 0 .06 0 .11.02.11.06-.06.03-.58.08-.73.05.22.06-.26.11.15-.03.17-.03.44-.05.65.01.16.07.18.06.41.01.31-.04.28-.05.45.06.14-.01.5-.01.66.1.45.08 1.06.06 1.86.02.3.03.57.02.83-.02-.1-.0401-.2-.0601-.3.01.17-.0499.39-.0399.16-.04-.02-.02.3-.07.24l-.08-.06-.01.57c.06.13.0699.42.1399.29.08.49.01 1.57.06 2.16.01.3-.0399.25-.0299.55.01.27.04.44.04.71-.04.41 0 1.2.02 1.66 0 .47-.04 1.09-.01 1.44.04.15.09-.2.11.11-.08.4-.14.37-.18.45zm-7.14 1.8c-.01.02-.09.01-.1 0 .01-.02.09-.01.1 0zm6.1-1.03.06.07c-.29.01-.31-.03-.5-.04.06-.02.21-.03.44-.03zm.33.17c-.22.07-.5301.03-.9901.05-.04-.03.0901-.04.0401-.07.34.03.56-.01.95.02zm-2.19-.16c.17 0 .2099.02.3899.02.29 0 .2301-.05.6301-.03.16.05.12.07-.01.1-.5-.04-1.05-.04-1.6-.01.01-.06.47-.04.59-.08zm-.09.27c-.19.01-.26-.01-.39-.02-.05-.04.51-.03.39.02zm-1.51-.3c.36.01.74.02.81.1-.24 0-.31.03-.43.05-.36.02-.32-.06-.68-.04-.12-.08.36-.05.3-.11zm-.19.3c.01.02-.11.01-.18.02 0-.02.11-.02.18-.02zm-.77-.2c.05.01-.05.02-.08.02-.06-.01.05-.02.08-.02zm.15.25c-.21.07-.29-.1 0 0zm-.7001-.23c.05.01-.0499.02-.0799.02-.06-.01.0499-.02.0799-.02zm-3.4899-.69c.05.01-.06.03-.08.02-.05-.02.06-.03.08-.02zm-11.97 1.6c-.5.09-.36-.12 0 0zm.2.07c0-.02.12-.02.19-.02 0 .02-.12.02-.19.02zm.58-.02c.02-.03.1-.01.1 0-.03.03-.11.01-.1 0zm8.9299.13c-.44-.06-.7899.05-1.3599.03-.08.01-.17.02-.18.05-.49-.04-1.17-.04-1.77-.06-.24 0-.4.01-.48.05-.3-.05-.92-.03-1.18-.09-.46.09-.94.04-1.45.12-.19-.01-.18-.07-.49-.05-.17-.05.01-.03-.01-.09-.75.03-.89-.1-1.45-.05-.08-.1.59-.01.67-.07.42-.01.82.05 1.25 0 .2.01.19.06.39.07.26-.02 1.01-.05 1.36.02.58-.08 1.38.02 1.93-.07.31-.02.21.06.4.07.23-.01.41-.03.47-.07.2.03.47.04.69.06.33-.04.88-.03 1.35-.03.18 0 .33.01.4.04.22.01.29-.06.3.02-.33.01-.7501 0-.8401.05zm.5501-.39c.04-.03.1 0 .1.02-.03.03-.09 0-.1-.02zm1.63.22c.23.01.29.07.52.08-.23.07-.54.03-.96.03-.04-.07.47-.04.44-.11zm-.56.07c-.2.11-.52-.05 0 0zm3.84-1.01c-.03.03-.08 0-.19 0 .01-.03.18-.02.19 0zm-8.37-.61c-.29.02-.29-.04-.47-.05.02-.04.52 0 .47.05zm-.37-.03c.2.11-.08.12-.25.13-.22-.02-.22-.09-.3-.14zm-6.4101.91c.32.06.8101.06 1.2301.03.16.05-.01.03 0 .09.43-.02.71-.07.94-.14.38.04 1.39.06 1.51-.04.23.1.4999-.07.5699.07.18-.01.2301-.05.4701-.04-.06.06.2.05.3.07.29 0 .67-.09.94-.02.19-.01.18-.06.37-.07.42.05.79-.06 1.14.03.62-.06 1.5799-.05 2.2199-.15.21-.01.3501.01.3901.04.27-.05.6.02 1.04 0l.02.04c.37-.05.7999-.01 1.1099-.04.16 0 .2501.02.3001.04.12-.01.13-.04.27-.04.5.04.96 0 1.4-.02.51.06.59-.02 1.06.04.05.11-.71.14-1.18.1-.09.08-1.05.09-1.32.02-.24.07-.78.08-.97.17-.32.02-.43-.02-.5-.06-.44.05-.71.12-1.3.09-.09 0-.06.03-.08.04-.35-.01-.23-.01-.58-.02-.05-.04 0-.07.17-.07-.39-.06-.48-.05-.88-.09-.19-.01-.29 0-.27.04-.23-.05-.31-.03-.67-.02.04.06-.7101.12-.2601.13-.03.06-.4299.02-.2899-.05-.24.09-.64-.04-1.04.02-.23 0-.3-.04-.48-.05-.17.03-.45.03-.36.11-.32.01-.69.05-.86-.02-.39.06-.96-.01-1.43 0-.12-.07-.03-.08.09-.14-.13-.08-.3101-.01-.5701-.05-.41.01-.4999.11-.9399.11-.12.01-.19.03-.19.07-.2-.01-.25.02-.38.02-.28 0-.32-.06-.57-.07-.42.02-.58.07-1.05.02.29-.01.4299-.1.6299-.19zm-.5.66c-.08.05-.3399.08-.4799.04.09-.03.2499-.05.4799-.04zm-.5699-.07v.07c-.28.03-.28-.11 0-.07zm-.77.06-.01.07c-.17.04-.71.03-.67-.05-.19.02-.43.02-.7.02l-1-.01.01-.98c0-.08 0-.16 0-.25.02.06.04.15.05.25l.13 1.03.8-.1c.4-.04 1-.02 1.39.02zm-2.4-5.22c.07-.75-.06-1.03-.06-1.78.04.04.0399-.07.0499-.18.1.12.0901.6.1101.95 0 .08.04.24.04.29.01.25-.03.58-.01.84-.04.01-.02.31-.05.37-.08.04-.05-.35-.08-.49zm.04.57c.03.05 0 .08 0 .19-.03-.03-.02-.2 0-.19zm-.07.83c.09-.02.1.24.11.48-.02.04-.04.08-.05.18-.06-.08-.08-.31-.06-.66zm.84-2.71c.05.35.01.46.06.75-.05.48.08.64-.03 1.03.08.88 0 1.94.03 2.9l-.12-.01c.02-.33-.0201-.48-.0701-.57 0-.22.0401-.27.0301-.56-.01-.14-.04-.23-.07-.29-.02-.36.07-.28.08-.55-.04-.73-.06-1.56.04-2.14 0-.19-.06-.13-.04-.38.06-.23-.01-1 .08-1.11.02.22.06.71.01.93zm-.76-1.95c.02.45-.04.6-.03 1.02-.13 0-.03-.85-.11-1.04-.01-.35.02-.55.1-.55-.05.32.01.31.04.57zm.01-2.43c-.03-.03-.02-.19 0-.19.02.09.03.18 0 .19zm-.04-.19c-.03.28.01.71-.01 1.21.01.22.04.57-.01.75-.04-.09-.03-.38-.12-.29-.04-.45-.04-.56-.02-1.12l.05.01c0-.4.04-.65.03-1.12.1-.08.02.49.08.56zm-.01-1.77c.02.43-.04.52-.05.83-.07-.3-.11-.58-.06-1.13.06-.01.04.29.11.3zm8-13.35c.4-.02.66 0 1.03-.06l.01-.07c.29-.01.24.07.46.07-.07.07-.2-.02-.37 0 .06.07.06.05-.01.12-.28-.02-.28.04-.56.02.1-.09-.86.03-1.02-.05-.14-.08.48-.07.46-.03zm-1.87.01c.19-.01.29.01.28.05h-.28zm-2.18 1.14c.08-.03.3099-.03.4699-.04-.15.03-.2599.1-.4699.04zm1.7799-.03c-.26.01-.0799-.09-.2699-.1.16-.04.74.01.74.08-.27.03-.5001-.08-.4701.02zm.5601-.02v-.05c.19-.01.29.01.27.05zm.74.05c-.13-.02-.29-.04-.27-.1.32-.04.32.02.65.03-.03.05-.41.01-.38.07zm2.1399-.74c-.04.07-.1599.12-.2999.16-.2-.07-.38-.01-.84-.03-.34.03-.59-.02-.94.04-.05-.04-.44 0-.46-.05-.52.04-.81.04-1.59.04-.24-.01-.63.07-.75.02-.09 0-.08.03-.1.05-.11 0-.07-.04-.09-.07-.25.01-.48.03-.66.07-.62 0-.97-.02-1.22.04-.22.01-.36-.01-.46-.03-.11 0-.08.04-.1.07-.22-.01-.4-.03-.46-.07-.11.01-.24.04-.1.05l-.1.01-.6.05.04.52c.04.66-.01 1.28 0 1.77-.04.04-.02.29-.1.18-.01.19 0 .29.05.28-.02.14-.04.29-.1.27-.02-.34-.02-.78-.09-.95-.1.58.04 1.28-.04 1.77-.07.06-.05-.19-.09-.2-.09.15-.03.47-.01.75.01.14-.07.6.04.66.06-.08-.02-.35-.04-.38.09-.14.05-.23.07-.55.06.23.11.23.16.3-.08.14-.04.5-.08.64.03.14.08.19.14.2-.02.29-.07.15-.09-.01-.03.13-.02.29.05.28 0 .11-.04.07-.07.09-.01.21.07.11.07.29-.01.24-.0401.42-.0801.55.04.23.0301.67.0601.94.01.25-.05.18-.07.27.03.4-.03.97-.03 1.49 0 .11.04.08.07.1-.06.51-.04.99-.15 1.38v.37l-.07-.01c.04.33-.03.35-.05.65-.12-.17-.05-1.02-.11-1.41.03-.38 0-.38.01-.84.05-.7.03-1.23-.03-1.78.02-.55.02-.81-.06-1.13.02-.42.02-1.13-.04-1.5.08-.41-.01-.84.08-1.39-.03-.2-.06-.38-.09-.57.06-.28-.01-.53.01-.74 0-.06.07-.1.05-.28-.02-.23-.02-.54-.09-.57.02-.27.02-.28 0-.56l.05.01c-.01-.14-.02-.27-.03-.39l-.09-1.21 1.36-.06c.34-.01.64 0 1.1.04.88-.07 1.38-.02 2.15-.01.16.01.18-.02.19-.05.13.05.61.01.74.05.07-.05.55.02.47-.07.22.02.34.07.45.12-.09.06-.42.05-.39.14-.07-.02-.26-.02-.28-.05-.33.07-.73.11-1.32.11.01-.07-.17-.08-.26-.17-.28 0-.13.11-.3.14-.3.02-.29-.04-.46-.05-.61.01-.72.01-1.21.01.16.06.15.16.25.24.21-.11 1.07.07 1.31-.06.38.08.92-.05 1.21.01.12-.01.19-.03.19-.07.54.11 1.31-.1 1.86.04.21.01.11-.07.29-.07.48.05.97.02 1.04-.11.45 0 .74-.01 1.31-.01-.02.02-.1.02-.1.05.34-.05.45 0 .74.03-.07.1-.4701.13-.8201.16zm2.2601-.17c-.48-.05-.84.02-1.31.04.16-.12.42-.1.94-.09.19 0 .12-.06.38-.04zm.38-.05c-.05-.01.07-.03.1-.02.04.01-.07.03-.1.02zm1.71-.24c-.65-.06-.8.03-1.41.04-.1-.03-.26-.05-.17-.12-.23-.03-.4.07-.47 0-.14.01.03.03-.01.07-.42.01-.82.02-1.13.06.02-.04-.11-.05-.08-.1.38.04.89-.08 1.32-.11.3-.01.32.04.65.03.67-.06 1.12-.04 1.86.01-.06.07-.42.07-.56.12zm.94-.07c.08-.08.41-.1.85-.09-.15.07-.49.08-.85.09zm1.13-.11c.11.01.19.03.18.07-.32.02-.32-.03-.18-.07zm1.49.06c-.16.01-.4.01-.56.02-.21 0-.16-.07-.56-.03.14-.06.75-.09.94-.06.23-.02.42-.03.65.03-.05.08-.28.04-.47.04zm.75-.02c-.05-.01.07-.03.1-.02.04.01-.07.03-.1.02zm1.67 1.76h-.19v-.05h.19zm.09 0c.02-.02.1-.02.1-.05.12.01.19.03.18.07-.15.02-.16-.01-.28-.02zm5.6 18.78c-.04.25-.05-.41-.05-.61.08.06.02.6.05.61zm-.29-19.49c.02-.02.07-.04.13-.04l.41-.03.03.47c.01.15-.04.37-.09.34 0-.17.0199-.24.0399-.34l.0501-.31-.44-.08c-.04 0-.08-.01-.13-.01zm.71 7.23v-.19c.02 0 .03.01.05.01v.19zm.6199.02c.08-.42.0101-1.18.0901-1.63 0-.29-.0301-.49-.0901-.61.05-.64.0001-1.2.0901-1.73 0-.11-.05-.07-.04-.2 0-.52-.03-1.12.08-1.35-.04-.35-.05-.99 0-1.34l.18-1.1-1.52-.24c-.09-.01-.16-.03-.2-.06-.42.12-1.69.06-2.24.01.15-.09-.25-.05-.17-.12-.22.01-.55.11-.75.04-.32.04-.52.1-1.04.09-.02-.06.4199-.11.1099-.16.63-.03 1.3501-.01 1.9601.01.24 0 .37-.03.38-.09.17.05.17-.01.47 0 .26.09.79.12 1.29.15.06-.01.13-.01.19-.02l1.35-.13.13 1.61c.01.17.03.35.05.49-.02.6-.01 1.38-.09 1.74.05.2.01.56-.01.78 0 .85.02 1.46-.1 2.12.02.83-.07 1.7-.08 2.51-.06-.14.0199-.45-.0401-.77zm.0301 1.27c.01-.05.03.08.02.11-.01.05-.03-.08-.02-.11zm-.6.06c.03.03.02.18.02.3-.03-.02-.02-.18-.02-.3zm.58.82c.03.17.02.62-.06.56.02-.2-.02-.69.06-.56zm-.54.93c-.01.11-.03.18-.07.16.02-.11.04-.18.07-.16zm.09 12.6c.02.04.01.11 0 .09-.02-.03-.01-.1 0-.09zm-1.3701.31c.02.01.0401.02.0301-.14-.06-.24-.11-.02-.15.1 0 .17.01.34.01.5l.19.19c-.01-.25-.0301-.48-.0801-.65z"/><path d="m49.7901 18.32c.04.01-.07.03-.09.02-.04-.01.07-.03.09-.02z"/><path d="m56.6201 18c0 .02-.11.02-.17.02h-.25c-.02-.06.29-.01.42-.02z"/><path d="m63.0101 17.76c-.02.03-.17.02-.17 0 .07-.01.15-.03.17 0z"/><path d="m64.32 19.23c.1-.01.0801.6.0201.68.03.44.0099.5-.0301.85-.06-.19-.03-.4 0-.59.01-.26-.05-.74.01-.94z"/><path d="m64.41 23.14v.34c-.1.05-.08-.36 0-.34z"/><path d="m32.43 17.16c-.02.03-.17.02-.17 0 .04-.03.07.01.17 0z"/><path d="m64.4399 19.07v-.26c.07-.06.13-.16.19-.23.02.43.0101.43-.0499.67-.06-.17-.0901-.08-.1401-.18z"/><path d="m34.8101 17.14-.17-.01v-.04h.17z"/><path d="m34.4701 17.09c0 .02-.1101.02-.1701.02.01-.02.1101-.02.1701-.02z"/><path d="m32.6099 17.05.01-.05c.17-.04.11 0 .34 0l-.01.05c-.23 0-.18.04-.34 0z"/><path d="m64.63 19.69c-.03-.04 0-.07 0-.17.03.02.02.17 0 .17z"/><path d="m55.5001 16.47c-.35-.03-.88-.01-.92-.17.12.03.34.03.42.07.18 0 .03-.1.18-.12.25.04.37.11.32.22z"/><path d="m63.9899 16.49c.04.01-.06.03-.09.02-.04 0 .06-.02.09-.02z"/><path d="m63.7301 16.49c.04.01-.0601.03-.0901.02-.04-.01.0701-.02.0901-.02z"/><path d="m56.6201 16.34c.23.04 1.1.02 1.44.04-.1.13-.6899-.01-1.0199.06-.21-.02-.4001-.04-.4201-.1z"/><path d="m58.6602 16.31c.49-.02.4799.13.9299.05-.17.12-.8099.06-.9299-.05z"/><path d="m56.54 16.32c-.02-.06.1799-.06.3499-.07-.09.03-.1399.07-.3499.07z"/><path d="m61.2901 16.28c.04.01-.06.03-.09.02-.04-.01.07-.02.09-.02z"/><path d="m57.14 16.25c-.01.02-.11.02-.17.02 0-.02.1-.01.17-.02z"/><path d="m54.1699 16.16c.27-.07.71 0 .95-.11.19-.01.46.12.51 0 .2.01.15.08.42.07-.07.12-.78.05-.95.13-.44.01-.61-.06-.93-.09z"/><path d="m62.5701 16.27c.43-.08.54.05 0 0z"/><path d="m65.5901 17.49c.01-.1.03-.17.07-.16.01.18-.03.16-.07.16z"/><path d="m56.8101 16.15c.12-.07.55-.05.85-.06 0 .05.23.03.16.1-.05.03-.33 0-.34.04-.27-.09-.4-.05-.67-.08z"/><path d="m63.7599 16.23c-.23.08-.19-.12 0 0z"/><path d="m59.01 16.22.01-.09.76.01c-.18.04-.48.06-.77.08z"/><path d="m61.9001 16.17c-.34 0-.42-.06-.76-.05.05-.09.36.03.43-.07.32.02.2201.01.5901.03.02.06-.3301.01-.2601.09z"/><path d="m60.9701 16.14c-.16-.01-.1501-.07-.4201-.05.04-.14.4301-.03.4201.05z"/><path d="m60.3799 16.09c.04.01-.06.03-.09.02-.04-.01.07-.03.09-.02z"/><path d="m65.9299 46.22c-.01.04-.0299-.06-.0199-.09.01-.04.0199.06.0199.09z"/><path d="m65.9501 46.22c.05-.01.07.08.07.26.03.27.19.41.11.78-.06.05-.0401-.18-.0701-.26-.06.2-.0399-.13-.1199-.1.01-.35-.03-.4.01-.68z"/><path d="m67.0901 49.05c-.01.04-.03-.06-.02-.09.01-.04.02.07.02.09z"/><path d="m35.14 17.16c.26-.12.73-.08 1.28-.06.52-.02 1.13-.02 1.53-.08.35.03.71.04.93.01.2-.01.09.07.25.07.27.01.51.01.6-.04.22.03.57.05.68-.02.19.04.4.06.76.05.32.04.41.02.67.05.12-.02.22-.03.34-.04.61.04.8 0 1.61.01.17-.02.3-.06.43-.09-.11-.09-.96-.06-1.02.02-.14-.08-.83-.01-.92-.1-.3-.01-.22.08-.52.07-.1-.1-.6-.07-.75-.1-.63.03-.91.02-1.45.08-.21 0-.26-.04-.33-.07-.15 0-.22.02-.26.05-.41-.08-.62-.02-1.19-.01-.19-.02-.46-.02-.5-.08-.25.03-.61.03-.85-.01-.45.05-1.19-.08-1.53.04-.28-.09-.75 0-1.1-.08-.16.01-.22.05-.43.04-.3-.04-.83-.01-1.1-.06-1.18.07-2.59-.08-3.31.02-.23-.07-.27-.19-.75-.19-.02-.12-.29-.18-.48-.26-.05-.13.39-.11.36-.23.95-.12 1.62-.05 2.81-.1.37 0 .53.06.93.05.3-.01.47-.06.69-.09.32 0 .4.06.67.08.18.01.23-.01.34-.02.33.04.69.07 1.19.03.89.06 1.39-.01 2.2.06.23.02.18-.05.34-.04.26-.01.31.03.51.03.24.02.22-.03.43-.02.24.08.78.02 1.11-.01.2.08.61-.01.67.08.14 0 .22-.02.26-.04.22.07.68-.02.85.03.16-.01.22-.05.43-.04.21 0 .26.04.42.05.2-.02.66.05.6-.04.12.06.82.09.93.01 1.32-.02 2.25.03 3.23 0 .08-.04.27-.05.43-.07.33-.01.34.06.59.08.27-.01.66-.13.85-.02.22.01.28-.03.26-.09.5.05 1.05.09 1.6.13.15-.01.35-.01.43-.04.71.07 1.33-.05 1.96-.08.45.02.8.07 1.27.08-.17.18-1.26-.04-1.38.18.29.09.43-.01.85.01.07.14-.45.11-.45.23-.43-.07-.76-.11-1.26-.08l.01-.14c.35-.03.26.05.5.05.24-.05-.28-.09-.59-.08-.07 0-.26.08-.09.07-.01.06-.23-.01-.17-.05-.29 0-.26.08-.42 0-.18.01-.29.04-.35.09-.3-.01-.26-.08-.42-.07-.21.03-.34.08-.44.14-.41.04-.48.05-.85.09v-.05c-.27.09-.69-.04-1.27-.01.04-.05-.05-.06-.08-.09-.31.04-.78.17-1.11.06-.32.01-.46.07-.77.09-.18-.02-.51 0-.42-.1-.26.05-.82.02-.86.13.21.07.47 0 .68.01.15 0 .18.03.34.03.32-.01.65-.08 1.19-.04.27-.01.22.07.42.07.59.02.94-.03 1.28-.08.19-.01.2.04.33.05.1.01.3-.02.43-.02.23 0 .4.01.59.05 1.63 0 2.86-.03 4.16.01.22 0 .41-.01.51-.04.81.08 1.7-.01 2.29.04.24-.01.45-.03.68-.04.4.09 1.34.05 1.69.04.27 0 .35.04.68.03.03.03.15.04.16.07.32-.05.34.04.76.03.09-.1-.19-.1-.5-.1.02-.13.48-.12.86-.14.08 0 .07-.03.09-.05.16.05.67.01.67.1.38-.01.86-.06 1.19-.01.21.01.27-.03.35-.07.17-.02.17.05.33.05.09 0 .16-.04.26-.04.22-.02.46.03.6-.02-.07-.07-.28.01-.42 0-.02-.11-.49-.1-.57-.19.15-.01.16.02.17.05.21.01.21-.05.35-.07.26.06.66.06.84.08-.28.11.22.09.23.19h.1.05l.01.06c.02.2.12.28.02.42.01.2.12.08.09.44.04-.03.04-.24.12-.16.02.26-.02.59.06.77-.02.12-.08.11-.12.16.05.16.01.4 0 .59.1.21.04.46.04.94.15-.14.01-.94.08-1.26.16.19.02.91.04 1.53-.07.06-.02.57-.12.5.02.37.1.55.02.85.01.12.04.21.07.26.11.05.11-.35.21-.32.01-.38-.14-.25-.14-.61.05-.12.07-.32.14-.33 0-.22-.09-.13-.09-.35.04-.22.01-.73.06-.93.08.05.03.56.04.85.04.21.04.51.09.69-.05.39.06.52-.03.85 0 .15.02.22.05.26-.05.34-.07.95-.06 1.44-.05.03-.06-.06-.09-.09.01.29.04.52.09.69-.01.41 0 .76.06.94.01.37-.04.47-.03.85-.03.06-.11.38-.07.42-.01.12-.02-.01-.05 0-.03.22.04.5 0 .51.01.22.07.26.07.52.09.18.05.57.11.69 0 .12 0 .24-.03.25.07.23.04.33.07.6 0 .23 0 .49-.03.59.01.2.06.3.09.43-.01.17-.06.16-.1.24.05.4.15 1.14.03 1.62.01.12.05.16.09.18-.01.53.11.63.06 1.28.02.19.07.32.14.35-.02.38.07.79-.05.84-.01.3.07.32.07.6-.03.03 0 .15.02.17-.03.18-.08.27-.1.5.03.4.17.74.08 1.28.01.33.06.51.11.69-.03.2 0 .16-.03.42.02.32.09.45.06.94.03.13.02.38.09.35 0 .26-.05.32-.07.5-.02.38.03.51.02.85-.04.3-.04.76-.01 1.02-.04.24-.12.35-.17.58-.14.13-.26-.17-.33.14-.02.27.08.12.07.35-.04.38-.1.71-.06 1.01-.07.27-.05.93-.13 1.17v.51c-.02.01-.07.27-.03.25-.02.11-.06.16-.1.25.02.23.11.24.14.44-.06.37.02.76-.12.75 0 .27-.02.62.02.77.07.07.12-.56.12.01.06-.01.07-.24.1-.41.05.29.02.37.06.69-.06.17-.05.21-.07.42.01.12.06.08.09.1-.04.29-.09.79.02.93 0 .21-.04.26-.05.42-.01.46.04.67-.03.93.08.19 0 .92.16.86-.06.14-.06.47-.12.58.02.17.06.23.12.27-.02.55-.02 1.19.03 1.7 0 .28-.08.24-.1.41.05.37.09.79.13 1.2l-.07.25c-.01.22.13-.07.09.26-.07.06-.06-.13-.12-.1-.02.31.05.34.12.35.05.26 0 .87.11.95-.06.26.04.59-.05.76 0 .1.04.08.07.09 0 .15-.07.49 0 .59-.01.12-.07.02-.07.16.01.19.04-.1.07.09-.04.28-.07.69-.03 1.01-.1.17-.01.6-.1.75.05.27.05.72.04 1.19-.06.16-.13.4-.22.23-.01-.14.02-.16.05-.17-.11-.21-.13-.67-.06-1.11-.05-.09-.05-.32-.09-.43 0-.28.04-.42.03-.76-.06-.42-.02-1.06-.11-1.54.07-.17-.04-.47.05-.5-.04-.24-.01-.72-.06-.94 0-.15.03-.18.03-.34.02-.3-.08-.22-.07-.52.12-.03-.01-.32 0-.51l.07.01c-.03-.26 0-.51.03-.76-.06-.44.01-.39-.02-.85.03-.08.05-.22.07-.33.01-.14-.02-.15-.02-.26.04-.17.03-.54.1-.59-.09-.15-.13-.48-.18-.78.02-.42.01-.41-.02-.77.03-.08.05-.22.07-.33.01-.18-.02-.27-.07-.26.02-.18.06-.24.05-.5.03-.17-.04-.12-.05-.17-.02-.18.03-.45-.09-.35.01-.16.09-.06.07-.33-.08-.02.01.27-.12.16.01.24.02.52-.03.76 0 .09.05.06.05.17-.03.61.01.99-.06 1.35.02.08.04.13.07.18.01.23-.03.67.02.77-.11.69.01 2.1-.02 2.97-.02.26.06.17.04.43-.01.19-.05.26-.07.42.01.27.08.59-.01.76.02.11.04.26.07.35-.07.54 0 1.61-.04 2.03.03.31.01.79.01 1.1 0 .17.02.27.07.43-.03.5-.09.93-.01 1.44 0 .2-.05.31-.05.5-.01.29.05.63.04.94-.01.2-.07.28-.05.5-.03.07-.06.11-.12.07 0 .23.04.18 0 .34.05.12.08.32.09.6-.08.14-.08.58-.22.49l-.01 1.1c.13.12.08.84.25.79.01.19.04.44-.01.59-.01.14.02.15.02.26-.06.37.01 1.25-.06 1.61.05.25.04.55.04 1.11-.03.01-.02.15-.03.25-.05.04-.08.17-.12.24-.03.21.07.36 0 .42-.07.24-.06-.29-.12-.35.02-.41.06-.72.08-1.1-.02-.2-.03-.25-.04-.6-.01-.39-.11-.58-.06-1.28-.11-.12-.09.22-.19.15-.01-.4-.08-.62-.14-.86v-.43c-.06-.36-.09-.86-.18-1.12.07-.37-.05-.89.01-1.19.09-.05.04.37.09.43.08-.05.02-.61.01-.85-.05-.02-.08.06-.07.25-.11-.11-.06-.62-.02-.85-.03-.54-.1-1.52-.06-1.79-.01-.09-.05-.06-.05-.17.02-.34-.03-.63.01-.76-.02-.29-.08-.45-.11-.69.13-.24-.07-.78.08-1.01-.07-.19-.01-.78-.09-.94.11-.27-.01-.74.06-1.1-.02-.19-.05-.38-.09-.52.03-.24-.04-.76-.06-1.11-.02-.08-.04-.13-.07-.18-.01-.27.06-.22.07-.42.03-.31-.06-.25-.04-.51.05.17.03-.02.07-.08-.04-.37-.06-.78-.13-1.04.03-.41-.06-.73.01-1.02-.01-.39-.11-.51-.11-.95-.14.17-.05.67-.13 1.01-.01.29.01.48.02.68-.04.2-.12.18-.07.5.04.04.04-.06.05-.16.03.2-.05 1.11.01 1.44 0 .14-.02.14-.03.25.03.19 0 .55.07.6-.05.34-.15.46-.1.92-.06 0-.05.28-.05.5.03.33.06.61.09.94-.05.29-.05.74-.08 1.1.01.34.02.7.06.94-.03.56.06.62.02 1.02.03.1.06.22.09.35-.03.1-.03.3-.03.51-.05.1-.12.12-.12.41.03.26.08-.08.14.01.05.29.01.86.01 1.27.04.39.1 1.06.06 1.45.01.24.05.37.07.6.02.26-.04.24-.03.51.07.5 0 1.49.1 1.88.08-.15.09.11.16.19v.51l-.09-.01c-.05-.03-.03.24-.07.25 0-.2-.06.03-.05.17-.05-.15-.11-.24-.11-.52-.09.06-.08-.22-.14-.27 0-.15-.02-.22-.05-.26.06-.64-.17-1.57-.03-2.21.01-.25-.05-.27-.04-.51.09-.26.01-.61.06-1.01-.03-.33-.07-.64-.06-1.11 0-.15-.02-.22-.05-.26.07-.47-.02-.81.03-1.19 0-.37-.09-.46-.04-.77-.01-.09-.05-.06-.05-.17.02-.6 0-1.11-.06-1.45.03-.38.03-.99-.04-1.28.03-.36.07-.68.06-1.18-.01-.34-.09-.54-.04-.85-.03-.26-.1-.72-.04-1.02-.06-.23-.03-.79-.09-1.03.02-.45.02-.42.03-.85-.04-.33-.03-.84-.09-1.11.05-.19.05-.22 0-.42 0-.14.02-.15.03-.25 0-.21-.04-.27-.04-.43.02-.57.02-.76.03-1.27 0-.15-.02-.22-.04-.26.03-.11.04-.5-.02-.51.05-.19.02-.23.05-.42-.01-.23-.09-.44-.02-.68-.02-.08-.01-.31-.07-.26.02-.12.03-.21.05-.34-.06-.19 0-.78-.09-.86.04-.12.02-.44.1-.41.01-.15-.02-.43.05-.33-.09-.65 0-1.05-.13-1.46.05-.51-.05-.66.03-1.1-.05-.56-.04-.97-.01-1.61-.04-.7-.12-1.18-.08-1.96.02-.23-.04-.18-.04-.34.03-.26.02-.33-.02-.51.01-.38.04-.5-.02-.77.02-.17-.02-.56.03-.59.01-.21-.03-.27-.07-.35.03-.1.03-.3.03-.51.01-.14-.02-.16-.05-.17.03-.12.03-.21 0-.34 0-.25.06-.26.05-.5.01-.45-.03-.38-.06-.77.05-.05.02-.4.07-.42-.01-.23-.1-.22-.09-.52.14-.29-.02-1.05.06-1.61-.02-.19-.04-.34-.12-.35.04-.09-.01-.55.1-.41-.04-.54.01-.94.01-1.53.02-.04.04-.09.07-.08 0-.45.02-.96-.04-1.19-.01-.28.02-.39.03-.59-.01-.5-.03-.51.03-.93.02-.83.04-1.39.02-2.21-.02-.2-.05-.41-.07-.6.04-.3.08-.91.04-1.44.02-.17-.02-.56.03-.59-.08-.58.06-1.34-.03-1.87.04-.29.04-.96.03-1.19.01-.26-.06-.23-.07-.43.04-.69.07-1.19.04-1.86.04-.41.06-.9-.04-1.19v-.07l1.67 1.67c-.41-.02-.7-.13-1.03-.03-.51-.1-1.16-.04-1.7-.01-.13-.05-.34-.08-.41-.14-.28.02-.38.1-.52.16-.28.02-.37-.02-.6.04-.3-.04-.83-.01-1.1-.06-.27.04-.68.04-.94.09-.19-.06-.54.03-.5-.05-.23-.02-.17.05-.26.07-.43-.04-.67.06-.85.02-.17.01-.17.06-.35.07-.33-.02-.31-.05-.68-.03.08-.1-.37-.05-.5-.1-.19.02-.46.01-.52.07-.3-.05-.89-.01-1.18-.06-.57.02-.74.02-1.1-.03-.28 0-.45.03-.6.07-.2-.01-.35-.03-.5-.05-.47.07-.91 0-1.45.06-.41-.06-.54-.07-.83-.17h-.68c-.02.11.46.09.49.19-.1.09-.52-.02-.76-.03-.42.01-1.07.05-1.44-.01-.35-.02-.71.03-.85-.01-.25 0-.29.06-.51.07-.75-.11-1.86.01-2.71-.12-.25-.01-.27.05-.51.04-.03-.05-.47 0-.42-.07-.47.05-1.19 0-1.52-.06-.33.03-.41-.02-.68.02-.19-.02-.46-.02-.5-.07-.16.01-.22.05-.43.04-.26-.04-.49-.09-.93-.08-.09-.05-.32-.05-.42-.1-.1.01-.18.03-.18.07-.2 0-.25-.04-.51-.03-.29.04-.47-.03-.6.04-.22-.01-.39-.04-.5-.08-.5.03-.47-.08-.84-.08-.02-.06.33-.02.26-.09-.44-.04-.91.03-1.27-.06-.59.04-1.08-.03-1.53.03-.03-.03-.1-.05-.25-.05-.53.08-1.55.01-1.88.15-.3-.01-.2-.07-.51-.03.02-.09-.34-.08-.5-.12-.06-.08-.16-.14-.32-.19.23-.03.51-.17.77-.11.15-.05.51-.04.69-.09.48.04.88.04 1.36-.01.72.02 1.26.03 1.62-.08.15 0 .49.07.59 0 .16.01.15.07.42.05.21.01.21-.05.35-.07.19.02.43.02.59.05.34-.05-.09-.07.1-.12-.14-.05-.59-.01-.67-.08-.01-.02.04-.02.09-.02.12-.01.1.01.11.03zm5.18.82c.59.11 1.12.09 1.86.09.19.02.51.05.68.01.32.08.99.06 1.52.08.17-.03.41-.04.6-.07.45.03.94.06 1.17.15.27.02.27-.04.42 0 .02-.06.13-.09.35-.09.56.02 1.21.05 1.78.01-.28-.05.12-.11.1-.16-.47-.02-.65.05-.94.09-.18-.07-.48.03-.68.04.07-.07-.29-.03-.16-.12-.5-.06-1.66-.11-2.04.01-.19-.11-.97-.11-1.35-.06-.2-.11-.73-.08-1.18-.08-.11 0-.08.04-.17.05-.47-.09-.95-.04-1.52-.08-.1.05-.27.08-.52.09-.4-.08-1.05 0-1.43-.08-.27.06-.55-.02-.69.07.71-.01 1.48.08 2.2.05zm11.87.15c.17.03.73 0 .86-.06-.36.04-.32-.02-.51-.03-.15.01-.37.01-.51.02-.17 0-.38-.04-.43.04.21.05.39.05.59.03zm1.03-.09c-.01.04.06.06.16.07.12-.03.13-.09-.16-.07zm-1.96.05c.02.01.13-.01.09-.02-.03 0-.13.01-.09.02zm5.44-.07c.08-.07-.06-.09-.16-.12-.55.01-.69.1-1.28.04-.13.05-.46.04-.52.11.67.05 1.09.08 1.7.01.3-.02.32.04.59.03.39-.03.85-.15 1.2-.11.02-.04-.09-.05-.08-.1-.28.04-.65.05-1.03.06-.04.04.12.06-.01.07-.05-.06-.2.04-.41.01zm-2.29-.02c-.33.01-.64.02-.77.09.39.01.7 0 .77-.09zm-16.8-.09c.02.01.13-.01.09-.02-.02 0-.13.01-.09.02zm-.68-.02c.09-.08-.33-.04-.5-.05-.03.07.36.08.5.05zm22.41.06c.34-.06.58-.04.94-.06-.02.04.55.05.43-.02-.15-.09-1.02.04-.93-.05-.26-.02-.25.04-.51.02-.07.07-.06.04-.01.12-.16.02-.28-.07-.34 0 .2.01.15.08.42.07zm4.99 3.57c-.03-.25-.08-.54.01-.68.05.01.03.23.09.18.07-.45-.07-1.08.04-1.61.07.15.07.55.09.86.06.02.07-.12.1-.25-.04.01-.06-.09-.05-.26.07.1.06-.13.1-.16-.02-.47.05-1.06-.01-1.7-.01.13-.04.01-.05-.09.05-.05.06-.22.07-.42-.03-.02-.07.01-.07-.09.02-.1.03-.22.03-.42-.02-.07-.03-.16-.04-.26l.62.62c-.2.01-.46 0-.84 0-.16.03-.37.05-.6.07-.01-.03.02-.07-.08-.07-.02.02-.01.05-.09.05-.11-.05-.46.02-.68.02-.71 0-.97-.01-1.45.04-.02-.05-.37-.01-.42-.05-.32.06-.55.01-.85.04-.42-.02-.58.04-.76-.03-.12.04-.23.09-.27.16-.32.04-.68.06-.78.16.27.02.36.07.68.03 0 .02-.07.03-.09.05.52-.01.78-.01 1.19-.01.06-.13.51-.16.94-.11.16 0 .07-.08.26-.07.5.14 1.2-.08 1.69.04 0-.04.07-.06.18-.07.26.06.75-.07 1.1.01.15-.09.56-.03.87-.02l-.84-.84c0 .15 0 .27.04.33-.07.1-.18.09-.24.23 0-.23-.01-.37-.01-.56l1.05 1.05c-.11 0-.27 0-.55 0-.16-.01-.15-.07-.42-.05-.15.03-.02.14-.27.14-.09-.09-.25-.1-.24-.17-.54 0-.9.04-1.2.11-.02-.03-.18-.03-.25-.05.03.09-.27.08-.35.14.1.05.21.1.41.12-.07-.09.37-.02.43-.07.12.05.55.01.67.05.01-.03.03-.06.18-.05.58.01.99.05 1.58.02l-1.25-1.25c.01.11.02.23.03.37-.05.57-.07.88-.01 1.36h-.05c.02.25.02.26 0 .51.07.03.07.31.09.52.02.16-.05.19-.05.25-.01.2.05.43-.01.68.03.18.06.34.09.52-.09.5 0 .89-.08 1.26.06.33.06.98.04 1.36.08.29.08.52.06 1.03.06.49.08.98.03 1.62-.01.42.02.42-.01.76.06.36-.01 1.13.11 1.28.02-.27.09-.29.05-.59l.07.01v-.34c.11-.36.09-.8.15-1.26-.03-.02-.07.01-.07-.09.01-.47.07-.99.03-1.35.02-.09.09-.02.07-.25-.03-.24-.02-.64-.06-.86.04-.12.06-.28.08-.5 0-.16-.08-.07-.07-.26.03-.01.07.02.07-.08-.07.01-.08-.14-.05-.26.02.14.08.27.09.01-.06-.02-.11-.06-.14-.18.04-.13-.01-.46.08-.59-.06-.06-.1-.06-.16-.27-.02.29.01.38-.07.5.03.03.11.27.04.34-.09-.06-.01-.48-.02-.61zm-2.35-3.69h-.25c-.02.04.08.06.25.05zm-4.48-.14c.48.02.71.03.86-.09-.43.02-.76.08-1.19.04l-.01.09c.22.03.17-.04.34-.04zm-.77.02c.02.01.13-.01.09-.02-.02-.01-.13.01-.09.02zm7.43 13.39-.05-.01c-.02.51-.02.61.02 1.02.09-.08.08.19.12.27.05-.16.02-.48.01-.68.02-.46-.02-.85.01-1.1-.05-.07.03-.59-.07-.52 0 .43-.04.66-.04 1.02zm.03-1.36c.01-.28.07-.37.05-.76-.06-.01-.05-.27-.12-.27-.03.5 0 .76.07 1.03zm-.14 15.35c.02.27-.04.26-.05.42.08.46.02.86.11 1.28-.07.22-.05.76-.1 1.01.03.08.05.22.04.43-.03.51-.03 1.11-.08 1.52.03.02.04.1.05.18-.03.48.08.83.01 1.19.06.1.04.46.04.77.09.03.01-.07.03-.25.03-.05.05-.18.05-.33 0-.41.02-.89-.01-1.19.03-.19.04-.42.08-.59-.05-.06-.06-.23-.07-.43.01-.16.09-.06.07-.33-.09-.5.02-1.18-.06-1.7.08-.28.05-.95.03-1.19.01-.17.07-.16.07-.33-.05-.39.02-.73.01-1.1-.06-.08.03-.66-.07-.6.05.5-.09.61-.06 1.27-.06-.02-.05-.17-.09-.03zm.09-12.13c.08.18-.02.94.11.94-.01-.39.05-.52.03-.93-.03-.23-.09-.22-.04-.52-.07.02-.1.19-.1.51zm-.07 20.54c.02-.19.08-.22.1-.41-.08 0-.03-.44-.11-.44-.01.36-.06.62.01.85zm.11-19.18c-.01.68.13.93.06 1.62.04.13 0 .48.09.43.03-.05.01-.33.05-.33-.02-.24.02-.53.01-.76 0-.04-.04-.18-.04-.26-.02-.31-.01-.75-.11-.86-.02.1-.02.2-.06.16zm-28.37-17.06c-.01.04.06.06.16.07.01-.04-.06-.06-.16-.07zm28.29 35.31c.07-.43-.11-.22 0 0zm.17-14.76c.01-.09.03-.13.05-.16-.02-.22-.03-.46-.12-.44-.01.32.01.53.07.6zm-27.02-20.51c.1 0 .24.01.26-.02-.1 0-.24-.01-.26.02zm26.86 37.81c-.01 0-.03.07 0 .09.01 0 .02-.07 0-.09zm.19-24.51c-.02 0-.03.15 0 .17.03-.01.02-.09 0-.17zm0 9.85c-.08-.04-.09.43-.05.59l.07.01c.06-.44.07-1.18-.04-1.45-.01.32-.01.62.02.85zm-.02-3.99c-.02 0-.03.14 0 .17 0-.1.03-.13 0-.17zm-25.41-19.24h-.17v.05h.17zm25.38 26.11c-.01 0-.03.07 0 .08.01.01.03-.06 0-.08zm-.02-.51c0 .07 0 .17.02.17 0-.07 0-.17-.02-.17zm.07-.59c.01-.21-.01-.35-.04-.43-.04.13 0 .36.04.43zm0 .43c.13-.32-.09-.45 0 0zm.08-.93c.04-.24-.1-.26-.07-.01zm-.13 21.8c-.01 0-.03.07 0 .08.02.01.03-.06 0-.08zm-19.33-46.5c-.16-.01-.21-.05-.42-.05-.04.07.35.13.42.05zm19.52 34.72c-.03-.01-.06.03-.02.08.02.01.06-.03.02-.08zm.23-5.15c-.08.14-.04.48-.03.76.09-.06.09.19.12.35-.01.16-.05.21-.05.42.06.38-.08.7.02.94-.06-.14-.11.21-.05.25.02-.4.08.28.14.27.01.32.03.4-.03.59.04-.01.05.09.04.26-.04.35-.04.43-.1.75 0-.15-.02-.2-.07-.18-.02.3-.01.2-.03.51.02.02.05.01.05.09-.04.51.04.78.08 1.2-.05.05-.09.12-.07.42.09.21.1.7.18.95-.08.2-.08 1.06.01 1.19-.06.39-.02 1.09.11 1.11.07-.38-.02-.5.05-.93-.01-.41-.06-.85-.01-1.27 0-.12-.04-.15-.05-.26.03-.03.05-.1.05-.25-.04-.3.02-.67-.04-1.02h.05c-.02-.4.07-.66.01-.93.04-.02.06-.14.05-.34-.1-.62-.09-1.48-.15-2.05.09-.28-.03-.65.03-1.02-.01-.17-.06-.17-.07-.35.07-.23-.02-.59-.02-.85.03-.08.01-.31.07-.25 0-.21-.04-.27-.04-.43.14-.04-.03-.32.07-.5-.1-.12-.08-1.03-.04-1.36-.07-.21-.12-.48-.13-.86.06 0 .05.15.09.01-.03-.38-.02-.82.03-1.1-.08-.18-.18-.32-.23-.62-.05.41 0 .56.02.94-.01.22-.07.25-.08.5.01.12.03.17.02.34.04 0 .06.07.07.18.01.39.1.49.11.86-.04.23.03.4-.05.51-.06-.12-.07-.19-.14-.1.02.42-.05.91.01 1.27zm-2.33-29.84c.03.1-.18-.01-.43.02 0 .07.53.12.67.08-.16-.01 0-.1-.24-.1zm-.93.07c.02-.06-.12-.07-.25-.1.03.07-.32.02-.35.07.31.01.31.07.6.03zm.42-.05h-.25c-.02.04.08.06.25.05zm3.12 18.13c-.02.23.05.18.04.34-.1.53-.08 1.29-.04 1.95 0 .25-.09.18-.08.5.03.05.06.14.07.26.02.26-.03.31-.03.51.05.08.08.22.07.52l.12.01c-.03-.87.05-1.84-.03-2.63.11-.35-.02-.49.03-.93-.06-.27-.02-.37-.07-.69.05-.21.01-.65-.02-.85-.06.11.01.81-.06 1.01zm-.99-18.18c-.19-.06-.3.02-.43.04.16-.01.36-.01.43-.04zm.97 44.92c.01.26-.03.66.04.68.07-.27-.05-.31 0-.59 0-.11-.03-.12-.02-.26-.02-.28.06-.92-.04-.94-.09.22-.04.93.02 1.11zm-.01-4.42c.12-.19-.08-.22 0 0zm.04.43c.01.07 0 .17.02.17 0-.06 0-.16-.02-.17zm.04 1.36c-.01.12-.04.16-.03.34.07.14.07-.36.03-.34zm.1 2.48c.05-.32-.01-.56.03-.85-.04.01-.05-.1-.09-.1.01.43-.03.69.06.95zm-15.1-45.19h-.17v.05h.17zm-.26 0c-.11 0-.11-.03-.25-.03-.01.04.06.06.16.07.01-.02.08-.02.09-.04zm15.39 50.45c-.01-.18-.01-.77-.07-.52.04-.01-.03.52.07.52zm.04-8.31c.03.13.07.22.07.43.1-.01.11-.34.12-.67-.08.01-.04-.4-.14-.35.02.34-.07.25-.05.59zm.01-1.78c-.01.02.01.13.02.09.01-.03 0-.14-.02-.09zm.02.51c-.01.02.01.13.02.09.01-.03-.01-.13-.02-.09zm.03-.85c0 .1-.04.13 0 .17.03 0 .03-.14 0-.17zm.11 4.26c.03-.35-.05-.34-.04-.6 0-.16.03-.18.03-.34-.05-.15-.03-.55-.11-.61.05.52.05 1.03-.01 1.44.04.16.06.21.13.11zm-.01.76c.01-.21-.01-.35-.04-.43-.01.16-.07.15-.05.42zm.55-12.25c.06.06.09-.4.05-.42-.01.16-.07.15-.05.42zm.03-.85c-.05.06-.13.04-.14.24.01.15.02.42.14.27zm.08 5.61c-.01.02.01.13.02.09.01-.02-.01-.13-.02-.09z"/><path d="m32.18 17.04c-.13.02-.06-.02 0-.02.12-.01.19.02.08.02-.02 0-.05 0-.08 0z"/><path d="m64.8799 53.66c-.06.24-.0401-.11-.0201-.26.08.03-.0599.28.0201.26z"/><path d="m62.73 16.34c-.13.14-.51.06-1.03.09.06-.06-.17-.05-.25-.07.29 0 .87-.11 1.28-.02z"/><path d="m64.8599 16.22c-.19.05.08-.06-.08-.07-.35.02-.49-.02-.77.04-.17-.01-.16-.06-.24-.1-.42.07-.69-.07-1.02-.01-.23-.16.56-.02.6-.07.1 0 .07.04.08.07.22-.06.58-.01 1.02-.04.11.1.55.08.81.04l.43-.08.11.62.01.04c0 .14-.02.14-.03.25.07.25-.01.5.07.69-.01.07-.02.15-.05.16.01.11.03.18.07.18-.05.47.06.6-.03.93-.09.06-.03-.4-.04-.6-.05-.17-.14-.19-.11-.61.14.1.05-.64.01-.68.03-.07.05-.22.05-.37v-.48h-.47c-.19.02-.36.04-.42.09z"/></g></svg>