<svg xmlns="http://www.w3.org/2000/svg" fill="none" viewBox="0 0 88 88"><g fill="#1e1e1e"><path d="m50.1922 62.7698c.011-.0111.0332.0111.0332.0221-.0111.0111-.0443-.0111-.0332-.0221z"/><path d="m49.5017 61.1658c.0214 0 .0214.0213.0321.0427 0 .0213.0106.0427.0106.064-.0533 0-.032-.0853-.0427-.1067z"/><path d="m48.9181 59.6469c.0331 0 .0331.0442.011.0442-.0221-.0221-.0332-.0332-.011-.0442z"/><path d="m48.4609 58.4891c-.0956.0213-.1169-.1274-.0531-.1593-.0638-.0956-.0319-.1169-.0107-.2125.0638.0319.0532.085.0213.1487.0106.0532.0956.1594.0425.2231z"/><path d="m48.1635 57.5442c0-.032-.0107-.0533-.0107-.0853.0961-.0321.0961.0747.0107.0853z"/><path d="m49.8948 67.2946c.0332 0 .0331.0442.011.0442-.0332 0 0-.0221-.011-.0442z"/><path d="m48.344 58.5528c0 .0213.0106.0425.0106.0638-.0637.0318-.1274.0637-.1912.0956-.0424-.1062-.0319-.1063.0212-.1806.0744.0425.1063.0106.1594.0212z"/><path d="m49.7462 66.721c0 .0107 0 .032.0107.0427-.0213 0-.0321.0107-.0534.0107 0-.0107 0-.0321-.0106-.0428.0213-.0106.032-.0106.0533-.0106z"/><path d="m49.7141 66.8166c.0221 0 .0221.0221.0332.0331-.0332 0-.0332-.0221-.0332-.0331z"/><path d="m49.7676 67.2737c-.0214 0-.032.0107-.0534.0107-.0427-.032 0-.032-.0107-.0854.0107 0 .0321-.0106.0535-.0106 0 .064.0426.0427.0106.0853z"/><path d="m48.1216 58.4466c.0442 0 0 .0221.0111.0442-.0332 0-.0332-.0442-.0111-.0442z"/><path d="m47.9718 61.7712c-.0106.0956.0318.2231-.1275.2656.0213-.0319.0107-.0956.0532-.1169-.0106-.0424-.1062.0107-.1275-.0212.0213-.0637.085-.1168.2018-.1275z"/><path d="m47.5474 59.6789c.011-.0111.0331.011.0331.0221-.0111.011-.0331-.0111-.0331-.0221z"/><path d="m47.5686 59.7426c.0111-.0111.0331.011.0331.0221-.0221.011-.0441-.0111-.0331-.0221z"/><path d="m47.781 61.5269c.0319-.0637-.0425-.2761-.0425-.3611.1381 0 .0213.17.1168.2337 0 .0531-.0106.1062-.0743.1274z"/><path d="m47.6428 61.0383c-.0424-.1168.1063-.1487.0107-.2443.1274.0107.0956.1806-.0107.2443z"/><path d="m47.76 61.5592c-.0641.0213-.0748-.032-.0854-.0747.032.0106.0747.0213.0854.0747z"/><path d="m47.4727 60.3905c.011-.011.0331.0111.0331.0221-.011.0111-.0331-.011-.0331-.0221z"/><path d="m47.6533 61.4207c.0221 0 .0222.0221.0332.0442-.0221 0-.0221-.0331-.0332-.0442z"/><path d="m47.7172 62.1749c-.085-.0531-.0319-.17-.1593-.2124-.0213-.0425.1062-.1381-.0213-.1275 0-.0531.0744-.0531.0531-.1169.1275-.0106.085.1806.1912.2019.0106.1062-.0531.1699-.0637.2549z"/><path d="m47.3986 60.0828c-.1174-.0854.0213-.1494 0 0z"/><path d="m47.2396 59.2008c-.0106.032-.0213.0533-.064.0533-.0213-.0426.0213-.0427.064-.0533z"/><path d="m47.5685 61.5269c-.0743-.0106-.085-.1274-.1168-.1912.0531-.0106.0212-.0637.0956-.0637.0318.0106.0212.085.0637.0744-.0743.0849-.0212.1062-.0425.1805z"/><path d="m47.2925 59.7956c.0956.0425-.1169.0743 0 0z"/><path d="m47.5268 60.9648c-.0321.0107-.064.0107-.0961.0214-.0106-.0641-.0213-.1281-.032-.1922.0534.0321.096.1068.1281.1708z"/><path d="m47.3242 60.2629c.0213.085-.0425.1169-.0106.2019-.0956.0106.0106-.0956-.0956-.0956 0-.085 0-.0531 0-.1487.0637-.0213.0319.0849.1062.0424z"/><path d="m47.3459 60.5072c0 .0427-.064.0534-.032.1174-.1494.0107-.0533-.1067.032-.1174z"/><path d="m47.3137 60.6561c.0111-.0111.0332.011.0332.0221-.011.011-.0332-.0111-.0332-.0221z"/><path d="m45.3804 52.2118c.011-.0111.0331.011.0331.0221-.0111 0-.0331-.0221-.0331-.0221z"/><path d="m45.3591 52.2116c-.0531.0107-.085 0-.085-.0531-.0425-.0637-.223-.0531-.1593-.1699.0637-.0212.0531.0318.0849.0531.0531-.0637.0531.0212.1275 0 .0106.0956.0637.0956.0319.1699z"/><path d="m44.0315 51.7656c.0111-.011.0331.0111.0331.0222-.011.011-.0441-.0111-.0331-.0222z"/><path d="m49.7575 66.6254c-.1381-.0425-.1275-.1593-.1275-.2974-.0531-.1275-.085-.2762-.1699-.3612.0106-.0956 0-.1805-.0425-.2336-.0106-.0425.0637-.0319.0637-.0744-.0106-.0637-.0212-.1275-.0743-.1381.0106-.0637.0212-.1487-.0531-.1593.0318-.0531.0424-.1168.0212-.2018.0318-.085 0-.1062.0212-.1806-.0212-.0319-.0424-.0425-.0637-.0744.0106-.1593-.0425-.1911-.0744-.4036-.0318-.0318-.0743-.0637-.1168-.0849-.0849.0424-.0106.2549.0744.2443-.0744.0531.0319.2018-.0531.2549 0 .0743.0955.0318.0955.1168-.0955.0425-.0424.1593-.0637.2125.0638.1487.0744.223.1594.3398.0106.0531-.0213.0744-.0638.0956.0107.0319.0319.0532.0638.0532-.0638.1168.0106.1593.0531.2974-.0107.0531.0106.1168-.0531.138.0425.0531.0637.1381.0424.2125.085.0956-.0212.308.1169.3717-.085.085.0425.1806-.0212.2868.0212.0425.0637.0425.0637.0956-.0213.085.0319.2018 0 .2868.1381.2762.0531.6586.1912.8073-.0638.0743-.1806.1062-.1594.223-.1274.0319-.1805.1169-.2443.1806-.1274.0425-.138-.0744-.2655-.0425-.17-.2124-.1274-.3824-.2443-.6692-.0212-.0956.0318-.1487.0106-.2443-.0213-.0743-.085-.1062-.1275-.1487-.0212-.0743.0426-.1168.0426-.1805 0-.0425-.0213-.0531-.0426-.0744.0213-.085.0426-.1806-.0318-.2974.0212-.2337-.085-.3399-.0531-.5523.0106-.0638-.0531-.0319-.0637-.0744-.0319-.0637.0106-.085 0-.1274.0106-.0638-.0426-.0532-.0426-.0956.0638-.0744-.0212-.1912-.0743-.2656.0743-.0637-.0425-.1487.0425-.1806 0-.0318-.0318-.0531-.0637-.0531.0637-.0743-.0638-.1593-.0106-.2124-.0213-.0425-.0638-.0425-.0638-.0956-.0106-.0531.0212-.0743.0319-.1168-.0319-.0425.0106-.17-.0744-.1381.0531-.0425.0425-.2231-.0425-.2337-.0956-.3186-.0849-.5629-.1699-.7966-.0425-.0106-.0637-.0531-.0956-.0956-.0319-.0744.0425-.0956.0425-.1594-.0319-.0637-.1594-.138-.0638-.2018 0-.0531-.0424-.0637-.1062-.0425.0319-.138.0425-.2761.0531-.4248-.0212-.0319-.0318-.085-.0637-.0956.0425-.1912-.1274-.3187-.1805-.4674 0-.1168.0318-.2124.0212-.3293.2018 0 .0319.3187.2549.2975.085-.0956-.0319-.1063-.0425-.2125.1487-.0531.1381.085.2655.0637-.0531.1169-.0743.2125-.0212.3293-.0531.0107-.0956.0213-.1487.0319-.0531-.0744.0425-.0744.0319-.1381-.0638-.0531-.085.085-.0531.1593.0106.0213.0956.0532.0743.0107.0637-.0107 0 .0637-.0424.0531.0212.0743.0955.0425.0212.1062.0212.0425.0637.0637.1168.0637 0 .0744-.0637.085-.0531.1169.0425.0424.0956.0637.17.0743.0743.0956.0849.1062.1381.1912-.0213 0-.0319.0106-.0531.0106.1062.0425-.0107.1806.0531.3187-.0532 0-.0638.0318-.0957.0425.0638.0637.2231.1593.1169.2549.0318.0743.1062.0956.1275.1699-.0106.0531.0212.1275-.0744.1275.0637.0531.0637.2018.1806.1806.0637-.0638-.0213-.1169-.0319-.17-.0107-.0425.0212-.0531.0106-.085-.0212-.0743-.1168-.1487-.1062-.2868-.0212-.0637.0531-.0637.0531-.1168-.0106-.1487-.085-.223-.1593-.2974-.0213-.0425.0318-.0531.0318-.0956 0-.0212-.0318-.0743-.0424-.0956-.0106-.0531-.0107-.0956.0212-.1593-.085-.4036-.1805-.701-.2124-1.0197-.0106-.0531-.0319-.0956-.0744-.1168.0319-.2125-.0956-.4143-.0743-.5736-.0213-.0531-.0531-.1062-.0744-.1593.0744-.1169-.0212-.3399-.0531-.4249-.0212-.0637.0319-.0956 0-.17.0319-.0106.0319-.0424.0638-.0531-.0638-.0637.0318-.0956-.0107-.1912-.1062 0-.0956.0744-.0743.1487-.1275.0213-.1487-.0955-.1806-.1805 0-.0213-.0318-.0107-.0531-.0107.0425-.0531-.0319-.1699.0637-.1911-.0318-.0956-.1062-.2019-.0743-.2868-.0106-.0531-.0531-.0638-.085-.0744-.0319-.0319.0424-.0531.0318-.0956 0-.0212-.0425-.0318-.0637-.0531-.0319-.0531.0106-.1168-.0531-.1381-.0744.0319.0319.0638.0213.1062-.1169.0319-.085.1381-.17.1806-.0106-.0319.0106-.0425.0425-.0531-.0106-.0531-.0637-.0425-.085-.0743.0425-.0744.0213-.17.0319-.2231.1275.0425.085-.0744.1912-.0956 0-.0744-.1594-.0531-.0425-.1168-.0213-.0425-.1275.0106-.1169-.085-.0424.0212-.0318.0637-.1168.0637-.0425-.0637-.0106-.1487-.1062-.1805.0106-.0319.0744-.0425.1169-.0638-.0532-.0318-.0319-.0956-.0213-.1487-.1169-.0319-.0637-.1062-.0956-.223-.1487.0637.0425.2336-.0212.3292-.17-.0106-.0744-.223-.1169-.3717.0638-.0319-.0106-.1487.1062-.1487-.0318-.085-.1381-.1169-.0637-.2019-.0212-.0318-.0425-.0424-.085-.053-.1168.0106-.0956.1062-.2018.1274.0106.0956.1594.0319.17.1168-.0425.0425-.0531.0956-.1381.1169.0106.0531.1062.0106.1168.0637-.0319.0637.0319.1806-.0106.2443-.085.0106-.0638-.1275-.085-.2018-.0425-.0425-.0744-.1168-.1275-.1487.0319-.1062-.0955-.1168-.0105-.2124 0-.0319-.0319-.0532-.0638-.0532.0425-.0955.0213-.2442-.0106-.3717.0531-.0212.0637 0 .1062 0-.0212-.0744-.0637-.1168-.1275-.1487-.0106-.1062-.0424-.1912-.1168-.2124-.0318-.085.0213-.1275-.0106-.2125.0319-.0212.0956-.1168.0531-.1168 0-.0319.0212 0 .0531-.0106.0212-.0638-.0637-.1169-.0212-.1275-.0213-.0531-.085-.0531-.0956-.1168-.1063-.0213-.0744-.1275-.1488-.1487-.0106-.0319-.0106-.0638.0107-.0638-.085-.0425-.0637-.0743-.0956-.1381-.0106-.0531-.0319-.1168 0-.1487-.0212-.0424-.0744-.0637-.1169-.0849 0-.0425.0531-.0531.085-.085-.0743-.085-.2124-.2443-.1168-.393-.0213-.0213-.0638-.0319-.1063-.0213-.0212-.138-.138-.1274-.1274-.2974-.0319-.0425-.085-.0637-.1593-.0531 0-.0956-.1168-.1805.0106-.223-.0106-.0744-.085-.0638-.0956-.1381.0319-.0106 0-.0425-.0318-.0425.0212-.0531.0743-.085.0743-.1487-.0532-.0956-.2124-.1487-.1593-.2974-.0213-.0744-.085-.1169-.1487-.1487.0212-.0531-.0107-.0425.0106-.1062-.0425-.0744-.1168-.0956-.1168-.2125-.0319-.0212-.0426-.085-.1169-.0637-.0107-.0637.0319-.0956.0531-.1381 0-.0956-.0531-.1168-.0637-.2018.0319-.085.0106-.2018-.0425-.2549.0318-.0638.1062-.1169.1487-.1806.1381-.0637.2762-.0106.3399-.1062.0106-.0744-.085-.0106-.085-.0744.0212-.1062.0744-.2018 0-.2655.0637-.085 0-.2337.0744-.3187-.0107-.0425-.0107-.0849-.0213-.1274.0212-.0106.0637-.085.0106-.0637.0213-.0319.0638-.0532.085-.085-.0318-.0531-.1275-.0319-.17-.0744.0425-.1062-.053-.1806.085-.2124-.0212-.0637-.0106-.1593-.0531-.1806-.0743 0-.0956.1593-.1274.0213-.0637.0212-.0638.0743-.085.1274-.0744-.0637-.0425-.0849-.1062-.1593.0531-.0531.0425-.0637.0531-.1168-.0106-.0319-.0637-.0107-.1062 0 .0212-.0744.0531-.2125-.0637-.2231-.0106-.0531.0318-.0744.0318-.1168-.0106-.1169-.0744-.1594-.0213-.2337-.0956-.0319-.053-.2231-.2123-.1806.0531-.0425.0424-.1275.0955-.1699-.0212-.0425-.0743-.0425-.1381-.0425-.0106-.1381-.0425-.2974-.1274-.4143-.0213-.0637.0637-.0743.085-.1274-.0744-.085-.1381-.1806-.2018-.2656.0212-.0212.0424-.0531.0637-.0743 0-.0531-.1381.0425-.1062-.0425.0637-.0319.0743.0212.1274 0 0-.0744-.0637-.0744-.138-.0638-.0744-.0531-.0532-.2124-.1594-.2124.0531-.0743-.0637-.1381.0106-.2018-.0106-.0212-.0531-.0106-.0743-.0106-.0106-.0425.0424-.1381-.0213-.1487 0-.0319.0744-.0213.0637-.0531-.0212-.0425-.0318.0318-.0743-.0107.0213-.0743.0425-.1805-.0212-.2549.0956-.0637-.0213-.1487.0637-.2124-.0637-.0531-.085-.17-.1062-.2868.0531-.0531.1168-.1275.2124-.1062.0106.0319-.0106.0425-.0425.0531.1275.0318.17.1381.1169.2549.0531.0106.0743.0637.1168.085.0106.0743-.0213.1168.0106.1912.085.0956.0744.2549.1912.3505-.0637.0531.0638.1062-.0318.1381.0531.0531.0531.1699.1168.2124.0106.0319-.0213.0531-.0106.085 0 .0743.0956.0319.0956.1168-.1275.0319.0318.0744.0212.1275-.0213 0-.0531.0106-.0743.0106.0425.0531.0318.1275.0106.1912.0849.0956.0106.0956.0637.2018-.0319.0319-.0425.0637-.0637.0956 0 .0319.0319.0319.0319.0531-.0319.0531-.0001.1381-.0744.17.1062.0106.1594.0849.2337.1487 0 .1062.0106.1062.0531.1805-.0319.0319-.0425.0638-.0637.0956 0 .0425.0318.0638.0849.0531-.0106.0425-.0531.0744-.0318.1381-.0213.0531.0424.0213.0531.0319.0318.0425-.0107.1168.1168.0637 0 .0425-.0956.0319-.0637.0956.0849-.0106-.0319-.0637.1168-.0637-.0212-.0531-.0531-.1275-.0106-.1912-.0106-.0212-.0531 0-.0531-.0319 0-.1593-.0531-.2443-.0106-.3505-.0213-.0106-.0531-.0212-.085-.0318-.0212-.0531 0-.17-.0637-.1806.0743-.1912-.1169-.5099-.1275-.7329.0106-.0637-.0743-.0319-.0637-.0956 0-.0531.0425-.0744.0531-.1169-.0319-.0637-.1169-.1274-.0319-.1911-.0319-.0213-.0531-.0532-.0849-.0744.0424-.1487-.085-.393-.0638-.5098-.0531-.0744-.0531-.1912-.0743-.2656-.0107-.0425-.0319-.0637-.0957-.0956.0107-.1274.0425-.2443-.0637-.3611-.0106-.0531.0319-.085.0319-.1381-.0106-.0744-.085-.1487-.085-.2231 0-.0531.0638-.0849.0319-.138.0213-.0213.0637-.0425.1168-.0425-.0106-.0531-.0531-.0319-.0106-.085-.0637-.0213-.1062-.0637-.1274-.1275.0743-.0531.0531-.1593.2018-.1699-.0107-.0956-.0319-.1806-.0426-.2762-.138 0-.1274-.1912-.308-.1381-.0212-.0425-.0637-.0956-.0212-.1487 0-.0318-.0319-.0318-.0319-.0637.0425-.1062-.0743-.308-.0212-.4036-.0638-.0531-.0637-.1275-.0956-.2656.0319-.0106.0106-.0425.0106-.0637.0532-.0212.0744-.0637.1169-.085.0212-.0531-.085-.0743-.0213-.1062.0637-.0743.0744.0637.1381.0637 0 .1063-.0213.1912-.0213.2868.0319.0425.0425.0531.0744.1381.0319.0956.1381.1168.1274.2974.1169 0 .085-.0743.1912-.0743.0319.0956.1063.138.1806.1805.0107.0319.0106.0744.0212.1063.085.0743.1382.1912.2444.2336-.0531.1063.0956.2125.0531.2974-.085.0319-.0531-.0849-.1168-.0849-.085.0318.0106.1487.0424.2124.0531-.0106.0744-.0319.0638-.0744.1168 0 .0955.1381.0637.2019.0531.1274.1806.3505.1487.4248.0106.0213.0531 0 .0531.0319-.0106.085.0638.1487.0319.1912.0319.0637.1062.0956.1486.1487-.1168.085.1169.1806-.0318.2655.0744.0319.0531.1912.1381.2125-.0956.0956.0425.1805 0 .2868.0319.0424.0743.0849.1168.1062-.0212.0637.085.1805.1275.2549.0212.0106.0531.0212.085.0319.0212.0637-.0531.0637-.0531.1168-.0106.085.0743.0531.0743.1168-.0638-.0318-.0212.0107-.0743.0319.0637.085.1062.1806.1912.2231-.0107.1062.0955.1699.0424.2549.0319.0956.1381.1062.1594.2124.1274-.0743.0106-.1699.0743-.2761 0-.0744-.0319-.1169-.0531-.1594.0318-.0531.1169-.0743.0531-.1381-.0424 0-.0425.0213-.0425.0532-.0425-.0425-.0106-.2868-.085-.3506-.0106-.0318.0213-.0424.0107-.0637-.0319-.0425-.0319-.1381-.0956-.1381.0319-.0956.1274-.1487.0531-.2443.0637-.0106.0424-.0849.0318-.138-.0425-.0744-.1061-.1275-.138-.2125.0319-.085.0106-.1912.0212-.2868-.0319-.0849-.0531-.1699-.1168-.2124 0-.1487-.0956-.1381-.0744-.2443-.0425-.0213-.0743-.0425-.1168-.0637.0212-.0319.0106-.0744 0-.1275.0425-.0319.1168-.0531.1062-.1275-.0425-.0531-.085.0425-.1487.0319-.0638-.0637-.0531-.2124-.085-.308-.0637-.085-.1593-.2337-.1381-.3399-.0212-.0531-.0743-.0744-.0956-.1381-.0318-.0637.0319-.0744 0-.1275-.1062-.1062-.0743-.3717-.2018-.4355-.0744.0531-.0956-.0106-.1805-.0106-.0107-.0425-.0107-.085-.0213-.1274.0319-.0107.0637-.0107.0956-.0213.0531 0 .0213-.0637.0637-.0743.0107.0531.0637-.0213.0425-.0532.0531.0213.1275.0319.1487.1063.0956-.0319.0956.0318.1594.0318.0106.0319.0318.0531.0637.0531-.0319.17.2549.3506.1487.5418 0 .0637.0637.0531.0743.1168-.0743.085.0213.1487 0 .2655.0531.0744.1063.1381.1169.2549.0106.0319.0319.0532.0637.0532-.0425.1274.0637.1912.0319.2974.0212.0956.1168.0956.085.1805.0106.0213.0531.0001.0531.0319.0212.1487.0531.2762.138.3399-.0106.0956.0213.2443.1062.308-.0106.0956-.0318.1806 0 .3081.0319.0849.1169.1168.085.2018.0425.0531.1381.1593.0957.2443.0743.0425.0637.1912.138.2337.0107.1168.0106.1062.0106.2124.0531.0743.0744.2018.1487.2549-.0425.0531-.0424.0637.0213.1062.0106.0319-.0213.0425-.0106.0638.0106.0531.0531.0531.0637.0956 0 .1487.0213.1912.0319.3186 0 .0319.0318.0531.0637.0531-.0319.0319-.0213.1381.0425.1169-.0425.0637-.0107.0637-.0319.1168.0212.0531.1062.085.0531.1593.0319.0107.0212.0744.085.0531-.0107.0319-.0319.0638-.0319.0956.0638.0319.0319.1912.1381.1912-.0318.0425 0 .1169-.085.1275 0 .0425.0426.0956-.0318.0956.1275.1381.0531.2549.2124.3293-.0319.138.085.1487.0212.2761.085.1275.085.2337.0957.393.0743.1594.1911.2656.1805.4674-.0106.0637.0531.0318.0637.0743-.0212.0744 0 .085.0425.1169.0106.0956-.0106.1274.0637.1805-.0106.0425.0532.1275 0 .1487 0 .0532.0532.0638.085.0744-.0212.0319-.0106.0744 0 .1275 0 .0318.0213.0318.0531.0318-.0212.0319-.0212.0531.0107.085.0212.0637-.0425.0744-.0213.1381.0106.1168.0531.085.1063.1699-.0425.0213 0 .1062-.0531.1169.0212.0531.1168.0318.1168.1062-.1381.1062.0744.2549.0212.4036.0319.0425.0637.0744.1381.0638-.0425.0318.0319.138-.085.1274.0638.1275.0425.2337.0638.3824-.0213.0106-.0319.0319-.0744.0319.0213.1168.0318.2443.1062.2867.0212.0638 0 .1063 0 .1488.0319.1274.0638.1168.0213.2336.0212.2125.0319.3505.0956.5417.0319.0425.0637.0956.0955.1381-.0318.085-.0425.2443.0425.3612-.0106.0424.0531.1274 0 .1487.1169.1274.0107.3399.1275.4567-.0318.085.0106.2443.0319.2974 0 .0637.0743.0425.0956.0956 0 .1806-.0106.308.0531.4674-.0213.1062-.0213.2336.1062.2867.0212.1063-.0956.2125.0212.2762-.0743.1487.0213.2974.0744.4249-.0425.0425-.0637.1062-.1275.1381.0425.0637.1275.0743.1912.0956.0425.0637 0 .0956.0744.138-.0213.085.0319.2019 0 .2868.0531.0532.085.1594.1381.2125-.0531.0637.0637.1274-.0319.138-.0106.0638.0531.0319.085.0532-.0213.1168.0956.1487.0637.2018.0106.0425.0744.0318.085.0743-.0106.085-.0425.085 0 .17-.1062 0-.0319.1062-.0744.1487.0319.0425.0319.1062.0956.1168-.0319.085.0319.2231 0 .3081.0425.138.0637.1805.0213.2761.0106.0744.053.1062.0955.1381 0 .0531-.0106.0956-.0318.1381.0956.0956.0425.223.1381.3399-.0425.1168-.0425.1487-.1381.2443.0106.0531.0212.1168.0318.1699.1169-.0212.0744-.1381.17-.1593.0956 0 .0106.1275.0106.1912.0319.0956.1062.2549.0638.3611 0 .0956.0637.17.0424.2125.0106.0637.0744.0637.0956.1168-.0743.2124.1062.4567.0212.6904 0 .0638.0638.0531.0744.1169-.0531.0212.0213.1168-.0531.1168.085.1062.0531.2974.0213.3824.0425.0743 0 .1062.0531.1593-.0106.0531.0106.1168-.0531.1381.0212.0425.0637.0425.0637.0956-.0212.0743-.0638.1381-.0319.2443-.0425.0318-.0424.0956-.0849.1275.0106.0212.0424.0424.0849.0318.0106.0531-.0319.0744 0 .1275.0637.0637 0 .1168.0744.1381 0 .0531-.0213.1062-.0531.138.0531.1169-.0532.1275-.0319.2231-.0638.0212-.0319-.0743-.1062-.0425-.0213.1169.0743.2124.0106.3293.0744.1381.0212.2761.1168.3717-.0318.0107-.0424.0319-.0424.0744.1062.1168.0956.3824.2549.4249 0 .0743-.0637.0637 0 .1274-.0956.0107-.0638.1063-.0956.1487-.0744.0319-.1381.0744-.1806.1169-.0425-.0531-.2018-.085-.1593-.17-.0638-.0212-.0744-.1168-.1275-.1487.0106-.1274-.0106-.223-.0849-.3292-.0213-.1806-.0319-.3187-.17-.3824-.0106-.0425.0425-.1381-.0212-.1487 0-.0425.0637-.0531.0318-.1169 0-.0531-.0637-.0425-.085-.0743.0107-.0531.0001-.1062.0213-.1594-.0744-.0743-.0637.0319-.1275 0-.0424.0425.0213.1487-.0424.1806-.0213.0106-.0213 0-.0319-.0212.0425-.0319.0744-.0319.0956-.0425zm.5842-1.4552c.085-.17.0318-.2974-.0106-.478.0106-.0531.0212-.1381-.0319-.1699.0637-.0956.0106-.255.0106-.393-.0425-.0319-.0637-.0956-.0956-.1381.0107-.1169.0106-.2443.0956-.3187 0-.0743-.0531-.0531-.0212-.1062-.0637.0106-.1063-.0106-.1169-.0637-.0106-.1381-.0212-.308-.0743-.4461-.0425.0849-.1169-.0107-.1806.0106.0106.1168.085.1487.1381.2124-.0637.0638.0637.1062.0743.1594-.0743 0-.0212.0743-.1168.0637-.0318.1381-.0212.4355.1168.4992-.1062.0744-.0637.2656.0107.3505-.1062.0744-.0425.1912-.0213.3081.0106.0318.0425.0106.0531.0318-.0637.1381.0107.2443-.0106.393.0638.0107.0956.0425.1169.1062-.0638.1169.0531.255-.0107.3718.0744.0531.0106.1381.1062.1593-.0212-.1699.0319-.3717-.0318-.5523zm-.478-2.9422c.0212-.0425-.0425-.1806-.1168-.1912.0637.085-.0106.085 0 .1274 0 .0319.0424.085.0424.1169.0107.0425-.0212.1062.0638.0956.0637-.0637.0425-.1062.0106-.1487zm-.1381-.2337c.0425-.0106.0637-.0319.0637-.0531-.0424-.0319-.1062-.0213-.0637.0531zm.1594.4674c.0106-.0107-.0213-.0319-.0319-.0213-.0107.0106.0212.0319.0319.0213zm-.3612-1.3278c-.085 0-.0956.0319-.1168.0638.0318.138.138.1487.1062.308.0637.0212.0637.1062.1487.1062.0212-.1806.0212-.2868-.0744-.4249-.0318-.0743.0213-.0849 0-.1487-.0531-.0956-.2018-.1805-.1805-.2761-.0425 0-.0532.0318-.0957.0424.0532.0638.0851.1488.1169.2337.0425 0 .0531-.0425.0743-.0106-.0743.0319.0425.0531.0213.1062zm.0956.5736c.0319.0744.0531.1487.1275.17 0-.1063-.0319-.17-.1275-.17zm.786 4.1531c.0106-.0106-.0213-.0319-.0319-.0212 0 .0106.0213.0318.0319.0212zm.0106.17c-.0955 0-.0212.0849-.0318.138.0849-.0106.0743-.1168.0318-.138zm-1.1152-5.5234c-.085-.0743-.0744-.138-.1169-.2124.0425 0 .0213-.1487-.0425-.0956-.0849.0531.0956.2443-.0106.2443-.0106.0637.0531.0531.0425.1169.0743 0 .0531.0106.1275-.0213.0318.0319-.0638.085.0105.085 0-.0531.0744-.0531.0532-.1169-.0106-.0106-.0319-.0106-.0637 0zm-.9666-2.581c.0424.0531.1168.1168.0319.1699-.0532.0106-.0426-.0531-.1063-.0212-.0531.1274.1275.2549.0425.4036-.0849-.0212-.0956-.1169-.1381-.1912-.0637.0106-.0743.0425-.085.085.0425-.0106.0638.0106.0638.0531-.085-.0106-.0532.0425-.0956.0637.0424.1169 0 .2762.0956.4143 0-.0319.0425-.0107.0531.0106-.0425.0212-.0531.0637-.0531.1168.0318 0 .0743-.0212.0743.0106-.0212.0319-.0212.0638-.0106.1063.0744.0424.0638.1274.0956.2655.0425.0319.0743.085.0956.1381-.0319.0106-.0744.0106-.0744.0319.0213 0 .0531-.0107.0531.0106-.0531.0425.0532.1062.0532.1593.0319.17.0425.2443.1168.3505-.0531.0106.0106.0956-.0319.1169.0744.0637.0319.1381.085.2018 0 .1062.0744.1381.0106.1912.0531.0212.1062.0318.1806.0318.0531.0744.0956.1593.2018.1593.0106-.0743.0531-.1062-.0106-.1699.0212 0 .0319.0106.0531.0106-.0425-.1274-.0531-.1912-.0743-.2868-.1381.0107-.1913-.0849-.17-.2124-.0106-.0425-.085 0-.085-.0531.1168-.1593-.1381-.2762-.0531-.4249-.0425.0107-.0637 0-.0849-.0318.0531-.0744-.1063-.17-.0532-.2762-.1381-.0212 0-.2549-.1274-.2762.0743-.0425.1806-.0637.2337-.1062.0318.1062.0425.1275.0743.2656 0 .0425-.0637.0531-.0319.1168.0425.0319.1488-.0319.1594.0319-.0956.0425-.085.0849-.1594.0956.0213.138.0956.2124.1806.2761-.0319.0106-.0212.0531-.0425.0744.0956-.0213.0956.0531.1594.0531.0425-.0319.0955-.0744.1062-.1275-.085.0319-.0425-.0849-.0957-.0956.0425-.0425-.0212-.1381.0213-.1805-.0319 0-.0637 0-.0531-.0319-.0319-.17.0107-.2974-.1062-.478.0213-.1487.0213-.2337-.0637-.3399.0212 0 .0318-.0106.0531-.0106-.0319-.0531-.0319-.0637-.0213-.1275-.0743.0107-.0849-.0637-.1168-.1062-.0319-.0318.0425-.0531.0425-.0743 0-.0531-.0744-.0956-.0319-.17-.0425-.0425-.085-.0637-.1169-.1062.0638-.1381-.053-.2231.0213-.3293-.085-.0637-.1062-.2336-.1062-.3292-.1062-.0532-.1169-.1063-.1169-.2337-.0956-.1062-.138-.2231-.1168-.393-.0212-.1063-.0425-.0956-.0318-.1912-.0744-.0744-.0532-.2762-.1806-.2974-.0107.0743-.085.0956-.0212.1593-.0213 0-.0532.0106-.0744.0106 0 .0319.0106.0531.0106.085-.0956.1168-.0531.2124-.0956.3399.0319 0 .0637-.0213.0744.0106.0212.1168-.0213.2549.0319.3399-.0213.0212-.0957.0212-.0638.0743.0425.0532.0531.1488.1062.1912-.0318.0319-.0531.085-.0531.1381.0106.0425.085 0 .085.0531-.0319.0107-.0743.0107-.0743.0319.0637-.0212.0849.0106.0637.0531-.0319-.0319-.0956-.0531-.0956.0213.0637-.0107.1168-.0107.1593.0106-.0319.0425.0318.1168-.0531.1593.0637 0 .1062-.0106.1806.0319.0106-.0744-.0319-.085.0531-.1381-.0319 0-.1275-.0425-.0638-.0744.17.0107.0956.1381.1169.1594zm.7116 1.9544c0 .0212.0106.0424.0106.0637.0425 0 .0532-.0319.0426-.0744-.0213 0-.0426.0107-.0532.0107zm.0956 1.1365c-.0106-.1168 0-.1806-.1381-.1912.0425.0956.1275.1699.0957.2868.0318-.0106.0637-.0106.0955-.0213.0213-.0637-.0425-.0318-.0531-.0743zm.0531.1806c.0106-.0107-.0212-.0319-.0318-.0213 0 .0106.0212.0319.0318.0213zm-1.179-5.6614c.0213 0 .0319-.0106.0531-.0106 0-.1275-.0106-.1594-.0743-.2444-.085.0425-.085-.0318-.1381-.0424-.0425.0531 0 .1274.0319.1699 0 .1168.0637.2018.0424.2762.0638 0 .0001.1487.0957.1168-.0319-.1062-.0001-.1806-.0107-.2655zm.0319.3399c0 .0743-.0531.1062-.0106.2018.0637-.0107.0637.0531.138.0425.0106-.1381-.0319-.1912-.1274-.2443zm-.648-3.8026c-.0318-.0638.0319-.0744.0319-.1169-.1062-.0956-.0637-.2124-.1806-.2868.0531-.0637.0107-.2018.0532-.2761-.0425-.0106-.0637-.0425-.0637-.0956 0-.1275-.032-.2762.0105-.393-.0318 0-.0425-.0213-.0531-.0319 0-.1274-.1274-.1806-.0743-.2868-.0638-.0106-.0637-.1062-.085-.1805-.0956.0106-.0106.0212-.0106.0637-.0319.0212-.0425.0531-.0319.0956.0213.1062.0213.223.0744.2868-.0213.0531-.0213.1168-.0425.1593.0531 0 .0743.0425.0956.0956 0 .0425-.0956.0319-.0638.0956.1169.1062.0425.2974.1488.4036-.0638.085 0 .2443.0319.2974 0 .0425-.0638.0531-.0638.0956.0744.085.0213.1806.0531.2762.0638.0106 0 .1699.0956.1381-.0744-.1169.0531-.17-.0107-.3293.0532-.0106.0426.0319.085-.0106zm.5311 2.9953c-.0849-.0212-.0318-.2337-.1699-.2124.0319.0956-.0213.1381.0212.2337.0425.0531.1062.0318.0744.1168.0743-.0106.0956-.0531.0743-.1381zm-.9984-5.0666c-.0106.0531-.0744.0744-.0744.1275.085-.0212.0531.1062.1381.085-.0212-.0956.0213-.17-.0637-.2125zm.8922 4.748c-.0318-.17-.1805-.2019-.1487-.3824-.0425-.0213-.0318-.1169-.1168-.085-.0319.0212.0106.085-.0319.0956.0319.0531.0107.1381.0319.1912 0 .0106.0531.0319.0637.0531.0425.0743.0531.1806.1593.1912 0-.0425.0001-.0637.0425-.0637zm1.9969 11.6945c.0425-.0106.0638-.0319.0638-.0531-.0425 0-.0531.0213-.0638.0531zm-2.8785-16.1982c-.0425.1169.1275.0213 0 0zm.6055 3.6645c0 .0213-.0213.0425-.0425.0532.0319.0531.053.1062.138.0849 0-.0849-.0318-.1381-.0955-.1381zm2.2411 12.1726c-.0106-.0213-.0106-.0638-.0318-.0531 0 .0106 0 .0531.0318.0531zm-2.974-16.4638c.0106 0 .0212-.0212 0-.0212-.0213 0-.0319.0212 0 .0212zm1.0728 6.0651c.0212 0 .0212-.0425-.0107-.0425-.0212.0106-.0106.0318.0107.0425zm-.5099-2.4218c.085-.0106.0744-.1275.0212-.1593-.0212 0-.0531.0106-.0743.0106-.0425.1168-.0106.308.1169.3505-.0107-.0743-.0213-.1487-.0638-.2018zm.2337.9772c.0212 0 .0212-.0425-.0106-.0425 0 .0319-.0319.0425.0106.0425zm2.0075 11.4609c0 .0106 0 .0319.0106.0425.0213 0 .0319-.0106.0531-.0106 0-.0107 0-.0319-.0106-.0425-.0212 0-.0425.0106-.0531.0106zm-2.3368-13.1497c.0106 0 .0213-.0213 0-.0213-.0212 0-.0318.0213 0 .0213zm.0425.1168c-.0106-.0106-.0106-.0425-.0318-.0425.0106.0212.0105.0425.0318.0425zm-.0425.1593c.0106.0531.0319.085.0637.0956.0319-.0319-.0106-.085-.0637-.0956zm-.0212-.1062c-.1169.1062.1168.0956 0 0zm-.0319.2443c-.0212.0637.1169.0425.0744-.0106-.0319 0-.0531.0106-.0744.0106zm-1.0091-5.3852c.0107 0 .0213-.0213 0-.0213-.0212 0-.0318.0213 0 .0213zm2.8891 16.6761c0 .0425-.0424.0638-.0318.1169.0744-.0107.1168-.1169.0318-.1169zm-2.4748-13.7339c.0319 0 .0637-.0213.0212-.0213-.0212-.0106-.0531.0107-.0212.0213zm.0318 1.3171c.0744-.0531.0106-.1275-.0106-.1912-.0956.0319-.1062-.0319-.1381-.0637 0-.0425.0425-.0638.0319-.1169-.085-.0743.0425-.1912-.0637-.223.0743.0212.1062-.0744.0425-.0744 0 .1062-.0956-.0531-.1593-.0318-.0319-.0744-.0531-.0956 0-.1487-.0425.0106-.0638-.0107-.0638-.0532.0319-.0956.0107-.1168.0638-.2124 0 .0425.0318.0425.0849.0319.0106-.0744-.0106-.0531 0-.1275-.0213 0-.0531.0106-.0531-.0106.0106-.1381-.0744-.1806-.1487-.2762.0531-.0212.085-.0531.0531-.1168-.1062-.0319-.1381-.1487-.2337-.1912.0744-.0637.0213-.2762-.0743-.2868.0424-.1062-.0319-.2762-.17-.2549-.0531.1062.0425.1168-.0106.2443.0319.0956.1062.1912.085.308.0106.0319.0425.0319.0637.0531-.0318.0107-.0425.0319-.0425.0744.0531.0637.0107.1699.0956.2443-.0212 0-.0318.0106-.0531.0106.0425.0956-.0319.1806.0425.2337-.0425.0106-.0531.0425-.0318.0956.138.1274.1699.3399.2655.4673-.085.085.0637.1594.0212.2549.0106.0425.0744.0319.085.0744-.0637.0744.0531.1381.0637.2018-.0212.0213.0107.0744-.0637.0744.0106.0531.0531.0531.0637.0956-.1487.0425.0531.0743-.0531.138.1062.0107.1381.2337.1062.3293.085.0425.1488.0956.1806.1806-.0637.0106-.0531-.0213-.0956.0212.0531.085.0638.2019.0213.2762.0956.0319.2017.0425.2761.0956.0319-.1168-.0319-.1381-.0637-.2231 0-.0531.0637-.0743.0531-.138-.0106-.0319-.0425-.0319-.0425-.0744-.0425.0106-.0637 0-.0849-.0319-.0213-.0956-.1275-.0956-.1594-.1912.0319-.0637-.0531-.0955.0318-.138.0744.0106.085.0318.1488-.0107-.0319-.1062.0212-.2442-.0638-.3186zm1.2534 8.1894c.0956-.0319 0 .0424.0425.0956.0744-.0107.0956-.1594.0425-.1806 0 .0425-.1062.0212-.085.085zm.1169.2124c-.0637.0106-.0744.0425-.085.085.0637-.0213.0319.0743.085.0743 0-.0849.0531-.0956 0-.1593zm-.0744-.0956c0 .0212.0107.0425.0107.0637.0424-.0106.053-.0318.0424-.0743-.0212.0106-.0318.0106-.0531.0106zm-.9772-5.3746c.0106-.0637-.0531-.0319-.0638-.0744.0744-.1487.0107-.3292-.0637-.4886-.0106-.0637.085-.0637.0532-.138-.0425 0-.0638-.0213-.085-.0532-.0319-.0637.0106-.0849 0-.1274-.0531-.0106-.0956-.0319-.0956-.1168-.0425.0106-.085.0106-.1275.0212.0744.2124.0425.4673.1594.6373-.0956.1062.053.1168.0212.2337.0743.0531.0425.085.1062.1593-.0425.0637.0213.1593.0637.2018.085-.0318-.0212-.1912.0319-.2549zm.8179 4.8648c-.0531.0637.0318.0743.0637.0956-.0212-.0319-.0319-.085-.0637-.0956zm-2.1881-11.4397c-.0212-.0637 0-.1699-.085-.1593-.0531.085.0744.0637.0213.1487.0106.0319.0425.0213.0319.0637.0424.0638-.0107.2337.0955.2231.0956-.085.0106-.2549-.0637-.2762zm.2443 1.0728c-.1169.085.0956.0425 0 0zm-.0744-.0956c-.0106-.0106-.0106-.0425-.0318-.0425.0106.0213.0106.0531.0318.0425zm-.1062-.3186c0-.0319.0319-.0425.0107-.085-.0744-.0319-.0532.0956-.0107.085zm-.2336-.5842c-.0425.085.0424.1381.0105.2124.0425-.0106.0532.0106.1063 0-.0425-.1062 0-.1699-.1168-.2124zm2.6448 14.8917c0 .0106 0 .0319.0106.0425.0213 0 .0319-.0107.0531-.0107 0-.0106 0-.0318-.0106-.0424-.0106 0-.0319.0106-.0531.0106zm.0212.0637c0 .0319-.0318.0319-.0106.0638.0425-.0107.0637-.0319.0637-.0532-.0318.0107-.0425-.0106-.0531-.0106zm-2.9635-16.2513c.0213.0425.0532.1912.0957.1169-.0425.0106-.0001-.1381-.0957-.1169zm.3824 2.0607c-.0319-.0213-.0849-.0425-.0956-.0957-.0956.0213-.0956.1063-.0956.1912.085-.0212.0638.085.1594.0532-.0213-.0744.0743-.0744.0318-.1487zm.085.4354c.0106-.0106-.0212-.0318-.0318-.0212 0 .0106.0212.0319.0318.0212zm-.0531-.1168c.0106-.0106-.0213-.0319-.0319-.0212 0 .0106.0213.0318.0319.0212zm.0106.2124c-.0106-.0212.0319-.0425-.0106-.0425-.0212 0-.0212.0425.0106.0425zm-.3292-1.0197c-.0107.0956.0637.0744.0743.1381.0106.0425-.0212.0531-.0106.085.0637.0213.0637.1275.1486.1275-.0743-.1169-.1062-.2443-.0637-.3612-.0531-.0318-.0743-.0318-.1486.0106zm-.0319-.1911c0 .0531.0318.0849.0637.0956 0-.0425.0638-.0532.0319-.1169-.0319.0106-.0638.0106-.0956.0213zm.0743 3.1334c-.0637 0-.0744.1168-.0319.1168 0-.0425.0638-.0531.0319-.1168zm.0107.2124c.0531-.0212.1274-.0319.138-.0956-.0212-.0318-.0425-.0956-.1593-.0318 0 .0424.0106.0849.0213.1274zm-.3718-1.3596c.0106-.0106-.0213-.0318-.0319-.0212 0 .0106.0212.0318.0319.0212z"/><path d="m49.7884 67.3795c.0213.0319-.0106.0212-.0212 0-.0213-.0212.0106-.0531.0212-.0212 0 .0106-.0106.0212 0 .0212z"/><path d="m46.0923 50.1406c.0427-.0748.0533.0213.032.0533-.0854.0214.0427-.0747-.032-.0533z"/><path d="m47.4623 60.0293c.1593 0 .0956.1168.1381.2336-.0637 0-.0425.0532-.0637.0744-.0106-.0743-.1487-.1912-.0744-.308z"/><path d="m47.2179 59.5301c.0638.0318-.0637-.0107-.0743.0318.0425.085 0 .1275.085.1806 0 .0425-.0532.0531-.085.085.0956.0849-.0425.1805.0424.2549-.1487.0956-.0424-.1381-.0955-.1381 0-.0212.0425-.0212.0743-.0319-.0743-.0424-.0318-.138-.0956-.2443.1062-.0531.0531-.1699-.0106-.2124-.0106-.0319.0212-.0425.0106-.0637-.085-.0425-.0212-.1275-.1062-.1594.0107-.0212.0106-.0424.0425-.0531-.0106-.0212-.0425-.0424-.085-.0318.0212-.1275-.0849-.1381-.0212-.2337.0956-.0319.0531.0956.0744.1381.0531.0318.1592.0106.1486.1274-.1487.0107-.0212.17.0319.17-.0531.0425-.0212.1699.0637.1806z"/><path d="m44.6167 71.2034c.0221 0-.0111.0442-.0221.0332-.0111-.0111.011-.0442.0221-.0332z"/><path d="m46.7831 69.9925c.0107.0213-.032.032-.0533.0427l-.0854.032c-.0213-.0534.096-.0427.1387-.0747z"/><path d="m48.9815 69.1853c0 .032-.0533.032-.064.0106.0213-.0213.0533-.0426.064-.0106z"/><path d="m50.7128 68.7072c-.0107-.0956.2124-.1168.2443-.0531.1593-.0531.1806-.0212.3187.0106-.0638.0638-.1382.0425-.2231.0106-.085 0-.255.085-.3399.0319z"/><path d="m52.157 68.4948h.1282c.0213.096-.1389.0854-.1282 0z"/><path d="m38.625 73.6251c.0106.0319-.0318.0637-.0531.0425-.0106-.0425.0212-.0213.0531-.0425z"/><path d="m50.6381 68.5798-.0956.0106c-.0318-.0744-.0744-.1275-.1062-.1912.1593-.0425.1594-.0319.255.0212-.0532.085-.0213.1063-.0532.1594z"/><path d="m39.2946 73.0198-.0534.0427-.032-.0427.0534-.032z"/><path d="m39.1563 73.0621c.0107.0214-.0213.0427-.032.0641-.0213-.0214.0213-.0427.032-.0641z"/><path d="m38.5933 73.4876-.032-.0426c.0213-.0748.032-.0214.0961-.0854l.032.0426c-.0641.0534-.0213.0748-.0961.0854z"/><path d="m50.8509 68.3568c-.0107.0427-.032 0-.064.0106 0-.032.064-.032.064-.0106z"/><path d="m45.8797 68.601c-.1381.0106-.3293.0956-.4036-.0531.0531.0106.138-.0106.1805.0212.0638-.0318-.0212-.1062.0213-.1381.1168-.0106.1806.0425.2018.17z"/><path d="m49.0889 67.7938c.0221.0111-.0222.0332-.0332.0332-.0111-.0111.0221-.0442.0332-.0332z"/><path d="m48.9929 67.8044c.0221.011-.0221.0331-.0332.0331-.011-.011.0221-.0331.0332-.0331z"/><path d="m46.2512 68.3248c.0956.0107.4249-.1062.5524-.1168 0 .1487-.2655.0638-.3611.1806-.085-.0106-.1594-.0106-.1913-.0638z"/><path d="m47.0161 68.0699c.1806-.0743.2124.0744.3611-.0425-.0318.1275-.2867.1487-.3611.0425z"/><path d="m46.2087 68.3041c-.0321-.064.0533-.0854.1067-.1067-.0107.0427-.0214.0961-.1067.1067z"/><path d="m48.0152 67.7831c.0216.0108-.0216.0325-.0324.0325-.0216-.0108.0216-.0325.0324-.0325z"/><path d="m46.4215 68.1761c0 .0213-.0319.0319-.0531.0425-.0106-.0319.0318-.0319.0531-.0425z"/><path d="m45.2744 68.4523c.0744-.1062.2655-.0956.3187-.2337.0637-.0318.2124.0638.1911-.0637.0744-.0212.0851.0637.1807.0212.0106.1275-.2763.1487-.3081.255-.1593.0531-.2443.0106-.3824.0212z"/><path d="m48.5034 67.6559c.1495-.1174.2135.0214 0 0z"/><path d="m49.8845 67.4542c-.0427-.0107-.0747-.0214-.0747-.0641.0747-.0213.0747.0214.0747.0641z"/><path d="m46.262 68.1124c.0212-.085.1912-.1062.308-.1593.0107.0531.0956.0106.085.0849-.0107.0425-.1275.0425-.1169.085-.1274-.0637-.1593-.0106-.2761-.0106z"/><path d="m48.9492 67.5388c-.0637.0956-.0955-.1168 0 0z"/><path d="m47.1225 67.9319-.0212-.0956c.0956-.0319.1912-.0532.2974-.0744-.0637.0744-.17.1168-.2762.17z"/><path d="m48.2165 67.6132c-.1274.0318-.1806-.0213-.3081.0106 0-.1062.1488 0 .1488-.1062.1274-.0106.085-.0106.2337-.0213.0318.0638-.1169.0425-.0744.1169z"/><path d="m47.8561 67.6667c-.064 0-.0747-.0533-.1708-.0106-.0213-.1495.1601-.0641.1708.0106z"/><path d="m47.6126 67.6664c.0221.011-.0222.0331-.0332.0331-.0111-.011.0221-.0442.0332-.0331z"/><path d="m61.144 68.2718c.0108.0216-.0324.0216-.0432.0108s.0324-.0216.0432-.0108z"/><path d="m61.1538 68.2505c.0106-.0531.0531-.0637.1275-.0319.1168.0107.223-.1274.3292 0-.0106.0744-.0849.0213-.1274.0319.0531.085-.0638.0212-.085.1062-.1275-.0637-.1593-.0318-.2443-.1062z"/><path d="m62.6735 67.5602c.0108.0216-.0432.0216-.0432.0108-.0108-.0216.0432-.0216.0432-.0108z"/><path d="m39.4109 72.9665c0-.1593.1593-.2443.3399-.3505.1487-.1381.3293-.2761.4143-.4142.1274-.0531.2443-.1275.2868-.2018.0531-.0531.0637.0424.1168.0106.085-.0531.17-.1062.1594-.1593.0849-.0213.2018-.0744.2018-.1594.085-.0106.1593-.0318.2761-.1062.1275-.0318.1487-.0637.2443-.0956.0319-.0318.0531-.0743.085-.1062.223-.085.2549-.1593.5311-.2974.0424-.0531.0637-.1062.0956-.17-.085-.0637-.3505.1275-.3293.2125-.085-.0425-.2762.1487-.3612.0849-.1062.0425-.0212.1169-.1274.1594-.085-.0744-.2337.0637-.2974.0637-.1806.1593-.2762.2124-.4143.3824-.0637.0425-.1062.0212-.1487 0-.0425.0319-.0637.0637-.0531.0956-.1805.0212-.2018.1168-.3717.2549-.0744.0213-.1487.085-.2018.0531-.0638.085-.17.1593-.2656.1912-.1062.1487-.4036.2231-.4355.393-.1487-.0106-.223.1806-.3824.2018-.0425.0425-.0318.0956-.0955.1381-.1062.0425-.2443.2018-.3506.2337-.2974.3505-.7966.6161-.9134.8816-.1169.0106-.2125-.0744-.3506.0531-.0956-.085-.223-.0637-.3292-.0637-.1169-.085.0212-.1912-.0744-.2762.1806-.3505.4143-.4886.7329-.8497.1062-.0956.2018-.0956.3187-.2018.0849-.085.0956-.17.138-.255.0956-.0849.1594-.0531.255-.1168.0637-.0425.0531-.0744.0849-.1062.1275-.0425.2656-.1169.393-.2656.3187-.1699.4143-.3611.733-.4886.0849-.0425.0318-.0743.0849-.1168.0744-.0744.1169-.0531.1806-.0956.085-.0319.0531-.0744.1275-.1168.1274.0106.2549-.17.3505-.2656.1168.0213.2018-.1381.2655-.085.0531-.0318.0638-.0637.0638-.0956.1168.0107.2124-.1699.2973-.1593.0531-.0425.0426-.0956.1169-.1274.0744-.0532.1062-.0213.1699-.0425.0532-.0531.2549-.085.1806-.1593.0743.0318.3293-.085.3186-.1806.4355-.2974.7967-.4143 1.1154-.6161.0106-.0531.0743-.0956.1168-.1381.1168-.0743.1487 0 .2443-.0318.0849-.0638.1806-.2337.2974-.1594.085-.0318.085-.0743.0531-.1274.2018-.0319.4142-.085.6373-.1381.0531-.0425.1275-.0637.1381-.1062.2868-.0319.4674-.2549.6904-.3718.17-.0425.3186-.0531.4992-.0956 0 .2018-.478.1381-.4461.3718.1381.0531.1593-.0637.308-.1169.0744.1275-.1274.1806-.0743.2975-.1805-.0107-.3186-.0001-.4886.1062l-.0531-.1381c.1168-.085.1168.0106.2018-.0213.0638-.0849-.1381-.0531-.2443.0107-.0213.0106-.0638.1168 0 .0849.0212.0531-.0849.0213-.0849-.0212-.1063.0425-.0638.1168-.1594.0637-.0637.0425-.085.085-.085.1381-.1062.0319-.1274-.0319-.1805 0-.0638.0637-.085.1275-.0957.2018-.1274.1169-.1381.1275-.2655.2231l-.0212-.0425c-.0531.1274-.2655.0743-.4567.2018-.0107-.0531-.0425-.0531-.0744-.0743-.085.0956-.1912.308-.3505.2549-.1063.0637-.1275.1593-.2231.223-.0744.0107-.1806.085-.1912-.0106-.0637.0956-.2761.17-.223.2868.1062.0212.1593-.085.2336-.1275.0531-.0212.0744 0 .1275-.0318.1062-.0638.1912-.1912.393-.255.085-.0531.1063.0213.1806 0 .2124-.0849.308-.1911.4036-.2974.0637-.0424.0849.0107.1381-.0106.0424-.0106.0956-.0637.138-.085.085-.0318.1382-.0531.2338-.0424.5735-.255 1.009-.4674 1.487-.6055.0743-.0318.1487-.0637.17-.1062.3186-.0212.616-.2231.8497-.2443l.2443-.1168c.1805.0531.5098-.0956.6373-.1487.0956-.0319.1487.0106.2655-.0319.0213.0319.0638.0212.0744.0637.1062-.0743.1381.0106.2974-.0425.0106-.1062-.0956-.0849-.2125-.0531-.0212-.1274.1488-.1593.2868-.2124.0319-.0106.0213-.0319.0213-.0531.0744.0318.2549-.0531.2762.0425.1381-.0531.3186-.1275.4461-.1062.085-.0107.0956-.0532.1168-.0957.0637-.0424.0744.0425.1381.0319.0319 0 .0531-.0531.0956-.0637.085-.0319.1805 0 .223-.0637-.0425-.0638-.1061.0318-.1593.0212-.0318-.1168-.2018-.0744-.2549-.1593.0531-.0213.0637.0106.0743.0425.085-.0107.0744-.0638.1169-.0956.1062.0425.2655.0106.3399.0212-.085.1381.1062.085.1275.1806.1062-.0106.1168-.17.1912-.0531.0743-.0213.0105-.1381.1592-.1169-.0212-.0425-.0956-.0318-.0743-.1168.0956-.0425.2337 0 .2868-.1062.0531.0106.0531.0743.0744.1168.0531-.0531.1592-.0319.2336-.0212.0637-.1169.17-.0638.3612-.085-.0744-.1593-.3718.0425-.4993-.0212.0531-.17.3506-.0744.5949-.1063.0319.0744.223 0 .2017.1169.1487-.0319.2125-.1275.3294-.0425.0425-.0213.0743-.0425.0955-.085.0107-.1274-.1487-.1062-.138-.223-.1488 0-.085.1487-.2231.1593-.0531-.0425-.1274-.0637-.1381-.1381-.0849.0106-.0424.0956-.1274.1062-.0956-.0425-.2868.0213-.3718-.0212.0106-.085.2124-.0638.3293-.085.0743-.0425.2018-.0637.2655-.1168.1593.0424.2018-.085.3399.0106.0637 0 .085-.0213.0956-.0531.1381.0425.3824.0318.5736.0318.0106.0532-.0213.0638-.0319.1063.1168-.0107.2018-.0531.2655-.1063.1594 0 .3081-.0106.3718-.0743.1487-.0213.1912.0425.3399.0212.0213.0319.1487.1169.17.0744.0531.0106 0 .0212 0 .0531.0849.0319.2018-.0425.2018.0106.085-.0106.1062-.0743.2018-.0637.0743-.0956.2231-.0425.2762-.1169.0531 0 .0955.0001.0955.0319.0956-.0637.1275-.0425.2444-.0637.0849 0 .1911 0 .2336.0425.085-.0107.1275-.0531.1806-.085.0638.0106.0637.0744.0956.1062.1593-.0425.4673-.1168.6479.0106.0531-.0106.0744-.0425.085-.0956.2124.0319.2655-.0849.5205 0 .0849-.0106.1381-.0531.1593-.1274.1487.0425.3293-.0319.3293.1062.1168.0212.1381-.0531.2549-.0425.0106.0319.0637.0106.0744-.0106.0637.0425.0955.1062.1805.1381.17-.0107.3293-.1169.5311 0 .1275.0106.2125-.0213.2974-.0638.0744.0531.0637.0107.1593.0638.1275.0106.2018-.0531.393.0212.0531-.0106.1594.0212.1594-.0637.1062.0212.1168.085.1805.1274.1487.0532.2125.0213.3399.0638.1062.0743.2868.1274.4037.1168.0849.0744.1062.1593.1805.2443.0106.1593-.138.2443-.0425.3505.0956.0531.0744-.0637.1488-.0318.138.0849.2442.1805.3717.1699.085.1062.3399.17.4036.2762l.1912.0743c0 .0213.0744.1062.085.0638.0319.0424.0425.0849.0531.1274.0956.0106.1275-.0743.2125-.085.1168.1063.2973.085.2336.2231.0956.0425.2231.1168.2868.0956.0531-.0531-.1593-.2018.0531-.1168.0212-.0638-.0637-.1063-.1168-.1594.1274-.0106.1487.0319.2762.0425.0318.085.0531.085.1274.1381.0425.0106.0531-.0425.0744-.0744.0956.085.2549.2125.3505.1275.085.0319.0743.0744.138.1168.1594.085.2656.0744.3294.1912.1062-.0531.3399.1488.3823-.0106.0213.0744.1381.1381.1593.2125.0638.0106.1169-.0213.1487-.0638.1912.1169.4143.2443.6268.2868.1062.0531.0424.1168.0955.17.1593.0212.3293.0637.4886.1062l.0531.1168c.0744.0531.0425-.1381.1381-.0318-.0106.0743-.0744.0318-.0956.0849.0956.0744.1381.0319.1806-.0318.1169 0 .308.1805.393.0956.0531.1062.223.0955.2337.2018.0318.0212.0531-.0213.0743-.0425.0531.0318.1275.1699.2018.1381.0425.0318-.0318.0637.0107.0956.0743.0318-.0106-.0531.0743-.0425.0744.0956.1912.223.3293.2549 0 .1275.2018.1381.1912.2549.1168.0213.2655.1275.4143.2549.0106.0956.0531.2019-.0638.2443-.0531-.0318-.0425-.0531-.0212-.0849-.1381.0425-.2975-.0531-.4037-.2125-.0531.0213-.1381-.0212-.2018-.0212-.0956-.0637-.1168-.1275-.2336-.1912-.17-.0425-.3612-.2124-.5737-.2443-.0212-.0956-.1805-.0637-.138-.1487-.1063-.0106-.2549-.1381-.3611-.1381-.0532-.0319-.0426-.0637-.1063-.0956-.0956-.0743-.1168.0319-.2124-.0425.0531-.1168-.1169-.0531-.17-.1062l.0426-.0637c-.1063-.0213-.1807-.0956-.255-.17-.1912-.0318-.1381-.0743-.308-.138-.0106-.0425-.0531-.085-.085-.1275-.0425-.0319-.0637-.0106-.1062-.0319-.0425-.0743-.1806-.1274-.1594-.2018-.0956.0637-.2336.0425-.3717.0319-.1381-.0956-.1487-.085-.2868-.1169-.0106-.0425-.0531-.0849-.0849-.1274-.0638-.0319-.1063-.0319-.1276.0212-.0531-.0425-.0636-.0956-.1592-.1381-.0531-.0531-.0638.0213-.085.0107-.0744-.0107-.1487-.1063-.1699.0318-.0532-.0318.0212-.0956-.0957-.1274-.0425.0743.1063.0318.0107.138.0956.0213.2018.0638.2655.1487.0319.0107.0425-.0318.085-.0106.2018.1275.3611.1593.4567.2868.0319 0 .0637-.0212.0956-.0319.085.0213.2231.1487.2868.1169.1912.2337.7435.3718 1.0303.5736.0744.0743.0956-.0213.17.0424.0637.0532.0637.1063.1061.1488.0956.0424.2444.0424.255.1593.0531 0 .1062.0212.1593.0106.1487.1593.5311.3399.6586.4674.1274.0424.2655.1593.3718.223.0531.0319.0955.0425.1805.0319.1381.1487.2443.2974.4567.3505.0638.0531.0744.1062.1275.1593.085.0744.2337.1062.3293.1912.0531.0531.0424.1275.1274.17 0 .0425-.0106.0849-.0531.1168.0638.0637.0743.0106.1062.085.0744-.0106.1594.0106.2444.0743-.0107.0956.1274.2018 0 .2974.1062.0956.223.1806.3292.2868.1275-.0743.2975.1594.4143 0 .0637.0425.1593.085.1699.1593.0319.0425.0638.0213.0956.0532.0638.1487.3718.3292.4249.4779.1062.0319.1805.1275.3399.2762-.0213.0213.0318.0531.0531.085-.0213.0531-.0106.1062-.0212.1593.0318.085.1487.0531.1168.1168.0106.1169-.1275-.0424-.1912-.0106-.1062-.1274-.1594-.2443-.2443-.3611-.0744-.0425-.0956-.0425-.2019-.1275-.1168-.0956-.2336-.085-.4036-.2974-.1062.0531.0001.1275-.0955.1912-.1275-.0956-.2337-.1062-.3399-.1168l-.1169-.1169c-.1487-.0425-.308-.1487-.4461-.1381-.0638-.1487-.2974-.1805-.3505-.2974.0425-.0849.1381.0531.1912.0319.0425-.085-.1699-.1593-.2443-.2124-.0425.0425-.0319.0743.0212.1168-.1062.0637-.2231-.0956-.2655-.1912-.1806-.1168-.5205-.2655-.5842-.3611-.0319-.0213-.0532.0212-.085 0-.085-.0956-.2124-.1169-.2337-.1806-.1062-.0425-.1912-.0319-.2761-.0531 0-.17-.2868-.1062-.2656-.2868-.0956.0212-.2549-.1487-.3505-.1168-.0213-.1487-.2337-.1487-.3187-.2762-.0743-.0106-.1487-.0319-.223-.0212-.0638-.0744-.2656-.1063-.393-.1594-.0319 0-.0637.0107-.0956.0319-.0956-.0425-.0319-.1062-.0956-.1487-.085-.085-.1062 0-.1912-.0637.085-.0107.0106-.0319.0106-.085-.1381-.0319-.2974-.085-.4142-.0531-.1275-.0956-.2762-.0744-.3293-.1806-.1381-.0531-.223.0106-.3717-.0531-.0107.1593.2018.1593.2761.2974.085.0637.1593.0744.2337.0956.0425.0744 0 .1487.1274.1593.0319-.0318.0001-.0531-.0318-.0743.085.0106.3398.2337.4779.2443.0425.0212.0319.0531.0638.0743.0743.0107.1699.1063.223.0531.085.1063.0637.2231.2443.2656-.0319.0531.0638.0956.1275.1381.1169.0425.223.0637.3399.1168.0637.1062.2018.1912.2868.2974.1168.0638.2337.1275.3293.1381.1487.1487.223.085.3186.2124.0531-.0106.1062-.0106.1593 0 .0107.0425.0744.085.1381.1381 0 .0637-.0425.1275.0425.1912.0956.0319.0319-.085.0956-.1168.1169.0212.2549.1912.3824.2761.1381.0638.3717.1594.4567.2868.0744.0531.1381.0425.2231.085.085.0531.0425.0956.1275.1487.1911.0637.4142.3718.5948.3824.0212-.1062.0955-.0425.1699-.085l.1381.1381-.0744.0743c-.0531.0319.0425.085.0106.1169-.0531-.0531-.0424.0531.0107.085-.0744 0-.1381.0212-.2231-.0532-.0531.085-.1168.0107-.1806.0425-.0424-.0318-.0743-.0425-.1061-.0318-.1275-.2018-.5524-.2549-.6268-.5205-.0637-.0637-.1061-.0212-.1699-.085-.0106-.1274-.1699-.1487-.2549-.2761-.1168-.0531-.2337-.0956-.3612-.2018-.0424-.0319-.0743-.0425-.1061-.0213-.0956-.1593-.255-.1593-.3293-.2868-.1062-.085-.1913-.0212-.255-.1274-.0319-.0107-.0424.0318-.0849 0-.17-.1487-.3293-.2443-.4674-.255-.0956-.0956-.2868-.223-.4142-.223-.0956-.0956-.17-.2018-.3293-.2868-.1169-.0531-.2231-.0213-.2868-.1168-.0956-.0213-.2762-.0425-.3399-.1488-.1062.0107-.2549-.1274-.3718-.1062-.138-.0849-.1274-.0849-.2549-.1699-.1274-.0213-.2868-.1169-.4036-.1062-.0425-.0744-.0425-.085-.1381-.0744-.0425-.0212-.0319-.0425-.0637-.0637-.0638-.0425-.1063-.0106-.1594-.0213-.1699-.1062-.2443-.1274-.4036-.223-.0425-.0213-.085-.0213-.1062 0-.0212-.0531-.1487-.1169-.1806-.0531-.0424-.085-.0637-.0531-.1168-.1169-.085-.0212-.1806.0213-.2337-.0743-.0425.0106-.1062-.0319-.1168.0319-.0319-.0319-.0638-.0638-.0956-.0956-.085.0318-.2656-.1063-.3187-.0319-.0212-.0531-.138-.085-.1062-.1487-.0425-.0319-.1487-.0425-.0956-.0956-.2549.0106-.3611-.1275-.5417-.0425-.1593-.1168-.2443-.0212-.3611-.1593-.2018-.0213-.3399-.0638-.563-.1594-.2549-.0318-.4461.0001-.701-.1062-.0744-.0424-.0744.0319-.1275.0213-.0849-.0531-.1062-.0531-.1806-.0213-.1274-.0424-.1699-.0849-.2655-.0425-.0531-.0318-.2018-.0212-.2018-.0743-.0744-.0212-.1063.0106-.1381.0425-.0319-.0425-.0956-.0531-.1699-.0637-.0532-.0213-.0638.0106-.0744.0318-.0425-.0425-.0637-.0425-.1168-.0212-.085-.0107-.0744-.0744-.17-.085-.1593-.0425-.1381.0106-.2868.0212-.0106-.0531-.138-.0425-.138-.1062-.085 0-.0956.085-.2019.0638-.0743-.1594-.3718-.0213-.5629-.1381-.0638.0106-.1275.0318-.1381.1062-.0319-.0531-.1912-.0213-.1381-.1275-.1912.0106-.3292-.0425-.5417-.0637-.0106-.0212-.0319-.0425-.0212-.0743-.1594-.0107-.34-.0532-.4249.0106-.0956 0-.1381-.0319-.2124-.0425-.1806 0-.1806.0318-.3293-.0425-.2974-.0319-.4993-.0531-.7861-.0425-.0743.0213-.1486.0425-.2123.0744-.1063-.0425-.3294-.0744-.5206-.0213-.0637-.0106-.2017.0319-.2123-.0212-.2019.0849-.478-.0319-.6692.0743-.1062-.0318-.3506-.0106-.4249 0-.0956-.0106-.0744.0744-.1487.085-.2443-.0106-.4355-.0213-.6692.0425-.1487-.0213-.3292-.0213-.4142.0956-.1593.0212-.2868-.0956-.393.0318-.1912-.0637-.4143.0319-.5948.0956-.0531-.0424-.1382-.0531-.1806-.1168-.0956.0425-.1062.1381-.1487.2124-.0956.0425-.1381.0107-.2018.0956-.1169-.0106-.2869.0531-.3931.0319-.085.0637-.223.1062-.2974.1699-.0849-.0424-.1805.085-.1911 0-.085 0-.0425.0638-.0744.0956-.1593 0-.2125.1275-.2868.0956-.0531.0213-.0425.085-.0956.1062-.1168.0107-.1275-.0318-.2337.0425 0-.1062-.1381-.0106-.2018-.0425-.0637.0425-.1487.0638-.1487.1275-.1168-.0106-.2974.0956-.4142.085-.1806.085-.2337.1168-.3824.1062-.0956.0319-.1381.085-.17.1487-.0637.0212-.1274.0106-.1912.0213-.1274.138-.308.1168-.4567.2549-.1593 0-.2018.0212-.3399-.0425l-.2231.0956c.0425.1062.1913.0212.2444.1168.0106.1062-.1806.0638-.255.085-.1275.0637-.3292.2018-.4673.2124-.1168.0425-.2124.1381-.2655.1381-.085.0425-.0638.1062-.1276.1487-.2974.0213-.5735.3293-.9028.3718-.085.0425-.0531.0956-.1381.1274-.0425-.0424-.138.085-.1699.0107-.1168.138-.3612.223-.4886.2443-.085.0849-.1381.0637-.1912.1487-.0637.0212-.1487.0743-.1912.0318-.0425.0425-.0319.085-.1062.1275-.0956.0212-.1912.0319-.3187.1275-.0531-.0213-.1274.0212-.1805 0-.0213.0318-.0319.0637-.0107.0956-.0637.0424-.0955.0106-.1699.0849-.0531.0956-.1593.0744-.1487.1594-.0744.0318-.1381.0531-.1912.0531-.1168.138-.1806.0424-.2868.1274-.0425-.0531.085-.085.0106-.1381-.1487.0638-.2443.2337-.4036.2443-.1487.1594-.3293.2337-.4036.393-.0319-.0106-.0637-.0106-.1062.0213-.085.1912-.4143.3824-.4036.5736-.085.0637-.1063 0-.1488.1062-.0637-.0744-.1487.0212-.223.0318-.0744-.0424-.1487-.0637-.2231-.0637.0425-.085.0106-.2655.1169-.2868 0-.0743.1062-.1699.1168-.2443.1593-.0956.2656-.1912.3718-.3505.2124-.1593.3717-.2868.393-.4673.0425-.0319.1912-.0638.1805-.1381.0531-.0319.085.0212.1594-.0531.0637-.0425.0212-.0956.0531-.1381.0637-.0319.1381-.085.2018-.0956.0637-.1275-.0638-.0319-.0425-.1169-.0744-.0106-.1806.1275-.2443.0956-.0213-.0106 0-.0212.0106-.0425.1275-.0956.1381-.0637.1593-.0531zm2.0606-.4248c.2443-.0213.3824-.1487.6161-.2868.0744-.0212.1806-.0425.2125-.1168.138.0106.3398-.1275.5204-.2019.0425-.0637.1063-.1168.1487-.1699.1594-.0425.3293-.0956.4461-.0531.0956-.0319.0638-.085.1381-.0638-.0212-.0637 0-.1062.0638-.1487.1911-.0743.4036-.1593.5841-.2655-.1168-.0106-.0106-.1275-.0424-.17-.1594.0532-.1912.1488-.2656.2231-.0956-.0319-.1381.1168-.2018.1487-.0106-.085-.1062.0213-.1062-.085-.1912.0319-.5842.1806-.648.3506-.1168-.0744-.3611.0743-.4567.1911-.1274-.0637-.2655.0638-.4142.1487-.0319.0213 0 .0532-.0319.0744-.2018.0106-.3186.1487-.5098.2231 0 .0637-.0319.1274-.1063.1805-.1699.0107-.3292.2018-.478.2231-.0424.1062-.1699.1062-.1592.2018.2018-.1699.4779-.2443.6903-.4036zm3.8557-1.8695c.0638 0 .2443-.0955.2656-.1805-.1062.085-.1168.0212-.1806.0425-.0531.0212-.1168.0637-.1593.0849-.0531.0213-.1381.0107-.1275.1063.085.0212.1381 0 .2018-.0532zm.3081-.223c.0106.0425.0425.0531.0849.0531.0213-.0531.0107-.1168-.0849-.0531zm-.6373.3186c.0106 0 .0425-.0318.0212-.0318-.0106-.0106-.0319.0212-.0212.0318zm1.8163-.7541c0-.085-.0531-.085-.0956-.1062-.1912.0743-.2018.1805-.4248.1912-.0213.0637-.1381.0956-.1381.1805.2443-.0318.393-.0531.5841-.1912.0956-.0531.1275 0 .2125-.0318.1275-.0637.2549-.2337.3824-.2337 0-.0531-.0425-.0425-.0531-.085-.085.0638-.2125.1169-.3399.17 0 .0425.0637.0531.0212.0743-.0425-.0743-.0637.0425-.1487.0319zm-.786.2443c-.1062.0531-.2125.0956-.2337.1806.1381-.0319.2337-.085.2337-.1806zm-5.4065 2.7829c.0106 0 .0319-.0319.0106-.0425-.0106 0-.0318.0425-.0106.0425zm-.223.1168c-.0319-.0956-.1169.0425-.1806.0638.0425.0743.17 0 .1806-.0638zm7.3183-3.4839c.1063-.0956.1913-.0956.3187-.1487 0 .0425.2124.0106.1487-.0531-.0744-.0744-.3505.1274-.3399.0212-.0956 0-.085.0531-.1806.0638 0 .0849-.0106.0531.0319.1274-.0531.0425-.1169-.0425-.1169.0319.0744-.0106.0744.0743.17.0319zm3.8451-1.0516c-.0956.0319-.1912.1063-.2549.0107 0-.0531.085-.0319.0637-.1063-.1699-.0637-.393.0957-.6054.0107.0425-.085.1912-.0956.308-.1275 0-.0637-.0531-.0743-.1062-.0956.0106.0425-.0318.0637-.0956.0531.0319-.0849-.0531-.0637-.0743-.0956-.17.0425-.4036 0-.6373.0956.0531 0 .0106.0425-.0319.0531-.0213-.0424-.0956-.0531-.1699-.0531 0 .0319.0106.0744-.0213.0744-.0425-.0213-.085-.0213-.1593-.0106-.0744.0743-.1912.0743-.4037.1168-.0531.0425-.1274.085-.2124.1062-.0106-.0318 0-.0743-.0425-.0743 0 .0212.0107.0531-.0212.0531-.0531-.0425-.17.0531-.2443.0637-.2656.0425-.3612.0637-.5205.1487-.0212-.0531-.138.0212-.1699-.0212-.1062.0849-.2019.0531-.2974.1168-.1594.0212-.2019.0956-.2869.0319-.0318.0531-.0637.1168-.0531.1912-.1062.0743-.223.1274-.2336.2443.1062 0 .1487.0424.2443-.0425.0106.0212-.0213.0318-.0213.0531.1806-.0744.2762-.085.4249-.1169-.0106-.1381.1381-.2018.308-.1912.0531-.0106.0107-.0849.0744-.0955.2124.0956.4143-.1806.6267-.0956-.0106-.0425.0106-.0638.0531-.085.1062.0531.2655-.1275.4036-.0638.0638-.1487.3718-.0212.4249-.138.0425.0743.0637.1805.1168.2443-.1699.0318-.2018.0425-.4036.0849-.0637 0-.0637-.0637-.1593-.0212-.0532.0425.0212.1487-.0744.1593-.0531-.0956-.1062-.085-.1168-.1593-.2018.0319-.3187.1062-.4143.1912-.0106-.0319-.0743-.0212-.1062-.0319.0319.0956-.085.1062-.0956.17.0425.0425.0956.085.17.0956-.0425-.085.1274-.0425.1381-.0956.0531.0425.2018-.0319.2549.0106 0-.0319 0-.0637.0531-.0637.2549-.0319.4249-.0107.701-.1275.2125.0212.3293.0319.4886-.0531v.0531c.085-.0319.0956-.0319.1806-.0212 0-.0744.1062-.085.1806-.1169.0531-.0318.0743.0425.0955.0425.0744.0106.1488-.0637.2444-.0106.0531-.0319.1274-.0744.1805-.1062.1912.0849.3293-.0319.4674.0531.1168-.0744.3505-.085.4992-.0637.1062-.0956.1912-.0957.3718-.0744.1806-.0637.3611-.0956.5948-.0425.1593.0106.1593-.0212.2762.0106.1274-.0531.4142.0213.4779-.1062-.0956-.0212-.1062-.1062-.2124-.0637v-.0744l-.1274-.0106c-.1275-.1275-.2975-.1062-.4674-.1699-.0106.0318 0 .0743-.0319.0743-.1806-.0106-.3717-.0637-.5098-.0212-.0319-.0213-.0107-.0956-.0956-.0744-.085.0425-.2443.0319-.3187.0744-.0425-.0425-.1062-.0638-.1912-.0744-.0637 0-.0212.085-.0956.0744 0-.0319 0-.0744-.0318-.0744.0106.0744-.0425.085-.0956.0531.0531-.0318.0955-.0849 0-.0956 0 .0638-.0107.1169-.0638.1594-.0531-.0319-.1699.0212-.223-.0638-.0212.0638-.0213.1169-.085.1806.1062.0106.1381-.0213.1912.0637.0106-.0318.0956-.1274.1275-.0531.0424.1275-.1169.0425-.1594.0637zm-2.9422.7011-.085.0212c0 .0425.0425.0531.0957.0319zm-1.6251.2762c.1699-.0319.2549-.0425.2761-.1806-.1487.0637-.2443.1593-.4142.1593l.0212.0956c.0956.0106.0638-.0531.1169-.0743zm-.2656.0955c.0106 0 .0425-.0212.0213-.0318-.0106 0-.0425.0318-.0213.0318zm8.3593-.8603-.0106.0531c.1806.0425.2231.0319.3718.0212-.0212-.0956.0743-.0743.1062-.1062-.0531-.0531-.1699-.0425-.2443-.0319-.1699-.0318-.3186 0-.4036-.0424-.0319.0531-.2124-.0425-.1912.0531.1593-.0106.2443.0318.3717.0531zm-.4992-.0744c-.1062-.0212-.1274-.0849-.2761-.0743-.0107.0637-.1062.0425-.1062.1168.1912.0531.2761.0319.3823-.0425zm5.4702 1.2534c.0956.0106.0744.0744.1275.0956.1806-.0212.308.0743.478.0531.0531.0956.2443.1487.2974.2443.0425-.0212.0956-.0212.1593.0106.1593.0956.3611.1806.478.2868.0212-.0212.0531-.0212.0743-.0212.1487.0956.3081.0425.4037.1699.0637-.0425.1699.0319.2761.0744.0532-.085-.0212-.0213-.0743-.0638 0-.0425-.0425-.0743-.085-.0956-.1381-.0637-.2868-.1593-.4036-.1699-.0531-.0531-.1168-.1062-.1593-.1593-.0425.0318-.1063.0318-.1806.0106-.0532-.0319.0212-.0956-.085-.1169-.2018.0213-.393-.1805-.6054-.1805-.0637-.1169-.308-.17-.393-.1806-.0531-.0319-.0319-.085-.085-.1168-.1593 0-.2549-.1062-.3824-.1381-.0425.0531-.2231-.1169-.2337-.0106.1912.0106.1806.1593.4249.2124-.0106.0743-.0638.0319-.0319.0956zm-4.2912-1.094c.0744-.0744.34.0637.3612-.0744-.1381-.0106-.1806-.0744-.3399-.0744-.085.0213-.0956.085-.1912.0213-.0106.085.0531.1168.1699.1275zm7.1273 2.273c-.0531-.0531-.0319-.1168-.085-.1593-.0425.0743-.1593-.0425-.1912.0318.1062.0744.1699.1594.2762.1275zm-6.628-2.2412c.2443.0319.3611-.0849.5948.0319.0531-.0319.1806.0319.1699-.0637-.0106-.0425-.1168-.0319-.1168-.0744-.0956.0106-.1912-.0531-.2762-.0531-.0106 0-.0743.0319-.1062.0319-.1168 0-.2761-.0213-.3292.0743.0531 0 .0849.0106.0637.0531zm-16.6018 3.9407c.0212.0319.0531.0425.0955.0212-.0212-.0424-.053-.0425-.0955-.0212zm22.943-1.8801c-.1063-.138-.1275.0638 0 0zm-5.056-1.9437c-.0319-.0107-.0425-.0319-.0531-.0638-.085 0-.1699 0-.1806.0956.1169.0425.1912.0319.2337-.0318zm-17.4303 3.5264c.0319-.0213.0744-.0531.0637-.0744-.0318.0213-.0743.0425-.0637.0744zm23.3148-1.1578c-.0106.0106.0106.0319.0318.0106 0 0-.0106-.0318-.0318-.0106zm-8.5187-2.7723c0 .0213.0531.0319.0637.0107 0-.0319-.0318-.0213-.0637-.0107zm3.5902.6055c-.0319.0849.1274.1274.2018.1062l.0212-.0744c-.1381-.1062-.4036-.1805-.5311-.0956.1062.0425.2231.0638.3081.0638zm-1.4446-.2974c0 .0212.0425.0425.0638.0106-.0425 0-.0425-.0425-.0638-.0106zm-16.5062 3.1865-.0531.0318.0319.0425.0531-.0318zm18.9599-2.5492c0 .0106.0105.0318.0318.0106 0-.0213-.0212-.0425-.0318-.0106zm-.1913-.0319c.0212 0 .0638.0213.0638 0-.0212-.0106-.0532-.0212-.0638 0zm-.1805-.1381c-.0744-.0318-.1275-.0212-.1593 0 .0212.0531.1168.0425.1593 0zm.1487.0425c-.0744-.1593-.1912.0531 0 0zm-.308-.1699c-.0744-.0638-.1169.0743-.0213.0743zm7.1271 3.6857c-.0106.0106 0 .0425.0213.0212.0106-.0106 0-.0318-.0213-.0212zm-23.7183-2.2199c-.0637.0212-.0956-.0107-.1594.0318.0213.0744.1806.0638.1594-.0318zm20.0963-.2231c-.0106.0212-.0213.0637.0212.0319.0107-.0107.0107-.0531-.0212-.0319zm-1.6782-.9772c.0212.0956.1487.1062.2549.1381.0106-.0956.1062-.0637.17-.0637.0531.0318.0531.0849.1274.1062.1594-.0106.2125.1699.3293.1168-.0743.0425.0319.1381.0637.085-.1274-.0744.1275-.0425.1488-.0956.1168.0425.1486.0319.1911.1168.0107-.0424.0531-.0424.1062 0 .0956.0956.1275.1063.2125.2125-.0531-.0319-.0744-.0107-.0957.0425.0956.0743.0638.0424.1594.1062.0106-.0106.0212-.0425.0531-.0319.1593.1168.2868.085.4461.1169-.0106.0531 0 .1062.1062.138.1169-.0531.2868.0213.4037 0 .0318.1062.3186.2549.4036.2018.0956.1275.3505.2337.4248.1169-.0849-.1381-.1805-.0744-.2761-.2337-.1381-.0637-.3187-.0956-.4355-.223-.0425-.0213-.0637.0106-.1062 0 0-.0319-.0106-.0638-.0637-.0957-.1169-.0212-.2231-.138-.3612-.1487l.0213-.0424c-.1487-.0532-.2019-.17-.3187-.1594.0106-.0424-.0212-.0743-.0956-.1062-.2655 0-.5523-.1593-.7753-.1806-.0638-.1274-.2444-.0637-.3506-.1805-.0637-.0213-.085.0425-.1487.0212-.0531-.1062-.2124-.0637-.308-.1062-.0213-.0319-.1062-.0531-.0637-.1062-.0744-.0319-.1063-.0106-.17-.0213.0425-.1487-.1274-.0106-.1487-.138-.085.0849-.4037-.0532-.5099-.1381-.0956.0425-.2124.0637-.3505.0318.0212-.0637.0638-.0318.0319-.0956-.1487-.0106-.308-.0637-.393-.1487-.0956.0638-.17.1487-.2974.17.138.0956.2018.0637.3399.085.0743.0318.0637.0956.1593.1274.0425.0106.0744-.0212.1275.0213.0106-.0425.0425-.0531.085-.0531.138.0424.2123-.0425.3504-.0107.0638.0744.1594.0106.1594.1169-.0638.0425-.0956.0425-.085.1274.1806.0638.3293.1912.478.1806zm-12.2894-1.3914c.0319.0956-.0743 0-.1593.0637.0213.0743.2231.0743.2656.0212-.0638.0107-.0213-.1062-.1063-.0849zm-.3399.1487c-.0106-.0638-.0637-.0638-.1168-.0744.0318.0637-.1169.0531-.1169.1062.1169-.0212.1381.0319.2337-.0318zm.1487-.0744-.0955.0213c0 .0424.0424.0531.1061.0318zm8.2743-.0956c.085.0319.0744-.0319.1381-.0212.1806.138.4674.1699.7223.1699.0956.0213.0425.1062.17.1169.0212-.0319.0637-.0532.1168-.0532.1062.0107.1062.0532.1806.0744.0424-.0425.0956-.0637.2124-.0212l.0319-.1169c-.3293-.0531-.6798-.2018-.9984-.1806-.1169-.138-.1913-.0106-.3506-.0955-.1168.0424-.1487-.0107-.2655.0212-.0744-.0637-.2443-.0425-.3293-.0212.0319.0849.308.0531.3717.1274zm-7.4777-.1274c-.0849-.0532-.1062.0424-.1593.0743.0531-.0212.1381-.0319.1593-.0743zm16.8355 3.9619c.085.0531.1806.1699.2337.1168-.0425-.1168-.1274-.0212-.1805-.1381-.0319-.0212-.0532 0-.0957-.0425-.0956-.0531-.2549-.2549-.3186-.1699.0212.1274.2761.2549.3611.2337zm-1.4126-.9029c0-.1487-.1169.0213 0 0zm.1699.0425c.0212.0106.0531.0319.0637.0106-.0212-.0106-.0531-.0318-.0637-.0106zm.4567.2443c.0319.0319.0319.0637.0956.0956.0744-.0319-.085-.1381-.0956-.0956zm.8498.4461c-.0637-.1168-.1806-.1168-.2443-.2124-.0213.0425-.0638.0212-.085.0637.138.0637.1912.1593.3293.1487zm-22.2208-2.6129-.0637.0212.0213.0425.0637-.0319zm-.0849.0425c-.0425.0106-.0531-.0107-.1062.0212.0106.0425.0531.0531.0849.0425 0-.0213.0213-.0425.0213-.0637zm23.9202 3.7813c-.0531-.0319-.2443-.1806-.2019-.0744.0319-.0318.1381.1487.2019.0744zm-2.5492-1.9332c.0531 0 .1062-.0106.1805.0319.0531-.085-.0531-.1699-.1487-.2549-.0425.0743-.1593-.0425-.1912.0531.1169.0531.0319.1168.1594.1699zm-.5843-.3611c0 .0106.0532.0106.0426 0-.0107-.0213-.0532-.0213-.0426 0zm.1806.0744c0 .0106.0531.0212.0425 0-.0106-.0107-.0531-.0107-.0425 0zm-.2655-.1912c.0319.0212.0212.0531.0531.0318.0106-.0212-.0319-.0531-.0531-.0318zm1.4552.786c-.0956-.0956-.1381-.0319-.2231-.0956-.0531-.0319-.0425-.0638-.0956-.0956-.0743.0212-.2018-.0956-.2655-.0319.2018.0637.3611.1806.4567.3187.0956-.0107.1169-.0107.1275-.0956zm.2443.1699c-.0638-.0531-.1169-.0743-.1594-.0637.0425.0425.0107.0956.1063.1381zm-3.9301-2.8466c.0425-.0425-.1062-.1487-.1381-.1169.0531.0425.0319.0956.1381.1169zm-.308-.1487c0 .0637-.0425.1274.0318.1805.0637.0107.1594.0425.1594-.0955zm2.0712.871c0 .0106.0531.0106.0425-.0106 0 0-.0531-.0107-.0425.0106z"/><path d="m38.4657 73.5935c-.0213.0427-.032 0-.0213-.0214.0213-.0427.064-.032.0426 0 0 .0107-.0106.0107-.0213.0214z"/><path d="m63.3422 70.4707c.0534.096-.0641.0213-.0961-.0214.0427-.0747.0641.0961.0961.0214z"/><path d="m48.5775 67.7194c-.0212.1593-.1805.1062-.3717.1699.0106-.0743-.0743-.0318-.1062-.0531.1062-.0106.2974-.1805.4779-.1168z"/><path d="m49.3846 67.4432c-.0637.0744.0213-.0637-.0424-.0743-.1275.0425-.2019.0106-.2868.0956-.0638 0-.0744-.0531-.1169-.085-.1487.0956-.2868-.0319-.4036.0637-.1275-.1487.2125-.0637.2231-.1168.0425 0 .0318.0425.0424.0637.0744-.0743.2231-.0425.393-.1168.0638.1062.2444.0425.34-.0319.0531-.0106.0637.0213.1061.0106.085-.0849.2019-.0212.2656-.1062.0319.0106.0637.0106.0743.0425.0425-.0106.0638-.0425.0638-.085.1912.0213.2337-.0849.3718-.0106.0318.0956-.1594.0531-.2337.0744-.0638.0531-.0531.1593-.2231.1487.0213-.1487-.2549-.0213-.2655.0318-.085-.0425-.2868 0-.3081.0956z"/></g><path d="m39.2197 19.5922c-14.4669 3.0803-23.7078 17.3029-20.6275 31.7697l52.4078-11.1422c-3.0803-14.4669-17.3135-23.7078-31.7803-20.6275z" fill="#6cbaab"/></svg>