<svg xmlns="http://www.w3.org/2000/svg" fill="none" viewBox="0 0 88 88"><path d="m60.4722 27.01h-43.2v43.2h43.2z" fill="#e26a6a"/><g fill="#1e1e1e"><path d="m25.052 47.44c.04-.03-.03.07-.05.09-.05.02.03-.08.05-.09z"/><path d="m30.2822 41.75c.01.02-.07.1-.12.15l-.2.2c-.05-.03.23-.25.32-.35z"/><path d="m35.2321 36.47c0 .04-.1201.15-.1401.13.06-.07.1101-.14.1401-.13z"/><path d="m37.6521 39.87c.06-.07.54.42.56.53.37.32.4.39.66.7-.2-.12-.34-.29-.47-.48-.21-.2-.63-.54-.75-.75z"/><path d="m40.8522 42.94.2699.27c-.03.11-.3499-.23-.2699-.27z"/><path d="m10.3322 60.52c0 .04-.1201.15-.1401.14.02-.06.0701-.06.1401-.14z"/><path d="m37.6121 39.66-.2001-.21c0-.1-.0399-.22-.0499-.32.36.33.35.34.5.58-.19-.1-.13-.01-.25-.05z"/><path d="m12.2222 58.59-.14.14-.03-.04.14-.13z"/><path d="m11.912 58.83c.01.02-.07.1-.12.15-.01-.02.08-.1.12-.15z"/><path d="m10.4021 60.29-.03-.04c.11-.16.09-.08.27-.27l.03.04c-.19.18-.11.17-.27.27z"/><path d="m38.2321 40.02c-.06-.01-.06-.06-.13-.14.04 0 .15.13.13.14z"/><path d="m28.3121 41.56c-.3.26-.7099.69-.8499.61.12-.08.2999-.25.3899-.28.14-.14-.05-.1.06-.23.22-.17.36-.22.4-.1z"/><path d="m35.3121 36.01c.03.04-.07-.03-.09-.05-.03-.05.07.03.09.05z"/><path d="m35.1022 35.8c.03.04-.07-.03-.09-.05-.02-.04.08.03.09.05z"/><path d="m29.1121 40.57c.21-.16.9-.87 1.18-1.13.01.17-.56.54-.78.86-.17.16-.33.3-.4.27z"/><path d="m30.7222 38.92c.38-.4.47-.29.78-.7-.04.21-.6.68-.78.7z"/><path d="m29.032 40.62c-.06-.03.1-.19.23-.33-.04.09-.06.17-.23.33z"/><path d="m32.8121 36.79c.04-.02-.03.07-.05.09-.04.02.03-.07.05-.09z"/><path d="m29.4622 40.1c.01.02-.07.1-.12.15-.01-.02.07-.1.12-.15z"/><path d="m27.0322 42.4c.17-.26.57-.57.68-.84.14-.16.45-.28.41-.4.16-.15.18-.06.39-.28.03.14-.59.66-.66.85-.36.36-.55.44-.82.67z"/><path d="m33.822 35.76c.29-.4.48-.39 0 0z"/><path d="m37.1621 37.58c-.07-.09-.11-.16-.08-.18.15.14.1.15.08.18z"/><path d="m29.1321 40.29c.05-.15.4-.47.64-.73.03.04.21-.16.2-.06-.02.07-.26.26-.24.31-.28.15-.36.28-.6.48z"/><path d="m35.312 35.64c-.24-.12-.07-.24 0 0z"/><path d="m30.9421 38.58-.06-.07.61-.61c-.1.18-.33.43-.55.68z"/><path d="m33.2222 36.23c-.27.27-.38.3-.65.57-.03-.1.31-.27.3-.39.26-.24.19-.17.49-.45.06.02-.25.27-.14.27z"/><path d="m32.4522 36.95c-.14.12-.17.07-.37.3-.06-.13.33-.36.37-.3z"/><path d="m31.942 37.39c.04-.03-.03.07-.05.09-.04.02.03-.08.05-.09z"/><path d="m59.452 39.64c.04-.03-.03.07-.05.09-.05.02.02-.08.05-.09z"/><path d="m59.4322 39.62c-.04-.03.01-.11.16-.26.19-.24.19-.46.54-.7.09.01-.11.18-.16.26.2-.12-.08.14 0 .16-.28.28-.29.35-.54.54z"/><path d="m60.902 36.55c.04-.03-.03.07-.05.09-.05.02.02-.08.05-.09z"/><path d="m12.5121 58.34c.13-.29.52-.64.98-1.07.4-.43.89-.92 1.17-1.29.3-.26.59-.54.75-.74.15-.16.12-.02.25-.15.22-.21.41-.41.45-.51.19-.16.48-.42.53-.56.17-.12.37-.28.65-.57.28-.22.35-.31.58-.5.09-.11.16-.2.24-.31.52-.46.64-.64 1.3-1.28.12-.15.2-.28.28-.41-.15.02-.82.73-.81.83-.17.06-.67.65-.81.67-.25.23-.11.23-.37.46-.15.01-.53.43-.67.53-.48.53-.71.74-1.1 1.22-.17.17-.24.18-.32.21-.12.12-.17.19-.18.24-.39.27-.51.48-.96.94-.16.14-.38.35-.46.35-.18.22-.47.5-.68.67-.33.4-1.01.9-1.2 1.25-.29.16-.6.6-.93.82-.12.14-.14.21-.31.37-.27.21-.67.66-.92.84-.9 1-2.12998 2.02-2.63998 2.67-.23.14-.35002.08-.73002.46-.11-.07-.36.1-.57.2-.14-.05.22999-.39.11999-.46.68-.84 1.26003-1.33 2.18003-2.32.3-.29.46999-.38.77999-.7.23-.25.33999-.42.48999-.61.26-.26.37-.28.59-.48.15-.13.17-.19.26-.29.29-.23.6-.5.97-.93.76-.67 1.1-1.12 1.81-1.71.2-.17.11-.17.24-.31.2-.22.26-.23.42-.39.21-.17.16-.2.33-.36.25-.14.64-.61.87-.9.22-.11.49-.49.59-.48.12-.11.17-.19.17-.24.23-.13.53-.56.7-.66.13-.14.14-.21.31-.37.17-.17.24-.18.37-.3.15-.17.56-.49.45-.51.13-.05.72-.59.75-.74 1.04-1.07 1.82-1.78 2.58-2.58.04-.1.18-.25.3-.39.26-.27.32-.23.52-.42.21-.23.44-.61.67-.69.18-.17.2-.25.15-.28.44-.36.9-.77 1.37-1.19.11-.13.28-.29.31-.37.62-.51 1.02-1.1 1.51-1.62.38-.34.68-.61 1.07-.96-.01.27-1.03.98-.98 1.23.3-.16.34-.35.68-.67.16.04-.29.44-.19.52-.4.29-.69.53-1.07.95l-.09-.11c.26-.3.25-.17.44-.37.16-.23-.29.15-.52.42-.05.06-.16.26-.02.12.03.05-.19.18-.17.1-.23.23-.16.26-.34.34-.13.15-.21.27-.21.34-.25.23-.26.15-.39.28-.15.19-.22.33-.25.45-.3.36-.35.42-.62.75l-.03-.04c-.15.28-.58.53-1.02 1.01 0-.07-.09 0-.13-.01-.22.28-.5.75-.84.93-.25.27-.32.42-.56.68-.16.13-.41.4-.4.26-.17.24-.64.67-.59.78.22-.12.38-.37.55-.54.12-.12.16-.12.29-.25.25-.26.47-.58.93-.98.21-.22.22-.13.39-.28.49-.46.74-.78.97-1.09.15-.16.19-.13.3-.23.09-.08.23-.26.33-.36.19-.18.32-.31.51-.43 1.3-1.3 2.27-2.32 3.33-3.32.17-.18.32-.33.38-.44.7-.59 1.36-1.37 1.86-1.8.18-.2.34-.38.52-.58.39-.26 1.11-1.04 1.38-1.33.22-.22.32-.25.56-.52.04 0 .14-.09.18-.08.22-.29.3-.24.63-.59 0-.14-.23.08-.47.33-.07-.1.3-.47.6-.79.07-.07.03-.07.04-.1.16-.09.54-.53.61-.46.3-.32.65-.73.94-.96.07-.06.11-.11.14-.15l.02-.02.03.02c.07.05.12.07.17.09.16.12.1.17.23.3.07.07.16.1.24.18.19.17.34.39.49.46 0-.1-.23-.21-.34-.34.06-.09-.32-.46-.32-.6.12.11.11.14.1.17.17.17.21.13.33.23.16.25.49.57.62.73-.31-.15.11.25.05.32.21.23.38.18.42.39.17.15.15-.03.41.28.01-.06-.16-.22-.04-.21.23.19.45.49.66.57.08.11.04.15.04.21.16.1.33.32.47.48.23.1.39.34.78.72 0-.22-.75-.76-.96-1.07.26.04.74.71 1.25 1.2 0 .1.44.47.31.48.31.29.51.37.69.67.11.09.19.14.26.16.12-.04-.21-.36-.1-.41-.3-.31-.3-.11-.58-.39-.06-.13-.2-.3-.16-.36-.18-.17-.17-.04-.34-.21-.14-.21-.58-.59-.7-.78.1-.02.47.42.71.65.19.14.44.38.61.49.28.35.47.37.66.7.11.12.19.17.24.17.23.31.71.8 1.11 1.19-.01.06-.1-.01-.14-.01.24.23.45.39.61.49.32.33.61.61.8.71.31.29.35.41.66.7.02.07.22.38.28.39.09.11-.02.01-.04.03.16.2.43.37.4.41.18.17.26.16.46.37.21.08.49.42.63.47.1.09.19.19.18.22.23.14.29.23.53.43.18.18.39.39.45.49.17.15.28.2.41.28.13.14.08.17.13.26.36.28 1.02.81 1.32 1.27.1.08.17.1.21.08.42.43.58.43 1.07.98.17.14.3.2.38.18l.01.02h-1.46c.31-.29.56-.66.7-.62.25-.24.21-.3.43-.53.05 0 .12-.12.12-.15.17-.13.28-.16.47-.33.3-.35.48-.71.97-1.09.26-.27.36-.45.47-.63.18-.14.13-.13.36-.32.24-.27.3-.43.71-.8.08-.12.29-.32.21-.34.21-.21.3-.22.45-.35.32-.29.39-.43.67-.69.27-.21.64-.58.82-.81.22-.16.37-.2.58-.34.2 0 .04.32.34.13.23-.2.04-.15.23-.32.33-.28.64-.49.85-.77.27-.16.77-.71 1.03-.85l.41-.41c.02.01.27-.16.22-.18.11-.07.18-.09.27-.13.17-.2.12-.27.25-.45.34-.26.6-.62.69-.51.21-.21.51-.48.6-.63.01-.1-.53.37-.07-.09-.06-.03-.25.14-.4.26.19-.27.28-.31.5-.6.18-.09.21-.13.39-.28.09-.1.02-.1.01-.14.26-.2.7-.56.74-.76.17-.17.23-.18.37-.3.38-.36.5-.56.77-.72.09-.21.73-.74.58-.8.15-.07.42-.33.55-.38.12-.15.14-.23.13-.3.45-.43.97-.94 1.34-1.38.22-.23.24-.14.4-.26.26-.34.57-.7.87-1.06l.25-.15c.19-.17-.15-.04.15-.28.1 0-.06.15 0 .16.26-.23.24-.3.2-.36.17-.24.69-.7.68-.83.25-.16.45-.5.64-.57.08-.08.03-.09.02-.12.12-.12.44-.34.48-.47.1-.09.07.03.18-.08.15-.16-.11.05.02-.12.25-.2.6-.5.83-.79.21-.07.48-.47.67-.53.19-.25.55-.61.93-.98.17-.08.41-.23.34-.03-.11.12-.14.11-.17.1-.09.25-.45.63-.84.93-.04.1-.22.29-.28.41-.23.22-.36.3-.63.59-.29.38-.83.86-1.16 1.31-.19.09-.35.4-.44.37-.17.22-.57.59-.71.8-.12.12-.16.12-.29.25-.25.23-.12.23-.37.46-.11-.06-.25.27-.41.4l-.04-.06c-.19.23-.41.41-.63.59-.31.4-.32.31-.67.69-.09.04-.21.14-.32.21-.12.1-.1.13-.19.22-.17.11-.45.42-.54.4-.05.18-.29.48-.5.76-.35.32-.34.32-.6.62-.09.04-.21.14-.32.21-.15.14-.21.23-.16.26-.15.13-.23.15-.44.37-.16.12-.07.13-.11.17-.13.16-.39.34-.21.34-.14.12-.11-.02-.32.21.04.07.21-.22.21-.04.18-.2.4-.43.63-.59.07-.08.02-.08.11-.17.5-.47.79-.8 1.12-1.04.05-.08.08-.14.09-.19.18-.19.56-.51.6-.63.63-.47 1.67-1.68 2.39-2.36.22-.2.09-.18.31-.38.16-.14.25-.17.39-.28.21-.23.41-.53.61-.61.08-.11.18-.23.23-.33.48-.38 1.29-1.28 1.66-1.6.23-.27.62-.64.87-.89.13-.13.2-.23.3-.39.42-.38.81-.68 1.16-1.15.17-.16.28-.21.44-.37.24-.23.47-.54.72-.78.17-.16.27-.17.44-.37.07-.03.13-.04.14.03.19-.18.11-.17.27-.27.06-.14.2-.32.42-.55.17-.05.52-.41.54-.24l.89-.88c0-.18.61-.72.45-.81.15-.16.32-.38.48-.47.11-.1.1-.13.19-.22.34-.25.99-1 1.33-1.24.16-.23.41-.46.86-.91.03.01.14-.11.22-.18.07 0 .19-.08.28-.11.19-.14.24-.33.34-.34.25-.14-.19.27-.2.36-.34.31-.61.54-.93.82-.15.18-.18.22-.45.51-.3.32-.39.54-.98 1.07-.02.17.25-.11.25.01-.31.33-.45.55-.59.78l-.34.34c-.24.33-.62.75-.77 1.02-.34.24-.68.74-.96.94-.1-.02.27-.32.28-.41-.1-.02-.5.48-.68.67.02.05.1 0 .25-.15-.01.16-.45.54-.67.69-.41.45-1.15 1.29-1.39 1.47-.07.08-.02.08-.11.17-.29.25-.48.53-.62.61-.22.25-.31.42-.47.63-.28.1-.57.67-.87.75-.1.2-.62.63-.69.82-.29.14-.59.59-.92.84-.14.17-.27.34-.35.48-.21.17-.58.64-.84.93-.05.08-.08.14-.09.19-.21.22-.22.13-.39.28-.27.23-.16.24-.38.44.1-.18-.03 0-.11.01-.26.32-.58.67-.73.92-.35.31-.54.63-.82.81-.3.32-.33.49-.68.84.23-.04.57-.5.89-.72.24-.22.38-.39.53-.56.19-.13.23-.06.45-.35 0-.06-.08.02-.17.1.14-.18.93-.86 1.15-1.16.11-.11.13-.1.22-.18.13-.17.44-.44.44-.53.3-.24.47-.26.81-.67.05.04.26-.19.44-.37.24-.28.44-.52.69-.82.26-.2.63-.56.93-.82.27-.28.55-.58.71-.8.47-.42.45-.54.81-.83.06-.11.13-.22.22-.34.1-.06.26-.22.42-.39.12-.05.18-.01.42-.24.19-.23-.12.01-.09-.11.2-.26.68-.69 1.01-1.03.29-.34.78-.92 1.12-1.2.19-.2.25-.33.44-.53.2-.22.23-.17.42-.39.35-.45 1.19-1.19 1.43-1.58-.18.06.02-.15.03-.27l.41-.4.06.07c.01.06.21-.17.25-.15-.16.16.07.03.17-.1-.09.15-.12.27-.34.5.12.01-.11.23-.12.31-.12.12-.17.19-.18.24-.55.47-1.14 1.38-1.75 1.79-.2.19-.18.25-.38.44-.27.14-.49.48-.85.77-.24.28-.46.56-.84.93-.12.12-.17.19-.18.24-.43.33-.63.66-.97.93-.3.3-.31.44-.59.64-.07.08-.02.08-.11.17-.49.47-.89.89-1.12 1.2-.32.29-.81.77-1 1.05-.31.27-.59.5-.99.91-.26.28-.37.5-.65.71-.19.23-.51.65-.79.85-.14.23-.62.65-.76.88-.37.35-.35.33-.7.66-.24.29-.65.69-.83.95-.19.12-.21.14-.34.34-.11.11-.13.1-.22.18-.17.17-.19.24-.31.37-.47.44-.62.59-1.04.99-.12.12-.17.19-.18.24-.11.06-.44.37-.39.42-.19.12-.2.16-.37.3-.18.19-.29.41-.53.56-.05.08-.25.26-.16.26-.11.08-.19.15-.3.23-.12.2-.63.62-.62.75-.12.07-.37.34-.4.26-.13.12-.33.35-.3.23-.46.58-.84.84-1.07 1.26-.45.37-.49.57-.9.86-.41.48-.75.8-1.28 1.3-.53.58-.86 1.03-1.51 1.63-.2.17-.11.17-.24.31-.23.18-.28.25-.4.42-.31.3-.43.38-.6.63-.15.13-.43.47-.49.45-.17.17-.19.24-.23.33-.1.06-.26.22-.43.39-.12.11-.12.14-.11.17-.12.08-.19.15-.27.27-.2.2-.24.17-.44.37-.37.36-.28.32-.57.66-.07.01-.33.3-.39.28-.18.19-.11.25-.35.48-.31.12-.75.75-1.21 1.15l-1.43 1.24-1.02-1.24-.1-.12c-.16-.14-.31-.24-.36-.2-.04-.11-.45-.44-.26-.4-.46-.41-.75-.75-1.21-1.23-.02-.05-.04-.1-.01-.11-.36-.36-.75-.78-.98-.93-.23-.21-.3-.33-.45-.49-.41-.4-.43-.38-.72-.77-.64-.68-1.09-1.14-1.75-1.78-.18-.15-.36-.3-.53-.43-.21-.27-.67-.79-1.13-1.18-.13-.15-.47-.43-.45-.49-.52-.41-1.03-1.11-1.52-1.47-.21-.27-.74-.8-.92-.97-.2-.22-.23-.14-.39-.3-.53-.58-.9-1-1.46-1.52-.3-.36-.67-.76-.98-.93-.35-.36-.5-.69-.86-.9-.2-.28-.48-.57-.77-.84h2.26c-.18.2-.36.4-.53.58-.14.07-.33.22-.43.23-.21.24-.24.37-.31.53-.21.24-.31.29-.45.51-.27.22-.67.66-.92.84-.19.25-.51.58-.69.82-.2.11-.41.46-.44.37-.19.17-.1.17-.16.26-.38.32-.5.58-.67.69-.14.14-.09.18-.23.33-.28.25-.29.21-.56.52 0-.14-.34.26-.47.33-.14.16-.36.38-.37.46-.27.21-.72.7-.99.91-.44.47-.57.61-.9.86-.23.23-.34.38-.43.53-.17.15-.3.26-.44.37-.33.43-.73.73-1.12 1.2-.37.29-.48.39-.79.54l-.55.54c.06.1.43-.3.53-.26-.01.14-.43.4-.63.59-.33.34-.82.89-1.16 1.15-.3.27-.55.59-.68.67-.2.2-.19.28-.36.46-.68.53-1.48 1.5-2.25 2.08-.2.19-.18.25-.38.44-.06-.01-.37.37-.39.28-.34.41-.95.95-1.26 1.18-.24.28-.34.31-.53.56-.16.14-.38.35-.45.35-.12.14-.14.21-.31.37-.24.18-.45.33-.8.69-.1.04-.3.22-.4.26-.08.09-.12.16-.09.19-.16.16-.23.17-.43.39-.2.26-.4.36-.45.51-.18.16-.33.28-.45.35-.38.42-.43.32-.73.62-.06-.03.25-.28.14-.28-.38.32-.71.74-1.05.97-.44.5-.89.85-1.2 1.25-.05.01-.12.05-.23.16-.37.48-1.23998 1.25-1.39998 1.61-.25.23-.21002.11-.42002.39-.05-.08-.33001.22-.48001.31-.1-.01-.22998.03-.38998.12.16-.21.29001-.53.54001-.7.09-.16.37999-.44.48999-.61.41-.36.72998-.68 1.07999-1.1.59-.56 1.03-.99 1.24-1.36.12-.12.44-.34.48-.47.14-.12.17-.07.37-.3.17-.17.13-.2.23-.33.17-.14.36-.33.51-.43.24-.31-.12.02 0-.16-.15.08-.48.47-.59.48-.02 0 .01-.04.05-.09.07.04.07.07.1.07zm4.72-3.56c.55-.4.96-.83 1.55-1.43.17-.14.44-.37.55-.54.31-.2.84-.75 1.27-1.16.12-.16.3-.36.44-.53.39-.34.79-.71 1.05-.83.23-.2.18-.24.34-.34-.03-.06.04-.17.21-.34.46-.43 1-.94 1.43-1.41-.26.19.02-.17-.03-.2-.39.36-.48.56-.69.82-.19.1-.36.41-.52.57 0-.11-.25.21-.21.04-.44.36-1.41 1.25-1.63 1.64-.24.07-.85.69-1.12 1.04-.24.08-.63.53-1 .89-.09.09-.04.09-.11.17-.44.31-.79.74-1.28 1.16-.04.11-.15.27-.35.48-.38.26-.84.84-1.21 1.09-.18.26-.45.43-.5.6.57-.57 1.25-1.13 1.81-1.72zm9.6-9.4c.15-.12.58-.59.64-.73-.26.32-.27.24-.42.39-.11.12-.28.3-.4.42-.14.14-.33.27-.31.37.21-.13.34-.27.49-.45zm.76-.88c.02.04.09 0 .18-.08.08-.12.05-.17-.18.08zm-1.53 1.6c.02-.01.1-.11.05-.09-.01.02-.09.12-.05.09zm4.31-4.4c.01-.12-.11-.01-.21.04-.43.44-.48.62-1 1.05-.07.14-.34.4-.34.5.58-.5.93-.82 1.37-1.35.23-.25.29-.23.49-.45.29-.33.58-.78.88-1.04-.01-.05-.11.04-.13-.01-.2.25-.48.56-.78.86 0 .06.14-.05.04.06-.08 0-.13.19-.32.34zm-1.85 1.82c-.25.27-.5.53-.56.68.33-.31.56-.57.56-.68zm-13.5 13.38c.02-.01.1-.11.05-.09-.03.02-.1.12-.05.09zm-.57.52c.01-.13-.29.24-.44.37.03.08.36-.23.44-.37zm17.98-17.89c.23-.32.43-.5.71-.8.01.04.48-.4.33-.36-.18.06-.79.84-.78.7-.22.19-.18.23-.4.42 0 .1-.02.08.07.09-.11.14-.27.17-.27.27.16-.15.18-.06.39-.28zm7.06 2.17c-.22-.18-.49-.38-.54-.55.04-.03.21.17.21.08-.31-.41-.91-.81-1.26-1.31.17.07.48.39.75.62.06-.03-.05-.15-.13-.26-.02.04-.11-.03-.24-.18.14.03-.06-.14-.06-.19-.39-.37-.82-.88-1.37-1.35.1.11-.02.03-.1-.04-.01-.08-.13-.22-.28-.39-.03.01-.04.05-.12-.02-.06-.09-.16-.2-.32-.36-.22-.14-.46-.41-.91-.86-.15-.11-.34-.26-.53-.43.01-.03.06-.03-.01-.11-.03 0-.04.03-.1-.04-.03-.08-.19-.21-.35-.34h.95c-.07.08-.13.16-.19.21-.56.56-.78.77-1.13 1.18-.05-.02-.31.29-.37.3-.21.29-.43.44-.66.71-.34.32-.44.49-.63.59-.07.13-.12.25-.1.33-.23.28-.5.59-.51.74.23-.2.34-.24.56-.52.02.02-.04.08-.04.11.41-.42.62-.63.94-.96-.04-.14.29-.52.68-.83.13-.13 0-.11.16-.26.5-.3.91-1.02 1.38-1.33-.02-.02 0-.07.04-.13h-1.22l.06.05c.17.26.65.55.88.89.27.09.77.84 1 .91.02.13-.06.19.02.35-.37-.36-.44-.43-.9-.87-.12-.14-.07-.17-.3-.37-.14-.1-.11.09-.31-.12 0-.13-.13-.27-.07-.31-.17-.18-.33-.32-.47-.44h1.41c-.19.22-.33.4-.44.57-.04-.01-.17.13-.23.16.08.04-.16.28-.18.38.12-.05.24-.1.42-.24-.12 0 .28-.31.3-.39.07-.04.21-.17.33-.3h-1.78c.09.1.18.19.2.24.03-.01.06-.01.17.11.55.56.88.97 1.57 1.56.42.49.66.75 1.08 1.09l-.04.03c.21.19.22.2.4.41.07-.03.3.2.48.35.14.12.12.19.16.23.15.17.38.3.54.55.16.12.32.23.48.35.34.46.72.71.96 1.07.31.22.83.75 1.11 1.06.29.17.48.36.87.78.44.35.84.73 1.32 1.27.33.34.35.32.61.62.33.25.9.91 1.1.95-.2-.23-.17-.3-.44-.51l.06-.04-.27-.27c-.21-.37-.57-.7-.9-1.11-.03.01-.04.05-.12-.03-.37-.38-.74-.84-1.06-1.11-.05-.09.05-.08-.15-.25-.22-.17-.53-.5-.73-.64-.06-.12-.18-.27-.35-.45-.13-.13-.11 0-.26-.16.01-.03.06-.03-.01-.11-.04.05-.17-.05-.24-.17.13.1.27.17.08-.06-.06.03-.13.03-.25-.05-.08-.13-.37-.36-.42-.52-.09-.01-.12.02-.33-.1.22.25.31.29.35.46.04 0 .3.14.31.24-.13.02-.41-.38-.52-.47zm-5.03-4.37-.2.2c.02.04.1-.02.23-.17zm-3.68 3.5c.39-.37.59-.54.62-.75-.33.36-.55.66-.93.98l.06.07c.2-.16.11-.17.25-.3zm-.61.63c.02-.01.1-.11.05-.09-.02.01-.09.11-.05.09zm16.87 8.03-.04.03c.39.42.47.5.83.81 0-.13.2.1.3.13-.1-.16-.37-.4-.54-.55-.35-.38-.69-.66-.87-.89-.09-.02-.45-.49-.46-.37.33.33.49.54.78.84zm-1.06-1.11c-.22-.23-.25-.35-.57-.65-.05.04-.25-.18-.3-.13.37.43.59.61.87.78zm13.9-6.51c.2-.23.23-.18.37-.3.31-.42.68-.71.95-1.1.22-.13.64-.58.88-.74.04-.08.14-.21.31-.37.43-.39.91-.87 1.27-1.16 0-.04.05-.1.11-.17.4-.36.6-.72.94-.96.04-.12.34-.4.58-.64-.04-.08-.06.05-.22.18-.06.02-.17.11-.3.23-.33.33-.73.7-.94.96-.17.13-.37.31-.52.42-.02.08-.14.23-.3.39-.14.12-.11-.02-.32.21-.34.47-.96.93-1.32 1.4-.28.17-.8.72-.97.92-.14.13-.17.08-.32.21-.28.35-.6.58-.89.88-.02.1-.55.51-.44.53.37-.44.55-.43 1.06-.97.05.05-.08.16.07.08zm-11.36 9.12c.07.03.17.12.28.24l.79.77.75-.77c.22-.23.5-.49.44-.55-.21.22-.35.32-.52.48l-.76.69-.62-.69c-.07-.07-.14-.15-.25-.25-.21-.17-.24-.11-.44-.38-.05.05.07.21.33.46zm18.06-15.87c-.17.14-.23.12-.4.26.05.06-.33.38-.27.43.3-.28.54-.45.67-.69zm-15.41 15.27c.55-.54.65-.84 1.25-1.34.08-.13.39-.39.28-.41-.06.02-.27.26-.3.23-.18.21-.44.42-.62.61-.03.03-.12.18-.18.24-.23.26-.59.61-.61.77.09-.08.18-.15.18-.1zm-38.06 7.49c.02.04.09 0 .18-.08-.02-.04-.09.01-.18.08zm52.71-22.03c-.39.29-.1.25 0 0zm-11.93 11.69c-.08.07-.12.08-.17.1-.16.19-.35.39-.27.43.28-.25.43-.43.44-.53zm-39.6 9.21c.08-.08.2-.19.19-.22-.08.08-.2.19-.19.22zm53.56-22.94c.01.01.07-.03.07-.07-.01-.01-.07.03-.07.07zm-21.11 15.18c-.02.01.1.14.14.14.01-.04-.07-.09-.14-.14zm9.24-3.58c.03.09.41-.28.51-.43l-.04-.06c-.39.31-.99.89-1.13 1.18.26-.25.5-.49.66-.69zm-3.18 3.21c.01.02.14-.09.14-.13-.08.07-.13.07-.14.13zm-37.27 6.78-.14.14.03.04.14-.13zm42.79-12.26c.01.01.07-.03.07-.07-.01-.01-.07.03-.07.07zm-.39.42c.05-.06.13-.13.12-.15-.05.05-.13.13-.12.15zm-.53.42c-.17.16-.28.29-.31.37.13-.07.29-.28.31-.37zm.35-.34c-.34.16-.3.42 0 0zm-.8.69c-.22.17-.13.28.04.06zm17.54-17.37c.01.01.07-.03.07-.07-.01 0-.08.04-.07.07zm-54.26 23.46c-.14.12-.2.13-.37.3.02.09.38-.18.37-.3zm44.7-14.16c.01.02.07.02.08-.05-.01-.02-.07-.02-.08.05zm-4.29 3.96c.17-.05.41-.35.63-.59-.11-.02.09-.22.2-.36.14-.12.2-.13.37-.3.26-.35.61-.5.74-.76-.07.16.24-.09.24-.17-.33.31.17-.28.12-.31.25-.26.3-.34.49-.45-.04-.02.03-.11.17-.24.31-.25.37-.32.67-.53-.12.12-.15.18-.09.19.25-.23.17-.16.42-.39 0-.03-.03-.04.04-.11.44-.38.6-.65.9-1.02.07 0 .16-.03.39-.28.1-.23.49-.63.63-.89.22-.11.91-.8.94-.96.36-.27.89-.86.81-.97-.36.25-.39.42-.78.7-.32.34-.64.72-1.01 1.03-.1.1-.09.15-.18.24-.05 0-.12.05-.23.16-.21.27-.55.52-.79.85l-.03-.04c-.3.33-.58.48-.75.74-.04-.02-.15.07-.3.23-.42.57-1.12 1.25-1.54 1.75-.29.16-.5.54-.83.79-.13.14-.09.18-.23.32-.23.13-.46.49-.67.69-.08.04-.26.24-.25.15-.17.17-.19.24-.31.37-.13-.07-.23.28-.45.35-.02.17-.77.88-1.06 1.12-.12.22-.3.46-.6.79-.05-.04.08-.15-.06-.08-.28.32-.64.68-.9.86-.09.21-.13.38-.33.66.36-.29.45-.45.74-.76.18-.17.25-.15.45-.35.09-.1.11-.16.26-.29-.03-.03.02-.1.09-.19.31-.32.33-.46.61-.77.21-.15.3-.34.44-.37-.05.14-.11.21.02.18.33-.31.77-.66 1.02-.99zm-26.64-3.93c.09.05-.15.14-.33.36.05.05.51-.34.59-.48-.14.13-.08-.08-.26.12zm-.71.8c-.03-.06-.15.05-.27.13.07.02-.24.27-.23.32.26-.23.3-.2.5-.45zm.31-.38-.21.2c.02.04.1-.02.24-.17zm17.49 12.66c.2-.17.11-.17.24-.31.49-.35 1.08-.98 1.59-1.53.2-.2.21-.08.46-.35.02-.07.07-.15.16-.26.2-.22.26-.23.43-.39.03-.1.12-.23.37-.46l-.07-.09c-.68.71-1.51 1.44-2.09 2.13-.36.21-.38.41-.77.72-.17.26-.28.31-.5.6-.2.13-.52.51-.67.69.13-.02.64-.62.85-.75zm-15.97-13.21c-.11-.19-.25-.22-.38-.31.14.11.3.27.38.31zm37.38-8.17c.2-.21.55-.5.52-.58-.26.17-.21.28-.48.47-.09.09-.07.12-.19.22-.21.24-.78.69-.72.78.23-.1.78-.7.87-.89zm-3.52 3.54c-.24.07-.13.24 0 0zm.31-.37c.05-.06.13-.13.12-.15-.05.05-.13.13-.12.15zm1.06-1.11c.1-.09.15-.1.29-.25.07-.17-.33.23-.29.25zm1.91-2.05c-.29.22-.44.46-.7.66.04.02-.04.12-.01.14.34-.36.57-.53.71-.8zm-48.46 17.85-.14.13.03.04.14-.13zm-.21.2c-.09.08-.11.07-.22.18.02.04.09 0 .18-.08-.01-.01.04-.07.04-.1zm52.87-22.29c-.14.15-.61.63-.36.46-.05-.02.42-.38.36-.46zm-6.69 6.63c.09-.12.12-.22.3-.39-.08-.06-.35.2-.62.45.07.05-.29.35-.19.38.26-.3.25-.16.51-.44zm-1.43 1.41c.02-.01.1-.11.05-.09-.02.02-.1.12-.05.09zm.39-.42c.02-.01.1-.11.05-.09-.02.01-.09.11-.05.09zm-.7.65c.08-.08.13-.08.14-.13-.01-.02-.14.09-.14.13zm3.33-3.48c-.3.26-.23.3-.45.51-.13.13-.17.13-.29.25-.08.15-.42.47-.41.56.38-.45.79-.86 1.16-1.15.1-.15.12-.2-.01-.17zm.62-.6c-.17.16-.28.29-.31.37.14-.12.17-.07.37-.3zm-10.19 9.41c.01-.09-.38.25-.37.3.13-.12.16-.06.37-.3zm-.7.66c.09-.01.12.06.29-.09.11-.13.32-.35.12-.31zm4.44-4.54c.02-.01.1-.11.05-.09-.02.02-.1.11-.05.09z"/><path d="m10.0522 60.63c-.09005.12-.06006.04-.0101-.02.08-.1.16-.14.08-.05-.02.02-.0499.05-.0699.07z"/><path d="m66.1522 34.42c.23-.16-.06.12-.19.22-.04-.07.26-.18.19-.22z"/><path d="m34.0122 35.69c0 .2-.36.45-.76.88.01-.1-.17.1-.25.15.23-.23.61-.77 1.01-1.03z"/><path d="m36.2021 36.52c-.19-.11.1.02-.01-.11-.3-.26-.38-.41-.64-.59-.13-.14-.08-.17-.13-.26-.2-.15-.32-.3-.44-.44l-.3001-.37-.4599.37c-.14.11-.27.22-.38.37-.23.05.14-.24.33-.41l.46-.42.39.42c.06.06.1.1.11.1.08.08.02.08.01.11.22.13.47.46.84.79.01.16.42.54.66.7.11.11.1.13.18.22.25.15.4.41.6.5.05.07.1.14.1.17.09.08.16.12.19.09.34.41.5199.44.7199.77-.02.11-.3399-.3-.5099-.45-.17-.1-.25-.05-.57-.4.17-.02-.47-.55-.54-.55-.05-.19-.47-.59-.61-.61z"/><path d="m81.8421 26.94c.01-.01.03.02.02.03s-.03-.02-.02-.03z"/><path d="m81.5221 24.74c.02 0 .02.03.02.06v.08c-.05 0-.01-.1-.02-.14z"/><path d="m81.2821 22.68c.03.01.02.06 0 .05-.01-.02-.02-.05 0-.05z"/><path d="m81.092 21.11c-.1 0-.08-.19-.02-.22-.03-.14-.01-.16.03-.27.06.06.03.13 0 .19-.01.08.05.24-.01.3z"/><path d="m80.1221 19.03h-.11c-.02-.1.11-.08.11 0z"/><path d="m80.6921 32.54c.03.01.02.06 0 .06-.04-.02 0-.03 0-.06z"/><path d="m80.9721 21.16v.08c-.07.02-.13.05-.19.08-.02-.14-.01-.14.05-.22.06.06.09.03.14.06z"/><path d="m80.662 31.78v.05h-.0499v-.06z"/><path d="m80.6121 31.88c.02 0 .0199.03.0199.06-.02 0-.0199-.04-.0199-.06z"/><path d="m80.5719 32.48h-.05c-.04-.06 0-.03 0-.11h.05c0 .08.04.06 0 .11z"/><path d="m80.7821 20.96c.03.01 0 .02 0 .05-.03 0-.02-.05 0-.05z"/><path d="m80.002 25.1c-.03.11-.01.28-.17.3.03-.04.03-.11.07-.13 0-.06-.1-.01-.12-.06.04-.09.1-.13.22-.11z"/><path d="m80.022 22.36c.01-.01.03.02.02.03s-.03-.02-.02-.03z"/><path d="m80.012 22.44c.01-.01.03.02.02.03-.01.02-.02-.02-.02-.03z"/><path d="m79.8621 24.74c.04-.08.0199-.36.0399-.46.13.03-.0099.22.0601.33-.02.06-.04.12-.1.13z"/><path d="m79.8319 24.08c-.02-.16.13-.15.05-.3.12.05.07.26-.05.3z"/><path d="m79.8419 24.77c-.06.01-.0599-.06-.0699-.11.03.02.0699.04.0699.11z"/><path d="m79.812 23.23c.01-.01.0301.02.0201.03s-.0301-.02-.0201-.03z"/><path d="m79.772 24.57c.02 0 .02.03.02.06-.02 0-.01-.04-.02-.06z"/><path d="m79.6821 25.53c-.07-.09 0-.23-.11-.31-.01-.06.12-.15 0-.16.01-.06.08-.05.07-.13.12.02.05.25.13.31.01.13-.06.19-.09.29z"/><path d="m79.792 22.82c-.08-.14.06-.18 0 0z"/><path d="m79.822 21.67c-.01.03-.03.05-.07.05-.01-.06.03-.05.07-.05z"/><path d="m79.6721 24.68c-.07-.04-.05-.18-.06-.28.05 0 .03-.07.1-.05.03.02-.0001.11.0399.11-.08.09-.0499.13-.0799.22z"/><path d="m79.752 22.43c.08.08-.12.07 0 0z"/><path d="m79.7421 23.97h-.09l.01-.25c.04.06.06.15.08.25z"/><path d="m79.692 23.03c0 .11-.06.14-.05.24-.09-.02.03-.12-.07-.14.02-.1.01-.07.03-.19.06 0 .02.12.09.09z"/><path d="m79.6619 23.34c-.01.05-.07.05-.05.14-.14-.02-.02-.15.05-.14z"/><path d="m79.6121 23.53c.01-.01.03.02.02.03s-.03-.03-.02-.03z"/><path d="m72.6719 20.55c-.01-.01.02-.03.03-.02s-.02.02-.03.02z"/><path d="m72.6721 20.57c0 .05-.0201.07-.0801.07-.09.03-.13.19-.25.11-.02-.06.0601-.04.0801-.07-.06-.06.04-.04.03-.12.12.01.13-.03.22.01z"/><path d="m71.762 21.71c-.01-.01.02-.03.03-.02s-.03.02-.03.02z"/><path d="m80.682 31.67c-.12-.08-.08-.23-.06-.41-.02-.17-.02-.37-.08-.5.03-.11.04-.23.01-.3-.01-.06.07-.03.07-.08.01-.09.01-.17-.04-.19.02-.07.05-.18-.02-.22.04-.06.06-.13.05-.24.04-.1.02-.13.05-.22-.01-.03-.03-.08-.04-.11.04-.2 0-.26.01-.52-.02-.06-.06-.1-.09-.14-.09.04-.06.31.02.33-.08.05-.01.27-.1.3-.01.1.08.07.07.17-.1.03-.07.19-.1.24.03.2.02.29.08.47 0 .07-.04.08-.07.11 0 .05.02.07.05.08-.08.13-.02.2-.01.38-.02.06-.02.15-.08.16.03.08.03.2-.01.27.05.15-.08.38.04.49-.09.09 0 .24-.08.35.01.05.05.07.04.14-.04.1-.01.27-.06.35.07.38-.08.84.02 1.07-.07.08-.19.09-.19.24-.12.01-.18.09-.26.16-.13.02-.11-.13-.23-.12-.12-.31-.05-.52-.1-.91 0-.12.06-.17.05-.3-.01-.1-.06-.15-.09-.22 0-.1.06-.13.08-.22.01-.06-.01-.07-.02-.11.04-.11.07-.22.03-.38.06-.29-.01-.45.06-.71.02-.07-.04-.06-.04-.11-.02-.08.03-.1.03-.16.02-.08-.03-.07-.02-.14.08-.08.02-.25-.01-.36.08-.07-.01-.2.08-.22 0-.05-.02-.07-.04-.08.07-.07-.02-.22.03-.27-.01-.05-.05-.07-.04-.14 0-.07.04-.08.05-.14-.02-.06.05-.21-.04-.19.06-.04.08-.26.01-.3-.02-.43.03-.73 0-1.04-.04-.03-.05-.09-.07-.14-.01-.11.06-.11.08-.19-.01-.09-.13-.21-.02-.27.01-.07-.03-.09-.09-.08.05-.16.09-.34.13-.52-.01-.05-.01-.11-.04-.14.07-.23-.05-.43-.08-.63.02-.14.07-.26.08-.41.18.06-.04.41.18.44.09-.09-.01-.14.01-.27.14-.02.11.15.23.14-.07.14-.11.24-.08.41h-.14c-.03-.11.05-.08.05-.16-.05-.08-.09.09-.08.19 0 .02.08.09.07.03.06 0-.01.07-.05.05 0 .09.08.08 0 .14.01.06.04.09.09.11-.01.1-.08.08-.07.13.03.07.08.11.14.14.05.13.06.15.09.28h-.05c.09.09-.04.22-.01.41-.05-.01-.06.02-.09.02.04.1.17.25.06.36.01.1.07.15.09.25-.02.06 0 .16-.1.13.05.08.02.26.13.28.07-.07 0-.15.01-.22 0-.05.03-.06.03-.11-.01-.1-.08-.21-.04-.38-.01-.09.07-.07.07-.13.02-.19-.03-.3-.08-.41-.01-.06.04-.06.05-.11.01-.03-.02-.1-.02-.14 0-.07.01-.13.05-.19 0-.52-.03-.92.01-1.34 0-.07-.01-.13-.04-.17.08-.26-.01-.55.04-.74l-.04-.22c.09-.13.05-.43.04-.55 0-.09.04-.11.03-.22.03-.01.04-.05.07-.05-.05-.1.04-.11.03-.25-.1-.03-.1.06-.1.16-.12-.01-.12-.16-.13-.28 0-.03-.03-.02-.05-.03.05-.05.01-.22.1-.22-.01-.12-.06-.28-.01-.38.01-.07-.03-.09-.07-.11-.02-.06.05-.05.05-.11 0-.03-.04-.05-.04-.08-.02-.07.03-.15-.02-.19-.07.02.01.09 0 .14-.11.01-.1.16-.19.19-.01-.05.02-.05.05-.05.01-.07-.05-.07-.07-.11.06-.08.06-.21.08-.27.11.09.09-.07.19-.08.01-.09-.14-.11-.02-.16-.01-.06-.12-.02-.09-.14-.04.01-.04.08-.12.05-.02-.08.02-.19-.06-.25.02-.04.08-.04.12-.05-.05-.05-.01-.13 0-.19-.1-.07-.04-.15-.04-.3-.15.04-.01.3-.08.41-.16-.06-.02-.29-.04-.49.07-.02.02-.18.12-.16-.02-.12-.1-.18-.02-.27-.01-.04-.04-.07-.07-.08-.11-.02-.11.11-.21.1-.01.12.14.08.14.2-.05.04-.07.1-.15.11 0 .07.09.04.09.11-.04.07-.01.23-.06.3-.08-.02-.03-.18-.04-.28-.04-.07-.04-.16-.09-.22.05-.13-.06-.17.03-.27 0-.05-.02-.07-.05-.08.05-.1.06-.26.06-.41l.61.61h-.05c-.01-.05.02-.06.03-.09-.09.01-.17.04-.22.09-.13-.01-.25 0-.3.06-.12.01-.15-.04-.27-.03-.02-.03-.12-.11-.13-.07-.04-.01 0-.02 0-.05-.07-.03-.16.04-.16 0-.07.01-.08.07-.17.07-.06.09-.18.05-.22.11-.04 0-.08 0-.08-.03-.07.07-.11.04-.19.07-.07 0-.16 0-.19-.03-.06.01-.1.06-.14.09-.06-.01-.05-.06-.08-.1-.13.05-.37.15-.52.03-.04.01-.05.05-.06.09-.17-.01-.2.11-.41.06-.06.02-.1.07-.11.14-.12-.02-.25.07-.27-.05-.1-.01-.1.07-.19.07-.01-.03-.05 0-.06.02-.06-.03-.09-.08-.16-.1-.13.03-.24.17-.41.08-.11.01-.16.06-.22.11-.06-.03-.05 0-.14-.03-.1.02-.15.09-.3.06-.04.03-.12.02-.11.09-.08 0-.1-.05-.16-.07-.12-.02-.17.03-.27.02-.1-.04-.24-.04-.33-.01-.08-.04-.11-.12-.19-.17-.04-.14.06-.26-.04-.33-.09-.02-.04.08-.11.07-.12-.04-.23-.1-.33-.06-.09-.07-.3-.05-.38-.13h-.16c0-.02-.09-.07-.08-.03-.04-.02-.05-.06-.08-.1-.07.02-.08.11-.14.14-.12-.06-.25.02-.24-.12-.09 0-.2-.02-.25.02-.02.07.18.12 0 .12 0 .06.08.07.13.1-.09.05-.12.02-.22.07-.05-.06-.07-.05-.13-.07-.04.01-.02.06-.03.09-.09-.04-.25-.09-.3.02-.07 0-.08-.04-.14-.05-.15-.01-.21.04-.3-.03-.06.08-.3 0-.28.16-.04-.06-.15-.06-.19-.12-.05.02-.08.06-.09.12-.18-.02-.39-.02-.55.03-.09 0-.08-.08-.13-.1-.12.05-.26.09-.39.13l-.08-.07c-.07-.01.02.13-.09.09-.02-.07.04-.06.03-.12-.1-.02-.11.05-.11.12-.08.05-.28 0-.31.11-.08-.06-.19.03-.24-.05-.03 0-.02.04-.03.07-.05 0-.16-.07-.19 0-.04-.01-.01-.07-.05-.07-.06.01.03.04-.03.07-.09-.04-.22-.07-.33-.03-.06-.1-.19-.01-.24-.1-.09.05-.23.05-.38.04-.05-.06-.13-.13-.08-.22.05-.01.05.02.05.05.07-.11.22-.13.36-.06.03-.05.1-.05.14-.09.09 0 .13.04.25.03.14-.06.34-.02.5-.11.06.07.15-.04.16.05.08-.04.23-.01.3-.06.05 0 .06.03.11.03.1.01.07-.08.17-.07.01.12.1-.01.16 0v.07c.08-.03.16 0 .25.03.14-.06.13.01.27-.02.03.03.07.05.11.07.04.01.05-.02.08-.02.06.04.18.03.19.1.05-.09.16-.13.25-.18.14.02.13.01.25-.02.03.03.07.05.11.07.06.01.09-.02.08-.07.06.02.08.06.16.05.05.03.04-.04.06-.05.06-.02.15.03.11-.09.05.01.02.09.11.07.01-.08-.09.01-.05-.12-.08.01-.17.02-.25-.03-.03 0-.02.05-.06.05-.2-.03-.32.01-.44-.06-.03.02-.04.04-.06.07-.07.01-.22-.03-.25.02-.22-.11-.68.01-.96-.02-.08-.02-.06.06-.14.04-.06-.01-.09-.05-.13-.07-.09.01-.19.08-.25-.01-.04.02-.08.04-.11.07-.17-.07-.52 0-.66-.04-.1.03-.25.01-.36.01-.05 0-.09.01-.14.07-.16-.03-.3-.09-.47-.01-.07 0-.1-.05-.16-.05-.09-.01-.2.05-.3.04-.07-.01-.09-.07-.16-.05-.02-.03-.03-.06-.02-.12-.07 0-.06.04-.11 0-.04.05-.1.08-.19.09-.04-.08-.19-.08-.16-.22l-.36-.01c-.04.13-.27.08-.25.25-.06.01-.14.04-.19-.01-.04-.01-.05.02-.08.02-.12-.06-.4.01-.52-.06-.08.05-.18.04-.36.04 0-.03-.05-.02-.08-.03-.01-.05-.05-.08-.08-.12-.07-.03-.12.07-.14 0-.08-.07.09-.06.11-.12.13.02.23.06.35.08.07-.02.08-.03.19-.04.12-.01.19-.11.41-.06.04-.11-.07-.09-.05-.19.13-.01.2-.08.28-.14h.14c.11-.06.28-.09.36-.18.12.07.29-.05.38.01.02.09-.12.04-.14.09.02.08.2.02.27.01.01-.05-.02-.08-.08-.07.03-.11.2-.06.27-.02.17-.03.49-.1.58-.06.03-.01.02-.05.06-.05.11.02.2-.03.25.01.09-.02.15-.08.22-.11.08.13.25-.07.33.08.06-.07.25-.01.3-.09.09.11.24-.01.35.06.06-.02.12-.05.17-.09.08.03.25-.04.36-.06.03-.02.04-.04.06-.07.09-.01.07.07.13.07.1.03.08-.06.17-.04-.06.05.01.03.02.07.12-.04.25-.06.33-.13.13.03.24-.06.33.01.13-.01.17-.11.31-.11-.06-.14-.22-.05-.32-.13-.09-.01-.15.01-.22.02-.06-.04-.06-.12-.16-.07-.01.04.02.05.05.05-.07.03-.36-.05-.47.01-.04.01-.05-.02-.08-.03-.06.03-.18 0-.19.07-.11-.05-.15-.15-.3-.1 0-.06-.09-.05-.16-.05-.11.02-.19.07-.3.09-.09-.05-.24-.05-.35-.08-.11.01-.23.02-.3.06-.18-.03-.2.06-.33.02-.03.03-.07.06-.11.09-.03-.03-.1-.03-.16-.03-.03-.05-.04-.12-.13-.12-.08.03.03.08 0 .14-.09.05-.28.01-.41.01-.13.04-.34.1-.47.06-.08.01-.12.05-.19.07-.08.02-.08-.04-.16-.03-.16.07-.48 0-.61.1.05.08-.03.09-.06.16h-.16v-.09c.01-.05-.08-.03-.08-.07.06 0-.01-.06-.05-.05.05-.05.08-.11.17-.11-.02-.09.07-.08.09-.14.05 0 .07-.02.08-.05.21.06.51-.17.71-.03.08.01.09-.05.17-.04.08.09.2.01.33.05.1-.03.21-.07.36-.06.05 0 .07-.02.08-.05.15.07.26-.03.38.03.12 0 .15-.09.25-.04.03-.01.02-.05.06-.05.19.01.36 0 .47-.06.12.03.32.03.41-.04.12.03.22.07.38.06.11-.01.18-.09.27-.04.08-.03.23-.1.33-.04.08-.06.26-.03.33-.09.15.01.14.01.27.03.11-.04.27-.03.36-.09.06.05.07.05.14 0 .04-.01.05.02.08.03.07.01.09-.04.14-.04.18.03.24.01.41.03.05 0 .07-.02.08-.04.03.03.16.04.16-.02.06.05.07.02.14.05.07-.01.14-.09.22-.02.03-.02.1-.01.08-.07.04.01.07.04.11.05.06-.06.25 0 .28-.09.04.04.14.02.13.1.05.01.14-.02.11.05.21-.09.34 0 .47-.13.17.05.21-.05.35.03.18-.05.31-.04.52-.01.22-.04.38-.12.63-.08.07.02.06-.04.11-.04.08.03.11.02.17-.02.12.01.16.04.25-.02.06.02.18-.02.19.03.07.01.09-.03.11-.07.03.03.1.03.16.03.05.01.05-.02.06-.05.04.03.07.03.11 0 .08 0 .08.06.16.05.15.01.12-.03.25-.06.02.05.13.02.13.07.07-.01.07-.1.17-.09.09.14.34-.02.52.06.06-.02.11-.04.11-.12.03.04.18-.01.13.1.18-.04.3.01.49.01.01.02.03.04.03.07.15 0 .31.02.38-.04.09-.01.13.02.19.03.16-.01.16-.03.3.03.27.02.45.04.71.02.07-.02.13-.04.19-.07.1.04.29.08.46.03.06.02.18-.02.19.03.02-.01.04-.01.06-.02l1.26-.24.37 1.87c.03.18-.07.39.01.54-.04.09-.04.31-.03.38-.01.09.06.07.07.14-.03.22-.07.38-.04.6-.04.13-.06.29.04.38-.01.14-.13.24-.03.36-.1.16-.04.37-.01.55-.05.04-.08.11-.15.13.02.09.1.12.16.17.02.09-.02.12.04.19-.04.1-.01.27-.06.35.04.09.04.22.09.3-.06.06.03.18-.05.16-.02.07.05.05.07.08-.04.14.06.22.02.27.01.06.06.06.07.11-.02.11-.05.1-.03.22-.1-.03-.05.12-.1.16.02.06.01.15.07.17-.05.1-.01.29-.06.38.02.18.02.24-.03.35 0 .09.03.15.07.19-.01.06-.03.11-.05.16.07.15 0 .29.06.47-.06.13-.07.18-.17.27v.22c.11.01.09-.15.19-.16.09.03-.02.17-.03.25.01.13.05.35-.01.47-.02.11.03.23-.01.27 0 .08.06.09.07.17-.11.24.01.6-.12.87-.01.08.05.09.04.17-.05.01 0 .15-.07.13.05.15 0 .38-.06.49.03.11-.02.13.02.22-.02.06-.02.15-.07.16.01.05.05.07.04.14-.04.08-.09.16-.08.3-.05.03-.05.1-.1.13.01.03.03.06.07.06 0 .06-.04.08-.03.16.04.09-.03.15.04.19-.01.07-.04.12-.08.16.03.16-.08.15-.08.27-.06.01-.02-.11-.09-.08-.04.14.03.29-.06.41.04.19-.03.35.03.49-.03.01-.05.03-.05.08.08.17.01.5.15.61-.01.1-.07.07-.03.16-.09-.01-.08.11-.12.16-.08.02-.14.05-.19.1-.03-.07-.17-.17-.11-.25-.05-.05-.04-.17-.09-.22.04-.15.04-.28-.01-.44.02-.23.03-.41-.08-.52 0-.05.07-.16 0-.19.01-.05.07-.05.05-.14.01-.07-.05-.07-.07-.11.02-.06.02-.14.05-.19-.05-.11-.07.03-.12-.03-.05.05-.01.19-.08.22-.02 0-.02-.01-.02-.03-.04.02-.01.02 0 .02zm.83-1.67c.11-.19.09-.36.09-.6.02-.06.05-.16 0-.22.08-.1.06-.32.08-.49-.03-.06-.04-.13-.07-.19.03-.15.06-.3.15-.38.02-.09-.04-.09 0-.14-.06-.01-.09-.04-.09-.11.02-.18.05-.39.01-.57-.05.09-.11-.04-.16-.03-.02.15.05.21.09.3-.07.06.03.16.04.22-.07-.02-.03.09-.12.05-.06.16-.11.54.01.66-.11.06-.11.31-.06.44-.11.06-.08.23-.08.38 0 .04.04.03.05.06-.09.15-.04.31-.08.49.05.03.08.09.09.17-.08.13 0 .34-.08.46.06.09-.02.18.06.22 0-.24.09-.49.07-.72zm.14-3.83c.03-.05 0-.24-.06-.28.04.12-.02.1-.03.16 0 .05.02.12.02.16 0 .06-.04.12.04.14.05-.06.05-.12.03-.18zm-.09-.33c.04 0 .06-.02.07-.05-.03-.05-.09-.05-.07.05zm.06.63c.01-.01-.01-.04-.02-.03s0 .04.02.03zm-.08-1.76c-.07-.03-.09.02-.12.05.01.18.1.22.04.41.05.04.04.15.11.17.05-.22.08-.35.01-.55-.02-.1.04-.1.03-.19-.03-.13-.15-.27-.11-.39-.04-.01-.05.03-.1.02.04.09.05.21.06.33.04.01.06-.04.07 0-.06.04.04.09.01.15zm-.02.74c.01.11.02.21.09.25.01-.13 0-.23-.09-.25zm-.08 5.42c.01-.01-.01-.04-.02-.03s0 .04.02.03zm-.03.22c-.08-.03-.04.11-.05.16.07.01.09-.12.05-.16zm.06-7.23c-.06-.11-.04-.19-.06-.3.04.01.05-.18-.02-.14-.09.05.04.33-.05.3-.02.08.04.08.02.16.07.02.04.02.12 0 .02.05-.07.09 0 .11.01-.06.08-.05.07-.13zm-.39-3.49c.03.08.08.18-.01.22-.05 0-.03-.08-.09-.06-.07.14.07.35-.04.52-.07-.05-.07-.18-.09-.28-.06-.01-.07.04-.1.08.04 0 .06.03.05.08-.07-.03-.06.04-.1.05.02.15-.05.34.01.55.01-.04.04 0 .05.03-.05.02-.06.07-.07.13.03.01.07 0 .07.03-.02.03-.03.07-.03.14.06.07.04.18.04.36.03.05.05.12.07.19-.03 0-.07-.01-.07.02.02.01.05 0 .05.03-.05.03.02.15.02.22 0 .23-.01.31.04.47-.05.01-.01.12-.05.14.06.1.01.18.04.28-.02.13.04.19-.03.25.04.04.09.08.16.09.04.1.06.22.16.25.02-.09.07-.12.03-.22.02 0 .03.02.05.03-.01-.17-.01-.25-.01-.38-.13-.02-.16-.16-.11-.3 0-.05-.08-.02-.07-.08.14-.16-.08-.39.04-.55-.04 0-.06-.02-.07-.06.06-.09-.07-.24.01-.36-.13-.07.05-.32-.06-.39.07-.03.18-.03.24-.07.01.15.01.18.01.36-.01.05-.07.05-.05.14.03.05.14.01.14.09-.09.03-.1.08-.17.08 0 .17.04.29.11.39-.03.01-.03.06-.05.08.09-.01.08.09.14.11.05-.03.1-.07.12-.13-.09.02-.02-.12-.07-.14.05-.04.01-.18.05-.22-.03 0-.06-.01-.05-.06.01-.22.06-.37-.01-.63.05-.18.07-.28.01-.44h.05c-.02-.08-.02-.08 0-.16-.07-.01-.07-.1-.09-.17-.02-.05.05-.06.05-.08.01-.06-.05-.14.01-.22-.03-.05-.06-.11-.09-.17.09-.16 0-.29.08-.41-.04-.07-.05-.2-.05-.31l.05-1.15-1.24-.05c-.05 0-.09-.01-.13-.01-.09.08-.17.08-.33.06-.16.06-.31.08-.52.03-.14-.01-.14.02-.25-.01-.12.06-.36-.01-.41.11.09.02.09.09.19.05v.07h.11c.12.11.26.09.41.15 0-.03 0-.07.03-.07.15.01.32.07.44.03.03.02.01.09.08.07.08-.03.21-.02.28-.06.03.03.07.05.12.06l.81.22-.12.47-.01.04c0 .05.08.02.07.08-.03 0-.07-.01-.07.03.07 0 .08.04.04.08-.02-.05-.08-.09-.09 0 .06.01.11.02.14.06-.04.04 0 .15-.08.19.06.02.1.02.16.09.02-.09-.01-.12.07-.16-.03-.01-.11-.09-.04-.11.09.03.01.17.02.21zm.27 2.64v.08c.04.01.06-.03.05-.08zm-.13 1.44c.02-.15.03-.23-.09-.28.02.14.08.24.04.38h.09c.02-.06-.04-.04-.04-.1zm.01.25c.01-.01-.01-.04-.02-.03s.01.05.02.03zm-3.68-5.92v-.05c-.16-.03-.2-.02-.33.02.03.09-.06.07-.09.12.05.05.16.02.22.01.15.02.27-.02.35.01.02-.05.19.03.17-.07-.13 0-.2-.04-.32-.04zm.44.03c.09.01.12.07.25.05 0-.06.09-.05.09-.12-.17-.04-.25 0-.34.07zm-4.95-.15c-.09.02-.08-.04-.14-.05-.15.08-.28.02-.41.11-.07-.07-.25-.05-.33-.1-.02.03-.07.05-.14.04-.16-.03-.36-.03-.49-.08-.01.03-.03.04-.06.05-.15-.03-.27.08-.38.01-.03.06-.15.04-.25.04-.01.09.02.01.08.03.02.03.06.05.11.05.13 0 .29.02.38-.01.06.03.14.04.19.08.02-.05.07-.06.14-.07.05.01.02.09.11.07.16-.09.38.02.55-.06.09.08.31.05.38.03.06.01.05.07.11.07.13-.05.24.02.36.01.03-.06.21.03.19-.07-.16.05-.2-.09-.41-.06 0-.06.05-.04.01-.09zm3.91.1c-.06.08-.3-.02-.3.11.12-.01.17.05.3.03.08-.03.07-.09.17-.04-.01-.08-.07-.11-.17-.1zm-6.63-.07c.06.02.07.08.13.1 0-.08.14-.03.14-.11-.11-.01-.19-.06-.27.01zm6.19.11c-.22-.01-.3.13-.52.06-.04.04-.16 0-.14.09.02.03.11.01.11.05.08-.02.17.02.25.01.01 0 .06-.04.08-.04.1-.02.24-.01.28-.11-.04-.02-.07-.02-.06-.06zm4.27 12.65c.04 0 .06-.02.07-.05-.03 0-.06.02-.07.05zm-10.16-12.73c.14.07.07-.11 0 0zm4.76.17c.03.01.04.03.05.05.07-.02.15-.03.14-.11-.1-.02-.16 0-.19.06zm5.44 12.1c0-.03.01-.08-.02-.08 0 .03-.01.07.02.08zm-11.02-12.26c0-.01-.02-.03-.03 0 0 .01.03.02.03 0zm7.91.19c0-.02-.05-.03-.05 0s.02.01.05 0zm-3.18-.01c.01-.08-.14-.09-.19-.05v.07c.14.06.38.07.47-.04-.11 0-.2 0-.28.02zm1.29-.01c0-.02-.05-.03-.05 0 .03 0 .04.03.05 0zm4.92 11.56v.05h.05v-.05zm-7.14-11.59c0-.01-.02-.03-.03 0 .01.01.03.02.03 0zm.17-.02c-.02 0-.05 0-.06.02.02-.01.06 0 .06-.02zm.19.07c.07.01.11-.01.14-.04-.04-.04-.12 0-.14.04zm-.14 0c.1.12.15-.09 0 0zm.3.08c.08.04.08-.1 0-.07zm-7.03-.13c0-.01-.02-.03-.03 0 0 .01.02.03.03 0zm13.46 9.64c-.01.05-.05.07-.05.13.07.02.14-.1.05-.13zm-9.66-9.45c0-.03-.01-.06-.03-.02 0 .02.01.06.03.02zm1.66.23c-.04-.08-.15-.04-.25-.03.02.09-.06.09-.11.12-.05-.01-.07-.05-.14-.05-.12.07-.23-.08-.3.02.05-.06-.07-.11-.08-.05.13.02-.09.08-.09.14-.1.01-.13.03-.19-.03 0 .04-.03.05-.08.05-.11-.04-.14-.04-.24-.1.05 0 .06-.02.06-.07-.1-.02-.07 0-.16-.03-.01.02 0 .05-.03.05-.16-.04-.25.04-.39.08-.02-.05-.04-.09-.13-.07-.07.09-.23.1-.31.18-.07-.08-.34-.08-.38.01-.13-.06-.35-.02-.36.11.12.07.16-.02.3.05.13-.01.27-.06.41-.01.04 0 .05-.04.08-.05.01.03.03.05.08.05.1-.04.22.02.33-.04v.05c.13-.02.21.07.3.01.01.04.05.06.11.05.2-.1.48-.09.66-.15.09.09.21-.03.33.03.06-.01.06-.06.11-.07.07.07.19-.02.27-.02.02.03.1.01.08.07.07.01.09-.03.14-.04.01.14.1-.03.16.07.04-.1.33-.08.44-.04.07-.07.15-.12.28-.14 0 .06-.05.05 0 .09.12-.03.27-.02.35.03.06-.08.1-.18.2-.23-.13-.05-.18 0-.3.02-.07-.01-.08-.07-.16-.08-.04.01-.05.03-.11.02 0 .04-.02.06-.06.07-.13.01-.16.1-.28.11-.07-.04-.13.03-.16-.05.04-.06.06-.07.03-.14-.14.02-.29-.05-.41.01zm7.74 3.6c.1-.01-.01.06.02.14.07 0 .12-.17.08-.22-.02.06-.11 0-.1.08zm.06.3c-.06-.01-.07.04-.1.08.07-.01.02.1.07.11.01-.09.07-.09.03-.19zm-.04-.13v.08c.04 0 .06-.03.05-.08zm-3.99-3.49c-.07-.02-.06.05-.11.04-.17-.1-.42-.08-.63-.04-.08 0-.06-.09-.16-.08-.02.03-.04.06-.08.07-.08.02-.1-.03-.16-.03-.02.05-.07.08-.17.07v.12c.28-.03.59.05.85-.03.11.11.16-.02.3.03.09-.06.12-.02.22-.07.07.05.21.01.27-.02-.04-.07-.27 0-.33-.06zm3.93 2.8c-.06.06.02.1.04.14-.01-.05 0-.12-.04-.14zm-12.56-2.82c-.08.01-.21-.03-.22.04.09.07.1-.05.19 0 .03 0 .04-.03.08-.02.09-.02.3.06.3-.04-.06-.09-.29-.05-.35.02zm1.43-.01c.06.12.07-.08 0 0zm-.14.04c-.02.01-.05 0-.06.02.03 0 .06 0 .06-.02zm-.44.04c-.04-.01-.05-.04-.11-.03-.05.07.12.07.11.03zm-.8.09c.1.05.18-.01.27.03 0-.04.03-.05.03-.09-.13.02-.21-.03-.3.06zm12.09 7.16v.05h.05v-.05zm0 .09c0 .03-.03.04-.03.08.04 0 .06-.02.07-.05-.02-.01-.02-.03-.04-.03zm-13.79-7.22c.06-.01.25-.01.17-.07 0 .05-.16-.02-.17.07zm2.69.05c-.04.03-.07.07-.14.07 0 .1.11.11.21.12 0-.08.13-.04.11-.14-.1.02-.07-.07-.18-.05zm.57.01c-.01-.01-.04.01-.03.02s.04-.01.03-.02zm-.16.02c-.01-.01-.04.01-.03.02 0 .01.04-.01.03-.02zm.27.03c-.03 0-.04-.04-.05 0-.01.02.04.03.05 0zm-1.37.11c.11.03.11-.05.19-.04.05 0 .06.03.11.03.05-.05.18-.03.2-.11-.17.05-.33.05-.47-.01-.05.04-.07.06-.03.13zm-.25-.01c.07.01.11-.01.14-.04-.05-.01-.05-.07-.14-.05zm3.95.55c-.02.06.13.09.14.05-.05-.01-.05-.07-.14-.05zm.27.03c-.02-.05-.01-.13-.08-.14-.05.01-.13.02-.09.14zm-1.81.07c-.01-.01-.04.01-.03.02s.05 0 .03-.02z"/><path d="m80.572 32.62c.02.04-.02.02-.02 0-.02-.04.02-.06.02-.03 0 .01-.01.02 0 .03z"/><path d="m70.272 19.49c-.08-.06.04-.04.08-.02 0 .09-.09-.05-.08.02z"/><path d="m79.8621 22.77c.14.04.06.16.09.33-.06-.02-.05.05-.07.08 0-.09-.1-.28-.02-.41z"/><path d="m79.7421 22.08c.05.06-.06-.03-.07.03.02.11-.02.16.04.25-.01.06-.06.05-.1.08.07.13-.07.22-.01.33-.16.07-.02-.18-.07-.19 0-.03.04-.02.07-.02-.06-.07-.01-.19-.04-.33.11-.04.08-.19.03-.27 0-.04.02-.05.03-.08-.07-.08.01-.16-.06-.22.01-.02.02-.05.05-.05-.01-.03-.03-.06-.07-.06.05-.15-.06-.19.03-.3.09-.02.03.13.04.19.05.06.14.06.11.2-.14-.03-.05.21-.01.22-.06.02-.05.19.03.22z"/></g></svg>