<svg xmlns="http://www.w3.org/2000/svg" fill="none" viewBox="0 0 88 88"><path d="m66.6695 44.82c2.31-2.53 3.73-5.89 3.73-9.58 0-7.87-6.38-14.24-14.24-14.24-5.36 0-10.03 2.96-12.46 7.34-2.43-4.38-7.1-7.34-12.46-7.34-7.87 0-14.24 6.38-14.24 14.24 0 4.17 1.8 7.91 4.66 10.52l22.04 22.04 22.04-22.04c.33-.3.64-.61.93-.94z" fill="#e26a6a"/><g fill="#1e1e1e"><path d="m57.3495 43.64c-.05-.01.08-.03.1-.02.05.01-.07.03-.1.02z"/><path d="m49.5994 43.97c0-.02.12-.02.2-.02h.29c0 .05-.35 0-.49.02z"/><path d="m44.9493 50.88c-.01-.04.07-.18.09-.17-.03.08-.06.17-.09.17z"/><path d="m44.1494 54.81c-.08.05-.38-.57-.37-.68-.25-.43-.26-.5-.41-.87.15.17.23.39.3.6.14.26.43.72.48.95z"/><path d="m42.0695 50.88-.1701-.35c.05-.09.2501.34.1701.35z"/><path d="m77.0894 44.8c.03-.03.2-.02.19 0-.05.03-.09-.01-.19 0z"/><path d="m44.1194 55.03.1301.26c-.01.04-.0201.08-.0201.14l-1.3-.02.17-.08c-.03.06-.05.11-.07.14l1.1001.02c-.16-.3-.1601-.33-.2301-.57.15.14.13.03.22.11z"/><path d="m74.3794 44.82.19.01v.04h-.19z"/><path d="m74.7595 44.87c.01-.02.12-.02.19-.02 0 .03-.11.02-.19.02z"/><path d="m76.8795 44.91-.01.05c-.19.04-.12 0-.38 0l.01-.05c.26 0 .19-.04.38 0z"/><path d="m43.6493 54.49c.05.03.03.08.09.17-.05-.01-.12-.16-.09-.17z"/><path d="m50.8694 45.49c.4.03 1 .01 1.04.17-.14-.03-.39-.03-.47-.07-.2 0-.04.1-.21.12-.28-.04-.42-.11-.36-.22z"/><path d="m45.5295 52.46c-.04.04.01-.08.03-.1.03-.03-.01.08-.03.1z"/><path d="m45.6695 52.21c-.03.04.01-.08.03-.1.03-.03-.01.08-.03.1z"/><path d="m49.5995 45.62c-.07-.01-.18-.02-.32-.02l.23-.14c-.2.36-.51.9-.65 1.15-.06-.16.39-.68.5-1.05l.08-.13-.18.1c.18.02.32.04.34.09z"/><path d="m48.5993 47.24c-.25.49-.37.42-.55.9-.02-.22.38-.83.55-.9z"/><path d="m49.6893 45.64c.02.06-.21.06-.39.07.09-.03.15-.07.39-.07z"/><path d="m47.1795 49.88c-.03.04.01-.08.03-.1.03-.04-.01.08-.03.1z"/><path d="m49.4793 45.75c-.02-.02.04-.11.07-.18.02.02-.04.11-.07.18z"/><path d="m52.3695 45.8c-.31.07-.81 0-1.07.11-.21.01-.52-.12-.58 0-.22-.01-.17-.08-.47-.07.08-.12.89-.05 1.08-.13.5-.01.69.06 1.04.09z"/><path d="m46.4994 51.16c-.16.47-.34.51 0 0z"/><path d="m44.5293 54.69c.07-.1.12-.15.15-.13-.09.19-.11.15-.15.13z"/><path d="m49.3795 45.81c-.02.01-.0601.02-.1001.03l.44-.26c-.06.19-.26.52-.38.78-.04-.02-.15.21-.17.11 0-.07.1801-.33.1501-.36.19-.2.25-.33.38-.54l-.4101.24c.02-.01.0501-.01.0901 0z"/><path d="m45.8794 52.36c.06-.26.21-.13 0 0z"/><path d="m48.4894 47.63.0801.06-.4201.76c.05-.21.19-.51.34-.82z"/><path d="m46.9494 50.54c.18-.34.28-.39.46-.73.06.09-.23.35-.18.46-.19.31-.13.22-.35.58-.06-.02.18-.34.07-.31z"/><path d="m47.4895 49.62c.1-.15.14-.11.27-.39.1.11-.22.44-.27.39z"/><path d="m47.8493 49.06c-.04.04.01-.08.03-.1.04-.03-.01.08-.03.1z"/><path d="m30.2793 38.58c-.03.04 0-.08.02-.1.03-.04 0 .08-.02.1z"/><path d="m30.2994 38.59c.05.01.03.11-.06.3-.1.29-.0201.5-.2701.85-.08.03.04-.21.06-.3-.15.18.02-.15-.06-.15.18-.36.1701-.43.3301-.7z"/><path d="m29.9995 41.99c-.03.04 0-.08.02-.1.03-.03-.01.08-.02.1z"/><path d="m73.9994 44.8c-.3.12-.83.08-1.46.06-.59.02-1.29.02-1.74.08-.39-.03-.81-.04-1.06-.01-.22.01-.1-.07-.28-.07-.3-.01-.58-.01-.68.04-.25-.03-.64-.05-.77.02-.21-.04-.46-.06-.86-.05-.36-.04-.47-.02-.77-.05-.14.02-.25.03-.39.04-.69-.04-.91 0-1.83-.01-.19.02-.34.06-.49.09.12.09 1.1.06 1.16-.02.16.08.94.01 1.05.1.34.01.25-.08.59-.07.11.1.68.07.86.1.72-.03 1.03-.02 1.65-.08.24 0 .3.04.38.07.17 0 .25-.02.3-.05.46.08.7.02 1.35.01.21.02.52.02.57.08.28-.03.69-.03.96.01.52-.05 1.35.08 1.74-.04.32.09.85 0 1.25.08.18-.01.25-.05.49-.04.34.04.94.01 1.25.06 1.35-.07 2.94.08 3.76-.02.26.07.31.19.85.19.03.12.33.18.55.26.06.13-.44.11-.41.23-1.08.12-1.84.05-3.19.1-.42 0-.61-.06-1.06-.05-.34.01-.54.06-.78.09-.37 0-.46-.06-.76-.08-.2-.01-.26.01-.39.02-.37-.04-.78-.07-1.35-.03-1.02-.06-1.58.01-2.5-.06-.26-.02-.2.05-.39.04-.3.01-.35-.03-.58-.03-.27-.02-.25.03-.48.02-.27-.08-.89-.02-1.26.01-.23-.08-.7.01-.76-.08-.16 0-.25.02-.29.04-.25-.07-.78.02-.96-.03-.19.01-.25.05-.49.04-.24 0-.3-.04-.48-.05-.22.02-.75-.05-.68.04-.13-.06-.93-.09-1.06-.01-1.5.02-2.56-.03-3.67 0-.1.04-.31.05-.49.07-.38.01-.39-.06-.67-.08-.31.01-.75.13-.97.02-.25-.01-.32.03-.3.09-.57-.05-1.19-.09-1.82-.13-.17.01-.4.01-.49.04-.8-.07-1.51.05-2.23.08-.51-.03-.91-.05-1.44-.08.2-.18 1.43.04 1.56-.18-.32-.09-.49.01-.96-.01-.08-.14.52-.11.51-.23.49.07.86.11 1.44.08l-.02.14c-.39.03-.3-.05-.57-.05-.28.05.31.09.67.08.08 0 .3-.08.1-.07.01-.06.26.01.19.05.33 0 .3-.08.48 0 .2-.01.33-.04.4-.09.34.01.29.08.47.07.24-.03.39-.08.5-.14.47-.04.54-.05.97-.09v.05c.31-.09.79.04 1.44.01-.05.05.06.06.09.09.35-.04.89-.17 1.26-.06.37-.01.53-.07.88-.09.2.02.57 0 .47.1.3-.05.93-.02.98-.13-.24-.07-.53 0-.77-.01-.17 0-.2-.03-.38-.03-.36.01-.74.08-1.35.04-.31.01-.25-.07-.47-.07-.67-.02-1.07.03-1.46.08-.22.01-.22-.04-.38-.05-.12-.01-.34.02-.49.02-.26 0-.45-.01-.67-.05-1.85 0-3.25.03-4.72-.01-.25 0-.46.01-.58.04-.92-.08-1.94.01-2.6-.04-.06 0-.11.01-.16.01h-.02l-.01.02c-.09.19-.17.36-.26.55-.3.36-.78 1.32-.96 1.67-.15.27-.23.33-.39.66-.04.01-.11.13-.15.13-.13.34-.22.32-.44.74.04.14.19-.14.36-.45.1.08-.16.54-.35.93-.04.08-.01.08-.01.11-.13.14-.37.66-.45.62-.2.39-.42.88-.64 1.19-.12.21-.12.28-.13.38-.07.18-.13.14-.23.31-.05.09-.06.18-.1.28-.11.23-.28.44-.31.6.1-.03.14-.28.23-.42.11.03.35-.44.48-.48-.07.15-.1.15-.13.14-.12.21-.07.23-.13.38-.19.23-.41.63-.53.8.06-.34-.2.18-.3.14-.16.27-.07.42-.26.52-.1.21.07.14-.16.48.06-.01.17-.22.19-.1-.12.27-.34.57-.36.8-.09.11-.13.08-.19.1-.04.15-.15.32-.25.47l-.25.38-.16-.39c-.02-.04-.04-.09-.05-.13-.19-.16-.27-.45-.52-.93-.05.17.31.72.49 1.1l.26.55.31-.54c.05-.08.09-.14.13-.19.01.06-.01.14-.05.23l-.28.67-.44-.68c-.19-.29-.4-.87-.65-1.36.03-.09-.27-.58-.15-.56-.21-.37-.37-.51-.45-.86-.07-.12-.14-.2-.2-.23-.13 0 .08.4-.03.42.19.39.25.19.43.55.02.14.1.35.04.4.11.22.15.09.26.31.07.24.36.74.43.97-.1-.02-.31-.55-.47-.85-.14-.2-.3-.5-.43-.66-.16-.42-.33-.5-.41-.87-.07-.15-.13-.22-.17-.24-.12-.36-.43-.99-.69-1.48.03-.05.09.04.13.05-.16-.29-.3-.51-.43-.66-.2-.41-.39-.77-.54-.92-.2-.37-.2-.5-.41-.87 0-.07-.09-.43-.15-.46-.05-.13.02 0 .04-.02-.09-.24-.29-.49-.26-.52-.12-.22-.2-.24-.33-.49-.18-.14-.33-.56-.45-.65-.06-.12-.13-.24-.11-.27-.18-.2-.21-.31-.37-.58-.11-.23-.25-.49-.28-.61-.11-.19-.2-.28-.3-.4-.08-.18-.03-.19-.04-.29-.25-.38-.72-1.09-.86-1.62-.07-.11-.13-.14-.18-.14-.26-.54-.42-.59-.71-1.27-.12-.19-.22-.29-.31-.3-.18-.4-.47-.76-.38-.88-.15-.31-.22-.29-.37-.58.02-.04-.07-.15-.11-.17-.07-.2-.07-.31-.17-.55-.24-.39-.53-.68-.73-1.26-.18-.33-.32-.49-.46-.65-.07-.22-.08-.16-.19-.44-.18-.31-.32-.42-.54-.93-.09-.12-.21-.38-.26-.31-.13-.26-.12-.35-.19-.54-.17-.39-.29-.51-.45-.86-.08-.22-.21-.49-.33-.73l2.16-.04c-.05.13-.1.24-.13.34-.15.23-.28.31-.43.52-.19.07-.15-.29-.37 0-.15.27.01.16-.1.39-.22.38-.43.69-.53 1.02-.19.25-.48.94-.67 1.16l-.25.53c-.02 0-.2.25-.14.25-.08.11-.14.14-.2.21-.09.24-.02.29-.08.51-.23.36-.35.8-.47.72-.12.28-.31.63-.35.8.03.1.37-.53.1.06.06.01.18-.22.28-.39-.09.32-.16.39-.27.74-.14.15-.15.19-.26.4-.05.12.02.1.04.14-.17.28-.46.78-.43.97-.1.22-.16.25-.24.41-.23.47-.28.7-.47.95-.01.23-.43.95-.26.96-.12.12-.28.45-.39.55-.07.18-.05.27-.02.32-.25.51-.53 1.11-.72 1.62l-.18.48-.66.05c-.06 0-.11.01-.16.01-.32 0-.27-.08-.47-.1-.42.05-.9.09-1.37.13l-.28-.07c-.25-.01.08.13-.3.09-.07-.07.15-.06.11-.12-.35-.02-.39.05-.4.12-.29.05-.99 0-1.07.11-.3-.06-.67.03-.86-.05-.11 0-.09.04-.1.07-.17 0-.55-.07-.68 0-.14-.01-.02-.07-.18-.07-.22.01.11.04-.1.07-.32-.04-.78-.07-1.15-.03-.2-.1-.68-.01-.86-.1-.31.05-.82.05-1.35.04-.18-.06-.45-.13-.26-.22.16-.01.18.02.19.05.24-.11.77-.13 1.26-.06.1-.05.36-.05.49-.09.32 0 .48.04.87.03.48-.06 1.2-.02 1.75-.11.2.07.53-.04.57.05.28-.04.82-.01 1.07-.06.17 0 .2.03.38.03.34.01.25-.08.59-.07.03.12.37-.01.58 0l-.01.07c.3-.03.58 0 .87.03.48-.06.45 0 .9-.01l.45-.01.15-.37c0-.01.01-.03.02-.06.07-.07.15-.21.22-.31.07-.14.05-.16.1-.27.12-.16.28-.55.37-.56-.02-.19.11-.55.2-.88.22-.43.21-.42.35-.8.07-.07.15-.21.22-.31.09-.19.11-.29.06-.3.1-.18.17-.22.29-.5.11-.16.02-.15.04-.2.07-.2.24-.46.08-.4.09-.16.11-.02.22-.31-.07-.05-.11.28-.18.11-.1.25-.22.54-.39.77-.04.1.01.08-.04.2-.31.61-.46 1.03-.69 1.37-.02.09-.02.15-.02.21-.1.24-.35.68-.35.8-.2.32-.44.83-.67 1.37l-.12.27-.32.01c-.65.01-1.33.03-1.85.02-.3-.02-.19.06-.49.04-.22-.01-.3-.05-.47-.07-.31.01-.67.08-.87-.01-.13.02-.3.04-.39.07-.61-.07-1.82 0-2.31-.04-.36.03-.89.01-1.25.01-.19 0-.3.01-.49.07-.56-.03-1.06-.09-1.64-.01-.23 0-.35-.05-.57-.05-.33-.01-.72.05-1.07.04-.23-.01-.31-.07-.57-.05-.08-.03-.12-.06-.08-.12-.26 0-.2.04-.39 0-.14.05-.36.08-.69.09-.16-.08-.66-.08-.55-.22-.42 0-.84-.01-1.25-.01-.13.13-.95.08-.9.25-.21999.01-.49997.04-.66997-.01-.15-.01-.17001.02-.29001.02-.42-.06-1.42002.01-1.83002-.06-.28.05-.61997.04-1.25997.04-.01-.03-.17001-.02-.29001-.03-.05-.05-.19-.08-.28-.12-.23-.03-.41001.07-.48001 0-.27-.07.32999-.06.39999-.12.46.02.82002.06 1.24002.08.23-.02.28999-.03.67999-.04.44-.01.66002-.11 1.45002-.06.13-.11-.25002-.09-.17002-.19.46-.01.71001-.08.98001-.14h.47998c.4-.06.97-.09 1.27-.18.42.07 1.01-.05 1.35.01.06.09-.42.04-.49.09.06.08.69.02.96.01.02-.05-.07-.08-.28-.07.12-.11.7-.06.97-.02.61-.03 1.73-.1 2.03-.06.11-.01.07-.05.2-.05.38.02.72-.03.87.01.33-.02.52-.08.78-.11.27.13.88-.07 1.15.08.21-.07.89-.01 1.07-.09.31.11.84-.01 1.25.06.22-.02.43-.05.59-.09.28.03.86-.04 1.26-.06.09-.02.15-.04.2-.07.31-.01.25.07.47.07.36.03.28-.06.58-.04-.2.05.02.03.09.07.41-.04.89-.06 1.18-.13.13.01.25.01.36 0l-.63.41c.12-.28.19-.53.34-.72.17-.41.14-.57.35-1.02-.21.12-.36.67-.59.99-.14.28-.21.47-.29.67l.83-.53h-.05c-.23-.04-.21-.12-.57-.07-.04.04.07.05.19.05-.23.03-1.27-.05-1.64.01-.16.01-.16-.02-.29-.03-.21.03-.62 0-.68.07-.38-.05-.52-.15-1.05-.1 0-.06-.32-.05-.57-.05-.37.03-.69.06-1.07.09-.33-.05-.84-.05-1.24-.08-.39.01-.8.02-1.07.06-.64-.03-.7.06-1.16.02-.12.03-.25.06-.4.09-.11-.03-.34-.03-.57-.03-.12-.05-.14-.12-.47-.12-.3.03.09.08-.02.14-.32.05-.98.01-1.45.01-.44.04-1.2.1-1.65.06-.27.01-.42.05-.68.07-.3.02-.28-.04-.58-.03-.56.07-1.68999 0-2.12999.1.17.08-.12.09-.21.16h-.57998l.00998-.09c.04-.05-.27-.03-.28-.07.23 0-.03-.06-.19-.05.17-.05.26999-.11.58999-.11-.07-.09.25003-.08.31003-.14.17 0 .24999-.02.29999-.05.72.06 1.78998-.17 2.50998-.03.28.01.3-.05.58-.04.29.09.69.01 1.15.05.37-.03.73-.07 1.26-.06.17 0 .25-.02.3-.05.54.07.92-.03 1.35.03.42 0 .53-.09.87-.04.1-.01.07-.05.2-.05.68.01 1.27 0 1.65-.06.43.03 1.12.03 1.45-.04.41.03.77.07 1.34.06.39-.01.62-.09.97-.04.29-.03.82-.1 1.16-.04.26-.06.9-.03 1.17-.09.51.02.48.01.96.03.09-.01.18-.01.28-.02l-1.25.81c.13-.32.29-.68.35-.92.13-.18.15-.21.2-.44.06-.15.09-.14.14-.25.1-.22.09-.29.16-.46.28-.58.38-.77.63-1.3.07-.15.09-.24.08-.29.08-.1.28-.5.22-.54.14-.18.13-.22.25-.41.1-.24.13-.49.31-.71.02-.1.14-.33.06-.3.07-.12.13-.21.2-.33.04-.22.37-.81.33-.92.09-.11.23-.45.29-.39.08-.15.18-.45.2-.32.23-.71.5-1.09.57-1.56.29-.51.26-.71.55-1.12.22-.6.42-1.01.75-1.67.21-.54.35-.97.58-1.48l1.34-3.05 1.57 3c.09.18.19.37.28.58.1.24.13.16.22.33.1.27.15.34.28.51.19.39.22.53.41.77.08.18.31.56.28.61.1.22.17.26.24.32.03.11.13.32.24.53.06.15.1.16.13.16.04.14.08.23.17.35.13.25.08.28.21.53.23.47.22.37.45.75-.02.07.19.41.15.46.13.23.2.18.35.49.02.36.56 1.06.77 1.66.11.18.22.33.28.3.01.11.29.56.12.46.31.53.47.95.77 1.55.01.05.01.1-.02.11.23.46.47.98.64 1.19.15.28.18.41.28.61.26.51.29.5.45.96.4.85.68 1.43 1.11 2.24.12.2.25.4.37.58.12.33.4.96.71 1.48.07.18.31.56.28.61.37.56.63 1.38.99 1.88.11.32.46.99.58 1.22.12.27.17.2.28.41.18.4.33.73.49 1.07l-2.88-.05c.15-.26.29-.53.45-.83.26-.39.54-.86.62-1.21.25-.44.52-.68.63-1.08.36-.46.67-1.14.94-1.68.11-.1.26-.31.35-.34.13-.29.12-.43.14-.6.13-.29.22-.36.29-.62.2-.28.46-.82.65-1.07.11-.29.33-.7.44-.98.16-.17.27-.56.32-.48.14-.22.05-.19.08-.29.27-.41.32-.7.45-.86.09-.18.04-.2.13-.38.03-.04.05-.07.06-.09l.67-1.02.92.07c.27.02.29.04.66.02-.09.1.42.05.57.1.22-.02.52-.01.59-.07.34.05 1.01.01 1.34.06.64-.02.84-.02 1.25.03.32 0 .51-.03.68-.07.23.01.39.03.57.05.53-.07 1.04 0 1.65-.06.47.06.62.07.94.17h.77c.02-.11-.52-.09-.56-.19.11-.09.59.02.86.03.47-.01 1.22-.05 1.64.01.4.02.81-.03.96.01.29 0 .33-.06.58-.07.86.11 2.11-.01 3.07.12.28.01.3-.05.58-.04.03.05.53 0 .47.07.53-.05 1.35 0 1.73.06.37-.03.46.02.77-.02.21.02.52.02.57.07.18-.01.25-.05.49-.04.3.04.55.09 1.05.08.1.05.37.05.47.1.12-.01.2-.03.2-.07.23 0 .28.04.58.03.33-.04.54.03.68-.04.24.01.44.04.57.08.56-.03.54.08.96.08.02.06-.38.02-.3.09.5.04 1.03-.03 1.44.06.67-.04 1.23.03 1.74-.03.04.03.12.05.28.05.61-.08 1.77-.01 2.14-.15.34.01.23.07.58.03-.03.09.39.08.56.12.07.08.19.14.36.19-.26.03-.58.17-.88.11-.17.05-.58.04-.78.09-.54-.04-1-.04-1.54.01-.82-.02-1.43-.03-1.84.08-.17 0-.55-.07-.67 0-.18-.01-.17-.07-.48-.05-.24-.01-.24.05-.39.07-.22-.02-.49-.02-.67-.05-.39.05.1.07-.11.12.16.05.68.01.76.08.02.02-.04.02-.1.02-.09.06-.07.03-.09.01zm-5.88-.82c-.67-.11-1.27-.09-2.11-.09-.22-.02-.58-.05-.77-.01-.36-.08-1.13-.06-1.72-.08-.2.03-.47.04-.69.07-.51-.03-1.06-.06-1.33-.15-.31-.02-.3.04-.48 0-.02.06-.15.09-.4.09-.63-.02-1.37-.05-2.02-.01.32.05-.14.11-.12.16.53.02.74-.05 1.07-.09.21.07.55-.03.77-.04-.08.07.33.03.18.12.57.06 1.89.11 2.32-.01.22.11 1.1.11 1.54.06.23.11.82.08 1.34.08.13 0 .09-.04.2-.05.53.09 1.08.04 1.73.08.11-.05.3-.08.59-.09.45.08 1.19 0 1.63.08.31-.06.63.02.78-.07-.82.01-1.7-.08-2.51-.05zm-13.49-.15c-.19-.03-.83 0-.97.06.41-.04.36.02.58.03.17-.01.42-.01.58-.02.2 0 .43.04.49-.04-.25-.05-.45-.05-.68-.03zm-1.17.09c.01-.04-.07-.06-.18-.07-.14.03-.16.09.18.07zm2.23-.05c-.03-.01-.15.01-.1.02.02.01.15-.01.1-.02zm-6.19.07c-.09.07.07.09.18.12.62-.01.78-.1 1.45-.04.15-.05.52-.04.59-.11-.77-.05-1.24-.08-1.93-.01-.27.01-.34-.02-.52-.03l-.84-.04-.45.8c-.02.03-.04.08-.07.13-.19.41-.33.92-.56 1.25.03.05.1-.07.12-.03.12-.3.31-.67.5-1.05-.02-.06-.12.09-.06-.04.06-.02.08-.11.13-.22l.24-.6.98-.12c.08-.02.16-.02.24-.01zm2.61.02c.37-.01.73-.02.88-.09-.46-.01-.8.01-.88.09zm19.08.09c-.02-.01-.15.01-.1.02.03 0 .15-.01.1-.02zm.77.02c-.1.08.38.04.57.05.04-.07-.41-.08-.57-.05zm-25.17 3.06c-.13.37-.28.6-.46.97-.02-.04-.35.52-.21.43.16-.1.52-1.03.55-.9.16-.25.1-.27.26-.52-.03-.1 0-.08-.1-.07.07-.17.22-.24.19-.34-.12.19-.15.11-.29.38zm-3.82 5.36c.15.24.35.51.34.69-.05.01-.15-.23-.18-.14.17.49.61 1.06.79 1.65-.14-.12-.34-.52-.52-.83-.06.01 0 .16.04.29.03-.03.09.07.17.24-.12-.07.01.15 0 .2.14.26.28.57.45.91l-.97-.02c.14-.25.29-.52.42-.82-.08.13-.04-.01.01-.11.07-.03.18-.19.29-.38-.02-.03-.06-.02-.01-.13.07-.09.15-.21.25-.41.07-.26.26-.56.57-1.12.06-.18.16-.4.27-.63.03 0 .05.05.11-.04 0-.03-.04-.03.01-.11.1-.08.23-.47.35-.69.39-.7.54-.96.76-1.46.05.01.21-.37.27-.39.12-.34.29-.55.43-.87.24-.41.28-.6.44-.74.03-.15.05-.28.01-.35.14-.34.32-.71.29-.86-.17.25-.26.33-.39.66-.02-.01.01-.09.01-.11-.28.52-.42.78-.64 1.19.08.13-.14.58-.42 1-.09.16.03.1-.08.29-.4.43-.59 1.24-.96 1.67.04.02.01.1-.04.21-.2.23-.35.79-.61 1.09-.01.28-.59.98-.6 1.22-.12.06-.2 0-.33.12.24-.45.29-.55.59-1.11.1-.15.14-.11.27-.39.06-.16-.12-.08.02-.34.13-.04.22-.2.28-.16.3-.54.45-.91.56-1.25.04 0 .13-.17.18-.22-.09-.02.08-.31.07-.42-.1.08-.2.16-.33.35.12-.03-.18.38-.18.46-.1.1-.31.55-.41.65.02.03.03.06-.06.2-.39.69-.68 1.12-1.06 1.95-.35.54-.54.84-.75 1.35l-.04-.03c-.09.19-.11.25-.19.38l2.26.04c-.01-.02-.03-.08-.06-.15-.08.01-.22-.28-.35-.48-.1-.16-.06-.21-.08-.28-.09-.21-.26-.41-.34-.69-.12-.17-.23-.32-.35-.49-.18-.54-.46-.9-.58-1.32-.22-.31-.56-.97-.73-1.36-.22-.25-.34-.49-.58-1.01-.31-.47-.57-.95-.86-1.62-.21-.43-.23-.42-.39-.78-.23-.34-.57-1.15-.76-1.25.12.29.07.34.26.62l-.07.02.17.35c.08.42.33.85.51 1.34.03 0 .06-.04.11.06.23.48.45 1.03.66 1.39.02.1-.07.06.06.28.15.23.35.64.5.84.02.13.09.32.19.54.08.16.1.03.2.23-.02.02-.07.01-.02.11.05-.04.14.1.17.24-.09-.14-.21-.24-.09.03.06-.01.13.01.22.12.03.15.24.46.23.63.08.03.13.02.29.2-.13-.31-.21-.38-.19-.54-.04-.02-.24-.23-.22-.33.15.04.28.5.36.62zm2.48-2.66.14-.25c-.03-.04-.09.05-.18.23zm2.56-4.41c-.27.47-.41.69-.39.9.21-.44.34-.79.62-1.21l-.08-.05c-.14.21-.05.19-.15.36zm1.46-1.17c-.03-.01-.15.01-.1.02.03.01.15-.01.1-.02zm-11.26-1.55.04-.02c-.24-.53-.29-.63-.54-1.03-.04.12-.16-.16-.24-.22.04.19.23.5.34.69.22.47.45.85.56 1.12.08.05.28.61.33.5-.22-.42-.31-.67-.49-1.04zm.67 1.39c.14.29.13.41.34.79.06-.02.18.25.24.22-.22-.52-.38-.76-.58-1.01zm-9.78-7.46c-.11.29-.16.25-.24.41-.14.5-.39.9-.51 1.37-.16.2-.4.77-.57 1 0 .09-.06.25-.16.46-.27.52-.55 1.13-.79 1.53.01.03-.01.12-.04.2-.25.48-.31.89-.55 1.24.01.13-.18.49-.33.81.07.06.04-.07.14-.25.05-.04.12-.16.2-.32.2-.43.44-.91.55-1.24.11-.18.24-.42.35-.57-.01-.08.05-.27.14-.47.09-.16.11-.02.22-.31.16-.56.58-1.21.75-1.78.21-.26.5-.96.59-1.21.09-.17.13-.14.22-.31.14-.42.36-.75.53-1.13-.02-.1.34-.67.22-.65-.19.54-.37.59-.65 1.29-.04-.04.04-.19-.07-.07zm8.17 4.18c-.16-.14-.47-.96-.58-.91.21.39.23.55.45.96.14.22.19.18.3.5.06-.04 0-.24-.17-.55zm-12.12 4.52c.11-.19.18-.19.28-.39-.07-.04.18-.47.1-.5-.17.38-.33.62-.38.89zm11.39-5.89c-.34-.69-.6-.89-.88-1.62-.1-.11-.25-.49-.3-.4 0 .07.16.33.13.36.14.23.26.55.39.78.02.04.13.17.17.24.18.31.4.76.54.82-.06-.1-.11-.2-.05-.18zm36.7 5.26c.01-.04-.07-.06-.18-.07-.02.04.06.06.18.07zm-47.62-.32c.27-.41.01-.27 0 0zm9.05-8.44c.04.1.04.14.04.19.13.21.26.45.33.39-.16-.33-.28-.53-.37-.58zm36.93 8.72c-.11 0-.27-.01-.29.02.12 0 .27.01.29-.02zm-46.87.53c0-.01-.08-.03-.1 0 0 .01.08.02.1 0zm13.61-1.92c.02-.01-.05-.16-.09-.17-.02.03.03.1.09.17zm-5.05-9.99c.09 0-.14-.48-.25-.62l-.07.03c.17.47.54 1.23.77 1.45-.16-.34-.31-.64-.45-.86zm2.06 4.04c.02-.01-.05-.16-.09-.17.06.1.04.15.09.17zm34.41 7.42h.19v-.05h-.19zm-39.64-9.84c-.01-.01-.06.06-.04.09.01 0 .06-.06.04-.09zm.23-.54c-.03.07-.08.17-.06.19.02-.07.07-.17.06-.19zm.34-.57c.1-.21.16-.37.16-.46-.09.11-.17.37-.16.46zm-.2.43c.26-.27.13-.5 0 0zm.51-.92c.15-.24.03-.31-.06-.04zm-15.84 12.03c0-.01-.08-.03-.1 0 0 .01.08.03.1 0zm47.73-.4c.18.01.24.05.48.05.05-.07-.4-.13-.48-.05zm-36.58-1.25c-.02-.02-.07.01-.06.07.02.03.07 0 .06-.07zm2.65-5.23c-.14.11-.26.48-.39.77.11-.02-.01.23-.06.41-.09.16-.15.19-.24.41-.12.42-.4.69-.43.97.01-.17-.2.17-.16.24.21-.41-.06.32 0 .34-.14.33-.16.43-.31.6.04.01.01.11-.08.29-.21.34-.23.43-.45.74.08-.16.08-.22.02-.21-.16.3-.11.21-.26.51.01.03.04.03 0 .11-.28.51-.34.82-.49 1.27-.07.03-.14.09-.26.4-.01.2-.16.57-.24.86l.39-.25c-.08.01-.15.02-.2.04-.23-.08-1.21-.08-1.35.01-.45-.06-1.24-.02-1.27.11.44.07.57-.02 1.05.05.46-.01.96-.06 1.45-.01.14 0 .17-.04.3-.05.01.01.01.01.02.01l-.23.15c.04-.03.08-.1.14-.22.11-.33.33-.68.45-1.07l.04.02c.17-.42.37-.66.45-.96.05 0 .12-.12.2-.33.2-.68.62-1.56.83-2.18.22-.25.28-.68.51-1.04.08-.18.02-.2.1-.39.17-.2.26-.62.39-.89.06-.07.16-.32.18-.22.1-.22.09-.29.16-.46.15.02.12-.34.3-.49-.03-.17.42-1.1.61-1.42.04-.25.12-.54.29-.95.06.03-.03.17.08.05.15-.4.37-.86.55-1.12.01-.23-.01-.41.08-.73-.24.4-.27.58-.43.97-.11.22-.18.23-.31.49-.05.12-.05.18-.14.36.04.02.02.1-.02.21-.18.41-.14.55-.31.94-.15.22-.16.43-.29.5 0-.15.03-.23-.08-.16-.17.45-.47.92-.59 1.32zm17.23 12.25c-.1-.02.11-.17.21-.43-.06-.03-.39.47-.43.63.1-.17.09.04.22-.2zm.45-.97c.04.05.13-.09.22-.2-.07 0 .16-.33.13-.38-.17.3-.22.28-.35.58zm-.19.45.14-.25c-.03-.04-.09.05-.18.23zm-10.91-10.99c-.1-.24-.13-.16-.22-.33-.18-.58-.59-1.34-.96-1.99-.12-.25-.01-.22-.19-.54-.06-.04-.12-.11-.2-.23-.15-.26-.13-.32-.24-.53-.08-.05-.19-.18-.32-.49l-.11.04c.47.87.9 1.89 1.37 2.66.09.41.27.49.45.96.19.25.21.37.41.67.06.23.32.66.45.85.03-.15-.39-.83-.44-1.07zm9.79 13.14c.16-.16.15-.3.2-.45-.07.15-.18.35-.2.45zm-28.03-6.32c-.29.01-.75-.03-.78.04.3.07.35-.05.67 0 .12 0 .14-.03.29-.02.32-.02 1.04.06 1.07-.04-.23-.09-1.05-.04-1.25.02zm5.02-.01c.22.12.26-.08 0 0zm-.49.04c-.08.01-.19 0-.2.02.08 0 .2 0 .2-.02zm-1.55.04c-.13-.01-.18-.04-.38-.03-.16.07.41.07.38.03zm-2.81.1c.36.05.64-.01.96.03-.02-.04.11-.05.11-.09-.48.01-.77-.04-1.07.06zm39.65-.53h.19v-.05h-.19zm.29 0c.12 0 .13.03.29.03.01-.04-.07-.06-.19-.07 0 .02-.08.02-.1.04zm-45.92.55c.2-.01.88-.01.59-.07.01.05-.58-.02-.59.07zm9.45.05c-.15.03-.24.07-.49.07.01.1.39.11.76.12-.01-.08.46-.04.4-.14-.39.02-.28-.07-.67-.05zm2.02.01c-.03-.01-.15.01-.1.02.03.01.15-.01.1-.02zm-.58.02c-.02-.01-.15.01-.1.02.03.01.15-.01.1-.02zm.96.03c-.11 0-.15-.04-.19 0 0 .02.16.03.19 0zm-4.83.11c.4.03.38-.05.68-.04.18 0 .21.03.38.03.17-.05.63-.03.69-.11-.59.05-1.17.05-1.64-.01-.18.04-.22.06-.11.13zm-.87-.01c.24.01.4-.01.49-.04-.18-.01-.17-.07-.48-.05zm11.24-4.87c.02.08.27-.37.24-.41-.08.16-.13.12-.24.41zm.42-.86c-.08.04-.13-.02-.24.19-.06.17-.18.44 0 .34zm-2.58 5.83c-.02.02-.05.14-.02.1.02-.03.05-.14.02-.1z"/><path d="m77.3594 44.92c.15-.02.07.02 0 .02-.13.01-.21-.02-.09-.02z"/><path d="m25.7994 45.84c-.17.23.01-.13.1-.27.07.05-.17.26-.1.27z"/><path d="m46.3495 51.28c-.06-.2.22-.54.48-1.06.02.09.13-.15.2-.21-.16.28-.38.91-.68 1.27z"/><path d="m45.2895 53.47c.06-.22.01.11.1-.04.17-.36.29-.48.38-.78.1-.17.14-.13.22-.2.17-.45.44-.65.56-1.01.27-.15-.29.57-.27.63-.06.1-.07.05-.1.04-.07.25-.31.59-.52 1.04-.15.06-.4.56-.49.83-.07.14-.1.13-.16.24-.08.28-.28.5-.32.72-.05.07-.1.14-.13.14-.05.11-.07.19-.04.21-.25.37-.28.55-.42.77l-.68 1-.4-1.02c-.02-.05-.04-.11-.05-.17.02-.04.07.03.13.14l.45.89.48-.88c.07-.14.19-.32.25-.43.05-.19-.02-.25.23-.66.07.16.4-.61.38-.67.14-.14.42-.65.4-.79z"/></g></svg>