<svg width="108" height="108" viewBox="0 0 108 108" fill="none" xmlns="http://www.w3.org/2000/svg">
<path d="M74.15 66.5701C74.25 66.5801 74.01 66.6001 73.96 66.5901C73.86 66.5801 74.1 66.5601 74.15 66.5701Z" fill="#1E1E1E"/>
<path d="M89.64 66.3101C89.63 66.3301 89.4 66.3301 89.25 66.3301H88.67C88.64 66.2701 89.35 66.3201 89.64 66.3101Z" fill="#1E1E1E"/>
<path d="M104.23 66.0901C104.18 66.1201 103.84 66.1101 103.84 66.0901C104.02 66.0701 104.2 66.0601 104.23 66.0901Z" fill="#1E1E1E"/>
<path d="M104.83 73.4701C104.93 73.4701 104.57 74.8101 104.46 74.9701C104.25 75.9301 104.19 76.0601 103.96 76.8101C104.01 76.3701 104.15 75.9401 104.3 75.5101C104.44 74.9501 104.65 73.8901 104.83 73.4701Z" fill="#1E1E1E"/>
<path d="M102.14 81.8901C102.03 82.1201 101.92 82.3501 101.8 82.5801C101.67 82.6401 102.09 81.8001 102.14 81.8901Z" fill="#1E1E1E"/>
<path d="M33.83 65.3701C33.79 65.3901 33.45 65.3901 33.43 65.3701C33.51 65.3401 33.61 65.3701 33.83 65.3701Z" fill="#1E1E1E"/>
<path d="M105.03 73.1501L105.12 72.5801C105.21 72.4601 105.3 72.2501 105.39 72.0901C105.24 73.0601 105.28 73.0701 105.08 73.5901C105.11 73.1801 105.04 73.3701 105.03 73.1501Z" fill="#1E1E1E"/>
<path d="M39.29 65.3601H38.9L38.88 65.3201H39.27L39.29 65.3601Z" fill="#1E1E1E"/>
<path d="M38.49 65.3201C38.49 65.3401 38.26 65.3301 38.11 65.3401C38.1 65.3201 38.34 65.3201 38.49 65.3201Z" fill="#1E1E1E"/>
<path d="M34.17 65.2801L34.15 65.2401C34.52 65.2101 34.4 65.2401 34.93 65.2401L34.95 65.2801C34.42 65.2801 34.57 65.3101 34.17 65.2801Z" fill="#1E1E1E"/>
<path d="M104.87 74.5401C104.86 74.4401 104.91 74.3801 104.97 74.1701C104.98 74.2301 104.89 74.5501 104.87 74.5401Z" fill="#1E1E1E"/>
<path d="M86.82 64.8001C86 64.7701 84.79 64.7901 84.67 64.6301C84.96 64.6601 85.47 64.6601 85.65 64.7001C86.06 64.7001 85.71 64.6001 86.05 64.5801C86.61 64.6201 86.91 64.6901 86.82 64.8001Z" fill="#1E1E1E"/>
<path d="M106.47 64.8201C106.57 64.8301 106.32 64.8501 106.27 64.8401C106.17 64.8301 106.42 64.8101 106.47 64.8201Z" fill="#1E1E1E"/>
<path d="M105.88 64.8201C105.98 64.8301 105.73 64.8501 105.68 64.8401C105.58 64.8301 105.83 64.8101 105.88 64.8201Z" fill="#1E1E1E"/>
<path d="M89.38 64.6701C89.93 64.7101 91.94 64.6901 92.72 64.7001C92.5 64.8301 91.12 64.6901 90.35 64.7601C89.89 64.7501 89.45 64.7301 89.38 64.6701Z" fill="#1E1E1E"/>
<path d="M94.11 64.6401C95.23 64.6201 95.23 64.7701 96.27 64.6901C95.89 64.8101 94.41 64.7501 94.11 64.6401Z" fill="#1E1E1E"/>
<path d="M89.19 64.6501C89.13 64.5901 89.6 64.5901 89.98 64.5801C89.81 64.6101 89.68 64.6501 89.19 64.6501Z" fill="#1E1E1E"/>
<path d="M100.22 64.6101C100.32 64.6201 100.07 64.6401 100.02 64.6301C99.92 64.6201 100.17 64.6001 100.22 64.6101Z" fill="#1E1E1E"/>
<path d="M90.57 64.5801C90.56 64.6001 90.33 64.6001 90.17 64.6001C90.18 64.5801 90.42 64.5801 90.57 64.5801Z" fill="#1E1E1E"/>
<path d="M83.68 64.4901C84.3 64.4201 85.33 64.4901 85.86 64.3801C86.3 64.3701 86.94 64.5001 87.05 64.3801C87.51 64.3901 87.41 64.4601 88.03 64.4501C87.89 64.5701 86.22 64.5001 85.85 64.5801C84.82 64.5901 84.41 64.5201 83.68 64.4901Z" fill="#1E1E1E"/>
<path d="M103.17 64.6001C104.17 64.5101 104.44 64.6501 103.17 64.6001V64.6001Z" fill="#1E1E1E"/>
<path d="M106.71 69.7301C106.76 69.4901 106.8 69.3401 106.84 69.3601C106.78 69.7901 106.75 69.7301 106.71 69.7301Z" fill="#1E1E1E"/>
<path d="M89.79 64.4801C90.07 64.4101 91.05 64.4301 91.77 64.4101C91.77 64.4601 92.31 64.4401 92.15 64.5001C92.03 64.5301 91.39 64.5001 91.36 64.5401C90.73 64.4701 90.44 64.5101 89.79 64.4801Z" fill="#1E1E1E"/>
<path d="M105.94 64.5601C105.41 64.6401 105.49 64.4301 105.94 64.5601V64.5601Z" fill="#1E1E1E"/>
<path d="M94.91 64.5501L94.92 64.4601C95.51 64.4601 96.1 64.4601 96.69 64.4701C96.28 64.5101 95.6 64.5301 94.91 64.5501Z" fill="#1E1E1E"/>
<path d="M101.62 64.5001C100.83 64.5001 100.64 64.4401 99.85 64.4501C99.96 64.3601 100.69 64.4801 100.85 64.3801C101.58 64.3901 101.36 64.3901 102.23 64.4101C102.28 64.4701 101.46 64.4201 101.62 64.5001Z" fill="#1E1E1E"/>
<path d="M99.46 64.4701C99.09 64.4601 99.11 64.4001 98.48 64.4201C98.57 64.2801 99.48 64.3901 99.46 64.4701Z" fill="#1E1E1E"/>
<path d="M98.08 64.4101C98.18 64.4201 97.93 64.4401 97.88 64.4301C97.78 64.4201 98.03 64.4101 98.08 64.4101Z" fill="#1E1E1E"/>
<path d="M59.37 107.26C59.27 107.23 59.52 107.25 59.58 107.27C59.67 107.29 59.42 107.27 59.37 107.26Z" fill="#1E1E1E"/>
<path d="M59.36 107.28C59.38 107.34 59.17 107.33 58.74 107.26C58.11 107.19 57.76 107.3 56.91 107.09C56.8 107.01 57.34 107.11 57.53 107.12C57.07 106.99 57.85 107.12 57.78 107.04C58.6 107.17 58.73 107.14 59.36 107.28Z" fill="#1E1E1E"/>
<path d="M52.53 107.04C52.43 107 52.69 107.05 52.74 107.07C52.83 107.11 52.58 107.06 52.53 107.04Z" fill="#1E1E1E"/>
<path d="M40.08 65.3801C40.61 65.2901 41.71 65.3201 43 65.3401C44.19 65.3201 45.6 65.3301 46.49 65.2801C47.31 65.3101 48.14 65.3101 48.65 65.2901C49.1 65.2901 48.89 65.3501 49.26 65.3501C49.88 65.3601 50.44 65.3601 50.61 65.3201C51.13 65.3401 51.94 65.3601 52.17 65.3101C52.62 65.3401 53.13 65.3701 53.94 65.3601C54.69 65.3801 54.9 65.3901 55.52 65.4101C55.8 65.4001 56.01 65.3901 56.29 65.3701C57.71 65.4101 58.12 65.3701 60.01 65.3901C60.39 65.3701 60.68 65.3401 60.97 65.3101C60.68 65.2301 58.72 65.2501 58.62 65.3201C58.25 65.2501 56.71 65.3101 56.45 65.2301C55.75 65.2201 55.99 65.3001 55.29 65.2901C55.02 65.2001 53.87 65.2301 53.5 65.2001C52.06 65.2301 51.42 65.2201 50.19 65.2701C49.7 65.2701 49.57 65.2401 49.39 65.2101C49.05 65.2101 48.88 65.2201 48.81 65.2501C47.82 65.1801 47.38 65.2301 46.07 65.2401C45.63 65.2201 45 65.2201 44.87 65.1801C44.31 65.2001 43.49 65.2001 42.91 65.1701C41.89 65.2101 40.12 65.1001 39.39 65.1901C38.69 65.1101 37.67 65.1901 36.81 65.1201C36.44 65.1301 36.34 65.1601 35.85 65.1501C35.13 65.1201 33.93 65.1401 33.28 65.1001C30.59 65.1501 27.24 65.0401 25.64 65.1101C25.06 65.0601 24.89 64.9701 23.78 64.9701C23.64 64.8801 22.98 64.8401 22.48 64.7801C22.26 64.6901 23.3 64.7001 23.16 64.6101C25.28 64.5201 26.88 64.5601 29.62 64.5201C30.48 64.5201 30.9 64.5601 31.81 64.5501C32.5 64.5401 32.87 64.5001 33.35 64.4801C34.1 64.4801 34.32 64.5301 34.95 64.5301C35.37 64.5401 35.47 64.5201 35.73 64.5101C36.51 64.5401 37.37 64.5601 38.51 64.5301C40.62 64.5701 41.73 64.5101 43.65 64.5701C44.2 64.5801 44.03 64.5301 44.42 64.5301C45.01 64.5201 45.14 64.5501 45.61 64.5501C46.17 64.5701 46.11 64.5201 46.59 64.5301C47.19 64.6001 48.41 64.5401 49.15 64.5101C49.66 64.5701 50.57 64.5001 50.75 64.5701C51.09 64.5701 51.25 64.5601 51.33 64.5301C51.89 64.5901 52.91 64.5101 53.31 64.5501C53.69 64.5401 53.79 64.5101 54.28 64.5101C54.77 64.5101 54.9 64.5401 55.28 64.5501C55.73 64.5301 56.83 64.5901 56.65 64.5101C56.95 64.5601 58.59 64.5801 58.82 64.5101C61.88 64.5101 64.05 64.5001 66.32 64.5001C66.5 64.4601 66.93 64.4501 67.29 64.4401C68.05 64.4301 68.11 64.5001 68.68 64.5101C69.31 64.5001 70.16 64.3901 70.65 64.4901C71.17 64.5001 71.29 64.4601 71.23 64.4001C72.41 64.4401 73.69 64.4801 74.99 64.5201C75.34 64.5101 75.81 64.5101 75.97 64.4801C77.63 64.5501 79.04 64.4201 80.51 64.4001C81.56 64.4301 82.38 64.4501 83.47 64.4801C83.11 64.6601 80.54 64.4501 80.31 64.6601C80.99 64.7501 81.3 64.6501 82.28 64.6601C82.48 64.8001 81.25 64.7701 81.29 64.8901C80.28 64.8201 79.51 64.7801 78.34 64.8101V64.6701C79.14 64.6401 78.96 64.7201 79.52 64.7201C80.07 64.6701 78.86 64.6301 78.14 64.6501C77.98 64.6501 77.55 64.7201 77.94 64.7201C77.94 64.7701 77.4 64.7101 77.54 64.6701C76.87 64.6701 76.95 64.7401 76.56 64.6701C76.15 64.6801 75.89 64.7101 75.78 64.7601C75.09 64.7501 75.16 64.6901 74.79 64.6901C74.31 64.7201 74.03 64.7701 73.81 64.8201C72.87 64.8601 72.72 64.8701 71.86 64.9001L71.85 64.8501C71.26 64.9301 70.23 64.8101 68.9 64.8401C68.98 64.7901 68.76 64.7801 68.69 64.7501C67.99 64.7901 66.94 64.9101 66.14 64.8101C65.39 64.8201 65.1 64.8801 64.38 64.8901C63.96 64.8701 63.21 64.8901 63.38 64.8001C62.8 64.8501 61.49 64.8201 61.44 64.9201C61.95 64.9801 62.52 64.9201 63.01 64.9201C63.36 64.9201 63.43 64.9501 63.8 64.9401C64.53 64.9301 65.28 64.8701 66.54 64.9001C67.16 64.8901 67.07 64.9601 67.53 64.9701C68.9 64.9901 69.7 64.9401 70.47 64.8901C70.91 64.8801 70.94 64.9301 71.26 64.9401C71.49 64.9401 71.96 64.9301 72.24 64.9201C72.78 64.9201 73.16 64.9301 73.62 64.9701C77.38 64.9701 80.24 64.9401 83.23 64.9801C83.73 64.9801 84.17 64.9701 84.41 64.9401C86.29 65.0101 88.35 64.9301 89.71 64.9801C90.26 64.9701 90.73 64.9501 91.28 64.9401C92.22 65.0301 94.39 64.9901 95.2 64.9801C95.83 64.9801 96.02 65.0201 96.76 65.0101C96.83 65.0401 97.1 65.0501 97.14 65.0801C97.87 65.0301 97.93 65.1201 98.9 65.1101C99.1 65.0101 98.45 65.0101 97.74 65.0101C97.77 64.8901 98.85 64.8901 99.73 64.8801C99.92 64.8801 99.89 64.8501 99.93 64.8301C100.31 64.8801 101.48 64.8401 101.48 64.9301C102.37 64.9201 103.47 64.8701 104.23 64.9201C104.72 64.9301 104.85 64.8901 105.03 64.8501C105.43 64.8301 105.42 64.9001 105.8 64.9001C106.01 64.9001 106.18 64.8601 106.4 64.8601H106.61H106.7V64.9501C106.68 65.4001 106.62 65.8401 106.66 66.1201C106.74 65.9701 106.68 65.4801 106.71 65.1401C106.74 65.1301 106.76 65.0601 106.78 64.9501L106.81 64.8101L106.61 64.7801C106.28 64.7301 105.62 64.7201 105.47 64.6501C105.81 64.6401 105.84 64.6701 105.85 64.7001C106.31 64.7001 106.34 64.6601 106.61 64.6301L106.92 64.6101L106.93 64.9501C106.93 64.9601 106.93 64.9801 106.93 64.9901C106.84 65.5801 106.8 66.5201 106.75 66.9401C106.67 66.2801 106.63 67.4601 106.53 67.4701C106.49 68.1001 106.63 68.2901 106.49 68.6501C106.46 69.1101 106.65 68.8501 106.49 69.6601C106.55 69.5901 106.62 69.1201 106.66 69.3101C106.59 69.9101 106.43 70.6601 106.45 71.0901C106.39 71.3701 106.33 71.3401 106.28 71.4401C106.27 71.8201 106.15 72.3601 106.07 72.8001C106.12 73.3001 105.91 73.8601 105.63 74.9401C105.74 74.8001 105.88 74.2701 106.02 73.6801C106.15 73.0901 106.2 72.4301 106.3 72.0701C106.34 72.3001 106.27 72.8301 106.16 73.4701C105.99 74.1001 105.76 74.8601 105.58 75.5601C105.48 75.6801 105.23 76.8301 105.17 76.6501C104.99 77.5001 104.91 77.9201 104.59 78.5401C104.5 78.8101 104.46 79.0101 104.45 79.1401C104.51 79.3001 104.83 78.4101 104.91 78.5101C105.21 77.6601 105.02 77.9301 105.23 77.1201C105.34 76.8701 105.48 76.4201 105.56 76.4201C105.69 75.9201 105.55 76.1001 105.67 75.6001C105.84 75.1101 106.1 73.9601 106.26 73.5101C106.31 73.6401 105.96 74.7801 105.8 75.4501C105.71 75.9301 105.55 76.6201 105.48 77.0401C105.23 77.9201 105.15 78.2301 104.82 78.9101C104.7 79.2301 104.66 79.4001 104.65 79.5001C104.32 80.2201 103.87 81.5801 103.33 82.6001C103.25 82.6501 103.34 82.4401 103.34 82.3601C103.05 82.9801 102.84 83.4801 102.72 83.8501C102.31 84.7101 101.95 85.4601 101.76 85.8301C101.32 86.5901 101.14 86.7601 100.7 87.5101C100.6 87.6101 100.15 88.2001 100.13 88.3001C99.97 88.5401 100.12 88.2701 100.1 88.2701C99.83 88.7101 99.46 89.2601 99.42 89.2501C99.11 89.6701 99.11 89.7901 98.75 90.2601C98.57 90.6601 97.99 91.3601 97.87 91.6301C97.7 91.8601 97.54 92.0901 97.49 92.0801C97.18 92.5201 97.01 92.6801 96.59 93.1701C96.23 93.5601 95.83 94.0201 95.63 94.1801C95.33 94.5401 95.2 94.7401 95.01 95.0001C94.73 95.3001 94.69 95.2201 94.53 95.3301C93.87 96.0001 92.64 97.2501 91.74 97.9101C91.53 98.0901 91.46 98.1801 91.46 98.2401C90.45 98.9801 90.33 99.2201 89.08 100.1C88.73 100.4 88.52 100.6 88.48 100.7C87.7 101.15 86.93 101.73 86.75 101.69C86.13 102.06 86.14 102.14 85.57 102.49C85.5 102.49 85.26 102.67 85.23 102.72C84.84 102.9 84.61 102.94 84.12 103.16C83.27 103.61 82.6 104.07 81.42 104.55C80.7 104.84 80.31 105.03 79.93 105.23C79.48 105.36 79.58 105.36 78.98 105.55C78.27 105.81 78.02 106.06 76.88 106.32C76.6 106.42 76.01 106.56 76.1 106.61C75.5 106.76 75.34 106.75 74.92 106.84C74.05 107.03 73.75 107.2 72.96 107.33C72.24 107.4 71.17 107.56 70.56 107.69C70 107.73 69.72 107.7 69.19 107.73C68.88 107.63 69.57 107.42 68.84 107.44C68.2 107.45 68.56 107.53 68.03 107.55C67.13 107.55 66.36 107.53 65.64 107.62C65.32 107.58 64.78 107.65 64.24 107.59C63.7 107.55 63.17 107.51 62.88 107.46C62.48 107.44 62.08 107.42 61.68 107.4C61.66 107.38 61.05 107.29 61.09 107.34C60.83 107.3 60.71 107.26 60.52 107.21C59.99 107.21 59.95 107.25 59.49 107.22C58.63 107.03 57.71 106.97 57.77 106.83C57.16 106.74 56.34 106.59 56 106.58C55.83 106.62 57.28 106.9 55.95 106.69C55.97 106.77 56.5 106.85 56.89 106.94C56.21 106.89 56.02 106.85 55.29 106.69C54.92 106.53 54.82 106.51 54.35 106.37C54.08 106.31 54.16 106.38 54.11 106.41C53.46 106.2 52.34 105.86 51.97 105.88C51.49 105.74 51.41 105.64 51.05 105.51C50.04 105.13 49.56 105.01 49 104.73C48.78 104.69 48.27 104.52 47.83 104.35C47.4 104.16 47.03 104 47.06 104.1C46.79 103.91 46.1 103.57 45.87 103.39C45.51 103.23 45.35 103.21 45.25 103.22C44.06 102.7 42.8 101.83 41.74 101.27C41.18 100.93 41.3 100.91 40.96 100.68C40.18 100.26 39.4 99.6501 38.59 99.1201C38.45 98.9901 38.31 98.8501 38.17 98.7101C37.75 98.3901 38.21 98.9101 37.61 98.4101C37.54 98.2701 37.89 98.5401 37.87 98.4601C37.3 98.0201 37.2 98.0101 37.14 98.0401C36.65 97.6701 35.61 96.6601 35.41 96.6201C35 96.1601 34.34 95.7001 34.12 95.3701C33.96 95.2001 33.97 95.2701 33.92 95.2601C33.68 94.9901 33.19 94.3601 32.97 94.2101C32.78 93.9901 32.99 94.1301 32.77 93.8801C32.45 93.5501 32.9 94.0801 32.57 93.7701C32.17 93.2401 31.49 92.5501 31.01 91.9401C30.84 91.5401 30.17 90.8001 30.02 90.4501C29.61 89.9501 28.91 89.1401 28.38 88.1601C28.24 87.8101 28 87.2901 28.28 87.5801C28.46 87.8701 28.46 87.9101 28.44 87.9401C28.61 88.1201 28.85 88.4401 29.1 88.8301C29.38 89.2001 29.69 89.6301 29.97 90.0601C30.13 90.2001 30.46 90.6301 30.65 90.8201C31.05 91.3401 31.19 91.6401 31.71 92.2601C32.42 92.9501 33.4 94.0901 34.22 94.8601C34.43 95.2301 35.05 95.5801 35.04 95.7101C35.49 96.0601 36.3 96.8401 36.72 97.1501C36.98 97.3901 37 97.4501 37.29 97.7001C37.82 98.1701 37.74 97.9501 38.29 98.3901C38.27 98.5201 38.9 98.8401 39.24 99.1101L39.18 99.1601C39.69 99.5001 40.14 99.8701 40.6 100.25C41.51 100.77 41.38 100.74 42.31 101.29C42.46 101.42 42.73 101.6 42.94 101.76C43.21 101.93 43.25 101.92 43.46 102.05C43.62 102.17 43.89 102.34 44.13 102.5C44.37 102.65 44.59 102.75 44.61 102.81C44.96 102.88 45.69 103.18 46.35 103.45C47.23 103.9 47.22 103.88 47.98 104.21C48.14 104.31 48.45 104.43 48.69 104.55C49.09 104.7 49.29 104.75 49.29 104.7C49.67 104.86 49.79 104.95 50.39 105.16C50.76 105.32 50.68 105.22 50.79 105.26C51.2 105.39 51.78 105.66 51.59 105.45C51.95 105.58 51.68 105.61 52.31 105.75C52.38 105.68 51.7 105.6 51.99 105.54C51.46 105.36 50.84 105.15 50.33 104.9C50.13 104.83 50.18 104.89 49.93 104.8C49.27 104.55 48.72 104.35 48.25 104.17C47.78 103.98 47.4 103.76 47.03 103.56C46.85 103.49 46.73 103.46 46.63 103.44C46.14 103.22 45.23 102.73 45.01 102.68C44.29 102.33 43.28 101.63 42.17 100.99C41.63 100.65 41.04 100.36 40.54 99.9801C40.04 99.6101 39.57 99.2601 39.16 98.9501C38.68 98.5701 38.8 98.7601 38.33 98.3801C37.98 98.1101 37.87 97.9701 37.6 97.7401C37.12 97.3301 36.52 96.8801 36.28 96.5401C36.07 96.3801 35.81 96.1601 35.63 96.0401C34.68 95.2001 33.02 93.3501 32.36 92.5901C31.81 92.1001 31.19 91.1701 30.74 90.5801C30.51 90.2701 30.35 90.0901 30.08 89.8101C29.37 88.8801 28.92 87.9701 28.23 86.9801C27.99 86.5701 27.9 86.3401 27.66 85.9501C27.29 85.3701 26.9 84.6801 26.6 84.0301C26.4 83.6001 26.38 83.4201 26.13 82.9401C26.09 82.7901 26.08 82.6901 26.16 82.7401C25.93 82.2501 25.95 82.3901 25.82 82.0201C25.64 81.7901 25.41 81.3801 25.2 80.7501C25.16 80.4201 24.8 79.4401 25.01 79.6101C24.73 78.8001 24.39 78.0101 24.17 77.1901C23.98 76.9601 23.61 75.3301 23.47 75.4701C23.35 75.0301 23.17 74.4901 23.13 74.1201C23.06 73.8101 23.02 73.7901 22.96 73.5401C22.88 72.6701 22.51 70.6601 22.45 69.8201C22.28 69.2901 22.29 68.4801 22.25 67.0601C22.28 67.0401 22.26 66.6801 22.27 66.4301C22.31 66.3401 22.34 66.0401 22.37 65.8801C22.39 65.4001 22.31 64.9601 22.36 64.8501C22.41 64.3201 22.41 65.5901 22.46 65.7701C22.46 66.7501 22.47 67.5001 22.47 68.4101C22.53 68.9001 22.49 69.0501 22.64 69.8301C22.79 70.7201 22.95 71.1501 23.15 72.7601C23.3 73.0001 23.16 72.2301 23.28 72.3801C23.41 73.3101 23.6 73.7901 23.81 74.3001C23.89 74.6201 23.97 74.9401 24.05 75.2501C24.33 76.0201 24.59 77.1501 24.9 77.6901C25.12 78.5001 25.65 79.5901 25.83 80.2501C25.79 80.3901 25.51 79.4701 25.4 79.3501C25.36 79.5001 25.87 80.6801 26.06 81.1801C26.12 81.2001 26.08 81.0201 25.93 80.6201C26.08 80.8301 26.54 81.9001 26.74 82.4001C27.02 82.9501 27.42 83.7301 27.78 84.4401C28.14 85.1501 28.56 85.7301 28.69 86.0101C28.81 86.1901 28.8 86.1101 28.94 86.3301C29.32 87.0001 29.71 87.5501 29.84 87.8301C30.18 88.4001 30.51 88.6301 30.84 89.0601C31.06 89.5701 31.96 90.4401 32.16 90.9601C32.43 91.2901 33.34 92.3001 33.64 92.5301C33.98 93.0601 34.77 93.7801 35.3 94.4201C35.65 94.7001 35.98 94.9601 36.24 95.1501C36.63 95.5401 37.55 96.2801 38.15 96.8101C38.29 96.9201 38.41 96.9601 38.51 97.0101C39.01 97.3701 38.87 97.3601 39.23 97.6401C39.79 98.0901 39.72 97.9301 40.19 98.3101C39.84 98.1101 40.21 98.3601 40.29 98.4701C40.63 98.7101 41 98.9601 41.34 99.1901C41.69 99.4101 42.04 99.5701 42.3 99.7001C43.08 100.2 43.75 100.51 44.27 100.91C45.03 101.38 45.34 101.37 46.22 101.81C45.93 101.51 44.86 101.14 44.27 100.64C43.71 100.29 43.35 100.08 42.94 99.8501C42.57 99.5801 42.65 99.5301 42.01 99.2001C41.92 99.1901 42.1 99.3101 42.3 99.4301C41.85 99.2701 40.27 97.9401 39.64 97.5501C39.39 97.3701 39.39 97.3401 39.2 97.1901C38.83 96.9601 38.21 96.4401 38.1 96.3901C37.57 95.8401 37.43 95.5801 36.62 94.9101C36.66 94.8601 36.19 94.4501 35.81 94.1101C35.25 93.6101 34.85 93.1701 34.3 92.6101C33.91 92.0801 33.18 91.3601 32.73 90.7001C32.26 90.0901 31.77 89.4401 31.41 89.0401C30.68 88.0101 30.51 87.9601 30.09 87.1601C29.94 86.9801 29.78 86.7701 29.6 86.5301C29.51 86.3201 29.28 85.9401 29.03 85.5401C28.95 85.3201 28.99 85.2401 28.65 84.6901C28.32 84.2001 28.67 84.8901 28.51 84.7301C28.16 84.1901 27.65 82.9801 27.23 82.1401C27.04 81.7401 26.7 81.2301 26.49 80.6701C26.27 80.1101 26.06 79.5501 25.93 79.1301C25.72 78.6301 25.6 78.3601 25.4 77.8701C25.19 77.3201 25.23 77.3401 25.08 76.7701C24.91 76.2401 24.7 75.4201 24.49 74.6301C24.28 73.8401 24.07 73.0801 23.98 72.6501C23.95 73.0001 23.86 72.4301 23.75 72.2601C23.69 71.8801 23.64 71.4901 23.58 71.1101L23.68 71.1201C23.74 71.1801 23.63 70.5701 23.67 70.5601C23.74 71.0101 23.73 70.4901 23.66 70.1801C23.76 70.5001 23.85 70.7101 23.95 71.3401C24.02 71.1801 24.11 71.8101 24.18 71.9201C24.23 72.2501 24.27 72.4101 24.31 72.4901C24.35 73.2101 24.65 74.0601 24.9 74.9101C25.16 75.7601 25.38 76.6201 25.52 77.3201C25.7 77.8501 25.78 77.8701 25.96 78.3901C26.07 78.9601 26.42 79.6701 26.69 80.5501C26.96 81.2301 27.36 81.8401 27.8 82.7901C27.94 83.0901 28.03 83.2301 28.09 83.3001C28.3 83.7901 28.48 84.2101 28.7 84.5801C28.93 84.9401 29.14 85.2801 29.34 85.6601C29.77 86.3801 29.96 86.5101 30.27 87.1201C30.38 87.2901 30.38 87.2101 30.51 87.4301C31.24 88.5701 31.99 89.4501 32.47 90.0201C32.92 90.7501 33.85 91.7501 34.35 92.1901C34.89 92.7901 35.29 93.4001 36.13 94.1601C36.7 94.6701 37.1 94.9201 37.57 95.4201C38.02 95.7901 38.81 96.4401 39.34 96.8701C39.8 97.1301 40.78 97.9101 41.23 98.1801C42.03 98.8101 41.99 98.7401 42.79 99.2501C43.45 99.6001 44.41 100.2 44.96 100.47C45.3 100.74 45.37 100.75 45.79 100.91C46.07 101.04 46.07 101.07 46.29 101.18C46.71 101.39 46.84 101.41 47.17 101.56C48.3 102.12 48.67 102.35 49.75 102.73C50.06 102.84 50.22 102.89 50.31 102.89C50.52 103 51.35 103.32 51.39 103.26C51.78 103.46 51.85 103.46 52.25 103.63C52.73 103.81 53.23 103.81 53.72 104.02C53.9 104.04 54.4 104.19 54.3 104.1C54.56 104.19 54.75 104.25 55.01 104.33C55.44 104.38 56.7 104.78 56.89 104.68C57.14 104.76 57.85 104.85 57.79 104.91C58.12 104.97 58.73 105.03 58.52 105.07C59.25 105.14 59.83 105.23 60.34 105.3C60.86 105.34 61.31 105.34 61.76 105.3C62.9 105.41 63.23 105.32 64.21 105.46C65.46 105.42 66.36 105.33 67.8 105.31C68.58 105.28 69.22 105.14 69.89 105.01C70.56 104.89 71.25 104.77 72.12 104.66C72.62 104.6 72.5 104.57 72.86 104.49C73.42 104.38 73.57 104.33 73.96 104.19C74.79 103.99 75.05 103.95 75.6 103.75C75.98 103.67 76.8 103.42 76.87 103.42C77.31 103.26 77.42 103.18 77.57 103.09C77.78 103.04 78.2 102.89 78.64 102.73C78.94 102.63 78.97 102.59 78.99 102.55C79.26 102.48 79.44 102.42 79.7 102.3C80.21 102.11 80.26 102.17 80.75 101.92C81.66 101.49 81.49 101.53 82.26 101.12C82.38 101.11 83.06 100.76 83.13 100.79C83.58 100.54 83.55 100.53 84.11 100.18C84.72 99.9701 86.09 98.9601 87.18 98.3801C87.5 98.1201 87.76 97.8901 87.74 97.8201C87.93 97.7301 88.72 97.0801 88.53 97.3501C89.46 96.5901 90.23 96.1501 91.17 95.2401C91.25 95.1901 91.34 95.1401 91.35 95.1801C92.09 94.5001 92.95 93.7801 93.27 93.3601C93.67 92.9001 93.87 92.7301 94.17 92.4101C94.92 91.5801 94.9 91.5501 95.58 90.9001C96.18 90.2101 96.62 89.5701 97.09 88.9601C97.54 88.3301 98.06 87.7601 98.49 86.9601C98.71 86.5601 98.93 86.1501 99.13 85.7801C99.52 85.2301 100.28 84.1001 100.7 83.0001C100.88 82.6601 101.22 81.8701 101.3 81.8301C101.86 80.6601 102.46 79.0901 102.81 77.9601C103.12 77.3801 103.48 75.9301 103.59 75.4501C103.75 74.8801 103.66 74.9401 103.76 74.5001C104.24 73.0301 104.34 71.9301 104.56 70.4401C104.65 69.9901 104.75 69.5001 104.8 69.0401C104.82 68.5701 104.82 68.1401 104.79 67.8101C104.85 66.8301 105.01 66.1601 104.95 65.3701C104.96 65.2601 104.98 65.1401 104.99 65.0201L106.61 66.6401C105.52 66.5801 104.2 66.6301 103.1 66.6501C102.81 66.6001 102.31 66.5701 102.16 66.5001C101.52 66.5201 101.3 66.6001 100.97 66.6601C100.33 66.6801 100.12 66.6401 99.61 66.7001C98.92 66.6601 97.72 66.6901 97.1 66.6401C96.48 66.6601 95.57 66.7001 94.96 66.7201C94.51 66.6601 93.73 66.7501 93.81 66.6701C93.29 66.6501 93.43 66.7201 93.22 66.7401C92.23 66.7001 91.69 66.7901 91.28 66.7501C90.88 66.7601 90.9 66.8101 90.5 66.8201C89.74 66.7901 89.79 66.7601 88.96 66.7901C89.13 66.6901 88.1 66.7301 87.81 66.6901C87.38 66.7101 86.76 66.7001 86.65 66.7501C85.97 66.7001 84.63 66.7301 83.95 66.6901C82.66 66.7001 82.28 66.7101 81.44 66.6501C80.79 66.6501 80.42 66.6701 80.09 66.7101C79.64 66.7001 79.29 66.6801 78.93 66.6601C77.88 66.7301 76.85 66.6501 75.65 66.7001C74.69 66.6401 74.39 66.6301 73.71 66.5301C73.19 66.5301 72.68 66.5201 72.16 66.5201C72.15 66.6301 73.23 66.6101 73.33 66.7101C73.14 66.7901 72.14 66.6901 71.59 66.6701C70.65 66.6701 69.17 66.7001 68.3 66.6401C67.49 66.6101 66.69 66.6501 66.37 66.6201C65.79 66.6101 65.72 66.6701 65.22 66.6701C63.46 66.5601 61 66.6501 59.01 66.5201C58.44 66.5101 58.42 66.5601 57.86 66.5501C57.77 66.5001 56.8 66.5401 56.88 66.4801C55.84 66.5201 54.17 66.4501 53.38 66.4001C52.65 66.4201 52.44 66.3701 51.83 66.4001C51.4 66.3801 50.77 66.3801 50.65 66.3301C50.28 66.3301 50.18 66.3701 49.69 66.3601C49.07 66.3201 48.53 66.2801 47.54 66.2801C47.31 66.2401 46.77 66.2301 46.54 66.1901C46.31 66.2001 46.15 66.2101 46.17 66.2501C45.71 66.2501 45.59 66.2101 44.99 66.2201C44.36 66.2501 43.89 66.1901 43.65 66.2401C43.15 66.2301 42.75 66.2001 42.46 66.1701C41.34 66.1901 41.34 66.1001 40.49 66.0901C40.41 66.0401 41.24 66.0801 41.04 66.0201C40.01 65.9801 38.98 66.0301 38.1 65.9501C36.77 65.9701 35.59 65.9101 34.61 65.9501C34.51 65.9301 34.34 65.9101 34.01 65.9101C32.84 65.9601 30.45 65.9001 29.79 65.9901C29.1 65.9801 29.28 65.9401 28.61 65.9601C28.6 65.8901 27.78 65.9001 27.39 65.8601C27.2 65.8001 26.92 65.7501 26.53 65.7201C27.04 65.7001 27.59 65.6001 28.24 65.6501C28.56 65.6101 29.39 65.6201 29.76 65.5901C30.88 65.6201 31.8 65.6301 32.88 65.5901C34.56 65.6101 35.8 65.6301 36.56 65.5401C36.91 65.5401 37.72 65.6001 37.93 65.5501C38.3 65.5601 38.31 65.6101 38.93 65.5901C39.42 65.6001 39.38 65.5501 39.69 65.5401C40.14 65.5601 40.7 65.5701 41.07 65.5901C41.83 65.5501 40.83 65.5401 41.23 65.5001C40.88 65.4601 39.85 65.4901 39.64 65.4301C39.6 65.4101 39.71 65.4101 39.83 65.4101C40.06 65.3501 40.03 65.3701 40.08 65.3801ZM52.41 66.1301C53.82 66.2301 55.01 66.2201 56.7 66.2301C57.15 66.2501 57.88 66.2801 58.25 66.2401C59.01 66.3101 60.54 66.3101 61.75 66.3401C62.14 66.3201 62.67 66.3001 63.1 66.2901C64.14 66.3301 65.26 66.3601 65.83 66.4501C66.45 66.4701 66.42 66.4101 66.8 66.4601C66.81 66.4001 67.07 66.3801 67.56 66.3801C68.84 66.4101 70.33 66.4401 71.62 66.4101C70.96 66.3601 71.87 66.3101 71.8 66.2601C70.72 66.2401 70.33 66.3001 69.68 66.3301C69.24 66.2601 68.59 66.3601 68.14 66.3601C68.27 66.2901 67.47 66.3301 67.74 66.2501C66.58 66.1901 63.9 66.1301 63.09 66.2301C62.6 66.1201 60.84 66.1201 59.98 66.1601C59.47 66.0501 58.29 66.0801 57.25 66.0701C56.99 66.0701 57.08 66.1101 56.88 66.1101C55.76 66.0301 54.68 66.0601 53.36 66.0201C53.17 66.0601 52.79 66.0901 52.22 66.0901C51.26 66.0101 49.81 66.0701 48.9 66.0001C48.31 66.0501 47.63 65.9801 47.36 66.0401C48.97 66.0501 50.78 66.1401 52.41 66.1301ZM79.56 66.4001C79.95 66.4301 81.23 66.4101 81.5 66.3401C80.68 66.3801 80.76 66.3101 80.34 66.3101C80.01 66.3101 79.5 66.3201 79.18 66.3201C78.78 66.3201 78.31 66.2801 78.21 66.3601C78.71 66.4301 79.1 66.4201 79.56 66.4001ZM81.88 66.3301C81.87 66.3701 82.03 66.3901 82.27 66.4001C82.55 66.3701 82.56 66.3101 81.88 66.3301ZM77.43 66.3701C77.48 66.3801 77.72 66.3601 77.62 66.3501C77.57 66.3401 77.33 66.3501 77.43 66.3701ZM89.83 66.3301C90 66.2601 89.67 66.2401 89.45 66.2101C88.2 66.2101 87.89 66.3001 86.54 66.2401C86.26 66.2901 85.5 66.2801 85.37 66.3501C86.92 66.4001 87.87 66.4301 89.24 66.3701C89.91 66.3501 89.98 66.4101 90.59 66.4001C91.48 66.3701 92.51 66.2601 93.32 66.3001C93.37 66.2601 93.11 66.2501 93.14 66.2101C92.5 66.2501 91.66 66.2601 90.8 66.2701C90.72 66.3101 91.08 66.3301 90.79 66.3401C90.64 66.2601 90.31 66.3601 89.83 66.3301ZM84.6 66.3001C83.86 66.3101 83.15 66.3201 82.85 66.3801C83.76 66.3901 84.45 66.3801 84.6 66.3001ZM46.18 66.0301C46.23 66.0401 46.47 66.0201 46.36 66.0101C46.31 66.0101 46.07 66.0201 46.18 66.0301ZM44.61 66.0001C44.77 65.9301 43.83 65.9701 43.43 65.9501C43.4 66.0101 44.31 66.0201 44.61 66.0001ZM95.85 66.2701C96.63 66.2101 97.17 66.2301 97.99 66.2101C97.95 66.2501 99.25 66.2601 98.96 66.1901C98.62 66.1001 96.64 66.2301 96.83 66.1301C96.24 66.1101 96.25 66.1701 95.66 66.1501C95.51 66.2201 95.52 66.1901 95.65 66.2701C95.28 66.2901 95.01 66.2001 94.87 66.2701C95.32 66.2801 95.22 66.3501 95.83 66.3501L95.85 66.2701ZM103.41 78.4501C103.57 77.9101 103.77 77.2801 103.93 77.0101C103.98 77.0401 103.79 77.5201 103.89 77.4301C104.26 76.4801 104.44 75.0501 104.86 73.9101C104.84 74.2601 104.62 75.1201 104.46 75.8201C104.51 75.8801 104.6 75.5701 104.69 75.3001C104.64 75.3001 104.69 75.0901 104.79 74.7201C104.8 74.9701 104.92 74.4501 104.97 74.3901C105.28 73.3601 105.48 72.0201 105.65 70.5801C105.6 70.8701 105.61 70.5901 105.64 70.3701C105.7 70.2601 105.78 69.8801 105.86 69.4401C105.84 69.4001 105.79 69.4501 105.82 69.2201C105.86 69.0001 105.88 68.7101 105.9 68.2701C105.87 67.7401 105.92 67.0301 105.99 65.7401C105.99 65.5101 105.99 65.2501 105.98 64.9501L106.65 65.6201C106.47 65.6301 106.27 65.6301 106.06 65.6401C106.04 65.6101 106.11 65.5701 105.88 65.5701C105.83 65.5901 105.86 65.6201 105.68 65.6201C105.44 65.5701 104.62 65.6401 104.11 65.6401C102.49 65.6401 101.88 65.6301 100.79 65.6701C100.75 65.6201 99.93 65.6601 99.82 65.6201C99.1 65.6801 98.57 65.6301 97.86 65.6601C96.9 65.6401 96.53 65.7001 96.11 65.6301C95.83 65.6701 95.58 65.7201 95.5 65.7901C94.77 65.8301 93.94 65.8501 93.72 65.9501C94.33 65.9701 94.56 66.0201 95.27 65.9801C95.27 66.0001 95.11 66.0101 95.07 66.0301C96.26 66.0201 96.86 66.0201 97.79 66.0201C97.93 65.8901 98.94 65.8601 99.95 65.9101C100.32 65.9101 100.1 65.8301 100.55 65.8401C101.71 65.9801 103.31 65.7701 104.44 65.8801C104.44 65.8401 104.6 65.8201 104.84 65.8101C105.28 65.8601 105.98 65.8001 106.63 65.7901L105.79 64.9501C105.78 65.2101 105.76 65.4501 105.73 65.6801C105.83 66.1801 105.57 67.9501 105.65 68.3901C105.56 68.6001 105.46 68.5701 105.39 68.8901C105.43 67.8701 105.44 67.6601 105.5 66.4001C105.53 66.0401 105.59 66.0701 105.6 65.4601C105.59 65.1501 105.48 65.3801 105.49 64.9601L106.63 66.1001C106.6 66.1001 106.57 66.1001 106.52 66.1001C106.32 66.0101 105.95 66.0001 105.98 65.9301C104.74 65.9301 103.93 65.9701 103.23 66.0401C103.19 66.0101 102.81 66.0101 102.66 65.9901C102.73 66.0801 102.04 66.0701 101.86 66.1301C102.09 66.1801 102.34 66.2301 102.81 66.2501C102.64 66.1601 103.65 66.2301 103.79 66.1801C104.06 66.2301 105.06 66.1901 105.33 66.2301C105.36 66.2001 105.4 66.1701 105.73 66.1801C106.05 66.1801 106.35 66.1901 106.63 66.1901L105.38 64.9401C105.31 66.0601 105.23 67.0001 105.22 68.4301C105.19 69.0701 105.08 69.5501 105 70.0101C104.93 70.4701 104.87 70.9101 104.82 71.4401L104.77 71.4201C104.71 71.9801 104.7 72.0101 104.59 72.5501C104.65 72.6201 104.57 73.2501 104.45 73.7101C104.38 74.0701 104.3 74.1201 104.26 74.2401C104.14 74.6701 104.07 75.1801 103.88 75.7101C103.81 76.1101 103.75 76.4601 103.68 76.8701C103.25 77.9101 103 78.7601 102.65 79.5201C102.55 79.8801 102.39 80.4101 102.17 80.9301C101.92 81.4401 101.66 81.9601 101.48 82.3401C101.27 82.9601 101.05 83.4401 100.53 84.4501C100.01 85.4301 99.45 86.3701 98.67 87.5701C98.14 88.3501 98.13 88.3501 97.66 88.9601C97.19 89.6201 96.26 90.9201 95.98 91.3201C96.42 90.8901 96.47 90.8701 96.85 90.3101L96.89 90.3701L97.35 89.7601C97.91 89.1601 98.55 88.4001 99.14 87.5301C99.14 87.4801 99.08 87.5101 99.19 87.3101C99.75 86.4001 100.41 85.4301 100.81 84.7001C100.93 84.5401 100.91 84.7101 101.13 84.2301C101.34 83.7201 101.74 82.9001 101.92 82.4501C102.07 82.2301 102.26 81.8901 102.48 81.4501C102.63 81.1201 102.48 81.2901 102.66 80.8801C102.69 80.8701 102.7 80.9501 102.79 80.7401C102.72 80.7401 102.82 80.4201 102.95 80.1701C102.86 80.4901 102.81 80.7801 103.03 80.2301C102.99 80.1701 102.97 80.0601 103.04 79.7801C103.17 79.5201 103.39 78.8001 103.57 78.5601C103.56 78.4201 103.52 78.3901 103.63 77.9301C103.38 78.5501 103.35 78.7401 103.17 78.9701C103.17 79.0401 103.06 79.5901 102.94 79.7201C102.92 79.5801 103.33 78.7201 103.41 78.4501ZM101.88 66.1501C101.69 66.1501 101.49 66.1501 101.3 66.1501C101.26 66.1901 101.48 66.2101 101.87 66.2001C101.88 66.1801 101.88 66.1701 101.88 66.1501ZM91.61 66.0101C92.7 66.0301 93.24 66.0401 93.56 65.9301C92.58 65.9501 91.84 66.0101 90.83 65.9601L90.82 66.0501C91.35 66.0701 91.22 66.0101 91.61 66.0101ZM89.85 66.0301C89.91 66.0401 90.15 66.0201 90.05 66.0101C90 66.0001 89.75 66.0101 89.85 66.0301ZM91.25 95.9901L91.23 95.9501C90.39 96.7201 90.15 96.7901 89.45 97.3901C89.65 97.3501 89.16 97.7001 89.04 97.8401C89.36 97.6601 89.92 97.2001 90.27 96.9301C91.12 96.3401 91.69 95.6501 92.15 95.3101C92.23 95.1701 93.15 94.4401 92.97 94.4801C92.26 95.1301 91.85 95.4501 91.25 95.9901ZM93.53 93.9601C93.98 93.5101 94.14 93.4001 94.73 92.7401C94.69 92.6901 95.11 92.2501 95.05 92.2201C94.26 93.0101 93.91 93.4601 93.53 93.9601ZM62.12 105.61C61.51 105.6 61.55 105.54 61.18 105.51C60.66 105.54 60.18 105.48 59.71 105.41C59.24 105.34 58.78 105.28 58.31 105.25C57.84 105.09 56.62 104.99 56.09 104.77C55.92 104.76 55.6 104.69 55.15 104.57C54.6 104.42 54 104.25 53.42 104.09C53.13 104.01 52.86 103.93 52.59 103.86C52.33 103.77 52.1 103.66 51.89 103.57C51.84 103.58 51.67 103.53 51.51 103.48C50.51 103.08 49.74 102.92 49 102.58C48.76 102.58 48.05 102.18 47.42 101.89C47.33 101.95 47.55 101.96 47.92 102.16C48.01 102.24 48.26 102.37 48.58 102.53C49.44 102.89 50.46 103.25 51.09 103.45C51.48 103.62 51.96 103.83 52.31 103.98C52.45 104 52.83 104.07 53.27 104.17C53.62 104.27 53.37 104.29 53.97 104.43C55.09 104.62 56.52 105.16 57.73 105.2C58.35 105.37 59.84 105.57 60.36 105.64C60.74 105.69 60.71 105.73 61.1 105.76C61.98 105.75 62.75 105.86 63.58 105.89C63.76 105.85 65.07 105.99 64.94 105.87C63.8 105.92 63.57 105.73 62.09 105.7C62.09 105.63 62.42 105.67 62.12 105.61ZM87.92 98.5501C87.68 98.9001 86.11 99.6601 86.19 99.7901C86.92 99.3101 87.25 99.2501 87.98 98.6901C88.39 98.3501 88.33 98.3201 88.89 97.9601C88.83 97.9001 88.49 98.1201 87.92 98.5501ZM44.21 100.23C44.57 100.47 44.59 100.56 44.96 100.8C44.99 100.76 45.86 101.22 45.89 101.15C45.14 100.81 44.69 100.43 44.21 100.23ZM85.35 100.21C84.06 101.04 83.57 101.35 82.15 101.96C81.9 102.12 81.17 102.44 81.3 102.47C81.42 102.45 81.97 102.15 82 102.19C82.48 101.93 83.09 101.68 83.56 101.44C83.63 101.4 83.92 101.23 84.07 101.15C84.68 100.8 85.52 100.26 85.68 100.06C85.49 100.18 85.3 100.29 85.35 100.21ZM41.68 65.4701C41.68 65.5001 41.85 65.5201 42.1 65.5301C42.09 65.5001 41.92 65.4801 41.68 65.4701ZM46.03 101.26C46.86 101.74 46.52 101.38 46.03 101.26V101.26ZM78.26 103.6C78.46 103.53 78.54 103.52 78.62 103.52C79.07 103.34 79.58 103.14 79.51 103.07C78.83 103.31 78.39 103.49 78.26 103.6ZM45.01 65.5101C45.24 65.5101 45.56 65.5201 45.59 65.4901C45.36 65.5001 45.03 65.4901 45.01 65.5101ZM41.14 98.3001C41.15 98.2901 41.04 98.1901 40.99 98.1801C40.97 98.2001 41.09 98.3001 41.14 98.3001ZM92.17 95.3501C92.16 95.3301 91.91 95.5501 91.89 95.6101C91.93 95.6101 92.05 95.4801 92.17 95.3501ZM72.54 105.21C72.61 105.12 71.56 105.27 71.22 105.36V105.43C71.71 105.38 72.37 105.31 72.98 105.2C73.58 105.04 74.13 104.88 74.41 104.75C73.69 104.91 73.05 105.14 72.54 105.21ZM81.12 102.51C81.12 102.49 80.81 102.62 80.78 102.68C80.97 102.58 81.05 102.58 81.12 102.51ZM48.7 65.4501C48.57 65.4501 48.44 65.4501 48.31 65.4501L48.32 65.4901C48.45 65.4901 48.58 65.4901 48.71 65.4901L48.7 65.4501ZM66.08 105.87C66.08 105.86 65.93 105.85 65.89 105.88C65.88 105.89 66.04 105.9 66.08 105.87ZM67.23 105.79C67.08 105.8 66.85 105.81 66.84 105.83C66.99 105.82 67.22 105.81 67.23 105.79ZM68.56 105.8C69.03 105.8 69.35 105.69 69.51 105.64C69.24 105.65 68.72 105.76 68.56 105.8ZM67.6 105.84C68.32 105.93 68.61 105.7 67.6 105.84V105.84ZM69.69 105.73C70.24 105.68 70.25 105.54 69.7 105.66L69.69 105.73ZM28.55 84.3401C28.56 84.3401 28.51 84.1901 28.47 84.1701C28.45 84.1701 28.51 84.3101 28.55 84.3401ZM62.53 65.3201C62.16 65.3101 62.03 65.2701 61.55 65.2701C61.48 65.3401 62.4 65.4001 62.53 65.3201ZM47.53 102.36C47.55 102.34 47.49 102.27 47.37 102.26C47.35 102.28 47.42 102.35 47.53 102.36ZM58.67 105.88C58.37 105.76 57.61 105.68 56.96 105.59C57.08 105.69 56.51 105.63 56.15 105.57C55.8 105.47 55.7 105.4 55.23 105.28C54.38 105.13 53.71 104.81 53.16 104.76C53.49 104.78 52.73 104.54 52.62 104.57C53.5 104.82 51.97 104.49 51.99 104.52C51.3 104.28 51.12 104.23 50.73 104.03C50.73 104.08 50.52 104.01 50.16 103.87C49.43 103.55 49.25 103.5 48.58 103.18C48.91 103.3 49.02 103.32 48.99 103.25C48.36 103 48.55 103.07 47.94 102.77C47.89 102.77 47.9 102.8 47.74 102.72C46.71 102.18 46.11 101.98 45.24 101.61C45.17 101.52 45.02 101.43 44.44 101.08C43.99 100.91 43.03 100.34 42.49 100.1C42.32 99.9401 41.79 99.6301 41.31 99.3001C40.84 98.9501 40.37 98.6301 40.23 98.5801C39.54 97.9901 38.24 97.0701 38.12 97.1301C38.78 97.7201 39.05 97.8001 39.79 98.4501C40.55 99.0001 41.36 99.6001 42.2 100.11C42.44 100.25 42.51 100.25 42.73 100.38C42.78 100.44 42.91 100.55 43.19 100.72C43.81 101.03 44.47 101.58 45.24 101.86L45.21 101.9C46.05 102.28 46.55 102.62 47.14 102.84C47.16 102.89 47.41 103.03 47.81 103.22C48.46 103.52 49.29 103.73 50.07 104.02C50.86 104.29 51.64 104.57 52.27 104.76C52.87 105.01 53.72 105.11 54.52 105.37C54.91 105.46 54.92 105.41 55.3 105.5C55.55 105.6 55.88 105.68 56.22 105.75C56.57 105.8 56.93 105.82 57.22 105.87C57.39 105.92 57.92 105.99 57.77 106.03C58.25 106.11 58.38 106.09 58.75 106.14C58.82 106.3 59.47 106.22 59.88 106.39C60.16 106.4 62.24 106.46 63.01 106.56C63.5 106.5 64.1 106.53 64.99 106.49C64.99 106.55 64.65 106.55 64.97 106.59C65.84 106.52 66.85 106.47 67.5 106.49C67.92 106.39 68.22 106.27 68.89 106.19C67.95 106.19 67.61 106.25 66.76 106.31C66.26 106.32 66.19 106.27 65.61 106.29C65.35 106.31 65.23 106.34 64.83 106.35C64.83 106.39 64.67 106.43 64.43 106.42C63.53 106.38 63.3 106.46 62.46 106.43C61.94 106.36 61.54 106.42 61.31 106.32C61.58 106.27 61.76 106.27 61.55 106.19C60.58 106.21 59.49 105.94 58.67 105.88ZM102.68 65.0901C102.75 65.1901 102.27 65.0801 101.7 65.1101C101.7 65.1801 102.92 65.2301 103.25 65.1901C102.84 65.1801 103.23 65.0801 102.68 65.0901ZM100.51 65.1501C100.55 65.0901 100.22 65.0801 99.94 65.0501C100.01 65.1201 99.21 65.0701 99.15 65.1201C99.84 65.1401 99.85 65.1901 100.51 65.1501ZM101.5 65.1101C101.31 65.1101 101.11 65.1101 100.91 65.1101C100.88 65.1501 101.1 65.1701 101.49 65.1601L101.5 65.1101ZM84.58 101.59C84.1 101.81 84.24 101.81 83.89 101.98C83.32 102.2 82.65 102.5 81.95 102.84C81.6 103.01 81.24 103.19 80.89 103.36C80.52 103.5 80.16 103.65 79.8 103.78C79.26 103.97 79.38 103.83 78.69 104.11C78.59 104.18 78.41 104.27 78.15 104.38C77.59 104.6 77.48 104.6 77.05 104.75C76.9 104.84 76.59 104.95 75.92 105.11L75.93 105.23C76.41 105.09 76.92 105 77.4 104.81C77.89 104.63 78.38 104.46 78.87 104.28C79.84 103.91 80.83 103.64 81.62 103.16C82.4 102.91 82.63 102.64 83.57 102.26C84.1 101.92 84.35 101.91 84.94 101.48C85.37 101.28 86.22 100.72 86.6 100.45C86.35 100.5 85.02 101.39 84.58 101.59ZM106.41 65.0601C105.97 65.0001 105.73 65.0801 105.42 65.1001C105.77 65.0901 106.24 65.0901 106.41 65.0601ZM30.19 88.3501C29.86 87.8601 29.43 87.0501 29.33 87.0401C29.59 87.6001 29.74 87.6101 30.03 88.2101C30.17 88.4201 30.22 88.4101 30.4 88.6801C30.81 89.1901 31.61 90.4001 31.72 90.3801C31.5 89.9301 30.48 88.6401 30.19 88.3501ZM36.88 95.9201C37.12 96.3101 37.32 96.2101 36.88 95.9201V95.9201ZM36.12 95.2901C36 95.1901 35.84 95.0301 35.81 95.0401C35.93 95.1401 36.1 95.3001 36.12 95.2901ZM33.9 93.0901C33.73 92.8901 33.68 92.8001 33.4 92.5001C33.13 92.3001 33.91 93.1601 33.9 93.0901ZM30.26 88.7301C30.65 89.3401 31.04 89.7601 31.4 90.3101C31.42 90.2601 31.58 90.4601 31.61 90.4301C31 89.6401 30.69 89.1501 30.26 88.7301ZM74.03 64.6501H73.64V64.7001C73.77 64.7001 73.9 64.7001 74.03 64.7001V64.6501ZM73.44 64.6501C73.19 64.6501 73.17 64.6201 72.85 64.6301C72.84 64.6701 73.01 64.6901 73.25 64.7001C73.24 64.6701 73.4 64.6701 73.44 64.6501ZM24.87 77.9101C25.02 78.2901 25.5 79.5801 25.34 79.0001C25.31 79.0401 24.97 77.8901 24.87 77.9101ZM34.67 94.1901C34.45 93.9901 34.29 93.8701 33.95 93.5001C33.89 93.5801 34.4 94.1601 34.9 94.7301C34.94 94.6601 35.62 95.3301 35.6 95.1801C35.02 94.6501 35.21 94.7601 34.67 94.1901ZM37.67 97.0001C37.64 96.9601 37.44 96.8101 37.51 96.8801C37.54 96.9201 37.73 97.0801 37.67 97.0001ZM36.78 96.2201C36.75 96.1801 36.55 96.0301 36.62 96.1001C36.65 96.1401 36.85 96.2901 36.78 96.2201ZM38.23 97.5301C38.05 97.4001 38.01 97.3301 37.92 97.2901C37.89 97.3101 38.16 97.5201 38.23 97.5301ZM31.32 90.5501C31.78 91.2201 31.82 91.1401 32.18 91.6301C32.42 91.9101 32.44 91.9601 32.68 92.2301C32.95 92.4501 33.57 93.1601 33.71 93.1901C33.29 92.7601 32.88 92.3301 32.5 91.9101C32.11 91.5001 31.84 91.0301 31.57 90.6401C31.32 90.3901 31.24 90.3201 31.32 90.5501ZM30.27 89.1301C30.56 89.5201 30.77 89.7801 30.9 89.9001C30.68 89.5901 30.75 89.5901 30.36 89.0901L30.27 89.1301ZM52.76 105.85C52.61 105.87 53.64 106.17 53.7 106.14C53.34 106.04 53.38 105.99 52.76 105.85ZM54.67 106.38C54.55 106.29 54.62 106.23 54.16 106.1C53.81 106.02 53.21 105.88 53.51 106.08L54.67 106.38ZM42.51 101.43C42.47 101.4 42.24 101.28 42.32 101.34C42.37 101.38 42.59 101.5 42.51 101.43Z" fill="#1E1E1E"/>
<path d="M33.19 65.2701C32.9 65.2801 33.04 65.2601 33.18 65.2501C33.44 65.2401 33.63 65.2601 33.39 65.2701C33.33 65.2701 33.24 65.2701 33.19 65.2701Z" fill="#1E1E1E"/>
<path d="M43.48 100.72C43.03 100.38 43.72 100.82 43.99 101.01C43.92 101.06 43.48 100.64 43.48 100.72Z" fill="#1E1E1E"/>
<path d="M103.55 64.6701C103.26 64.8101 102.37 64.7301 101.17 64.7601C101.32 64.7001 100.77 64.7101 100.59 64.6901C101.26 64.6801 102.6 64.5801 103.55 64.6701Z" fill="#1E1E1E"/>
<path d="M106.98 66.8001C106.95 66.3501 107.03 66.9901 107.06 66.6201C107.08 65.8601 107.13 65.5201 107.12 64.9501L107.11 64.4601L106.67 64.5001C106.64 64.5001 106.59 64.5101 106.55 64.5101C106.15 64.5001 106.17 64.4501 105.98 64.4101C105.01 64.4801 104.39 64.3401 103.61 64.4001C103.07 64.2401 104.91 64.3801 105.01 64.3301C105.24 64.3301 105.16 64.3701 105.19 64.4001C105.54 64.3601 106.05 64.3701 106.67 64.3701H107.26L107.24 64.9401C107.23 65.2201 107.22 65.5201 107.21 65.8401C107.09 66.1001 107.06 67.2301 107.08 67.8201C107.07 68.1401 107.04 68.1501 107.02 68.4101C107.04 68.7101 107.02 69.0001 107.01 69.2801C106.97 69.5501 106.93 69.8001 106.93 70.0201C106.89 70.1901 106.86 70.3701 106.82 70.3901C106.79 70.6401 106.79 70.8101 106.83 70.8101C106.62 71.9001 106.67 72.2201 106.47 72.9601C106.36 73.0801 106.59 72.0201 106.64 71.5701C106.65 71.1601 106.57 71.1101 106.74 70.1501C106.79 70.2701 106.86 69.9001 106.91 69.4901C106.96 69.0801 106.92 68.6201 106.91 68.5701C107 68.2301 107.05 67.0301 106.98 66.8001Z" fill="#1E1E1E"/>
<path d="M90.15 50.4101C90.15 27.2101 71.35 8.41008 48.15 8.41008C24.95 8.41008 6.14999 27.2101 6.14999 50.4101H90.15Z" fill="#6FB2A5"/>
<path d="M20.2 28.2901C20.15 28.2401 20.31 28.3301 20.33 28.3601C20.39 28.4101 20.23 28.3201 20.2 28.2901Z" fill="#1E1E1E"/>
<path d="M12.44 26.3801C12.42 26.4001 12.28 26.3001 12.18 26.2501L11.82 26.0301C11.83 25.9801 12.25 26.2801 12.44 26.3801Z" fill="#1E1E1E"/>
<path d="M22.36 31.1401C22.31 31.1601 22.06 31.0701 22.07 31.0501C22.21 31.0701 22.35 31.1001 22.36 31.1401Z" fill="#1E1E1E"/>
<path d="M26.93 25.5401C26.87 25.5901 26.19 24.7301 26.13 24.5901C25.58 24.0401 25.52 23.9501 25.11 23.5001C25.4 23.6901 25.63 23.9601 25.84 24.2401C26.16 24.5701 26.77 25.1901 26.93 25.5401Z" fill="#1E1E1E"/>
<path d="M21.9 20.9401C21.74 20.8201 21.59 20.7101 21.44 20.5901C21.43 20.4601 21.98 20.9001 21.9 20.9401Z" fill="#1E1E1E"/>
<path d="M5.55998 29.6901C5.50998 29.6901 5.30998 29.5401 5.32998 29.5201C5.40998 29.5301 5.42998 29.5901 5.55998 29.6901Z" fill="#1E1E1E"/>
<path d="M27 25.8401L27.26 26.2401C27.26 26.3701 27.3 26.5601 27.31 26.7201C26.9 26.0301 26.9 26.0501 26.69 25.6501C26.93 25.8801 26.86 25.7301 27 25.8401Z" fill="#1E1E1E"/>
<path d="M8.85997 31.9701L8.62997 31.8001L8.65997 31.7701L8.88997 31.9301L8.85997 31.9701Z" fill="#1E1E1E"/>
<path d="M8.42999 31.6001C8.40999 31.6101 8.26999 31.5101 8.17999 31.4501C8.19999 31.4401 8.33999 31.5401 8.42999 31.6001Z" fill="#1E1E1E"/>
<path d="M5.87997 29.7701L5.91997 29.7401C6.17997 29.8801 6.06997 29.8501 6.37997 30.0701L6.34997 30.1001C6.02997 29.8801 6.07997 29.9701 5.87997 29.7701Z" fill="#1E1E1E"/>
<path d="M26.18 25.0801C26.25 25.1101 26.26 25.1801 26.37 25.3101C26.32 25.3001 26.16 25.1001 26.18 25.0801Z" fill="#1E1E1E"/>
<path d="M11.6 24.1101C11.57 24.0901 11.54 24.0701 11.51 24.0501L11.34 24.3201C11.8 24.6801 12.46 25.1201 12.42 25.2801C12.27 25.1401 11.96 24.9201 11.89 24.8201C11.64 24.6501 11.78 24.8701 11.57 24.7401C11.42 24.6101 11.31 24.5101 11.26 24.4301L11.58 23.9301C11.66 24.0301 11.67 24.0901 11.6 24.1101Z" fill="#1E1E1E"/>
<path d="M24.32 30.2801C24.39 30.3001 24.21 30.3001 24.18 30.2801C24.11 30.2701 24.28 30.2801 24.32 30.2801Z" fill="#1E1E1E"/>
<path d="M23.91 30.2201C23.98 30.2401 23.8 30.2301 23.76 30.2201C23.69 30.1901 23.87 30.2101 23.91 30.2201Z" fill="#1E1E1E"/>
<path d="M13.29 24.9601C13.61 25.2001 14.87 25.9301 15.35 26.2201C15.14 26.2501 14.36 25.6201 13.84 25.4001C13.55 25.2101 13.29 25.0301 13.29 24.9601Z" fill="#1E1E1E"/>
<path d="M16.26 26.6601C16.98 27.0401 16.9 27.1701 17.59 27.4601C17.29 27.4401 16.38 26.8701 16.26 26.6601Z" fill="#1E1E1E"/>
<path d="M13.18 24.8701C13.18 24.8001 13.47 24.9801 13.71 25.1101C13.59 25.0701 13.48 25.0501 13.18 24.8701Z" fill="#1E1E1E"/>
<path d="M20.17 28.6801C20.23 28.7201 20.06 28.6601 20.03 28.6401C19.97 28.5901 20.14 28.6501 20.17 28.6801Z" fill="#1E1E1E"/>
<path d="M14.08 25.3301C14.06 25.3401 13.92 25.2501 13.82 25.2001C13.84 25.1801 13.98 25.2701 14.08 25.3301Z" fill="#1E1E1E"/>
<path d="M12.91 25.8001C12.5 25.6001 11.93 25.1201 11.54 24.9801C11.4 24.8901 11.25 24.7401 11.12 24.6301L11.69 23.7201C11.82 23.8101 11.93 23.8701 12 23.8501C12.29 24.0301 12.18 24.0501 12.57 24.2701C12.47 24.3001 12.03 24.0301 11.63 23.8201L11.18 24.5301C11.39 24.6701 11.58 24.7901 11.68 24.8201C12.3 25.2501 12.49 25.4701 12.91 25.8001Z" fill="#1E1E1E"/>
<path d="M22.12 29.4801C22.82 29.6401 22.95 29.8201 22.12 29.4801V29.4801Z" fill="#1E1E1E"/>
<path d="M26.8 28.7101C26.75 28.8401 26.7 28.9201 26.67 28.9001C26.73 28.6701 26.77 28.7101 26.8 28.7101Z" fill="#1E1E1E"/>
<path d="M13.66 24.9601C13.87 25.0101 14.47 25.3901 14.93 25.6401C14.9 25.6801 15.24 25.8601 15.11 25.8601C15.01 25.8401 14.64 25.5801 14.59 25.6101C14.24 25.3001 14.04 25.2201 13.66 24.9601Z" fill="#1E1E1E"/>
<path d="M23.99 29.9701C23.62 29.9801 23.72 29.7901 23.99 29.9701V29.9701Z" fill="#1E1E1E"/>
<path d="M16.81 26.8701L16.87 26.8001L17.98 27.4201C17.69 27.3101 17.25 27.1001 16.81 26.8701Z" fill="#1E1E1E"/>
<path d="M21.13 28.9801C20.61 28.7601 20.51 28.6501 20.01 28.4201C20.12 28.3701 20.54 28.7001 20.69 28.6601C21.15 28.8901 21.02 28.8201 21.57 29.0701C21.58 29.1301 21.06 28.8701 21.13 28.9801Z" fill="#1E1E1E"/>
<path d="M19.74 28.3101C19.51 28.1801 19.55 28.1501 19.14 27.9601C19.26 27.8701 19.79 28.2601 19.74 28.3101Z" fill="#1E1E1E"/>
<path d="M18.89 27.8301C18.95 27.8701 18.78 27.8101 18.75 27.7901C18.69 27.7401 18.86 27.8101 18.89 27.8301Z" fill="#1E1E1E"/>
<path d="M20.46 12.1601C20.41 12.1101 20.56 12.2001 20.59 12.2301C20.64 12.2801 20.49 12.1901 20.46 12.1601Z" fill="#1E1E1E"/>
<path d="M20.44 12.1701C20.42 12.2201 20.29 12.1501 20.05 11.9701C19.72 11.7601 19.46 11.7401 19.09 11.4701L20.07 9.98007C20.12 10.0201 20.18 10.0701 20.24 10.1201C20.26 10.1801 20.15 10.1201 20.03 10.0401L19.13 11.4101C19.2 11.4501 19.28 11.5001 19.33 11.5201C19.09 11.2901 19.53 11.6101 19.53 11.5101C20.01 11.8601 20.1 11.8701 20.44 12.1701Z" fill="#1E1E1E"/>
<path d="M23.31 11.1701C23.36 11.2201 23.21 11.1301 23.18 11.1001C23.13 11.0501 23.29 11.1401 23.31 11.1701Z" fill="#1E1E1E"/>
<path d="M9.30999 32.3101C9.73999 32.4701 10.38 32.9401 11.17 33.4501C11.94 33.8901 12.85 34.4001 13.49 34.6601C14 34.9601 14.56 35.2301 14.92 35.3601C15.23 35.4901 15.03 35.4801 15.28 35.6001C15.7 35.7801 16.09 35.9401 16.24 35.9501C16.58 36.1101 17.13 36.3301 17.34 36.3301C17.63 36.4601 17.98 36.6101 18.57 36.7601C19.08 36.9401 19.25 36.9701 19.68 37.1001C19.89 37.1301 20.05 37.1501 20.26 37.1801C20.77 37.3001 21.11 37.3601 21.51 37.4001C21.91 37.4301 22.34 37.5001 23.12 37.4001C23.44 37.3301 23.7 37.2101 23.93 37.0401C23.81 37.0801 23.35 37.2401 22.92 37.2801C22.49 37.3201 22.09 37.3301 22.04 37.3601C21.78 37.2901 20.61 37.1801 20.47 37.0401C19.97 36.9201 20.09 37.0501 19.6 36.9201C19.47 36.7901 18.62 36.6001 18.38 36.4901C17.34 36.2101 16.9 36.0401 16.02 35.7601C15.69 35.6201 15.62 35.5501 15.53 35.4801C15.3 35.3801 15.18 35.3401 15.11 35.3501C14.51 34.9901 14.17 34.9001 13.3 34.4601C13.03 34.2901 12.62 34.0801 12.59 33.9901C12.21 33.8101 11.68 33.5001 11.35 33.2601C10.66 32.9101 9.69999 32.1101 9.15999 31.8701C8.82999 31.5201 8.12999 31.1501 7.68999 30.7501C7.45999 30.6001 7.35999 30.5801 7.06999 30.3701C6.67999 30.0501 5.92999 29.5501 5.59999 29.2501C3.92999 28.1501 2.19999 26.5001 1.29999 25.6601C1.08999 25.3101 1.11999 25.2101 0.619985 24.5801C0.679985 24.4801 0.479985 24.0801 0.359985 23.7801C0.419985 23.6401 0.819985 24.2301 0.889985 24.1201C1.92999 25.2401 2.67999 26.0401 4.23998 27.2501C4.70998 27.6301 4.89999 27.8401 5.42999 28.2401C5.83998 28.5301 6.08998 28.6601 6.40999 28.8501C6.84999 29.1701 6.91999 29.2901 7.27999 29.5601C7.51999 29.7401 7.59999 29.7701 7.75999 29.8701C8.17999 30.2201 8.66999 30.5801 9.37999 31.0401C10.57 31.9501 11.3 32.3201 12.41 33.0701C12.73 33.2801 12.69 33.1701 12.93 33.3101C13.31 33.5101 13.36 33.5701 13.65 33.7301C13.99 33.9301 13.99 33.8701 14.29 34.0301C14.61 34.2801 15.45 34.6101 15.96 34.7801C16.24 34.9901 16.9 35.1501 16.96 35.2601C17.18 35.3401 17.31 35.3701 17.38 35.3601C17.7 35.5601 18.46 35.6901 18.7 35.8101C18.96 35.8801 19.06 35.8601 19.39 35.9501C19.73 36.0401 19.8 36.0901 20.05 36.1601C20.37 36.2201 21.1 36.4201 21.02 36.3101C21.2 36.4201 22.32 36.5601 22.49 36.4501C22.99 36.4501 23.43 36.3301 23.62 36.1501C23.81 36.0001 23.84 35.7101 23.77 35.3301C23.62 34.6101 23.19 33.9601 22.69 33.3701C22.57 33.2901 22.37 33.0701 22.18 32.9001C21.8 32.5201 21.84 32.4501 21.56 32.1601C21.23 31.8401 20.71 31.5501 20.52 31.2501C20.24 31.0101 20.14 30.9901 20.12 31.0501C19.5 30.5001 18.79 29.9201 18.06 29.3501C17.85 29.2101 17.57 29.0101 17.45 28.9701C16.53 28.2201 15.6 27.7301 14.71 27.1501C14.11 26.7001 13.63 26.3401 13.01 25.8801C13.35 25.8901 14.73 27.1101 15.01 27.0501C14.67 26.7001 14.41 26.6401 13.84 26.2301C13.82 26.0401 14.53 26.5701 14.59 26.4701C15.14 26.9401 15.57 27.2901 16.29 27.7501L16.19 27.8501C15.7 27.5401 15.86 27.5501 15.53 27.3201C15.17 27.1301 15.86 27.6601 16.29 27.9501C16.38 28.0101 16.7 28.1401 16.46 27.9801C16.5 27.9401 16.77 28.2101 16.66 28.1801C17.06 28.4601 17.06 28.3701 17.24 28.5901C17.49 28.7501 17.67 28.8401 17.77 28.8601C18.17 29.1601 18.08 29.1801 18.29 29.3301C18.59 29.5201 18.8 29.6001 18.97 29.6501C19.55 30.0201 19.64 30.0801 20.17 30.4401L20.14 30.4801C20.54 30.6901 21.05 31.2101 21.75 31.8601C21.67 31.8501 21.77 31.9701 21.77 32.0201C22.16 32.3501 22.81 32.8301 23.06 33.3401C23.39 33.7601 23.58 33.9101 23.84 34.3601C23.97 34.6301 24.14 35.1401 24.01 35.0201C24.09 35.2101 24.18 35.5401 24.16 35.8101C24.16 36.0901 24.06 36.2901 24.08 36.3501C24.35 36.0901 24.3 35.6001 24.23 35.2701C24.18 35.0201 24.19 34.9701 24.1 34.7201C23.89 34.2301 23.55 33.7701 23.01 33.0601C22.71 32.7201 22.82 32.7401 22.6 32.4901C21.93 31.7601 21.46 31.3701 20.98 31.0601C20.72 30.8601 20.75 30.8201 20.58 30.6701C20.45 30.5601 20.17 30.3701 20 30.2501C19.69 30.0101 19.47 29.8401 19.24 29.6101C17.04 27.9901 15.29 26.8501 13.53 25.5701C13.23 25.3601 12.96 25.1901 12.79 25.1101C12.37 24.7801 11.91 24.4601 11.47 24.1501L11.43 24.2101C12.16 24.6201 12.84 25.0101 13.33 25.3401C13.68 25.5301 13.99 25.7001 14.34 25.8901C14.87 26.3101 16.27 27.0701 16.79 27.3401C17.2 27.5601 17.29 27.6701 17.78 27.9101C17.81 27.9601 17.98 28.0601 17.99 28.1001C18.49 28.3001 18.48 28.4001 19.12 28.7101C19.3 28.6901 18.87 28.4801 18.41 28.2401C18.49 28.1401 19.18 28.5101 19.77 28.7701C19.89 28.8301 19.89 28.7901 19.92 28.7901C20.14 28.9501 20.94 29.2601 20.9 29.3401C21.5 29.5801 22.26 29.8301 22.78 30.0201C23.12 30.1301 23.22 30.1101 23.36 30.1101C23.64 30.1501 23.62 30.2201 23.89 30.2801C24.04 30.3101 24.17 30.2901 24.32 30.3001C24.68 30.3301 25.07 30.3701 25.3 30.2801C25.19 30.2301 24.86 30.3301 24.61 30.3001C24.58 30.2001 23.83 30.1101 23.71 29.9701C23.94 30.0201 23.96 30.0401 23.96 30.0701C24.3 30.1301 24.3 30.0701 24.52 30.0701C24.92 30.1801 25.54 30.1101 25.77 29.9901C25.43 30.2801 26.12 29.9301 26.19 29.9601C26.57 29.7001 26.53 29.5001 26.78 29.3801C26.87 29.2501 26.84 29.1901 26.85 29.1301C26.86 29.0701 26.88 28.9801 26.97 28.7201C26.91 28.7601 26.82 29.0501 26.79 28.9101C26.91 28.5701 26.9 28.0701 26.74 27.8301C26.7 27.6501 26.76 27.6401 26.78 27.5601C26.65 27.3001 26.5 26.9801 26.37 26.7101C26.1 26.4801 25.94 26.1001 25.41 25.5101C25.45 25.7701 26.39 26.7201 26.51 27.2301C26.27 27.0301 25.76 26.0001 25.03 25.2601C25.02 25.1401 24.4 24.5801 24.55 24.5901C24.09 24.1701 23.82 24.0301 23.5 23.6401C23.34 23.5101 23.21 23.4401 23.13 23.4101C22.99 23.4401 23.5 23.8701 23.39 23.9201C23.85 24.3501 23.79 24.0901 24.22 24.5001C24.33 24.6701 24.54 24.9201 24.5 24.9801C24.75 25.2301 24.71 25.0701 24.96 25.3301C25.18 25.6201 25.73 26.2301 25.87 26.5201C25.76 26.5001 25.32 25.8301 24.98 25.4901C24.72 25.2601 24.38 24.9201 24.13 24.7501C23.7 24.2801 23.46 24.2101 23.13 23.7901C22.95 23.6301 22.84 23.5701 22.78 23.5501C22.39 23.1501 21.61 22.5001 20.95 22.0201C20.94 21.9501 21.07 22.0301 21.13 22.0401C20.74 21.7501 20.41 21.5501 20.16 21.4201C19.62 21.0201 19.12 20.6601 18.85 20.5401C18.37 20.2101 18.24 20.0701 17.72 19.7401C17.66 19.6601 17.25 19.3001 17.18 19.3001C17.01 19.1801 17.21 19.2901 17.21 19.2601C16.91 19.0301 16.48 18.8301 16.5 18.7901C16.18 18.5901 16.09 18.6001 15.73 18.3601C15.54 18.3001 15.28 18.1401 15.04 17.9701L15.74 16.8701C15.9 16.9501 16.04 17.0101 16.13 17.0301C16.31 17.1301 16.49 17.2201 16.5 17.2601C16.87 17.4001 17.01 17.4901 17.42 17.7101C17.75 17.9001 18.13 18.1201 18.27 18.2401C18.57 18.4001 18.73 18.4501 18.95 18.5401C19.2 18.7001 19.15 18.7401 19.25 18.8301C19.86 19.1401 20.97 19.7101 21.59 20.2201C21.76 20.3101 21.85 20.3201 21.9 20.3001C22.66 20.7601 22.86 20.7501 23.77 21.3201C24.06 21.4601 24.26 21.5201 24.35 21.4801C24.89 21.8001 25.51 22.0101 25.54 22.1701C25.98 22.3801 26.03 22.3401 26.44 22.5101C26.47 22.5601 26.66 22.6101 26.7 22.6001C26.92 22.7201 26.96 22.7901 27.25 22.8601C27.74 22.9001 28.26 22.7301 28.62 22.6101C28.66 22.5801 28.68 22.5601 28.69 22.5401C28.69 22.5301 28.69 22.5201 28.69 22.5201L28.72 22.4301C28.75 22.3201 28.78 22.2201 28.82 22.1201C28.9 21.9401 28.88 21.9801 28.95 21.7301C28.95 21.5801 28.95 21.4701 28.9 21.3401C28.88 21.2101 28.83 21.0601 28.75 20.7901C28.66 20.6601 28.54 20.3801 28.48 20.4501C28.3 20.1601 28.31 20.0601 28.17 19.8501C27.86 19.4101 27.68 19.2901 27.33 18.9101C27.03 18.5501 26.5 18.0501 26.15 17.7901C25.89 17.4901 25.79 17.3101 25.53 17.0101C25.46 16.7601 25.93 17.0201 25.58 16.6101C25.25 16.2601 25.34 16.4901 25.09 16.2301C24.68 15.7601 24.33 15.3401 23.93 15.0401C23.66 14.6801 22.82 13.9901 22.55 13.6701L21.89 13.1301C21.89 13.1101 21.58 12.7901 21.58 12.8501C21.45 12.7201 21.4 12.6301 21.32 12.5201C21.01 12.3101 20.94 12.3601 20.66 12.2001C20.2 11.7801 19.62 11.4801 19.72 11.3801C19.61 11.3001 19.49 11.2201 19.37 11.1401L19.91 10.3201C20.2 10.5201 20.5 10.7201 20.65 10.8001C20.79 10.8101 19.92 10.1501 20.74 10.7201C20.76 10.6501 20.44 10.4201 20.2 10.2301C20.65 10.4601 20.75 10.5801 21.21 10.8501C21.4 11.0701 21.47 11.1101 21.74 11.3301C21.9 11.4401 21.88 11.3601 21.92 11.3501C22.29 11.6701 22.92 12.2301 23.19 12.2901C23.47 12.5001 23.51 12.5801 23.72 12.7501C24.33 13.2201 24.63 13.3701 24.95 13.6801C25.25 13.8001 26.2 14.5201 26.21 14.3401C26.37 14.5001 26.82 14.7901 26.95 14.9301C27.19 15.0501 27.31 15.0601 27.38 15.0401C28.14 15.4801 29.07 15.8901 29.82 16.0201C30.23 16.1301 30.13 16.1701 30.37 16.2401C30.86 16.2501 31.41 16.1401 31.79 15.8901C31.89 15.8801 31.97 15.8401 32.06 15.8201C32.24 15.6801 31.94 15.7601 32.19 15.5801C32.28 15.5801 32.15 15.7101 32.21 15.7301C32.44 15.5201 32.38 15.4501 32.33 15.4101C32.37 15.3101 32.42 15.1601 32.42 15.0001C32.42 14.8401 32.37 14.6701 32.3 14.6401C32.3 14.3601 32.02 14.0101 31.96 13.7701C31.89 13.6501 31.87 13.7001 31.84 13.7001C31.73 13.5201 31.48 13.0801 31.32 13.0001C31.2 12.8601 31.35 12.9301 31.21 12.7701C31.01 12.5501 31.28 12.9101 31.06 12.7101C30.8 12.3701 30.37 11.8801 29.95 11.5401C29.82 11.2701 29.24 10.8801 29.1 10.6301C28.71 10.3501 28.18 9.85008 27.59 9.36008C27.44 9.15008 27.17 8.85008 27.43 8.95008C27.62 9.10008 27.62 9.13008 27.61 9.16008C27.95 9.29008 28.53 9.77008 29.03 10.3201C29.17 10.3901 29.47 10.6401 29.63 10.7401C29.96 11.0601 30.12 11.2201 30.53 11.6101C31.07 12.0401 31.73 12.8201 32.21 13.3901C32.3 13.6501 32.59 13.9801 32.53 14.0601C32.74 14.3701 32.84 14.9701 32.79 15.2001C32.76 15.3701 32.71 15.3801 32.64 15.5401C32.44 15.8101 32.58 15.8101 32.28 16.0501C32.19 15.9801 31.94 16.3001 31.68 16.3701L31.66 16.3001C31.34 16.4501 30.98 16.4701 30.64 16.4301C30.02 16.4601 30.12 16.3601 29.42 16.2101C29.29 16.1401 29.11 16.0501 28.95 15.9701C28.75 15.8901 28.72 15.9101 28.57 15.8401C28.33 15.7001 27.79 15.4701 27.77 15.3601C27.52 15.3501 27.02 15.1201 26.58 14.9101C26 14.5301 26.01 14.5401 25.51 14.2501C25.42 14.1501 25.24 14.0001 25.1 13.8801C24.85 13.7001 24.72 13.6401 24.71 13.6901C24.48 13.5101 24.43 13.4101 24.06 13.1601C23.85 12.9701 23.87 13.0701 23.8 13.0201C23.54 12.8601 23.21 12.5401 23.28 12.7501C23.07 12.5801 23.26 12.6201 22.88 12.3601C22.8 12.4101 23.25 12.6201 23.02 12.6101C23.35 12.8501 23.73 13.1101 24.02 13.4001C24.15 13.4901 24.13 13.4201 24.28 13.5301C25.08 14.1501 25.63 14.4701 26.1 14.8401C26.22 14.8901 26.31 14.9201 26.38 14.9301C26.71 15.1201 27.31 15.5101 27.48 15.5301C27.95 15.8401 28.73 16.1901 29.57 16.4201C30.4 16.6901 31.23 16.6201 31.81 16.3801C32.15 16.2401 32 16.2301 32.29 16.0501C32.49 15.9101 32.58 15.8601 32.71 15.7101C32.9 15.4101 32.89 15.0201 32.94 14.7901C32.92 14.6401 32.84 14.4501 32.79 14.3401C32.67 13.5601 31.48 12.2401 31 11.7401C30.61 11.3801 30.05 10.8501 29.66 10.5001C29.45 10.3201 29.32 10.2101 29.07 10.0701C28.47 9.49008 27.97 8.98008 27.26 8.51008C27 8.30008 26.89 8.16008 26.63 7.96008C26.25 7.66008 25.76 7.37008 25.35 7.07008C25.08 6.87008 25.02 6.75008 24.69 6.55008C24.61 6.46008 24.58 6.40008 24.66 6.38008C24.34 6.16008 24.4 6.25008 24.19 6.06008C23.99 6.00008 23.7 5.84008 23.3 5.58008C23.15 5.39008 22.52 4.98008 22.74 4.96008C22.22 4.62008 21.7 4.29008 21.18 3.97008C20.95 3.97008 19.94 3.33008 19.91 3.53008C19.63 3.38008 19.25 3.22008 19.05 3.05008C18.85 2.94008 18.82 2.96008 18.66 2.87008C18.14 2.52008 16.8 1.97008 16.28 1.69008C15.88 1.59008 15.43 1.37008 14.55 1.09008C14.54 1.06008 14.32 0.99008 14.16 0.94008C14.1 0.87008 13.92 0.78008 13.81 0.71008C13.49 0.58008 13.22 0.62008 13.13 0.52008C12.76 0.34008 13.61 0.59008 13.73 0.56008C14.37 0.77008 14.86 0.96008 15.43 1.21008C15.76 1.31008 15.84 1.33008 16.37 1.54008C16.97 1.78008 17.31 1.82008 18.33 2.38008C18.55 2.37008 18.04 2.13008 18.19 2.10008C18.8 2.39008 19.16 2.51008 19.54 2.64008L20.17 2.99008C20.73 3.22008 21.46 3.64008 21.89 3.80008C22.38 4.19008 23.19 4.56008 23.58 4.89008C23.6 5.01008 23.04 4.58008 22.92 4.57008C22.95 4.69008 23.77 5.14008 24.11 5.36008C24.17 5.34008 24.06 5.24008 23.8 5.07008C24.01 5.08008 24.7 5.60008 25 5.86008C25.77 6.35008 27.15 7.28008 27.48 7.60008C27.61 7.69008 27.59 7.63008 27.74 7.75008C28.17 8.12008 28.59 8.40008 28.74 8.58008C29.13 8.88008 29.38 9.03008 29.69 9.27008C29.9 9.63008 30.72 10.0901 30.9 10.4701C31.19 10.6401 31.87 11.3901 32.11 11.5601C32.35 11.9801 32.96 12.5301 33.24 13.1401C33.44 13.4301 33.61 13.7301 33.74 13.9801C33.81 14.2001 33.91 14.5701 33.94 15.0001C33.96 15.4401 33.84 15.9201 33.64 16.2601C33.57 16.4201 33.51 16.5201 33.47 16.6201C33.07 17.0601 33.09 16.9201 32.76 17.1601C32.19 17.4601 32.34 17.4701 31.83 17.6301C32.15 17.4801 31.78 17.6201 31.67 17.6001C30.98 17.8201 30.14 17.7901 29.65 17.7301C28.94 17.5201 28.36 17.4101 27.92 17.1501C27.27 16.8901 27.04 16.8701 26.37 16.5101C26.56 16.7901 27.39 17.1101 27.92 17.4101C28.41 17.6201 28.73 17.7201 29.1 17.8101C29.47 17.9401 29.35 18.0401 30.04 18.1001C30.12 18.0701 29.92 18.0301 29.71 17.9901C29.92 18.0201 30.49 18.1301 31.12 18.0701C31.74 18.0301 32.4 17.7901 32.7 17.5701C32.96 17.4001 33 17.4301 33.19 17.2701C33.36 17.1301 33.6 16.9001 33.76 16.6501C33.93 16.4101 34.03 16.1601 34.03 16.0901C34.35 15.3501 34.5 14.9101 34.18 13.9201C34.24 13.8901 34.02 13.3301 33.8 12.9401C33.45 12.3801 33.11 12.0201 32.69 11.5501C32.39 11.1201 31.82 10.5401 31.4 10.1001C30.96 9.70008 30.49 9.30008 30.17 9.07008C29.5 8.42008 29.34 8.41008 28.85 7.93008C28.69 7.84008 28.52 7.74008 28.33 7.62008C28.22 7.49008 27.95 7.28008 27.66 7.06008C27.55 6.91008 27.57 6.83008 27.17 6.54008C26.79 6.29008 27.24 6.69008 27.06 6.64008C26.64 6.38008 25.87 5.78008 25.28 5.39008C24.71 5.04008 23.73 4.47008 23.2 4.08008C22.85 3.87008 22.65 3.79008 22.3 3.59008C21.92 3.37008 21.97 3.34008 21.58 3.12008C20.83 2.74008 19.37 1.86008 18.72 1.66008C18.91 1.85008 18.52 1.66008 18.36 1.67008L17.58 1.30008L17.63 1.22008C17.7 1.19008 17.26 1.02008 17.27 0.98008C17.58 1.12008 17.26 0.90008 17.03 0.82008C17.28 0.88008 17.46 0.88008 17.9 1.08008C17.84 0.95008 18.27 1.16008 18.38 1.15008C18.61 1.26008 18.73 1.31008 18.8 1.31008C19.76 1.85008 21.28 2.44008 22.14 3.13008C22.5 3.36008 22.55 3.33008 22.91 3.56008C23.23 3.87008 23.77 4.13008 24.33 4.55008C24.81 4.83008 25.28 5.10008 25.93 5.56008C26.13 5.70008 26.25 5.77008 26.32 5.78008C26.94 6.31008 27.46 6.57008 27.94 7.02008C28.44 7.42008 28.63 7.45008 29 7.82008C29.13 7.92008 29.11 7.85008 29.26 7.98008C30.06 8.69008 30.66 9.23008 31.15 9.58008C31.62 10.0401 32.39 10.8001 32.79 11.1601C33.21 11.6901 33.57 12.1401 34.08 13.0601C34.4 13.6901 34.67 14.1301 34.66 14.9801C34.67 15.3301 34.64 15.8601 34.42 16.3601C34.21 16.8601 33.85 17.2601 33.53 17.4901C33.32 17.7201 32.89 18.0001 32.45 18.1801C32 18.3701 31.55 18.4601 31.28 18.5201C30.75 18.5701 30.51 18.5501 30.28 18.5201C30.06 18.5001 29.79 18.4701 29.39 18.3501C28.74 18.2401 27.85 17.8901 27.36 17.7301C27.05 17.5501 27.01 17.5101 26.66 17.3901C26.43 17.2801 26.43 17.2501 26.26 17.1501C25.93 16.9601 25.82 16.9501 25.56 16.8101C24.71 16.2601 24.42 16.0801 23.7 15.5601C23.49 15.4101 23.38 15.3501 23.31 15.3301C23.18 15.2001 22.63 14.7801 22.59 14.8301C22.36 14.5901 22.29 14.5801 22.05 14.3601C21.73 14.1301 21.4 13.9801 21.12 13.6801C20.99 13.6101 20.7 13.3701 20.73 13.4701C20.58 13.3301 20.47 13.2301 20.32 13.1001C20.03 12.9501 19.29 12.3501 19.15 12.3701C19.08 12.2901 18.91 12.1801 18.79 12.0801L20.47 9.53008C20.57 9.61008 20.64 9.68008 20.61 9.69008C20.83 9.84008 21.23 10.1001 21.06 10.0601C22.04 10.6401 22.53 11.1401 23.17 11.4701C23.83 12.0701 24.1 12.1501 24.63 12.7201C25.4 13.3301 25.92 13.8101 26.71 14.6401C27.45 15.3401 28.19 15.7801 29.18 16.8101C29.46 17.1201 29.44 17.0101 29.66 17.2401C29.97 17.6201 30.06 17.7201 30.33 17.9801C30.79 18.6101 30.9 18.8501 31.22 19.3501C31.41 19.6901 31.72 20.6101 31.67 20.7101C31.73 21.2701 31.8 21.4101 31.82 21.6301C31.78 21.9001 31.75 22.4601 31.54 23.0001C31.41 23.3701 31.4 23.4101 31.41 23.4501C31.23 23.7201 31.14 23.9001 30.96 24.2201C30.65 24.6301 30.44 24.7601 30.26 24.8901C30.07 25.0101 29.88 25.1201 29.53 25.2701C28.91 25.5101 28.68 25.5301 28.46 25.5801C28.24 25.6301 28.05 25.6701 27.57 25.6901C27.45 25.6601 26.62 25.5901 26.57 25.5101C26.3 25.4601 26.15 25.4401 25.97 25.4101C25.89 25.3901 25.79 25.3701 25.68 25.3301C25.6 25.3001 25.51 25.2701 25.38 25.2101C24.94 24.8801 23.63 24.4201 22.83 23.8701C22.54 23.7301 22.29 23.6201 22.24 23.6701C22.12 23.5501 21.41 23.2001 21.67 23.2301C20.85 22.7901 20.29 22.4101 19.45 21.8801C19.4 21.8301 19.35 21.7701 19.37 21.7501C18.72 21.3501 18.01 20.8901 17.65 20.7401C17.25 20.5101 17.1 20.3901 16.82 20.2101C16.1 19.8001 16.08 19.8101 15.52 19.4201C15.21 19.2401 14.92 19.0801 14.68 18.9501L16.4 16.2501C17 16.7001 17.72 17.1601 18.55 17.6801C18.86 17.8501 19.17 18.0301 19.45 18.1901C19.68 18.3601 20.01 18.6201 20.38 18.9001C20.69 19.1401 21.09 19.4301 21.46 19.6801C21.69 19.8701 22.25 20.2301 22.26 20.3101C23.11 20.8501 24.05 21.7801 24.82 22.3401C25.19 22.7101 26.06 23.5401 26.34 23.8401C26.67 24.2001 26.67 24.1101 26.93 24.3901C27.35 24.9001 27.68 25.3801 28 25.9101C28.3 26.4501 28.62 27.0301 28.79 27.9601C28.85 28.5401 28.77 29.2901 28.48 29.9101C28.2 30.5401 27.79 30.9501 27.52 31.2501C27.28 31.4601 27.07 31.5601 26.86 31.6801C26.63 31.8001 26.28 31.9501 26.04 31.9901C25.51 32.1201 25.11 32.1101 24.69 32.1601C23.52 32.0201 22.35 31.7101 21.42 31.4001C21.22 31.2701 20.87 31.1001 20.78 31.0001C20.31 30.8301 20.12 30.8301 19.86 30.7801C19.39 30.6001 19.27 30.4901 18.88 30.3801C18.42 30.1201 17.59 29.7201 17.2 29.4701C16.77 29.2901 16.15 28.9501 15.73 28.7701C15.47 28.5601 14.9 28.3401 15 28.3001C14.67 28.0901 14.72 28.2001 14.58 28.1401C13.96 27.7301 13.56 27.6101 13.32 27.4201C13.06 27.2701 13.04 27.3301 12.78 27.1801C12.31 26.8701 12.36 26.8601 11.82 26.5701C11.99 26.5601 11.31 26.2001 11.16 26.0601C10.98 25.9701 10.77 25.8501 10.63 25.7901L12.46 22.8901C12.55 22.9501 12.62 22.9801 12.66 22.9801C13.02 23.2901 13.86 23.8301 14.24 24.1501C15.03 24.6801 15.27 24.8301 15.74 25.2301C16.13 25.5001 16.38 25.6401 16.61 25.7501C16.88 25.9501 17.07 26.1101 17.28 26.2801C17.97 26.6801 18.54 27.1701 19.32 27.6501C19.86 28.1101 20.03 28.2501 20.37 28.6301L21.3 29.3401C21.4 29.2701 20.73 28.7901 20.74 28.6701C20.93 28.7001 21.45 29.2301 21.78 29.5101C22.07 29.7401 22.45 30.0301 22.86 30.4001C23.21 30.7301 23.51 31.0401 23.73 31.3201C24.16 31.8001 24.65 32.3201 24.79 32.5701C25.09 32.9901 25.19 33.0401 25.44 33.4601C25.62 33.8501 25.82 34.3201 25.94 34.9001C26.04 35.4101 26.2 36.3301 25.61 37.3201C25.46 37.5701 25.29 37.7701 25.09 37.9301C24.88 38.1201 24.69 38.2401 24.5 38.3301C24.29 38.4401 24.11 38.5101 23.94 38.5501C23.76 38.6101 23.59 38.6501 23.44 38.6701C22.81 38.7701 22.33 38.7401 21.89 38.6801C21.39 38.6401 21.35 38.6801 20.88 38.6101C20.83 38.5501 20.02 38.4601 20.13 38.4001C19.29 38.2901 18.06 37.9001 17.5 37.6601C16.93 37.5101 16.82 37.4101 16.34 37.2801C16.04 37.1501 15.58 36.9701 15.53 36.8901C15.26 36.7901 15.15 36.7901 14.81 36.6401C14.4 36.4201 14.06 36.2101 13.36 35.8801C13.24 35.7701 12.87 35.5801 12.76 35.4601C12.59 35.3801 12.47 35.3401 12.45 35.3801C12.14 35.2201 12.09 35.1401 11.69 34.9301C11.23 34.7201 10.99 34.4901 10.77 34.4401C10.46 34.2301 10.21 34.0601 10.07 33.9101C9.31999 33.4701 9.41999 33.4001 8.88999 33.0401C8.89999 32.9701 9.36999 33.3501 9.31999 33.2201C8.69999 32.7501 8.02999 32.3601 7.58999 31.9501C6.74999 31.4201 6.09999 30.8801 5.44999 30.4901C5.41998 30.4301 5.33999 30.3501 5.12999 30.2001C4.33999 29.7401 2.98999 28.6101 2.45999 28.3301C2.06999 27.9901 2.22999 28.0501 1.79999 27.7301C1.88999 27.6901 1.40999 27.2701 1.23999 27.0401C1.21999 26.9201 1.12999 26.7301 0.969985 26.5001C1.27999 26.7801 1.72999 27.0101 2.02999 27.3601C2.25999 27.5001 2.72999 27.9101 2.98999 28.0701C3.59999 28.6201 4.13999 29.0401 4.82999 29.4901C5.80999 30.2401 6.54999 30.7601 7.10999 31.0201C7.31999 31.1701 7.74999 31.5401 7.92999 31.5901C8.13999 31.7501 8.08999 31.7901 8.47999 32.0301C8.76999 32.2401 8.78999 32.1901 8.99999 32.3101C9.25999 32.5101 9.57999 32.7501 9.79999 32.9201C10.32 33.2001 9.70999 32.7801 9.99999 32.9201C9.81999 32.7501 9.16999 32.3401 9.09999 32.2101C9.08999 32.1801 9.15999 32.2301 9.23999 32.2801C9.34999 32.2801 9.29999 32.2801 9.30999 32.3101ZM16.87 37.1601C17.82 37.6001 18.75 37.8501 20.03 38.1201C20.37 38.2101 20.93 38.3401 21.27 38.3401C21.56 38.4201 22.05 38.4801 22.65 38.4801C23.24 38.4501 24.05 38.4201 24.91 37.7401C25.17 37.5201 25.44 37.1301 25.59 36.7301C25.65 36.5301 25.71 36.3301 25.74 36.1301C25.75 35.9601 25.75 35.7901 25.74 35.6401C25.72 34.3301 25.14 33.4301 24.96 32.9601C24.66 32.4901 24.61 32.5301 24.46 32.2601C24.39 32.2701 24.23 32.1101 23.96 31.8001C23.62 31.4001 23.24 31.0001 22.88 30.6301C22.47 30.2201 22 29.8301 21.61 29.5501C21.96 29.9001 21.37 29.5001 21.37 29.5701C22 30.0901 22.31 30.2701 22.75 30.6401C22.92 30.9001 23.37 31.2001 23.63 31.4701C23.49 31.4201 23.97 31.8901 23.74 31.7701C24.03 32.1301 24.53 32.7401 24.94 33.4701C25.37 34.2001 25.63 35.0701 25.68 35.6301C25.63 35.8001 25.67 36.0101 25.53 36.4101C25.44 36.7601 25.16 37.2601 24.78 37.5601C23.99 38.1901 23.27 38.2201 22.86 38.2901C22.39 38.2301 21.37 38.2001 20.56 38.0401C20.36 38.0001 20.41 38.0501 20.24 38.0301C19.44 37.7701 18.61 37.6201 17.65 37.2801C17.47 37.2701 17.17 37.2201 16.75 37.0701C16.11 36.7601 15.02 36.4101 14.44 36.0501C13.98 35.9001 13.57 35.6301 13.33 35.5901C14.44 36.1501 15.66 36.7601 16.87 37.1601ZM16.78 26.0801C16.56 25.8901 15.77 25.3801 15.56 25.3101C16.09 25.6301 15.99 25.6401 16.25 25.8201C16.45 25.9601 16.77 26.1601 16.97 26.3001C17.21 26.4701 17.47 26.7001 17.59 26.6801C17.31 26.4201 17.07 26.2601 16.78 26.0801ZM15.3 25.1601C15.34 25.1401 15.25 25.0501 15.12 24.9501C14.93 24.8601 14.88 24.9001 15.3 25.1601ZM18.05 27.0101C18.02 26.9801 17.86 26.8901 17.92 26.9401C17.94 26.9701 18.1 27.0701 18.05 27.0101ZM12.54 26.4701C12.69 26.4801 12.49 26.3401 12.37 26.2301C11.67 25.8201 11.39 25.7301 10.78 25.3601L12.19 23.1201C12.24 23.1601 12.32 23.2301 12.41 23.3001C12.61 23.3801 13.06 23.7001 13.18 23.7001C12.83 23.4401 12.54 23.2101 12.27 23.0101L10.7 25.4901C11.14 25.7501 11.58 26.0101 12.12 26.2901C12.56 26.5301 12.57 26.6001 12.96 26.8301C13.55 27.1501 14.27 27.4401 14.77 27.7701C14.83 27.7501 14.66 27.6501 14.71 27.6201C14.28 27.4101 13.73 27.1101 13.18 26.7901C13.11 26.7901 13.32 26.9501 13.13 26.8501C13.1 26.7201 12.83 26.6801 12.54 26.4701ZM13.63 24.0601C14.09 24.3601 14.53 24.6501 14.75 24.7301C14.21 24.3301 13.78 24.0501 13.63 24.0601ZM12.55 35.1701C12.58 35.1901 12.75 35.2701 12.69 35.2201C12.66 35.2001 12.49 35.1301 12.55 35.1701ZM11.53 34.5701C11.71 34.5701 11.05 34.2501 10.8 34.0801C10.72 34.1201 11.3 34.4801 11.53 34.5701ZM16.47 28.6501C17.01 28.8801 17.37 29.0801 17.93 29.3501C17.88 29.3701 18.75 29.8201 18.6 29.6601C18.41 29.4701 17.02 28.8901 17.2 28.8801C16.82 28.6601 16.8 28.7101 16.42 28.4801C16.28 28.4901 16.3 28.4701 16.35 28.5701C16.1 28.4601 15.97 28.2801 15.84 28.2901C16.13 28.4601 16.02 28.4901 16.43 28.7001L16.47 28.6501ZM24.12 22.6201C24.46 22.8801 24.88 23.1901 24.99 23.4201C24.95 23.4401 24.67 23.1601 24.7 23.2701C25.22 23.8401 26.11 24.5301 26.62 25.3501C26.4 25.1801 25.95 24.6401 25.55 24.2701C25.48 24.2901 25.64 24.4801 25.77 24.6501C25.79 24.6101 25.92 24.7301 26.11 24.9601C25.93 24.8701 26.21 25.1601 26.22 25.2401C26.74 25.8801 27.39 26.7201 27.7 27.9901C27.65 27.7401 27.75 27.9601 27.77 28.1701C27.73 28.2901 27.75 28.6501 27.62 29.0701C27.64 29.1101 27.69 29.0701 27.62 29.2901C27.52 29.4801 27.38 29.7401 27.1 30.0601C26.95 30.2501 26.74 30.4601 26.45 30.6401C26.18 30.8401 25.61 31.0601 25.07 31.0701C24.75 31.1101 24.33 31.1201 23.92 31.0601C23.91 31.0301 23.97 31.0001 23.79 30.9701C23.75 30.9801 23.77 31.0201 23.62 30.9901C23.44 30.9001 22.8 30.8301 22.44 30.7001C21.26 30.3101 20.86 30.1101 20.09 29.8201C20.08 29.7701 19.51 29.5401 19.46 29.4701C18.95 29.2901 18.62 29.0701 18.14 28.8601C17.52 28.5201 17.25 28.4401 17.01 28.2301C16.8 28.1701 16.62 28.1201 16.53 28.1501C16.04 27.9201 15.49 27.6401 15.29 27.6401C15.67 27.8901 15.79 28.0101 16.28 28.2301C16.26 28.2501 16.16 28.2001 16.12 28.2001C16.91 28.6201 17.3 28.8201 17.92 29.1501C18.08 29.0901 18.76 29.4101 19.43 29.7701C19.68 29.8901 19.57 29.7501 19.87 29.9001C20.6 30.3901 21.82 30.6501 22.63 31.0101C22.64 30.9701 22.77 30.9901 22.96 31.0301C23.41 31.2201 24.31 31.2901 25.04 31.3301C25.27 31.2401 25.82 31.2501 26.4 30.9401C26.84 30.7001 27.28 30.3501 27.37 30.1201C27.56 29.9801 27.65 30.0901 27.89 29.7801C27.6 30.3201 27.34 30.5301 27.07 30.7601C26.94 30.8801 26.79 30.9601 26.62 31.0801C26.48 31.1801 26.12 31.3601 25.8 31.4301C25.6 31.4801 25.51 31.4701 25.4 31.4701C25.28 31.4701 25.14 31.4801 24.84 31.4901C24.53 31.5101 24.79 31.6501 24.27 31.6001C24.1 31.5001 23.8 31.4301 23.83 31.3701C22.82 31.1801 22.22 31.0001 21.68 30.8901C21.66 30.8501 21.38 30.7501 21.28 30.6901C21.29 30.7901 20.8 30.5901 20.65 30.5901C20.79 30.7101 20.95 30.8201 21.28 30.9801C21.19 30.8601 21.91 31.1901 22.03 31.1801C22.22 31.2901 23 31.4901 23.22 31.5701C23.25 31.5501 23.29 31.5301 23.56 31.6001C24.23 31.7301 24.83 31.8101 25.58 31.7101C25.78 31.6701 25.97 31.6301 26.18 31.5501C26.4 31.4601 26.62 31.3501 26.76 31.2501C27.07 31.0401 27.43 30.7901 27.75 30.3401C28.25 29.7401 28.43 29.0401 28.43 28.4801C28.43 27.9101 28.28 27.4501 28.07 26.9601L28.12 26.9501C27.88 26.4801 27.87 26.4601 27.63 26.0001C27.54 25.9901 27.24 25.5301 26.98 25.2301C26.78 25.0001 26.79 24.9201 26.73 24.8401C26.51 24.5501 26.18 24.2901 25.91 23.9201C25.66 23.7201 25.44 23.5401 25.19 23.3401C24.61 22.6701 24.03 22.3001 23.58 21.8201C23.1 21.5001 22.22 20.8101 21.71 20.4101C21.27 20.1801 20.94 19.9401 20.28 19.4301C19.56 18.9501 18.82 18.5201 17.96 17.9001C17.37 17.5101 17.36 17.5301 16.9 17.2001C16.68 17.0801 16.33 16.8601 16.08 16.6701L14.92 18.5001C15.34 18.7201 15.75 18.9301 15.91 18.9501C15.53 18.7101 15.54 18.6401 15.09 18.4401L15.13 18.3801L15.01 18.3201L15.96 16.8301L16.28 17.0601C16.7 17.4801 17.33 17.8601 17.94 18.3401C17.98 18.3301 17.97 18.2801 18.11 18.3701C18.76 18.8101 19.49 19.3401 20.01 19.7101C20.11 19.8101 19.98 19.8001 20.3 20.0101C20.65 20.2201 21.19 20.6301 21.5 20.8201C21.63 20.9701 21.85 21.1601 22.13 21.4001C22.35 21.5701 22.27 21.4101 22.52 21.6201C22.52 21.6501 22.45 21.6501 22.58 21.7601C22.61 21.7001 22.81 21.8401 22.95 22.0001C22.74 21.8601 22.54 21.7701 22.88 22.0601C22.94 22.0301 23.03 22.0401 23.21 22.1501C23.36 22.3101 23.82 22.6501 23.93 22.8501C24.04 22.8801 24.08 22.8401 24.39 23.0401C24.02 22.6901 23.89 22.6201 23.78 22.4201C23.72 22.4101 23.35 22.2001 23.3 22.0701C23.45 21.9601 23.95 22.4901 24.12 22.6201ZM20.62 30.5601L20.21 30.3801C20.17 30.4101 20.31 30.4901 20.6 30.6001L20.62 30.5601ZM13.87 26.8801C14.56 27.3001 14.89 27.5101 15.17 27.5401C14.53 27.2001 14.02 26.9701 13.41 26.5501L13.35 26.6201C13.67 26.8401 13.62 26.7301 13.87 26.8801ZM12.75 26.2301C12.78 26.2601 12.94 26.3301 12.89 26.2901C12.85 26.2601 12.69 26.1901 12.75 26.2301ZM20.08 21.5001L20.05 21.5401C20.77 22.0101 20.92 22.0901 21.54 22.4201C21.47 22.2701 21.85 22.5201 21.99 22.5501C21.78 22.3701 21.29 22.1201 21 21.9601C20.35 21.5401 19.76 21.2301 19.42 20.9901C19.29 20.9701 18.59 20.4501 18.64 20.5901C19.25 20.9401 19.56 21.1801 20.08 21.5001ZM18.15 20.2801C17.75 20.0301 17.66 19.9001 17.09 19.5801C17.05 19.6301 16.68 19.3901 16.65 19.4601C17.35 19.9201 17.72 20.1101 18.15 20.2801ZM23.12 11.8201C22.74 11.5401 22.8 11.5101 22.58 11.3301C21.91 10.9101 21.37 10.4501 20.73 10.1001C20.63 10.0001 20.46 9.87008 20.27 9.73008L18.95 11.7401C19.25 11.9501 19.61 12.2101 19.8 12.3901C19.92 12.4301 20.12 12.5601 20.39 12.7701C21.05 13.2901 21.85 13.9101 22.37 14.3701C22.42 14.3701 22.53 14.4401 22.64 14.5101C23.28 15.0201 23.84 15.2801 24.32 15.6901C24.5 15.7401 25.01 16.1001 25.48 16.3801C25.56 16.3301 25.38 16.3101 25.11 16.1301C25.05 16.0501 24.88 15.9201 24.65 15.7701C24.04 15.3701 23.39 14.8701 22.96 14.6001C22.72 14.3901 22.41 14.1401 22.2 13.9401C22.09 13.9101 21.85 13.7501 21.58 13.5501C21.37 13.3801 21.56 13.4201 21.18 13.1601C20.49 12.7401 19.71 12.0401 19 11.6601L20.21 9.82008L20.33 9.89008C20.7 10.2301 21.64 10.8801 21.98 11.1101C22.21 11.2901 22.16 11.3301 22.39 11.5101C22.95 11.8801 23.37 12.3101 23.86 12.7101C24 12.7501 24.7 13.4801 24.69 13.3401C24 12.8101 23.96 12.5801 23.05 11.8901C23.09 11.8301 23.27 12.0101 23.12 11.8201ZM22.81 23.1301C23.1 23.2201 24.23 23.9201 24.3 23.8101C23.7 23.5101 23.52 23.3501 22.9 23.0201C22.54 22.8501 22.52 22.9101 22.11 22.6201C22.08 22.6801 22.32 22.8701 22.81 23.1301ZM28.08 17.7001C27.75 17.5501 27.74 17.4701 27.42 17.3101C27.37 17.3901 26.69 16.9901 26.66 17.0701C27.24 17.3801 27.66 17.6001 28.08 17.7001ZM24.92 24.1901C25.94 24.6601 26.67 24.9101 28.08 24.8701C28.35 24.8401 29.14 24.6501 29.01 24.5901C28.89 24.6101 28.3 24.7601 28.28 24.7101C27.77 24.8101 27.18 24.7401 26.71 24.6501C26.63 24.6401 26.32 24.6001 26.16 24.5501C25.56 24.3501 24.92 24.0201 24.69 24.0201C24.84 24.1101 24.99 24.1801 24.92 24.1901ZM10.21 33.0301C10.17 33.0501 10.26 33.1401 10.4 33.2401C10.44 33.2201 10.35 33.1301 10.21 33.0301ZM26.55 16.9601C25.91 16.5301 26.15 16.8701 26.55 16.9601V16.9601ZM31.01 21.9801C30.99 22.2001 30.94 22.2701 30.9 22.3401C30.84 22.5701 30.77 22.8301 30.71 23.0101C30.64 23.1801 30.6 23.3001 30.65 23.3001C31 22.6701 31.06 22.1401 31.01 21.9801ZM12.3 34.3301C12.45 34.4101 12.66 34.5401 12.69 34.5201C12.54 34.4501 12.34 34.3201 12.3 34.3301ZM31.3 18.2201C31.3 18.2301 31.45 18.2201 31.49 18.1901C31.49 18.1801 31.34 18.1901 31.3 18.2201ZM19.44 20.9401C19.42 20.9601 19.63 21.0901 19.68 21.0901C19.68 21.0501 19.56 21.0001 19.44 20.9401ZM28.82 17.3401C28.93 17.3301 28.33 16.7301 28.11 16.5901L28.05 16.6301C28.58 17.1701 29.48 18.1401 29.86 18.5101C29.5 18.0001 29.12 17.6101 28.82 17.3401ZM29.2 24.5701C29.2 24.6001 29.54 24.4501 29.58 24.3801C29.36 24.5101 29.27 24.5001 29.2 24.5701ZM14.82 35.5101L14.55 35.3901L14.52 35.4301L14.79 35.5501L14.82 35.5101ZM25.29 13.9601C25.3 13.9501 25.22 13.8601 25.18 13.8601C25.17 13.8701 25.25 13.9601 25.29 13.9601ZM25.95 14.5601C25.86 14.4801 25.74 14.3601 25.72 14.3701C25.8 14.4401 25.93 14.5701 25.95 14.5601ZM26.59 15.3001C26.82 15.5201 27.01 15.6701 27.12 15.7301C27 15.5601 26.69 15.3401 26.59 15.3001ZM26.1 14.8101C26.39 15.2801 26.71 15.2901 26.1 14.8101V14.8101ZM27.14 15.9001C27.42 16.2001 27.53 16.1101 27.2 15.8601L27.14 15.9001ZM26.94 6.32008C26.95 6.31008 26.86 6.23008 26.82 6.23008C26.81 6.24008 26.9 6.32008 26.94 6.32008ZM24.68 35.7901C24.68 35.9601 24.64 36.0701 24.59 36.1901C24.55 36.3101 24.48 36.4401 24.34 36.6401C24.33 36.7001 24.5 36.5601 24.61 36.3501C24.71 36.1301 24.74 35.8701 24.68 35.7901ZM25.48 15.9501C25.46 15.9701 25.5 16.0301 25.59 16.0501C25.61 16.0301 25.56 15.9601 25.48 15.9501ZM20.68 10.7701C20.57 10.6201 20.27 10.4201 19.95 10.2201L19.26 11.2701C19.36 11.3401 19.47 11.4001 19.57 11.4701C19.54 11.3401 19.88 11.5601 20.11 11.7001C20.32 11.8601 20.36 11.9401 20.64 12.1501C21.19 12.4701 21.53 12.9101 21.9 13.0801C21.67 12.9901 22.11 13.3801 22.21 13.3701C21.68 12.9501 22.64 13.5901 22.66 13.5301C23.1 13.8501 23.22 13.9101 23.44 14.1501C23.45 14.1101 23.59 14.1901 23.82 14.3701C24.27 14.7501 24.39 14.8201 24.81 15.1901C24.6 15.0401 24.52 15.0101 24.52 15.0801C24.93 15.3901 24.81 15.2801 25.23 15.5801C25.27 15.5801 25.27 15.5501 25.38 15.6301C26.11 16.1201 26.56 16.3001 27.22 16.5801C27.27 16.6601 27.36 16.7701 27.85 16.9501C28.22 17.0201 29.03 17.3101 29.49 17.3301C29.64 17.4201 30.13 17.5601 30.61 17.5601C31.09 17.5701 31.55 17.4501 31.65 17.3701C32.01 17.3101 32.51 17.1101 32.84 16.8101C33.18 16.5201 33.34 16.1801 33.3 16.1401C33.06 16.4201 32.89 16.5701 32.7 16.7301C32.51 16.8701 32.29 17.0201 31.92 17.1201C31.24 17.3901 30.41 17.4601 29.69 17.2301C29.48 17.1801 29.43 17.2001 29.24 17.1601C29.2 17.1201 29.08 17.0701 28.84 16.9801C28.34 16.8501 27.77 16.5601 27.21 16.3301L27.24 16.2901C26.62 16.0001 26.28 15.7001 25.86 15.5101C25.86 15.4601 25.68 15.3401 25.41 15.1701C24.47 14.6901 23.31 13.8201 22.5 13.2801C22.18 12.9201 21.61 12.6401 21.16 12.2301C20.92 12.0601 20.89 12.1101 20.66 11.9401C20.4 11.6501 19.85 11.3801 19.49 11.1401C19.47 11.1201 19.43 11.0901 19.39 11.0501L19.77 10.4701C19.9 10.5701 20.06 10.6801 19.97 10.6801C20.26 10.8801 20.36 10.9101 20.59 11.0601C20.56 11.2201 21.04 11.3501 21.23 11.6201C21.46 11.6501 22.66 12.6101 23.07 13.0101C23.39 13.1901 23.77 13.4301 24.27 13.8601C24.23 13.9101 24.05 13.7301 24.19 13.9201C24.69 14.3201 25.24 14.8501 25.53 15.2201C25.81 15.3801 26.05 15.4901 26.42 15.7701C25.99 15.3001 25.76 15.1001 25.29 14.6901C25.03 14.4201 25.03 14.3401 24.72 14.0501C24.57 13.9201 24.49 13.8901 24.27 13.6801C24.24 13.7101 24.14 13.6401 24 13.5301C23.49 13.1001 23.3 13.0601 22.81 12.6801C22.54 12.4001 22.26 12.2801 22.17 12.1101C22.36 12.1801 22.47 12.2601 22.39 12.1001C21.85 11.6301 21.22 11.0701 20.68 10.7701ZM21.6 29.8101C21.61 29.9201 21.32 29.6901 20.92 29.5601C20.89 29.6301 21.7 30.0101 21.95 30.0501C21.68 29.9401 21.98 29.9501 21.6 29.8101ZM20.11 29.2501C20.17 29.2101 19.95 29.0901 19.77 28.9901C19.79 29.0701 19.28 28.7801 19.22 28.8001C19.68 29.0301 19.66 29.0801 20.11 29.2501ZM20.8 29.5001L20.41 29.3201C20.37 29.3501 20.51 29.4301 20.78 29.5401L20.8 29.5001ZM26.17 23.9001C26.56 24.0701 26.49 23.9701 26.78 24.0401C27.24 24.1901 27.83 24.2401 28.45 24.1201C28.76 24.0501 29.08 23.9401 29.36 23.7401C29.5 23.6401 29.63 23.5101 29.74 23.3701C29.84 23.2301 29.89 23.0901 29.97 22.9601C30.2 22.5701 30.2 22.7001 30.38 22.1101C30.36 22.0101 30.35 21.8401 30.36 21.6101C30.33 21.1301 30.37 21.0301 30.27 20.6701C30.18 20.5501 30.09 20.3101 29.87 19.8301L29.76 19.8701C30.59 21.1401 30.26 23.3501 28.75 23.8901C28.13 23.9601 27.89 24.1101 27.13 23.9901C26.66 23.9801 26.46 23.8801 25.97 23.7101C25.67 23.5301 24.98 23.2401 24.66 23.1101C24.76 23.2801 25.87 23.7201 26.17 23.9001ZM24.25 30.5201C23.94 30.4101 23.75 30.4601 23.52 30.4301C23.78 30.4801 24.12 30.5301 24.25 30.5201ZM29.03 8.86008C28.7 8.57008 28.2 8.12008 28.12 8.14008C28.43 8.48008 28.56 8.43008 28.89 8.79008C29.03 8.91008 29.06 8.90008 29.23 9.06008C29.6 9.37008 30.34 10.1301 30.43 10.0801C30.23 9.78008 29.3 9.01008 29.03 8.86008ZM33.73 14.7401C33.63 15.1201 33.82 15.1901 33.73 14.7401V14.7401ZM33.51 13.9701C33.46 13.8601 33.4 13.6901 33.37 13.6901C33.43 13.8001 33.48 13.9701 33.51 13.9701ZM32.2 11.9801C32.08 11.8201 32.05 11.7501 31.83 11.5301C31.63 11.3901 32.2 12.0301 32.2 11.9801ZM29.12 9.15008C29.48 9.55008 29.83 9.77008 30.16 10.1201C30.17 10.0701 30.32 10.1901 30.34 10.1601C29.79 9.69008 29.51 9.38008 29.12 9.15008ZM18.73 29.7001L18.96 29.8701L18.99 29.8401L18.76 29.6701L18.73 29.7001ZM19.07 29.9601C19.21 30.0701 19.2 30.1001 19.39 30.2301C19.43 30.2101 19.35 30.1201 19.21 30.0101C19.21 30.0201 19.11 29.9601 19.07 29.9601ZM21.91 3.98008C22.17 4.13008 23.02 4.67008 22.68 4.39008C22.68 4.43008 21.97 3.91008 21.91 3.98008ZM32.68 12.8601C32.53 12.6901 32.41 12.6001 32.18 12.3201C32.11 12.4001 32.47 12.8301 32.73 13.3001C32.81 13.2401 33.09 13.8601 33.14 13.7501C32.86 13.2401 33.01 13.3401 32.68 12.8601ZM33.32 15.7301C33.34 15.6901 33.39 15.5101 33.35 15.5801C33.33 15.6201 33.28 15.8001 33.32 15.7301ZM33.45 14.8601C33.45 14.8201 33.42 14.6401 33.41 14.7101C33.41 14.7501 33.45 14.9301 33.45 14.8601ZM32.97 16.2001C33.06 16.0701 33.13 16.0501 33.14 15.9701C33.13 15.9501 32.97 16.1401 32.97 16.2001ZM30.09 10.3501C30.5 10.7701 30.54 10.6901 30.85 11.0001C31.05 11.1901 31.05 11.2301 31.23 11.4101C31.44 11.5401 31.89 12.0601 32.01 12.0801C31.4 11.4401 30.78 10.8601 30.3 10.3501C30.09 10.2201 30.02 10.1901 30.09 10.3501ZM29.14 9.49008C29.4 9.73008 29.59 9.88008 29.71 9.94008C29.51 9.75008 29.57 9.73008 29.22 9.43008L29.14 9.49008ZM22.65 12.1801C22.76 12.1901 22.17 11.7001 22.12 11.7101C22.32 11.8801 22.27 11.9201 22.65 12.1801ZM21.52 11.2901C21.57 11.3901 21.49 11.4301 21.76 11.6501C21.98 11.7901 22.34 12.0601 22.21 11.8101L21.52 11.2901ZM29.31 16.1101C29.34 16.1301 29.51 16.1601 29.45 16.1301C29.42 16.1201 29.25 16.0801 29.31 16.1101Z" fill="#1E1E1E"/>
<path d="M5.29999 29.3501C5.10999 29.2301 5.22999 29.2801 5.31999 29.3301C5.48999 29.4301 5.56999 29.5301 5.41999 29.4301C5.37999 29.4101 5.32999 29.3701 5.29999 29.3501Z" fill="#1E1E1E"/>
<path d="M28.64 17.0501C29.02 17.2401 28.44 17.0301 28.21 16.9101C28.27 16.8601 28.65 17.1301 28.64 17.0501Z" fill="#1E1E1E"/>
<path d="M22.35 29.6401C22.1 29.7101 21.53 29.4201 20.73 29.0901C20.85 29.0801 20.49 28.9301 20.38 28.8601C20.82 29.0601 21.74 29.3401 22.35 29.6401Z" fill="#1E1E1E"/>
<path d="M25.61 29.9201C25.4 30.0601 25.69 29.8401 25.5 29.8901C25.06 30.0201 24.83 29.9701 24.41 29.9901C24.15 29.9601 24.17 29.8901 24.05 29.8401C23.39 29.7901 23.01 29.5201 22.48 29.4101C22.18 29.1501 23.35 29.6701 23.42 29.6301C23.57 29.6801 23.51 29.7001 23.52 29.7301C23.87 29.7501 24.44 29.9401 25.05 29.8701C25.13 29.9201 25.34 29.9201 25.53 29.8501C25.69 29.7901 25.93 29.6101 26.04 29.4901C26.17 29.3601 26.21 29.3901 26.3 29.2801C26.46 29.0101 26.62 28.7701 26.56 28.5401C26.59 28.4601 26.58 28.3601 26.61 28.3401C26.6 28.2101 26.56 28.1201 26.52 28.1201C26.42 27.4901 26.19 27.3501 26.02 26.8901C26.06 26.7601 26.36 27.4101 26.46 27.6701C26.57 27.8801 26.73 27.8901 26.73 28.4701C26.66 28.4101 26.66 28.6101 26.6 28.8101C26.56 29.0201 26.43 29.2301 26.43 29.2701C26.33 29.3501 26.16 29.4801 26 29.6201C25.81 29.7501 25.65 29.8701 25.61 29.9201Z" fill="#1E1E1E"/>
</svg>
