<svg fill="none" height="68" viewBox="0 0 79 68" width="79" xmlns="http://www.w3.org/2000/svg"><path d="m53.8001 0h-45.49004v61.23h45.49004z" fill="#6cbaab"/><path d="m45.99 41.98c.45-.35 1.37-.77 2.44-1.27.99-.52 2.18-1.1 2.92-1.53.68-.3 1.38-.64 1.8-.88.38-.19.2-.02.51-.17.52-.25.99-.48 1.13-.6.43-.18 1.11-.49 1.3-.66.37-.14.81-.33 1.49-.67.63-.26.8-.37 1.32-.59.23-.13.41-.23.64-.36.16-.07.3-.14.4-.18l-.7-.44v3.02c.02.37.06.65.09.93.09-.23.06-2.07-.02-2.19.06-.26.03-1.29.07-1.76l.5.31c-.1.04-.18.07-.22.07-.58.27-.38.28-.96.55-.23 0-1.19.51-1.5.62-1.2.63-1.74.88-2.76 1.45-.41.2-.52.21-.67.25-.28.14-.42.23-.48.29-.83.31-1.2.56-2.29 1.12-.37.16-.89.42-1 .41-.47.26-1.16.6-1.64.8-.85.48-2.32 1.06-2.94 1.48-.58.18-1.44.71-2.15.97-.31.16-.4.25-.81.45-.59.25-1.6.78-2.14.99-2.25 1.19-5.02 2.38-6.37 3.16-.48.16-.6.08-1.52.53-.1-.09-.64.11-1.04.22-.16-.06.7-.47.6-.55 1.78-1 3.09-1.57 5.37-2.75.71-.35 1.05-.45 1.81-.83.58-.29.88-.5 1.29-.73.62-.31.8-.32 1.32-.57.35-.16.43-.23.65-.34.65-.27 1.36-.59 2.3-1.1 1.75-.79 2.67-1.33 4.27-2.03.45-.2.32-.21.64-.37.49-.26.6-.27.99-.45.47-.21.42-.24.81-.42.5-.16 1.51-.72 2.12-1.06.42-.12 1.18-.59 1.33-.57.28-.13.42-.22.48-.28.46-.15 1.31-.67 1.64-.77.31-.16.4-.25.81-.44.41-.2.52-.21.83-.35.21-.12.61-.29.87-.42l.64-.32v.71c0 .22.01.37.05.32-.06.25-.08 1.76-.01 2v6.93c.04.18.05.58.07.92.01.71-.06.74-.08 1.26.01.58.13 1.41.02 1.83-.01.48.03.6.09.57-.04 1.08-.09 2.25-.13 3.44.01.33.01.76.04.92-.07 1.51.05 2.85.08 4.21-.03.96-.05 1.72-.08 2.72-.18-.37.04-2.71-.18-2.96-.09.61.01.92-.01 1.82-.14.16-.11-.97-.23-.96.07-.92.11-1.63.08-2.72l.14.03c.03.74-.05.57-.05 1.08.05.52.09-.59.08-1.26 0-.15-.08-.57-.07-.2-.06-.02.01-.5.05-.35 0-.62-.08-.56 0-.91-.01-.38-.04-.63-.09-.75.01-.64.08-.56.07-.9-.03-.46-.08-.73-.14-.94-.04-.88-.05-1.02-.09-1.84l.05.01c-.09-.58.04-1.49.01-2.73.05.09.06-.11.09-.16-.04-.66-.17-1.68-.06-2.38-.01-.7-.07-.99-.09-1.66.02-.38 0-1.09.1-.89-.05-.56-.02-1.76-.14-1.85-.07.45 0 1-.01 1.46 0 .33-.03.38-.03.72.01.68.08 1.4.04 2.56.01.58-.07.47-.07.9-.02 1.27.03 2.03.08 2.76.01.42-.04.42-.05.71 0 .22.01.65.02.92 0 .5-.01.85-.05 1.27 0 3.49.03 6.15-.01 8.93 0 .47.01.87.04 1.1-.08 1.73.01 3.66-.04 4.91.01.27.01.52.02.77l.02-.02c-.23.01-.46.01-.7.02-.86-.09-2.89-.05-3.64-.04-.59 0-.76-.04-1.45-.03-.06-.03-.31-.04-.35-.07-.68.05-.73-.04-1.63-.03-.19.1.41.1 1.07.1-.04.13-1.03.1201-1.85.1401-.18 0-.15.0299-.19.0499-.35-.05-1.44-.01-1.44-.1-.82.01-1.85.06-2.55.01-.46-.01-.58.03-.75.07-.37.02-.36-.05-.72-.05-.19 0-.35.04-.56.04-.47.02-.98-.03-1.28.02.14.07.59-.01.91 0 .04.11 1.04.1 1.23.19-.31.01-.34-.02-.35-.05-.46-.01-.45.0501-.74.0701-.55-.06-1.41-.0601-1.81-.0801.61-.11-.48-.09-.5-.19-.59-.01-.75.1401-1.1.0201-.43.01-.17.1199-.93.0899.07.05.51.04.34.12-.56.02-1.26-.02-1.66.06-.26-.02-.24-.08-.34-.12-.35.05-.86.01-1.27 0-.44.1-.99.04-2.02.04.29.15 2.03.01 2.72.08-.41.16-1.95.02-3.29.04-.13-.07-1.22-.02-1.06-.12-.8.02-1.19.1-1.83.02-.26.01-.45.04-.56.07-.12.11.75.11.68.21.82.01.54-.14 1.3-.14.25.05.68.07.7.14.47 0 .28-.09.75-.09.47.04 1.56.01 1.99.06-.11.08-1.2.0301-1.83.0401-.45.04-1.09.0399-1.48.0899-.84-.05-1.13.06-1.82-.03-.31 0-.47.02-.56.05-.72-.05-2.03-.07-3.09-.06-.07-.05.14-.06.2-.09-.63.01-1.12.04-1.48.09-.87-.01-1.64 0-2.02.06-.8.01-1.02-.04-1.82-.03-.12-.03-.81-.11-.89-.07-.26-.01.02-.02.01-.05-.48-.03-1.08.04-1.09 0-.48.01-.57.07-1.11.07-.39.09-1.22.05-1.48.11-.26 0-.52 0-.54-.03-.49.07-.7.04-1.29.07-.48 0-1.04 0-1.27-.03-.43.01-.64.06-.93.09-.37-.01-.35-.06-.52-.1-.86.05-2.46.15-3.47.03-.25.01-.35.05-.39.09-1.14-.01-1.36001.11-2.75001.06-.42.02-.67999.07-.75999.14-.82-.02-1.69.07-1.81-.05-.59-.07-.62.01-1.22 0-.02-.01-.07001-.02-.12001-.01l-1.00999.02-.02-1.05c0-.1-.02-.22-.04-.25.03-.39.08-.59.1-1.07-.03-.87-.17-1.6-.08-2.75-.01-.7-.06-1.09-.11-1.48.03-.43 0-.34.03-.91-.02-.69-.09-.97-.06-2.02-.03-.27-.02-.82-.09-.75 0-.56.05-.69.07-1.08.02-.81-.03-1.1-.02-1.83.04-.65.04-1.63.01-2.19.04-.51.12-.76.17-1.24.14-.27.25999.37.32999-.29.02-.58-.07999-.27-.06999-.74.04-.82.1-1.52.06-2.18.07-.58.05-1.99.13-2.52 0-.37 0-.73 0-1.1.01999-.01.06999-.58.02999-.54.02-.24.06-.35.1-.53-.02-.48-.10999-.51-.13999-.94.06-.8-.02-1.64.12-1.61 0-.57.02-1.33-.02-1.64-.07-.15-.12 1.21-.12-.03-.06.03-.07.52-.1.89-.05-.62-.02-.8-.07-1.47.06-.36.05-.45.07-.9-.01-.25-.06001-.16-.09001-.2.04-.62.09-1.69-.01999-2.01 0-.09 0-.16 0-.22l.01999-1.61 1.25001.91c.22.16.32999.24.54999.4.83.54 1.23001.73 1.67001 1.09.38.14 1.66999 1.05 1.64999.86.22.21.81.58.99.77.31.18.46.21.55.21.99001.64 2.16001 1.39 3.11001 1.92.51.32.39.34.7.56.71.4 1.49.84 2.25 1.27.13.11.27.23.41.34.4.26-.05-.19.53.23.07.13-.27-.1-.24-.01.55.37.64.35.7.3.5.25 1.58.99 1.78.99.44.35 1.09.65 1.35.91.18.11.16.05.2.05.28.17.85.62 1.08.69.22.14 0 .08.26.25.36.21-.16-.15.2.05.49.35 1.21.85 1.83 1.19.26.29 1.08.69 1.32.95.52.27 1.34.79 2.18 1.33.25.23.65.57.31.45-.27-.16-.28-.2-.27-.23-.44-.15-1.29-.66-2.05-1.22-.19-.06-.61-.32-.84-.42-.51-.32-.74-.51-1.37-.9-.79-.43-1.93-1.2-2.85-1.67-.28-.26-.87-.5-.89-.62-.47-.24-1.32-.81-1.74-1.02-.27-.17-.3-.23-.6-.41-.54-.36-.44-.18-.97-.53.01-.13-.59-.36-.92-.59l.05-.05c-.49-.27-.92-.58-1.37-.9-.82-.46-.69-.46-1.54-.97-.13-.12-.38-.29-.56-.44-.24-.16-.28-.15-.48-.28-.29-.23-.97-.64-1.01-.75-.32-.09-.95001-.44-1.52001-.74-.75-.5-.75-.49-1.4-.86-.13-.12-.38-.29-.57-.44-.33-.21-.49999-.3-.50999-.24-.31-.22-.40001-.32-.89001-.62-.29-.22-.24999-.11-.33999-.16-.34-.19-.81001-.55-.68001-.32-.14-.09-.15999-.13-.18999-.18l-.50001-.61-.37 1.09c-.02.06-.03999.14-.02999.45.07999.04-.01-.58.12-.34 0-.04 0-.08 0-.12l-.02-.86.74999.45c.42.25.88001.54 1.27001.84.17.1.14.03.34.16 1.09.72 1.80999 1.13 2.42999 1.6.15.08.26001.12.36001.14.43.25 1.19999.8 1.39999.86 1.19001.88 3.81001 2.39 5.38001 3.42.46.32.34.14.8.45.34.23.45.35.72.54.5.3 1.12.6 1.38.88.22.11.49.27.67.34.95.68 2.92 1.84 3.67 2.36.59.33 1.44.89 2.01 1.25.3.19.5.29.82.44.89.6 1.64 1.14 2.62 1.66.37.24.53.39.88.62.53.34 1.18.68 1.72 1.04.36.24.46.38.89.62.11.1.16.18.07.18.42.27.34.17.62.39.25.1.63.3 1.14.62.21.22 1.02.73.77.74.67.43 1.33.85 2 1.27.28.03 1.56.89 1.57.69.36.21.82.46 1.07.68.24.16.28.15.48.28.64.48 2.27 1.42 2.89 1.89.47.24 1.02.6 2.03 1.24 0 .04.27.19.44.31.05.09.27.26.38.38.36.26.69.35.77.49.4.34-.56-.28-.7-.31-.72-.49-1.28-.87-1.95-1.32-.38-.22-.48-.27-1.11-.65-.71-.43-1.11-.57-2.35-1.41-.27-.04.36.34.17.33-.74-.45-1.17-.65-1.64-.87-.26-.16-.52-.33-.77-.49-.68-.35-1.6-.91-2.13-1.13-.63-.48-1.64-.98-2.15-1.37-.04-.13.69.39.84.42-.05-.13-1.1-.71-1.54-.98-.06.02.07.14.41.35-.26-.03-1.15-.66-1.56-.96-1-.6-2.81-1.66-3.28-2-.17-.1-.14-.03-.34-.16-.6-.4-1.16-.7-1.38-.88-.54-.31-.86-.45-1.31-.7-.36-.38-1.45-.83-1.79-1.22-.38-.16-1.43-.88-1.76-1.01-.43-.4-1.34-.84-1.96-1.3-.37-.2-.71-.39-.99-.52-.43-.3-1.4-.83-2.05-1.22-.15-.08-.26-.12-.36-.14-.49-.3-.36-.31-.72-.54-.56-.38-.48-.24-.96-.55.34.16-.02-.04-.1-.15-.68-.39-1.46-.85-1.95-1.07-.73-.49-1.36-.79-1.84-1.17-.72-.44-.99001-.5-1.78001-.99.24.31 1.19.81 1.76 1.26.52001.34.87001.54 1.25001.77.34.26.27.31.87.64.09.01-.09-.11-.27-.23.38.21 2 1.32 2.63 1.64.25.15.25.19.44.31.36.2 1 .63 1.13.63.58.42.76.65 1.62 1.14-.03.06.48.36.89.62.62.35 1.12.64 1.76 1.01.5.37 1.32.89 1.95 1.32.63.38 1.29.79 1.74 1.02 1 .67 1.16.66 1.86 1.15.21.09.43.2.68.32.16.14.52.36.9.6.16.16.16.24.68.57.49.28-.11-.16.1-.1.54.29 1.56.98 2.32 1.45.73.41 1.98 1.13 2.66 1.61.45.25.69.39 1.13.63.48.28.42.32.91.6.94.51 2.71 1.71 3.47 2.06-.23-.24.24.05.43.08l.92.59-.07.07c-.09.01.42.3.41.34-.36-.23.01.08.28.23-.29-.13-.49-.18-1.01-.5.07.15-.44-.18-.56-.19-.26-.17-.41-.24-.5-.26-1.12-.78-2.95-1.66-4.03-2.51-.44-.29-.51-.26-.96-.55-.42-.37-1.09-.7-1.81-1.21-.61-.34-1.2-.68-2.05-1.22-.26-.17-.41-.24-.5-.26-.83-.6-1.48-.9-2.13-1.39-.67-.43-.89-.46-1.42-.84-.17-.1-.14-.03-.34-.16-1.08-.7-2.02-1.28-2.66-1.61-.68-.46-1.78-1.16-2.34-1.43-.64-.44-1.2-.83-2.12-1.4-.62-.38-1.04-.55-1.57-.94-.49-.27-1.37-.75-1.88-1.14-.46-.22-1.45-.89-1.91-1.1-.81-.53-.76-.5-1.52-1-.62-.35-1.54001-.93-2.07001-1.2-.32-.26-.38-.3-.77-.49-.26-.16-.25-.19-.45-.31-.38-.25-.5-.28-.8-.45-1.02-.66-1.35999-.88-2.28999-1.48-.26-.17-.41-.24-.5-.26-.16-.12-.88-.59-.92-.54-.32-.27-.4-.28-.74-.52l-.16-.1 2.22-1.22c.02.42.07.83.01 1.27.02.18.01.68.07.56-.02.27-.04001.45-.05001.72.06.42.00001 1.68.09001 1.84-.04.25-.02001.94-.10001.89-.01.32.02001.92-.04999.72.09 1.4 0 2.26.13 3.13-.05 1.1.05 1.42-.03 2.36.05 1.2.04 2.07.01 3.46.04 1.49.12 2.54.08 4.21-.02.49.04.38.04.74-.03.55-.02.7.02 1.1-.01.82-.04 1.08.02 1.64-.02.37.02 1.2-.03 1.27-.01.46.02999.58.06999.74-.03.21-.02999.64-.02999 1.09-.01.31.01999.35.04999.37-.03.26-.03.45 0 .73 0 .53-.05999.55-.04999 1.08-.01.98.02999.81.05999 1.65-.05.11-.01999.85-.06999.9.01.49.1.48.09 1.1l-1.77001-1.77h.01c.61.14 2.26-.02 3.45.06.4-.02.73-.04.75-.12.2.04 1.19-.01.89.1 1.16-.04 2.01001.01 3.28001.01.09.02.18.04.17.07.97 0 2.05.02 2.56-.04.59-.01.84.02 1.27.03 1.08-.01 1.09-.03 2 .03 1.77.02 2.99.0401 4.73.0201.44-.02.89-.0501 1.29-.0701.65.04 1.96.08 3.09.03.37.02 1.2-.02 1.27.03 1.25-.08 2.87.06 4.02-.03.63.04 2.07.04 2.54.03.57.01.49-.06.93-.07 1.49.03 2.55.07 4 .04.89.04 1.92.06 2.56-.04.95.01 1.6.13 2.36.03 1.09.1 2.49.04 3.64.01.27.05.74.08.88.14.6-.02.82-.1 1.13-.16.6-.02.8.02 1.29-.04.65.04 1.78.01 2.36.06.59-.03 1.45-.06 2.02-.09.42.06 1.17-.03 1.08.05.49.02.36-.05.56-.07.93.04 1.45-.06 1.83-.02.26 0 .34-.03.5-.05l-1.81 1.81c-.01-.06-.01-.14-.02-.25.02-.71.05-.67.03-1.45.1.18.05-.8.1-1.07-.02-.41-.01-.99-.07-1.11.05-.64.01-1.9.06-2.54-.02-1.22-.02-1.58.03-2.36 0-.61-.03-.97-.07-1.29.01-.43.03-.75.05-1.08-.07-1.01 0-1.96-.06-3.11.06-.89.07-1.17.17-1.78v-1.46c-.11-.04-.09.98-.19 1.05-.09-.21.02-1.12.03-1.63-.01-.89-.05-2.3.01-3.1.02-.75-.03-1.52.01-1.82 0-.54-.06-.63-.07-1.1.11-1.62-.01-3.99.12-5.81.01-.53-.05-.57-.04-1.1.03-.03.03-.32.03-.56l2.42 1.5c-.19.09-.35.16-.32.11-.88.49-2.29 1.12-2.96 1.39-.62.33-.8.36-1.31.66-.37.16-.89.42-1 .41-.31.16-.4.25-.81.45-.52.21-.98.39-1.82.81-.2.05-.65.26-.84.31-.2.11-.33.19-.31.23-.38.19-.49.19-.99.46-.53.31-.92.42-1.13.61-.42.19-.76.33-1 .41-.94.5-.94.38-1.65.73-.07-.04.63-.33.47-.33-.86.38-1.74.88-2.47 1.15-1.12.59-2.1 1-2.94 1.48-.08.01-.22.05-.5.19-.99.58-2.99 1.48-3.56 1.92-.58.27-.42.13-.99.45 0-.1-.69.25-1.01.36-.15-.01-.38.03-.7.13.43-.25.91-.64 1.44-.84.27-.19.97-.53 1.29-.73.93-.42 1.71-.8 2.61-1.3 1.4-.67 2.44-1.16 3.09-1.61.29-.14.97-.4 1.15-.56.31-.14.31-.08.83-.35.41-.2.38-.24.64-.39.38-.16.84-.39 1.16-.51.64-.37-.2.02.14-.2-.29.09-1.15.55-1.33.57-.04 0 .06-.05.16-.1.15-.08.13-.04.17-.04zm10.34-4.17c1.19-.46 2.19-.98 3.62-1.68.12-.06.27-.12.43-.19l-2.11-1.31c-.01.35-.02.74.01.98-.08.68-.06 2.13-.08 3.26.02.38.04.88.07 1.29-.03.97-.06 2.01-.15 2.52-.02.58.04.57 0 .91.06.03.09.28.09.75-.02 1.2-.05 2.6-.01 3.82.05-.6.11.26.16.22.02-1.01-.05-1.39-.09-2.03.07-.39-.03-1.03-.04-1.46.07.15.03-.62.12-.34.06-1.07.11-3.57-.01-4.38.11-.42.11-2.07.06-2.9.11-.43.08-1.56.08-2.53 0-.05 0-.09 0-.11l1.82 1.13c-.1.06-.08.08-.21.15-.94.37-1.86.87-2.97 1.37-.16.14-.48.33-.96.57-.81.31-2.03.99-2.8 1.29-.5.31-1.07.51-1.29.71 1.36-.68 2.88-1.33 4.26-2.04zm1.91 17.83c-.03.36 0 1.57.06 1.84-.04-.78.02-.69.03-1.09-.01-.31-.01-.79-.02-1.1 0-.37.04-.81-.04-.92-.06.47-.06.84-.03 1.27zm.08 2.21c-.04-.02-.06.13-.07.35.03.27.09.29.07-.35zm-.05-4.2c-.01.05.01.28.02.19.01-.05-.01-.29-.02-.19zm.07 11.68c.07.17.09-.14.12-.34-.01-1.18-.1-1.48-.04-2.74-.05-.28-.04-.99-.11-1.12-.05 1.45-.08 2.34-.01 3.64.02.64-.04.69-.03 1.27l.01.17 1.46-1.46c-.8.04-1.71.14-2.41.1-.05.04.2.05.16.1.6-.04 1.39-.05 2.2-.06.08-.04-.26-.06.01-.07l.03.01-1.39 1.39c.06-.16-.03-.47 0-.89zm.02-4.92c-.01-.7-.02-1.37-.09-1.66-.01.85.01 1.51.09 1.66zm-7.28-20.09c.05-.02.24-.13.16-.1-.05.01-.25.13-.16.1zm-1.32.61c.14-.16-.65.28-.99.43-.03.1.73-.26.99-.43zm5.19 23.96c-.73.06-1.25.04-2.02.06.04-.04-1.18-.05-.92.02.32.09 2.18-.04 1.99.05.55.02.54-.04 1.1-.02.14-.07.14-.04.02-.12.35-.02.6.07.73 0-.43-.01-.32-.08-.89-.07zm-23.23.39c.54-.03 1.17-.08 1.46.01-.01.05-.5.03-.39.09.96.07 2.31-.07 3.45.04-.32.07-1.17.07-1.84.09-.04.06.26.07.53.1-.01-.04.19-.06.56-.05-.23.07.27.06.34.1 1.01-.02 2.28.05 3.65-.01-.28-.01-.02-.04.19-.05.11.05.47.06.9.07.03-.03-.02-.07.2-.07.21.02.48.03.9.03.49-.06 1.17-.0399 2.38-.0399.35-.03.8-.0501 1.29-.0701.02.03-.05.0701.17.0701.05-.02.01-.0501.19-.0501.23.05.99-.02 1.46-.02 1.51 0 2.08.01 3.1-.04.04.05.8.01.9.05.68-.06 1.17-.01 1.83-.04.89.02 1.25-.04 1.63.03.27-.04.5-.09.58-.16.69-.04 1.46-.06 1.68-.16-.57-.02-.78-.07-1.45-.02.01-.02.15-.03.19-.05-1.12.01-1.68.01-2.55.01-.14.13-1.09.16-2.03.11-.35 0-.14.08-.56.07-1.08-.14-2.58.08-3.64-.04 0 .04-.15.06-.38.07-.57-.06-1.62.0701-2.37-.0099-.47.13-2.16-.0501-2.57.0599-.21-.07-.18-.18-.49-.24.97-.01 1.17-.01 2.37-.01.35.01.31.07.9.05.32-.03.03-.14.58-.14.18.09.53.1.51.17 1.16 0 1.92-.04 2.58-.11.04.03.39.03.54.05-.06-.09.59-.08.76-.14-.22-.05-.45-.1-.89-.12.16.09-.79.02-.93.07-.26-.05-1.19-.01-1.44-.05-.03.03-.07.06-.38.05-1.49-.01-2.48-.06-4.19.01-1.22-.05-1.88-.07-2.91-.01l.01-.05c-.54.02-.56.02-1.09 0-.06.07-.66.07-1.11.09-.35.02-.41-.05-.54-.05-.43-.01-.91.05-1.46-.01-.39.03-.73.06-1.12.09-1.07-.09-1.91 0-2.72-.08-.71.06-2.11.06-2.92.04-.62.08-1.12.08-2.2.06-1.06.06-2.1.08-3.47.03-.9-.01-.9.0201-1.64-.0099-.77.06-2.42-.0101-2.76.1099.58.02.62.09 1.27.05l-.02.07h.73c.78.11 1.71.09 2.7.15.03-.03-.01-.07.2-.07 1.01.01 2.12.07 2.91.03.18.02.04.09.53.07.52-.03 1.38-.02 1.84-.06.25.04.61.06 1.08.08.34 0 .14-.08.56-.07.02.03-.05.07.17.07-.02-.07.29-.08.56-.05-.31.02-.59.08-.02.09.03-.06.13-.11.4-.14.27.04.99-.01 1.26.08.13-.06.14-.0999.58-.1599-.63-.02-.81.0099-1.08-.0701-.06.03-.59.11-.74.04.11-.11 1.01-.02 1.28-.03zm17.55-.27h.54c.04-.04-.17-.06-.54-.05.01.02.01.04 0 .05zm9.63.13c-1.02-.02-1.52-.03-1.84.09.92-.02 1.62-.08 2.56-.04l.02-.09c-.49-.02-.37.04-.74.04zm-.25.26c-.01.05.01.2801.02.1901.01-.06-.01-.2901-.02-.1901zm-47.49-.29.01-.05c-1.09-.03-1.31001-.02-2.19001.02.17.09-.4.07-.57.12.35.05 1.04.02 1.46.01.98001.02 1.82001-.02 2.36001.01.15-.05 1.26.03 1.11-.07-.91 0-1.4-.04-2.18-.04zm2.91.03c.6.01.79.07 1.63.05.01-.06.58-.05.57-.12-1.07-.04-1.61 0-2.2.07zm-9.58-21.1c-.02-.58.03999-.55.04999-.9-.08-.98-.01999-1.86-.10999-2.76.07-.47.04999-1.63.09999-2.17-.03-.16-.04999-.47-.03999-.92.02-.89.04-1.9.06-2.68l-1.95001 1.08c.2.14.34.24.48.33.05 0 .20001.08.34001.16.86.57 1.55.87 2.17 1.35.21.06.85999.49 1.41999.84.09-.05-.12-.09-.44-.31-.08-.09-.29999-.24-.57999-.42-.76-.46-1.62-1.02-2.18-1.33-.33-.24-.73-.52-1.03-.74-.02-.01-.05001-.01-.09001-.03l1.66001-.92c.03.16.04.48.05.84-.01.35-.09.12-.07.71.09 1.08-.02 2.53.06 3.66-.08.61-.05 2.04-.03 2.54-.01.37-.07001.34-.07001.71.05.84-.02 1.58-.01 2.37.06.17-.02999 1.42.07001 1.29-.05-1.08.09-1.31.06-2.72.05 0 .04.32.08.02zm2.65999 21.0501c-.38.08-2.01999-.0201-2.02999.1099.83-.01 1.12999.05 1.99999.03.5-.03.48-.09 1.11-.04-.01-.08-.39-.1099-1.08-.0999zm2.79001-24.8601c-.34-.24-.36-.32-.7-.56-.05.06-.82001-.48-.85001-.4.66.43 1.10001.76 1.55001.96zm-5.71 24.9c-.37 0-.67001.01-.95001.02l1.07001 1.07c-.03-.84-.1-1.42-.04-2.52-.04-.28 0-1.04-.09-.93-.03.11-.01.7-.05.72.02.52-.02 1.15-.01 1.64.01.08.03.4.04.56 0 .17.01.35.01.54l-.93001-.95c.56-.01 1.13001-.03 1.30001-.1-.22-.01-.43-.01-.35-.05zm43.09-23.69c0 .05.14 0 .34-.09 0-.05-.14 0-.34.09zm-39.05001-2.3c-.46-.16-.74-.55 0 0zm-4 20.53c-.01.2-.02999.28-.04999.35.02.46.03.98.11.94.02-.69-.00001-1.14-.06001-1.29zm45.84001-19.56c.19-.1.46-.22.48-.26-.19.09-.46.22-.48.26zm-37.21 1.94c-.01.01.11.1.16.1 0-.01-.11-.1-.16-.1zm-.68 23.2c0-.02-.31-.03-.36 0 .03.03.19.02.36 0zm-7.98-11.24c.08.08.08999-.93.04999-1.26l-.06999-.01c-.06.93-.07001 2.53.03999 3.11.01-.71.01001-1.35-.01999-1.84zm.01999 8.57c.02.01.03-.31 0-.36 0 .2-.04.27 0 .36zm48.94001-24.08-.33.16.01.05.33-.16zm-48.91001 9.33c.01 0 .03-.14 0-.18-.01-.01-.03.14 0 .18zm.02001 1.1c0-.14-.00001-.36-.02001-.37 0 .14.00001.35.02001.37zm-.08 1.26c-.01.45.00999.76.03999.92.05-.27.01001-.77-.03999-.92zm.01-.92c.09.97-.13.68 0 0zm-.08 1.99c-.04.52.1.55.07.02zm24.11.31c-.01.01.11.1.15.1.01-.01-.11-.1-.15-.1zm31.06-11.54c.01-.35.05-.45.05-.9-.07-.09-.13.75-.05.9zm-52.36-2.11c-.03.01.02999.09.13999.11.02-.01-.02999-.08-.13999-.11zm-3.1 2.89c.08-.29.04-1.02.03-1.63-.09.13-.09001-.41-.12001-.75.01-.34.05001-.45.05001-.9-.06-.81.08-1.5-.02-2.01.06.3.11-.45.05-.54-.01.63-.05001.02-.09001-.35l-.76.42c.12.06.22001.1.22001.08.58999.36.73999.43 1.05999.7.01-.05.19.06.49.26.61.44.76.52 1.32.95-.27-.18-.37999-.21-.35999-.14.53.36.36999.25.89999.6.05.01.04-.03.19.06.9.62 1.44.87 2.22 1.3.06.09.18001.22.72001.54.43.16 1.32.71 1.83.94.33.3 1.89 1.28 2.17 1.35.68.5 1.97 1.27 2.08 1.18-.66-.5-.92-.56-1.66-1.11-.75-.46-1.57-.92-2.32-1.45-.23-.14-.29-.14-.5-.26-.04-.06-.16-.16-.43-.33-.56-.31-1.21001-.78-1.88001-1.14l.03-.04c-.74-.44-1.17-.82-1.69-1.07-.01-.05-.22-.21-.58-.43-1.14-.6-2.64999-1.57-3.70999-2.17l.46-.25v.11c-.09.6.02999 1.39-.03001 2.18.01.37.06001.37.07001.74-.07.49.02 1.27.02 1.83-.03.16-.01.67-.07.53-.01.45.03.57.04.92-.14.09.02999.68-.07001 1.08.1.26.08001 2.21.04001 2.93.07.46.12 1.02.14 1.85-.06 0-.05-.32-.09-.02.03.81.02 1.77-.03 2.37.08.4.18.69.23 1.33.05-.88 0-1.21-.02-2.01.01-.47.07-.54.08-1.08-.01-.25-.03-.35-.02-.73-.04 0-.06001-.15-.07001-.38-.01-.85-.09999-1.06-.10999-1.85.04-.49-.03-.86.05-1.09.06.25.07.42.14.22-.02-.91.06-1.96 0-2.74zm44.62 25.26c-.06-.1.39.01.92-.02 0-.07-1.14-.12-1.44-.08.37.01.02.11.52.1zm2.02-.06c-.04.06.26.07.53.1-.07-.07.68-.02.74-.07-.65-.01-.65-.07-1.27-.03zm-.92.04h.55c.03-.04-.17-.06-.54-.05zm-46.01-.15c.02-.49-.05001-.38-.04001-.74.1-1.13.08001-2.77.04001-4.18 0-.53.09-.38.08-1.08-.03-.11-.06-.3-.07-.56-.02-.56.03-.66.03-1.09-.06-.17-.09-.47-.07-1.11l-.12-.02c.03 1.86-.05 3.94.02 5.65-.11.76.02 1.06-.03 2 .06.57.02.79.06 1.44l-.21001-.21h.03c.44.05 1.39001.01 1.82001-.02-.19-.07-1.25001-.04-1.86001-.06l.29001.29c.02-.13.02-.24.03-.31zm41.44.21c.41.06.63-.02.92-.04-.32.01-.75 0-.92.04zm-19.81-17.26c.47.29 1.18.78 1.26.75-.45-.36-.58-.3-1.08-.68-.2-.12-.23-.11-.48-.28-.53-.31-1.63-1.1-1.72-1.04.34.31 1.67 1.1 2.02 1.25zm-8.03-5.05c-.45-.19-.28-.33 0 0zm.8.45c.12.07.3.19.32.18-.12-.07-.3-.19-.32-.18zm2.5 1.53c.21.14.27.21.6.41.29.11-.62-.47-.6-.41zm4.54 2.75c-.55-.41-1.02-.63-1.52-.99 0 .05-.21-.07-.22-.03.78.47 1.22.8 1.74 1.02zm35.03 2.41v-.36l-.05-.01v.36zm0-.54c0-.23.03-.24.03-.54-.04-.02-.06.13-.07.35.02 0 .02.15.04.19zm-25.45 4.13c-.32-.2-1.41-.88-.97-.53-.01-.05.9.61.97.53zm-15.08-9.55c.25.13.43.19.82.44.04-.09-.56-.49-1.14-.87-.03.08-.75-.42-.72-.29.63.37.41.34 1.04.72zm-3.23-2.05c.04.03.24.14.17.08-.04-.04-.24-.15-.17-.08zm.94.56c.04.03.24.14.17.08-.03-.03-.24-.13-.17-.08zm-1.52-.99c.17.11.22.18.31.2.02-.02-.25-.2-.31-.2zm7.79 4.78c-.62-.42-.63-.34-1.11-.65-.29-.18-.32-.23-.6-.41-.29-.12-1.02-.61-1.16-.6.97.56 1.89 1.14 2.61 1.66.31.15.4.18.26 0zm1.38.88c-.38-.24-.64-.4-.8-.45.29.2.23.23.73.52zm-22.22-12.72c-.06-.13-.09.85-.05.9.01-.35.07-.32.05-.9zm-.03 1.81c.05-.13.13-.08.14-.52-.01-.33-.02-.9-.14-.58zm9 1.79c.04.03.24.14.17.08-.04-.04-.24-.14-.17-.08z" fill="#1e1e1e"/></svg>