<svg xmlns="http://www.w3.org/2000/svg" viewBox="0 0 86 86" fill="none"><g clip-path="url(#clip0)"><path d="M84.6799 35.95C84.6999 35.9 84.6999 36.03 84.6899 36.05C84.6799 36.09 84.6699 35.97 84.6799 35.95Z" fill="#1E1E1E"/><path d="M85.03 28.33C85.05 28.34 85.04 28.45 85.04 28.52L85 28.81C84.95 28.81 85.02 28.47 85.03 28.33Z" fill="#1E1E1E"/><path d="M84.64 20.65C84.68 20.67 84.77 20.86 84.74 20.87C84.69 20.78 84.62 20.69 84.64 20.65Z" fill="#1E1E1E"/><path d="M79.18 17.83C79.18 17.93 78.5 17.85 78.42 17.78C77.93 17.77 77.87 17.74 77.48 17.67C77.7 17.63 77.92 17.67 78.14 17.73C78.43 17.75 78.97 17.74 79.18 17.83Z" fill="#1E1E1E"/><path d="M74.8299 17.53L74.4498 17.49C74.3998 17.39 74.8599 17.45 74.8299 17.53Z" fill="#1E1E1E"/><path d="M77.87 53.49C77.84 53.52 77.65 53.53 77.66 53.5C77.71 53.46 77.75 53.5 77.87 53.49Z" fill="#1E1E1E"/><path d="M79.3499 17.96L79.6299 17.99C79.6899 18.06 79.7899 18.13 79.8699 18.2C79.3899 18.17 79.3899 18.17 79.1299 18.08C79.3399 18.04 79.2399 18 79.3499 17.96Z" fill="#1E1E1E"/><path d="M80.5999 52.4L80.4299 52.52L80.3999 52.48L80.5699 52.36L80.5999 52.4Z" fill="#1E1E1E"/><path d="M80.2298 52.61C80.2398 52.63 80.1298 52.69 80.0598 52.74C80.0598 52.71 80.1698 52.65 80.2298 52.61Z" fill="#1E1E1E"/><path d="M78.0898 53.36V53.31C78.2898 53.24 78.2198 53.29 78.4998 53.25V53.3C78.2198 53.34 78.2898 53.37 78.0898 53.36Z" fill="#1E1E1E"/><path d="M78.6499 18.08C78.6999 18.05 78.7299 18.09 78.8399 18.1C78.8099 18.13 78.6499 18.11 78.6499 18.08Z" fill="#1E1E1E"/><path d="M83.3999 29.44C83.3299 29.83 83.2999 30.41 83.1399 30.44C83.1799 30.31 83.2099 30.06 83.2499 29.98C83.2599 29.78 83.1499 29.93 83.1499 29.77C83.2099 29.51 83.2899 29.37 83.3999 29.44Z" fill="#1E1E1E"/><path d="M82.9199 20.36C82.8899 20.32 82.9899 20.39 82.9999 20.41C83.0199 20.46 82.9299 20.38 82.9199 20.36Z" fill="#1E1E1E"/><path d="M83.0898 20.57C83.0698 20.53 83.1598 20.61 83.1698 20.63C83.1798 20.68 83.0998 20.6 83.0898 20.57Z" fill="#1E1E1E"/><path d="M83.3799 28.19C83.4399 27.93 83.5099 26.97 83.5599 26.59C83.6799 26.71 83.4799 27.36 83.5199 27.73C83.4799 27.95 83.4399 28.17 83.3799 28.19Z" fill="#1E1E1E"/><path d="M83.55 25.91C83.58 25.37 83.72 25.39 83.7 24.88C83.79 25.08 83.67 25.79 83.55 25.91Z" fill="#1E1E1E"/><path d="M83.34 28.27C83.28 28.29 83.3 28.06 83.31 27.88C83.34 27.97 83.37 28.04 83.34 28.27Z" fill="#1E1E1E"/><path d="M83.75 23.02C83.76 22.98 83.78 23.09 83.77 23.11C83.76 23.15 83.75 23.04 83.75 23.02Z" fill="#1E1E1E"/><path d="M83.3399 27.6C83.3599 27.61 83.3499 27.72 83.3399 27.79C83.3199 27.79 83.3399 27.68 83.3399 27.6Z" fill="#1E1E1E"/><path d="M82.9499 30.89C82.9099 30.58 83.0199 30.1 82.9299 29.83C82.9399 29.62 83.0999 29.33 82.9799 29.26C83.0099 29.04 83.0799 29.1 83.0899 28.8C83.1999 28.89 83.0599 29.67 83.1299 29.87C83.0999 30.36 83.0199 30.54 82.9499 30.89Z" fill="#1E1E1E"/><path d="M83.4898 21.75C83.2498 21.37 83.3198 21.21 83.4898 21.75V21.75Z" fill="#1E1E1E"/><path d="M80.9298 19.33C81.0298 19.37 81.0898 19.42 81.0698 19.45C80.8898 19.39 80.9198 19.37 80.9298 19.33Z" fill="#1E1E1E"/><path d="M83.2098 27.96C83.1498 27.82 83.2098 27.35 83.2298 27C83.2798 27.01 83.2798 26.75 83.3398 26.83C83.3698 26.89 83.3098 27.19 83.3498 27.22C83.2398 27.51 83.2598 27.66 83.2098 27.96Z" fill="#1E1E1E"/><path d="M82.8699 20.71C83.0699 20.85 82.8899 20.94 82.8699 20.71V20.71Z" fill="#1E1E1E"/><path d="M83.4899 25.52L83.3999 25.5L83.4799 24.65C83.5099 24.86 83.4999 25.19 83.4899 25.52Z" fill="#1E1E1E"/><path d="M83.5699 22.42C83.6299 22.75 83.5699 22.84 83.5799 23.17C83.4999 23.12 83.5999 22.81 83.4999 22.75C83.4799 22.45 83.4999 22.54 83.4299 22.18C83.4899 22.15 83.5199 22.5 83.5699 22.42Z" fill="#1E1E1E"/><path d="M83.6 23.34C83.58 23.49 83.52 23.49 83.51 23.79C83.38 23.73 83.53 23.31 83.6 23.34Z" fill="#1E1E1E"/><path d="M83.49 23.98C83.51 23.93 83.51 24.05 83.5 24.08C83.49 24.13 83.48 24.01 83.49 23.98Z" fill="#1E1E1E"/><path d="M49.0299 16.78C48.9799 16.76 49.0999 16.76 49.1299 16.77C49.1799 16.78 49.0599 16.79 49.0299 16.78Z" fill="#1E1E1E"/><path d="M49.0298 16.8C49.0398 16.85 48.9398 16.87 48.7298 16.84C48.4298 16.84 48.2598 16.99 47.8598 16.88C47.8098 16.81 48.0698 16.85 48.1598 16.84C47.9398 16.76 48.3098 16.81 48.2798 16.73C48.6698 16.78 48.7298 16.74 49.0298 16.8Z" fill="#1E1E1E"/><path d="M45.7799 17.66C45.7299 17.64 45.8499 17.64 45.8799 17.65C45.9299 17.66 45.7999 17.67 45.7799 17.66Z" fill="#1E1E1E"/><path d="M80.9299 52.13C81.0799 51.82 81.4899 51.42 81.8199 50.81C82.0999 50.23 82.2599 49.46 82.2299 48.99C82.2899 48.61 82.3399 48.21 82.3299 47.95C82.3399 47.73 82.4099 47.86 82.4299 47.68C82.4599 47.38 82.4899 47.11 82.4499 47.01C82.4999 46.77 82.5499 46.39 82.4999 46.25C82.5499 46.05 82.5999 45.81 82.6299 45.41C82.6999 45.06 82.6899 44.96 82.7499 44.66C82.7499 44.52 82.7399 44.41 82.7399 44.27C82.8399 43.59 82.8199 43.38 82.9099 42.48C82.8999 42.29 82.8799 42.14 82.8599 41.99C82.7599 42.1 82.6999 43.06 82.7799 43.13C82.6899 43.28 82.6899 44.05 82.5899 44.15C82.5499 44.48 82.6499 44.4 82.6099 44.73C82.4999 44.83 82.4799 45.39 82.4399 45.56C82.4099 46.27 82.3699 46.57 82.3799 47.18C82.3599 47.42 82.3199 47.47 82.2699 47.54C82.2499 47.7 82.2599 47.79 82.2899 47.83C82.1599 48.28 82.2099 48.51 82.1599 49.15C82.1199 49.37 82.0599 49.69 81.9799 49.72C81.9499 50.02 81.7999 50.42 81.6399 50.66C81.4599 51.19 80.8199 51.78 80.5699 52.11C80.2599 52.25 79.8599 52.65 79.4499 52.74C79.2799 52.83 79.2299 52.88 78.9999 52.97C78.6499 53.05 78.0399 53.18 77.7299 53.13C76.3599 53.13 74.8499 52.74 74.0299 52.76C73.7799 52.66 73.7499 52.54 73.2299 52.47C73.2199 52.34 72.9299 52.25 72.7299 52.14C72.6799 52 73.1699 52.08 73.1599 51.96C74.2199 51.97 74.9499 52.13 76.2799 52.23C76.6899 52.28 76.8599 52.36 77.2999 52.41C77.5899 52.42 77.7499 52.37 77.9599 52.32C78.2599 52.28 78.3499 52.34 78.6099 52.28C78.7799 52.25 78.8199 52.2 78.9199 52.16C79.2299 52.09 79.5699 51.96 79.9399 51.62C80.6499 51.1 80.8799 50.62 81.2199 49.91C81.3199 49.7 81.2299 49.73 81.2699 49.57C81.3199 49.32 81.3499 49.28 81.3799 49.08C81.4299 48.83 81.3699 48.83 81.3999 48.61C81.4999 48.35 81.4999 47.74 81.4899 47.38C81.5899 47.16 81.5399 46.7 81.6299 46.64C81.6499 46.48 81.6399 46.39 81.6099 46.35C81.6999 46.11 81.6499 45.59 81.7199 45.41C81.7299 45.23 81.6899 45.16 81.7199 44.93C81.7399 44.69 81.7799 44.64 81.8099 44.47C81.8099 44.25 81.9199 43.74 81.8299 43.8C81.8999 43.68 81.9999 42.9 81.9299 42.76C82.0399 41.29 82.1799 40.26 82.2499 39.17C82.2199 39.07 82.2299 38.87 82.2199 38.69C82.2399 38.32 82.3199 38.31 82.3499 38.04C82.3599 37.74 82.2899 37.3 82.4199 37.09C82.4499 36.84 82.4199 36.77 82.3499 36.79C82.4499 36.24 82.5399 35.63 82.6399 35.02C82.6399 34.85 82.6699 34.63 82.6399 34.54C82.7799 33.76 82.7199 33.06 82.7499 32.35C82.8199 31.86 82.8799 31.46 82.9499 30.95C83.1199 31.16 82.7899 32.35 82.9899 32.5C83.1099 32.19 83.0299 32.02 83.0799 31.56C83.2299 31.49 83.1499 32.07 83.2699 32.08C83.1499 32.55 83.0799 32.91 83.0699 33.48L82.9299 33.45C82.9299 33.06 83.0099 33.16 83.0299 32.89C82.9999 32.62 82.9099 33.19 82.8999 33.53C82.8999 33.61 82.9499 33.83 82.9599 33.64C83.0099 33.65 82.9299 33.9 82.8999 33.82C82.8699 34.14 82.9499 34.12 82.8599 34.29C82.8599 34.49 82.8699 34.62 82.9199 34.69C82.8799 35.02 82.8199 34.97 82.8099 35.15C82.8199 35.39 82.8499 35.53 82.9099 35.65C82.9099 36.11 82.9099 36.19 82.9099 36.61L82.8599 36.6C82.9199 36.91 82.7499 37.37 82.7299 38.01C82.6799 37.96 82.6599 38.06 82.6299 38.09C82.6399 38.44 82.7199 38.97 82.5799 39.33C82.5599 39.69 82.6099 39.85 82.5899 40.2C82.5499 40.39 82.5399 40.76 82.4499 40.65C82.4799 40.94 82.3899 41.56 82.4999 41.62C82.5899 41.39 82.5499 41.1 82.5699 40.87C82.5899 40.7 82.6199 40.67 82.6299 40.5C82.6499 40.15 82.6199 39.77 82.7099 39.17C82.7299 38.87 82.7999 38.93 82.8199 38.71C82.8999 38.06 82.8799 37.66 82.8599 37.28C82.8699 37.06 82.9199 37.07 82.9399 36.91C82.9599 36.8 82.9499 36.57 82.9599 36.43C82.9799 36.17 83.0099 35.99 83.0699 35.78C83.2299 33.97 83.3199 32.59 83.4899 31.16C83.5099 30.92 83.5199 30.71 83.4999 30.58C83.6499 29.69 83.6599 28.68 83.7699 28.04C83.7799 27.78 83.7899 27.54 83.7899 27.28C83.9199 26.84 83.9699 25.79 83.9899 25.4C84.0099 25.1 84.0699 25.01 84.0799 24.65C84.1099 24.62 84.1299 24.49 84.1699 24.48C84.1499 24.12 84.2499 24.11 84.2699 23.64C84.1799 23.53 84.1499 23.85 84.1199 24.19C83.9899 24.16 84.0599 23.64 84.0599 23.22C84.0599 23.13 84.0299 23.14 84.0199 23.12C84.0799 22.94 83.9799 22.39 84.0599 22.38C83.9799 21.96 83.7699 21.47 83.6299 21.14C83.5299 20.93 83.4499 20.9 83.3799 20.84C83.2599 20.69 83.3199 20.66 83.2099 20.51C83.1499 20.43 83.0699 20.39 82.9899 20.32C82.8199 20.15 82.6599 19.94 82.5099 19.88C82.5199 19.98 82.7499 20.06 82.8499 20.2C82.7999 20.29 83.1199 20.66 83.0899 20.79C82.9899 20.67 83.0099 20.65 83.0199 20.62C82.8899 20.44 82.8399 20.49 82.7299 20.39C82.5999 20.15 82.2599 19.89 82.1199 19.76C82.4299 19.84 81.9799 19.55 82.0099 19.47C81.7599 19.3 81.6099 19.42 81.4999 19.23C81.2899 19.16 81.3799 19.31 81.0299 19.16C81.0499 19.21 81.2599 19.29 81.1499 19.33C80.8899 19.26 80.5599 19.15 80.3599 19.21C80.2399 19.17 80.2499 19.12 80.2099 19.07C80.0199 19.1 79.7599 19.04 79.5499 19.01C79.2799 19.1 78.9999 19.01 78.4699 18.97C78.6099 19.13 79.5199 19.07 79.8699 19.17C79.6499 19.31 78.8599 19.1 78.1599 19.05C78.0999 18.98 77.5299 18.97 77.6199 18.88C77.1999 18.87 76.9999 18.93 76.6699 18.82C76.5299 18.82 76.4299 18.83 76.3699 18.86C76.2999 18.97 76.7599 19 76.7099 19.11C77.1399 19.15 76.9999 19 77.3999 19.03C77.5299 19.09 77.7499 19.13 77.7499 19.21C77.9899 19.23 77.8999 19.13 78.1499 19.15C78.3899 19.21 78.9599 19.23 79.1799 19.3C79.1199 19.38 78.5599 19.28 78.2299 19.26C77.9899 19.27 77.6599 19.25 77.4599 19.28C77.0299 19.2 76.8699 19.29 76.5199 19.17C76.3599 19.15 76.2699 19.16 76.2299 19.19C75.8599 19.1 75.1799 19.03 74.6399 18.99C74.6099 18.94 74.7199 18.93 74.7499 18.91C74.4199 18.89 74.1599 18.9 73.9799 18.93C73.5299 18.88 73.1299 18.86 72.9299 18.9C72.5099 18.88 72.4099 18.81 71.9899 18.79C71.9299 18.75 71.5799 18.64 71.5299 18.68C71.3899 18.66 71.5399 18.66 71.5399 18.63C71.2999 18.58 70.9799 18.62 70.9799 18.58C70.7299 18.57 70.6799 18.62 70.3999 18.6C70.1899 18.67 69.7599 18.59 69.6199 18.64C69.4899 18.63 69.3499 18.62 69.3399 18.59C69.0799 18.63 68.9699 18.6 68.6699 18.6C68.3999 18.56 68.1099 18.54 67.9999 18.49C67.7799 18.49 67.6599 18.52 67.5099 18.54C67.3199 18.52 67.3399 18.46 67.2499 18.42C66.7999 18.43 65.9599 18.45 65.4499 18.3C65.3199 18.3 65.2599 18.33 65.2399 18.38C64.6499 18.32 64.5299 18.42 63.8099 18.32C63.5899 18.32 63.4499 18.36 63.3999 18.42C62.9799 18.36 62.5199 18.42 62.4699 18.28C62.1299 18.24 62.1099 18.32 61.7999 18.29C61.7699 18.25 61.6299 18.27 61.6099 18.3C61.4099 18.25 61.3099 18.19 61.0599 18.15C60.6099 18.14 60.2199 18.24 59.6299 18.11C59.2699 18.09 59.0599 18.12 58.8499 18.15C58.6299 18.1 58.6699 18.14 58.3799 18.08C58.0199 18.07 57.8699 18.13 57.3299 18.05C57.1899 18.06 56.9099 18.03 56.9299 18.11C56.6399 18.08 56.5699 18.03 56.3799 17.99C55.9599 17.93 55.8099 17.97 55.4299 17.92C55.0999 17.85 54.5899 17.8 54.2999 17.81C54.0399 17.74 53.9199 17.65 53.6699 17.58C53.5399 17.43 53.8899 17.34 53.5499 17.24C53.2499 17.19 53.3999 17.3 53.1599 17.27C52.7399 17.19 52.3799 17.1 52.0399 17.12C51.7499 17.02 51.0199 16.98 50.7499 16.88L50.1799 16.83C50.1699 16.81 49.8899 16.73 49.8999 16.78C49.7799 16.74 49.7199 16.7 49.6299 16.66C49.3799 16.66 49.3499 16.74 49.1299 16.75C48.7199 16.65 48.2799 16.69 48.3099 16.55C48.0099 16.53 47.6199 16.47 47.4599 16.49C47.3799 16.55 48.0699 16.66 47.4399 16.61C47.4499 16.68 47.6999 16.71 47.8899 16.75C47.5599 16.77 47.4699 16.73 47.1199 16.75C46.9399 16.67 46.8899 16.68 46.6599 16.64C46.5299 16.64 46.5699 16.69 46.5499 16.72C46.2299 16.65 45.6799 16.55 45.5099 16.64C45.2799 16.62 45.2299 16.58 45.0499 16.55C44.5399 16.49 44.3099 16.53 44.0199 16.43C43.8099 16.49 42.9999 16.34 43.0399 16.5C42.8899 16.43 42.5299 16.39 42.3999 16.32C42.2099 16.32 42.1399 16.36 42.0899 16.41C41.8099 16.38 41.4099 16.33 41.1699 16.33C40.9099 16.32 40.6599 16.36 40.4499 16.42C40.2099 16.46 40.2299 16.4 40.0699 16.41C39.7699 16.56 39.4499 16.75 39.1799 16.98L38.9699 17.05C38.8099 17.16 39.0899 17.11 38.8599 17.27C38.7799 17.26 38.8999 17.15 38.8399 17.12C38.6299 17.29 38.6499 17.36 38.6999 17.41C38.5799 17.6 38.2499 18 38.3099 18.11C38.1399 18.27 38.1299 18.56 38.0099 18.67C37.9799 18.75 38.0299 18.74 38.0499 18.76C38.0199 18.88 37.8899 19.14 37.9499 19.24C37.9299 19.34 37.8799 19.25 37.8599 19.36C37.8499 19.56 37.9099 19.25 37.9199 19.46C37.8599 19.77 37.7899 20.22 37.7999 20.59C37.6799 20.78 37.7399 21.25 37.6299 21.42C37.6499 21.73 37.6099 22.23 37.5599 22.75C37.4799 22.93 37.3999 23.19 37.3299 23C37.3399 22.84 37.3599 22.83 37.3899 22.82C37.2999 22.58 37.3199 22.06 37.4199 21.58C37.3799 21.48 37.3999 21.22 37.3699 21.09C37.3999 20.78 37.4499 20.63 37.4599 20.25C37.4499 20.01 37.4699 19.72 37.4799 19.42C37.4999 19.15 37.5299 18.9 37.5499 18.67C37.6699 18.53 37.6599 18.23 37.7599 18.24C37.8099 18.01 38.0699 17.64 38.1599 17.44C38.2399 17.32 38.2899 17.33 38.3899 17.21C38.6199 17.02 38.4999 17 38.7199 16.82C38.8199 16.9 38.9599 16.62 39.1199 16.54L39.1499 16.6C39.3399 16.44 39.5699 16.36 39.8099 16.31C40.1899 16.12 40.1599 16.19 40.5799 16.1C40.6799 16.11 40.7899 16.13 40.8999 16.15C41.0299 16.15 41.0399 16.13 41.1399 16.13C41.2799 16.17 41.6999 16.19 41.7399 16.27C41.9099 16.19 42.2899 16.18 42.6299 16.16C43.0999 16.22 43.0899 16.21 43.4799 16.22C43.5699 16.26 43.7199 16.29 43.8399 16.33C44.0399 16.35 44.1399 16.34 44.1399 16.29C44.3399 16.32 44.3999 16.37 44.6999 16.39C44.8899 16.43 44.8399 16.36 44.8999 16.36C45.0999 16.36 45.3999 16.44 45.2999 16.3C45.4799 16.33 45.3599 16.4 45.6599 16.41C45.6899 16.33 45.3599 16.4 45.4999 16.28C45.2299 16.27 44.9199 16.25 44.6599 16.18C44.5599 16.18 44.5899 16.22 44.4599 16.21C43.7899 16.12 43.3499 16.12 42.9599 16.02C42.8699 16.03 42.8099 16.05 42.7599 16.07C42.4899 16.05 41.9999 15.96 41.8899 16C41.4899 15.91 40.9699 15.85 40.4399 15.96C39.8999 16.06 39.3899 16.3 39.0299 16.52C38.7999 16.64 38.9299 16.67 38.7099 16.8C38.5599 16.91 38.4799 16.93 38.3499 17.02C38.1699 17.23 38.0399 17.51 37.8699 17.61C37.8299 17.72 37.7699 17.85 37.7499 17.94C37.6099 18.16 37.4399 18.53 37.3699 18.9C37.2999 19.25 37.2899 19.68 37.2499 19.92C37.2599 20.27 37.1999 20.8 37.1699 21.15C37.1599 21.33 37.1599 21.45 37.1999 21.64C37.1299 22.19 37.0299 22.67 37.0599 23.24C37.0499 23.47 36.9999 23.58 36.9699 23.79C36.9399 24.12 36.9699 24.5 36.9299 24.84C36.9099 25.07 36.8299 25.14 36.8399 25.4C36.8099 25.47 36.7699 25.51 36.7199 25.47C36.6999 25.73 36.7399 25.67 36.6899 25.85C36.7299 25.99 36.7499 26.21 36.7299 26.53C36.6399 26.68 36.5999 27.17 36.4699 27.05C36.4299 27.46 36.3999 27.87 36.3599 28.28C36.4799 28.42 36.3699 29.22 36.5399 29.18C36.5299 29.4 36.5499 29.67 36.4799 29.84C36.4599 29.99 36.4899 30.01 36.4799 30.13C36.3899 30.54 36.3799 31.52 36.2799 31.91C36.3099 32.19 36.2699 32.52 36.2199 33.15C36.1899 33.16 36.1899 33.32 36.1699 33.43C36.1199 33.48 36.0799 33.61 36.0299 33.69C35.9799 33.92 36.0699 34.09 35.9899 34.16C35.8999 34.42 35.9599 33.83 35.9099 33.76C35.9599 33.31 36.0299 32.96 36.0899 32.55C36.0899 32.32 36.0799 32.26 36.0999 31.88C36.1199 31.45 36.0399 31.23 36.1499 30.45C36.0499 30.31 36.0399 30.69 35.9499 30.6C35.9699 30.15 35.9299 29.9 35.8899 29.63L35.9299 29.16C35.8999 28.76 35.9199 28.2 35.8499 27.9C35.9499 27.5 35.8799 26.91 35.9599 26.58C36.0499 26.53 35.9699 26.99 36.0099 27.07C36.0999 27.02 36.0799 26.39 36.0899 26.13C36.0399 26.1 36.0099 26.19 35.9999 26.4C35.8999 26.27 35.9899 25.71 36.0599 25.45C36.0799 24.85 36.0899 23.75 36.1599 23.46C36.1599 23.36 36.1199 23.39 36.1299 23.26C36.1799 22.89 36.1499 22.56 36.1999 22.41C36.2099 22.09 36.1599 21.9 36.1499 21.63C36.2999 21.38 36.1499 20.76 36.3199 20.51C36.2699 20.29 36.3699 19.64 36.3099 19.45C36.4299 19.17 36.4099 18.54 36.6299 18.15C36.6799 17.91 36.7599 17.7 36.7999 17.52C36.9599 17.26 37.2499 16.67 37.5599 16.34C37.6099 16.25 37.6499 16.19 37.6699 16.13C37.9199 15.89 37.9199 15.98 38.1199 15.84C38.4499 15.62 38.3499 15.61 38.6399 15.44C38.4799 15.6 38.6699 15.45 38.7599 15.45C39.1499 15.19 39.6499 15 39.9499 14.86C40.4699 14.78 40.8899 14.66 41.2599 14.75C41.7699 14.76 41.8599 14.69 42.3499 14.72C42.1399 14.57 41.6699 14.6 41.1799 14.51C40.7799 14.49 40.5299 14.53 40.2599 14.59C39.9899 14.6 39.9899 14.5 39.5799 14.67C39.5399 14.72 39.6699 14.69 39.8099 14.66C39.6799 14.7 39.3099 14.8 38.9399 14.95C38.5699 15.11 38.2099 15.33 38.0399 15.49C37.8899 15.61 37.8699 15.59 37.7499 15.68C37.5699 15.86 37.1999 16.19 37.2099 16.29C36.8799 16.6 36.6899 16.68 36.4099 17.26C36.3599 17.24 36.1799 17.58 36.0799 17.88C35.9399 18.32 35.9099 18.69 35.8699 19.16C35.7899 19.51 35.7499 19.99 35.6899 20.39C35.6699 20.77 35.6499 21.17 35.6699 21.44C35.5899 22.06 35.6799 22.13 35.5999 22.58C35.6299 22.7 35.6399 22.83 35.6599 22.98C35.6199 23.09 35.6099 23.31 35.5899 23.54C35.5299 23.65 35.4599 23.67 35.4299 23.99C35.4299 24.28 35.5199 23.9 35.5699 24.02C35.5899 24.34 35.4999 24.98 35.4699 25.44C35.4699 25.88 35.4799 26.63 35.3999 27.06C35.3899 27.33 35.4199 27.47 35.4099 27.73C35.3999 28.02 35.3499 28 35.3399 28.29C35.3699 28.85 35.2099 29.95 35.2799 30.39C35.3799 30.23 35.3599 30.52 35.4299 30.61L35.3799 31.18L35.2899 31.16C35.2399 31.12 35.2399 31.43 35.1999 31.43C35.2199 31.21 35.1299 31.45 35.1399 31.61C35.1099 31.44 35.0499 31.33 35.0699 31.02C34.9699 31.08 35.0099 30.77 34.9499 30.71C34.9599 30.55 34.9499 30.46 34.9299 30.42C35.0499 29.72 34.8999 28.65 35.0899 27.96C35.1199 27.69 35.0599 27.66 35.0899 27.38C35.1999 27.1 35.1499 26.71 35.2299 26.26C35.2299 25.9 35.2199 25.54 35.2699 25.02C35.2799 24.86 35.2699 24.77 35.2499 24.73C35.3599 24.21 35.2999 23.83 35.3899 23.41C35.4299 23 35.3399 22.89 35.4199 22.55C35.4199 22.45 35.3799 22.48 35.3899 22.35C35.4599 21.68 35.4899 21.11 35.4599 20.73C35.5199 20.31 35.5799 19.63 35.5299 19.3C35.6099 18.83 35.6999 18.34 35.9599 17.67C36.1399 17.22 36.2099 16.91 36.4999 16.57C36.6799 16.24 37.0899 15.68 37.4599 15.45C37.6799 15.18 38.3799 14.75 38.6799 14.57C39.2999 14.32 39.2599 14.34 39.8699 14.2C40.3399 14.05 41.0999 14.03 41.5099 14.01C41.7299 14.08 41.7599 14.08 41.9899 14.05C42.1499 14.06 42.1499 14.09 42.2699 14.1C42.4999 14.13 42.5699 14.09 42.7499 14.1C43.3799 14.17 43.5899 14.19 44.1599 14.26C44.3199 14.28 44.4099 14.27 44.4499 14.24C44.5599 14.28 45.0099 14.33 45.0199 14.27C45.2299 14.34 45.2699 14.32 45.4799 14.36C45.7399 14.37 45.9799 14.32 46.2399 14.41C46.3299 14.39 46.5899 14.44 46.5399 14.37C46.6699 14.4 46.7799 14.42 46.9099 14.45C47.1299 14.41 47.7799 14.53 47.8699 14.45C47.9999 14.5 48.3599 14.51 48.3199 14.59C48.4999 14.6 48.8099 14.6 48.6999 14.66C49.4299 14.64 49.8699 14.77 50.3299 14.67C50.8899 14.77 51.0699 14.68 51.5499 14.81C52.1799 14.81 52.6299 14.87 53.3499 14.96C54.1299 14.99 54.6799 14.95 55.5399 15.07C55.7899 15.11 55.7399 15.04 55.9299 15.06C56.2099 15.12 56.2899 15.11 56.4999 15.09C56.9299 15.14 57.0599 15.18 57.3499 15.15C57.5399 15.18 57.9799 15.18 57.9999 15.24C58.2399 15.27 58.2999 15.23 58.3899 15.21C58.4999 15.25 58.7199 15.27 58.9499 15.29C59.1099 15.31 59.1299 15.29 59.1499 15.26C59.2799 15.3 59.3799 15.31 59.5299 15.3C59.8099 15.32 59.8099 15.38 60.0899 15.4C60.5899 15.45 60.5099 15.41 60.9499 15.41C60.9999 15.45 61.3799 15.46 61.3999 15.51C61.6599 15.52 61.6499 15.43 61.9799 15.47C62.2899 15.64 63.1499 15.55 63.7599 15.69C63.9699 15.69 64.1399 15.68 64.1599 15.61C64.2599 15.66 64.7799 15.66 64.6099 15.75C65.2199 15.77 65.6499 15.85 66.3099 15.91C66.3599 15.93 66.3999 15.96 66.3899 15.99C66.8899 16.04 67.4499 16.11 67.7199 16.07C68.0299 16.09 68.1599 16.13 68.3799 16.16C68.9399 16.2 68.9499 16.18 69.4099 16.28C70.3299 16.38 70.9499 16.45 71.8599 16.51C72.0899 16.51 72.3199 16.51 72.5299 16.5C72.8599 16.57 73.5399 16.67 74.1299 16.68C74.3199 16.71 74.7499 16.71 74.7799 16.77C75.4399 16.75 76.2599 16.96 76.8599 16.92C77.1799 16.99 77.9299 17.05 78.1699 17.07C78.4599 17.11 78.4299 17.03 78.6599 17.04C79.0399 17.09 79.3799 17.13 79.6999 17.18C80.0799 17.22 80.4399 17.26 80.8699 17.3C81.4999 17.45 82.1699 17.74 82.6199 17.87C83.2299 18.21 83.4999 18.61 83.9699 18.91C84.4599 19.52 85.0499 20.32 85.3499 21.11C85.3799 21.31 85.4299 21.64 85.3899 21.75C85.4999 22.16 85.5999 22.3 85.6799 22.51C85.7399 22.94 85.6999 23.09 85.7399 23.44C85.6799 23.88 85.6499 24.39 85.5799 24.71C85.5999 25.01 85.5599 25.47 85.5699 25.76C85.4899 25.97 85.5499 26.37 85.4699 26.32C85.4299 26.57 85.4999 26.51 85.5099 26.62C85.4299 27.1 85.4999 27.37 85.4399 27.57C85.4299 27.76 85.4899 27.77 85.4699 27.96C85.4099 28.33 85.3899 28.3 85.3699 28.71C85.2799 28.61 85.2799 29.12 85.2199 29.26C85.2199 29.47 85.1799 29.77 85.2399 29.84C85.1699 30.17 85.1399 30.82 85.0699 31.15C85.0299 31.78 85.0199 31.97 84.9299 32.37C84.8999 32.69 84.9099 32.88 84.9399 33.04C84.9099 33.26 84.8799 33.42 84.8399 33.6C84.8699 34.13 84.7499 34.61 84.7599 35.22C84.6599 35.67 84.6399 35.82 84.5099 36.13L84.4399 36.88C84.5499 36.91 84.5799 36.38 84.6799 36.35C84.7599 36.46 84.6099 36.93 84.5799 37.19C84.5499 37.65 84.5199 38.39 84.4299 38.79C84.3699 39.18 84.3899 39.58 84.3399 39.73C84.3099 40.01 84.3699 40.06 84.3599 40.31C84.1799 41.14 84.1899 42.38 83.9799 43.31C83.9499 43.58 83.9999 43.61 83.9699 43.88C83.9099 43.91 83.9199 44.4 83.8599 44.34C83.8699 44.86 83.7399 45.66 83.6499 46.03C83.6399 46.4 83.5899 46.48 83.5999 46.79C83.5599 47 83.5399 47.3 83.4799 47.34C83.4699 47.52 83.5099 47.59 83.4799 47.82C83.4199 48.11 83.3499 48.35 83.3099 48.84C83.2499 48.95 83.2299 49.17 83.1599 49.32C83.1499 49.47 83.1499 49.58 83.1899 49.59C83.1499 49.89 83.0799 49.94 82.9999 50.32C82.9099 50.74 82.7399 50.97 82.7199 51.17C82.5799 51.46 82.4099 51.66 82.2899 51.79C81.8899 52.41 81.8199 52.31 81.4499 52.7C81.3899 52.68 81.7699 52.34 81.6399 52.36C81.1999 52.8 80.6999 53.27 80.1999 53.45C79.4799 53.9 78.7599 54.01 78.1399 54.15C78.0899 54.12 77.9899 54.11 77.7799 54.12C77.5999 54.16 77.3499 54.15 77.0899 54.15C76.8899 54.13 76.6799 54.11 76.4699 54.1C76.0599 54.06 75.6899 54.04 75.4999 54.08C75.1699 54.03 75.2799 53.99 74.9399 53.99C74.9799 53.9 74.5699 53.87 74.3999 53.8C74.3399 53.72 74.2299 53.64 74.0699 53.57C74.3299 53.57 74.6599 53.47 74.9399 53.56C75.1199 53.53 75.5099 53.58 75.7099 53.56C76.2499 53.66 76.6499 53.72 77.2499 53.72C78.2099 53.79 78.9199 53.59 79.3099 53.32C79.4999 53.26 79.9199 53.12 79.9999 52.99C80.1799 52.89 80.2099 52.96 80.4799 52.73C80.6999 52.57 80.6699 52.53 80.7899 52.4C80.9899 52.25 81.1999 52.03 81.3599 51.89C81.5899 51.51 81.2399 51.94 81.3499 51.72C81.2099 51.84 80.8399 52.27 80.7099 52.28C80.6799 52.28 80.7299 52.23 80.7699 52.19C80.8999 52.1 80.8999 52.14 80.9299 52.13ZM83.4199 46.45C83.5899 45.8 83.6199 45.21 83.6899 44.39C83.7299 44.18 83.7899 43.83 83.7599 43.64C83.8699 43.29 83.9199 42.54 83.9899 41.96C83.9799 41.76 83.9899 41.5 83.9799 41.28C84.0599 40.78 84.1299 40.24 84.2499 39.99C84.2899 39.69 84.2299 39.69 84.2999 39.52C84.2399 39.5 84.2199 39.37 84.2399 39.12C84.3199 38.5 84.3999 37.78 84.4299 37.14C84.3499 37.45 84.3299 36.99 84.2799 37.01C84.2199 37.53 84.2699 37.74 84.2699 38.07C84.1799 38.27 84.2599 38.61 84.2399 38.83C84.1799 38.75 84.1799 39.15 84.1099 39C84.0099 39.55 83.8399 40.84 83.9199 41.27C83.7899 41.48 83.7099 42.33 83.7299 42.77C83.5999 42.98 83.5799 43.57 83.5299 44.08C83.5199 44.2 83.5599 44.17 83.5599 44.28C83.4299 44.79 83.4299 45.34 83.3299 45.96C83.3699 46.07 83.3899 46.26 83.3699 46.54C83.2499 46.98 83.2599 47.71 83.1499 48.13C83.1799 48.44 83.0799 48.74 83.1499 48.9C83.2099 48.1 83.3699 47.25 83.4199 46.45ZM84.7199 33.27C84.7599 33.08 84.7899 32.46 84.7399 32.31C84.7399 32.72 84.6799 32.66 84.6599 32.87C84.6499 33.03 84.6399 33.28 84.6299 33.44C84.6199 33.63 84.5499 33.86 84.6299 33.92C84.7099 33.69 84.7199 33.49 84.7199 33.27ZM84.7399 32.12C84.7799 32.13 84.8099 32.06 84.8299 31.95C84.7999 31.8 84.7499 31.78 84.7399 32.12ZM84.5999 34.3C84.6099 34.28 84.5999 34.15 84.5899 34.2C84.5799 34.22 84.5799 34.34 84.5999 34.3ZM85.0599 28.24C84.9899 28.14 84.9599 28.3 84.9299 28.4C84.8799 29.01 84.9599 29.17 84.8399 29.82C84.8799 29.97 84.8399 30.33 84.8999 30.41C85.0199 29.66 85.0799 29.21 85.0799 28.53C85.0899 28.2 85.1499 28.17 85.1699 27.87C85.1799 27.43 85.1099 26.91 85.1799 26.53C85.1399 26.5 85.1199 26.63 85.0799 26.61C85.0899 26.93 85.0699 27.34 85.0399 27.76C85.0799 27.8 85.1099 27.63 85.1099 27.77C85.0299 27.84 85.1099 28.01 85.0599 28.24ZM84.8199 30.79C84.7999 31.15 84.7799 31.5 84.8299 31.66C84.8799 31.21 84.8899 30.87 84.8199 30.79ZM83.0599 49.53C83.0699 49.5 83.0799 49.34 83.0499 49.4C83.0399 49.44 83.0399 49.59 83.0599 49.53ZM82.7999 50.48C82.7699 50.33 82.6099 50.92 82.4799 51.13C82.5299 51.21 82.7799 50.69 82.7999 50.48ZM85.2399 25.3C85.2099 24.91 85.2499 24.65 85.2699 24.25C85.3099 24.27 85.3799 23.64 85.2899 23.77C85.1899 23.93 85.2299 24.9 85.1399 24.8C85.0999 25.08 85.1499 25.08 85.1099 25.37C85.1799 25.45 85.1499 25.44 85.2299 25.39C85.2399 25.57 85.1299 25.69 85.1899 25.77C85.2199 25.55 85.2899 25.61 85.2999 25.31L85.2399 25.3ZM76.6299 17.61C76.9099 17.61 77.2399 17.58 77.3799 17.68C77.3699 17.73 77.1199 17.68 77.1699 17.75C77.6599 17.86 78.3699 17.79 78.9599 17.94C78.7899 17.99 78.3499 17.95 77.9999 17.94C77.9699 18 78.1299 18.03 78.2599 18.06C78.2599 18.02 78.3599 18.01 78.5499 18.04C78.4299 18.1 78.6899 18.11 78.7199 18.15C79.2699 18.19 79.8499 18.28 80.6599 18.33C80.4999 18.3 80.6599 18.29 80.7799 18.3C80.8399 18.36 81.0399 18.42 81.2699 18.5C81.2999 18.48 81.2799 18.43 81.3999 18.47C81.5099 18.53 81.6599 18.59 81.8899 18.7C82.1799 18.77 82.5399 18.98 83.0899 19.45C83.2699 19.56 83.4699 19.75 83.6699 19.96C83.6599 19.99 83.5999 19.98 83.6699 20.08C83.6999 20.09 83.7099 20.06 83.7799 20.14C83.8199 20.27 84.1399 20.61 84.2599 20.88C84.6399 21.71 84.6799 22.06 84.7899 22.67C84.7499 22.7 84.8099 23.16 84.7499 23.22C84.7999 23.66 84.7099 23.85 84.7199 24.21C84.6599 24.67 84.6999 24.86 84.6199 25.05C84.6499 25.19 84.6899 25.32 84.7599 25.37C84.7699 25.73 84.7499 26.13 84.8399 26.25C84.8899 25.96 84.9499 25.85 84.9399 25.5C84.9599 25.5 84.9599 25.58 84.9799 25.6C85.0199 25.02 85.0499 24.73 85.0799 24.28C85.0199 24.24 84.9899 24.09 84.9899 23.9C84.9899 23.71 85.0199 23.47 85.0499 23.15C85.0599 22.93 84.9799 23.06 84.9699 22.8C85.0899 22.09 84.6199 21.21 84.3899 20.6C84.3599 20.62 84.2899 20.55 84.2099 20.43C84.0899 20.08 83.5699 19.65 83.2799 19.29C83.0099 19.16 82.2299 18.44 81.9199 18.47C81.8299 18.35 81.8899 18.25 81.7199 18.13C82.2999 18.36 82.4299 18.41 83.0699 18.86C83.2399 19 83.1799 19.04 83.4799 19.28C83.6499 19.4 83.5999 19.19 83.8399 19.45C83.8599 19.6 83.9999 19.77 83.9299 19.81C84.3799 20.39 84.6299 20.82 84.8399 21.2C84.8099 21.24 84.9099 21.45 84.9099 21.54C84.9799 21.48 85.0899 21.89 85.1699 21.99C85.1899 21.84 85.1899 21.68 85.1399 21.38C85.0899 21.51 84.9399 20.89 84.8499 20.82C84.8299 20.64 84.4899 20.11 84.4199 19.95C84.3899 19.95 84.3499 19.94 84.2299 19.77C83.6199 18.99 83.1199 18.48 82.0499 18.05C81.3299 17.69 80.8099 17.59 80.1999 17.59L80.2099 17.54C79.9299 17.54 79.9199 17.53 79.6399 17.49C79.5999 17.56 79.2899 17.53 79.0599 17.53C78.8799 17.53 78.8499 17.47 78.7899 17.46C78.5699 17.43 78.3099 17.47 78.0399 17.39C77.8399 17.4 77.6499 17.42 77.4499 17.43C76.8999 17.29 76.4599 17.35 76.0499 17.23C75.6799 17.26 74.9499 17.19 74.5299 17.13C74.1999 17.18 73.9399 17.16 73.3799 17.09C72.8299 17.1 72.2899 17.07 71.5799 16.97C71.1099 16.92 71.1099 16.95 70.7299 16.89C70.3299 16.91 69.4799 16.77 69.2899 16.87C69.5899 16.92 69.5999 16.99 69.9399 16.98L69.9299 17.05L70.2999 17.1C70.6899 17.25 71.1799 17.27 71.6799 17.37C71.6999 17.34 71.6799 17.3 71.7899 17.31C72.3099 17.36 72.8799 17.47 73.2899 17.48C73.3799 17.51 73.2999 17.57 73.5599 17.58C73.8299 17.57 74.2799 17.62 74.5199 17.6C74.6399 17.65 74.8299 17.69 75.0699 17.72C75.2499 17.73 75.1499 17.65 75.3699 17.68C75.3799 17.71 75.3399 17.74 75.4499 17.76C75.4499 17.69 75.6099 17.69 75.7399 17.74C75.5799 17.75 75.4299 17.79 75.7199 17.83C75.7399 17.77 75.7999 17.72 75.9399 17.71C76.0799 17.76 76.4499 17.75 76.5799 17.84C76.6499 17.79 76.6599 17.74 76.8999 17.7C76.5799 17.65 76.4799 17.68 76.3499 17.58C76.3099 17.6 76.0399 17.66 75.9599 17.59C76.0399 17.48 76.4899 17.61 76.6299 17.61ZM85.1799 22.01L85.2399 22.37C85.2799 22.39 85.2799 22.25 85.2299 22.01H85.1799ZM84.8099 27.33C84.8699 26.8 84.9099 26.55 84.8099 26.37C84.7899 26.85 84.8199 27.22 84.7299 27.7L84.8199 27.72C84.8699 27.46 84.7999 27.51 84.8099 27.33ZM84.7599 28.18C84.7699 28.15 84.7599 28.03 84.7499 28.08C84.7299 28.11 84.7399 28.23 84.7599 28.18ZM65.9999 16.5L66.0099 16.45C65.4499 16.38 65.3299 16.37 64.8699 16.37C64.9499 16.47 64.6499 16.43 64.5599 16.46C64.7399 16.52 65.0899 16.53 65.3099 16.53C65.8199 16.59 66.2499 16.59 66.5299 16.65C66.6099 16.6 67.1799 16.73 67.1099 16.63C66.6599 16.6 66.4099 16.54 65.9999 16.5ZM67.5099 16.67C67.8199 16.71 67.9099 16.78 68.3499 16.8C68.3599 16.74 68.6599 16.78 68.6599 16.71C68.0999 16.61 67.8199 16.62 67.5099 16.67ZM50.4499 15.02C50.1499 15.01 50.1699 14.96 49.9899 14.93C49.4799 14.96 49.0299 14.87 48.5499 14.91C48.3099 14.82 47.7099 14.79 47.4399 14.71C47.3499 14.74 47.1899 14.74 46.9599 14.71C46.3899 14.63 45.7299 14.57 45.2799 14.48C45.2499 14.5 45.1699 14.51 45.0799 14.51C44.5499 14.44 44.1499 14.51 43.7599 14.41C43.6399 14.46 43.2399 14.41 42.8999 14.38C42.8599 14.47 42.9799 14.4 43.1799 14.43C43.2399 14.47 43.3699 14.49 43.5499 14.51C44.0099 14.55 44.5399 14.62 44.8699 14.61C45.0799 14.66 45.3299 14.69 45.5199 14.74C45.5899 14.7 45.7799 14.7 45.9999 14.71C46.1799 14.74 46.0599 14.81 46.3599 14.82C46.9299 14.78 47.6699 14.96 48.2599 14.93C48.5699 15.03 49.3099 15.07 49.5699 15.08C49.7599 15.1 49.7399 15.16 49.9299 15.19C50.3699 15.18 50.7399 15.28 51.1499 15.31C51.2399 15.26 51.8799 15.41 51.8199 15.3C51.2599 15.3 51.1499 15.15 50.4199 15.12C50.4399 15.04 50.5999 15.08 50.4499 15.02ZM63.9299 16.3C63.7299 16.36 62.8799 16.19 62.8699 16.32C63.2999 16.35 63.4499 16.42 63.8999 16.44C64.1599 16.44 64.1499 16.37 64.4799 16.45C64.4799 16.37 64.2799 16.32 63.9299 16.3ZM40.9799 14.24C41.2499 14.27 41.2999 14.33 41.5499 14.36C41.5599 14.28 42.0399 14.37 42.0499 14.29C41.8499 14.26 41.6699 14.24 41.5199 14.22C41.3199 14.21 41.1499 14.21 40.9799 14.24ZM62.4099 16.2C61.6499 16.13 61.3599 16.24 60.5999 16.1C60.4499 16.12 60.0599 16.06 60.1099 16.15C60.1599 16.19 60.4699 16.19 60.4799 16.23C60.7499 16.23 61.0699 16.3 61.3299 16.31C61.3699 16.31 61.5399 16.29 61.6199 16.29C61.9699 16.3 62.4599 16.35 62.5899 16.26C62.4799 16.25 62.3699 16.24 62.4099 16.2ZM81.5499 51.56C81.5699 51.59 81.6499 51.54 81.7299 51.43C81.7099 51.39 81.6399 51.46 81.5499 51.56ZM42.1399 14.34C42.5999 14.45 42.3899 14.25 42.1399 14.34V14.34ZM58.5299 15.95C58.6299 15.97 58.6699 15.99 58.7099 16.01C58.9499 16.01 59.2199 16.03 59.2099 15.94C58.8399 15.9 58.6099 15.9 58.5299 15.95ZM82.3599 49.9C82.3899 49.77 82.4399 49.6 82.4099 49.57C82.3899 49.7 82.3399 49.87 82.3599 49.9ZM38.7599 14.78C38.7599 14.77 38.6599 14.8 38.6499 14.83C38.6599 14.85 38.7499 14.82 38.7599 14.78ZM66.5399 16.69C66.5399 16.67 66.3799 16.65 66.3499 16.67C66.3699 16.7 66.4499 16.7 66.5399 16.69ZM55.5899 15.72C55.6399 15.64 55.1199 15.59 54.9399 15.61L54.9299 15.68C55.4099 15.78 56.2299 15.87 56.5399 15.79C56.1799 15.75 55.8499 15.72 55.5899 15.72ZM60.0299 16.1C60.0299 16.08 59.8699 16.06 59.8399 16.08C59.9499 16.09 59.9799 16.13 60.0299 16.1ZM82.5099 47.99L82.4899 48.18L82.5399 48.19L82.5599 48L82.5099 47.99ZM52.3899 15.39C52.3899 15.38 52.3199 15.36 52.2999 15.38C52.2999 15.39 52.3699 15.42 52.3899 15.39ZM52.9599 15.42C52.8799 15.42 52.7699 15.4 52.7699 15.42C52.8499 15.43 52.9599 15.44 52.9599 15.42ZM53.6099 15.55C53.8399 15.58 53.9999 15.57 54.0899 15.55C53.9599 15.5 53.6899 15.52 53.6099 15.55ZM53.1399 15.51C53.4799 15.66 53.6499 15.46 53.1399 15.51V15.51ZM54.1599 15.68C54.4299 15.74 54.4599 15.6 54.1699 15.61L54.1599 15.68ZM35.4199 24.16C35.4099 24.16 35.3899 24.23 35.4099 24.25C35.4299 24.26 35.4499 24.18 35.4199 24.16ZM82.9199 41.25C82.8899 41.43 82.8499 41.48 82.8299 41.71C82.8899 41.77 82.9999 41.34 82.9199 41.25ZM43.0099 14.76C43.0199 14.74 42.9799 14.7 42.9199 14.73C42.9099 14.75 42.9499 14.79 43.0099 14.76ZM48.7199 15.49C48.5699 15.4 48.1899 15.41 47.8799 15.39C47.9399 15.49 47.6599 15.46 47.4799 15.47C47.2999 15.44 47.2499 15.4 47.0199 15.38C46.5899 15.41 46.2499 15.24 45.9799 15.3C46.1399 15.25 45.7599 15.17 45.7099 15.23C46.1499 15.29 45.3899 15.28 45.3999 15.34C45.0399 15.32 44.9499 15.33 44.7399 15.25C44.7499 15.29 44.6399 15.3 44.4499 15.27C44.0599 15.2 43.9699 15.2 43.6099 15.1C43.7799 15.12 43.8399 15.1 43.8099 15.05C43.4799 15 43.5899 15.02 43.2599 14.97C43.2399 14.99 43.2499 15.02 43.1599 15.01C42.5999 14.92 42.2899 14.97 41.8199 14.98C41.7599 14.93 41.7099 14.87 41.3499 14.87C41.0799 14.94 40.4699 14.98 40.1799 15.13C40.0499 15.11 39.7199 15.17 39.4299 15.28C39.1299 15.38 38.8799 15.56 38.8299 15.63C38.3599 15.79 37.7499 16.41 37.8299 16.52C38.2099 16.27 38.2499 16.09 38.7199 15.89C39.1199 15.63 39.5899 15.38 40.0899 15.31C40.2299 15.28 40.2499 15.24 40.3799 15.21C40.4199 15.24 40.5099 15.23 40.6799 15.22C41.0299 15.14 41.4699 15.24 41.8599 15.21L41.8499 15.26C42.2999 15.28 42.5799 15.39 42.8899 15.36C42.8999 15.4 43.0399 15.43 43.2599 15.44C43.9499 15.4 44.9099 15.5 45.5599 15.49C45.8599 15.61 46.2799 15.53 46.6899 15.62C46.8799 15.63 46.8899 15.57 47.0799 15.59C47.3299 15.69 47.7399 15.63 48.0299 15.66C48.1099 15.69 48.3699 15.7 48.2999 15.76C48.5299 15.79 48.5999 15.75 48.7799 15.76C48.8099 15.91 49.1299 15.76 49.3299 15.88C49.4699 15.79 50.4799 15.9 50.8499 15.98C51.0899 15.93 51.3899 15.91 51.8199 15.93C51.8199 15.99 51.6499 15.96 51.7999 16.02C52.2199 16.03 52.7199 16.08 53.0199 16.16C53.2299 16.1 53.3899 16.01 53.7299 15.99C53.2799 15.9 53.0999 15.93 52.6899 15.91C52.4499 15.88 52.4199 15.81 52.1399 15.79C52.0099 15.79 51.9499 15.81 51.7599 15.78C51.7599 15.82 51.6699 15.83 51.5599 15.83C51.1199 15.8 50.9999 15.88 50.5899 15.86C50.3399 15.8 50.1399 15.85 50.0299 15.76C50.1699 15.71 50.2499 15.71 50.1499 15.63C49.6699 15.59 49.1299 15.47 48.7199 15.49ZM84.0399 21.81C84.1199 21.75 84.0999 22.01 84.1799 22.28C84.2599 22.27 84.1599 21.64 84.0399 21.51C84.0999 21.71 83.9499 21.56 84.0399 21.81ZM84.2899 22.87C84.2299 22.85 84.2299 23.02 84.1999 23.16C84.2699 23.12 84.2099 23.53 84.2499 23.56C84.2699 23.22 84.3399 23.21 84.2899 22.87ZM84.1899 22.38C84.1999 22.48 84.2299 22.57 84.2299 22.67C84.2699 22.68 84.2799 22.57 84.2399 22.37L84.1899 22.38ZM61.6899 16.92C61.4399 16.88 61.4899 16.95 61.2999 16.93C60.7199 16.78 59.8699 16.73 59.1399 16.7C58.8599 16.67 58.9499 16.59 58.5899 16.58C58.5299 16.61 58.4299 16.62 58.2899 16.62C57.9999 16.61 57.9499 16.56 57.7299 16.54C57.6399 16.58 57.4799 16.6 57.1499 16.56L57.1299 16.68C58.0999 16.74 59.1699 16.91 60.0599 16.91C60.4399 17.05 60.6099 16.93 61.0899 17.03C61.3999 17 61.4999 17.05 61.8599 17.03C62.0799 17.1 62.5799 17.1 62.8099 17.1C62.6999 17 61.9099 17 61.6899 16.92ZM83.1099 20.22C83.2099 20.42 83.3299 20.47 83.4499 20.58C83.3299 20.45 83.1999 20.26 83.1099 20.22ZM36.2599 22.12C36.2399 22.41 36.1699 22.85 36.2399 22.88C36.3299 22.59 36.2099 22.54 36.2999 22.22C36.3099 22.1 36.2799 22.09 36.2999 21.93C36.2999 21.61 36.4399 20.91 36.3399 20.88C36.2299 21.12 36.2099 21.92 36.2599 22.12ZM37.1999 17.17C37.4399 17.05 37.2899 16.9 37.1999 17.17V17.17ZM36.9799 17.64C36.9499 17.71 36.8999 17.82 36.9099 17.84C36.9499 17.76 36.9999 17.66 36.9799 17.64ZM36.5599 19.2C36.5299 19.34 36.5099 19.38 36.4999 19.58C36.5599 19.74 36.5999 19.19 36.5599 19.2ZM36.4399 21.96C36.5199 21.61 36.4799 21.34 36.5399 21.02C36.4899 21.03 36.4999 20.9 36.4599 20.91C36.4399 21.39 36.3699 21.67 36.4399 21.96ZM82.6999 35.54L82.6799 35.73L82.7299 35.74L82.7499 35.55L82.6999 35.54ZM82.6699 35.82C82.6599 35.94 82.6299 35.94 82.6199 36.1C82.6599 36.11 82.6899 36.04 82.7099 35.93C82.6899 35.92 82.6899 35.85 82.6699 35.82ZM36.0099 27.82C36.0199 27.62 36.0599 26.96 35.9899 27.24C36.0399 27.23 35.9199 27.81 36.0099 27.82ZM36.8499 18.57C36.8399 18.72 36.8499 18.82 36.8199 19.06C36.9099 19.06 36.9799 18.7 37.1099 18.37C37.0199 18.35 37.2199 17.94 37.1199 17.95C36.9999 18.32 36.9399 18.19 36.8499 18.57ZM37.8199 16.81C37.7999 16.83 37.7299 16.93 37.7699 16.9C37.7899 16.88 37.8599 16.78 37.8199 16.81ZM37.4699 17.28C37.4499 17.29 37.3999 17.41 37.4399 17.37C37.4599 17.35 37.5099 17.24 37.4699 17.28ZM38.1199 16.57C38.0399 16.64 37.9899 16.64 37.9799 16.7C37.9899 16.72 38.1099 16.61 38.1199 16.57ZM36.7599 20.97C36.8199 20.58 36.7399 20.59 36.7699 20.3C36.7799 20.12 36.8099 20.1 36.8199 19.93C36.7799 19.76 36.8299 19.31 36.7599 19.25C36.7599 19.84 36.7199 20.4 36.6199 20.85C36.6699 21.03 36.6799 21.08 36.7599 20.97ZM36.6899 21.82C36.7099 21.59 36.7099 21.43 36.6799 21.34C36.6599 21.52 36.5999 21.5 36.5999 21.8L36.6899 21.82ZM45.8299 16.45C45.7599 16.5 46.2599 16.58 46.2899 16.54C46.1199 16.52 46.1399 16.46 45.8299 16.45ZM46.7699 16.56C46.7099 16.5 46.7399 16.43 46.5199 16.39C46.3499 16.39 46.0499 16.37 46.2099 16.5L46.7699 16.56ZM40.6699 16.17C40.6499 16.16 40.5499 16.2 40.5899 16.2C40.6099 16.21 40.7099 16.18 40.6699 16.17Z" fill="#1E1E1E"/><path d="M77.57 53.38C77.41 53.39 77.5 53.36 77.57 53.36C77.71 53.35 77.8 53.37 77.67 53.39C77.64 53.38 77.59 53.38 77.57 53.38Z" fill="#1E1E1E"/><path d="M40.7898 15.05C40.4898 15.02 40.9298 14.99 41.0998 15.02C41.0798 15.1 40.7698 14.98 40.7898 15.05Z" fill="#1E1E1E"/><path d="M83.5 21.56C83.68 21.63 83.78 22.04 83.86 22.58C83.79 22.52 83.83 22.76 83.81 22.85C83.81 22.54 83.6 21.98 83.5 21.56Z" fill="#1E1E1E"/><path d="M82.0499 19.96C82.2399 20.03 81.9499 19.96 82.0699 20.06C82.3599 20.25 82.4299 20.38 82.6599 20.54C82.7699 20.67 82.7199 20.7 82.7399 20.78C83.0599 21.06 83.0499 21.37 83.2399 21.63C83.1899 21.89 82.9899 21.15 82.9099 21.15C82.8599 21.07 82.9099 21.07 82.9299 21.05C82.7599 20.91 82.5999 20.58 82.2499 20.33C82.2499 20.17 81.8299 19.9 81.5999 19.83C81.4799 19.77 81.4899 19.75 81.3899 19.7C81.1399 19.66 80.9299 19.51 80.7399 19.54C80.6699 19.51 80.5999 19.48 80.5999 19.46C80.4999 19.44 80.4199 19.46 80.4199 19.5C79.9999 19.39 79.7799 19.49 79.4399 19.37C79.3799 19.27 79.8899 19.38 80.1099 19.39C80.2899 19.37 80.3199 19.26 80.7299 19.38C80.6099 19.48 81.3199 19.6 81.3699 19.6C81.4899 19.71 81.9299 19.95 82.0499 19.96Z" fill="#1E1E1E"/><path d="M48.47 23.49C48.49 23.49 48.52 23.5 48.53 23.47C48.5 23.47 48.47 23.46 48.47 23.49ZM48.48 23.65C48.59 23.58 48.77 23.74 48.81 23.62C48.71 23.59 48.43 23.59 48.36 23.54C48.36 23.61 48.41 23.63 48.48 23.65ZM49.29 23.65C49.14 23.71 49.15 23.57 49 23.57C49.03 23.69 49.23 23.76 49.29 23.65ZM49.56 23.4C49.55 23.39 49.52 23.41 49.53 23.42C49.54 23.42 49.57 23.41 49.56 23.4ZM50.63 23.49C50.65 23.52 50.64 23.58 50.7 23.59C50.79 23.54 50.83 23.58 50.95 23.57C51 23.6 50.9 23.7 50.96 23.65C51 23.57 51.16 23.58 51.2 23.65C51.22 23.6 51.46 23.54 51.41 23.67C51.53 23.71 51.57 23.62 51.66 23.59C51.76 23.59 51.96 23.73 51.97 23.64C51.84 23.5 51.73 23.57 51.51 23.5C51.51 23.54 51.48 23.56 51.45 23.56C51.45 23.53 51.42 23.52 51.4 23.51C51.34 23.58 51.26 23.49 51.18 23.56C51.15 23.56 51.15 23.53 51.1 23.53C51.02 23.57 50.86 23.58 50.84 23.48C50.7 23.5 50.59 23.44 50.51 23.49C50.51 23.46 50.52 23.42 50.49 23.42C50.47 23.47 50.24 23.3 50.29 23.47C50.42 23.4 50.49 23.55 50.63 23.49ZM50.61 23.63C50.57 23.51 50.54 23.71 50.61 23.63V23.63ZM49.04 30.64C49.05 30.65 49.08 30.63 49.07 30.62C49.06 30.61 49.03 30.63 49.04 30.64ZM51.36 23.77C51.36 23.73 51.37 23.69 51.32 23.69C51.31 23.73 51.32 23.75 51.36 23.77ZM46 25.35C46.01 25.36 46.04 25.34 46.03 25.33C46.02 25.32 45.99 25.33 46 25.35ZM48.05 31.72C48.06 31.73 48.09 31.71 48.08 31.7C48.07 31.69 48.03 31.7 48.05 31.72ZM48.83 30.64C48.83 30.71 48.73 30.69 48.79 30.75C48.76 30.77 48.69 30.75 48.7 30.81C48.81 30.9 48.87 30.74 48.95 30.72C49.01 30.73 49.04 30.71 49.04 30.66C48.96 30.62 48.94 30.66 48.83 30.64ZM50.24 23.64C50.4 23.71 50.38 23.57 50.24 23.64V23.64ZM49.13 23.39L49.12 23.48C49.21 23.47 49.31 23.46 49.37 23.41L49.13 23.39ZM48.75 23.42C48.78 23.36 48.7 23.37 48.71 23.32C48.61 23.33 48.48 23.29 48.43 23.36C48.51 23.4 48.56 23.36 48.64 23.45C48.64 23.41 48.73 23.45 48.75 23.42ZM49.83 23.62C49.82 23.61 49.79 23.63 49.8 23.64C49.81 23.64 49.85 23.63 49.83 23.62ZM49.74 23.46C49.75 23.39 49.64 23.26 49.61 23.4C49.7 23.39 49.69 23.45 49.74 23.46ZM49.95 23.77C50.11 23.76 50.23 23.85 50.28 23.71C50.16 23.61 49.97 23.7 49.88 23.69C49.9 23.72 49.98 23.71 49.95 23.77ZM50.13 23.44C50.01 23.41 50.04 23.42 49.95 23.4C49.92 23.5 49.83 23.36 49.81 23.46C49.92 23.46 49.94 23.53 50.04 23.53C50.02 23.44 50.13 23.5 50.13 23.44ZM48.21 25.19C48.17 25.2 48.08 25.15 48.07 25.2L48.15 25.21C48.17 25.21 48.2 25.22 48.21 25.19ZM43.95 26.86C43.94 26.93 43.9 26.91 43.94 26.97L43.99 26.98C44.04 26.93 43.99 26.95 44 26.87L43.95 26.86ZM44.1 27.04C44.1 27.07 44.06 27.08 44.09 27.09C44.12 27.1 44.13 27.05 44.1 27.04ZM51.44 24.93C51.47 24.88 51.47 24.86 51.52 24.81C51.53 24.75 51.53 24.74 51.49 24.74C51.47 24.81 51.46 24.86 51.44 24.93ZM43.95 27.1C43.96 27.12 43.99 27.15 43.97 27.1C43.97 27.09 43.97 27.08 43.97 27.07C43.97 27.05 43.94 27.07 43.95 27.1ZM44.08 26.39C44.08 26.41 44.07 26.44 44.1 26.45C44.09 26.42 44.1 26.39 44.08 26.39ZM44.08 26.34L44.13 26.35L44.14 26.3L44.09 26.29L44.08 26.34ZM50.63 23.92C50.64 23.93 50.67 23.91 50.66 23.9C50.66 23.89 50.62 23.91 50.63 23.92ZM48.44 23.46C48.39 23.46 48.32 23.46 48.33 23.52C48.4 23.53 48.42 23.49 48.44 23.46ZM50.55 23.91C50.56 23.92 50.59 23.9 50.58 23.89C50.58 23.89 50.54 23.9 50.55 23.91ZM46.79 29.38C46.79 29.31 46.86 29.45 46.87 29.37C46.83 29.34 46.71 29.32 46.79 29.38ZM47.84 23.53C47.82 23.49 47.75 23.48 47.72 23.44C47.72 23.6 47.89 23.6 47.99 23.64C48.02 23.53 47.98 23.46 47.91 23.42C47.86 23.43 47.9 23.53 47.84 23.53ZM50.19 25.13C50.19 25.15 50.23 25.17 50.24 25.14C50.24 25.11 50.22 25.12 50.19 25.13ZM48.19 23.31C48.11 23.31 48.13 23.24 48.07 23.22C48.04 23.34 47.97 23.2 47.91 23.2C47.83 23.3 47.69 23.22 47.6 23.28C47.7 23.32 47.74 23.4 47.88 23.41C47.94 23.34 48.16 23.43 48.19 23.31ZM51.4 25C51.39 25.01 51.42 24.98 51.42 24.98L51.4 25C51.4 25 51.41 25 51.4 25ZM51.57 24.8C51.59 24.78 51.58 24.77 51.56 24.79C51.57 24.79 51.55 24.82 51.57 24.8ZM51.42 25.33L51.43 25.22C51.35 25.21 51.32 25.34 51.42 25.33ZM44.31 28.66C44.31 28.67 44.3 28.67 44.3 28.69L44.31 28.66C44.31 28.64 44.31 28.64 44.31 28.64V28.65V28.66C44.31 28.66 44.31 28.67 44.31 28.66C44.3 28.66 44.31 28.66 44.31 28.66C44.32 28.66 44.32 28.66 44.33 28.66C44.37 28.66 44.42 28.67 44.46 28.67L44.47 28.63C44.48 28.61 44.49 28.59 44.52 28.57C44.54 28.49 44.48 28.48 44.49 28.4C44.57 28.3 44.56 28.18 44.53 28.05C44.56 28.04 44.6 28.03 44.64 28.02C44.69 27.97 44.69 27.86 44.78 27.87C44.75 27.77 44.8 27.81 44.82 27.71C44.69 27.59 44.79 27.28 44.72 27.1C44.72 27.05 44.75 27.03 44.78 27.03C44.73 26.88 44.81 26.73 44.79 26.54C44.88 26.43 44.83 26.28 44.88 26.15C44.96 26.14 44.9 26.24 44.97 26.24C44.98 26.12 45.09 26.14 45.07 25.98C45.11 25.95 45.14 25.9 45.16 25.83C45.1 25.78 45.17 25.73 45.13 25.64C45.12 25.56 45.17 25.55 45.17 25.48C45.13 25.48 45.11 25.45 45.11 25.42C45.16 25.4 45.17 25.32 45.22 25.3C45.22 25.16 45.28 25.09 45.32 25.01C45.33 24.94 45.29 24.92 45.29 24.87C45.35 24.86 45.35 24.78 45.38 24.72C45.35 24.63 45.4 24.61 45.38 24.5L45.4 24.46C45.17 24.44 44.94 24.41 44.71 24.39H44.69L44.68 24.38V24.4L44.61 25.22H44.62L44.65 25.23L44.7 25.24C44.73 25.25 44.76 25.26 44.79 25.28C44.86 25.28 44.88 25.22 44.96 25.23C45 25.27 45.12 25.23 45.23 25.26C45.34 25.33 45.55 25.31 45.68 25.31C45.75 25.33 45.88 25.45 45.92 25.36C45.92 25.26 45.77 25.26 45.78 25.15L45.99 25.17C46.07 25.28 46.11 25.29 46.24 25.36C46.41 25.31 46.55 25.4 46.7 25.34C46.75 25.36 46.79 25.39 46.85 25.41C46.9 25.38 46.96 25.35 47.05 25.36C47.16 25.43 47.21 25.42 47.39 25.42C47.48 25.47 47.67 25.46 47.76 25.51C47.78 25.45 47.87 25.47 47.93 25.46C47.97 25.51 48.11 25.48 48.08 25.57C48.2 25.56 48.19 25.58 48.29 25.62C48.35 25.62 48.35 25.56 48.41 25.56C48.46 25.6 48.55 25.51 48.68 25.57C48.71 25.55 48.7 25.48 48.77 25.51C48.75 25.59 48.87 25.51 48.92 25.57C49.01 25.53 49.14 25.54 49.23 25.51C49.31 25.56 49.48 25.55 49.57 25.6C49.65 25.55 49.67 25.59 49.76 25.57C49.81 25.51 49.85 25.44 49.94 25.42C49.95 25.49 50.02 25.52 50.06 25.58C50.23 25.57 50.44 25.53 50.59 25.64C50.71 25.55 50.8 25.68 50.93 25.7C51.03 25.61 51.18 25.64 51.31 25.7C51.35 25.42 51.38 25.19 51.41 24.96V24.95V25L51.42 24.99C51.42 24.99 51.42 24.99 51.4 24.99H51.39L50.68 24.93V24.94V24.96L50.67 25.04C50.67 25.09 50.67 25.14 50.68 25.19C50.63 25.2 50.66 25.32 50.64 25.37C50.67 25.54 50.62 25.73 50.57 25.82C50.59 25.88 50.6 25.95 50.62 26.02C50.62 26.28 50.59 26.46 50.54 26.71C50.46 26.84 50.49 26.84 50.48 27C50.47 27.06 50.43 27.1 50.44 27.18C50.49 27.26 50.46 27.42 50.44 27.56C50.41 27.55 50.39 27.57 50.37 27.58C50.35 27.77 50.29 27.89 50.32 28.06C50.22 28.01 50.26 28.16 50.21 28.18C50.28 28.19 50.3 28.24 50.32 28.3C50.22 28.47 50.37 28.72 50.22 28.8C50.21 28.89 50.29 28.9 50.3 28.97C50.24 28.97 50.26 29.08 50.21 29.1C50.63 29.17 50.69 29.18 51.07 29.25V29.26C51.07 29.26 51.07 29.27 51.07 29.26C51.07 29.25 51.07 29.25 51.07 29.24C51.08 29.06 51.1 28.82 51.13 28.53C51.12 28.54 51.1 28.55 51.07 28.54C50.83 28.47 50.67 28.54 50.44 28.56C50.24 28.52 50.11 28.49 49.93 28.53C49.8 28.43 49.74 28.54 49.59 28.47C49.45 28.59 49.33 28.49 49.12 28.56C49.16 28.49 49.07 28.51 49.02 28.5C49.03 28.42 48.93 28.43 48.9 28.39C48.87 28.48 48.69 28.4 48.62 28.45C48.59 28.43 48.55 28.41 48.52 28.39C48.53 28.45 48.46 28.43 48.43 28.45C48.36 28.38 48.29 28.45 48.21 28.45C48.15 28.42 48.14 28.45 48.08 28.39C48.07 28.45 47.95 28.43 47.92 28.4C47.91 28.43 47.88 28.44 47.83 28.44C47.67 28.41 47.61 28.41 47.43 28.37C47.38 28.37 47.36 28.41 47.29 28.4C47.26 28.39 47.26 28.37 47.21 28.37C47.14 28.41 47.13 28.41 47.08 28.36C46.99 28.41 46.83 28.38 46.72 28.41C46.59 28.38 46.6 28.38 46.46 28.36C46.38 28.41 46.21 28.36 46.13 28.42C46.04 28.35 45.89 28.41 45.8 28.43C45.71 28.37 45.64 28.45 45.53 28.45C45.37 28.45 45.27 28.4 45.16 28.36C45.06 28.42 44.87 28.4 44.75 28.36C44.65 28.41 44.52 28.41 44.36 28.39L44.34 28.62C44.38 28.61 44.43 28.6 44.53 28.62C44.61 28.58 44.72 28.59 44.83 28.58C44.94 28.62 45.08 28.63 45.17 28.69C45.28 28.68 45.37 28.64 45.47 28.63C45.54 28.64 45.63 28.64 45.62 28.7C45.77 28.67 45.8 28.77 45.9 28.83C45.92 28.77 46.03 28.8 46.09 28.78C46.12 28.79 46.12 28.81 46.17 28.81C46.28 28.76 46.56 28.86 46.63 28.84C46.6 28.83 46.57 28.83 46.58 28.79C46.69 28.75 46.67 28.83 46.73 28.88C46.8 28.87 46.86 28.86 46.95 28.88C47.05 28.97 47.21 28.89 47.26 29.03C47.12 29.02 47.08 29.11 46.95 29.11C46.87 29.04 46.76 29.11 46.63 29.07C46.54 29.14 46.41 29.15 46.29 29.17C46.28 29.12 46.21 29.14 46.27 29.1C46.19 29.08 46.2 29.16 46.1 29.13C46.04 29.12 46.06 29.04 45.98 29.05C45.96 29.08 45.95 29.1 45.92 29.11C45.81 29.12 45.64 29.18 45.56 29.14C45.51 29.18 45.45 29.2 45.39 29.22C45.28 29.15 45.12 29.25 45.05 29.13C44.99 29.2 44.81 29.13 44.75 29.19C44.69 29.04 44.5 29.22 44.44 29.08C44.39 29.1 44.34 29.12 44.29 29.15L44.28 29.23C44.34 29.17 44.57 29.15 44.63 29.25C44.61 29.35 44.42 29.25 44.33 29.26C44.3 29.25 44.29 29.26 44.27 29.27L44.2 30.1C44.25 30.12 44.3 30.13 44.36 30.15C44.42 30.1 44.45 30.09 44.5 30.09C44.6 30.1 44.75 30.13 44.85 30.11C44.98 30.16 45.32 30.12 45.49 30.21C45.52 30.18 45.57 30.17 45.61 30.15C45.66 30.24 45.76 30.18 45.85 30.18C45.9 30.21 45.92 30.25 45.97 30.27C46.05 30.3 46.03 30.21 46.11 30.24C46.38 30.3 46.84 30.22 47.04 30.35C47.07 30.3 47.21 30.36 47.28 30.35C47.3 30.32 47.31 30.3 47.34 30.29C47.45 30.36 47.57 30.34 47.76 30.39C47.8 30.39 47.79 30.35 47.82 30.35C47.89 30.41 47.98 30.41 48.06 30.4C48.01 30.53 48.11 30.44 48.1 30.52C48.01 30.53 48.05 30.45 48 30.44C48.02 30.57 47.94 30.51 47.88 30.52C47.86 30.52 47.87 30.59 47.82 30.56C47.73 30.56 47.72 30.52 47.67 30.5C47.67 30.55 47.64 30.57 47.58 30.56C47.55 30.53 47.5 30.51 47.48 30.48C47.37 30.5 47.37 30.51 47.24 30.48C47.14 30.52 47.03 30.55 46.98 30.64C46.97 30.57 46.86 30.57 46.8 30.53C46.77 30.53 46.76 30.56 46.72 30.54C46.69 30.51 46.64 30.49 46.62 30.46C46.47 30.47 46.5 30.41 46.35 30.45C46.27 30.41 46.2 30.38 46.11 30.4L46.12 30.33C46.06 30.31 45.96 30.43 45.96 30.31C45.87 30.29 45.88 30.39 45.79 30.36C45.74 30.36 45.73 30.33 45.69 30.32C45.62 30.36 45.47 30.32 45.39 30.36C45.39 30.27 45.28 30.37 45.24 30.29C45.08 30.36 44.88 30.31 44.75 30.35C44.64 30.35 44.6 30.31 44.51 30.3C44.47 30.34 44.4 30.33 44.37 30.38C44.31 30.35 44.25 30.33 44.19 30.33L44.17 30.6C44.26 30.61 44.34 30.61 44.4 30.58C44.44 30.68 44.58 30.59 44.63 30.7C44.74 30.67 44.86 30.72 44.95 30.76C45.01 30.73 44.92 30.7 44.99 30.69C45.03 30.7 45 30.76 45.03 30.77C45.07 30.71 45.17 30.79 45.22 30.79C45.23 30.76 45.22 30.72 45.25 30.72C45.29 30.81 45.41 30.72 45.48 30.79C45.51 30.69 45.7 30.75 45.79 30.71C45.8 30.64 45.82 30.58 45.91 30.6C45.91 30.66 45.86 30.65 45.87 30.71C45.97 30.76 45.89 30.61 45.96 30.63L46.03 30.71C46.16 30.68 46.3 30.65 46.42 30.61C46.47 30.64 46.45 30.71 46.54 30.72C46.7 30.68 46.91 30.7 47.08 30.73C47.1 30.68 47.12 30.63 47.17 30.62C47.2 30.68 47.3 30.7 47.34 30.76C47.34 30.61 47.56 30.7 47.63 30.63C47.71 30.71 47.78 30.66 47.92 30.69C47.97 30.71 47.98 30.75 48.05 30.75C48.11 30.64 48.26 30.71 48.35 30.76C48.36 30.73 48.35 30.67 48.39 30.67C48.45 30.7 48.47 30.69 48.51 30.76C48.61 30.72 48.64 30.76 48.73 30.71C48.68 30.68 48.61 30.67 48.61 30.6C48.79 30.61 48.6 30.55 48.62 30.48C48.67 30.45 48.78 30.48 48.86 30.48C48.84 30.62 48.97 30.55 49.09 30.62C49.15 30.59 49.17 30.51 49.24 30.49C49.26 30.52 49.28 30.57 49.31 30.59C49.31 30.54 49.39 30.6 49.39 30.62L49.55 30.64C49.62 30.73 49.83 30.72 49.91 30.8C50.01 30.76 50.11 30.83 50.22 30.88C50.29 30.9 50.25 30.79 50.33 30.82C50.42 30.9 50.32 31.01 50.34 31.15C50.41 31.21 50.44 31.28 50.51 31.34C50.59 31.31 50.74 31.32 50.83 31.38C51.01 31.4 51.17 31.36 51.43 31.34C51.56 31.34 51.63 31.38 51.82 31.31C51.77 31.25 51.95 31.19 52.02 31.12C52.35 30.97 52.38 30.83 52.52 30.65C52.67 30.53 52.62 30.53 52.73 30.43C52.76 30.29 52.78 30.16 52.85 29.94C52.95 29.78 52.97 29.62 52.96 29.48C52.94 29.37 52.9 29.34 52.89 29.27C52.91 29.2 52.97 29.18 53 29.12C52.98 29.11 52.95 29.07 52.98 29.06C52.99 28.97 52.91 28.96 52.93 28.86C53.06 28.85 52.98 28.72 53.01 28.6C52.94 28.58 52.9 28.54 52.88 28.48C52.94 28.28 52.83 28.24 52.86 28.07C52.82 28.06 52.78 28.04 52.77 28.01C52.9 27.87 52.82 27.63 52.78 27.5C52.81 27.48 52.87 27.49 52.88 27.43C52.85 27.38 52.81 27.35 52.8 27.29C52.84 27.26 52.84 27.18 52.84 27.11C52.83 27.02 52.85 26.99 52.79 26.91C52.82 26.91 52.82 26.87 52.82 26.83C52.76 26.79 52.81 26.67 52.73 26.6C52.74 26.52 52.68 26.5 52.68 26.43C52.72 26.43 52.66 26.34 52.7 26.27C52.73 26.27 52.73 26.31 52.75 26.28C52.71 26.26 52.8 26.17 52.84 26.15C52.84 26.03 52.9 26 52.89 25.89C52.83 25.83 52.84 25.72 52.85 25.59C52.81 25.53 52.78 25.46 52.78 25.37C52.81 25.38 52.82 25.41 52.87 25.41C52.87 25.33 52.88 25.25 52.9 25.17C52.91 25.06 52.93 24.94 52.94 24.81C52.91 24.79 52.88 24.76 52.87 24.68C52.92 24.48 52.78 24.45 52.73 24.24C52.64 24.18 52.54 24.06 52.44 24C52.33 23.89 52.13 23.71 52.07 23.77C52.14 23.85 52.36 23.98 52.4 24.09C52.47 24.17 52.51 24.08 52.58 24.17C52.52 24.22 52.56 24.31 52.55 24.38C52.62 24.53 52.73 24.41 52.79 24.6C52.69 24.62 52.74 24.8 52.62 24.8C52.58 24.78 52.55 24.75 52.53 24.71C52.57 24.56 52.46 24.52 52.37 24.4C52.48 24.37 52.31 24.22 52.33 24.16C52.15 23.96 51.87 23.71 51.74 23.84C51.85 23.93 52.23 24 52.17 24.16C52.02 24.04 51.94 23.94 51.83 23.99C51.77 23.95 51.68 23.89 51.61 23.92C51.6 23.88 51.61 23.82 51.56 23.79C51.47 23.87 51.39 23.81 51.3 23.83C51.27 23.9 51.33 23.91 51.34 23.95C51.23 23.91 51.26 24.02 51.19 24.03C51.15 23.91 51.11 24.06 51.03 24.04C51.04 23.94 50.87 23.95 50.97 23.84C50.91 23.81 50.79 23.8 50.71 23.74C50.67 23.75 50.66 23.81 50.59 23.8C50.59 23.77 50.59 23.74 50.54 23.75C50.56 23.84 50.71 23.85 50.7 23.96C50.75 23.98 50.82 23.9 50.83 23.98C50.78 24.03 50.71 23.97 50.64 23.98C50.61 23.98 50.58 24.02 50.55 24.02C50.5 24.01 50.51 23.94 50.45 23.96C50.42 23.99 50.4 24.03 50.33 24.02C50.23 23.97 50.08 24 49.95 24C49.96 23.91 49.79 23.94 49.75 23.88C49.74 23.9 49.74 23.93 49.72 23.92C49.62 23.9 49.48 23.88 49.46 24C49.56 24 49.65 24.02 49.61 24.11C49.48 24.11 49.48 24.02 49.37 24.06C49.37 24.03 49.33 24.02 49.32 23.98C49.22 23.99 49.2 23.94 49.11 23.93C49 23.93 48.7 23.95 48.58 23.85L48.36 23.87C48.18 23.81 47.89 23.86 47.64 23.76C47.6 23.79 47.54 23.79 47.47 23.79C47.07 23.71 46.67 23.71 46.16 23.66C46.1 23.61 46.05 23.6 45.98 23.59C45.94 23.59 45.88 23.61 45.84 23.6C45.8 23.59 45.8 23.54 45.74 23.54C45.63 23.58 45.51 23.62 45.33 23.59C45.27 23.58 45.29 23.5 45.21 23.5C45.04 23.45 44.93 23.51 44.83 23.5C44.78 23.5 44.77 23.47 44.73 23.47C44.66 23.46 44.59 23.53 44.51 23.48C44.5 23.36 44.71 23.37 44.8 23.34C44.76 23.43 44.87 23.42 44.92 23.45C45.02 23.45 45.07 23.38 45.17 23.38C45.26 23.5 45.42 23.38 45.53 23.35C45.53 23.38 45.56 23.4 45.55 23.45C45.74 23.43 45.86 23.57 45.95 23.5L45.94 23.55C46.06 23.53 46.08 23.52 46.22 23.49C46.26 23.43 46.3 23.38 46.37 23.36C46.42 23.36 46.4 23.42 46.49 23.45C46.51 23.4 46.55 23.38 46.61 23.37C46.65 23.45 46.65 23.38 46.74 23.39C46.72 23.43 46.78 23.5 46.79 23.44C46.73 23.44 46.8 23.37 46.82 23.37C46.92 23.36 47.08 23.42 47 23.46C46.92 23.46 46.96 23.37 46.85 23.39L46.83 23.53C47 23.52 47.1 23.57 47.23 23.65C47.24 23.53 47.4 23.57 47.39 23.43C47.26 23.41 47.2 23.5 47.12 23.4C47.18 23.19 47.5 23.44 47.57 23.26C47.42 23.23 47.32 23.18 47.18 23.14C46.98 23.15 46.77 23.26 46.55 23.16C46.52 23.19 46.46 23.18 46.41 23.19C46.24 23.14 46.07 23.08 45.92 23.02C45.92 23.08 45.9 23.12 45.83 23.1C45.78 23 45.65 23.1 45.57 23.11C45.49 23.09 45.5 23.02 45.39 23.02C45.34 23.03 45.28 23.04 45.25 23.08C45.09 23.08 44.96 23.06 44.77 23.04C44.52 23.02 44.23 23.06 43.96 23.25C43.95 23.34 43.69 23.53 43.62 23.55C43.71 23.58 43.52 23.72 43.5 23.82C43.46 23.88 43.41 23.89 43.38 23.99C43.34 24.09 43.38 24.13 43.37 24.2C43.3 24.3 43.39 24.43 43.31 24.5C43.34 24.51 43.35 24.54 43.35 24.59C43.27 24.6 43.34 24.74 43.26 24.8C43.28 24.9 43.33 25.08 43.24 25.15C43.22 25.21 43.28 25.21 43.25 25.29C43.24 25.35 43.2 25.36 43.21 25.45C43.2 25.5 43.27 25.49 43.24 25.56C43.14 25.81 43.2 25.97 43.11 26.25C43.13 26.41 43.09 26.52 43.04 26.62C43.04 26.66 43.07 26.67 43.05 26.73C43.03 26.81 42.96 26.83 42.96 26.93C42.99 27 43.03 27.06 43.03 27.15C43.02 27.27 42.96 27.32 42.95 27.44C42.97 27.82 42.88 28.03 42.97 28.33C43.09 28.33 43.06 28.47 43.19 28.47L43.2 28.46L43.18 28.6C43.04 28.55 43.03 28.74 42.97 28.82C42.99 28.96 43.05 29.04 43.11 29.08C43.1 29.16 43.13 29.13 43.16 29.22C43.1 29.23 43.08 29.26 43.07 29.3C43.14 29.39 43.1 29.45 43.16 29.54C43.25 29.67 43.41 29.75 43.53 29.84C43.61 29.9 43.63 29.96 43.73 30.01C43.91 30.03 44.04 30.07 44.19 30.11L44.26 29.28C44.25 29.28 44.25 29.29 44.24 29.29C44.19 29.22 44.16 29.34 44.12 29.26C44.15 29.2 44.21 29.25 44.26 29.25L44.27 29.17C44.26 29.18 44.24 29.19 44.22 29.2C44.2 29.16 44.14 29.2 44.09 29.15C44.07 29.14 44.06 29.18 44.04 29.18C44.02 29.13 43.83 29.06 43.76 28.95C43.77 28.88 43.8 28.79 43.69 28.78C43.7 28.82 43.68 28.84 43.63 28.85C43.6 28.8 43.54 28.65 43.62 28.64C43.67 28.66 43.62 28.76 43.71 28.74C43.76 28.7 43.66 28.53 43.74 28.41C43.68 28.35 43.66 28.25 43.63 28.16L43.66 28.14C43.58 27.9 43.77 27.47 43.73 27.09C43.78 27.01 43.77 26.84 43.82 26.75C43.83 26.68 43.79 26.66 43.79 26.61C43.88 26.51 43.8 26.35 43.9 26.27C43.8 26.15 43.95 25.93 43.91 25.78C43.95 25.71 43.96 25.59 43.94 25.51C44 25.5 44 25.42 44.03 25.36C44.03 25.18 43.98 25.11 44.07 24.99C44.04 24.98 44.03 24.95 44.03 24.9C44.07 24.88 44.11 24.87 44.11 24.8C44.07 24.63 44.08 24.52 44.07 24.35C44.1 24.32 44.11 24.21 44.21 24.23C44.25 24.19 44.15 24.16 44.2 24.11C44.28 24.14 44.32 24.01 44.39 24.05C44.34 23.98 44.49 23.87 44.54 23.96C44.53 24 44.52 24.04 44.51 24.07C44.4 24.12 44.41 24.17 44.33 24.22C44.33 24.24 44.34 24.26 44.35 24.28C44.31 24.3 44.32 24.32 44.27 24.35C44.27 24.39 44.24 24.49 44.2 24.54C44.26 24.58 44.23 24.69 44.2 24.76C44.24 24.79 44.24 24.87 44.23 24.95C44.22 25 44.15 24.96 44.15 25.02C44.17 25.09 44.16 25.21 44.12 25.31C44.17 25.44 44.15 25.63 44.16 25.8C44.12 25.97 44.08 26.12 44.19 26.21C44.17 26.21 44.14 26.21 44.14 26.23C44.14 26.25 44.14 26.26 44.16 26.26C44.23 26.24 44.2 26.1 44.26 26.06C44.31 26.12 44.33 25.99 44.37 26.1C44.34 26.15 44.33 26.22 44.3 26.28C44.31 26.32 44.37 26.33 44.36 26.4C44.37 26.49 44.31 26.48 44.3 26.53C44.36 26.57 44.28 26.67 44.28 26.72C44.38 26.84 44.36 27.01 44.32 27.24C44.34 27.32 44.34 27.4 44.34 27.47C44.32 27.44 44.29 27.42 44.27 27.39C44.28 27.44 44.21 27.5 44.22 27.44C44.18 27.44 44.19 27.53 44.14 27.51L44.05 27.5L44 27.62C44.07 27.65 44.07 27.73 44.16 27.69C44.25 27.82 44.15 28.13 44.21 28.29C44.22 28.37 44.16 28.36 44.17 28.45C44.18 28.53 44.22 28.57 44.22 28.65C44.18 28.68 44.25 28.69 44.28 28.68C44.29 28.68 44.26 28.72 44.3 28.68C44.33 28.64 44.31 28.66 44.31 28.66ZM46.37 28.58C46.38 28.55 46.4 28.57 46.4 28.58C46.39 28.61 46.37 28.59 46.37 28.58ZM44.32 29.63L44.33 29.54C44.42 29.53 44.41 29.59 44.46 29.6C44.43 29.63 44.39 29.64 44.32 29.63ZM44.3 29.39C44.39 29.31 44.47 29.36 44.6 29.35C44.6 29.39 44.56 29.4 44.56 29.44C44.47 29.39 44.39 29.45 44.3 29.39ZM44.86 29.67C44.81 29.67 44.81 29.64 44.76 29.64C44.68 29.63 44.68 29.71 44.57 29.67C44.55 29.59 44.56 29.58 44.61 29.53C44.73 29.6 44.89 29.62 45.06 29.58C45.04 29.65 44.91 29.62 44.86 29.67ZM44.98 29.32C45.04 29.32 45.05 29.34 45.08 29.36C45.09 29.4 44.93 29.38 44.98 29.32ZM45.31 29.74C45.21 29.72 45.11 29.69 45.11 29.6C45.18 29.61 45.21 29.57 45.25 29.54C45.36 29.53 45.32 29.62 45.43 29.61C45.44 29.71 45.31 29.66 45.31 29.74ZM45.46 29.38C45.46 29.36 45.5 29.37 45.52 29.36C45.51 29.38 45.48 29.37 45.46 29.38ZM45.62 29.63C45.61 29.62 45.64 29.6 45.65 29.61C45.66 29.63 45.63 29.64 45.62 29.63ZM45.66 29.33C45.74 29.26 45.71 29.46 45.66 29.33V29.33ZM45.78 29.63C45.77 29.62 45.8 29.6 45.81 29.61C45.82 29.62 45.79 29.64 45.78 29.63ZM46.6 30.51C46.59 30.5 46.62 30.48 46.63 30.49C46.64 30.5 46.6 30.51 46.6 30.51ZM50.31 29.12C50.46 29.04 50.4 29.25 50.31 29.12V29.12ZM50.26 29.04C50.26 29.06 50.23 29.05 50.2 29.06C50.21 29.04 50.24 29.05 50.26 29.04ZM50.1 29.05C50.09 29.08 50.07 29.06 50.07 29.05C50.08 29.02 50.1 29.03 50.1 29.05ZM47.67 28.6C47.78 28.68 47.9 28.58 48.05 28.62C48.07 28.61 48.1 28.61 48.11 28.58C48.23 28.64 48.42 28.66 48.58 28.71C48.65 28.72 48.69 28.71 48.72 28.68C48.79 28.74 48.97 28.74 49.03 28.81C49.17 28.74 49.29 28.8 49.44 28.74C49.49 28.76 49.48 28.81 49.57 28.8C49.61 28.85 49.56 28.83 49.56 28.89C49.77 28.88 49.79 29.02 49.95 28.98C49.96 29.08 49.78 28.97 49.75 29.03C49.63 29.03 49.53 28.95 49.4 28.99C49.35 28.98 49.36 28.92 49.3 28.91C49.22 28.92 49.01 28.93 48.93 28.84C48.76 28.91 48.55 28.78 48.39 28.85C48.3 28.86 48.34 28.78 48.29 28.77C48.23 28.77 48.17 28.78 48.15 28.83C48.1 28.79 48.03 28.77 47.97 28.74C47.87 28.77 47.72 28.73 47.59 28.72C47.54 28.71 47.5 28.69 47.49 28.66C47.43 28.64 47.4 28.72 47.41 28.63C47.52 28.63 47.63 28.66 47.67 28.6ZM47.43 29.01C47.41 29.04 47.4 29.01 47.41 28.98C47.42 28.94 47.43 28.98 47.43 29.01ZM47.03 28.7C46.97 28.68 46.97 28.61 46.91 28.59C46.99 28.53 47.07 28.58 47.18 28.6C47.17 28.68 47.04 28.62 47.03 28.7ZM47.2 28.65C47.28 28.54 47.33 28.73 47.2 28.65V28.65ZM45.86 29.66C45.88 29.63 45.88 29.66 45.91 29.67C45.9 29.7 45.86 29.68 45.86 29.66ZM48.14 30.51C48.23 30.5 48.22 30.56 48.27 30.57C48.25 30.62 48.11 30.57 48.14 30.51ZM48.24 30.55C48.2 30.43 48.29 30.43 48.34 30.42C48.4 30.44 48.39 30.52 48.4 30.57L48.24 30.55ZM50.23 29.78C50.15 29.72 50.01 29.7 49.89 29.72C49.85 29.67 49.9 29.69 49.9 29.63C49.78 29.64 49.69 29.68 49.62 29.74C49.52 29.69 49.23 29.64 49.19 29.74C49.14 29.63 49.04 29.8 49.04 29.65C48.99 29.65 48.97 29.69 48.9 29.68C48.93 29.62 48.85 29.63 48.83 29.6C48.75 29.59 48.63 29.67 48.56 29.59C48.5 29.59 48.5 29.65 48.44 29.65C48.33 29.58 48.2 29.69 48.12 29.59C47.93 29.63 47.66 29.6 47.46 29.68C47.4 29.68 47.36 29.66 47.36 29.62C47.27 29.67 47.19 29.58 47.07 29.59L47.08 29.54C46.96 29.59 46.85 29.52 46.75 29.55C46.7 29.55 46.68 29.52 46.68 29.49C46.64 29.49 46.63 29.53 46.59 29.53C46.46 29.48 46.32 29.51 46.19 29.51C46.06 29.42 46.02 29.51 45.9 29.43C45.92 29.3 46.14 29.28 46.26 29.35C46.31 29.26 46.58 29.29 46.64 29.37C46.73 29.3 46.88 29.3 46.96 29.22C47.05 29.21 47.07 29.25 47.09 29.3C47.22 29.26 47.32 29.2 47.47 29.25C47.5 29.25 47.49 29.22 47.5 29.21C47.59 29.24 47.57 29.22 47.66 29.25C47.66 29.3 47.65 29.32 47.6 29.31C47.7 29.38 47.72 29.38 47.83 29.43C47.88 29.44 47.91 29.43 47.92 29.39C47.97 29.45 48 29.44 48.1 29.43C48.1 29.37 48.32 29.33 48.2 29.3C48.22 29.24 48.32 29.3 48.27 29.36C48.35 29.27 48.44 29.42 48.57 29.37C48.64 29.37 48.65 29.42 48.7 29.43C48.75 29.41 48.83 29.42 48.82 29.32C48.91 29.32 49.02 29.29 49.06 29.37C49.18 29.32 49.33 29.41 49.46 29.42C49.48 29.49 49.46 29.5 49.42 29.56C49.45 29.65 49.51 29.58 49.57 29.63C49.69 29.63 49.73 29.54 49.85 29.54C49.88 29.53 49.91 29.52 49.91 29.48C49.96 29.5 49.98 29.47 50.02 29.47C50.1 29.48 50.1 29.54 50.17 29.56C50.29 29.55 50.34 29.51 50.47 29.57C50.35 29.6 50.29 29.7 50.23 29.78ZM50.44 29.13C50.47 29.09 50.54 29.06 50.58 29.1C50.55 29.13 50.51 29.15 50.44 29.13ZM50.59 29.22L50.6 29.15C50.68 29.13 50.67 29.27 50.59 29.22ZM50.81 29.18L50.82 29.11C50.87 29.08 51.02 29.1 51 29.18C51.06 29.3 51.02 29.24 51.03 29.26C51.03 29.25 51.03 29.24 51.03 29.24C51 29.24 50.87 29.21 50.81 29.18ZM51.02 29.25L50.91 29.24V29.23L50.92 29.21L50.93 29.17C50.94 29.15 50.94 29.13 50.94 29.1C50.94 29.06 50.93 29.02 50.93 28.98C50.91 28.9 50.89 28.83 50.9 28.72C50.94 28.73 50.95 28.7 50.95 28.67C51.04 28.71 51.03 28.85 51.04 28.95C51.04 28.97 51.08 29.02 51.08 29.04C51.09 29.1 51.04 29.24 51.06 29.24C51.02 29.24 51.06 29.24 51.05 29.24C51.02 29.25 51.02 29.25 51.02 29.25ZM51.74 28.94C51.78 29.04 51.73 29.07 51.79 29.16C51.72 29.29 51.85 29.35 51.73 29.42C51.76 29.65 51.51 29.83 51.32 29.93L51.28 29.82C51.35 29.81 51.36 29.76 51.34 29.71C51.37 29.69 51.41 29.72 51.44 29.67C51.45 29.64 51.45 29.61 51.43 29.59C51.45 29.53 51.52 29.6 51.55 29.56C51.6 29.43 51.58 29.3 51.69 29.1C51.7 29.05 51.63 29.06 51.66 28.99C51.73 28.93 51.68 28.7 51.77 28.68C51.77 28.74 51.8 28.88 51.74 28.94ZM51.03 28.32C51.03 28.45 50.97 28.49 50.97 28.61C50.84 28.6 50.96 28.36 50.89 28.3C50.89 28.2 50.93 28.15 51 28.15C50.95 28.24 51.01 28.24 51.03 28.32ZM51.11 27.62C51.08 27.61 51.09 27.56 51.12 27.57C51.13 27.6 51.14 27.62 51.11 27.62ZM51.07 27.56C51.03 27.64 51.06 27.76 51.03 27.91C51.04 27.97 51.06 28.08 51.01 28.12C50.97 28.09 50.99 28.01 50.9 28.03C50.88 27.9 50.87 27.86 50.91 27.71L50.96 27.72C50.97 27.61 51.02 27.54 51.02 27.4C51.11 27.38 51.02 27.54 51.07 27.56ZM51.1 27.05C51.11 27.17 51.04 27.2 51.03 27.28C50.96 27.19 50.94 27.1 51 26.95C51.06 26.96 51.04 27.05 51.1 27.05ZM49.37 25.18C49.25 25.19 49.18 25.17 49.07 25.22L49.06 25.29C48.97 25.29 49 25.22 48.94 25.2C48.97 25.13 48.99 25.23 49.05 25.21C49.04 25.14 49.04 25.16 49.06 25.09C49.14 25.12 49.14 25.06 49.22 25.08C49.18 25.17 49.47 25.07 49.51 25.16C49.54 25.25 49.36 25.22 49.37 25.18ZM49.91 25.22C49.86 25.22 49.83 25.21 49.84 25.16L49.92 25.17L49.91 25.22ZM50.64 24.14C50.61 24.17 50.55 24.16 50.5 24.17C50.54 24.14 50.58 24.07 50.64 24.14ZM50.12 24.13C50.2 24.13 50.13 24.22 50.19 24.23C50.14 24.27 49.98 24.21 49.98 24.14C50.07 24.11 50.12 24.22 50.12 24.13ZM49.96 24.13L49.95 24.18C49.9 24.18 49.87 24.17 49.88 24.12L49.96 24.13ZM49.75 24.06C49.79 24.08 49.83 24.1 49.82 24.16C49.73 24.19 49.73 24.13 49.64 24.12C49.65 24.07 49.76 24.13 49.75 24.06ZM49.07 24.74C49.09 24.67 49.13 24.63 49.17 24.59C49.22 24.66 49.28 24.61 49.41 24.64C49.51 24.62 49.58 24.67 49.68 24.62C49.69 24.66 49.81 24.63 49.81 24.68C49.96 24.65 50.05 24.66 50.27 24.68C50.34 24.69 50.46 24.63 50.49 24.68C50.52 24.68 50.51 24.65 50.52 24.64C50.55 24.65 50.54 24.69 50.54 24.71C50.61 24.7 50.68 24.69 50.74 24.66C50.92 24.68 51.02 24.7 51.09 24.65C51.15 24.65 51.19 24.67 51.22 24.69C51.25 24.69 51.25 24.65 51.26 24.62C51.32 24.63 51.37 24.66 51.38 24.71C51.41 24.71 51.45 24.68 51.41 24.67C51.53 24.62 51.56 24.71 51.61 24.73C51.59 24.76 51.62 24.77 51.56 24.81C51.56 24.83 51.58 24.82 51.61 24.79C51.6 24.81 51.6 24.83 51.55 24.87C51.52 24.87 51.5 24.85 51.46 24.9C51.4 24.98 51.51 24.9 51.46 24.96C51.42 24.98 51.43 24.97 51.41 24.98C51.42 24.98 51.42 24.98 51.42 24.98H51.41C51.46 24.98 51.39 24.98 51.41 24.98C51.41 24.98 51.43 24.98 51.43 24.97C51.49 24.95 51.53 24.95 51.59 24.94C51.51 24.96 51.55 24.97 51.52 24.98C51.55 24.98 51.6 24.99 51.66 25C51.64 25.05 51.59 25 51.57 24.99C51.54 24.98 51.55 25.05 51.61 25.05C51.6 25.08 51.57 25.07 51.54 25.07C51.53 25.13 51.6 25.11 51.6 25.16C51.58 25.23 51.55 25.28 51.51 25.31C51.55 25.38 51.52 25.51 51.55 25.59C51.56 25.66 51.5 25.64 51.47 25.66C51.49 25.78 51.42 25.94 51.4 26.08C51.4 26.11 51.44 26.11 51.47 26.12C51.4 26.26 51.41 26.4 51.28 26.5L51.27 26.61L51.2 26.6C51.23 26.7 51.16 26.7 51.13 26.78C51.02 26.72 51.1 26.48 51.06 26.37C51.1 26.26 51.07 26.26 51.09 26.13C51.15 25.93 51.15 25.78 51.1 25.62C51.14 25.46 51.14 25.39 51.07 25.29C51.09 25.23 51.1 25.15 51.1 25.07V25.01V24.98V24.97L51.4 24.99C51.4 24.99 51.41 24.99 51.42 24.99C51.43 24.99 51.43 24.99 51.42 24.99V25C51.42 25.01 51.42 25.02 51.42 25.02L51.39 25.38H51.38H51.37H51.35H51.3C51.23 25.37 51.17 25.35 51.08 25.32C50.82 25.37 50.68 25.3 50.46 25.27C50.42 25.26 50.41 25.28 50.4 25.31C50.37 25.26 50.23 25.29 50.19 25.24C50.17 25.28 50.03 25.21 50.05 25.3C49.99 25.27 49.96 25.22 49.93 25.17C49.96 25.11 50.05 25.13 50.05 25.04C50.07 25.06 50.12 25.06 50.12 25.1C50.22 25.04 50.34 25 50.51 25.02C50.5 25.09 50.55 25.1 50.57 25.19C50.65 25.2 50.62 25.08 50.67 25.06C50.76 25.05 50.75 25.11 50.8 25.12C50.98 25.13 51.01 25.13 51.15 25.14C51.11 25.07 51.12 24.97 51.1 24.9C51.03 25 50.8 24.81 50.72 24.93C50.62 24.84 50.45 24.96 50.37 24.89C50.34 24.9 50.31 24.91 50.31 24.95C50.17 24.82 49.92 25.02 49.78 24.87C49.72 24.86 49.74 24.93 49.69 24.93C49.56 24.87 49.41 24.89 49.38 25.01C49.25 25 49.17 24.99 49 24.99C49.01 24.97 49.03 24.97 49.03 24.95C48.93 24.99 48.9 24.93 48.82 24.9C48.85 24.78 48.97 24.77 49.07 24.74ZM48.41 24.86C48.54 24.92 48.65 24.87 48.79 24.86C48.73 24.97 48.66 24.95 48.51 24.92C48.46 24.91 48.47 24.98 48.4 24.95L48.41 24.86ZM48.3 24.89C48.31 24.9 48.28 24.92 48.27 24.91C48.26 24.9 48.29 24.89 48.3 24.89ZM47.79 25.1C47.97 25.17 48.02 25.09 48.2 25.1C48.23 25.13 48.27 25.15 48.24 25.22C48.3 25.26 48.36 25.16 48.37 25.24C48.41 25.23 48.36 25.21 48.38 25.17C48.5 25.17 48.62 25.17 48.71 25.14C48.7 25.18 48.74 25.19 48.73 25.24C48.62 25.19 48.47 25.3 48.34 25.31C48.25 25.31 48.25 25.26 48.16 25.27C47.96 25.32 47.83 25.28 47.63 25.21C47.64 25.13 47.74 25.14 47.79 25.1ZM47.51 25.14C47.48 25.22 47.38 25.23 47.26 25.21C47.31 25.14 47.41 25.14 47.51 25.14ZM47.18 25.22C47.15 25.21 47.13 25.18 47.14 25.14C47.23 25.13 47.22 25.19 47.18 25.22ZM46.76 25.12C46.81 25.12 46.88 25.11 46.92 25.12C46.98 25.13 46.96 25.19 47.08 25.16C47.04 25.22 46.86 25.23 46.81 25.2C46.74 25.22 46.69 25.22 46.63 25.16C46.64 25.07 46.7 25.12 46.76 25.12ZM46.54 25.12C46.55 25.13 46.52 25.15 46.51 25.14C46.5 25.13 46.53 25.12 46.54 25.12ZM46.22 23.32L46.27 23.33L46.26 23.38L46.21 23.37L46.22 23.32ZM46.19 23.32C46.18 23.34 46.16 23.34 46.16 23.36C46.13 23.35 46.11 23.32 46.12 23.28C46.16 23.29 46.16 23.32 46.19 23.32ZM43.63 28.55C43.57 28.63 43.58 28.44 43.58 28.38C43.67 28.39 43.58 28.55 43.63 28.55ZM44.66 23.91C44.65 24 44.59 23.94 44.58 23.87C44.62 23.86 44.63 23.9 44.66 23.91ZM44.32 25.07L44.33 25.02L44.38 25.03L44.37 25.08L44.32 25.07ZM44.96 25.09C45.05 24.98 44.99 24.76 45.08 24.64C45.08 24.56 45.05 24.5 45 24.47C44.86 24.44 44.77 24.42 44.67 24.4C44.66 24.4 44.67 24.4 44.67 24.4C44.68 24.4 44.67 24.4 44.67 24.4C44.67 24.4 44.67 24.39 44.67 24.4C44.66 24.59 44.66 24.72 44.66 24.84C44.71 24.83 44.78 24.84 44.84 24.85C44.97 24.87 45.09 24.91 45.17 24.94C45.12 25.02 45.24 24.99 45.21 25.06C45.27 25.06 45.38 24.96 45.43 25.04C45.53 25.01 45.59 24.95 45.73 24.98C45.73 25.04 45.6 25.08 45.68 25.14C45.5 25.16 45.29 25.11 45.12 25.08C45.05 25.07 45.01 25.1 45 25.16C44.95 25.11 44.95 25.17 44.87 25.14C44.84 25.09 44.78 25.06 44.72 25.03L44.63 25L44.68 24.4C44.68 24.39 44.68 24.39 44.68 24.39C44.68 24.39 44.69 24.4 44.68 24.4H44.67C44.67 24.4 44.66 24.4 44.68 24.4H44.69C44.86 24.42 45.03 24.44 45.21 24.45L45.2 24.48C45.18 24.52 45.16 24.57 45.13 24.61C45.13 24.84 45.03 25.08 45 25.3C44.93 25.26 45.01 25.18 44.96 25.09ZM44.97 25.44C44.98 25.43 45 25.46 44.99 25.47C44.98 25.48 44.96 25.45 44.97 25.44ZM44.35 25.45C44.38 25.46 44.36 25.5 44.36 25.53C44.34 25.52 44.35 25.48 44.35 25.45ZM44.94 25.68C44.97 25.73 44.95 25.85 44.87 25.83C44.9 25.78 44.86 25.65 44.94 25.68ZM44.37 25.94C44.36 25.97 44.33 25.99 44.29 25.99C44.3 25.95 44.33 25.93 44.37 25.94ZM43.83 30.33C43.83 30.3 43.83 30.27 43.75 30.25C43.63 30.29 43.74 30.41 43.83 30.5C43.94 30.53 44.04 30.55 44.14 30.56L44.16 30.29C44.04 30.29 43.92 30.29 43.83 30.33Z" fill="#1E1E1E"/><path d="M70.92 36.1H1V71.06H70.92V36.1Z" fill="#6CBAAB"/><path d="M27.91 60.3C27.87 60.27 27.83 60.2 27.81 60.21C27.84 60.25 27.89 60.31 27.91 60.3ZM28 60.16C27.79 60.01 27.64 59.57 27.49 59.59C27.63 59.8 28.03 60.31 28.13 60.45C28.17 60.4 28.09 60.28 28 60.16ZM26.87 58.63C27.11 58.88 26.98 58.95 27.18 59.25C27.23 59.11 27.03 58.68 26.87 58.63ZM26.35 58.22C26.35 58.24 26.4 58.3 26.4 58.27C26.4 58.25 26.35 58.18 26.35 58.22ZM25.51 55.76C25.53 55.69 25.59 55.69 25.57 55.56C25.48 55.37 25.5 55.25 25.44 54.99C25.44 54.87 25.58 55.06 25.5 54.92C25.4 54.86 25.35 54.47 25.43 54.34C25.38 54.31 25.27 53.75 25.41 53.82C25.42 53.5 25.34 53.49 25.29 53.36C25.28 53.21 25.36 52.86 25.27 52.9C25.17 53.15 25.27 53.25 25.21 53.62C25.25 53.62 25.27 53.67 25.29 53.76C25.26 53.77 25.26 53.83 25.25 53.89C25.33 54.03 25.26 54.22 25.34 54.41C25.34 54.49 25.31 54.5 25.32 54.6C25.39 54.79 25.48 55.15 25.38 55.25C25.46 55.58 25.46 55.86 25.57 56.01C25.54 56.02 25.5 56.01 25.52 56.08C25.57 56.1 25.59 56.73 25.7 56.51C25.57 56.29 25.65 56.05 25.51 55.76ZM25.65 55.74C25.57 55.91 25.77 55.89 25.65 55.74V55.74ZM40.75 43.9C40.74 43.89 40.65 43.87 40.68 43.89C40.69 43.91 40.78 43.93 40.75 43.9ZM25.51 53.96C25.47 53.96 25.43 53.95 25.44 54.09C25.49 54.09 25.5 54.03 25.51 53.96ZM33.05 61.47C33.04 61.46 32.97 61.45 32.99 61.47C33.01 61.49 33.07 61.49 33.05 61.47ZM43.33 44.16C43.32 44.14 43.23 44.1 43.26 44.13C43.27 44.15 43.35 44.19 43.33 44.16ZM41.23 44.13C41.24 44.05 41.46 44.2 41.35 44.07C41.42 44.08 41.56 44.19 41.56 44.12C41.35 43.9 41.18 43.98 40.97 43.92C40.84 43.85 40.77 43.84 40.76 43.89C40.94 44.01 41 43.98 41.23 44.13ZM25.91 56.6C25.86 56.19 25.75 56.31 25.91 56.6V56.6ZM26.88 59.12L26.96 59.08C26.83 58.9 26.69 58.72 26.58 58.62L26.88 59.12ZM27.44 59.84C27.36 59.84 27.48 59.97 27.44 59.99C27.59 60.17 27.77 60.44 27.9 60.46C27.78 60.29 27.7 60.23 27.64 60.01C27.59 60.04 27.49 59.85 27.44 59.84ZM26.24 57.51C26.24 57.53 26.28 57.6 26.28 57.56C26.29 57.54 26.25 57.47 26.24 57.51ZM26.2 57.79C26.13 57.81 26.16 58.13 26.29 58.1C26.19 57.92 26.25 57.91 26.2 57.79ZM26.27 57.17C26.11 56.82 26.1 56.53 25.95 56.47C25.93 56.8 26.21 57.17 26.27 57.37C26.27 57.3 26.2 57.14 26.27 57.17ZM25.82 56.95C25.9 57.22 25.88 57.15 25.95 57.39C26.06 57.4 26.03 57.68 26.13 57.68C26.04 57.44 26.07 57.36 25.98 57.12C25.93 57.19 25.88 56.92 25.82 56.95ZM29.38 59.36C29.44 59.41 29.54 59.59 29.58 59.55L29.47 59.43C29.43 59.4 29.4 59.35 29.38 59.36ZM43.31 60C43.42 59.88 43.42 59.94 43.47 59.83L43.44 59.8C43.33 59.86 43.39 59.86 43.28 59.97L43.31 60ZM43.42 59.62C43.46 59.57 43.5 59.57 43.49 59.53C43.48 59.51 43.41 59.58 43.42 59.62ZM26.68 52.86C26.63 52.79 26.6 52.85 26.55 52.72C26.48 52.88 26.47 52.88 26.48 53.18C26.55 53.13 26.61 53.07 26.68 53.03V52.86ZM43.64 59.57C43.66 59.53 43.66 59.47 43.62 59.55C43.61 59.57 43.59 59.58 43.58 59.6C43.54 59.67 43.6 59.64 43.64 59.57ZM42.5 60.7C42.53 60.67 42.59 60.62 42.57 60.6C42.55 60.63 42.49 60.68 42.5 60.7ZM42.42 60.78L42.39 60.74L42.3 60.82L42.33 60.86L42.42 60.78ZM25.91 55.58C25.91 55.56 25.89 55.49 25.88 55.52C25.87 55.54 25.9 55.61 25.91 55.58ZM27.93 60.36C28.02 60.45 28.12 60.56 28.16 60.51C28.05 60.39 28 60.39 27.93 60.36ZM25.95 55.76C25.95 55.74 25.92 55.67 25.91 55.7C25.91 55.72 25.94 55.8 25.95 55.76ZM44.14 48.27C44.09 48.32 44.11 48.09 44.03 48.13C44.06 48.23 44.18 48.45 44.14 48.27ZM29.01 61.29C29.02 61.36 29.14 61.47 29.19 61.56C29.27 61.42 28.97 61.17 28.8 60.97C28.69 61.03 28.71 61.14 28.83 61.29C28.92 61.35 28.91 61.2 29.01 61.29ZM27.3 56.01C27.32 56 27.31 55.91 27.27 55.9C27.24 55.91 27.27 55.96 27.3 56.01ZM28.26 60.92C28.41 61.06 28.32 61.09 28.43 61.2C28.54 61.14 28.6 61.38 28.72 61.47C28.93 61.51 29.12 61.8 29.34 61.86C29.17 61.7 29.13 61.54 28.88 61.32C28.72 61.31 28.37 60.89 28.26 60.92ZM26.89 52.15C26.95 52.03 26.99 51.9 26.95 51.76C26.88 51.98 26.85 52.02 26.84 52.31C26.77 52.35 26.69 52.75 26.8 52.76C26.86 52.63 26.87 52.32 26.89 52.15ZM26.53 52.43C26.51 52.43 26.48 52.52 26.51 52.54C26.52 52.47 26.56 52.46 26.53 52.43ZM27.39 50.01L27.31 50.22C27.37 50.26 27.49 50.01 27.39 50.01ZM45.17 54.44C45.18 54.3 45.18 54.17 45.21 54.1C45.19 54.01 45.16 53.93 45.13 53.86C45.16 53.73 45.15 53.66 45.14 53.57H44.91C44.91 53.62 44.9 53.67 44.9 53.73C44.9 53.8 44.94 53.78 44.94 53.84C44.88 54.03 44.97 54.1 44.96 54.34C44.9 54.58 44.93 54.8 44.83 55.1C44.86 55.13 44.87 55.18 44.85 55.27C44.79 55.57 44.76 55.77 44.74 55.99C44.64 56.24 44.63 56.48 44.49 56.6C44.43 56.75 44.48 56.78 44.42 56.93C44.3 57.11 44.19 57.34 44.11 57.59C44.07 57.61 44.02 57.62 43.98 57.61C43.9 57.68 43.81 57.9 43.73 57.84C43.66 58.02 43.65 57.94 43.54 58.1C43.57 58.36 43.13 58.86 42.98 59.18C42.92 59.26 42.88 59.28 42.84 59.28C42.69 59.53 42.44 59.74 42.19 60.02C41.96 60.11 41.79 60.38 41.54 60.52C41.46 60.49 41.67 60.39 41.61 60.34C41.43 60.49 41.37 60.39 41.14 60.6C41.06 60.61 40.96 60.66 40.85 60.73C40.83 60.83 40.68 60.83 40.56 60.96C40.43 61.06 40.38 61.04 40.27 61.1C40.29 61.13 40.26 61.18 40.21 61.22C40.14 61.22 40.01 61.27 39.93 61.25C39.69 61.38 39.54 61.39 39.38 61.43C39.26 61.49 39.24 61.52 39.15 61.57C39.1 61.53 38.95 61.59 38.83 61.61C38.68 61.7 38.63 61.69 38.44 61.77C38.22 61.76 37.79 61.84 37.52 61.93C37.54 61.85 37.28 61.94 37.26 61.89C37.11 61.9 37.11 61.96 36.96 61.98C36.44 61.91 35.77 62.04 35.32 61.89C35.19 61.89 35.15 61.96 35 61.93C34.92 61.88 34.7 61.9 34.49 61.85C34.27 61.78 33.89 61.69 33.64 61.64C33.5 61.6 33.3 61.41 33.21 61.47C33.2 61.57 33.47 61.66 33.43 61.75L33.04 61.6C32.91 61.44 32.84 61.41 32.63 61.26C32.32 61.17 32.1 61 31.82 60.92C31.75 60.85 31.68 60.79 31.58 60.72C31.48 60.71 31.38 60.68 31.23 60.59C31.08 60.41 31 60.35 30.71 60.16C30.58 60.03 30.32 59.79 30.21 59.65C30.15 59.67 30.02 59.56 29.94 59.49C29.92 59.4 29.7 59.23 29.81 59.2C29.64 59.05 29.67 59.04 29.56 58.88C29.49 58.8 29.45 58.84 29.38 58.76C29.35 58.65 29.18 58.59 29.06 58.36C29.01 58.33 28.97 58.4 28.91 58.27C28.99 58.24 28.81 58.11 28.8 57.98C28.69 57.86 28.54 57.66 28.43 57.53C28.4 57.36 28.24 57.08 28.19 56.9C28.08 56.8 28.1 56.73 28.02 56.57C27.93 56.51 27.84 56.48 27.76 56.32C27.81 56.26 27.78 56.13 27.82 56.04C27.73 55.73 27.53 55.36 27.6 55.03C27.47 54.83 27.56 54.63 27.54 54.36C27.43 54.19 27.44 53.89 27.47 53.63C27.46 53.22 27.49 52.91 27.58 52.5C27.59 52.38 27.52 52.39 27.55 52.23C27.56 52.09 27.62 51.69 27.72 51.53C27.7 51.18 27.98 50.79 28.03 50.43C28.08 50.43 28.13 50.19 28.2 50.11C28.3 49.8 28.48 49.47 28.63 49.34C28.67 49.23 28.72 49.11 28.76 48.99C29.02 48.56 29.23 48.28 29.59 47.92C29.81 47.77 29.79 47.75 30 47.52C30.1 47.45 30.17 47.42 30.29 47.3C30.35 47.16 30.59 46.96 30.82 46.81C30.84 46.84 30.87 46.84 30.9 46.84C31.18 46.62 31.41 46.53 31.67 46.34C31.65 46.48 31.86 46.29 31.93 46.3C31.9 46.23 31.97 46.16 32.06 46.1C32.4 46.03 32.75 45.67 32.97 45.76C33.14 45.71 33.11 45.63 33.23 45.57C33.26 45.62 33.45 45.51 33.49 45.56C33.71 45.47 33.66 45.44 33.92 45.38C34.07 45.34 34.08 45.4 34.23 45.35C34.3 45.31 34.36 45.31 34.43 45.32C34.43 45.29 34.44 45.26 34.53 45.26C34.65 45.24 34.78 45.22 34.84 45.24C34.88 45.2 34.91 45.15 35.04 45.14C35.06 45.18 35.3 45.14 35.4 45.15C35.56 45.09 35.63 45.11 35.87 45.11C35.98 45.06 36.03 45.06 36.18 45.1C36.28 45.11 36.25 45.04 36.39 45.07C36.87 45.12 37.17 45.11 37.6 45.13C37.99 45.24 38.22 45.32 38.57 45.37C38.8 45.55 38.92 45.48 39.2 45.63C39.49 45.6 39.67 45.8 40.08 45.9C40 45.93 40.16 45.99 40.23 46.05C40.18 46.11 40.36 46.2 40.4 46.27C40.48 46.22 40.78 46.44 40.9 46.48C40.95 46.54 40.99 46.59 41.04 46.65C41.05 46.58 41.16 46.68 41.21 46.69C41.28 46.84 41.45 46.84 41.56 46.94C41.63 47.04 41.67 47.03 41.72 47.16C41.77 47.12 41.94 47.29 41.97 47.36C42.01 47.36 42.06 47.37 42.12 47.44C42.33 47.69 42.4 47.78 42.63 48.05C42.7 48.12 42.75 48.13 42.83 48.24C42.87 48.3 42.85 48.32 42.9 48.38C43.01 48.45 43.02 48.47 43.06 48.59C43.22 48.69 43.36 48.98 43.51 49.13C43.63 49.37 43.63 49.34 43.74 49.61C43.86 49.72 43.98 50.05 44.1 50.16C44.11 50.36 44.27 50.61 44.36 50.76C44.39 50.96 44.49 51.06 44.55 51.27C44.64 51.58 44.67 51.78 44.66 52.02C44.75 52.19 44.82 52.58 44.81 52.82C44.87 53 44.9 53.27 44.91 53.59H45.14C45.12 53.5 45.1 53.4 45.11 53.2C45.05 53.05 45.05 52.81 45.01 52.59C45 52.36 44.96 52.06 44.98 51.87C44.93 51.65 44.82 51.49 44.75 51.29C44.72 51.15 44.66 50.98 44.72 50.96C44.59 50.68 44.64 50.58 44.61 50.35C44.54 50.34 44.48 50.11 44.41 50C44.38 49.93 44.4 49.92 44.36 49.84C44.21 49.67 44.03 49.09 43.91 49C43.94 49.06 43.97 49.12 43.92 49.12C43.77 48.96 43.85 48.93 43.81 48.8C43.73 48.69 43.65 48.59 43.56 48.43C43.49 48.2 43.22 47.99 43.26 47.82C43.44 48.05 43.56 48.06 43.73 48.27C43.79 48.46 43.96 48.61 44.09 48.86C44.25 48.97 44.4 49.21 44.54 49.42C44.52 49.48 44.6 49.58 44.5 49.5C44.57 49.67 44.62 49.59 44.69 49.8C44.74 49.93 44.66 49.92 44.73 50.09C44.77 50.11 44.8 50.13 44.84 50.18C44.93 50.4 45.14 50.71 45.15 50.88C45.21 50.96 45.27 51.08 45.33 51.2C45.34 51.46 45.53 51.75 45.44 51.96C45.53 52.06 45.54 52.47 45.63 52.6C45.5 52.77 45.71 53.14 45.59 53.31L45.69 53.62H45.77V53.61C45.7 53.48 45.63 52.99 45.72 52.83C45.82 52.84 45.76 53.29 45.79 53.49C45.79 53.55 45.8 53.58 45.81 53.61H46.64C46.64 53.48 46.65 53.35 46.65 53.22C46.59 53.1 46.57 53.02 46.57 52.89C46.57 52.65 46.54 52.28 46.47 52.05C46.48 51.72 46.23 50.94 46.18 50.52C46.14 50.46 46.08 50.36 46.03 50.29C46.07 50.14 45.92 49.93 45.84 49.74C45.82 49.62 45.84 49.55 45.8 49.41C45.73 49.22 45.69 49.32 45.62 49.13C45.38 48.5 44.72 47.64 44.47 47.18C44.38 47.16 44.23 46.85 44.09 46.73C44.05 46.72 44 46.71 43.95 46.67C43.81 46.43 43.61 46.21 43.28 45.89C43.22 45.83 43.21 45.88 43.15 45.83C43.05 45.67 42.88 45.53 42.74 45.42C42.89 45.37 42.66 45.31 42.72 45.25C42.9 45.36 42.78 45.38 42.87 45.47C42.89 45.32 43.01 45.5 43.13 45.58C43.16 45.6 43.18 45.53 43.26 45.64C43.42 45.77 43.42 45.84 43.51 45.94C43.54 45.9 43.61 45.92 43.7 46.03C43.74 46.11 43.8 46.2 43.82 46.27C44.02 46.45 44.03 46.44 44.23 46.7C44.42 46.85 44.6 47.04 44.75 47.07C44.71 47.14 44.9 47.37 44.94 47.49C44.99 47.56 45.01 47.55 45.07 47.65C45.09 47.74 45.14 47.84 45.14 47.91C45.34 48.2 45.27 48.2 45.49 48.47C45.55 48.66 45.6 48.85 45.72 49.02L45.65 49.05C45.7 49.18 45.92 49.34 45.82 49.4C45.89 49.62 45.96 49.53 46.02 49.75C46.07 49.86 46.04 49.89 46.08 50C46.19 50.14 46.29 50.5 46.36 50.67C46.28 50.72 46.44 50.91 46.41 51.06C46.61 51.4 46.62 51.9 46.73 52.22C46.79 52.48 46.75 52.6 46.76 52.81C46.8 52.9 46.82 53.08 46.87 53.14C46.85 53.29 46.85 53.45 46.86 53.59H47.13C47.12 53.36 47.1 53.15 47.06 53.01C47.15 52.88 47.04 52.55 47.12 52.4C47.04 52.14 47.03 51.81 47.03 51.59C46.97 51.44 46.99 51.68 46.95 51.53C46.93 51.42 47.01 51.49 47 51.39C46.93 51.32 46.92 51.04 46.89 50.92C46.86 50.91 46.83 50.94 46.8 50.87C46.85 50.72 46.69 50.48 46.7 50.26C46.58 50.23 46.46 49.76 46.34 49.58C46.27 49.6 46.2 49.6 46.14 49.36C46.18 49.32 46.23 49.46 46.28 49.39C46.22 49.13 46.18 49.4 46.11 49.23L46.08 49C45.89 48.72 45.73 48.43 45.53 48.21C45.48 48.08 45.56 48.07 45.44 47.88C45.2 47.56 44.9 47.14 44.65 46.79C44.59 46.8 44.52 46.79 44.43 46.69C44.43 46.57 44.25 46.39 44.22 46.27C44.13 46.4 43.8 45.92 43.64 45.87C43.54 45.68 43.38 45.61 43.12 45.36C43.03 45.27 43.03 45.21 42.91 45.1C42.75 45.12 42.47 44.84 42.31 44.67C42.28 44.69 42.27 44.75 42.2 44.7C42.08 44.59 42.05 44.57 41.97 44.45C41.73 44.36 41.7 44.3 41.48 44.23C41.58 44.32 41.73 44.42 41.7 44.48C41.32 44.25 41.71 44.54 41.63 44.57C41.51 44.54 41.29 44.38 41.12 44.28C41.2 44.16 40.9 44.08 40.66 43.91C40.51 43.87 40.46 43.94 40.3 43.89C40.26 43.83 40.24 43.78 40.17 43.72C40.17 43.77 40 43.64 40 43.62L39.63 43.48C39.48 43.33 38.99 43.19 38.8 43.08C38.56 43.07 38.33 42.93 38.04 42.84C37.87 42.8 37.96 42.92 37.76 42.87C37.53 42.76 37.78 42.68 37.71 42.53C37.54 42.45 37.46 42.36 37.27 42.29C37.06 42.29 36.69 42.29 36.44 42.22C36.16 42.2 36.05 42.22 35.75 42.22C35.61 42.2 35.55 42.16 35.34 42.17C35.37 42.24 35.16 42.24 35.06 42.28C34.66 42.26 34.56 42.38 34.31 42.43C34.09 42.43 34.13 42.46 33.97 42.45C33.83 42.52 33.7 42.59 33.45 42.67C33.01 42.71 32.77 42.88 32.48 43.03C32.3 43.07 32.22 43.05 32.07 43.07C32.06 43.1 31.98 43.16 31.95 43.14C31.74 43.22 31.75 43.28 31.53 43.38C31.44 43.28 31.18 43.51 30.9 43.62C30.9 43.7 30.84 43.78 30.71 43.87C30.25 44.1 30.24 44.24 29.88 44.45C29.89 44.49 29.88 44.54 29.82 44.61C29.46 44.74 29.03 45.15 28.85 45.42C28.78 45.44 28.75 45.39 28.64 45.48C28.58 45.58 28.56 45.66 28.45 45.77C28.36 45.8 28.22 45.95 28.11 46.08C27.98 46.25 27.91 46.3 27.84 46.47C27.81 46.46 27.75 46.53 27.69 46.6C27.67 46.7 27.46 46.92 27.45 47.09C27.33 47.25 27.36 47.31 27.27 47.45C27.23 47.43 27.16 47.64 27.05 47.77C27.03 47.76 27.07 47.67 27.01 47.74C27.03 47.79 26.83 47.96 26.78 47.98C26.65 48.24 26.54 48.27 26.42 48.53C26.41 48.68 26.3 48.93 26.16 49.21C26.14 49.34 26.11 49.52 26.04 49.73C26.02 49.7 26.03 49.62 25.98 49.63C25.86 49.99 25.67 50.42 25.57 50.67C25.59 50.71 25.59 50.77 25.56 50.88C25.41 51.1 25.48 51.22 25.38 51.51C25.4 51.66 25.38 51.89 25.39 52.05C25.36 52.27 25.26 52.66 25.35 52.7C25.39 52.55 25.42 52.16 25.49 52C25.51 51.83 25.41 51.89 25.44 51.72C25.51 51.73 25.56 51.58 25.62 51.5C25.67 51.24 25.52 51.3 25.6 51.02C25.7 51.07 25.77 50.77 25.87 50.84C25.89 50.89 25.9 50.96 25.89 51.05C25.76 51.25 25.79 51.39 25.77 51.67C25.68 51.6 25.67 51.98 25.59 52.02C25.51 52.48 25.37 53.02 25.52 53.17C25.6 52.93 25.49 52.31 25.68 52.23C25.62 52.58 25.57 52.77 25.66 52.93C25.64 53.07 25.59 53.25 25.63 53.37C25.59 53.4 25.53 53.39 25.51 53.49C25.59 53.63 25.57 53.87 25.6 54.07C25.68 54.13 25.67 53.97 25.71 53.95C25.69 54.22 25.8 54.12 25.82 54.27C25.71 54.4 25.86 54.44 25.86 54.64C25.76 54.66 25.84 55.03 25.7 54.83C25.7 54.97 25.75 55.26 25.72 55.47C25.75 55.57 25.8 55.56 25.83 55.71C25.8 55.72 25.78 55.74 25.81 55.84C25.87 55.76 25.81 55.42 25.92 55.38C25.92 55.27 25.81 55.13 25.88 55.07C25.95 55.16 25.92 55.34 25.96 55.5C25.98 55.57 26.02 55.61 26.04 55.68C26.07 55.8 26 55.81 26.05 55.93C26.1 55.98 26.15 56.01 26.18 56.16C26.19 56.41 26.33 56.73 26.45 56.98C26.36 57.01 26.53 57.35 26.53 57.48C26.55 57.49 26.57 57.47 26.6 57.52C26.74 57.77 26.88 58.08 26.99 58.03C26.89 57.83 26.8 57.65 26.92 57.66C27.07 57.93 26.99 57.98 27.13 58.16C27.11 58.19 27.14 58.27 27.12 58.3C27.24 58.5 27.24 58.57 27.34 58.74C27.47 58.96 27.89 59.5 28 59.78C28.11 59.91 28.22 60.02 28.35 60.14C28.47 60.31 28.66 60.51 28.86 60.72C29.08 60.91 29.31 61.12 29.5 61.34C29.58 61.37 29.7 61.44 29.82 61.53C30.53 62.15 31.35 62.57 32.44 63C32.56 63.09 32.67 63.14 32.83 63.2C32.91 63.24 33.06 63.25 33.13 63.27C33.22 63.3 33.21 63.35 33.35 63.38C33.61 63.38 33.86 63.43 34.28 63.5C34.42 63.53 34.37 63.6 34.57 63.62C34.96 63.73 35.21 63.66 35.44 63.66C35.56 63.66 35.57 63.69 35.68 63.7C35.83 63.71 36.02 63.66 36.18 63.71C36.15 63.84 35.74 63.8 35.54 63.83C35.61 63.74 35.37 63.75 35.24 63.72C35.01 63.72 34.9 63.78 34.66 63.75C34.44 63.6 34.07 63.69 33.84 63.68C33.83 63.64 33.76 63.61 33.81 63.57C33.39 63.49 33.12 63.3 32.9 63.32L32.92 63.28C32.65 63.22 32.6 63.21 32.3 63.15C32.21 63.18 32.1 63.2 31.94 63.17C31.83 63.12 31.88 63.08 31.69 62.97C31.63 63 31.54 62.99 31.42 62.94C31.35 62.82 31.33 62.89 31.14 62.8C31.2 62.79 31.08 62.66 31.05 62.7C31.17 62.75 31 62.76 30.96 62.73C30.75 62.62 30.44 62.39 30.62 62.44C30.77 62.53 30.68 62.57 30.92 62.68L31 62.56C30.66 62.39 30.47 62.24 30.25 62C30.19 62.11 29.89 61.84 29.85 61.99C30.09 62.19 30.24 62.17 30.37 62.36C30.16 62.51 29.63 61.83 29.42 61.9C29.7 62.12 29.88 62.34 30.16 62.53C30.59 62.77 31.05 62.9 31.52 63.19C31.59 63.18 31.72 63.25 31.83 63.29C32.21 63.48 32.59 63.67 32.94 63.83C32.94 63.77 33 63.74 33.16 63.79C33.28 63.93 33.59 63.9 33.79 63.94C33.97 64 33.97 64.06 34.22 64.09C34.34 64.09 34.49 64.1 34.56 64.07C35.3 64.15 36.01 64.22 37.02 64.13C37.1 64.05 37.63 63.99 37.73 64.04C37.67 63.96 38.03 63.97 38.17 63.93C38.29 63.91 38.34 63.94 38.49 63.9C38.65 63.87 38.68 63.82 38.8 63.78C38.94 63.8 39.25 63.62 39.43 63.62C39.45 63.58 39.5 63.55 39.6 63.51C39.67 63.57 39.93 63.39 40.11 63.4C40.33 63.27 40.67 63.03 40.87 63.02C41.01 62.96 40.98 62.93 41.15 62.85C41.28 62.77 41.33 62.79 41.5 62.67C41.61 62.6 41.54 62.57 41.7 62.5C42.26 62.23 42.53 61.95 43.08 61.54C43.34 61.25 43.57 61.1 43.76 60.93C43.81 60.86 43.82 60.81 43.92 60.72C44.07 60.58 44.16 60.57 44.33 60.39C44.4 60.23 44.45 60.1 44.58 59.91C44.75 59.66 44.89 59.6 45.03 59.36C45.48 58.56 45.76 58.12 45.92 57.4C45.8 57.38 45.93 57.06 45.8 57.06L45.78 57.08L45.89 56.78C46 56.89 46.11 56.57 46.2 56.49C46.25 56.28 46.26 56.12 46.23 56.02C46.3 55.91 46.25 55.94 46.3 55.77C46.35 55.81 46.39 55.79 46.43 55.74C46.44 55.57 46.51 55.52 46.54 55.37C46.59 55.14 46.57 54.87 46.61 54.65C46.62 54.5 46.67 54.43 46.68 54.27C46.64 54.01 46.66 53.79 46.69 53.56H45.86C45.86 53.58 45.87 53.59 45.87 53.62C45.8 53.82 45.92 53.86 45.84 54.04C45.77 54.02 45.82 53.74 45.82 53.56H45.74C45.75 53.61 45.76 53.66 45.76 53.73C45.72 53.82 45.76 54.03 45.73 54.26C45.73 54.34 45.77 54.32 45.77 54.39C45.73 54.57 45.68 55.26 45.64 55.65C45.56 55.8 45.42 56.13 45.51 56.24C45.54 56.11 45.58 56.06 45.62 56.09C45.59 56.26 45.55 56.66 45.45 56.67C45.42 56.61 45.55 56.34 45.45 56.35C45.35 56.54 45.32 56.92 45.17 57.14C45.19 57.29 45.14 57.5 45.08 57.69L45.03 57.73C44.91 58.25 44.29 59.06 43.81 59.76C43.67 59.89 43.42 60.18 43.25 60.31C43.15 60.42 43.15 60.47 43.08 60.57C42.85 60.69 42.66 60.97 42.45 61.04C42.35 61.31 41.83 61.49 41.61 61.74C41.45 61.82 41.23 61.93 41.09 62.05C41.03 62.02 40.87 62.12 40.75 62.17C40.4 62.37 40.29 62.48 39.99 62.53C39.98 62.57 39.94 62.61 39.84 62.65C39.78 62.63 39.73 62.61 39.59 62.66C39.25 62.83 39.07 62.93 38.64 63.06C38.53 63.06 38.19 63.18 38.1 63.1C37.89 63.14 37.97 63.21 37.76 63.23C37.68 63.15 37.21 63.29 37.1 63.23C37.07 63.33 36.47 63.37 36.39 63.29C36.48 63.25 36.57 63.21 36.69 63.18C37.26 63.17 37.37 63.06 37.8 63.05C37.89 63.03 37.94 63 38.03 62.96C38.21 62.94 38.27 62.91 38.49 62.89C38.73 62.82 38.88 62.81 39.01 62.8C39.07 62.71 39.3 62.65 39.45 62.62C39.49 62.55 39.65 62.5 39.82 62.43C39.92 62.39 39.88 62.49 40 62.42C40.13 62.32 40.36 62.22 40.59 62.14C40.8 61.95 41.17 61.73 41.46 61.51C41.78 61.3 42.07 61.13 42.13 60.93C42.15 60.94 42.16 60.97 42.2 60.93C42.23 60.9 42.25 60.88 42.23 60.87C42.15 60.86 41.93 61.08 41.82 61.1C41.89 60.99 41.65 61.15 41.8 60.97C41.9 60.93 42.04 60.84 42.14 60.76C42.2 60.68 42.16 60.64 42.27 60.55C42.39 60.41 42.43 60.46 42.52 60.4C42.53 60.31 42.74 60.2 42.81 60.12C42.88 59.85 43.17 59.62 43.46 59.23C43.54 59.08 43.63 58.95 43.72 58.82C43.7 58.88 43.7 58.93 43.69 58.99C43.73 58.9 43.88 58.82 43.8 58.93C43.84 58.96 43.92 58.78 43.96 58.83L44.03 58.89L44.22 58.59C44.19 58.5 44.27 58.35 44.15 58.4C44.22 58.13 44.56 57.55 44.64 57.22C44.69 57.05 44.74 57.08 44.78 56.91C44.82 56.76 44.81 56.66 44.86 56.51C45 56.28 45.02 55.81 45.06 55.56C45.12 55.29 45.2 54.91 45.19 54.72C45.14 54.65 45.05 54.87 45.05 54.69C45.05 54.51 45.12 54.5 45.17 54.44ZM43.99 49.55C43.96 49.55 43.95 49.51 43.97 49.5C43.99 49.5 44 49.55 43.99 49.55ZM46.16 53.35H46.07C46.04 53.15 46.1 53.16 46.11 53.04C46.14 53.09 46.16 53.2 46.16 53.35ZM45.93 53.46C45.83 53.28 45.87 53.1 45.83 52.79C45.87 52.78 45.88 52.86 45.93 52.85C45.9 53.06 45.97 53.23 45.93 53.46ZM46.05 52.11C46.07 52.22 46.04 52.24 46.06 52.36C46.09 52.55 46.16 52.53 46.14 52.79C46.07 52.87 46.05 52.84 46 52.73C46.05 52.43 45.97 52.06 45.87 51.69C45.95 51.71 45.98 52.01 46.05 52.11ZM45.67 51.96C45.64 51.84 45.66 51.8 45.66 51.72C45.7 51.69 45.75 52.05 45.67 51.96ZM45.88 51.07C45.92 51.3 45.98 51.54 45.88 51.57C45.85 51.42 45.79 51.37 45.74 51.28C45.66 51.05 45.77 51.09 45.68 50.85C45.76 50.79 45.8 51.09 45.88 51.07ZM45.45 50.9C45.43 50.9 45.41 50.83 45.4 50.79C45.42 50.78 45.43 50.86 45.45 50.9ZM45.56 50.44C45.56 50.47 45.52 50.41 45.52 50.39C45.52 50.35 45.56 50.42 45.56 50.44ZM45.26 50.51C45.13 50.39 45.33 50.34 45.26 50.51V50.51ZM45.41 50.09C45.41 50.12 45.37 50.06 45.37 50.04C45.37 50.01 45.41 50.08 45.41 50.09ZM45.21 47.85C45.22 47.88 45.16 47.82 45.15 47.8C45.15 47.77 45.2 47.83 45.21 47.85ZM37.82 44.58C37.51 44.63 37.63 44.43 37.82 44.58V44.58ZM37.91 44.68C37.92 44.66 37.98 44.68 38.02 44.69C38.01 44.71 37.95 44.69 37.91 44.68ZM38.23 44.75C38.25 44.73 38.29 44.75 38.28 44.76C38.27 44.78 38.23 44.76 38.23 44.75ZM42.41 47.46C42.31 47.23 42.06 47.17 41.85 46.94C41.81 46.91 41.77 46.89 41.74 46.9C41.59 46.67 41.27 46.46 41.03 46.24C40.93 46.15 40.83 46.13 40.78 46.13C40.67 46 40.37 45.84 40.28 45.71C40 45.66 39.79 45.5 39.49 45.45C39.4 45.39 39.43 45.35 39.26 45.3C39.2 45.23 39.28 45.27 39.3 45.21C38.89 45.1 38.87 44.92 38.54 44.88C38.53 44.77 38.87 44.97 38.93 44.94C39.16 45.02 39.35 45.15 39.6 45.21C39.7 45.27 39.67 45.32 39.77 45.37C39.91 45.42 40.33 45.57 40.44 45.75C40.78 45.86 41.09 46.17 41.4 46.32C41.55 46.41 41.45 46.44 41.53 46.51C41.64 46.58 41.74 46.63 41.79 46.63C41.85 46.73 41.95 46.84 42.02 46.94C42.19 47.04 42.41 47.26 42.58 47.47C42.65 47.55 42.69 47.62 42.69 47.66C42.76 47.76 42.86 47.75 42.78 47.8C42.64 47.65 42.5 47.47 42.41 47.46ZM43.01 47.49C43.06 47.49 43.05 47.53 43.03 47.55C42.98 47.54 42.98 47.5 43.01 47.49ZM43.34 48.35C43.4 48.46 43.36 48.51 43.42 48.62C43.28 48.53 43.22 48.38 43.08 48.19C43.14 48.14 43.27 48.39 43.34 48.35ZM43.08 48.12C42.91 48.07 42.97 47.85 43.08 48.12V48.12ZM45.38 49.91C45.34 49.89 45.36 49.86 45.34 49.79C45.37 49.8 45.4 49.91 45.38 49.91ZM42.61 45.13C42.43 45.02 42.47 44.98 42.38 44.89C42.42 44.87 42.69 45.11 42.61 45.13ZM42.42 44.95C42.44 45.11 42.27 45 42.17 44.94C42.05 44.83 42.11 44.78 42.1 44.71L42.42 44.95ZM38 43.95C38.18 44.05 38.48 44.14 38.75 44.17C38.83 44.24 38.74 44.2 38.72 44.26C38.99 44.31 39.17 44.34 39.34 44.33C39.56 44.43 40.13 44.71 40.24 44.67C40.31 44.82 40.57 44.75 40.53 44.89C40.64 44.93 40.69 44.91 40.82 45C40.75 45.03 40.9 45.1 40.93 45.15C41.08 45.25 41.35 45.3 41.45 45.45C41.55 45.52 41.58 45.47 41.69 45.54C41.86 45.74 42.15 45.8 42.25 46C42.59 46.23 43.04 46.64 43.4 46.91C43.5 47.01 43.55 47.08 43.52 47.12C43.7 47.22 43.74 47.43 43.93 47.65L43.89 47.68C44.09 47.85 44.21 48.09 44.34 48.25C44.39 48.34 44.4 48.39 44.39 48.43C44.44 48.49 44.48 48.49 44.52 48.56C44.65 48.84 44.82 49.1 44.96 49.36C45.02 49.66 45.15 49.7 45.17 49.99C45.05 50.02 44.83 49.58 44.75 49.32C44.64 49.28 44.36 48.75 44.34 48.59C44.17 48.48 44.01 48.19 43.83 48.13C43.69 47.98 43.7 47.91 43.72 47.86C43.51 47.66 43.35 47.55 43.14 47.27C43.1 47.23 43.09 47.25 43.06 47.26C42.93 47.09 42.98 47.15 42.85 46.98C42.87 46.93 42.91 46.94 42.98 47.02C42.88 46.81 42.84 46.77 42.68 46.58C42.6 46.49 42.54 46.46 42.52 46.49C42.46 46.36 42.41 46.33 42.23 46.19C42.2 46.23 41.79 46 42 46.18C41.94 46.21 41.78 46.03 41.89 46.04C41.7 46.02 41.61 45.77 41.36 45.67C41.24 45.59 41.23 45.54 41.14 45.47C41.03 45.43 40.88 45.34 40.87 45.44C40.7 45.35 40.49 45.25 40.43 45.15C40.18 45.1 39.91 44.88 39.65 44.77C39.62 44.68 39.67 44.69 39.77 44.67C39.74 44.56 39.59 44.59 39.46 44.5C39.21 44.42 39.12 44.49 38.86 44.4C38.79 44.39 38.73 44.4 38.72 44.43C38.61 44.39 38.56 44.41 38.49 44.39C38.32 44.34 38.32 44.28 38.17 44.23C37.92 44.18 37.8 44.21 37.53 44.12C37.74 44.09 37.85 44 38 43.95ZM37.54 44.54C37.48 44.58 37.33 44.59 37.25 44.54C37.31 44.51 37.4 44.51 37.54 44.54ZM37.22 44.42L37.21 44.49C37.04 44.49 37.07 44.35 37.22 44.42ZM36.77 44.42L36.76 44.49C36.66 44.52 36.35 44.5 36.38 44.42C36.23 44.44 36.03 44.41 35.82 44.42C35.98 44.3 36.48 44.36 36.77 44.42ZM33.45 44.82C32.99 44.86 32.89 45.08 32.47 45.22C32.48 45.17 32.41 45.19 32.35 45.22C32.37 45.09 32.65 45.01 32.84 44.92C32.88 44.9 32.96 44.83 32.99 44.82C33.13 44.75 33.33 44.73 33.48 44.68C33.5 44.72 33.67 44.65 33.71 44.67C33.75 44.74 33.52 44.77 33.45 44.82ZM33.76 44.7C33.78 44.66 33.81 44.69 33.87 44.67C33.86 44.7 33.77 44.72 33.76 44.7ZM34.26 44.66C34.23 44.58 34.39 44.54 34.52 44.5C34.55 44.52 34.57 44.54 34.63 44.53C34.6 44.6 34.47 44.64 34.26 44.66ZM32.42 44.31C32.62 44.19 32.7 44.2 32.86 44.08C33.17 44.03 33.24 43.9 33.51 43.93C33.77 43.81 34.09 43.75 34.41 43.71C34.73 43.66 35.06 43.63 35.37 43.61V43.73C35.16 43.73 35.06 43.76 35.01 43.81C34.87 43.82 34.83 43.79 34.65 43.83C34.56 43.86 34.51 43.89 34.48 43.93C34.26 43.98 34.29 43.89 34.12 43.91C33.67 44.05 33.16 44.18 32.78 44.23C32.67 44.27 32.72 44.32 32.57 44.36C32.41 44.35 31.97 44.59 31.88 44.56C31.98 44.46 32.26 44.31 32.42 44.31ZM31.62 45.5C31.86 45.37 31.96 45.38 32.19 45.26C32.24 45.38 31.75 45.51 31.68 45.63C31.5 45.74 31.39 45.78 31.35 45.71C31.54 45.66 31.5 45.6 31.62 45.5ZM30.4 46.28C30.4 46.31 30.32 46.37 30.31 46.35C30.34 46.31 30.37 46.27 30.4 46.28ZM30.34 46.39C30.49 46.32 30.67 46.12 30.93 45.97C31.03 45.89 31.2 45.76 31.31 45.74C31.29 45.8 31.13 45.88 31.22 45.93C31.01 46.1 30.95 46.13 30.68 46.31L30.65 46.27C30.46 46.41 30.31 46.46 30.11 46.65C30.01 46.6 30.33 46.45 30.34 46.39ZM29.54 47.09C29.72 46.91 29.8 46.91 29.94 46.8C29.86 46.98 29.75 47.1 29.5 47.3C29.45 47.26 29.58 47.14 29.54 47.09ZM28 57.49C28.11 57.69 28.16 57.84 28.34 57.99L28.4 57.96C28.5 58.1 28.42 58.11 28.47 58.22C28.39 58.22 28.43 58.11 28.36 58.03C28.31 58.1 28.34 58.08 28.25 58.08C28.18 57.93 28.13 57.96 28.06 57.81C28.17 57.82 27.82 57.37 27.85 57.25C27.89 57.16 28.04 57.49 28 57.49ZM27.57 56.5C27.61 56.6 27.62 56.66 27.58 56.67L27.53 56.52L27.57 56.5ZM26.11 55.49C26.15 55.54 26.18 55.68 26.22 55.78C26.17 55.7 26.07 55.64 26.11 55.49ZM26.43 56.61C26.37 56.45 26.5 56.54 26.47 56.41C26.53 56.5 26.62 56.86 26.55 56.89C26.46 56.74 26.52 56.56 26.43 56.61ZM26.58 56.95L26.63 56.94C26.68 57.05 26.69 57.12 26.65 57.13L26.58 56.95ZM26.69 57.43C26.68 57.34 26.66 57.24 26.72 57.23C26.83 57.41 26.77 57.43 26.86 57.63C26.8 57.63 26.74 57.38 26.69 57.43ZM27.96 58.3C27.89 58.31 27.81 58.28 27.72 58.23C27.71 58.09 27.61 58.02 27.51 57.76C27.39 57.59 27.37 57.43 27.22 57.25C27.25 57.2 27.13 56.99 27.17 56.96C27.03 56.67 26.94 56.51 26.83 56.04C26.8 55.9 26.66 55.68 26.7 55.6C26.69 55.55 26.66 55.56 26.64 55.55C26.63 55.48 26.67 55.5 26.7 55.48C26.66 55.33 26.62 55.19 26.57 55.09C26.51 54.71 26.5 54.49 26.44 54.34C26.43 54.21 26.44 54.12 26.45 54.05C26.44 53.98 26.4 54 26.38 53.99C26.38 53.85 26.39 53.74 26.44 53.7C26.43 53.63 26.39 53.55 26.39 53.64C26.35 53.2 26.42 52.79 26.45 52.47C26.49 52.45 26.5 52.29 26.56 52.37C26.59 52.26 26.58 52.19 26.54 52.19C26.57 52.11 26.6 52.02 26.66 52.04C26.65 52.25 26.61 52.52 26.66 52.62C26.82 52.28 26.73 51.84 26.87 51.56C26.94 51.54 26.89 51.68 26.93 51.69C27.04 51.62 27.03 51.42 27.05 51.26C27.06 51.18 27.21 50.93 27.11 50.86C27.04 50.89 27.07 51.07 27.1 51.09C27 51.15 27.02 51.21 26.94 51.39C26.92 51.24 26.87 51.23 26.83 51.17C26.93 51.11 26.95 50.88 27 50.81C26.99 50.72 26.96 50.68 26.91 50.65C26.99 50.49 27.01 50.59 27 50.68C27.06 50.61 27.08 50.52 27.02 50.5C27.05 50.44 27.08 50.47 27.11 50.47C27.16 50.35 27.07 50.38 27.11 50.28C27.17 50.15 27.23 50.05 27.3 49.99C27.3 49.84 27.45 49.6 27.48 49.44C27.53 49.29 27.57 49.36 27.62 49.32C27.68 49.07 27.93 48.81 28.1 48.55C28.13 48.49 28.09 48.48 28.07 48.46C28.27 48.22 28.46 47.99 28.68 47.86L28.82 47.68L28.87 47.73C28.97 47.55 29.04 47.59 29.17 47.48C29.18 47.62 28.81 47.97 28.72 48.2C28.57 48.37 28.58 48.37 28.43 48.6C28.18 48.93 28.01 49.2 27.94 49.53C27.78 49.81 27.71 49.95 27.72 50.15C27.62 50.37 27.46 50.76 27.46 50.98C27.32 51.19 27.35 51.46 27.18 51.75L27.22 52.1C27.14 52.25 27.18 52.4 27.15 52.53C27.14 52.57 27.07 52.58 27.08 52.68C27.09 52.82 27.08 53 27.15 53.02C27.12 53.18 27.12 53.18 27.13 53.35H27.08C27.11 53.66 27.13 53.85 27.09 54.22C27.19 54.73 27.21 55.01 27.27 55.46C27.28 55.55 27.31 55.56 27.34 55.56C27.32 55.64 27.42 55.9 27.4 55.99C27.45 56.02 27.46 56.31 27.54 56.24C27.56 56.37 27.54 56.45 27.52 56.53C27.45 56.5 27.39 56.32 27.31 56.36C27.31 56.31 27.28 56.21 27.31 56.19C27.2 56.02 27.09 55.8 27.01 55.46C27.08 55.45 27.07 55.35 27.15 55.27C27.13 55.11 27.03 55.21 26.99 55.12C26.95 54.95 27 54.95 27 54.84C26.93 54.48 26.94 54.42 26.92 54.12C26.86 54.22 26.76 54.22 26.69 54.29C26.79 54.41 26.7 54.95 26.85 55.08C26.8 55.33 26.99 55.62 26.99 55.8C27.02 55.87 27.05 55.91 27.09 55.9C27.05 56.25 27.41 56.62 27.4 56.98C27.44 57.1 27.49 57.02 27.52 57.12C27.59 57.4 27.76 57.65 27.89 57.63C28 57.87 28.09 58.02 28.28 58.3C28.26 58.3 28.23 58.26 28.21 58.27C28.35 58.42 28.35 58.5 28.42 58.66C28.25 58.66 28.11 58.46 27.96 58.3ZM28.88 59.32C28.75 59.06 28.57 58.93 28.38 58.71C28.54 58.72 28.61 58.85 28.79 59.11C28.86 59.2 28.88 59.13 28.96 59.26L28.88 59.32ZM29.06 59.46C29.05 59.43 29.11 59.47 29.12 59.49C29.12 59.52 29.06 59.48 29.06 59.46ZM29.93 60.01C29.69 59.73 29.58 59.7 29.34 59.45C29.32 59.39 29.27 59.31 29.36 59.3C29.3 59.18 29.15 59.18 29.19 59.1C29.14 59.04 29.18 59.13 29.13 59.14C28.98 58.95 28.83 58.78 28.69 58.65C28.73 58.63 28.69 58.57 28.74 58.56C28.84 58.76 29.11 58.92 29.28 59.1C29.4 59.22 29.37 59.26 29.51 59.39C29.8 59.64 29.97 59.83 30.26 60.15C30.17 60.18 30.03 60.03 29.93 60.01ZM30.37 60.33C30.46 60.3 30.62 60.39 30.81 60.55C30.71 60.55 30.54 60.45 30.37 60.33ZM30.96 60.63C31.01 60.68 31.03 60.72 31 60.75C30.84 60.65 30.87 60.61 30.96 60.63ZM31.64 61.13C31.56 61.08 31.43 61.03 31.36 60.98C31.26 60.92 31.32 60.88 31.1 60.79C31.2 60.78 31.52 60.93 31.59 61.01C31.71 61.06 31.8 61.12 31.89 61.22C31.82 61.29 31.73 61.19 31.64 61.13ZM32.02 61.32C32 61.3 32.07 61.31 32.08 61.32C32.1 61.35 32.03 61.33 32.02 61.32ZM32.26 63.35L32.14 63.3L32.16 63.26L32.28 63.3L32.26 63.35ZM32.32 63.37C32.34 63.36 32.39 63.37 32.4 63.35C32.47 63.39 32.51 63.42 32.49 63.46C32.39 63.43 32.4 63.4 32.32 63.37ZM45.36 56.8C45.47 56.64 45.33 57.05 45.3 57.17C45.2 57.13 45.4 56.8 45.36 56.8ZM35.88 63.31C35.93 63.23 36.2 63.27 36.17 63.35C36.03 63.36 35.99 63.33 35.88 63.31ZM40.01 62.22L39.91 62.27L39.89 62.23L39.99 62.18L40.01 62.22ZM39.68 61.67C39.44 61.72 39.07 61.92 38.8 61.93C38.65 61.99 38.56 62.06 38.51 62.12C38.15 62.16 37.86 62.31 37.55 62.26C37.49 62.27 37.52 62.31 37.45 62.32C37.16 62.36 36.84 62.46 36.7 62.34C36.46 62.4 35.96 62.45 35.84 62.31C35.6 62.42 34.86 62.33 34.56 62.2C34.66 62.13 34.43 62.13 34.48 62.07C34.36 62.06 34.15 62.14 34.06 62.03C33.87 62.02 33.75 62.06 33.47 61.97C33.47 61.91 33.73 61.92 33.58 61.83C33.93 61.89 34.31 62.02 34.65 62.08C34.78 62.1 34.86 62.08 34.87 62.02C34.96 62.08 34.96 62.03 35.13 62.06C35.27 62.16 35.57 62.2 35.85 62.25C35.97 62.24 36.12 62.21 36.22 62.18C36.55 62.19 36.96 62.15 37.17 62.18C37.27 62.12 37.47 62.12 37.59 62.12C38.04 62.02 38.35 61.93 38.74 61.91C38.95 61.82 39.18 61.76 39.4 61.69C39.62 61.6 39.84 61.52 40.04 61.43C40.01 61.53 39.82 61.54 39.68 61.67ZM40.3 61.32C40.27 61.32 40.32 61.27 40.34 61.27C40.36 61.26 40.31 61.31 40.3 61.32ZM40.71 61.79C40.71 61.76 40.79 61.72 40.85 61.68C40.85 61.7 40.77 61.75 40.71 61.79ZM40.72 61.07C40.78 60.99 41 60.87 41.02 60.94C40.92 60.99 40.71 61.17 40.72 61.07ZM41.55 61.16C41.61 61.13 41.66 61.12 41.68 61.15C41.62 61.19 41.57 61.2 41.55 61.16ZM44.99 54.86C44.97 54.84 44.99 54.8 45 54.81C45.02 54.82 45 54.86 44.99 54.86ZM46.93 54C46.9 54 46.87 54.01 46.87 54.13C46.95 54.26 47.02 54.08 47.09 53.95C47.1 53.82 47.1 53.7 47.11 53.58H46.84C46.85 53.75 46.87 53.91 46.93 54Z" fill="#1E1E1E"/></g><defs><clipPath id="clip0"><rect width="84.77" height="57.06" fill="white" transform="translate(1 14)"/></clipPath></defs></svg>