<svg xmlns="http://www.w3.org/2000/svg" viewBox="0 0 68 61" fill="none"><path d="M44.7513 46C57.4539 46 67.7513 35.7025 67.7513 23C67.7513 10.2975 57.4539 0 44.7513 0C32.0488 0 21.7513 10.2975 21.7513 23C21.7513 35.7025 32.0488 46 44.7513 46Z" fill="#6FB2A5"/><path d="M46.6313 25.4894C46.5413 25.4394 46.7813 25.5294 46.8313 25.5594C46.9113 25.6094 46.6713 25.5194 46.6313 25.4894Z" fill="#1E1E1E"/><path d="M36.0613 32.1188C36.0513 32.0988 36.1613 31.9688 36.2313 31.8788L36.5013 31.5488C36.5513 31.5688 36.1913 31.9488 36.0613 32.1188Z" fill="#1E1E1E"/><path d="M39.3713 31.2285C39.3713 31.2785 39.2313 31.4985 39.2113 31.4785C39.2713 31.3585 39.3313 31.2285 39.3713 31.2285Z" fill="#1E1E1E"/><path d="M43.0513 23.6684C43.0013 23.6684 43.0113 23.3584 43.0313 23.0384C43.0213 22.6984 42.9813 22.3284 43.0113 22.2384C42.7113 21.3284 42.6413 21.1884 42.2113 20.5684C42.3813 20.6984 42.5013 20.8884 42.6113 21.0784C42.7213 21.2784 42.8313 21.4684 42.8613 21.6984C43.1313 22.2384 43.1713 23.2784 43.0513 23.6684Z" fill="#1E1E1E"/><path d="M37.6413 19.549C37.4313 19.589 37.2313 19.649 37.0313 19.709C36.9113 19.629 37.6713 19.449 37.6413 19.549Z" fill="#1E1E1E"/><path d="M37.3613 52.0996C37.3813 52.1496 37.3413 52.3796 37.3113 52.3696C37.2913 52.2996 37.3413 52.2496 37.3613 52.0996Z" fill="#1E1E1E"/><path d="M42.8813 23.9501L42.7713 24.4301C42.6713 24.5201 42.5613 24.6701 42.4513 24.7801C42.6813 24.0301 42.6513 24.0201 42.7913 23.5801C42.8213 23.9301 42.8613 23.7701 42.8813 23.9501Z" fill="#1E1E1E"/><path d="M38.3014 48.3601L38.2114 48.6201L38.1714 48.5901L38.2514 48.3301L38.3014 48.3601Z" fill="#1E1E1E"/><path d="M38.0814 48.8496C38.1014 48.8596 38.0414 49.0196 38.0214 49.1196C37.9914 49.1096 38.0414 48.9596 38.0814 48.8496Z" fill="#1E1E1E"/><path d="M37.3014 51.7885L37.2614 51.7685C37.2814 51.4885 37.3014 51.5985 37.3714 51.2285L37.4114 51.2485C37.3414 51.6085 37.3914 51.5285 37.3014 51.7885Z" fill="#1E1E1E"/><path d="M42.7714 22.7483C42.8114 22.8283 42.8014 22.8983 42.7914 23.0783C42.7814 23.0283 42.7514 22.7383 42.7714 22.7483Z" fill="#1E1E1E"/><path d="M38.4314 31.6486C38.8314 31.2286 39.4014 30.5786 39.5614 30.6386C39.4014 30.7686 39.1514 31.0286 39.0414 31.0986C38.8514 31.3186 39.0814 31.2086 38.9314 31.3986C38.6414 31.6686 38.4614 31.7886 38.4314 31.6486Z" fill="#1E1E1E"/><path d="M39.1013 29.1592C39.1513 29.0992 39.0713 29.2692 39.0513 29.2992C39.0013 29.3492 39.0713 29.1892 39.1013 29.1592Z" fill="#1E1E1E"/><path d="M38.8814 29.5291C38.9214 29.4791 38.8613 29.6391 38.8313 29.6691C38.7913 29.7191 38.8614 29.5591 38.8814 29.5291Z" fill="#1E1E1E"/><path d="M37.3513 33.1585C37.0713 33.4285 36.2013 34.5785 35.8413 35.0085C35.8413 34.7985 36.5613 34.1185 36.8413 33.6385C37.0613 33.3785 37.2813 33.1485 37.3513 33.1585Z" fill="#1E1E1E"/><path d="M35.2814 35.8302C35.1214 36.0502 35.0014 36.1802 34.9014 36.2802L34.4214 35.9402C34.6114 35.7102 34.7314 35.6002 34.9714 35.1602C34.9414 35.3302 34.7114 35.6902 34.4914 35.9802L34.8314 36.2302C35.0114 36.0302 35.1914 35.8702 35.2814 35.8302Z" fill="#1E1E1E"/><path d="M37.4614 33.0684C37.5314 33.0784 37.3214 33.3384 37.1514 33.5584C37.2014 33.4284 37.2314 33.3384 37.4614 33.0684Z" fill="#1E1E1E"/><path d="M36.5214 32.7796C36.5714 32.7296 36.4814 32.8797 36.4514 32.9097C36.4014 32.9597 36.4914 32.8096 36.5214 32.7796Z" fill="#1E1E1E"/><path d="M36.8914 33.8787C36.8814 33.8587 36.9914 33.7287 37.0514 33.6387C37.0614 33.6687 36.9514 33.7887 36.8914 33.8787Z" fill="#1E1E1E"/><path d="M40.1313 30.2598C39.8713 30.6198 39.3313 31.0998 39.1613 31.4598C38.9613 31.6898 38.5813 31.9398 38.6113 32.0898C38.3913 32.3298 38.3913 32.2198 38.1113 32.5598C38.0913 32.3898 38.9013 31.5498 39.0213 31.2898C39.5113 30.7498 39.7513 30.5998 40.1313 30.2598Z" fill="#1E1E1E"/><path d="M37.7113 31.0495C38.0213 30.4095 38.2313 30.3295 37.7113 31.0495V31.0495Z" fill="#1E1E1E"/><path d="M40.8314 26.0697C40.7414 26.2097 40.6714 26.2897 40.6414 26.2597C40.7814 25.9997 40.8014 26.0597 40.8314 26.0697Z" fill="#1E1E1E"/><path d="M37.3013 33.5195C37.2313 33.7195 36.7813 34.2495 36.4713 34.6695C36.4413 34.6395 36.2113 34.9495 36.2313 34.8195C36.2613 34.7295 36.5613 34.3895 36.5513 34.3395C36.9013 34.0395 37.0013 33.8495 37.3013 33.5195Z" fill="#1E1E1E"/><path d="M38.6814 29.3691C38.5714 29.7291 38.4214 29.5791 38.6814 29.3691V29.3691Z" fill="#1E1E1E"/><path d="M34.9913 36.3398L35.0213 36.3798L35.0413 36.3998L34.2513 35.8298L34.2413 35.8198L34.9513 34.7598C34.8313 35.0398 34.5713 35.4498 34.3213 35.8698L34.9813 36.3498L34.9913 36.3398Z" fill="#1E1E1E"/><path d="M37.0013 31.8983C36.6813 32.3583 36.5513 32.4283 36.2313 32.8883C36.2013 32.7683 36.6113 32.4183 36.5913 32.2683C36.9013 31.8583 36.8113 31.9783 37.1713 31.4883C37.2513 31.4983 36.8813 31.9483 37.0013 31.8983Z" fill="#1E1E1E"/><path d="M36.0913 33.1397C35.9313 33.3497 35.8914 33.2997 35.6514 33.6797C35.5714 33.5497 36.0413 33.0697 36.0913 33.1397Z" fill="#1E1E1E"/><path d="M35.4813 33.9086C35.5313 33.8586 35.4413 34.0086 35.4213 34.0386C35.3613 34.0986 35.4513 33.9386 35.4813 33.9086Z" fill="#1E1E1E"/><path d="M28.2813 17.0386C28.2213 17.0786 28.3413 16.9486 28.3713 16.9286C28.4313 16.8986 28.3113 17.0186 28.2813 17.0386Z" fill="#1E1E1E"/><path d="M28.2913 17.0586C28.3413 17.0886 28.2413 17.1986 28.0213 17.3886C27.7213 17.6986 27.6613 17.9686 27.1713 18.3186C27.0713 18.3286 27.3513 18.0886 27.4313 17.9786C27.1613 18.1586 27.5513 17.7986 27.4713 17.7886C27.8913 17.4086 27.9213 17.3186 28.2913 17.0586Z" fill="#1E1E1E"/><path d="M25.8614 21.0584C25.8014 21.0984 25.9114 20.9584 25.9414 20.9384C25.9914 20.8884 25.8914 21.0284 25.8614 21.0584Z" fill="#1E1E1E"/><path d="M38.5113 47.8592C38.5413 47.4092 38.8714 46.7692 39.3514 45.9992C39.7614 45.2592 40.3213 44.4192 40.6413 43.8392C40.9913 43.3892 41.3413 42.8992 41.5313 42.5792C41.7113 42.3092 41.6713 42.4992 41.8313 42.2892C42.0913 41.9392 42.3313 41.6092 42.3813 41.4692C42.6113 41.1892 42.9713 40.7392 43.0313 40.5492C43.2413 40.3192 43.4814 40.0492 43.8214 39.5692C44.1714 39.1692 44.2413 39.0292 44.5213 38.6792C44.6213 38.4992 44.7013 38.3592 44.8113 38.1792C45.4013 37.3392 45.5413 37.0592 46.2513 35.8892C46.3713 35.6292 46.4513 35.4192 46.5313 35.2092C46.3713 35.3292 45.6713 36.5792 45.6913 36.6992C45.5013 36.8692 44.9413 37.8592 44.7813 37.9492C44.4913 38.3592 44.6514 38.2992 44.3514 38.6992C44.1814 38.7692 43.7113 39.4792 43.5313 39.6592C42.9413 40.5292 42.6513 40.8892 42.1713 41.6492C41.9713 41.9292 41.8814 41.9792 41.7914 42.0492C41.6514 42.2392 41.5913 42.3592 41.5813 42.4292C41.1213 42.9292 40.9713 43.2492 40.4513 44.0292C40.2613 44.2692 40.0114 44.6492 39.9314 44.6792C39.7314 45.0392 39.4114 45.5292 39.1814 45.8592C38.8214 46.5192 38.2213 47.5392 38.1413 48.1192C37.8913 48.5192 37.7513 49.2792 37.5313 49.8092C37.4713 50.0692 37.4914 50.1692 37.4014 50.4992C37.2514 50.9692 37.1014 51.8292 36.9914 52.2592C36.7314 54.1892 36.3714 56.4992 36.3214 57.6992C36.2114 58.0792 36.0813 58.1192 35.9813 58.8992C35.8513 58.9292 35.7313 59.3492 35.6113 59.6492C35.4713 59.7192 35.5914 58.9992 35.4614 59.0292C35.5614 57.4692 35.7213 56.3792 35.9113 54.3892C35.9913 53.7792 36.0814 53.5092 36.1814 52.8592C36.2514 52.3592 36.2513 52.0692 36.2813 51.6992C36.3813 51.1592 36.4713 51.0392 36.5813 50.5992C36.6613 50.3092 36.6513 50.2192 36.6913 50.0292C36.8713 49.4992 37.0513 48.9192 37.3013 48.0992C37.8413 46.6892 38.2513 45.8692 39.0213 44.7692C39.2513 44.4592 39.1413 44.4992 39.3013 44.2592C39.5313 43.8892 39.6114 43.8492 39.7914 43.5692C40.0314 43.2492 39.9814 43.2392 40.1814 42.9692C40.4714 42.6892 40.9514 41.9192 41.2414 41.4592C41.5014 41.2292 41.8414 40.6292 41.9614 40.5992C42.1014 40.4092 42.1614 40.2992 42.1814 40.2292C42.4614 39.9692 42.8313 39.2992 43.0313 39.1192C43.1813 38.8992 43.2013 38.7992 43.4113 38.5192C43.6113 38.2392 43.6914 38.1992 43.8514 37.9892C44.0214 37.7192 44.4913 37.1092 44.3613 37.1492C44.5213 37.0192 45.1513 36.0592 45.1713 35.8592C46.2413 33.9892 46.9614 32.6292 47.3514 31.1392C47.3414 30.9992 47.4113 30.7192 47.4213 30.4792C47.4913 29.9892 47.5314 29.9792 47.5414 29.6392C47.5214 29.2492 47.2014 28.8492 47.1314 28.5692C46.9514 28.3092 46.8613 28.2792 46.8313 28.3492C46.4113 27.8092 45.6714 27.3392 44.9014 27.2092C44.6814 27.1892 44.4113 27.2092 44.3313 27.2592C44.1113 27.2692 43.9413 27.3592 43.6913 27.4992C43.4613 27.6192 43.2413 27.7692 43.0313 27.9192C42.6113 28.2192 42.2314 28.5492 41.8514 28.8792C41.2814 29.3192 40.8314 29.6692 40.2914 30.1992C40.3514 29.8492 41.8013 28.8192 41.8313 28.5692C41.4113 28.7792 41.2913 29.0192 40.7813 29.4692C40.5913 29.4392 41.2513 28.8892 41.1713 28.8092C41.7713 28.3992 42.2013 28.0992 42.8813 27.6292L42.9413 27.7592C42.4813 28.0792 42.5614 27.9592 42.2414 28.1792C41.9614 28.4592 42.6514 27.9792 43.0714 27.7092C43.1614 27.6492 43.3913 27.4192 43.1613 27.5692C43.1413 27.5092 43.4913 27.3892 43.4113 27.4792C43.8113 27.2592 43.7613 27.1892 44.0013 27.1792C44.2213 27.0792 44.3914 27.0392 44.4614 26.9792C44.9114 26.9792 44.8513 27.0592 45.0813 27.0892C45.4013 27.1192 45.6013 27.1392 45.7713 27.1392C46.3913 27.3592 46.4913 27.4192 46.9813 27.7892L46.9513 27.8192C47.3213 28.0492 47.7613 28.6592 47.8913 29.5592C47.8313 29.4992 47.8413 29.6492 47.8113 29.6892C47.8913 30.1492 47.8814 30.9592 47.6314 31.4492C47.4814 31.9592 47.4714 32.1892 47.2914 32.6792C47.1614 32.9392 46.9614 33.4492 46.9314 33.2692C46.8014 33.6792 46.3613 34.4892 46.4213 34.6092C46.6413 34.3292 46.7813 33.9192 46.9213 33.6092C47.0313 33.3792 47.0713 33.3592 47.1713 33.1092C47.3813 32.6292 47.5214 32.0892 47.7914 31.2392C47.8914 30.8092 47.9413 30.8992 48.0013 30.5792C48.1713 29.5992 47.9314 28.9692 47.6014 28.5392C47.4314 28.2792 47.4514 28.2492 47.3214 28.0692C47.2214 27.9392 46.9514 27.7192 46.7914 27.5992C46.4814 27.3692 46.2613 27.2192 45.9813 27.0592C45.3613 26.7892 44.7013 26.6592 44.0913 26.8092C43.4913 26.9892 43.0313 27.3392 42.5513 27.6292C41.6213 28.2492 40.8214 28.9492 40.0414 29.6892C39.7914 29.9492 39.5713 30.1692 39.4713 30.3292C38.4913 31.2492 37.6014 32.4592 36.9614 33.1792C36.7314 33.4992 36.5214 33.7692 36.2914 34.0892C35.8514 34.5092 35.0413 35.5892 34.6413 36.1192L34.7114 36.1692C34.7514 36.1092 34.7813 36.0492 34.8113 36.0092C35.0613 35.6292 35.1713 35.5392 35.4513 35.0892C35.5013 35.0692 35.6213 34.9092 35.6613 34.9092C35.9213 34.4492 36.0114 34.4692 36.4014 33.8892C36.4014 33.7092 36.1314 34.0892 35.8514 34.5092C35.7614 34.4192 36.2113 33.7792 36.5613 33.2592C36.6413 33.1492 36.6013 33.1492 36.6113 33.1092C36.8113 32.9192 37.2613 32.2092 37.3313 32.2592C37.6913 31.7292 38.1013 31.0592 38.4113 30.6092C38.6013 30.3092 38.6113 30.2092 38.6413 30.0792C38.7613 29.8192 38.8213 29.8592 38.9513 29.6192C39.0213 29.4892 39.0513 29.3692 39.1313 29.2192C39.3113 28.8892 39.5714 28.5992 39.6514 28.3692C39.5314 28.4192 39.4013 28.7592 39.2613 28.9592C39.1413 28.9192 38.7513 29.6192 38.6113 29.6892C38.7213 29.4792 38.7513 29.4692 38.7813 29.4792C38.9613 29.1792 38.9113 29.1392 39.0213 28.9292C39.3013 28.5892 39.6813 28.0392 39.8613 27.7992C39.6913 28.2492 40.1513 27.5392 40.2313 27.5792C40.4913 27.2092 40.4313 27.0192 40.6713 26.8592C40.8313 26.5692 40.6413 26.6892 40.9513 26.1992C40.8813 26.2192 40.7213 26.5192 40.7213 26.3692C40.9113 25.9892 41.2014 25.5392 41.2414 25.2292C41.3414 25.0592 41.3813 25.0892 41.4513 25.0392C41.5213 24.7792 41.6713 24.4392 41.7713 24.1492C41.7313 23.8092 41.9414 23.4292 41.8514 22.6992C41.8214 22.7592 41.8114 22.8692 41.8214 23.0192C41.8014 23.1692 41.7913 23.3592 41.7813 23.5492C41.7413 23.7492 41.7013 23.9492 41.6713 24.1392C41.6113 24.3192 41.5514 24.4892 41.4914 24.5992C41.4314 24.2892 41.9613 23.2092 41.6613 22.3292C41.6713 22.2892 41.6513 22.0692 41.5613 21.9092C41.4713 21.7492 41.4113 21.5992 41.4713 21.6192C41.1113 21.1692 40.8814 21.0392 40.5414 20.7792C40.3814 20.7092 40.2413 20.6992 40.1613 20.6992C40.0613 20.7792 40.5913 20.9792 40.4813 21.0592C40.8713 21.3092 40.8214 21.1192 41.1814 21.4892C41.2814 21.6292 41.3513 21.8992 41.3113 21.9392C41.4713 22.1792 41.4714 22.0492 41.5714 22.3292C41.6214 22.4692 41.6214 22.7292 41.6514 22.9792C41.6314 23.2392 41.6313 23.4892 41.5613 23.6292C41.5213 23.5392 41.6213 22.8292 41.5013 22.4492C41.4313 22.3292 41.4013 22.1592 41.3113 22.0292C41.2113 21.8992 41.1413 21.7692 41.0513 21.6892C40.7113 21.2692 40.5713 21.2592 40.2513 21.0292C40.0813 20.9592 39.9713 20.9592 39.9213 20.9792C39.5113 20.7992 38.5814 20.8092 37.8514 21.0092C37.7914 20.9692 37.9313 20.9292 37.9713 20.8892C37.5313 20.9992 37.2014 21.1392 36.9914 21.2692C36.7114 21.3792 36.4613 21.4992 36.3013 21.6292C36.1013 21.7892 35.9514 21.9192 35.8514 22.0292C35.4114 22.4092 35.2614 22.4692 34.8514 22.8892C34.7714 22.9292 34.3614 23.2392 34.3514 23.3192C34.2114 23.4592 34.3514 23.2892 34.3214 23.2792C34.0614 23.5292 33.8314 23.9192 33.7914 23.8992C33.5714 24.1892 33.5814 24.2792 33.3214 24.5992C33.2114 24.8892 32.8013 25.3792 32.7313 25.5792C32.6113 25.7392 32.5014 25.8992 32.4614 25.8992C32.2814 26.2492 32.1713 26.3692 31.9113 26.7492C31.6813 27.0492 31.4013 27.3992 31.2613 27.5192C31.0513 27.7892 30.9713 27.9492 30.8413 28.1492C30.6313 28.3692 30.6013 28.3092 30.4813 28.3992C30.2013 28.7792 29.6913 29.3392 29.1713 29.7892L28.0513 28.6892C28.2813 28.4192 28.5014 28.1992 28.7114 28.0392C28.8414 27.8892 28.8713 27.8092 28.8613 27.7592C29.4813 27.1392 29.5513 26.9292 30.2513 26.2292C30.4113 26.0092 30.5313 25.7792 30.5113 25.6992C30.9413 25.2192 31.2813 24.6692 31.4413 24.6692C31.7613 24.2892 31.7113 24.2292 32.0013 23.8692C32.0513 23.8592 32.1514 23.6792 32.1514 23.6392C32.3514 23.4192 32.4814 23.3392 32.7114 23.0592C33.0614 22.5092 33.2613 21.9992 33.7713 21.3192C34.0213 20.8792 34.1113 20.5992 34.1913 20.3292C34.3513 20.0692 34.3014 20.1192 34.4914 19.7692C34.6614 19.3292 34.6713 19.1192 34.8913 18.4692C34.9213 18.2892 34.9714 17.9692 34.9014 17.9992C34.9414 17.6792 35.0013 17.5992 35.0213 17.3892C35.0213 16.9492 34.9413 16.8192 34.8313 16.5092C34.7613 16.2192 34.4414 15.8392 34.1514 15.6892C33.9614 15.4992 33.8313 15.3192 33.6613 15.1992C33.5813 15.0092 33.9513 15.0392 33.6413 14.8292C33.3213 14.7392 33.4814 14.8492 33.2114 14.8092C32.7514 14.7192 32.2713 14.7392 31.8713 14.9192C31.4713 14.9492 30.5814 15.4192 30.2114 15.5692C29.9814 15.7092 29.7513 15.8492 29.5313 16.0092C29.5113 15.9992 29.1313 16.1992 29.1913 16.2192C29.0313 16.3092 28.9413 16.3292 28.8113 16.3792C28.5413 16.6192 28.5714 16.7092 28.3514 16.9292C27.8514 17.2692 27.4314 17.7592 27.3514 17.6392C27.0314 17.9292 26.6014 18.3192 26.4614 18.5192C26.4314 18.6492 27.1913 17.9592 26.5313 18.6192C26.5913 18.6492 26.8613 18.3892 27.0813 18.2192C26.7813 18.5792 26.6613 18.6492 26.3413 19.0492C26.1113 19.1992 26.0614 19.2592 25.8214 19.4892C25.7014 19.6292 25.7813 19.6192 25.7813 19.6692C25.4313 19.9792 24.8413 20.5592 24.7713 20.8092C24.5513 21.0692 24.4613 21.0992 24.2813 21.2992C23.7813 21.8592 23.6113 22.1592 23.2813 22.4492C23.1513 22.7392 22.3413 23.6292 22.5213 23.6592C22.3813 23.7692 22.1914 23.9992 21.9614 24.2192L20.7414 23.1092C20.8114 23.0492 20.8713 22.9992 20.9213 22.9692C21.1013 22.7492 21.1314 22.6492 21.1314 22.5692C21.7514 21.9092 22.4613 21.1192 22.9713 20.4492C23.2713 20.0992 23.2814 20.1992 23.4914 19.9992C23.8614 19.4992 24.2613 18.9492 24.6613 18.4092L24.9713 18.1392C25.2013 17.8592 24.8013 18.1392 25.1613 17.7492C25.2713 17.7092 25.0814 17.9492 25.1514 17.9492C25.4714 17.5692 25.4513 17.4892 25.4113 17.4292C25.6413 17.0692 26.2014 16.3192 26.1514 16.1792C26.3714 15.9392 26.4613 15.4492 26.6213 15.2492C26.6713 15.1092 26.6214 15.1292 26.6014 15.0992C26.6714 14.8892 26.8713 14.4292 26.8413 14.2492C26.8913 14.0792 26.9214 14.2392 26.9614 14.0292C27.0014 13.7492 26.8913 14.1692 26.9213 13.8792C27.0313 13.4892 27.1413 12.8792 27.0813 12.4492C27.1913 12.1892 27.0013 11.7092 27.0313 11.5792C26.8713 11.3792 26.6213 10.9892 26.1613 10.8192C26.0513 10.6792 25.7413 10.5792 25.9713 10.5292C26.1613 10.5492 26.1514 10.6092 26.1514 10.6292C26.4314 10.5792 26.9513 10.8592 27.1413 11.3492C27.2413 11.3992 27.3314 11.6292 27.4014 11.7792C27.4714 12.1392 27.4413 12.3492 27.4413 12.8492C27.4813 13.4792 27.2513 14.4592 27.0913 15.1892C26.9513 15.4292 26.8813 15.8792 26.7713 15.8892C26.6813 16.2492 26.2713 16.8092 26.0913 17.1392C25.9513 17.3392 25.9013 17.3492 25.7513 17.5592C25.4513 17.9392 25.6014 17.8892 25.2914 18.2592C25.1714 18.2192 24.9613 18.6792 24.7613 18.8992L24.7114 18.8492C24.4614 19.1992 24.1813 19.4892 23.8813 19.7892C23.4513 20.3792 23.4613 20.2792 22.9813 20.8592C22.8713 20.9392 22.7013 21.0992 22.5613 21.2192C22.4013 21.3792 22.4113 21.4192 22.3013 21.5492C22.0813 21.7392 21.6813 22.1992 21.5813 22.1992C21.4913 22.4292 21.1814 22.8292 20.9014 23.2092L21.8313 24.0492L21.8913 23.9692C22.3713 23.4092 22.3314 23.4292 22.6814 22.9492C22.7914 22.8692 22.9513 22.6992 23.0813 22.5692C23.2713 22.3392 23.3513 22.2092 23.3013 22.1892C23.5013 21.9692 23.5913 21.9292 23.8713 21.5792C24.0713 21.3792 23.9713 21.3992 24.0213 21.3292C24.1913 21.0892 24.5314 20.7892 24.3214 20.8392C24.5014 20.6492 24.4513 20.8292 24.7313 20.4792C24.6913 20.3992 24.4513 20.8192 24.4713 20.5892C24.2213 20.8992 23.9313 21.2492 23.6313 21.5192C23.5413 21.6392 23.6013 21.6292 23.4813 21.7692C22.8213 22.5192 22.4614 23.0492 22.0414 23.4692C21.9714 23.5892 21.9413 23.6692 21.9113 23.7492C21.8713 23.8092 21.8114 23.8792 21.7414 23.9592L20.9914 23.2792C21.2514 22.9992 21.6113 22.6392 21.6713 22.5092C22.5113 21.7392 23.9714 19.9192 24.9014 18.8292C25.1914 18.5092 25.0313 18.5692 25.3113 18.2492C25.5113 18.0092 25.6214 17.9392 25.7914 17.7592C26.0514 17.3992 26.2913 16.9392 26.5213 16.7592C26.6013 16.5992 26.7114 16.3992 26.7414 16.2692C27.2214 15.5992 27.5913 13.8992 27.6613 13.2492C27.6813 12.7592 27.7113 12.0292 27.5813 11.6092C27.5113 11.3892 27.4713 11.2892 27.3013 11.1392C26.9813 10.5892 26.4713 10.2192 25.7313 10.1892C25.4413 10.1592 25.2913 10.0992 25.0013 10.1192C24.5613 10.1292 24.0513 10.2792 23.5913 10.3992C23.2813 10.4692 23.1614 10.4592 22.8214 10.5892C22.7114 10.5992 22.6413 10.5892 22.6713 10.5192C22.3313 10.6492 22.4213 10.6492 22.1713 10.7192C22.0113 10.8492 21.7413 10.9992 21.3613 11.2292C21.1313 11.2492 20.5813 11.6792 20.6113 11.4792C20.1413 11.8492 19.6913 12.2492 19.2713 12.6792C19.2213 12.8992 18.3914 13.7292 18.5714 13.7992C18.3614 14.0392 18.1314 14.3692 17.9314 14.5292C17.7814 14.6992 17.7914 14.7292 17.6814 14.8692C17.2414 15.2992 16.4213 16.4792 16.0213 16.9192C15.8313 17.2792 15.5114 17.6692 14.9914 18.4292C14.9614 18.4292 14.8313 18.6192 14.7313 18.7592C14.6513 18.7892 14.5114 18.9492 14.4014 19.0192C14.1814 19.2792 14.1313 19.5492 14.0113 19.5992C13.7313 19.8892 14.2314 19.1692 14.2414 19.0492C14.6314 18.4992 14.9613 18.0992 15.3413 17.6092C15.5213 17.3192 15.5614 17.2492 15.8814 16.7792C16.2514 16.2592 16.3613 15.9392 17.1113 15.0692C17.1513 14.8492 16.8113 15.2992 16.8113 15.1492C17.2213 14.6192 17.4013 14.2992 17.6113 13.9592L18.0813 13.4292C18.4213 12.9392 18.9913 12.3192 19.2513 11.9492C19.7413 11.5692 20.3413 10.9092 20.8313 10.6792C20.9413 10.6992 20.3213 11.0692 20.2813 11.1892C20.3913 11.1892 21.1313 10.5892 21.5013 10.4192C21.5113 10.3592 21.3713 10.3992 21.0913 10.5592C21.1913 10.3592 22.0114 10.0092 22.4014 9.92921C22.8214 9.74921 23.4413 9.51921 24.0213 9.40921C24.6113 9.27921 25.1614 9.25921 25.4014 9.28921C25.5714 9.29921 25.5113 9.24921 25.7213 9.26921C26.3213 9.34921 26.8714 9.50921 27.0714 9.67921C27.3114 9.80921 27.5113 9.90921 27.6713 10.0592C27.8413 10.1792 27.9913 10.3092 28.1313 10.4992C28.2113 10.7092 28.4313 11.0592 28.5213 11.4192C28.6213 11.7792 28.6614 12.1292 28.6014 12.3392C28.7114 12.6892 28.5513 13.7092 28.5613 13.9992C28.3813 14.4392 28.2913 15.2492 28.0113 15.8192C27.9213 16.1492 27.8113 16.4492 27.7313 16.6992C27.5013 17.1092 27.0513 17.8592 26.7013 18.3392C26.6313 18.4592 26.6014 18.5392 26.5714 18.6192C26.3014 18.9792 26.2913 18.8692 26.0813 19.1192C25.7213 19.5092 25.8614 19.4792 25.5714 19.8092C25.7214 19.5492 25.5314 19.8192 25.4314 19.8592C25.0714 20.3592 24.6313 20.8992 24.4113 21.2592C23.9413 21.7592 23.6514 22.2192 23.2914 22.5292C22.8614 23.0292 22.8014 23.2392 22.3214 23.7792C22.6214 23.6592 23.1014 22.9792 23.5414 22.6192C23.8714 22.2592 24.0613 22.0192 24.2813 21.7492C24.5313 21.5192 24.5713 21.5992 24.8813 21.1692C24.8913 21.0992 24.7813 21.2192 24.6613 21.3492C24.8613 21.0792 25.9114 19.9592 26.2114 19.4892C26.3514 19.3092 26.3813 19.3192 26.5013 19.1692C26.6813 18.9092 27.0813 18.4292 27.0813 18.3192C27.4613 17.8692 27.6814 17.7992 28.1014 16.9792C28.1714 16.9992 28.3914 16.5092 28.5414 16.1192C28.7314 15.5292 28.8213 15.0592 28.9413 14.4492C29.1013 13.9492 29.2213 13.1292 29.2313 12.4292C29.2113 11.7692 29.0613 10.9692 28.7013 10.4592C28.3913 9.90921 28.0914 9.67921 27.8514 9.47921C27.5914 9.31921 27.3713 9.14921 26.9713 8.97921C26.7413 8.91921 26.5013 8.86921 26.2313 8.84921C26.0313 8.76921 25.6313 8.72921 25.2213 8.72921C25.0313 8.69921 24.9713 8.58921 24.4213 8.65921C23.9313 8.74921 24.5913 8.71921 24.4113 8.79921C23.8813 8.89921 22.8613 9.10921 22.1713 9.39921C21.8513 9.53921 21.4313 9.75921 21.0113 9.99921C20.6013 10.2392 20.1613 10.5492 19.8913 10.7392C19.5613 11.0192 19.4214 11.1892 19.1314 11.4792C18.8114 11.7992 18.8013 11.7392 18.4813 12.0692C17.9213 12.7192 16.7814 13.9592 16.4614 14.5392C16.6814 14.3892 16.4213 14.7392 16.3913 14.8892L15.8713 15.5592L15.8013 15.4892C15.7913 15.4092 15.5314 15.7992 15.4914 15.7792C15.6914 15.5092 15.4113 15.7692 15.2813 15.9692C15.3913 15.7492 15.4313 15.5792 15.7213 15.1992C15.5813 15.2292 15.8813 14.8592 15.8913 14.7592C16.0413 14.5692 16.1114 14.4592 16.1314 14.3892C16.8414 13.5792 17.7214 12.2092 18.6314 11.5392C18.9514 11.2492 18.9313 11.1792 19.2713 10.8892C19.4713 10.7692 19.6814 10.5992 19.9314 10.4092C20.1714 10.2092 20.5114 9.98921 20.8514 9.82921C21.3714 9.51921 21.8813 9.23921 22.7013 8.97921C22.9513 8.88921 23.0914 8.84921 23.1514 8.79921C24.0214 8.63921 24.6513 8.45921 25.4213 8.52921C25.8113 8.55921 26.0514 8.54921 26.2914 8.59921C26.5214 8.62921 26.7514 8.66921 27.0714 8.82921C27.2714 8.90921 27.2314 8.81921 27.4614 8.96921C28.1214 9.30921 28.5613 9.87921 28.8713 10.3592C29.2013 10.9292 29.2913 11.4192 29.3813 11.7692C29.4713 12.5992 29.3414 13.7292 29.2914 14.2792C29.1314 14.9392 28.9613 15.4892 28.6213 16.3792C28.3913 16.9692 28.2014 17.4492 27.8514 17.8692C27.6114 18.2692 27.1713 18.9592 26.8113 19.3192C26.6113 19.6692 25.9813 20.3792 25.7713 20.7192C25.2713 21.2892 25.3014 21.2592 24.8214 21.7792C24.4914 22.2292 23.9214 22.8592 23.6514 23.2392C23.4014 23.4492 23.3713 23.4792 23.1713 23.7692C23.0213 23.9492 22.9913 23.9392 22.8713 24.0692C22.6313 24.3192 22.6014 24.4192 22.4314 24.6192L20.4314 22.8092C20.2114 22.6092 20.2813 22.6692 20.2713 22.6592C20.8513 21.9492 21.0513 21.7192 21.5813 21.0792C21.7413 20.8892 21.8114 20.7792 21.8214 20.7092C21.9614 20.5892 22.4013 20.0792 22.3613 20.0292C22.6113 19.8192 22.6213 19.7492 22.8613 19.5192C23.1113 19.2192 23.2913 18.8992 23.6213 18.6392C23.7013 18.5192 23.9813 18.2392 23.8713 18.2592C24.0313 18.1192 24.1413 18.0192 24.3013 17.8692C24.4913 17.5892 25.2513 16.9092 25.2713 16.7492C25.4413 16.6292 25.8413 16.2392 25.8613 16.3192C26.0513 16.1392 26.4014 15.7992 26.3214 15.9592C27.1114 15.1292 27.7413 14.7692 28.2613 14.2292C29.0613 13.7392 29.2513 13.5092 30.0513 13.1892C30.5313 12.9292 30.9913 12.7292 31.5213 12.5992C32.0413 12.4692 32.6513 12.3592 33.4513 12.4492C34.3013 12.5092 35.1313 12.8792 35.6413 13.2092C36.2113 13.5892 36.8213 14.0992 37.2813 14.9792C37.5313 15.4892 37.5113 15.3592 37.6613 15.7592C37.8113 16.3892 37.8313 16.5492 37.9113 16.9792C37.9313 17.8792 37.8513 18.1192 37.8113 18.6792C37.7413 19.0492 37.5413 19.7992 37.4713 19.8292C37.3313 20.2192 37.3213 20.3292 37.3013 20.4892C37.2013 20.6492 37.0513 21.0092 36.8813 21.3492C36.7513 21.5792 36.7613 21.6292 36.7813 21.6592C36.6513 21.8492 36.5713 21.9892 36.4813 22.2092C36.2613 22.5992 36.2013 22.5892 35.9713 22.9692C35.5213 23.6492 35.6313 23.5492 35.2713 24.1492C35.1813 24.1992 34.8513 24.7092 34.7813 24.6992C34.5513 25.0292 34.6313 25.0692 34.3113 25.4692C33.9013 25.7692 33.1813 26.9092 32.5313 27.5392C32.4313 27.6792 32.3513 27.7992 32.2813 27.8992C32.2113 28.0092 32.1713 28.0792 32.1913 28.1092C32.0313 28.2292 31.5114 28.8392 31.6014 28.5892C31.0214 29.2392 30.4913 29.6892 30.0213 30.2192L27.5813 27.8192C27.6013 27.7992 27.6313 27.7792 27.6613 27.7492C27.7213 27.7192 27.7814 27.6992 27.7914 27.7292C28.2914 27.3092 28.8213 26.7592 29.0113 26.4592C29.2713 26.1292 29.4113 26.0192 29.6113 25.7792C30.0913 25.1592 30.0713 25.1292 30.5313 24.6292C31.3513 23.5592 31.9213 22.7592 32.9113 21.6292C33.1513 21.3292 33.4113 21.0392 33.6613 20.7792C33.8813 20.5992 34.2313 20.3292 34.6213 20.0292C34.9513 19.7692 35.6613 19.3092 36.1413 19.1292C36.4813 18.9892 37.2213 18.7492 37.3013 18.7892C38.4213 18.4392 40.0613 18.4092 41.4713 19.0192C41.6513 19.1092 41.8813 19.2692 42.1313 19.4792C42.3613 19.6792 42.5314 19.8892 42.7414 20.1092C42.9414 20.3092 43.0813 20.5892 43.2213 20.8092C43.3613 21.0292 43.4514 21.2292 43.4914 21.3692C43.6914 22.0392 43.7513 21.9392 43.8113 22.4492C43.9013 23.3492 43.7214 23.9992 43.5714 24.6092C43.3814 25.1892 43.1714 25.7392 42.9014 26.3192C42.5214 27.0192 42.0514 27.7292 41.8514 28.2192C41.4314 28.8692 41.0213 29.2092 40.8113 29.7292C40.6813 29.8892 40.5814 30.0192 40.4914 30.1592C40.3714 30.3792 40.2413 30.5992 40.1113 30.8292C39.8513 31.2892 39.5913 31.7492 39.3413 32.1492C39.1713 32.3092 38.9414 32.5992 38.8214 32.6592C38.5614 33.0692 38.5313 33.2492 38.4413 33.4792C38.1913 33.8792 38.0614 33.9692 37.9014 34.3092C37.5814 34.6892 37.1213 35.4092 36.8413 35.7392C36.6313 36.1092 36.3313 36.6192 36.1113 36.9792L33.3313 34.9892C33.3513 34.9592 33.3713 34.9292 33.3813 34.9092C33.6213 34.6892 33.9114 34.1892 33.9314 34.2892C34.1814 33.9992 34.0713 34.0392 34.1413 33.9092C34.6113 33.3692 34.7913 32.9892 35.0013 32.7792C35.1813 32.5492 35.1313 32.5092 35.3113 32.2792C35.6813 31.8592 35.6813 31.9092 36.0513 31.4092C36.0413 31.5792 36.5013 30.9492 36.6713 30.8192C36.8713 30.5592 37.1713 30.2092 37.2013 30.0992C37.5713 29.7392 38.2414 28.9592 38.6514 28.6192C39.3514 27.8992 39.5813 27.6892 40.1113 27.2992C40.5113 26.9692 40.7314 26.7492 40.9314 26.5592C41.2414 26.3492 41.4714 26.1992 41.7414 26.0592C42.0914 25.7792 42.4713 25.5692 42.8813 25.3592C42.9713 25.3092 43.2214 25.2092 43.4014 25.1392C43.5914 25.0792 43.7713 25.0392 43.9713 24.9992C44.3413 24.9392 44.7013 24.9292 45.0613 24.9492C46.1013 25.1692 46.3613 25.3292 46.9213 25.6992C47.3813 25.9392 47.8013 26.2492 48.1913 26.6192C48.3313 26.5392 47.4214 25.8592 47.4014 25.7492C47.6514 25.7792 48.4213 26.4892 48.7613 26.9992C49.0913 27.3992 49.4714 28.0292 49.6514 28.7492C49.8014 29.4892 49.7714 30.1292 49.6814 30.5192C49.5714 31.2992 49.3914 31.9592 49.2914 32.1992C49.1414 32.6692 49.1613 32.7392 49.0313 33.1392C48.4313 34.3992 47.6213 36.1492 46.7313 37.3292C46.5013 37.6892 46.5313 37.7492 46.3013 38.0992C46.2313 38.1192 45.8614 38.7692 45.8514 38.6592C45.4414 39.3892 44.6614 40.3392 44.2914 40.7492C43.9914 41.1992 43.8713 41.2792 43.6413 41.6692C43.4413 41.9092 43.1813 42.2692 43.0913 42.2892C42.9413 42.5092 42.9214 42.6092 42.7114 42.8792C42.4314 43.2092 42.1713 43.4792 41.7713 44.0692C41.6513 44.1692 41.4313 44.4692 41.3113 44.5692C41.2213 44.7192 41.1714 44.8192 41.2114 44.8492C41.0314 45.1192 40.9514 45.1492 40.7414 45.5092C40.5314 45.9192 40.3213 46.1292 40.2813 46.3292C40.1113 46.6092 39.9513 46.8292 39.8413 46.9592C39.5213 47.6492 39.4813 47.4892 39.2613 48.0492C39.1913 48.0592 39.4314 47.5692 39.3214 47.6392C39.0314 48.2492 38.8413 48.9592 38.6113 49.4792C38.3913 50.3792 38.1513 51.1292 38.0813 51.8392C38.0413 51.8892 38.0014 51.9892 37.9614 52.2192C37.8814 53.0692 37.6113 54.7092 37.6913 55.2592C37.6313 55.7492 37.5914 55.5792 37.5714 56.0892C37.4814 56.0392 37.4313 56.6392 37.3613 56.8992C37.2713 56.9892 37.1913 57.1592 37.1113 57.4092C37.1213 57.0192 37.0313 56.5392 37.1413 56.1192C37.1213 55.8592 37.1914 55.2692 37.1814 54.9792C37.3114 54.1992 37.3914 53.5592 37.4614 52.7792C37.6614 51.6192 37.8714 50.7892 37.9014 50.1892C37.9614 49.9492 38.1713 49.4492 38.1613 49.2692C38.2413 49.0292 38.2913 49.0592 38.4113 48.6392C38.5313 48.3192 38.4613 48.2992 38.5313 48.0892C38.6613 47.8092 38.8014 47.4492 38.9314 47.2492C39.1014 46.7492 38.8213 47.3392 38.8913 47.0592C38.7513 47.2292 38.5213 47.9192 38.4113 48.0192C38.3813 48.0292 38.4113 47.9592 38.4413 47.8792C38.4713 47.8392 38.4813 47.8792 38.5113 47.8592ZM43.7013 41.2392C44.3713 40.5092 44.8813 39.8192 45.6113 38.7292C45.8113 38.4592 46.1313 38.0292 46.2513 37.7592C46.6113 37.3392 47.1913 36.3392 47.6413 35.5392C47.7713 35.2492 47.9314 34.8792 48.0714 34.5692C48.4514 33.8792 48.8114 33.0692 49.0414 32.6892C49.2214 32.2192 49.1614 32.1992 49.2914 31.9292C49.2514 31.8892 49.2713 31.6492 49.3713 31.2392C49.4913 30.6792 49.6213 30.0492 49.5013 29.2392C49.4113 28.4292 49.0114 27.6792 48.5714 27.1592C48.9514 27.7292 48.3014 26.9892 48.2914 27.0792C48.9714 27.9392 49.2013 28.3792 49.3913 29.1192C49.4213 29.6092 49.5013 30.3092 49.4413 30.7092C49.3913 30.5592 49.3214 31.3092 49.2714 31.0192C49.0614 32.0392 48.2113 33.9192 48.0013 34.5392C47.7513 34.7992 47.1313 35.9792 46.8413 36.5692C46.5713 36.8092 46.1414 37.5992 45.7114 38.2392C45.6114 38.3992 45.6713 38.3792 45.5913 38.5092C45.0713 39.1392 44.6113 39.8492 44.0313 40.5692C43.9813 40.7292 43.8313 40.9792 43.5913 41.3192C43.1313 41.7992 42.5613 42.7192 42.1413 43.1792C41.9313 43.5792 41.6113 43.9092 41.5513 44.1292C42.2013 43.1892 43.0113 42.2092 43.7013 41.2392ZM41.4213 26.5492C41.1413 26.6992 40.3513 27.3492 40.2313 27.5592C40.7113 27.1092 40.6914 27.2092 40.9614 27.0092C41.1714 26.8492 41.5014 26.6092 41.7114 26.4492C41.9814 26.2692 42.3213 26.1092 42.3613 25.9892C42.0013 26.1492 41.7113 26.3092 41.4213 26.5492ZM40.0213 27.7792C40.0113 27.7392 39.9013 27.7992 39.7513 27.9192C39.6113 28.0892 39.6313 28.1392 40.0213 27.7792ZM42.9213 25.6692C42.8813 25.6792 42.7114 25.7992 42.7914 25.7692C42.8314 25.7592 43.0013 25.6492 42.9213 25.6692ZM35.9614 32.2092C35.9314 32.3592 36.1013 32.1792 36.2213 32.0792C36.8013 31.3592 36.8813 31.1192 37.5913 30.3892C37.7013 30.1892 38.0814 29.7692 38.1014 29.6492C37.2814 30.4792 36.8013 31.0092 36.2013 31.8392C35.9013 32.2392 35.8313 32.2392 35.5513 32.5992C35.1613 33.1292 34.7814 33.8092 34.4014 34.2392C34.4114 34.2992 34.5413 34.1492 34.5513 34.1992C34.8113 33.8092 35.1713 33.3192 35.5613 32.8192C35.5713 32.7492 35.3913 32.9392 35.5113 32.7692C35.6313 32.7192 35.7114 32.4592 35.9614 32.2092ZM38.5313 29.2592C38.9213 28.8392 39.3014 28.4492 39.4314 28.2392C38.9114 28.7092 38.5613 29.1192 38.5313 29.2592ZM41.0714 44.8092C41.1014 44.7792 41.1813 44.6292 41.1313 44.6792C41.1113 44.7092 41.0214 44.8592 41.0714 44.8092ZM40.4513 45.7092C40.4513 45.5392 40.1414 46.1392 39.9914 46.3592C40.0314 46.4392 40.3713 45.9192 40.4513 45.7092ZM36.0613 36.3692C36.3213 35.8692 36.5513 35.5592 36.8613 35.0592C36.8713 35.1092 37.4114 34.3492 37.2414 34.4792C37.0314 34.6292 36.3313 35.8692 36.3413 35.6992C36.0913 36.0392 36.1414 36.0592 35.9014 36.4092C35.9014 36.5392 35.8814 36.5192 35.9914 36.4892C35.9114 36.6292 35.8213 36.7192 35.7513 36.7992L33.6514 35.2992C33.7014 35.2492 33.7313 35.2092 33.7313 35.1592C33.6813 35.2192 33.6513 35.2592 33.6213 35.2792L35.7813 36.8292C35.8813 36.7192 35.9313 36.7192 36.1113 36.4292L36.0613 36.3692ZM40.8113 19.5692C41.3613 19.7192 41.9713 20.1792 42.0613 20.4492C42.0213 20.4692 41.6913 20.1092 41.7313 20.2392C41.8913 20.4192 42.0614 20.6092 42.2414 20.8092C42.3914 21.0392 42.5613 21.2892 42.7013 21.5592C42.9313 22.1192 43.0513 22.7592 42.9513 23.2792C42.9413 22.9892 42.8513 22.1592 42.5813 21.5592C42.5113 21.5392 42.5914 21.8292 42.6514 22.0692C42.6814 22.0392 42.7814 22.2292 42.7914 22.5692C42.7014 22.3692 42.7613 22.8292 42.7313 22.8892C42.7913 23.8192 42.4013 24.8492 41.9713 25.8592C42.0813 25.6592 42.0113 25.8592 41.9413 26.0192C41.8613 26.0792 41.7113 26.3392 41.5313 26.6192C41.5413 26.6592 41.6013 26.6392 41.5113 26.7892C41.4113 26.9292 41.2913 27.0992 41.1213 27.3892C40.9613 27.7492 40.6513 28.1892 40.1313 28.9592C40.0113 29.1992 39.8613 29.4792 39.6913 29.7892C39.6613 29.7892 39.6513 29.7292 39.5613 29.8692C39.5613 29.9092 39.6013 29.8992 39.5313 30.0292C39.4013 30.1592 39.1614 30.7292 38.9614 31.0392C38.3114 32.0292 38.0613 32.3992 37.6213 33.0792C37.5613 33.0692 37.2514 33.5792 37.1814 33.6192C36.9214 34.0792 36.6713 34.3592 36.4113 34.7892C36.0113 35.3392 35.9113 35.5992 35.6913 35.8092C35.6113 36.0092 35.5613 36.1792 35.5813 36.2692L35.4213 36.5592L34.0113 35.5492C34.2513 35.1992 34.4714 34.8692 34.4914 34.7092C34.2314 34.9992 34.1013 35.1092 33.8713 35.4392L35.5714 36.6592C35.5914 36.6192 35.6214 36.5692 35.6514 36.5192C35.6714 36.5392 35.6113 36.6292 35.6113 36.6692C36.0613 35.9492 36.3014 35.5992 36.6814 35.0392C36.6314 34.8792 37.0213 34.2692 37.4813 33.7092C37.6313 33.4892 37.4814 33.5692 37.6814 33.3192C38.2814 32.7292 38.7914 31.6292 39.3214 30.9592C39.2914 30.9392 39.3313 30.8192 39.4213 30.6592C39.5613 30.4792 39.7113 30.1892 39.8613 29.8792C39.9813 29.6292 40.1513 29.3492 40.3413 29.1292C40.4313 28.7692 41.3213 27.7692 41.3913 27.4192C41.5413 27.3192 41.6213 27.3892 41.8013 27.2092C41.4013 27.8792 41.3114 28.0292 40.7914 28.8092C40.6314 29.0192 40.6013 28.9692 40.3713 29.3492C40.2713 29.5592 40.4713 29.4492 40.2713 29.7692C40.1313 29.8192 40.0113 30.0192 39.9513 29.9792C39.5013 30.7992 39.2113 31.3492 38.9713 31.8192C38.9313 31.8292 38.7713 32.0692 38.6913 32.1492C38.7913 32.1592 38.4914 32.5792 38.4614 32.7192C38.6014 32.6092 38.7414 32.4892 38.9614 32.2092C38.8214 32.2692 39.3013 31.6692 39.3113 31.5492C39.4613 31.3992 39.8214 30.7292 39.9614 30.5692C39.9514 30.5392 39.9414 30.4892 40.0714 30.2792C40.5614 29.3892 41.1013 28.8292 41.7713 27.5992C42.3313 26.7692 42.6213 26.2892 42.9113 25.4192L42.9513 25.4392C43.1013 24.9792 43.1113 24.9492 43.2713 24.4892C43.2013 24.4092 43.3713 23.8792 43.3613 23.3992C43.3613 23.0492 43.4413 22.9892 43.4213 22.8492C43.4013 22.6192 43.3814 22.3692 43.3214 22.1192C43.2414 21.8592 43.1613 21.5992 43.0613 21.2892C42.8213 20.9192 42.6114 20.5992 42.2914 20.3292C41.9914 19.8792 41.4313 19.5092 40.9813 19.3392C40.5113 19.1492 40.0913 19.0892 39.6913 19.0092C38.9713 18.9792 37.7113 19.1492 37.0113 19.3592C36.5213 19.6192 36.0614 19.6992 35.1514 20.3092C34.4414 20.8892 33.8013 21.4992 33.0213 22.3192C32.5313 22.8792 32.5613 22.8992 32.1713 23.3492C31.8313 23.8692 31.0313 24.8692 30.9713 25.1392C31.2513 24.7992 31.3313 24.8092 31.5913 24.3892L31.6413 24.4392L31.9813 23.9792C32.4413 23.5592 32.8713 22.9592 33.4513 22.3992C33.4513 22.3592 33.3913 22.3592 33.5113 22.2292C34.0713 21.6192 34.8013 21.0492 35.3113 20.6492C35.4613 20.5792 35.3613 20.7092 35.7313 20.4392C36.1513 20.1392 36.8313 19.9092 37.1913 19.7592C37.4313 19.7292 37.7214 19.6892 38.1014 19.6292C38.3914 19.5792 38.2114 19.5292 38.5714 19.4992C38.5914 19.5292 38.5413 19.5692 38.7213 19.5592C38.7013 19.4992 38.9713 19.4692 39.2013 19.4992C38.9313 19.5292 38.6914 19.5892 39.1814 19.5892C39.2114 19.5292 39.2914 19.4792 39.5414 19.4592C39.7814 19.5092 40.4514 19.5692 40.6814 19.7692C40.8214 19.7592 40.8414 19.6992 41.2914 19.8692C40.7114 19.5292 40.5213 19.5592 40.2813 19.3992C40.2113 19.3992 39.7114 19.4092 39.5714 19.3392C39.6914 19.2292 40.5413 19.4292 40.8113 19.5692ZM38.4413 32.7392L38.1913 33.0892C38.2113 33.1392 38.3113 33.0092 38.4713 32.7692L38.4413 32.7392ZM35.3813 33.4592C34.8813 34.0692 34.6314 34.3692 34.5714 34.6292C34.9914 34.0592 35.2813 33.5892 35.7713 33.0492L35.7114 32.9792C35.4514 33.2692 35.5513 33.2392 35.3813 33.4592ZM36.1613 32.4392C36.1313 32.4692 36.0313 32.6192 36.0913 32.5692C36.1213 32.5492 36.2213 32.3992 36.1613 32.4392ZM29.6814 29.7092L29.7114 29.7492C30.2414 29.2092 30.3813 29.0792 30.8313 28.5692C30.6713 28.5992 31.0013 28.2892 31.0613 28.1692C30.8313 28.3292 30.4813 28.7292 30.2613 28.9692C29.9213 29.2992 29.6414 29.6092 29.4614 29.8292L28.0213 28.4092C28.1713 28.2692 28.3013 28.1592 28.4113 28.0692C28.4613 27.9692 29.0813 27.4492 28.9413 27.4692C28.5613 27.8692 28.2913 28.0692 27.9713 28.3492L29.5313 29.8892C29.5713 29.8292 29.6314 29.7692 29.6814 29.7092ZM29.3113 27.0792C29.6113 26.7592 29.7513 26.6992 30.1213 26.1992C30.0813 26.1492 30.3514 25.8292 30.2914 25.7992C29.7714 26.3992 29.5413 26.7092 29.3113 27.0792ZM28.6514 14.3892C28.2614 14.6792 28.2513 14.6192 28.0113 14.7892C27.4113 15.3392 26.8314 15.7592 26.3514 16.3092C26.0214 16.5092 25.3613 17.1792 25.0313 17.4392C24.9713 17.5592 24.8013 17.7392 24.5513 17.9992C23.9313 18.6092 23.2513 19.3692 22.7613 19.8592C22.7613 19.9092 22.6814 20.0092 22.6014 20.1192C22.0514 20.7192 21.7713 21.2492 21.3313 21.6792C21.2713 21.8492 20.8814 22.3192 20.5714 22.6992C20.6214 22.7892 20.6413 22.6292 20.8413 22.3992C20.9213 22.3492 21.0613 22.1992 21.2313 21.9892C21.6613 21.4392 22.1914 20.8292 22.4914 20.4292C22.7214 20.1992 22.9813 19.9092 23.1913 19.7292C23.2213 19.6192 23.4013 19.3892 23.6213 19.1392C23.8113 18.9392 23.7513 19.1292 24.0513 18.7692C24.5613 18.0792 25.4413 17.3292 26.0513 16.6592C26.4613 16.3792 27.3013 15.5992 27.6213 15.3392C27.8613 15.1592 27.8813 15.2192 28.1213 15.0392C28.6413 14.5892 29.1813 14.2992 29.7613 13.9692C29.8413 13.8392 30.8614 13.4492 30.7414 13.4192C29.9014 13.8492 29.6614 13.8192 28.6814 14.4992C28.6514 14.4292 28.8814 14.2992 28.6514 14.3892ZM31.8514 27.4592C31.9814 27.1792 32.8713 26.2792 32.7813 26.1792C32.3713 26.6892 32.1813 26.8192 31.7613 27.3492C31.4913 27.6992 31.5513 27.7192 31.1713 28.0592C31.2313 28.0992 31.4514 27.9192 31.8514 27.4592ZM23.8613 22.6292C23.6313 22.8592 23.5613 22.8492 23.3313 23.0792C23.3913 23.1392 22.8614 23.6492 22.9314 23.6992C23.3414 23.2492 23.6613 22.9692 23.8613 22.6292ZM33.2813 25.6792C34.0113 24.7792 34.1613 24.3492 34.8913 23.4292C34.9913 23.2292 35.3513 22.7292 35.2313 22.7492C35.1513 22.7992 34.9213 23.2192 34.8713 23.2092C34.6613 23.5692 34.3413 23.9492 34.1113 24.2692C34.0713 24.3192 33.9613 24.5492 33.8813 24.6492C33.5813 25.0892 33.1013 25.6592 33.0613 25.8692C33.1813 25.7392 33.2913 25.6092 33.2813 25.6792ZM39.0213 46.9392C39.0513 46.9692 39.1213 46.8892 39.2013 46.7492C39.1813 46.7092 39.1113 46.7992 39.0213 46.9392ZM22.8013 23.7692C22.2713 24.2492 22.6313 24.1192 22.8013 23.7692V23.7692ZM36.4914 20.5592C36.4214 20.7092 36.3713 20.7592 36.3313 20.8092C36.1813 21.1592 35.9913 21.5492 36.0813 21.5592C36.3613 21.0592 36.4914 20.6992 36.4914 20.5592ZM40.2313 44.9592C40.3113 44.8192 40.4513 44.6392 40.4413 44.5992C40.3613 44.7392 40.2313 44.9192 40.2313 44.9592ZM25.6113 20.5592C25.6213 20.5692 25.7013 20.4892 25.7013 20.4492C25.6913 20.4392 25.6113 20.5192 25.6113 20.5592ZM28.4413 28.0992C28.4313 28.0792 28.2514 28.2292 28.2414 28.2692C28.2814 28.2792 28.3613 28.1892 28.4413 28.0992ZM36.8214 15.5292C36.8814 15.5492 36.7914 15.3292 36.6514 15.0592C36.4914 14.8192 36.2813 14.5392 36.1413 14.4492L36.0813 14.4892C36.3813 14.8392 36.7313 15.3792 36.9113 15.9392C37.1113 16.4892 37.1814 17.0092 37.2414 17.2892C37.2314 16.5992 37.0414 15.9592 36.8214 15.5292ZM35.3413 22.6592C35.3613 22.6792 35.5013 22.4592 35.5013 22.4092C35.4113 22.5492 35.3513 22.5792 35.3413 22.6592ZM41.6713 42.7192L41.5113 42.9492L41.5414 42.9792L41.7013 42.7492L41.6713 42.7192ZM31.6913 13.1392C31.6913 13.1292 31.5613 13.1492 31.5313 13.1792C31.5313 13.1992 31.6613 13.1792 31.6913 13.1392ZM32.7313 12.9592C32.5913 12.9692 32.3713 12.9792 32.3713 13.0092C32.5013 12.9792 32.7213 12.9892 32.7313 12.9592ZM34.0013 13.1692C34.4413 13.2892 34.7513 13.4492 34.8913 13.4892C34.6913 13.3292 34.1613 13.1392 34.0013 13.1692ZM33.0813 13.0192C33.7413 13.2192 34.0613 13.0392 33.0813 13.0192V13.0192ZM34.9513 13.6692C35.3313 13.9492 35.4413 13.8492 35.0013 13.6192L34.9513 13.6692ZM24.0613 8.71921C24.0613 8.70921 23.9313 8.71921 23.9113 8.74921C23.9013 8.75921 24.0313 8.74921 24.0613 8.71921ZM47.0613 34.1992C46.9313 34.4392 46.8513 34.4892 46.6913 34.7992C46.7313 34.8992 47.0813 34.3392 47.0613 34.1992ZM21.0013 22.7692C20.9913 22.7492 20.9214 22.7792 20.9014 22.8592C20.9114 22.8892 20.9813 22.8592 21.0013 22.7692ZM26.9813 16.5092C26.7513 16.5992 26.3613 17.0192 26.0213 17.3692C26.1613 17.3592 25.8614 17.6592 25.6814 17.8692C25.4814 18.0492 25.4014 18.0792 25.1514 18.3392C24.7614 18.8392 24.2913 19.1392 24.0913 19.4992C24.2013 19.2792 23.7813 19.6892 23.7713 19.7792C24.2313 19.2892 23.5213 20.1892 23.5813 20.2092C23.2413 20.6192 23.1713 20.7392 22.9213 20.9392C22.9613 20.9592 22.8714 21.0892 22.6814 21.2992C22.2814 21.7192 22.2013 21.8292 21.8113 22.2092C21.9713 22.0092 22.0013 21.9292 21.9413 21.9392C21.6213 22.3192 21.7213 22.1992 21.3913 22.5792C21.3813 22.6192 21.4213 22.6192 21.3313 22.7292C21.1513 22.9292 21.0014 23.1292 20.9014 23.2492L21.7713 24.0392C22.0713 23.6892 22.2813 23.3992 22.5613 23.0292C22.6513 22.9992 22.7613 22.9392 23.0813 22.5592C23.2413 22.2392 23.7714 21.6192 23.9914 21.2492C24.2714 21.0492 25.2013 19.9592 25.2613 19.7292C25.7313 19.2692 26.4213 18.3192 26.3413 18.2092C25.8913 18.6692 25.8413 18.8792 25.3313 19.3792C24.9113 19.9092 24.4713 20.4992 23.9713 20.9992C23.8413 21.1592 23.8413 21.2092 23.7213 21.3592C23.6613 21.3792 23.5713 21.4592 23.4113 21.6392C23.1113 22.0392 22.6613 22.4592 22.3113 22.9292L22.2813 22.8892C21.9713 23.2592 21.6914 23.4992 21.4614 23.7492L21.1913 23.4992C21.2613 23.4092 21.3414 23.3192 21.4014 23.2092C21.4514 23.2092 21.5913 23.0592 21.7813 22.7992C22.3313 21.9292 23.2513 20.8292 23.8413 20.0692C24.2213 19.7792 24.5413 19.2392 25.0013 18.8392C25.2013 18.6292 25.1514 18.5892 25.3514 18.3792C25.6714 18.1592 26.0314 17.6592 26.3514 17.3592C26.4614 17.2892 26.7413 17.0092 26.7013 17.1292C26.9613 16.8892 27.0113 16.7992 27.2013 16.6092C27.3513 16.6692 27.5813 16.2392 27.8913 16.1192C27.9713 15.8992 29.2113 14.9892 29.7313 14.7492C30.0113 14.5092 30.3714 14.2292 30.9914 13.9492C31.0214 14.0092 30.7713 14.0792 31.0113 14.0392C31.6013 13.7492 32.4013 13.5692 32.9113 13.6492C33.2413 13.5792 33.5114 13.4792 34.1014 13.6092C33.3314 13.3192 33.0014 13.3892 32.3214 13.4792C31.9114 13.5292 31.8514 13.4892 31.4014 13.6192C31.2014 13.6892 31.1313 13.7492 30.8313 13.8592C30.8513 13.8992 30.7413 13.9692 30.5813 14.0592C29.9613 14.3692 29.8613 14.5392 29.3413 14.8892C29.0013 15.0692 28.8014 15.2992 28.6014 15.3392C28.7214 15.1692 28.8314 15.0892 28.6514 15.1192C28.0914 15.5692 27.4013 16.0492 26.9813 16.5092ZM37.9113 31.6292C38.0213 31.6392 37.7313 31.8692 37.5213 32.2192C37.5813 32.2592 38.1213 31.5692 38.2213 31.3392C38.0613 31.5792 38.1313 31.2992 37.9113 31.6292ZM37.0714 32.9392C37.0414 32.8792 36.8913 33.0592 36.7513 33.2192C36.8313 33.2192 36.4613 33.6592 36.4813 33.7292C36.7813 33.3192 36.8214 33.3492 37.0714 32.9392ZM37.4413 32.3392L37.1913 32.6792C37.2113 32.7192 37.3113 32.6092 37.4713 32.3692L37.4413 32.3392ZM33.2914 24.4192C33.5414 24.1292 33.4314 24.1592 33.6014 23.9292C34.2114 23.2792 34.9214 22.2092 35.4014 21.1992C35.6014 20.8292 35.6214 20.9792 35.8514 20.4692C35.8514 20.3792 35.8913 20.2292 35.9713 20.0292C36.1213 19.6092 36.1914 19.5492 36.2914 19.2192C36.2814 19.0792 36.3313 18.8392 36.4413 18.3392L36.3313 18.2992C36.1013 19.7792 35.2413 21.1892 34.5913 22.3492C34.1813 22.7792 34.1613 23.0492 33.6913 23.6192C33.4713 24.0192 33.3413 24.1292 33.0513 24.5692C32.8013 24.8092 32.3713 25.4092 32.1713 25.6792C32.3513 25.6092 33.0314 24.6592 33.2914 24.4192ZM39.2813 29.3092C39.0713 29.5492 39.0613 29.7392 38.9713 29.9492C39.0813 29.7192 39.2513 29.4292 39.2813 29.3092ZM27.4213 9.97921C27.0413 9.67921 26.3413 9.37921 26.2713 9.46921C26.7013 9.67921 26.8313 9.57921 27.2513 9.91921C27.4213 10.0192 27.4413 10.0392 27.6313 10.2092C27.7413 10.2892 27.8513 10.4292 27.9413 10.5892C28.0513 10.7392 28.1514 10.9092 28.2114 11.0892C28.3514 11.4392 28.3913 11.7192 28.4413 11.7292C28.4613 11.5392 28.3713 11.0792 28.1313 10.7092C27.9013 10.3292 27.5613 10.0692 27.4213 9.97921ZM27.1713 17.2292C26.8813 17.4392 27.0213 17.5992 27.1713 17.2292V17.2292ZM27.5113 16.5592C27.5613 16.4492 27.6413 16.2992 27.6213 16.2792C27.5813 16.3892 27.5013 16.5492 27.5113 16.5592ZM28.2213 14.3492C28.2613 14.1592 28.3114 14.0892 28.3514 13.7892C28.3314 13.5392 28.1813 14.3792 28.2213 14.3492ZM27.5113 10.2992C27.8513 10.7192 28.1413 11.0792 28.2013 11.5892C28.2413 11.5592 28.2814 11.7492 28.3214 11.7392C28.1914 10.9892 27.8813 10.5492 27.5113 10.2992ZM45.5213 27.2092C45.6013 27.2392 45.6813 27.2592 45.7613 27.2992L45.7813 27.2592C45.7013 27.2192 45.6214 27.1992 45.5414 27.1692L45.5213 27.2092ZM45.8813 27.3592C46.0313 27.4292 46.0214 27.4692 46.2114 27.5592C46.2414 27.5292 46.1613 27.4592 46.0313 27.3692C46.0113 27.3892 45.9113 27.3492 45.8813 27.3592ZM19.4314 11.9992C19.6314 11.7892 20.4013 11.1392 20.0313 11.3792C20.0713 11.3892 19.3714 11.9192 19.4314 11.9992ZM27.8113 15.2492C27.8513 15.0292 27.8514 14.8892 27.9314 14.5392C27.8314 14.5292 27.6913 15.0692 27.5013 15.5592C27.5913 15.5792 27.3013 16.1892 27.4213 16.1592C27.6213 15.6192 27.6513 15.7992 27.8113 15.2492ZM26.4014 17.8492C26.4314 17.8192 26.5213 17.6692 26.4713 17.7192C26.4413 17.7492 26.3514 17.8992 26.4014 17.8492ZM26.8813 17.1492C26.9113 17.1192 26.9913 16.9592 26.9413 17.0192C26.9213 17.0392 26.8313 17.1992 26.8813 17.1492ZM26.0213 18.2692C26.1213 18.1392 26.1813 18.1192 26.1913 18.0492C26.1813 18.0292 26.0313 18.2192 26.0213 18.2692ZM28.0113 11.7392C28.0713 12.2992 28.1213 12.2792 28.1313 12.7092C28.1213 12.9792 28.0914 13.0092 28.0714 13.2592C28.1114 13.5092 27.9713 14.1692 28.0313 14.2692C28.1613 13.4092 28.2313 12.5692 28.1913 11.8692C28.0913 11.6192 28.0613 11.5692 28.0113 11.7392ZM27.5113 10.6292C27.7013 10.8992 27.8213 11.0692 27.9113 11.1992C27.8213 10.9492 27.8613 10.9492 27.5913 10.5792L27.5113 10.6292ZM24.9113 20.3092C24.8913 20.4192 25.4113 19.8892 25.4113 19.8392C25.2313 20.0192 25.2013 19.9592 24.9113 20.3092ZM25.8713 19.3092C25.7613 19.3492 25.7413 19.2592 25.5013 19.4992C25.3413 19.6892 25.0513 20.0192 25.3013 19.9192L25.8713 19.3092ZM22.8313 20.9092C22.8613 20.8892 22.9613 20.7392 22.9113 20.7892C22.8713 20.8092 22.7713 20.9492 22.8313 20.9092Z" fill="#1E1E1E"/><path d="M37.1814 52.4683C37.1614 52.6783 37.1514 52.5683 37.1614 52.4583C37.1814 52.2683 37.2314 52.1583 37.2114 52.3283C37.1914 52.3683 37.1814 52.4283 37.1814 52.4683Z" fill="#1E1E1E"/><path d="M23.4413 21.8884C23.7513 21.6184 23.3513 22.0584 23.1713 22.2184C23.1313 22.1484 23.5213 21.9184 23.4413 21.8884Z" fill="#1E1E1E"/><path d="M37.9113 30.8691C37.9213 31.1191 37.5013 31.6091 37.0213 32.3091C37.0313 32.1891 36.8213 32.5091 36.7213 32.5991C37.0113 32.2191 37.4813 31.3791 37.9113 30.8691Z" fill="#1E1E1E"/><path d="M39.6714 27.7785C39.5414 28.0685 39.7014 27.6385 39.5414 27.8485C39.2414 28.3385 39.0614 28.5185 38.8614 28.9585C38.7014 29.2185 38.6514 29.1785 38.5614 29.2785C38.2914 29.9085 37.9514 30.2085 37.7114 30.6885C37.3814 30.9185 38.1814 29.9185 38.1614 29.8285C38.2414 29.6985 38.2514 29.7585 38.2814 29.7585C38.3514 29.5885 38.4514 29.3885 38.6014 29.1285C38.7614 28.8685 38.9414 28.5785 39.1414 28.2485C39.3314 28.1485 39.7614 27.4685 39.9414 27.0985C40.0614 26.9085 40.0914 26.9185 40.1814 26.7685C40.3414 26.3885 40.6014 26.0685 40.6814 25.7885C40.7414 25.6885 40.8114 25.5885 40.8414 25.5785C40.9114 25.4285 40.9414 25.3185 40.9014 25.2985C41.2514 24.6485 41.2114 24.4285 41.4314 23.9785C41.5514 23.9185 41.2914 24.5685 41.1714 24.8585C41.1114 25.1185 41.1914 25.1885 40.8614 25.7785C40.8314 25.5785 40.3114 26.6485 40.3114 26.7285C40.1514 26.8985 39.6914 27.5985 39.6714 27.7785Z" fill="#1E1E1E"/><path d="M6.14136 40.8188C6.13136 40.7788 6.20136 40.8488 6.20136 40.8688C6.21136 40.9188 6.15136 40.8488 6.14136 40.8188Z" fill="#1E1E1E"/><path d="M2.98132 35.4199C3.00132 35.4199 3.03133 35.4999 3.06133 35.5599L3.14133 35.7699C3.10133 35.7999 3.03132 35.5199 2.98132 35.4199Z" fill="#1E1E1E"/><path d="M2.01141 30.589C2.03141 30.619 1.97142 30.709 1.95142 30.699C1.96142 30.639 1.98141 30.579 2.01141 30.589Z" fill="#1E1E1E"/><path d="M4.50136 26.8785C4.42136 26.8285 4.79136 26.3685 4.88136 26.3485C5.11136 25.9985 5.16137 25.9685 5.40137 25.7285C5.33137 25.9085 5.20136 26.0485 5.05136 26.1785C4.90136 26.3685 4.67136 26.7585 4.50136 26.8785Z" fill="#1E1E1E"/><path d="M6.72144 23.8498L6.92143 23.5898C7.02143 23.6098 6.76144 23.9198 6.72144 23.8498Z" fill="#1E1E1E"/><path d="M13.5814 55.6191C13.6114 55.6391 13.6114 55.7791 13.5914 55.7791C13.5514 55.7391 13.5814 55.7091 13.5814 55.6191Z" fill="#1E1E1E"/><path d="M4.32135 26.9195L4.17134 27.1095C4.08134 27.1095 3.98135 27.1495 3.88135 27.1695C4.12135 26.8295 4.12134 26.8395 4.31134 26.6895C4.26134 26.8695 4.33135 26.8195 4.32135 26.9195Z" fill="#1E1E1E"/><path d="M13.3514 53.2695L13.3814 53.4395H13.3314L13.3014 53.2695H13.3514Z" fill="#1E1E1E"/><path d="M13.3613 53.6094C13.3813 53.6094 13.4013 53.7094 13.4113 53.7794C13.3813 53.7794 13.3713 53.6794 13.3613 53.6094Z" fill="#1E1E1E"/><path d="M13.4514 55.4489H13.4014C13.3514 55.2889 13.4014 55.3489 13.3914 55.1289H13.4414C13.4414 55.3489 13.4814 55.2989 13.4514 55.4489Z" fill="#1E1E1E"/><path d="M4.53143 26.3481C4.53143 26.3981 4.49144 26.3981 4.43144 26.4781C4.42144 26.4381 4.51143 26.3281 4.53143 26.3481Z" fill="#1E1E1E"/><path d="M1.99134 36.9688C2.10134 37.2887 2.34134 37.7387 2.21134 37.8387C2.18134 37.7187 2.09134 37.5287 2.10134 37.4387C2.02134 37.2887 1.99133 37.4488 1.92133 37.3288C1.85133 37.1088 1.86134 36.9688 1.99134 36.9688Z" fill="#1E1E1E"/><path d="M1.40141 29.1794C1.43141 29.1494 1.3914 29.2494 1.3714 29.2594C1.3314 29.2894 1.38141 29.1994 1.40141 29.1794Z" fill="#1E1E1E"/><path d="M1.26139 29.3786C1.29139 29.3486 1.25139 29.4486 1.23139 29.4586C1.19139 29.4986 1.24139 29.3986 1.26139 29.3786Z" fill="#1E1E1E"/><path d="M1.44133 36.029C1.39133 35.809 1.08133 35.029 0.991333 34.709C1.14133 34.759 1.19133 35.349 1.38133 35.619C1.44133 35.809 1.49133 35.989 1.44133 36.029Z" fill="#1E1E1E"/><path d="M0.751389 34.1788C0.601389 33.7288 0.741392 33.6988 0.551392 33.2988C0.711392 33.4188 0.831389 34.0288 0.751389 34.1788Z" fill="#1E1E1E"/><path d="M1.45135 36.1084C1.40135 36.1484 1.33135 35.9684 1.26135 35.8184C1.32135 35.8784 1.38135 35.9184 1.45135 36.1084Z" fill="#1E1E1E"/><path d="M0.221436 31.6083C0.231436 31.5683 0.25144 31.6783 0.24144 31.6983C0.23144 31.7483 0.221436 31.6283 0.221436 31.6083Z" fill="#1E1E1E"/><path d="M1.1814 35.5898C1.2014 35.5898 1.23138 35.6798 1.26138 35.7398C1.23138 35.7498 1.2014 35.6498 1.1814 35.5898Z" fill="#1E1E1E"/><path d="M2.25142 38.2689C2.07142 38.0689 1.94142 37.6489 1.75142 37.4889C1.66142 37.3289 1.68142 37.0289 1.55142 37.0289C1.48142 36.8489 1.57143 36.8589 1.46143 36.6289C1.59143 36.6489 1.81143 37.3089 1.96143 37.4189C2.13143 37.7989 2.14142 37.9789 2.25142 38.2689Z" fill="#1E1E1E"/><path d="M0.491333 30.2999C0.611333 29.8499 0.781333 29.8099 0.491333 30.2999V30.2999Z" fill="#1E1E1E"/><path d="M2.49132 27.4286C2.42132 27.4986 2.37131 27.5386 2.34131 27.5086C2.43131 27.3586 2.45132 27.4086 2.49132 27.4286Z" fill="#1E1E1E"/><path d="M1.20131 35.9294C1.09131 35.8394 0.961318 35.4494 0.851318 35.1694C0.891318 35.1594 0.811312 34.9494 0.891312 34.9894C0.941312 35.0294 1.00132 35.2894 1.04132 35.2894C1.05132 35.5594 1.13131 35.6694 1.20131 35.9294Z" fill="#1E1E1E"/><path d="M1.05141 29.2188C0.991411 29.4488 0.851411 29.3088 1.05141 29.2188V29.2188Z" fill="#1E1E1E"/><path d="M0.571381 33.8799L0.481369 33.8999L0.281372 33.1699C0.371372 33.3399 0.471381 33.6099 0.571381 33.8799Z" fill="#1E1E1E"/><path d="M0.19136 30.9487C0.13136 31.3187 0.0613556 31.4087 0.0613556 31.7687C-0.0386444 31.7187 0.101353 31.3687 0.0113525 31.2887C0.0813525 30.9387 0.0513562 31.0387 0.171356 30.6387C0.231356 30.6387 0.0913605 31.0087 0.19136 30.9487Z" fill="#1E1E1E"/><path d="M0.0913651 31.9592C0.0913651 32.1292 0.0313651 32.1192 0.0913651 32.4092C-0.0586349 32.3792 0.00136513 31.9492 0.0913651 31.9592Z" fill="#1E1E1E"/><path d="M0.111328 32.5793C0.111328 32.5293 0.151337 32.6393 0.151337 32.6593C0.141337 32.7093 0.111328 32.6093 0.111328 32.5793Z" fill="#1E1E1E"/><path d="M24.5913 25.1384C24.6213 25.1684 24.5213 25.1284 24.5113 25.1184C24.4713 25.0884 24.5713 25.1284 24.5913 25.1384Z" fill="#1E1E1E"/><path d="M24.6013 25.1186C24.6213 25.0686 24.7013 25.0886 24.8513 25.1786C25.0913 25.2786 25.2813 25.2086 25.5513 25.4486C25.5613 25.5286 25.3813 25.3986 25.3013 25.3886C25.4413 25.5286 25.1713 25.3686 25.1613 25.4486C24.8713 25.2686 24.8013 25.2886 24.6013 25.1186Z" fill="#1E1E1E"/><path d="M27.5714 25.5392C27.6014 25.5792 27.5014 25.5292 27.4814 25.5092C27.4514 25.4692 27.5514 25.5192 27.5714 25.5392Z" fill="#1E1E1E"/><path d="M13.3013 52.9291C13.1313 52.6991 13.0413 52.2391 12.8613 51.7091C12.6513 51.2291 12.3813 50.6691 12.1213 50.3591C11.9713 50.0491 11.7713 49.7391 11.6113 49.5791C11.4913 49.4291 11.6113 49.4691 11.5213 49.3391C11.3613 49.1291 11.2013 48.9291 11.1113 48.9091C10.9913 48.7391 10.7913 48.4691 10.6713 48.4291C10.5813 48.2691 10.4613 48.0991 10.2313 47.8491C10.0613 47.5891 9.99132 47.5391 9.84132 47.3291C9.75132 47.2491 9.68132 47.1891 9.59132 47.1091C9.23132 46.6491 9.08133 46.5391 8.57133 45.9491C8.45133 45.8391 8.34132 45.7691 8.23132 45.6991C8.23132 45.8391 8.79133 46.4291 8.89133 46.4191C8.93133 46.5691 9.41134 47.0191 9.40134 47.1491C9.58134 47.3691 9.60133 47.2491 9.78133 47.4691C9.77133 47.5991 10.1113 47.9491 10.1913 48.0791C10.6213 48.5091 10.7813 48.7191 11.1713 49.0791C11.3113 49.2391 11.3113 49.2991 11.3213 49.3791C11.4113 49.4991 11.4713 49.5491 11.5113 49.5591C11.6813 49.9391 11.8513 50.0591 12.1513 50.5491C12.2313 50.7191 12.3513 50.9591 12.3213 51.0191C12.4613 51.2291 12.6013 51.5491 12.6513 51.7891C12.8713 52.1891 12.9413 52.9191 13.1113 53.2291C13.0813 53.5191 13.2413 53.9591 13.1813 54.3091C13.2013 54.4691 13.2513 54.5191 13.2513 54.7291C13.2213 55.0291 13.2813 55.5191 13.2413 55.7791C13.3713 56.9091 13.2913 58.2591 13.4313 58.9391C13.3713 59.1691 13.2513 59.2091 13.2713 59.6691C13.1513 59.6991 13.1013 59.9591 13.0313 60.1491C12.9013 60.2091 12.9013 59.7791 12.7813 59.8191C12.6213 58.9091 12.6513 58.2691 12.5413 57.1191C12.5213 56.7591 12.5713 56.5991 12.5513 56.2191C12.5313 55.9291 12.4713 55.7691 12.4313 55.5591C12.4113 55.2491 12.4713 55.1691 12.4713 54.9091C12.4813 54.7491 12.4513 54.7091 12.4413 54.5991C12.4613 54.3091 12.4713 53.9691 12.3513 53.5391C12.2513 52.7391 12.0413 52.3291 11.8213 51.6291C11.7513 51.4291 11.7213 51.4991 11.6513 51.3691C11.5313 51.1691 11.5513 51.1091 11.4613 50.9491C11.3713 50.7491 11.3313 50.7891 11.2513 50.6291C11.2113 50.3991 10.8713 50.0291 10.6613 49.8291C10.6113 49.6391 10.2913 49.3991 10.3113 49.2991C10.2213 49.1891 10.1613 49.1491 10.1113 49.1391C10.0213 48.9291 9.66133 48.6591 9.60133 48.5091C9.49133 48.3991 9.42133 48.3891 9.30133 48.2291C9.16133 48.0791 9.16133 48.0191 9.07133 47.8991C8.93133 47.7691 8.69133 47.3991 8.66133 47.4991C8.63133 47.3791 8.20133 46.8591 8.07133 46.8291C7.21133 45.8991 6.66133 45.1791 6.05133 44.4491C5.97133 44.4091 5.85133 44.2691 5.74133 44.1591C5.53133 43.9091 5.59133 43.8491 5.46133 43.6491C5.29133 43.4491 4.98133 43.1991 4.97133 42.9791C4.85133 42.7991 4.79133 42.7691 4.75133 42.8191C4.52133 42.3791 4.27133 41.9091 4.03133 41.4291C3.94133 41.3091 3.85133 41.1391 3.78133 41.0991C3.50133 40.4691 3.10134 40.0091 2.79134 39.4791C2.62134 39.0891 2.48133 38.7591 2.30133 38.3591C2.54133 38.4191 2.82133 39.4591 3.07133 39.4591C3.02133 39.1691 2.87132 39.0991 2.70132 38.7291C2.80132 38.5991 3.00133 39.0691 3.10133 38.9991C3.23133 39.3991 3.34133 39.6991 3.60133 40.1091L3.47133 40.1691C3.28133 39.8891 3.40133 39.9191 3.28133 39.7191C3.12133 39.5391 3.32132 39.9991 3.48132 40.2491C3.51132 40.3091 3.67133 40.4291 3.58133 40.2891C3.63133 40.2691 3.68132 40.4891 3.62132 40.4491C3.76132 40.6891 3.81133 40.6291 3.82133 40.8091C3.92133 40.9491 4.00133 41.0291 4.07133 41.0491C4.21133 41.2991 4.13133 41.2991 4.21133 41.4291C4.34133 41.5891 4.45133 41.6691 4.55133 41.7191C4.80133 42.0291 4.84133 42.0791 5.07133 42.3591L5.03133 42.3791C5.25133 42.5391 5.36133 42.9591 5.72133 43.3891C5.66133 43.3891 5.70133 43.4691 5.69133 43.4991C5.90133 43.7191 6.28133 43.9991 6.38133 44.3191C6.58133 44.5591 6.72133 44.6191 6.92133 44.8391C7.01133 44.9791 7.23133 45.2091 7.10133 45.2091C7.30133 45.3691 7.63133 45.7891 7.74133 45.7491C7.66133 45.5491 7.45133 45.4091 7.32133 45.2591C7.23133 45.1491 7.23133 45.1091 7.13133 44.9991C6.93133 44.7691 6.67133 44.5691 6.38133 44.1391C6.22133 43.9391 6.30132 43.9291 6.20132 43.7791C5.88132 43.3191 5.64133 43.0691 5.41133 42.8291C5.30133 42.6791 5.34133 42.6491 5.27133 42.5391C5.22133 42.4591 5.09133 42.3091 5.03133 42.2091C4.91133 42.0191 4.83133 41.8891 4.77133 41.7091C3.95133 40.3891 3.37132 39.3491 2.84132 38.2291C2.74132 38.0491 2.65133 37.8891 2.58133 37.8091C2.30133 37.0891 1.89132 36.3291 1.73132 35.7891C1.64132 35.5791 1.55133 35.3991 1.46133 35.1891C1.41133 34.7991 1.09133 33.9591 0.991333 33.6391C0.911333 33.3891 0.941334 33.2991 0.851334 33.0091C0.871334 32.9791 0.851327 32.8691 0.891327 32.8391C0.781327 32.5591 0.861336 32.5191 0.791336 32.1391C0.681336 32.0691 0.701332 32.3291 0.771332 32.6191C0.641332 32.6291 0.561336 32.1891 0.541336 31.8191C0.541336 31.7391 0.511333 31.7491 0.491333 31.7291C0.521333 31.5691 0.551337 31.0691 0.651337 31.0891C0.701337 30.7291 0.841336 30.2791 1.04134 30.0191C1.14134 29.8391 1.14134 29.7791 1.15134 29.6991C1.22134 29.5391 1.28132 29.5891 1.37132 29.4591C1.42132 29.3891 1.43132 29.3091 1.48132 29.2291C1.59132 29.0491 1.77133 28.8991 1.81133 28.7591C1.72133 28.7691 1.66133 28.9791 1.56133 29.0891C1.46133 29.0391 1.20133 29.4091 1.08133 29.4391C1.15133 29.3091 1.18133 29.3191 1.21133 29.3291C1.33133 29.1591 1.29133 29.1291 1.35133 29.0091C1.54133 28.8391 1.78134 28.5291 1.90134 28.4091C1.82134 28.6891 2.10133 28.2991 2.19133 28.3491C2.36133 28.1491 2.28133 27.9991 2.47133 27.9491C2.57133 27.7891 2.42134 27.8191 2.65134 27.5591C2.60134 27.5591 2.48133 27.7091 2.46133 27.6091C2.59133 27.3991 2.82133 27.1791 2.86133 26.9791C2.95133 26.8991 2.99133 26.9391 3.05133 26.9291C3.11133 26.7791 3.28134 26.6191 3.40134 26.4791C3.44134 26.2591 3.64133 26.1091 3.92133 25.7391C3.72133 25.7491 3.36132 26.4491 3.12132 26.6491C3.11132 26.4091 3.63133 25.9491 3.99133 25.4591C4.08133 25.4591 4.34133 25.0391 4.38133 25.1591C4.59133 24.8691 4.62133 24.6791 4.86133 24.4991C4.92133 24.3991 4.95133 24.3191 4.96133 24.2591C4.90133 24.1491 4.67133 24.4591 4.60133 24.3691C4.37133 24.6591 4.56133 24.6391 4.35133 24.9091C4.24133 24.9691 4.11134 25.1091 4.04134 25.0691C3.91134 25.2391 4.04133 25.2191 3.91133 25.3891C3.75133 25.5291 3.48133 25.9391 3.33133 26.0591C3.29133 25.9691 3.63134 25.6191 3.79134 25.3891C3.88134 25.2091 4.05132 24.9791 4.12132 24.8091C4.38132 24.5391 4.37133 24.3691 4.64133 24.1891C4.73133 24.0791 4.76133 24.0091 4.75133 23.9691C4.99133 23.7491 5.35133 23.2891 5.63133 22.9091C5.69133 22.9191 5.64134 22.9991 5.65134 23.0391C5.81134 22.8091 5.92132 22.6191 5.98132 22.4591C6.22132 22.1591 6.42132 21.8791 6.48132 21.7091C6.69132 21.4191 6.79133 21.3791 7.00133 21.0891C7.06133 21.0691 7.31133 20.8691 7.30133 20.8191C7.38133 20.7291 7.31133 20.8391 7.33133 20.8491C7.48133 20.6991 7.59133 20.4391 7.63133 20.4691C7.75133 20.2991 7.73133 20.2291 7.88133 20.0391C7.91133 19.8391 8.17133 19.5791 8.19133 19.4491C8.26133 19.3591 8.33133 19.2691 8.36133 19.2691C8.44133 19.0691 8.55133 18.9291 8.80133 18.6891C9.03133 18.4891 9.38134 18.3091 9.54134 18.2991C9.79134 18.2091 9.86133 18.1591 10.0213 18.0891C10.2213 18.0691 10.2113 18.1291 10.3113 18.1491C10.7513 18.0191 11.6113 17.9691 12.0913 18.1991C12.2213 18.2091 12.2713 18.1891 12.3013 18.1491C12.8513 18.2991 12.9913 18.2291 13.6113 18.5191C13.8113 18.5691 13.9413 18.5891 14.0013 18.5391C14.3613 18.7191 14.7613 18.8291 14.7513 18.9691C15.0213 19.1191 15.0713 19.0591 15.3113 19.1991C15.3213 19.2391 15.4413 19.2791 15.4713 19.2691C15.6113 19.3791 15.6613 19.4791 15.8413 19.5991C16.1913 19.7691 16.5413 19.8191 16.9413 20.1491C17.2113 20.2991 17.3913 20.3491 17.5713 20.3891C17.7213 20.5091 17.7013 20.4691 17.9013 20.6191C18.1713 20.7591 18.3213 20.7591 18.7113 21.0291C18.8313 21.0691 19.0313 21.1991 19.0413 21.1191C19.2513 21.2491 19.2813 21.3191 19.4213 21.4291C19.7213 21.6291 19.8613 21.6591 20.1313 21.8291C20.3613 22.0191 20.7313 22.2391 20.9613 22.3291C21.1313 22.4791 21.1913 22.6091 21.3513 22.7591C21.3813 22.9391 21.0813 22.8991 21.2913 23.1091C21.5013 23.2591 21.4313 23.0991 21.6113 23.2191C21.9013 23.4391 22.1413 23.6591 22.4213 23.7591C22.6013 23.9591 23.1613 24.2491 23.3213 24.4391L23.7413 24.6891C23.7413 24.7091 23.9313 24.8891 23.9313 24.8291C24.0113 24.9091 24.0313 24.9691 24.0813 25.0291C24.2813 25.1191 24.3313 25.0491 24.5113 25.1191C24.7913 25.3491 25.1513 25.4691 25.0713 25.5791C25.2913 25.6991 25.5813 25.8891 25.7213 25.9291C25.8113 25.8991 25.3113 25.5591 25.7913 25.8291C25.8113 25.7691 25.6213 25.6491 25.4913 25.5491C25.7613 25.6391 25.8113 25.7091 26.1013 25.8191C26.2113 25.9591 26.2513 25.9691 26.4113 26.0891C26.5113 26.1391 26.5013 26.0791 26.5413 26.0591C26.7613 26.2391 27.1613 26.5491 27.3413 26.5391C27.5213 26.6591 27.5413 26.7091 27.6613 26.8191C28.0313 27.0891 28.2313 27.1791 28.4013 27.4091C28.6113 27.4591 29.1213 28.0291 29.1813 27.8791C29.2413 28.0091 29.5013 28.2791 29.5413 28.4391C29.6813 28.5791 29.7613 28.6191 29.8313 28.6291C30.0213 28.9191 30.2113 29.2891 30.3113 29.7191C30.4013 30.1291 30.3913 30.5391 30.3413 30.8891C30.2513 31.2591 30.1813 31.1791 30.0813 31.3891C29.9413 31.8591 29.6813 32.3091 29.3713 32.6891L29.1113 32.8391C28.9113 33.0091 29.2613 32.8891 28.9313 33.1091C28.8313 33.0991 29.0113 32.9691 28.9413 32.9491C28.6513 33.1591 28.6513 33.2291 28.6813 33.2891C28.4613 33.5091 27.8813 33.7991 27.8513 33.9191C27.5713 34.0091 27.2813 34.2291 27.0813 34.2291C26.9813 34.2691 27.0213 34.2991 27.0113 34.3291C26.8513 34.3891 26.4913 34.4591 26.4013 34.5391C26.2713 34.5691 26.3613 34.4791 26.2113 34.5191C26.0113 34.5891 26.3213 34.5191 26.1313 34.6191C25.8313 34.6691 25.4013 34.7291 25.0613 34.8291C24.8613 34.7591 24.4313 34.9091 24.2513 34.8291C23.9713 34.8991 23.4913 34.9291 23.0113 34.9091C22.8513 34.8391 22.6013 34.7691 22.7813 34.6891C22.9313 34.6791 22.9413 34.7091 22.9513 34.7391C23.1713 34.6291 23.6413 34.6191 24.0913 34.6491C24.1813 34.5991 24.4113 34.5691 24.5313 34.5191C24.8113 34.4891 24.9613 34.5091 25.3113 34.4291C25.7213 34.2891 26.3813 34.1591 26.8113 33.8791C27.0113 33.8791 27.2413 33.6491 27.3113 33.7191C27.5213 33.5791 27.9713 33.3691 28.1413 33.1991C28.2713 33.1091 28.3113 33.1391 28.4513 33.0291C28.7313 32.8491 28.6013 32.8291 28.8513 32.6291C28.9513 32.6991 29.1013 32.3791 29.2413 32.2291L29.2913 32.2791C29.4613 32.0391 29.6513 31.8291 29.8113 31.5691C29.9813 31.0591 30.0213 31.1391 30.1113 30.5691C30.1513 30.4691 30.1813 30.2891 30.2013 30.1391C30.2013 29.9591 30.1613 29.9391 30.1413 29.8091C30.1613 29.5591 29.9413 29.1091 29.9713 29.0291C29.8013 28.8991 29.5413 28.5891 29.2813 28.3791C28.9813 28.0391 28.9813 28.0591 28.6913 27.8391C28.6513 27.7591 28.5513 27.6491 28.4813 27.5591C28.3413 27.4291 28.2513 27.3991 28.2313 27.4491C28.1013 27.3291 28.0813 27.2491 27.8513 27.0991C27.7313 26.9791 27.7213 27.0591 27.6813 27.0391C27.5213 26.9491 27.3213 26.7591 27.3413 26.9191C27.2113 26.8191 27.3413 26.8091 27.1113 26.6791C27.0513 26.7391 27.3413 26.8091 27.1713 26.8691C27.3713 26.9891 27.6113 27.1391 27.7713 27.3191C27.8513 27.3691 27.8513 27.3191 27.9413 27.3891C28.4013 27.7791 28.7213 28.0191 28.9313 28.3191C29.0013 28.3591 29.0613 28.3891 29.1113 28.3991C29.3013 28.5591 29.5513 28.9791 29.6513 29.0591C29.8213 29.4191 30.0313 30.0691 29.9113 30.7091C29.8113 31.3591 29.4513 31.9191 29.1313 32.2591C28.9213 32.4491 29.0513 32.4391 28.8313 32.6191C28.6713 32.7491 28.5813 32.7691 28.4313 32.8491C28.2013 33.0291 27.9713 33.2491 27.7613 33.2691C27.6713 33.3391 27.5413 33.4291 27.4813 33.4991C26.9713 33.7091 25.9613 34.1291 25.5313 34.1691C25.2313 34.2791 24.7513 34.3391 24.4313 34.3691C24.2613 34.3891 24.1613 34.4091 24.0013 34.4791C23.5013 34.4891 23.0613 34.4291 22.5513 34.4791C22.3513 34.4591 22.2513 34.4191 22.0513 34.3891C21.7613 34.3591 21.4213 34.3691 21.1213 34.3191C20.9213 34.2791 20.8613 34.1991 20.6413 34.1891C20.5813 34.1491 20.5513 34.1091 20.5913 34.0591C20.3713 34.0091 20.4113 34.0591 20.2613 33.9891C20.1313 34.0191 19.9413 33.9991 19.6613 33.9391C19.5513 33.8291 19.1313 33.7191 19.2613 33.6091C18.9213 33.5091 18.5713 33.4091 18.2413 33.2991C18.0913 33.3891 17.4513 33.1191 17.4313 33.2991C17.2513 33.2491 17.0113 33.1991 16.8913 33.0991C16.7713 33.0491 16.7513 33.0691 16.6513 33.0291C16.3313 32.8491 15.5213 32.5991 15.2213 32.4091C14.9813 32.3691 14.7213 32.2391 14.2213 32.0391C14.2213 32.0091 14.0913 31.9591 14.0113 31.9191C13.9913 31.8591 13.8913 31.7891 13.8413 31.7191C13.6713 31.6091 13.5013 31.6491 13.4713 31.5591C13.2913 31.3991 13.7513 31.6091 13.8313 31.5791C14.1813 31.7391 14.4413 31.8991 14.7713 32.0591C14.9613 32.1191 15.0113 32.1291 15.3213 32.2391C15.6713 32.3691 15.8813 32.3491 16.4913 32.6291C16.6313 32.5691 16.3213 32.4691 16.4213 32.3991C16.7913 32.5291 17.0113 32.5391 17.2413 32.5591L17.6213 32.6991C17.9613 32.7491 18.4213 32.8791 18.6913 32.8591C19.0013 33.0291 19.5113 33.0491 19.7713 33.1691C19.7913 33.2691 19.4213 33.1191 19.3513 33.1491C19.3813 33.2491 19.9113 33.3091 20.1313 33.3491C20.1613 33.2991 20.0913 33.2591 19.9213 33.2291C20.0513 33.1491 20.5013 33.2991 20.7113 33.3791C21.2113 33.4591 22.1313 33.4891 22.3813 33.5491C22.4713 33.5491 22.4413 33.5091 22.5513 33.5091C22.8613 33.5591 23.1313 33.4991 23.2613 33.5391C23.5313 33.5091 23.6813 33.4591 23.8913 33.3991C24.1213 33.5191 24.5913 33.2591 24.8213 33.3691C24.9813 33.2791 25.5213 33.2091 25.6413 33.0991C25.9113 33.1391 26.2713 32.8991 26.5913 32.8291C26.7413 32.7291 26.8813 32.6491 26.9813 32.5491C27.1913 32.4791 27.5613 32.1891 27.7913 31.9991C27.8313 31.9491 27.8513 31.8991 27.8613 31.8591C28.0213 31.7191 28.0413 31.7991 28.1613 31.6991C28.3613 31.5391 28.2613 31.5191 28.4113 31.3691C28.3613 31.5091 28.4413 31.3791 28.5013 31.3691C28.6513 31.1191 28.7713 30.8191 28.7413 30.6391C28.8413 30.3791 28.7513 30.1991 28.7813 30.0191C28.7113 29.8091 28.5913 29.7791 28.4213 29.5491C28.3913 29.7291 28.6213 29.9391 28.5513 30.0991C28.5613 30.2391 28.5713 30.3291 28.5713 30.4391C28.5113 30.5391 28.4413 30.4991 28.4313 30.6791C28.4613 30.7091 28.4813 30.6591 28.5113 30.6091C28.5313 30.7291 28.1613 31.1991 28.0113 31.4091C27.9413 31.4791 27.9213 31.4691 27.8613 31.5191C27.7813 31.6391 27.5513 31.7691 27.5513 31.8391C27.2813 31.9491 27.1513 31.9191 26.8313 32.1391C26.8013 32.0891 26.6013 32.1991 26.4313 32.2691C26.1813 32.3991 25.9913 32.5191 25.7213 32.6191C25.4813 32.6491 25.1013 32.7291 24.8013 32.7591C24.5113 32.8191 24.2113 32.8691 24.0113 32.9191C23.5213 32.9191 23.4713 33.0091 23.1213 32.9691C23.0313 32.9991 22.9313 33.0291 22.8113 33.0591C22.7213 33.0291 22.5513 33.0191 22.3613 33.0091C22.2713 32.9491 22.2613 32.8791 22.0113 32.8491C21.7813 32.8491 22.0713 32.9391 21.9813 32.9891C21.7213 33.0091 21.2113 32.8991 20.8413 32.8291C20.4913 32.7991 19.8713 32.7191 19.5313 32.5791C19.3113 32.5291 19.1913 32.5391 18.9813 32.4891C18.7413 32.4391 18.7813 32.3791 18.5413 32.3191C18.0813 32.2491 17.2213 31.8691 16.8413 31.8291C16.9413 31.9591 16.7113 31.8791 16.6213 31.9191L16.1713 31.7391L16.2113 31.6591C16.2613 31.6191 16.0113 31.5491 16.0213 31.5091C16.1913 31.5791 16.0213 31.4391 15.8913 31.4091C16.0413 31.4191 16.1413 31.3891 16.3913 31.4891C16.3713 31.3791 16.6113 31.4891 16.6813 31.4491C16.8113 31.4991 16.8813 31.5091 16.9213 31.4891C17.4613 31.7591 18.3513 31.8291 18.8713 32.1291C19.0813 32.1991 19.1213 32.1491 19.3313 32.2191C19.5313 32.3691 19.8613 32.3791 20.2113 32.5091C20.5113 32.5491 20.7913 32.5691 21.2013 32.6491C21.3313 32.6691 21.4013 32.6691 21.4313 32.6391C21.8413 32.7691 22.1413 32.7091 22.4613 32.7891C22.7813 32.8091 22.8713 32.7191 23.1313 32.7691C23.2113 32.7691 23.1813 32.7191 23.2813 32.7291C23.7913 32.7391 24.2313 32.6891 24.4913 32.5791C24.8113 32.5691 25.3013 32.4591 25.5113 32.3291C25.8013 32.2691 26.0613 32.2291 26.4313 32.0591C26.6813 31.9391 26.7813 31.7891 27.0213 31.7191C27.1013 31.6491 27.2113 31.5491 27.3313 31.4691C27.4213 31.3891 27.5213 31.3191 27.6113 31.2691C27.6913 31.1291 27.9413 30.8991 27.9513 30.7591C28.0713 30.5691 28.0713 30.5791 28.1413 30.4391C28.1413 30.3191 28.1313 30.1891 28.0613 30.1691C28.1013 30.1191 28.0913 30.1091 28.0213 30.0691C27.9913 30.0291 28.0113 30.0091 27.9913 29.9691C27.9313 29.8791 27.8813 29.8791 27.8113 29.8191C27.5613 29.5291 27.4113 29.3991 27.1113 29.1291C27.0213 29.0491 26.9513 29.0291 26.9113 29.0291C26.8613 28.9491 26.6013 28.7391 26.5513 28.7891C26.4413 28.6491 26.4113 28.6591 26.2813 28.5391C26.1113 28.4391 25.9113 28.3991 25.7613 28.2291C25.6813 28.2091 25.5213 28.0891 25.5213 28.1691C25.4413 28.0991 25.3713 28.0391 25.2813 27.9691C25.1013 27.9291 24.6513 27.5991 24.5513 27.6491C24.4713 27.5591 24.2013 27.4191 24.2513 27.3691C24.1313 27.2891 23.8813 27.1791 23.9913 27.1691C23.3913 26.9291 23.1113 26.6491 22.7113 26.5691C22.3213 26.2691 22.1413 26.2891 21.8213 25.9991C21.3313 25.7691 21.0113 25.5591 20.4813 25.2191C19.8913 24.9091 19.4413 24.7491 18.8213 24.3291C18.6413 24.1991 18.6513 24.2791 18.5113 24.1991C18.3213 24.0491 18.2513 24.0191 18.0813 23.9691C17.7713 23.7691 17.6813 23.6891 17.4413 23.6091C17.3013 23.5091 16.9713 23.3591 16.9713 23.2991C16.8013 23.1891 16.7313 23.1991 16.6513 23.1891C16.5813 23.1191 16.4213 23.0191 16.2513 22.9191C16.1413 22.8391 16.1113 22.8591 16.0813 22.8691C15.9913 22.7891 15.9213 22.7391 15.8013 22.6991C15.5913 22.5791 15.6213 22.5291 15.4113 22.4091C15.0413 22.1791 15.0813 22.2491 14.7413 22.0891C14.7213 22.0191 14.4213 21.8791 14.4413 21.8191C14.2513 21.7191 14.2213 21.7991 13.9913 21.6591C13.8413 21.3991 13.1713 21.2291 12.8013 20.9791C12.6513 20.9291 12.5313 20.9191 12.5013 20.9791C12.4513 20.9091 12.1113 20.8391 12.2413 20.7791C11.8513 20.6891 11.5913 20.5791 11.2213 20.5291C11.1913 20.5091 11.1713 20.4891 11.1813 20.4491C10.9013 20.4191 10.6113 20.4391 10.4913 20.5091C10.4213 20.5391 10.3713 20.5391 10.3213 20.5391H10.3013H10.2913L10.1813 20.1591L10.1913 20.1791L10.2213 20.2491C10.2613 20.3291 10.3013 20.4091 10.3513 20.4691C10.3713 20.4991 10.3613 20.4791 10.3613 20.4891C10.3413 20.5091 10.3513 20.4791 10.2613 20.5391C9.76132 21.1491 9.42133 21.5691 8.96133 22.1991C8.86133 22.3691 8.76133 22.5391 8.66133 22.6991C8.45133 22.8991 8.06134 23.3391 7.79134 23.7691C7.68134 23.8891 7.48133 24.2091 7.42133 24.1991C7.14133 24.6891 6.59133 25.1791 6.36133 25.6391C6.15133 25.8391 5.77133 26.3491 5.64133 26.5191C5.48133 26.7091 5.56133 26.7291 5.44133 26.8891C5.01133 27.3991 4.69133 27.7491 4.32133 28.2791C4.04133 28.5691 3.75133 28.9191 3.66133 29.2091C3.40133 29.5391 3.11132 29.6991 3.01132 29.9991C2.67132 30.2891 2.45132 30.7491 2.37132 31.0291C2.30132 31.0791 2.23133 31.1791 2.16133 31.1891C2.14133 31.3391 2.21133 31.3891 2.27133 31.4591C2.28133 31.5891 2.24133 31.6391 2.31133 31.7591C2.28133 31.9191 2.36132 32.2791 2.37132 32.4991C2.46132 32.6891 2.56133 33.0391 2.67133 33.2591C2.66133 33.4391 2.85133 33.7091 2.75133 33.7091C2.79133 33.9091 2.84133 33.8391 2.89133 33.9091C2.97133 34.2891 3.14133 34.4591 3.16133 34.6191C3.22133 34.7591 3.27133 34.7391 3.33133 34.8891C3.41133 35.1691 3.38133 35.1691 3.52133 35.4591C3.40133 35.4291 3.60133 35.7891 3.60133 35.9091C3.68133 36.0591 3.78133 36.2791 3.85133 36.2991C3.92133 36.5591 4.17132 37.0191 4.26132 37.2791C4.52132 37.7391 4.60132 37.8791 4.70132 38.2091C4.82132 38.4391 4.92133 38.5691 5.02133 38.6691C5.10133 38.8391 5.15132 38.9691 5.20132 39.1091C5.48132 39.4491 5.60133 39.8491 5.91133 40.2291C6.05133 40.5791 6.11133 40.6891 6.16133 40.9591L6.49133 41.4791C6.59133 41.4391 6.35133 41.0791 6.41133 40.9991C6.53133 41.0191 6.65132 41.4091 6.76132 41.5891C6.97132 41.8991 7.35133 42.3491 7.50133 42.6491C7.68133 42.9091 7.91133 43.1391 7.96133 43.2591C8.10133 43.4391 8.17133 43.4291 8.31133 43.5791C8.66133 44.1791 9.43133 44.8691 9.88133 45.5591C10.0313 45.7391 10.0913 45.7191 10.2413 45.8991C10.2213 45.9591 10.5413 46.2291 10.4513 46.2491C10.7913 46.5491 11.2113 47.1091 11.3813 47.3891C11.6113 47.6091 11.6213 47.6991 11.8313 47.8791C11.9313 48.0291 12.1113 48.2191 12.1013 48.3091C12.2213 48.4391 12.3013 48.4591 12.4313 48.6591C12.5813 48.9191 12.6913 49.1491 12.9613 49.5591C12.9813 49.6691 13.1013 49.8991 13.1113 50.0091C13.1713 50.1091 13.2313 50.1691 13.2713 50.1491C13.3713 50.3491 13.3613 50.4091 13.5013 50.6691C13.6713 50.9391 13.6913 51.1591 13.8013 51.2691C13.8813 51.4991 13.9113 51.6891 13.9213 51.8191C14.1113 52.3391 14.0013 52.3391 14.1013 52.7391C14.0513 52.7791 13.9913 52.3891 13.9413 52.4791C14.0213 52.9491 14.1813 53.4491 14.1413 53.8491C14.2513 54.4891 14.1713 55.0391 14.2713 55.4291C14.2413 55.4591 14.2313 55.5291 14.2313 55.6591C14.3313 56.1591 14.3213 57.1191 14.4713 57.4191C14.4713 57.6991 14.4113 57.6091 14.4713 57.8991C14.3813 57.8791 14.4113 58.2191 14.3713 58.3691C14.3013 58.4291 14.2413 58.5291 14.1913 58.6791C14.1513 58.4591 13.9913 58.2091 14.0413 57.9591C13.9813 57.8191 13.9713 57.4791 13.9213 57.3091C13.9313 56.8591 13.9113 56.4791 13.8413 56.0291C13.8213 55.3391 13.8113 54.8491 13.6813 54.4591C13.6713 54.2991 13.7113 53.9491 13.6313 53.8491C13.6213 53.6891 13.6813 53.6891 13.6213 53.4091C13.5913 53.1891 13.5313 53.2091 13.4913 53.0691C13.4613 52.8691 13.4313 52.6391 13.4013 52.4691C13.2513 52.1391 13.3613 52.5691 13.2613 52.3991C13.2613 52.5491 13.4013 52.9891 13.3513 53.0791C13.3313 53.0991 13.3213 53.0491 13.3113 52.9991C13.2613 52.9391 13.2913 52.9491 13.3013 52.9291ZM11.4413 47.8591C11.1413 47.3491 10.7913 46.9891 10.3113 46.4591C10.2013 46.3091 10.0213 46.0591 9.88133 45.9691C9.73133 45.6891 9.29132 45.2191 8.98132 44.8391C8.85132 44.7391 8.70133 44.5791 8.56133 44.4591C8.31133 44.1191 8.05132 43.7591 7.98132 43.5391C7.84132 43.3391 7.79133 43.3791 7.74133 43.2391C7.68133 43.2691 7.60132 43.1991 7.48132 43.0491C7.18132 42.6391 6.86133 42.1491 6.55133 41.7391C6.65133 41.9791 6.40133 41.7091 6.36133 41.7591C6.59133 42.1191 6.73133 42.2191 6.92133 42.4091C6.96133 42.5791 7.20133 42.7391 7.32133 42.8791C7.22133 42.8691 7.46133 43.1091 7.31133 43.0691C7.53133 43.4691 8.18133 44.3291 8.50133 44.5191C8.53133 44.7291 9.01133 45.2791 9.30133 45.5091C9.34133 45.7291 9.70133 46.0791 9.99133 46.3991C10.0613 46.4791 10.0713 46.4291 10.1413 46.4891C10.3813 46.8791 10.7213 47.1991 11.0513 47.6391C11.1513 47.6691 11.2813 47.7791 11.4513 47.9591C11.6313 48.2791 12.1513 48.7691 12.3313 49.1591C12.5513 49.3691 12.6513 49.6691 12.8013 49.7491C12.4213 49.0891 11.9013 48.3291 11.4413 47.8591ZM4.87132 39.0191C4.82132 38.8691 4.55133 38.4191 4.44133 38.3491C4.64133 38.6291 4.56133 38.6191 4.64133 38.7791C4.71133 38.8991 4.81133 39.0791 4.88133 39.1891C4.96133 39.3291 5.02133 39.5091 5.11133 39.5191C5.06133 39.3191 4.98132 39.1791 4.87132 39.0191ZM4.34132 38.2191C4.38132 38.2091 4.37133 38.1391 4.33133 38.0491C4.25133 37.9591 4.20132 37.9791 4.34132 38.2191ZM5.26132 39.7891C5.26132 39.7691 5.19132 39.6891 5.20132 39.7291C5.21132 39.7491 5.27132 39.8291 5.26132 39.7891ZM2.98132 35.3391C2.88132 35.2991 2.92133 35.4291 2.92133 35.5191C3.11133 35.9791 3.25133 36.0591 3.41133 36.5691C3.50133 36.6591 3.62133 36.9291 3.71133 36.9491C3.49133 36.3791 3.37133 36.0191 3.10133 35.5391C2.99133 35.2991 3.03134 35.2491 2.93134 35.0291C2.78134 34.7091 2.53133 34.3591 2.47133 34.0391C2.42133 34.0291 2.45134 34.1391 2.40134 34.1291C2.52134 34.3591 2.64133 34.6691 2.77133 34.9891C2.82133 35.0091 2.79132 34.8691 2.84132 34.9691C2.80132 35.0591 2.94132 35.1491 2.98132 35.3391ZM3.80133 37.2391C3.94133 37.4991 4.09133 37.7591 4.21133 37.8391C4.05133 37.5091 3.90133 37.2591 3.80133 37.2391ZM13.0813 50.2291C13.0713 50.2091 13.0013 50.1091 13.0113 50.1591C13.0213 50.1791 13.0913 50.2791 13.0813 50.2291ZM13.3813 50.9091C13.2713 50.8491 13.4913 51.2491 13.5513 51.4391C13.6313 51.4391 13.4913 51.0291 13.3813 50.9091ZM2.14133 33.0991C2.00133 32.8191 1.96133 32.6191 1.89133 32.3491C1.92133 32.3491 1.88133 31.9391 1.82133 32.0391C1.73133 32.1391 2.00134 32.8091 1.90134 32.7691C1.94134 32.9891 1.99134 32.9691 2.04134 33.1991C2.13134 33.2391 2.10133 33.2391 2.16133 33.1791C2.22133 33.3091 2.16133 33.4391 2.24133 33.4791C2.20133 33.3091 2.28133 33.3291 2.21133 33.0991H2.14133ZM5.84132 25.1291C5.72132 25.3391 5.59133 25.5891 5.44133 25.6391C5.41133 25.6091 5.56133 25.4391 5.47133 25.4491C5.15133 25.7491 4.90133 26.3091 4.50133 26.6491C4.53133 26.4891 4.77134 26.1991 4.93134 25.9391C4.89134 25.8891 4.80133 25.9891 4.71133 26.0691C4.75133 26.0891 4.70132 26.1691 4.59132 26.2991C4.59132 26.1791 4.47133 26.3591 4.42133 26.3591C4.16133 26.7291 3.76133 27.1391 3.44133 27.6591C3.52133 27.5691 3.48133 27.6791 3.42133 27.7591C3.35133 27.7691 3.24132 27.8891 3.12132 28.0291C3.13132 28.0591 3.18132 28.0691 3.12132 28.1391C3.05132 28.1991 2.96133 28.2891 2.85133 28.4391C2.76133 28.6491 2.56133 28.8791 2.24133 29.2991C2.17133 29.4391 2.08133 29.6091 1.97133 29.7791C1.94133 29.7691 1.93132 29.7291 1.87132 29.7991C1.87132 29.8291 1.91133 29.8291 1.86133 29.8891C1.76133 29.9391 1.66133 30.2391 1.58133 30.3991C1.32133 30.9191 1.28133 31.1091 1.28133 31.4591C1.23133 31.4691 1.26133 31.7391 1.22133 31.7791C1.28133 32.0291 1.26132 32.2191 1.34132 32.4691C1.40132 32.8291 1.49133 32.9591 1.47133 33.1291C1.54133 33.2291 1.62132 33.3091 1.70132 33.3291C1.82132 33.5991 1.94133 33.9191 2.06133 33.9691C2.01133 33.7291 2.03133 33.6291 1.91133 33.3691C1.93133 33.3691 1.96132 33.4291 1.98132 33.4391C1.83132 32.9791 1.78132 32.7591 1.70132 32.4391C1.56132 32.4191 1.46132 32.0491 1.51132 31.7391C1.51132 31.6291 1.43132 31.6891 1.45132 31.5491C1.59132 31.2391 1.55133 30.7291 1.85133 30.4091C1.81133 30.3891 1.83133 30.3291 1.86133 30.2491C2.02133 30.0991 2.15133 29.6691 2.41133 29.4591C2.43133 29.2291 3.03133 28.7291 3.05133 28.5191C3.17133 28.4891 3.24132 28.5591 3.37132 28.4891C3.11132 28.8391 3.06133 28.9091 2.74133 29.3391C2.64133 29.4491 2.60133 29.4091 2.47133 29.6191C2.41133 29.7391 2.57133 29.7191 2.44133 29.8991C2.32133 29.9091 2.24133 30.0191 2.19133 29.9691C1.92133 30.3491 1.84133 30.6191 1.82133 30.8391C1.78133 30.8391 1.75133 30.9491 1.71133 30.9791C1.80133 30.9891 1.73133 31.1791 1.78133 31.2291C1.84133 31.1791 1.90133 31.1391 1.97133 31.0291C1.87133 31.0391 2.03133 30.7991 2.02133 30.7391C2.09133 30.6891 2.22133 30.3891 2.31133 30.3291C2.29133 30.3091 2.28133 30.2791 2.35133 30.1891C2.68133 29.7191 3.01133 29.4091 3.42133 28.7491C3.79133 28.3491 3.98133 28.1191 4.22133 27.7291L4.26132 27.7591C4.39132 27.5591 4.40133 27.5491 4.56133 27.3791C4.52133 27.3191 4.68134 27.0991 4.79134 26.9291C4.87134 26.7891 4.94133 26.8091 4.97133 26.7691C5.10133 26.6291 5.18132 26.4191 5.37132 26.2591C5.45132 26.1091 5.52133 25.9591 5.60133 25.8091C5.96133 25.4891 6.12134 25.1291 6.40134 24.8991C6.54134 24.6091 6.93133 24.1191 7.16133 23.8391C7.26133 23.5691 7.40133 23.3891 7.71133 23.0191C7.95133 22.6091 8.22133 22.2291 8.63133 21.7691C8.88133 21.4491 8.86133 21.4391 9.08133 21.1891C9.24133 20.8891 9.75132 20.3291 9.73132 20.1591C9.57132 20.3291 9.49133 20.3191 9.35133 20.5691L9.30133 20.5191L9.10133 20.7791C8.80133 20.9891 8.56133 21.3291 8.25133 21.6391C8.26133 21.6691 8.31133 21.6791 8.25133 21.7491C7.97133 22.0991 7.62134 22.4591 7.43134 22.7591C7.36134 22.8091 7.35132 22.7191 7.23132 22.8991C7.11132 23.0991 6.87133 23.3991 6.78133 23.5891C6.68133 23.6491 6.56134 23.7691 6.43134 23.9291C6.34134 24.0491 6.45133 24.0291 6.33133 24.1691C6.30133 24.1591 6.29132 24.1091 6.23132 24.1891C6.29132 24.2191 6.21132 24.3391 6.12132 24.4091C6.19132 24.2891 6.22133 24.1591 6.05133 24.3391C6.09133 24.3891 6.10133 24.4491 6.05133 24.5691C5.95133 24.6491 5.79134 24.9191 5.65134 24.9691C5.66134 25.0491 5.69132 25.0791 5.62132 25.2791C5.81132 25.0691 5.83133 24.9791 5.97133 24.9391C5.97133 24.8991 6.04133 24.6691 6.14133 24.6491C6.21133 24.7591 5.90132 25.0291 5.84132 25.1291ZM1.82133 31.2391C1.81133 31.2891 1.80134 31.3391 1.79134 31.3791C1.83134 31.3991 1.85132 31.3491 1.87132 31.2491L1.82133 31.2391ZM2.42133 34.7691C2.29133 34.3491 2.24133 34.1491 2.08133 34.0491C2.22133 34.4191 2.38132 34.6791 2.48132 35.0691L2.57133 35.0391C2.51133 34.8491 2.47133 34.9191 2.42133 34.7691ZM2.68134 35.4291C2.68134 35.4091 2.63133 35.3191 2.63133 35.3591C2.63133 35.3791 2.68134 35.4691 2.68134 35.4291ZM11.4113 19.9391L11.4013 19.9891C11.7713 20.0791 11.8513 20.0891 12.1813 20.1591C12.1413 20.0591 12.3513 20.1291 12.4213 20.1191C12.3113 20.0291 12.0413 19.9691 11.8913 19.9491C11.5413 19.8391 11.2313 19.8491 11.0513 19.8091C11.0013 19.8491 10.6213 19.7891 10.6713 19.8791C10.9713 19.8391 11.1413 19.9091 11.4113 19.9391ZM10.4313 19.8991C10.3413 19.8991 10.2713 19.9091 10.1913 19.9091C10.1513 19.9091 10.1113 19.9191 10.0613 19.9191C10.0413 19.9191 10.0313 19.9291 10.0113 19.9391C10.0413 19.9891 9.97132 20.0191 10.0113 20.0791C10.1113 20.0491 10.0413 20.0691 10.1613 20.0291C10.2613 19.9991 10.3413 19.9491 10.4313 19.8991ZM22.7113 26.2191C22.9413 26.3391 22.9013 26.3791 23.0313 26.4691C23.4413 26.6191 23.7613 26.8791 24.1613 26.9991C24.3113 27.1591 24.7713 27.3991 24.9513 27.5591C25.0313 27.5691 25.1513 27.6191 25.3213 27.7191C25.7213 27.9791 26.1713 28.2691 26.4313 28.5191C26.4613 28.5091 26.5213 28.5391 26.5813 28.5691C26.9013 28.8291 27.2013 28.9291 27.3913 29.1791C27.4913 29.1891 27.7113 29.4091 27.8713 29.5791C27.9513 29.5291 27.8513 29.5391 27.7513 29.4191C27.7413 29.3691 27.6813 29.2791 27.5813 29.1891C27.3213 28.9591 27.0113 28.6891 26.7813 28.5591C26.6613 28.4391 26.5113 28.3091 26.4013 28.1991C26.3313 28.2091 26.1913 28.1391 26.0413 28.0491C25.9213 27.9591 26.0513 27.9391 25.8213 27.8291C25.3813 27.6591 24.8913 27.2591 24.4113 27.0791C24.2113 26.8791 23.6313 26.5791 23.4313 26.4791C23.2913 26.3891 23.3313 26.3491 23.1913 26.2491C22.8413 26.0991 22.5913 25.8791 22.2913 25.6991C22.2013 25.7091 21.7613 25.3491 21.7613 25.4591C22.2013 25.6591 22.2213 25.8291 22.7813 26.1291C22.7313 26.1991 22.6213 26.1091 22.7113 26.2191ZM12.8413 20.3791C13.0113 20.3591 13.5713 20.7391 13.6313 20.6291C13.3213 20.4791 13.2313 20.3791 12.9013 20.2491C12.7013 20.1991 12.6913 20.2491 12.4713 20.1291C12.4613 20.2091 12.5913 20.2791 12.8413 20.3791ZM28.2613 30.2091C28.2613 30.1391 28.3313 30.1191 28.3213 30.0491C28.2513 30.0791 28.2213 29.8991 28.1413 29.9291C28.2313 30.0991 28.1813 30.1291 28.2613 30.2091ZM13.9313 20.8691C14.4713 21.1691 14.7413 21.1791 15.2713 21.5791C15.3913 21.6091 15.6713 21.8091 15.6713 21.7091C15.6513 21.6591 15.4013 21.5391 15.4213 21.4991C15.2113 21.3991 14.9913 21.2191 14.7913 21.1191C14.7613 21.0991 14.6213 21.0691 14.5613 21.0391C14.3013 20.9091 13.9513 20.7091 13.8213 20.7491C13.9013 20.7991 13.9813 20.8491 13.9313 20.8691ZM13.2213 52.2391C13.2613 52.2391 13.2613 52.1591 13.2413 52.0591C13.2013 52.0591 13.2013 52.1391 13.2213 52.2391ZM28.1613 29.8791C28.0813 29.6391 28.0113 29.8391 28.1613 29.8791V29.8791ZM16.8313 22.4691C16.7613 22.4191 16.7413 22.3791 16.7213 22.3491C16.5313 22.2591 16.3313 22.1491 16.3013 22.2291C16.5613 22.3991 16.7413 22.4791 16.8313 22.4691ZM12.7113 50.8491C12.6613 50.7591 12.6013 50.6291 12.5713 50.6291C12.6213 50.7191 12.6813 50.8491 12.7113 50.8491ZM28.0713 30.9091C28.0613 30.8991 28.0313 30.9291 28.0413 30.9491C28.0513 30.9591 28.0913 30.9291 28.0713 30.9091ZM11.0513 19.7591C11.0513 19.7791 11.1613 19.7891 11.1813 19.7691C11.1713 19.7391 11.1113 19.7491 11.0513 19.7591ZM19.0113 23.7291C18.9413 23.7791 19.3213 24.0191 19.4713 24.0591L19.5113 23.9991C19.1813 23.7391 18.5813 23.3591 18.3013 23.3191C18.5713 23.4991 18.8113 23.6391 19.0113 23.7291ZM15.7113 21.7891C15.7013 21.8091 15.8113 21.8891 15.8513 21.8691C15.7713 21.8291 15.7713 21.7791 15.7113 21.7891ZM11.7813 49.4791L11.8813 49.6191L11.9213 49.5991L11.8213 49.4591L11.7813 49.4791ZM21.3613 25.1791C21.3513 25.1891 21.4013 25.2391 21.4313 25.2191C21.4413 25.2091 21.3913 25.1691 21.3613 25.1791ZM20.9313 24.9491C20.9913 24.9791 21.0713 25.0291 21.0813 25.0191C21.0313 24.9891 20.9513 24.9291 20.9313 24.9491ZM20.4813 24.5991C20.3113 24.4891 20.1813 24.4391 20.1113 24.4291C20.1913 24.5191 20.4013 24.5991 20.4813 24.5991ZM20.8313 24.8091C20.6413 24.5391 20.4213 24.6691 20.8313 24.8091V24.8091ZM20.1113 24.2891C19.9313 24.1391 19.8513 24.2491 20.0713 24.3491L20.1113 24.2891ZM21.7913 32.8391C21.7913 32.8291 21.7413 32.8091 21.7213 32.8291C21.7113 32.8391 21.7713 32.8591 21.7913 32.8391ZM7.80133 45.1991C7.89133 45.3191 7.89133 45.3791 8.02133 45.5291C8.11133 45.5191 7.91133 45.1991 7.80133 45.1991ZM28.0713 29.2391C28.0513 29.2491 28.0513 29.2991 28.1013 29.3091C28.1213 29.2891 28.1213 29.2391 28.0713 29.2391ZM24.2713 26.4091C24.3513 26.5391 24.6513 26.6691 24.8913 26.7991C24.8813 26.6891 25.0913 26.8091 25.2413 26.8691C25.3713 26.9591 25.3913 27.0091 25.5613 27.1091C25.9013 27.2291 26.0813 27.5091 26.3213 27.5491C26.1813 27.5291 26.4313 27.7391 26.4913 27.7191C26.1913 27.4991 26.7513 27.7891 26.7813 27.7391C27.0313 27.8991 27.1113 27.9191 27.2113 28.0791C27.2313 28.0391 27.3113 28.0791 27.4313 28.1891C27.6613 28.4191 27.7213 28.4591 27.9013 28.6991C27.8013 28.5991 27.7513 28.5991 27.7313 28.6491C27.9213 28.8391 27.8713 28.7791 28.0513 28.9691C28.0813 28.9691 28.0913 28.9391 28.1413 28.9891C28.4413 29.3291 28.6213 29.4391 28.8113 29.6891C28.7813 29.7391 28.7813 29.8091 28.8413 29.9791C28.9713 30.0891 29.0013 30.4391 29.0213 30.6491C28.9413 30.7891 28.6213 31.3891 28.6013 31.5191C28.3613 31.7591 27.9213 32.1591 27.9713 32.2691C28.2913 32.1191 28.3113 31.9791 28.6213 31.7491C28.8513 31.4591 29.0213 31.1091 29.1613 30.7691C29.1813 30.6691 29.1613 30.6391 29.1613 30.5491C29.2013 30.5291 29.2213 30.4691 29.2313 30.3491C29.2113 30.0991 29.2013 29.7791 29.0013 29.5391L29.0413 29.5191C28.8613 29.2291 28.7513 28.9991 28.5413 28.8591C28.5613 28.8191 28.4813 28.7291 28.3513 28.6091C27.8613 28.2891 27.2213 27.7891 26.7313 27.5491C26.5613 27.3291 26.2013 27.2391 25.9313 27.0191C25.7913 26.9391 25.7613 26.9891 25.6113 26.9091C25.4613 26.7391 25.1113 26.6491 24.9013 26.5191C24.8513 26.4591 24.6513 26.3591 24.7313 26.3391C24.5613 26.2391 24.4913 26.2391 24.3513 26.1691C24.3913 26.0291 24.0713 26.0491 23.9713 25.8591C23.8213 25.8891 23.0813 25.4191 22.8313 25.2191C22.6213 25.1691 22.3813 25.0891 22.0513 24.9091C22.0813 24.8491 22.1913 24.9391 22.1113 24.8291C21.7813 24.6691 21.4213 24.4491 21.2213 24.2591C21.0313 24.2391 20.8713 24.2591 20.5913 24.1591C20.9013 24.3991 21.0513 24.4391 21.3713 24.5991C21.5513 24.7191 21.5413 24.7791 21.7513 24.9091C21.8513 24.9591 21.9013 24.9591 22.0413 25.0591C22.0613 25.0191 22.1313 25.0391 22.2213 25.0891C22.5513 25.2791 22.6813 25.2491 22.9913 25.4091C23.1613 25.5591 23.3413 25.5791 23.3813 25.6991C23.2513 25.6991 23.1813 25.6691 23.2313 25.7691C23.5713 25.9891 23.9413 26.2891 24.2713 26.4091ZM0.881332 30.6791C0.981332 30.6891 0.811336 30.8291 0.791336 31.0591C0.851336 31.0691 1.03133 30.6391 1.05133 30.5091C0.981331 30.6491 0.951332 30.4691 0.881332 30.6791ZM0.771332 31.5191C0.711332 31.4991 0.691326 31.6291 0.671326 31.7391C0.731326 31.7091 0.701328 32.0291 0.751328 32.0591C0.751328 31.7791 0.801332 31.7791 0.771332 31.5191ZM0.771332 31.1291L0.731323 31.3591C0.771323 31.3791 0.791325 31.2891 0.811325 31.1391L0.771332 31.1291ZM14.7913 20.4591C14.9713 20.5791 14.9613 20.4991 15.1013 20.5891C15.4813 20.9291 16.1213 21.2891 16.6813 21.5691C16.8813 21.6991 16.7813 21.7391 17.0613 21.8791C17.1213 21.8791 17.2013 21.8991 17.3113 21.9491C17.5313 22.0691 17.5513 22.1191 17.7113 22.2191C17.8013 22.2091 17.9313 22.2591 18.1713 22.4091L18.2413 22.3091C17.5113 21.9091 16.7513 21.3691 16.0613 21.0391C15.8213 20.7791 15.6413 20.8191 15.3113 20.5591C15.0613 20.4791 15.0013 20.3991 14.7113 20.2891C14.5713 20.1491 14.1813 19.9791 13.9913 19.9191C14.0413 20.0491 14.6513 20.3091 14.7913 20.4591ZM1.58133 29.3391C1.43133 29.4491 1.43133 29.5791 1.39133 29.6991C1.45133 29.5691 1.56133 29.4191 1.58133 29.3391ZM23.4613 33.5891C23.2213 33.6091 22.8513 33.5591 22.8213 33.6291C23.0713 33.6991 23.1113 33.5791 23.3713 33.6391C23.4713 33.6391 23.4813 33.6091 23.6113 33.6091C23.8713 33.5791 24.4713 33.5991 24.4713 33.4991C24.2713 33.4391 23.6213 33.5291 23.4613 33.5891ZM27.3513 32.5691C27.5613 32.5891 27.4913 32.3891 27.3513 32.5691V32.5691ZM27.0213 32.7891C26.9713 32.8191 26.8813 32.8491 26.8913 32.8791C26.9413 32.8491 27.0313 32.8191 27.0213 32.7891ZM25.8613 33.2891C25.7513 33.3091 25.7113 33.2991 25.5513 33.3491C25.4513 33.4491 25.9013 33.3291 25.8613 33.2891ZM23.6113 33.7591C23.9113 33.7991 24.1413 33.7191 24.4113 33.7291C24.3913 33.6891 24.5013 33.6691 24.4913 33.6291C24.0813 33.6891 23.8413 33.6491 23.6113 33.7591ZM4.34132 41.7191L4.42133 41.8591L4.46133 41.8391L4.38133 41.6991L4.34132 41.7191ZM4.46133 41.9291C4.51133 42.0191 4.49133 42.0391 4.57133 42.1491C4.61133 42.1391 4.59133 42.0691 4.55133 41.9791C4.53133 41.9891 4.49133 41.9391 4.46133 41.9291ZM18.6913 33.0391C18.8513 33.0791 19.4013 33.2291 19.1813 33.1091C19.1813 33.1591 18.7213 32.9491 18.6913 33.0391ZM26.4313 33.2691C26.3213 33.3391 26.2613 33.4091 26.0713 33.4691C26.1113 33.5691 26.4213 33.4691 26.7213 33.3691C26.6813 33.2991 27.0613 33.1691 26.9713 33.0991C26.6813 33.2491 26.7313 33.1391 26.4313 33.2691ZM27.9413 32.5191C27.9213 32.5291 27.8413 32.5891 27.8813 32.5791C27.9013 32.5691 27.9813 32.5091 27.9413 32.5191ZM27.5313 32.7891C27.5113 32.7891 27.4313 32.8591 27.4713 32.8491C27.4913 32.8491 27.5713 32.7791 27.5313 32.7891ZM28.2213 32.3691C28.1513 32.4291 28.1013 32.4191 28.0913 32.4691C28.1013 32.4891 28.2213 32.4091 28.2213 32.3691ZM24.4913 33.9291C24.8313 33.9191 24.8013 33.8391 25.0513 33.7991C25.2013 33.7691 25.2313 33.7991 25.3713 33.7591C25.4913 33.6791 25.8813 33.5991 25.9013 33.4991C25.4413 33.6891 24.9613 33.7891 24.5613 33.7791C24.4213 33.8391 24.3913 33.8691 24.4913 33.9291ZM23.7613 33.9891C23.9613 33.9791 24.1013 33.9591 24.1713 33.9091C24.0113 33.9091 24.0213 33.8491 23.7713 33.8891L23.7613 33.9891ZM26.9713 26.5791C27.0513 26.5591 26.6913 26.2891 26.6513 26.3191C26.7713 26.4191 26.7313 26.4591 26.9713 26.5791ZM26.2713 26.1291C26.2913 26.2091 26.2313 26.2591 26.4013 26.3691C26.5413 26.4291 26.7613 26.5591 26.7013 26.3891L26.2713 26.1291ZM30.1613 30.4991C30.1513 30.5291 30.1513 30.6691 30.1713 30.6191C30.1913 30.5791 30.1813 30.4391 30.1613 30.4991Z" fill="#1E1E1E"/><path d="M13.4713 55.8586C13.4913 55.9786 13.4613 55.9186 13.4513 55.8586C13.4313 55.7486 13.4613 55.6786 13.4713 55.7786C13.4713 55.7986 13.4713 55.8286 13.4713 55.8586Z" fill="#1E1E1E"/><path d="M29.0614 30.2486C29.0014 30.4286 29.0214 30.1686 29.0214 30.0586C29.1214 30.0686 28.9914 30.2686 29.0614 30.2486Z" fill="#1E1E1E"/><path d="M0.631393 30.1699C0.711393 30.3499 0.461398 30.6599 0.401398 31.1999C0.351398 31.1199 0.331392 31.3699 0.301392 31.4499C0.311392 31.1599 0.361393 30.5099 0.631393 30.1699Z" fill="#1E1E1E"/><path d="M1.68137 28.3385C1.61137 28.5185 1.68136 28.2385 1.58136 28.3585C1.39136 28.6385 1.27137 28.7285 1.16137 28.9885C1.05137 29.1285 1.01136 29.0785 0.941365 29.1385C0.761365 29.5185 0.501371 29.6985 0.401371 30.0485C0.141371 30.1985 0.661371 29.4985 0.651371 29.4585C0.711371 29.3785 0.721362 29.4185 0.751362 29.4285C0.821362 29.1985 1.08136 28.9285 1.31136 28.5685C1.46136 28.5385 1.73136 28.1585 1.83136 27.9385C1.91136 27.8285 1.93136 27.8485 2.00136 27.7585C2.09136 27.5285 2.30137 27.3785 2.35137 27.1985C2.40137 27.1485 2.46136 27.0985 2.48136 27.0985C2.53136 27.0085 2.56136 26.9485 2.53136 26.9185C2.84136 26.5885 2.84137 26.4285 3.10137 26.2285C3.21137 26.2385 2.89136 26.5485 2.78136 26.7085C2.72136 26.8685 2.78137 26.9385 2.52137 27.2385C2.47137 27.0785 2.10136 27.6885 2.12136 27.7485C1.97136 27.8185 1.68137 28.2085 1.68137 28.3385Z" fill="#1E1E1E"/></svg>