<svg xmlns="http://www.w3.org/2000/svg" viewBox="0 0 68 61" fill="none"><path d="M13.28 46H39.84L53.12 23L39.84 0H13.28L0 23L13.28 46Z" fill="#49A4D5"/><path d="M27.0601 32.4586C27.0701 32.4086 27.0901 32.5386 27.0801 32.5686C27.0701 32.6286 27.0501 32.4886 27.0601 32.4586Z" fill="#1E1E1E"/><path d="M28.83 24.0684C28.85 24.0884 28.78 24.1984 28.75 24.2784L28.6 24.5684C28.54 24.5484 28.77 24.2184 28.83 24.0684Z" fill="#1E1E1E"/><path d="M34.0301 17.7588C34.0201 17.7988 33.8701 17.9088 33.8501 17.8888C33.9201 17.8188 33.9901 17.7488 34.0301 17.7588Z" fill="#1E1E1E"/><path d="M39.61 14.8189C39.57 14.7189 40.35 14.5089 40.47 14.5689C41.02 14.4189 41.11 14.4289 41.56 14.3789C41.32 14.4889 41.06 14.5189 40.8 14.5289C40.46 14.5789 39.87 14.7789 39.61 14.8189Z" fill="#1E1E1E"/><path d="M44.67 14.0293C44.82 14.0293 44.97 14.0293 45.12 14.0293C45.18 14.1193 44.64 14.1093 44.67 14.0293Z" fill="#1E1E1E"/><path d="M33.55 54.4297C33.58 54.4597 33.57 54.6697 33.55 54.6697C33.51 54.6097 33.55 54.5597 33.55 54.4297Z" fill="#1E1E1E"/><path d="M39.3701 14.7586L39.0501 14.8586C38.9501 14.8186 38.8101 14.7986 38.6901 14.7686C39.2401 14.5886 39.2401 14.5886 39.5601 14.5586C39.3601 14.6786 39.4801 14.6786 39.3701 14.7586Z" fill="#1E1E1E"/><path d="M33.5001 51.1487V51.3787L33.4501 51.3687V51.1387L33.5001 51.1487Z" fill="#1E1E1E"/><path d="M33.4501 51.6094C33.4701 51.6194 33.4701 51.7594 33.4701 51.8494C33.4501 51.8394 33.4601 51.6994 33.4501 51.6094Z" fill="#1E1E1E"/><path d="M33.4301 54.1792L33.3801 54.1692C33.3401 53.9292 33.3801 54.0192 33.3801 53.6992L33.4301 53.7092C33.4301 54.0292 33.4701 53.9492 33.4301 54.1792Z" fill="#1E1E1E"/><path d="M40.1 14.349C40.05 14.389 40 14.369 39.88 14.409C39.91 14.369 40.1 14.319 40.1 14.349Z" fill="#1E1E1E"/><path d="M26.8101 24.7502C26.6001 25.1902 26.34 25.8702 26.16 25.8702C26.25 25.7202 26.37 25.4302 26.45 25.3602C26.54 25.1302 26.37 25.2802 26.44 25.0802C26.61 24.7802 26.7301 24.6402 26.8101 24.7502Z" fill="#1E1E1E"/><path d="M34.41 15.9795C34.47 15.9595 34.35 16.0495 34.32 16.0595C34.26 16.0795 34.38 15.9895 34.41 15.9795Z" fill="#1E1E1E"/><path d="M34.11 16.1591C34.17 16.1391 34.05 16.2292 34.02 16.2392C33.96 16.2692 34.08 16.1691 34.11 16.1591Z" fill="#1E1E1E"/><path d="M27.3701 23.2901C27.5301 23.0001 28.1601 21.9701 28.4301 21.5801C28.4701 21.7701 27.8901 22.3801 27.7201 22.8201C27.5801 23.0701 27.4401 23.2901 27.3701 23.2901Z" fill="#1E1E1E"/><path d="M28.8601 20.8591C29.2601 20.3091 29.3701 20.4091 29.7001 19.8691C29.6501 20.1191 29.0601 20.7891 28.8601 20.8591Z" fill="#1E1E1E"/><path d="M27.2901 23.3799C27.2201 23.3799 27.3601 23.1299 27.4601 22.9199C27.4401 23.0299 27.4401 23.1199 27.2901 23.3799Z" fill="#1E1E1E"/><path d="M31.3001 18.0891C31.3501 18.0591 31.2501 18.1691 31.2201 18.1891C31.1701 18.2191 31.2701 18.1091 31.3001 18.0891Z" fill="#1E1E1E"/><path d="M27.63 22.6094C27.64 22.6294 27.57 22.7494 27.53 22.8294C27.52 22.8094 27.58 22.6894 27.63 22.6094Z" fill="#1E1E1E"/><path d="M25.8601 26.3802C25.8901 25.9902 26.1801 25.4302 26.2101 25.0802C26.3001 24.8302 26.5701 24.5302 26.4901 24.4102C26.6101 24.1602 26.6401 24.2402 26.8001 23.9102C26.8401 24.0302 26.4001 24.9402 26.3901 25.1902C26.1501 25.7602 26.0101 25.9602 25.8601 26.3802Z" fill="#1E1E1E"/><path d="M32.66 16.9298C33.09 16.4898 33.3 16.4998 32.66 16.9298V16.9298Z" fill="#1E1E1E"/><path d="M36.9601 14.4085C36.8201 14.4485 36.7301 14.4685 36.7201 14.4285C36.9601 14.3285 36.9401 14.3785 36.9601 14.4085Z" fill="#1E1E1E"/><path d="M27.3301 22.9697C27.3401 22.7697 27.6601 22.2697 27.8901 21.8997C27.9301 21.9297 28.0901 21.6397 28.0901 21.7597C28.0801 21.8397 27.8401 22.1497 27.8701 22.1897C27.5901 22.4697 27.5201 22.6297 27.3301 22.9697Z" fill="#1E1E1E"/><path d="M34 15.9297C33.77 16.1597 33.7 15.9697 34 15.9297V15.9297Z" fill="#1E1E1E"/><path d="M29.09 20.4195L29.02 20.3495C29.25 20.0695 29.45 19.7695 29.7 19.5195C29.54 19.7595 29.32 20.0795 29.09 20.4195Z" fill="#1E1E1E"/><path d="M31.8601 17.4291C31.5101 17.7591 31.3801 17.7891 31.0301 18.1091C31.0201 17.9991 31.4301 17.7891 31.4401 17.6491C31.7901 17.3691 31.6701 17.4391 32.0901 17.1191C32.1401 17.1491 31.7301 17.4391 31.8601 17.4291Z" fill="#1E1E1E"/><path d="M30.8601 18.2998C30.6801 18.4398 30.6601 18.3897 30.4101 18.6897C30.3501 18.5397 30.8201 18.2198 30.8601 18.2998Z" fill="#1E1E1E"/><path d="M30.2501 18.8592C30.3001 18.8192 30.2101 18.9491 30.1801 18.9691C30.1301 18.9991 30.2201 18.8792 30.2501 18.8592Z" fill="#1E1E1E"/><path d="M65.0601 33.8787C65.0601 33.9387 65.0101 33.7987 65.0201 33.7687C65.0101 33.7087 65.0601 33.8487 65.0601 33.8787Z" fill="#1E1E1E"/><path d="M65.0801 33.8793C65.1301 33.8593 65.1701 33.9693 65.2201 34.2193C65.3201 34.5693 65.5201 34.7193 65.5501 35.2293C65.5001 35.3093 65.4501 34.9993 65.4101 34.8993C65.4101 35.1793 65.3301 34.7293 65.2701 34.7893C65.1701 34.3193 65.1101 34.2593 65.0801 33.8793Z" fill="#1E1E1E"/><path d="M67.06 37.3284C67.06 37.3884 67.01 37.2484 67 37.2184C67 37.1684 67.06 37.2984 67.06 37.3284Z" fill="#1E1E1E"/><path d="M33.5201 50.6593C33.3901 50.2693 33.33 49.5893 33.1 48.8093C32.85 48.0893 32.44 47.2893 32.07 46.8393C31.83 46.3993 31.5101 45.9793 31.2701 45.7593C31.0801 45.5493 31.2401 45.6193 31.0901 45.4493C30.8401 45.1693 30.63 44.9293 30.51 44.8793C30.32 44.6493 30.0601 44.2693 29.9001 44.1893C29.7601 43.9793 29.62 43.7193 29.32 43.3393C29.09 42.9593 29.04 42.8693 28.85 42.5593C28.75 42.4293 28.66 42.3393 28.57 42.1893C28.19 41.4593 28.0201 41.2693 27.5601 40.2693C27.4501 40.0693 27.3301 39.9293 27.2401 39.7693C27.2101 39.9393 27.7201 40.9893 27.8401 41.0093C27.8501 41.2193 28.36 41.9993 28.36 42.1493C28.55 42.5093 28.58 42.3593 28.79 42.7093C28.78 42.8693 29.18 43.4293 29.29 43.6093C29.83 44.2793 30.06 44.5793 30.6 45.0793C30.79 45.2893 30.81 45.3693 30.85 45.4593C30.99 45.6093 31.08 45.6793 31.13 45.6993C31.44 46.1993 31.68 46.3793 32.13 47.0693C32.25 47.3093 32.43 47.6493 32.41 47.7293C32.6 48.0293 32.79 48.5093 32.86 48.8393C33.13 49.4393 33.18 50.4993 33.26 50.9893C33.17 51.3793 33.27 52.0193 33.19 52.4993C33.2 52.7193 33.2401 52.7993 33.2401 53.0893C33.2101 53.4993 33.24 54.2293 33.19 54.5993C33.27 56.2293 33.1301 58.1693 33.2401 59.1693C33.1701 59.4893 33.05 59.5393 33.05 60.1993C32.93 60.2293 32.87 60.5993 32.79 60.8593C32.66 60.9393 32.67 60.3193 32.55 60.3593C32.43 59.0493 32.4901 58.1293 32.4301 56.4793C32.4301 55.9693 32.49 55.7393 32.48 55.1993C32.47 54.7893 32.42 54.5493 32.38 54.2493C32.38 53.7993 32.44 53.6993 32.45 53.3293C32.46 53.0793 32.4301 53.0193 32.4301 52.8593C32.4701 52.4093 32.5 51.9093 32.45 51.2193C32.52 50.0493 32.26 49.4593 31.95 48.4493C31.85 48.1693 31.8201 48.2593 31.7201 48.0593C31.5501 47.7693 31.5601 47.6993 31.4301 47.4693C31.2801 47.1993 31.25 47.2393 31.11 47.0193C31 46.7093 30.51 46.2093 30.17 45.9093C30.04 45.6393 29.5801 45.2693 29.5901 45.1493C29.4601 44.9893 29.38 44.9193 29.33 44.8993C29.18 44.6193 28.7101 44.1493 28.6201 43.9393C28.4701 43.7593 28.3901 43.7193 28.2401 43.4693C28.0701 43.2193 28.07 43.1393 27.95 42.9493C27.79 42.7293 27.51 42.1293 27.48 42.2493C27.43 42.0893 27.01 41.1893 26.86 41.0793C26.04 39.3993 25.69 38.1193 25.35 36.7793C25.29 36.6693 25.21 36.4193 25.16 36.1993C25.07 35.7393 25.1401 35.7093 25.0901 35.3693C25.0301 34.9893 24.8501 34.4593 24.9301 34.1793C24.9201 33.8693 24.8701 33.7793 24.8101 33.8193C24.8101 33.1093 24.83 32.3293 24.91 31.5493C24.91 31.3293 24.9201 31.0493 24.9001 30.9393C25.0801 29.9593 25.04 29.0693 25.23 28.1793C25.36 27.5493 25.5601 27.0893 25.7701 26.4693C25.8201 26.6193 25.68 27.0393 25.55 27.4493C25.44 27.8693 25.36 28.2893 25.45 28.3893C25.64 28.0193 25.54 27.7893 25.73 27.2393C25.89 27.1793 25.66 27.8793 25.8 27.8993C25.62 28.4693 25.45 28.8993 25.39 29.6093L25.2501 29.5693C25.2701 29.0793 25.36 29.2193 25.42 28.8793C25.45 28.5393 25.2201 29.2393 25.2101 29.6793C25.2001 29.7793 25.24 30.0593 25.26 29.8193C25.31 29.8393 25.21 30.1393 25.19 30.0393C25.15 30.4493 25.2201 30.4093 25.1201 30.6293C25.1101 30.8793 25.12 31.0393 25.16 31.1193C25.13 31.5293 25.0701 31.4793 25.0601 31.6993C25.0801 31.9993 25.1201 32.1793 25.1801 32.3193C25.2401 32.8893 25.23 32.9793 25.3 33.4993H25.2501C25.3501 33.8693 25.27 34.4593 25.41 35.2593C25.35 35.2093 25.36 35.3393 25.33 35.3793C25.44 35.7993 25.68 36.4193 25.69 36.8793C25.79 37.3193 25.92 37.4793 26.05 37.8893C26.09 38.1293 26.26 38.5593 26.13 38.4693C26.29 38.7993 26.53 39.5393 26.67 39.5493C26.62 39.2593 26.44 38.9493 26.35 38.6693C26.28 38.4693 26.3001 38.4293 26.2201 38.2193C26.1001 37.7993 25.88 37.3793 25.76 36.6393C25.67 36.2793 25.7501 36.3293 25.7101 36.0593C25.5801 35.2593 25.4801 34.7793 25.3701 34.3193C25.3301 34.0493 25.39 34.0493 25.38 33.8593C25.38 33.7193 25.33 33.4393 25.32 33.2693C25.31 32.9493 25.32 32.7193 25.36 32.4593C25.37 30.2193 25.6501 28.5093 26.2101 26.8193C26.3001 26.5293 26.36 26.2793 26.38 26.1293C26.6 25.6193 26.84 25.0793 27.04 24.5693C27.25 24.0693 27.5101 23.6193 27.7101 23.2693C27.8401 22.9693 27.97 22.7093 28.14 22.4393C28.33 22.2293 28.59 21.8493 28.83 21.4693C29.1 21.1093 29.36 20.7493 29.51 20.5493C29.74 20.2493 29.8301 20.1793 30.1201 19.8493C30.1701 19.8393 30.28 19.7293 30.33 19.7293C30.59 19.3793 30.6801 19.4193 31.0601 18.9793C31.0701 18.8193 30.8101 19.0993 30.5301 19.4193C30.4601 19.3293 30.87 18.8293 31.26 18.4693C31.34 18.3893 31.31 18.3893 31.32 18.3493C31.52 18.2293 32.01 17.7293 32.07 17.7993C32.45 17.4293 32.97 17.0193 33.35 16.7693C33.58 16.5893 33.63 16.5193 33.7 16.4293C33.89 16.2793 33.9201 16.3493 34.1201 16.2193C34.2301 16.1593 34.2901 16.0693 34.4001 15.9893C34.6501 15.8193 34.9501 15.6793 35.0901 15.5393C34.9701 15.5193 34.7701 15.7493 34.5901 15.8493C34.5101 15.7693 33.9601 16.1293 33.8101 16.1193C33.9801 15.9993 34.0101 16.0193 34.0301 16.0393C34.2801 15.8893 34.2501 15.8393 34.4001 15.7193C34.7301 15.5693 35.2101 15.2893 35.4601 15.1993C35.1601 15.4793 35.7801 15.1393 35.8401 15.2193C36.1801 15.0593 36.2101 14.8693 36.4601 14.8793C36.7001 14.7393 36.5 14.7193 36.98 14.5593C36.92 14.5393 36.65 14.6393 36.73 14.5293C37.06 14.3693 37.5001 14.2393 37.7101 14.0593C37.8801 14.0093 37.8801 14.0693 37.9601 14.0893C38.1501 13.9493 38.4901 13.9093 38.7501 13.8393C39.0001 13.6693 39.3501 13.5993 40.0001 13.4393C39.7701 13.3193 38.7301 13.8093 38.2801 13.8593C38.4901 13.6593 39.4801 13.4093 40.3401 13.2493C40.4401 13.2993 41.12 13.1093 41.04 13.2293C41.55 13.0993 41.7901 12.9993 42.2101 13.0293C42.3801 12.9993 42.5 12.9593 42.57 12.9193C42.64 12.7993 42.07 12.8693 42.1 12.7593C41.56 12.8193 41.7601 12.9093 41.2701 13.0093C41.1001 12.9993 40.82 13.0293 40.79 12.9593C40.49 13.0193 40.63 13.0893 40.32 13.1493C40 13.1493 39.32 13.3793 39.04 13.4293C39.09 13.3293 39.78 13.1493 40.2 13.0793C40.48 12.9893 40.9 12.8893 41.14 12.7893C41.69 12.7093 41.8701 12.6293 42.3401 12.6493C42.5501 12.6293 42.65 12.5993 42.7 12.5593C43.18 12.5293 44.0501 12.5493 44.7501 12.5293C44.7901 12.5793 44.6601 12.5893 44.6201 12.6293C45.0301 12.6093 45.36 12.5793 45.6 12.5593C46.18 12.6093 46.68 12.6493 46.94 12.6093C47.47 12.6393 47.6 12.7593 48.13 12.8293C48.2 12.8793 48.63 13.0393 48.7 13.0093C48.87 13.0493 48.6801 13.0293 48.6801 13.0493C48.9901 13.1193 49.38 13.1693 49.38 13.2093C49.69 13.2893 49.76 13.2393 50.1 13.3393C50.38 13.3293 50.9 13.4993 51.08 13.5193C51.24 13.5793 51.4 13.6393 51.41 13.6693C51.74 13.7293 51.8601 13.7993 52.2401 13.9193C52.5501 14.0293 52.8801 14.1893 53.0001 14.2893C53.2601 14.3993 53.41 14.4293 53.6 14.4793C53.82 14.5993 53.7801 14.6393 53.8701 14.7193C54.4201 14.8993 55.3601 15.4293 55.8701 15.8693C56.0101 15.9593 56.09 15.9693 56.13 15.9493C56.73 16.4193 56.94 16.3893 57.63 17.0293C57.85 17.1993 58.01 17.2793 58.1 17.2693C58.5 17.6493 59.0001 17.9793 58.9601 18.1393C59.2501 18.4693 59.32 18.4293 59.6 18.7293C59.6 18.7793 59.75 18.8893 59.79 18.8993C59.94 19.1193 60.01 19.2293 60.19 19.5093C60.57 19.9593 61 20.2493 61.38 20.9393C61.64 21.3393 61.83 21.5293 62.01 21.7293C62.14 21.9893 62.14 21.9293 62.32 22.2693C62.55 22.6693 62.71 22.8093 63.01 23.4693C63.12 23.6193 63.28 23.9593 63.32 23.8893C63.46 24.2393 63.4501 24.3493 63.5301 24.5993C63.7101 25.1193 63.8401 25.2893 64.0001 25.7593C64.0801 26.1993 64.27 26.8393 64.42 27.1993C64.48 27.5393 64.43 27.7293 64.45 28.0593C64.35 28.2693 64.15 27.8693 64.16 28.3193C64.21 28.6993 64.27 28.4793 64.32 28.7893C64.39 29.3393 64.4001 29.7993 64.5001 30.1993C64.4801 30.5793 64.6401 31.4593 64.6201 31.8093L64.73 32.4993C64.71 32.5093 64.72 32.8793 64.76 32.8393C64.76 32.9993 64.74 33.0693 64.73 33.1893C64.81 33.4893 64.9 33.4893 64.98 33.7493C65.02 34.2593 65.2001 34.7693 65.0601 34.7793C65.1401 35.1293 65.22 35.6093 65.3 35.7993C65.39 35.8693 65.24 35.0293 65.42 35.7893C65.48 35.7593 65.42 35.4493 65.39 35.2193C65.53 35.5893 65.52 35.7093 65.66 36.1093C65.65 36.3393 65.6801 36.3993 65.7201 36.6793C65.7601 36.8293 65.8001 36.7593 65.8401 36.7793C65.8901 37.1593 66.04 37.8393 66.2 37.9993C66.28 38.2793 66.2601 38.3493 66.3101 38.5593C66.4701 39.1693 66.6 39.4193 66.64 39.7893C66.79 40.0093 67.0001 40.9893 67.1201 40.8793C67.1201 41.0793 67.24 41.5093 67.23 41.6793C67.31 41.8993 67.38 41.9693 67.44 41.9893C67.49 42.1693 67.5401 42.3593 67.5901 42.5493L67.67 42.8393C67.72 42.9993 67.7701 43.1893 67.7801 43.3693C67.8401 44.1193 67.46 44.8193 66.94 45.1893C66.32 45.5393 66.36 45.3893 65.95 45.4393C65.67 45.4693 65.37 45.4893 65.07 45.5193C64.79 45.5393 64.5001 45.5593 64.2201 45.5793L63.88 45.5093C63.6 45.4993 63.91 45.6393 63.57 45.5993C63.61 45.5793 63.6 45.5693 63.58 45.5593C63.55 45.5493 63.5101 45.5393 63.5601 45.5393C63.6101 45.5293 63.66 45.5093 63.64 45.4793H63.5601C63.5301 45.4793 63.5101 45.4793 63.5601 45.4793C63.6201 45.4793 63.68 45.4593 63.73 45.4393C63.82 45.4093 63.8801 45.3593 63.9301 45.3293C64.0201 45.2693 64.0501 45.2493 64.0901 45.2593C64.1401 45.1893 64.1701 45.0893 64.1801 44.9893C64.1801 44.9293 64.19 45.0793 64.19 45.1093C64.19 45.2393 64.2 45.3793 64.2 45.5193C64.21 45.7893 64.2301 46.0293 64.2801 46.0793C64.2201 46.4393 64.3201 46.8993 64.2401 47.1293C64.2401 47.2693 64.2801 47.2293 64.3101 47.2593C64.3101 47.4693 64.2501 47.9293 64.3101 48.0793C64.3101 48.2493 64.2401 48.1093 64.2401 48.2993C64.2501 48.5693 64.2801 48.1593 64.3101 48.4293C64.2901 48.6193 64.2801 48.8593 64.2701 49.0993C64.2501 49.3693 64.2501 49.6793 64.2401 49.9493C64.1701 50.0893 64.13 50.3193 64.1 50.5593C64.04 50.7893 63.99 51.0193 63.91 51.1293C63.83 51.5593 63.58 52.2593 63.16 52.8893C62.99 53.0793 62.6901 53.3293 62.7801 53.0793C62.9101 52.8993 62.9301 52.8893 62.9701 52.8893C63.0501 52.5493 63.41 51.9293 63.66 51.2993C63.67 51.1593 63.7401 50.7993 63.7501 50.6293C63.8301 50.2093 63.92 49.9993 63.92 49.4693C63.89 48.8193 63.9001 47.9893 63.8101 47.3193C63.8701 47.0793 63.76 46.6793 63.85 46.6193C63.81 46.2793 63.8301 45.6293 63.7701 45.3193C63.7701 45.2193 63.7801 45.1593 63.7801 45.0893C63.7801 45.0393 63.8001 44.8993 63.7801 45.0493C63.7201 45.2193 63.6101 45.2093 63.5601 45.2093C63.4401 45.1993 63.5801 45.1693 63.7801 45.1793C63.8201 45.2993 64.23 45.1693 64.48 45.1793L64.4701 45.2493C64.8301 45.2193 65.1701 45.2493 65.5201 45.2793C65.7801 45.2593 66.11 45.2393 66.29 45.1693C66.49 45.0993 66.73 45.0393 67.07 44.6693C67.22 44.5593 67.4001 44.2993 67.5001 44.0693C67.5901 43.7693 67.56 43.7293 67.57 43.4893C67.58 43.3893 67.57 43.2593 67.55 43.1293C67.52 43.0193 67.5001 42.8993 67.4701 42.7893C67.4301 42.6293 67.41 42.4893 67.44 42.4493C67.29 42.2893 67.1301 41.8593 66.9701 41.4793C66.8301 40.9193 66.82 40.9293 66.66 40.4793C66.66 40.3693 66.62 40.1693 66.6 40.0193C66.54 39.7793 66.4801 39.6693 66.4301 39.6993C66.3801 39.4593 66.4 39.3693 66.29 39.0193C66.25 38.7893 66.2001 38.8693 66.1801 38.7993C66.0901 38.5693 66.0401 38.1893 65.9601 38.3693C65.9101 38.1493 66.0301 38.2693 65.9001 37.9093C65.8101 37.9093 66.0201 38.2593 65.8401 38.1493C65.9401 38.4593 66.06 38.8293 66.1 39.1593C66.14 39.2793 66.1701 39.2293 66.2101 39.3793C66.4201 40.1893 66.6 40.6893 66.67 41.1793C66.72 41.2793 66.76 41.3393 66.8 41.3893C66.9 41.6893 67.02 42.2793 67.11 42.3893C67.14 42.5093 67.16 42.6393 67.19 42.7793C67.21 42.8493 67.2301 42.9293 67.2501 43.0093C67.2801 43.1193 67.3 43.2293 67.32 43.3493C67.37 43.8293 67.1701 44.3793 66.7501 44.7193C66.5401 44.8893 66.2901 45.0193 66.0201 45.0693C65.7201 45.1193 65.57 45.0993 65.38 45.0993C65.01 45.0993 64.6701 45.0993 64.3701 45.0993C64.0101 45.0793 64.1401 45.1593 63.7801 45.1393C63.6701 45.1293 63.52 45.1193 63.51 45.1093C63.55 45.0893 63.5701 45.0593 63.5901 45.0293C63.6101 45.0293 63.63 44.9093 63.64 44.9893C63.65 45.0893 63.65 45.1893 63.66 45.2793C63.67 45.4693 63.6701 45.6393 63.6201 45.7593C63.6401 45.9193 63.66 46.1193 63.69 46.2393C63.63 46.9893 63.7101 48.4593 63.6801 49.0393C63.7201 49.4893 63.6501 50.2093 63.5201 50.6693C63.4601 50.9093 63.45 51.0693 63.41 51.3093C63.13 52.0093 62.78 52.5593 62.36 53.2093C62.17 53.4493 62.02 53.5293 61.83 53.7393C61.51 54.0393 61.16 54.4193 60.76 54.6493C60.49 54.7993 60.38 54.8093 60.08 54.9793C59.98 54.9993 59.9101 54.9893 59.9301 54.9193C59.6201 55.0693 59.7101 55.0593 59.4701 55.1093C59.3201 55.2293 59.05 55.3493 58.64 55.4493C58.42 55.4193 57.78 55.5093 57.91 55.3493C57.37 55.3893 56.87 55.3793 56.36 55.3793C56.2 55.5093 55.2101 55.4593 55.2701 55.6293C55.2001 55.6293 55.1301 55.6393 55.0601 55.6393C55.0401 55.6393 55.0301 55.6493 55.0201 55.6593C55.0001 55.6693 54.99 55.6793 54.95 55.6793C54.93 55.7093 54.96 55.7093 54.95 55.7493C54.89 56.2593 54.96 57.4693 54.89 57.9693C54.94 58.3093 54.9301 58.7293 54.9301 59.4993C54.9001 59.5093 54.9101 59.7093 54.9001 59.8493C54.8501 59.9093 54.8201 60.0793 54.7801 60.1793C54.7501 60.4593 54.8501 60.6693 54.7801 60.7693C54.7101 61.0993 54.72 60.3693 54.66 60.2793C54.69 59.7193 54.7101 59.2893 54.7401 58.7693C54.7201 58.4893 54.71 58.4193 54.7 57.9393C54.69 57.4093 54.59 57.1393 54.64 56.1793C54.53 56.0193 54.55 56.4893 54.45 56.3893C54.45 56.1093 54.4201 55.8993 54.4001 55.7093C54.3901 55.5093 54.4601 55.3193 54.5901 55.1793C54.7701 55.0193 55.05 55.0193 55.23 55.0293C55.72 54.9693 56.4101 54.9393 56.7801 54.8493C57.3001 54.9393 57.96 54.7693 58.35 54.7493C58.43 54.8193 57.88 54.8593 57.8 54.9193C57.88 55.0093 58.61 54.8193 58.91 54.7093C58.92 54.6493 58.81 54.6593 58.57 54.7193C58.69 54.5893 59.3301 54.4493 59.6201 54.3393C60.2801 54.0493 61.22 53.1693 61.44 52.9093C61.52 52.8193 61.46 52.8193 61.55 52.7093C61.84 52.3793 61.99 52.0293 62.1 51.8993C62.25 51.5593 62.3 51.3493 62.36 51.0493C62.61 50.8093 62.55 50.0893 62.73 49.8193C62.72 49.6993 62.7101 49.4493 62.7201 49.1993C62.7201 48.9393 62.71 48.6793 62.67 48.5693C62.77 48.1993 62.6501 47.5493 62.7101 47.0593C62.6801 46.7893 62.65 46.5393 62.61 46.3393C62.62 46.1693 62.6101 45.9093 62.5901 45.6293C62.5801 45.4893 62.5701 45.3493 62.5601 45.2093C62.5601 45.1393 62.55 45.0693 62.55 44.9993C62.54 44.9093 62.57 44.6693 62.64 44.5393C62.77 44.2593 62.9401 44.1293 63.0901 44.0393C63.2201 43.9893 63.3301 43.9693 63.4301 43.9593C63.5301 43.9593 63.51 43.9593 63.55 43.9593C63.6 43.9693 63.63 43.9693 63.67 43.9793C63.73 43.9993 63.78 44.0193 63.92 44.0193C64.35 44.0493 64.26 43.9593 64.63 43.9793C64.39 44.0293 64.66 44.0093 64.73 44.0493C65.21 43.9993 65.92 44.0093 65.88 43.8893C66.1 43.8093 66.09 43.5993 66.14 43.4793C66.13 43.4293 66.0401 43.2293 65.9601 43.0593C65.8801 42.8893 65.8101 42.7093 65.7201 42.4193C65.6901 42.5593 65.7401 42.7893 65.8101 43.0393C65.8401 43.1693 65.88 43.2993 65.92 43.4293C65.93 43.4793 65.9201 43.4893 65.9001 43.5093C65.8901 43.5693 65.88 43.6093 65.85 43.6593C65.78 43.6593 65.77 43.5793 65.73 43.6293C65.73 43.6693 65.7501 43.6693 65.7701 43.6693C65.7601 43.6793 65.76 43.6793 65.69 43.6893C65.53 43.6893 65.33 43.6793 65.13 43.6793C64.72 43.6693 64.3 43.6693 64.07 43.6993C63.88 43.7093 63.8701 43.6793 63.7201 43.6693C63.6501 43.6693 63.5701 43.6793 63.4901 43.6793L63.33 43.6893C63.25 43.6993 63.1701 43.7193 63.0901 43.7393C62.9401 43.7893 62.79 43.8593 62.67 43.9593C62.16 44.3193 62.19 45.0593 62.23 44.9993C62.19 45.4593 62.09 45.6393 62.14 46.2693C62.08 46.2793 62.0901 46.6593 62.0901 46.9693C62.1201 47.4293 62.15 47.7993 62.19 48.2693C62.15 48.6693 62.15 49.3093 62.1 49.6793C62.07 50.0693 61.99 50.4693 61.94 50.7493C61.82 51.0493 61.7601 51.2193 61.7101 51.3593C61.6601 51.5093 61.6101 51.6293 61.4601 51.8193C61.4301 51.9393 61.3801 52.0693 61.3101 52.2093C61.2201 52.2893 61.08 52.4693 60.91 52.6493C60.79 52.7093 60.73 52.6793 60.48 52.8993C60.28 53.1193 60.6001 52.8993 60.5601 53.0193C60.3401 53.2793 59.7601 53.6593 59.3101 53.8493C58.9201 54.0893 58.14 54.3593 57.67 54.3493C57.38 54.3693 57.25 54.4293 56.91 54.4393C56.55 54.4593 56.5701 54.3993 56.2101 54.4093C56.0401 54.4293 55.8301 54.4393 55.5901 54.4393C55.4701 54.4393 55.35 54.4393 55.23 54.4393C55.11 54.4493 55.02 54.4193 54.7 54.4793C54.16 54.5993 53.7801 55.0793 53.7201 55.5393C53.6901 55.8193 53.7201 55.8493 53.7201 55.9593C53.7301 56.0493 53.7401 56.1293 53.7501 56.1993C53.8301 55.9893 53.84 56.3493 53.91 56.4593V57.1593L53.82 57.1493C53.77 57.1093 53.7901 57.4793 53.7501 57.4893C53.7501 57.2193 53.69 57.5193 53.7 57.7193C53.65 57.5193 53.5901 57.3893 53.5901 56.9993C53.5001 57.0893 53.51 56.6993 53.45 56.6293C53.45 56.4293 53.4301 56.3193 53.4001 56.2693C53.4101 56.1593 53.41 56.0393 53.41 55.9193V55.6693C53.42 55.5093 53.45 55.3393 53.51 55.1693C53.63 54.8493 53.86 54.5593 54.17 54.3693C54.32 54.2693 54.49 54.1993 54.67 54.1593C54.76 54.1393 54.85 54.1293 54.94 54.1193L55.08 54.1093C55.62 54.0793 56.16 54.0493 56.6 54.1193C56.93 54.1293 56.99 54.0693 57.29 54.0693C57.58 54.1493 57.9801 54.0493 58.4301 53.9693C58.7801 53.8493 59.1 53.6793 59.57 53.4493C59.71 53.3593 59.78 53.3093 59.8 53.2593C60.28 53.0093 60.51 52.6993 60.82 52.4193C61.09 52.0993 61.08 51.9693 61.3 51.6993C61.35 51.6093 61.3 51.6193 61.36 51.5093C61.7 50.9393 61.82 50.3693 61.82 49.9993C61.87 49.7993 61.9101 49.5293 61.9001 49.2693C61.9101 48.9993 61.88 48.6493 61.85 48.4593C61.87 47.9593 61.91 47.5193 61.89 46.8293C61.88 46.3593 61.8001 46.0793 61.8401 45.6493C61.8201 45.4593 61.8001 45.2493 61.7801 44.9393C61.7701 44.3093 62.1701 43.7093 62.7201 43.4593C62.8601 43.3893 63 43.3493 63.14 43.3193C63.26 43.2893 63.4901 43.2893 63.4701 43.2993L63.63 43.3193C63.95 43.2593 64.72 43.2893 65.05 43.2293C65.36 43.2393 65.5101 43.2393 65.6501 43.2393H65.6801H65.69V43.4493V43.4593V43.4893C65.69 43.5093 65.7 43.5193 65.69 43.5093C65.69 43.4993 65.6601 43.4793 65.6801 43.4893C65.7101 43.4993 65.7201 43.4893 65.6501 43.5093H65.64L65.38 43.5993V43.5893V43.5693C65.38 43.5393 65.3701 43.5193 65.3701 43.4893C65.3601 43.4393 65.3501 43.3993 65.3401 43.3693C65.3201 43.2893 65.2801 43.2193 65.2201 43.0893C65.1601 42.8993 65.1901 42.8893 65.1501 42.7393C65.0701 42.4493 65.01 42.3893 64.94 42.1793C64.73 41.4093 64.6601 41.1493 64.4701 40.4593C64.4101 40.2593 64.37 40.1593 64.32 40.1193C64.31 39.9693 64.17 39.4293 64.1 39.4393C64.08 39.1693 64.03 39.1293 63.98 38.8593C63.88 38.5493 63.72 38.2893 63.7 37.9493C63.64 37.8493 63.5801 37.5193 63.5301 37.6093C63.5001 37.4393 63.4801 37.3093 63.4601 37.1293C63.3401 36.8693 63.2001 36.0393 63.0901 35.9593C63.0901 35.7893 62.9801 35.3393 63.0601 35.3593C63.0201 35.1493 62.92 34.7693 63.01 34.8893C62.74 33.9993 62.7301 33.4293 62.5001 32.8993C62.4301 32.1793 62.2901 31.9893 62.2801 31.3693C62.1001 30.6193 62.06 29.9893 61.92 29.2093C61.81 28.7793 61.73 28.4193 61.61 28.0493C61.48 27.6793 61.3601 27.2993 61.2401 26.8193C61.1801 26.5393 61.1401 26.6193 61.0601 26.4293C60.9701 26.1193 60.93 26.0393 60.8 25.8393C60.62 25.3893 60.62 25.2293 60.41 24.9593C60.32 24.7593 60.07 24.3393 60.1 24.2893C59.98 24.0493 59.9201 23.9993 59.8401 23.9293C59.8201 23.7993 59.69 23.5793 59.54 23.3693C59.45 23.2093 59.42 23.2093 59.38 23.2093C59.32 23.0593 59.2601 22.9693 59.1501 22.8493C58.9801 22.5893 59.03 22.5393 58.85 22.2893C58.51 21.8293 58.5401 21.9293 58.2101 21.5593C58.2101 21.4793 57.92 21.1493 57.95 21.0993C57.75 20.8893 57.69 20.9593 57.44 20.6793C57.37 20.4993 57.14 20.2593 56.88 19.9993C56.61 19.7393 56.27 19.4993 56.05 19.2293C55.86 19.0893 55.7001 18.9793 55.6501 19.0193C55.6001 18.8993 55.09 18.6093 55.3 18.6193C54.73 18.2493 54.3801 17.8893 53.7401 17.5093C53.7001 17.4693 53.67 17.4193 53.69 17.3993C53.45 17.2493 53.2001 17.0793 52.9601 16.9493C52.7201 16.8293 52.5 16.7393 52.36 16.6993C52.04 16.5593 51.9301 16.4593 51.7101 16.3393C51.1301 16.0893 51.1 16.1393 50.63 15.8793C50.15 15.6693 49.7301 15.5393 49.3101 15.4193C48.8901 15.2993 48.4701 15.1593 47.9601 15.0993C47.7001 15.0793 47.44 15.0493 47.2 15.0293C46.84 14.8893 46.0601 14.8293 45.4001 14.8093C45.1801 14.7593 44.6901 14.8193 44.6501 14.7593C44.2801 14.8093 43.86 14.7993 43.44 14.7893C43.03 14.7993 42.62 14.8493 42.29 14.9293C41.91 14.8993 41.0901 15.0793 40.8101 15.1493C40.4801 15.1993 40.54 15.2693 40.29 15.3193C39.86 15.4093 39.5 15.5193 39.14 15.6093C38.78 15.6993 38.43 15.8193 38.05 16.0093C37.55 16.1593 36.97 16.3693 36.7 16.6593C36.21 16.9193 35.7901 16.9493 35.4701 17.2993C35.1801 17.4293 34.86 17.6193 34.55 17.8193C34.24 18.0293 33.97 18.2893 33.7 18.4993C33.54 18.5593 33.3 18.6993 33.2 18.6993C32.94 18.9393 32.9001 19.0993 32.8101 19.2693C32.5601 19.5293 32.4501 19.5793 32.2801 19.8093C31.9701 20.0293 31.56 20.5693 31.29 20.7793C31.08 21.0493 30.77 21.4693 30.6 21.7493C30.41 21.9093 30.21 22.3093 30.17 22.2193C29.98 22.4393 30.09 22.4193 30.04 22.5293C29.71 22.9693 29.63 23.2693 29.48 23.4393C29.37 23.6293 29.4101 23.6493 29.3101 23.8493C29.1001 24.2093 29.08 24.1693 28.89 24.5893C28.85 24.4593 28.62 24.9793 28.51 25.0993C28.44 25.3293 28.3 25.6393 28.33 25.7293C28.14 26.0493 27.89 26.7493 27.76 27.0993C27.57 27.7893 27.49 27.9793 27.36 28.4193C27.29 28.7693 27.2701 28.9793 27.2701 29.1693C27.2101 29.4093 27.14 29.5893 27.11 29.7793C27.13 30.3793 26.9501 30.9093 26.9901 31.5993C26.9001 32.1193 26.9 32.2793 26.8 32.6493C26.8 32.9393 26.8 33.2193 26.83 33.5093C26.94 33.5293 26.8901 32.9293 26.9901 32.8893C27.0701 33.0093 27 33.5393 27.01 33.8393C27.05 34.3593 27.2101 35.1693 27.2401 35.6393C27.2901 36.0793 27.4601 36.4993 27.4601 36.6793C27.5301 36.9893 27.62 37.0193 27.7 37.2793C27.85 38.2193 28.47 39.4693 28.85 40.4693C28.99 40.7493 29.05 40.7493 29.19 41.0193C29.16 41.0793 29.49 41.5293 29.39 41.5093C29.73 41.9893 30.21 42.7593 30.42 43.1293C30.69 43.4393 30.73 43.5493 30.98 43.7893C31.11 43.9893 31.35 44.2293 31.35 44.3193C31.51 44.4793 31.5501 44.4693 31.7701 44.7193C32.0201 45.0693 32.24 45.3693 32.64 45.9293C32.69 46.0793 32.88 46.3893 32.92 46.5393C33.01 46.6793 33.0901 46.7693 33.1201 46.7493C33.2701 47.0293 33.2701 47.1193 33.4701 47.4893C33.7001 47.8993 33.7401 48.2093 33.8701 48.3793C33.9701 48.7193 34.0201 48.9993 34.0301 49.1893C34.2301 49.9793 34.11 49.9593 34.16 50.5993C34.11 50.6293 34.1001 50.0393 34.0301 50.1593C34.0701 50.9693 34.0901 51.5193 34.0301 52.0393C34.0701 52.8493 34.01 53.5393 34.08 54.1493C34.05 54.1993 34.0301 54.2893 34.0301 54.4893C34.1101 55.2293 34.06 56.6393 34.2 57.0893C34.19 57.4993 34.1301 57.3693 34.1801 57.7893C34.0901 57.7593 34.1001 58.2593 34.0601 58.4793C33.9801 58.5593 33.9201 58.7093 33.8701 58.9193C33.8401 58.5993 33.6901 58.2093 33.7501 57.8493C33.7001 57.6393 33.7001 57.1393 33.6501 56.8993C33.6801 56.2393 33.68 55.6893 33.63 55.0193C33.64 54.0193 33.6501 53.2793 33.5301 52.7793C33.5301 52.5693 33.5901 52.1093 33.5301 51.9593C33.5401 51.7393 33.6 51.7593 33.58 51.3793C33.58 51.0893 33.53 51.0893 33.51 50.8993C33.53 50.6093 33.5001 50.2293 33.4901 49.9893C33.3501 49.4793 33.45 50.1293 33.35 49.8593C33.35 50.0693 33.4401 50.7593 33.3701 50.8793C33.3501 50.8993 33.35 50.8293 33.35 50.7493C33.47 50.6593 33.5001 50.6893 33.5201 50.6593ZM30.7201 43.6793C30.3201 43.0193 29.92 42.4893 29.42 41.6893C29.31 41.4693 29.1301 41.1093 28.9901 40.9393C28.8601 40.5493 28.46 39.7893 28.23 39.1593C28.12 38.9693 27.99 38.6893 27.89 38.4693C27.73 37.9193 27.5801 37.3193 27.5901 37.0093C27.5101 36.6793 27.4701 36.6893 27.4601 36.4893C27.4001 36.4793 27.3301 36.3493 27.2701 36.0793C27.1501 35.3793 27.0501 34.5593 26.9601 33.8393C26.9301 34.1993 26.84 33.6893 26.79 33.7193C26.8 34.3193 26.9301 34.5393 27.0001 34.9093C26.9601 35.1493 27.1401 35.5093 27.1801 35.7593C27.0901 35.6893 27.22 36.1293 27.1 35.9793C27.16 36.6193 27.5201 38.0793 27.8101 38.4893C27.7801 38.7593 28.1601 39.6893 28.4301 40.1093C28.4301 40.3893 28.77 40.9793 29.07 41.4893C29.14 41.6093 29.1601 41.5593 29.2201 41.6593C29.4501 42.2293 29.8501 42.7193 30.2501 43.3293C30.3601 43.3993 30.5301 43.5493 30.7401 43.7993C31.0001 44.2793 31.6 44.7593 31.98 45.3193C32.3 45.6093 32.5001 46.0093 32.6801 46.1393C32.3701 45.6693 32.02 45.2093 31.63 44.7693C31.32 44.3993 31.0101 44.0393 30.7201 43.6793ZM27.1201 29.4293C27.1901 29.2193 27.3101 28.5193 27.2801 28.3493C27.2301 28.8093 27.1701 28.7393 27.1201 28.9793C27.0801 29.1593 27.04 29.4393 27.01 29.6193C26.99 29.8393 26.9201 30.0893 26.9901 30.1693C27.0801 29.9093 27.0801 29.6893 27.1201 29.4293ZM27.3 28.1293C27.34 28.1493 27.37 28.0693 27.42 27.9493C27.44 27.7893 27.37 27.7593 27.3 28.1293ZM26.94 30.5993C26.95 30.5693 26.9501 30.4293 26.9301 30.4893C26.9201 30.5093 26.92 30.6493 26.94 30.5993ZM28.9001 23.9893C28.8801 23.8593 28.78 24.0193 28.7 24.1093C28.38 24.7393 28.36 24.9293 28.04 25.6093C28.02 25.7793 27.86 26.1693 27.89 26.2693C28.27 25.4893 28.46 25.0093 28.79 24.2993C28.95 23.9593 29.01 23.9493 29.16 23.6393C29.39 23.1993 29.62 22.6493 29.89 22.2893C29.87 22.2393 29.78 22.3593 29.76 22.3193C29.6 22.6493 29.35 23.0493 29.1 23.4693C29.11 23.5293 29.24 23.3693 29.16 23.5093C29.05 23.5493 29.0501 23.7693 28.9001 23.9893ZM27.7 26.6593C27.59 27.0593 27.4801 27.4493 27.4901 27.6293C27.6501 27.1493 27.75 26.7693 27.7 26.6593ZM33.1 46.8193C33.09 46.7893 32.99 46.6493 33.01 46.7093C33.03 46.7493 33.13 46.8893 33.1 46.8193ZM33.55 47.7993C33.42 47.6993 33.7201 48.2993 33.7801 48.5693C33.8801 48.5993 33.69 47.9893 33.55 47.7993ZM30.7201 21.1393C30.9301 20.7393 31.1801 20.5493 31.4701 20.1893C31.4801 20.2293 31.99 19.6993 31.83 19.7693C31.64 19.8493 30.97 20.7593 30.98 20.6193C30.74 20.8493 30.79 20.8893 30.57 21.1393C30.57 21.2493 30.5501 21.2293 30.6501 21.2293C30.5401 21.4093 30.37 21.4693 30.38 21.5693C30.54 21.3693 30.56 21.4693 30.76 21.1893L30.7201 21.1393ZM42.55 14.2293C42.23 14.2993 41.85 14.3793 41.67 14.3293C41.67 14.2693 41.97 14.2593 41.89 14.1993C41.3 14.2393 40.5101 14.5193 39.8101 14.6093C39.9801 14.4693 40.49 14.3693 40.89 14.2693C40.9 14.2093 40.71 14.2293 40.55 14.2393C40.57 14.2793 40.4501 14.3193 40.2201 14.3493C40.3401 14.2493 40.0401 14.3193 39.9901 14.2993C39.4001 14.5293 38.5901 14.6093 37.8401 15.0293C38.0001 14.9693 37.8601 15.0593 37.7501 15.1193C37.6701 15.0993 37.4501 15.1693 37.2101 15.2593C37.2001 15.2893 37.2501 15.3193 37.1201 15.3693C36.9901 15.3993 36.83 15.4493 36.6 15.5793C36.36 15.7793 35.9701 15.9393 35.3101 16.2993C35.1401 16.4493 34.92 16.6093 34.67 16.7893C34.64 16.7693 34.66 16.7193 34.54 16.7793C34.53 16.8093 34.5601 16.8193 34.4701 16.8793C34.3201 16.9093 33.9601 17.2293 33.7401 17.4093C32.9901 17.9793 32.7001 18.1793 32.2701 18.6493C32.2201 18.6293 31.9 18.9793 31.82 18.9893C31.54 19.3093 31.31 19.5093 31.05 19.8293C30.67 20.2293 30.55 20.4193 30.35 20.5593C30.28 20.7193 30.23 20.8693 30.26 20.9493C30.03 21.3093 29.76 21.6993 29.76 21.8593C29.99 21.5993 30.11 21.5293 30.32 21.1793C30.34 21.1993 30.29 21.2693 30.29 21.2993C30.68 20.7393 30.9201 20.4993 31.2801 20.1093C31.2501 19.9693 31.59 19.4893 32.07 19.1493C32.23 19.0093 32.0801 19.0293 32.2801 18.8693C32.8401 18.5093 33.4401 17.7893 34.0301 17.4893C34.0101 17.4593 34.0701 17.3793 34.1801 17.2893C34.5101 17.1593 34.98 16.6993 35.41 16.5193C35.59 16.2493 36.6001 15.9493 36.7801 15.7293C36.9301 15.7393 36.9501 15.8293 37.1501 15.8093C36.6301 16.0793 36.5201 16.1393 35.8701 16.4793C35.6801 16.5693 35.6601 16.4993 35.3701 16.7093C35.2201 16.8393 35.4301 16.8393 35.1501 17.0193C35.0101 16.9993 34.83 17.1093 34.8 17.0393C34.19 17.3993 33.86 17.7493 33.58 18.0293C33.54 18.0193 33.37 18.1493 33.29 18.1893C33.38 18.2393 33.0501 18.4593 33.0201 18.5793C33.1501 18.5293 33.3001 18.4893 33.5201 18.3493C33.3901 18.3393 33.88 18.0493 33.92 17.9593C34.07 17.8993 34.4901 17.5293 34.6501 17.4993C34.6501 17.4693 34.65 17.4293 34.82 17.3393C35.2 17.1093 35.52 16.9093 35.86 16.7193C36.21 16.5493 36.57 16.3593 37.01 16.0893C37.7 15.8293 38.08 15.7193 38.63 15.4293L38.64 15.4793C38.94 15.3593 38.9601 15.3593 39.2701 15.2893C39.2801 15.2093 39.63 15.1093 39.88 15.0093C40.08 14.9293 40.13 14.9793 40.2 14.9593C40.45 14.9193 40.7301 14.7993 41.0601 14.7893C41.2801 14.7093 41.48 14.6393 41.7 14.5593C42.35 14.5493 42.85 14.4293 43.33 14.4493C43.75 14.3493 44.6001 14.3693 45.0901 14.3693C45.4601 14.2793 45.77 14.3293 46.42 14.3993C47.07 14.3593 47.6901 14.4993 48.5001 14.6793C49.0301 14.7893 49.0301 14.7993 49.4601 14.9293C49.6901 14.9693 50.0401 15.0693 50.3701 15.1493C50.6801 15.2693 50.9701 15.3593 51.0901 15.3393C50.7701 15.1893 50.77 15.1093 50.39 15.0193L50.42 14.9593L49.9901 14.8393C49.5601 14.6193 49.01 14.4293 48.42 14.2793C48.39 14.2993 48.4201 14.3493 48.2801 14.3293C47.6701 14.2193 47 14.0093 46.51 14.0293C46.4 13.9993 46.5 13.9393 46.19 13.9293C45.87 13.9493 45.34 13.8593 45.05 13.9193C44.9 13.8793 44.67 13.8593 44.38 13.8493C44.17 13.8493 44.2901 13.9293 44.0301 13.9193C44.0201 13.8893 44.06 13.8493 43.92 13.8493C43.94 13.9193 43.74 13.9293 43.58 13.8993C43.77 13.8793 43.9401 13.8193 43.5901 13.8093C43.5701 13.8693 43.51 13.9093 43.35 13.9593C43.18 13.9393 42.75 14.0293 42.57 13.9693C42.5 14.0293 42.5 14.0793 42.23 14.1693C42.62 14.1493 42.7201 14.0993 42.9001 14.1693C42.9401 14.1393 43.25 14.0193 43.35 14.0793C43.26 14.2193 42.71 14.1993 42.55 14.2293ZM33.01 18.6193L32.7701 18.8393C32.7801 18.8893 32.88 18.8093 33.04 18.6593L33.01 18.6193ZM29.13 22.9393C29.48 22.4293 29.65 22.1793 29.66 21.9493C29.37 22.4293 29.2 22.8293 28.85 23.2793L28.9301 23.3393C29.1101 23.0993 29.01 23.1193 29.13 22.9393ZM28.6501 23.8093C28.6701 23.7893 28.7201 23.6493 28.6801 23.6993C28.6601 23.7193 28.6101 23.8493 28.6501 23.8093ZM54.45 17.1693L54.42 17.2093C54.98 17.5593 55.05 17.6793 55.51 17.9593C55.48 17.8293 55.75 18.0493 55.86 18.0793C55.72 17.9093 55.3701 17.6893 55.1501 17.5393C54.6901 17.1593 54.21 16.9593 53.95 16.7493C53.85 16.7493 53.3101 16.3193 53.3401 16.4593C53.8201 16.7193 54.05 16.9193 54.45 17.1693ZM52.94 16.2593C52.62 16.0893 52.54 15.9793 52.08 15.7693C52.05 15.8193 51.7401 15.6693 51.7201 15.7393C52.2901 16.0393 52.58 16.1693 52.94 16.2593ZM62.92 32.6893C63 33.0593 62.9401 33.0493 62.9701 33.2793C63.1601 33.8993 63.22 34.4693 63.42 35.0293C63.42 35.3493 63.6 36.0893 63.63 36.4393C63.69 36.5393 63.75 36.7293 63.82 37.0193C63.97 37.7393 64.21 38.5293 64.32 39.0993C64.35 39.1193 64.3901 39.2193 64.4301 39.3193C64.5901 39.9693 64.83 40.4093 64.91 40.9193C65.01 41.0393 65.1301 41.5193 65.2501 41.9393C65.3501 41.9493 65.2301 41.8493 65.1801 41.5893C65.1901 41.5093 65.15 41.3393 65.1 41.1293C64.94 40.5693 64.7701 39.9193 64.6201 39.5393C64.5701 39.2793 64.5001 38.9593 64.4601 38.7293C64.3901 38.6593 64.31 38.4293 64.23 38.1693C64.18 37.9493 64.3 38.0693 64.17 37.7093C63.9 37.0393 63.78 36.0893 63.55 35.3893C63.54 34.9793 63.3301 34.0693 63.2501 33.7493C63.2101 33.5093 63.2701 33.5193 63.2401 33.2793C63.0901 32.7493 63.0801 32.2693 62.9901 31.7593C62.9101 31.6593 62.88 30.8493 62.8 30.9393C62.96 31.6193 62.8401 31.7893 63.0301 32.6893C62.9601 32.6993 62.94 32.4893 62.92 32.6893ZM56.38 18.6293C56.6 18.7193 57.2801 19.4593 57.3701 19.3693C56.9901 19.0393 56.8901 18.8793 56.4901 18.5293C56.2401 18.3493 56.23 18.3993 55.94 18.1293C55.9 18.1993 56.08 18.3493 56.38 18.6293ZM65.82 43.5293C65.85 43.5193 65.78 43.5493 65.82 43.5093C65.74 43.5293 65.62 42.9293 65.54 42.9593C65.57 43.0793 65.6 43.1993 65.63 43.3093C65.64 43.3593 65.66 43.4193 65.67 43.4693L65.69 43.5393V43.5593L65.7501 43.5393H65.76C65.83 43.5193 65.83 43.5293 65.82 43.5293ZM57.69 19.8193C58.29 20.4693 58.63 20.6193 59.11 21.3893C59.24 21.4993 59.5001 21.8893 59.5301 21.7893C59.5201 21.7193 59.27 21.4493 59.3 21.4093C59.09 21.1693 58.88 20.8393 58.69 20.6093C58.66 20.5693 58.5001 20.4593 58.4301 20.3893C58.1401 20.0993 57.75 19.6693 57.58 19.6393C57.67 19.7293 57.75 19.8193 57.69 19.8193ZM33.48 49.6393C33.52 49.6493 33.5201 49.5393 33.5001 49.3893C33.4601 49.3793 33.46 49.4893 33.48 49.6393ZM65.5601 42.8393C65.4601 42.2393 65.3701 42.5793 65.5601 42.8393V42.8393ZM60.5001 23.3893C60.4401 23.2793 60.4301 23.2293 60.4301 23.1793C60.2601 22.9493 60.0801 22.6893 60.0201 22.7593C60.2401 23.1193 60.4001 23.3393 60.5001 23.3893ZM32.82 47.5993C32.75 47.4693 32.66 47.2793 32.63 47.2693C32.7 47.3993 32.78 47.5893 32.82 47.5993ZM65.13 43.4793C65.13 43.4693 65.04 43.4493 65.01 43.4793C65.01 43.4893 65.1 43.5093 65.13 43.4793ZM53.98 16.7093C53.97 16.7293 54.13 16.8393 54.17 16.8293C54.16 16.7893 54.07 16.7493 53.98 16.7093ZM61.94 26.5193C61.85 26.4993 62.01 27.0893 62.11 27.2693L62.1801 27.2593C62.1201 26.9793 62.05 26.5993 61.92 26.2593C61.78 25.9293 61.6401 25.6293 61.5201 25.4793C61.6601 25.8893 61.82 26.2493 61.94 26.5193ZM59.5601 21.8893C59.5401 21.8993 59.6401 22.0593 59.6801 22.0693C59.6101 21.9693 59.6201 21.9093 59.5601 21.8893ZM31.4301 45.6593L31.5901 45.8493L31.63 45.8293L31.4701 45.6393L31.4301 45.6593ZM62.7401 30.2293C62.7301 30.2293 62.73 30.3193 62.76 30.3493C62.77 30.3493 62.7701 30.2493 62.7401 30.2293ZM62.61 29.5393C62.63 29.6293 62.65 29.7493 62.67 29.7593C62.65 29.6793 62.63 29.5493 62.61 29.5393ZM62.54 28.7793C62.49 28.5093 62.44 28.3293 62.39 28.2393C62.38 28.3993 62.47 28.6993 62.54 28.7793ZM62.64 29.3193C62.68 28.8993 62.44 28.7593 62.64 29.3193V29.3193ZM62.48 28.1193C62.44 27.7993 62.29 27.8193 62.41 28.1293L62.48 28.1193ZM60.44 53.0393C60.43 53.0293 60.36 53.0593 60.36 53.0993C60.36 53.1093 60.44 53.0793 60.44 53.0393ZM26.91 38.9193C26.97 39.1293 26.96 39.1993 27.07 39.4593C27.17 39.4893 27.02 38.9793 26.91 38.9193ZM65.5601 41.6393C65.5301 41.6393 65.52 41.6993 65.57 41.7593C65.6 41.7593 65.6101 41.6993 65.5601 41.6393ZM63.9301 34.6393C63.8901 34.8393 64.0301 35.2993 64.1201 35.6793C64.1901 35.5793 64.2701 35.9193 64.3401 36.1293C64.3801 36.3493 64.3601 36.4193 64.4301 36.7093C64.6201 37.2093 64.6001 37.6693 64.7801 37.9693C64.6601 37.7993 64.76 38.2793 64.83 38.3193C64.69 37.7793 65.02 38.6693 65.07 38.6393C65.2 39.0593 65.2501 39.1593 65.2701 39.4393C65.3101 39.4193 65.36 39.5393 65.41 39.7693C65.5 40.2493 65.54 40.3493 65.61 40.7993C65.55 40.5993 65.5101 40.5393 65.4701 40.5893C65.5701 40.9993 65.54 40.8693 65.64 41.2693C65.67 41.2893 65.6901 41.2693 65.7201 41.3793C65.8801 42.0693 66.0601 42.4093 66.2701 42.9493C66.2601 42.9893 66.25 43.0393 66.26 43.1193C66.27 43.1993 66.3101 43.3693 66.3401 43.4393C66.4901 43.5593 66.38 43.9793 66.19 44.1393C66.14 44.1493 66.0601 44.1693 65.9701 44.1893C65.9201 44.1893 65.87 44.1993 65.82 44.1993H65.5601C65.2101 44.1993 64.8701 44.2193 64.7801 44.2693C64.5101 44.2393 64.13 44.2393 63.82 44.2493C63.74 44.2593 63.67 44.2593 63.6 44.2693C63.56 44.2693 63.36 44.2993 63.29 44.3493C63.1 44.4493 63.06 44.5793 63.07 44.6093C63.22 44.4393 63.46 44.3993 63.58 44.4093C63.68 44.4093 63.77 44.4093 63.86 44.4093C64.04 44.4093 64.2301 44.3993 64.5201 44.4393C64.8001 44.4293 65.09 44.4193 65.39 44.4093L65.83 44.3993C65.95 44.3993 66.06 44.3793 66.17 44.3393C66.29 44.2793 66.2901 44.2293 66.3701 44.1493C66.4101 44.1493 66.49 44.1093 66.57 43.9693C66.63 43.8193 66.68 43.6393 66.66 43.4493C66.64 43.2793 66.5501 43.0293 66.4601 42.7993L66.51 42.7893C66.33 42.2693 66.32 41.8893 66.16 41.5493C66.19 41.5093 66.16 41.3493 66.08 41.0893C65.74 40.2993 65.42 39.1493 65.14 38.4093C65.12 38.0093 64.86 37.5593 64.79 37.0493C64.73 36.8193 64.67 36.8293 64.61 36.5993C64.61 36.2793 64.4 35.7993 64.33 35.4493C64.33 35.3393 64.25 35.0293 64.33 35.0993C64.28 34.8093 64.22 34.7493 64.17 34.5293C64.3 34.4493 64.05 34.1093 64.11 33.8293C63.98 33.6893 63.7801 32.4393 63.7501 31.9793C63.6401 31.6993 63.5301 31.3493 63.4301 30.8193C63.4901 30.8093 63.5101 31.0093 63.5301 30.8193C63.4201 30.3093 63.35 29.6893 63.32 29.3193C63.19 29.0893 63.0601 28.9293 62.9301 28.5393C62.9901 29.0893 63.0701 29.2793 63.1801 29.7693C63.2101 30.0693 63.1601 30.1193 63.2101 30.4693C63.2401 30.6293 63.28 30.6893 63.3 30.9393C63.34 30.9293 63.37 31.0293 63.41 31.1693C63.5 31.7093 63.6101 31.8293 63.7101 32.3293C63.7201 32.6493 63.8401 32.8693 63.7801 33.0293C63.6901 32.8793 63.6601 32.7793 63.6201 32.9193C63.7101 33.4693 63.7701 34.1593 63.9301 34.6393ZM32.7201 17.4993C32.8201 17.5593 32.5101 17.6293 32.2801 17.8793C32.3101 17.9193 32.92 17.5193 33.05 17.3693C32.85 17.5093 32.9701 17.2993 32.7201 17.4993ZM31.79 18.3893C31.77 18.3293 31.62 18.4493 31.48 18.5493C31.56 18.5693 31.1701 18.8593 31.1801 18.9193C31.4801 18.6393 31.52 18.6793 31.79 18.3893ZM32.19 17.9593L31.9301 18.1893C31.9401 18.2393 32.0501 18.1593 32.2201 17.9993L32.19 17.9593ZM58.8 19.8693C59 20.1093 59.0001 20.0093 59.1501 20.1893C59.5001 20.8293 60.18 21.5993 60.66 22.3593C60.84 22.6493 60.7101 22.6093 60.9601 22.9693C61.0301 23.0093 61.11 23.0993 61.19 23.2493C61.37 23.5593 61.36 23.6293 61.48 23.8793C61.57 23.9493 61.69 24.1093 61.86 24.4693L61.9701 24.4293C61.6801 23.9093 61.4301 23.3293 61.1201 22.7993C60.7901 22.2793 60.49 21.7493 60.13 21.3393C59.92 20.8893 59.7 20.8193 59.38 20.3093C59.12 20.0493 59.0301 19.9393 58.7101 19.6493C58.5501 19.4093 58.1201 18.9893 57.9001 18.8193C57.9601 18.9693 58.65 19.6193 58.8 19.8693ZM34.51 16.1893C34.26 16.2793 34.18 16.4193 34.04 16.5393C34.2 16.4193 34.44 16.2793 34.51 16.1893ZM62.36 51.6493C62.23 51.9593 61.92 52.3793 61.95 52.4393C62.2 52.1793 62.12 52.0793 62.35 51.7693C62.41 51.6393 62.39 51.6193 62.48 51.4593C62.62 51.1193 62.91 50.3293 62.8 50.2793C62.67 50.5393 62.44 51.4293 62.36 51.6493ZM62.88 45.7893C63 45.5293 62.79 45.4793 62.88 45.7893V45.7893ZM62.9301 46.3893C62.9401 46.4793 62.93 46.6193 62.95 46.6293C62.94 46.5293 62.9501 46.3893 62.9301 46.3893ZM62.98 48.2593C62.97 48.4193 62.9501 48.4793 62.9601 48.7193C63.0201 48.9293 63.02 48.2293 62.98 48.2593ZM62.6 51.5393C62.81 51.1693 62.85 50.8293 62.98 50.4693C62.93 50.4793 62.96 50.3293 62.92 50.3293C62.81 50.8793 62.65 51.1793 62.6 51.5393ZM25.05 32.1793V32.4193L25.1 32.4293V32.1893L25.05 32.1793ZM25.05 32.5393C25.05 32.6893 25.0201 32.6993 25.0301 32.8893C25.0701 32.8993 25.09 32.8093 25.1 32.6593C25.08 32.6593 25.07 32.5593 25.05 32.5393ZM56.94 55.0393C57.19 55.0493 57.99 54.9893 57.64 54.9593C57.66 55.0093 56.95 54.9493 56.94 55.0393ZM63.14 47.4693C63.17 47.6493 63.2101 47.7693 63.2101 48.0693C63.3101 48.0593 63.31 47.5993 63.33 47.1493C63.25 47.1593 63.28 46.5893 63.19 46.6593C63.21 47.1193 63.12 46.9993 63.14 47.4693ZM63.13 45.0093C63.12 45.0393 63.1401 45.1893 63.1501 45.1293C63.1601 45.0993 63.15 44.9493 63.13 45.0093ZM63.16 45.7193C63.15 45.7493 63.1701 45.8993 63.1801 45.8393C63.1901 45.8093 63.17 45.6593 63.16 45.7193ZM63.44 44.6193C63.31 44.6693 63.2501 44.6993 63.2401 44.7693C63.2501 44.7793 63.4 44.6493 63.44 44.6193ZM63.2101 50.4193C63.3101 49.9393 63.2501 49.9493 63.2701 49.5893C63.2701 49.3693 63.3101 49.3393 63.3101 49.1193C63.2501 48.9193 63.27 48.3593 63.19 48.2793C63.24 48.9993 63.2701 49.7093 63.0901 50.2493C63.1101 50.4793 63.1001 50.5393 63.2101 50.4193ZM62.9001 51.4393C63.0001 51.1593 63.07 50.9793 63.05 50.8593C62.98 51.0693 62.92 51.0293 62.82 51.3893L62.9001 51.4393ZM65.91 37.7093C65.99 37.7693 65.84 37.1593 65.8 37.1493C65.85 37.3593 65.79 37.3593 65.91 37.7093ZM65.64 36.5893C65.61 36.6793 65.53 36.6693 65.58 36.9393C65.64 37.1393 65.7501 37.4793 65.8101 37.2593L65.64 36.5893ZM67.29 44.5993C67.26 44.6393 67.1101 44.8293 67.1801 44.7693C67.2301 44.7393 67.36 44.5293 67.29 44.5993Z" fill="#1E1E1E"/><path d="M33.43 54.7697C33.45 54.9497 33.41 54.8497 33.41 54.7697C33.39 54.6097 33.43 54.5097 33.43 54.6597C33.43 54.6797 33.43 54.7297 33.43 54.7697Z" fill="#1E1E1E"/><path d="M66.48 43.7884C66.34 43.9584 66.5 43.6884 66.51 43.5684C66.6 43.5984 66.41 43.7884 66.48 43.7884Z" fill="#1E1E1E"/><path d="M32.88 16.8496C32.84 17.0896 32.33 17.2996 31.82 17.8196C31.85 17.7096 31.61 17.9396 31.52 17.9996C31.67 17.8696 31.87 17.6396 32.11 17.4096C32.35 17.1996 32.63 16.9896 32.88 16.8496Z" fill="#1E1E1E"/><path d="M35.33 15.1195C35.12 15.2895 35.4 15.0195 35.2 15.1095C34.77 15.3495 34.59 15.4395 34.29 15.6995C34.08 15.8195 34.06 15.7695 33.95 15.7995C33.48 16.1595 33.1 16.2795 32.76 16.6195C32.41 16.6895 33.38 16.1095 33.41 16.0595C33.53 15.9895 33.51 16.0495 33.54 16.0595C33.77 15.8395 34.24 15.6095 34.74 15.2495C34.93 15.2495 35.53 14.9295 35.82 14.7195C35.99 14.6295 36.01 14.6495 36.15 14.5795C36.43 14.3395 36.81 14.2995 37.01 14.1295C37.11 14.0995 37.22 14.0695 37.24 14.0895C37.38 14.0195 37.46 13.9695 37.45 13.9295C38.09 13.7095 38.23 13.5795 38.71 13.5195C38.82 13.5895 38.17 13.6995 37.92 13.8195C37.71 13.9595 37.72 14.0495 37.17 14.2495C37.25 14.0795 36.3 14.5295 36.29 14.6195C36.06 14.6395 35.41 14.9795 35.33 15.1195Z" fill="#1E1E1E"/></svg>