<svg xmlns="http://www.w3.org/2000/svg" viewBox="0 0 68 53" fill="none"><path d="M26.56 52.8496L53.12 6.84961H0L26.56 52.8496Z" fill="#D86964"/><path d="M37.47 2.17C37.39 2.17 37.27 2.17 37.27 2.19C37.34 2.19 37.46 2.19 37.47 2.17ZM37.39 2.01C37 2.09 36.3099 1.94 36.1899 2.07C36.5899 2.09 37.5999 2.07 37.8799 2.11C37.8499 2.04 37.62 2.02 37.39 2.01ZM34.39 2.08C34.92 2.01 34.9099 2.15 35.4799 2.13C35.3399 2.02 34.58 1.96 34.39 2.08ZM33.46 2.36C33.49 2.37 33.61 2.35 33.56 2.34C33.54 2.33 33.41 2.34 33.46 2.36ZM29.47 2.35C29.37 2.32 29.39 2.26 29.18 2.25C28.86 2.31 28.69 2.27 28.28 2.29C28.09 2.28 28.4099 2.16 28.1899 2.22C28.0699 2.3 27.4699 2.31 27.2899 2.24C27.2399 2.29 26.38 2.37 26.49 2.23C26.31 2.22 26.19 2.23 26.11 2.24L26.5399 1.81C26.5599 1.96 26.61 2.01 26.64 2.14C26.66 2.37 26.59 2.91 26.68 2.84C26.76 2.47 26.67 2.32 26.71 1.81L26.11 2.41C26.13 2.41 26.15 2.41 26.17 2.41C26.17 2.37 26.2499 2.35 26.3799 2.34C26.3999 2.37 26.4899 2.38 26.5699 2.39C26.7799 2.32 27.0799 2.39 27.3799 2.32C27.5099 2.32 27.51 2.35 27.67 2.35C27.96 2.3 28.5299 2.27 28.6599 2.38C29.1699 2.35 29.6 2.4 29.86 2.34C29.87 2.37 29.84 2.41 29.95 2.41C30 2.36 30.9299 2.5 30.6599 2.34C30.2799 2.43 29.96 2.29 29.47 2.35ZM29.49 2.21C29.72 2.34 29.76 2.13 29.49 2.21V2.21ZM48.22 11.96C48.19 11.95 48.0699 11.97 48.1299 11.98C48.1599 11.99 48.27 11.97 48.22 11.96ZM26.71 2.15C26.71 2.19 26.69 2.23 26.9 2.22C26.91 2.18 26.83 2.16 26.71 2.15ZM45.99 0.0999999C45.96 0.0899999 45.84 0.11 45.89 0.12C45.91 0.13 46.04 0.11 45.99 0.0999999ZM50.95 10.97C50.92 10.96 50.81 10.98 50.86 10.99C50.89 10.99 51 10.98 50.95 10.97ZM49 11.95C48.93 11.88 49.32 11.9 49.06 11.85C49.14 11.83 49.42 11.85 49.33 11.79C48.87 11.72 48.7799 11.86 48.4799 11.88C48.2699 11.87 48.17 11.89 48.21 11.94C48.55 11.98 48.59 11.94 49 11.95ZM30.89 2.17C30.25 2.12 30.38 2.26 30.89 2.17V2.17ZM35.06 2.32L35.0699 2.23C34.7199 2.25 34.3799 2.27 34.1599 2.32H35.06ZM36.46 2.26C36.38 2.32 36.65 2.31 36.65 2.36C37.02 2.35 37.51 2.36 37.65 2.3C37.33 2.27 37.18 2.31 36.86 2.22C36.85 2.26 36.53 2.23 36.46 2.26ZM32.39 2.16C32.42 2.17 32.54 2.15 32.49 2.14C32.46 2.13 32.34 2.15 32.39 2.16ZM32.77 2.31C32.75 2.38 33.2199 2.5 33.2599 2.36C32.9399 2.37 32.96 2.32 32.77 2.31ZM31.9099 2.02C31.3099 2.04 30.86 1.96 30.7 2.11C31.18 2.2 31.86 2.09 32.2 2.1C32.11 2.06 31.8299 2.08 31.9099 2.02ZM31.37 2.37C31.81 2.39 31.6899 2.38 32.0699 2.4C32.1499 2.3 32.5199 2.43 32.5699 2.33C32.1699 2.33 32.08 2.27 31.68 2.28C31.75 2.35 31.34 2.3 31.37 2.37ZM37.87 0.45C38.02 0.44 38.38 0.48 38.37 0.43H38.0699C37.9999 0.43 37.88 0.43 37.87 0.45ZM65.6599 1.44C65.9299 1.44 65.86 1.48 66.06 1.44L66.0699 1.39C65.8799 1.35 65.94 1.39 65.67 1.39L65.6599 1.44ZM66.27 1.28C66.38 1.28 66.42 1.32 66.47 1.28C66.48 1.26 66.3 1.25 66.27 1.28ZM25.3 3.08C25.35 3.19 25.3799 3.09 25.4399 3.3C25.4999 3.01 25.51 3.02 25.49 2.51C25.43 2.6 25.37 2.71 25.3 2.78V3.08ZM66.56 1.42C66.59 1.42 66.6099 1.41 66.6299 1.41L66.8799 1.32L67.03 1.81C67.04 1.83 67.0399 1.84 67.0399 1.81L67.05 1.36L66.62 1.39C66.61 1.39 66.59 1.39 66.55 1.39C66.52 1.39 66.48 1.39 66.45 1.39C66.34 1.41 66.42 1.44 66.56 1.42ZM63.87 1.36C63.95 1.36 64.0699 1.36 64.0699 1.34C63.9999 1.34 63.88 1.34 63.87 1.36ZM63.67 1.36V1.31H63.47L63.46 1.36H63.67ZM29.33 1.93C29.3 1.92 29.1799 1.94 29.2299 1.95C29.2499 1.96 29.38 1.94 29.33 1.93ZM37.5699 2.2C37.7599 2.19 37.9999 2.19 37.9799 2.13C37.7199 2.12 37.6599 2.16 37.5699 2.2ZM29.6299 1.93C29.5999 1.92 29.48 1.94 29.53 1.95C29.55 1.96 29.6699 1.94 29.6299 1.93ZM57.46 12.88C57.52 12.94 57.14 12.83 57.17 12.9C57.36 12.92 57.78 12.93 57.46 12.88ZM39.77 2.07C39.86 2.11 40.1099 2.12 40.2599 2.14C40.2099 1.98 39.6 2 39.18 1.97C39.12 2.08 39.27 2.15 39.55 2.19C39.73 2.17 39.57 2.07 39.77 2.07ZM30.5699 0.68C30.5699 0.66 30.4 0.65 30.37 0.68C30.39 0.71 30.4799 0.7 30.5699 0.68ZM38.55 2.32C38.86 2.31 38.8099 2.39 39.0399 2.39C39.0999 2.27 39.42 2.4 39.64 2.39C39.92 2.28 40.43 2.35 40.75 2.28C40.38 2.25 40.18 2.18 39.67 2.18C39.46 2.28 38.63 2.2 38.55 2.32ZM25.17 4.36C25.13 4.59 25.11 4.83 25.17 5.06C25.21 4.65 25.23 4.58 25.2 4.07C25.26 3.98 25.28 3.26 25.18 3.27C25.11 3.5 25.17 4.06 25.17 4.36ZM25.4799 3.8C25.4999 3.8 25.5099 3.63 25.4799 3.6C25.4899 3.71 25.4499 3.75 25.4799 3.8ZM25.2599 8.26V7.86C25.1899 7.83 25.1699 8.32 25.2599 8.26ZM67.3199 11.61C67.3099 11.87 67.3 12.11 67.28 12.21C67.3 12.38 67.31 12.54 67.33 12.7C67.3 12.92 67.31 13.07 67.31 13.24L67.47 13.4C67.48 13.3 67.48 13.21 67.49 13.1C67.5 12.96 67.47 12.97 67.47 12.85C67.53 12.51 67.46 12.33 67.49 11.87C67.56 11.43 67.5 10.96 67.58 10.41C67.56 10.35 67.55 10.24 67.56 10.06C67.59 9.48 67.57 9.06 67.56 8.64C67.62 8.15 67.56 7.68 67.65 7.39C67.67 7.08 67.6099 7.03 67.6299 6.73C67.7099 6.35 67.69 5.83 67.67 5.32C67.7 5.26 67.74 5.22 67.77 5.19C67.81 5 67.81 4.53 67.9 4.58C67.87 4.18 67.9199 4.32 67.9399 3.93C67.8299 3.55 67.87 2.53 67.83 1.83L67.7599 0.56L66.6599 0.66C66.5599 0.67 66.4699 0.68 66.3799 0.68C66.2099 0.68 66.13 0.66 66.09 0.63C65.57 0.69 64.9899 0.63 64.2899 0.66C63.8699 0.58 63.32 0.65 62.8 0.6C62.72 0.52 63.13 0.57 63.11 0.51C62.67 0.51 62.71 0.4 62.12 0.43C61.99 0.39 61.79 0.37 61.53 0.35C61.38 0.42 61.16 0.35 60.83 0.39C60.52 0.41 60.4699 0.36 60.2299 0.36C60.2299 0.4 60.15 0.42 60.02 0.43C59.91 0.38 59.64 0.38 59.53 0.33C59.01 0.34 58.7499 0.29 58.4399 0.25C58.1899 0.24 58.1299 0.28 57.9399 0.29C57.8899 0.23 57.5699 0.24 57.3499 0.22C57.0299 0.26 56.93 0.21 56.55 0.24C56.16 0.18 55.3099 0.13 54.7599 0.18C54.8199 0.11 54.31 0.16 54.27 0.11C53.98 0.0999999 53.96 0.16 53.67 0.15C52.67 0.0199999 51.38 0.14 50.5 0.03C50.24 0.04 50.19 0.0999999 49.89 0.0999999C49.73 0.0699999 49.31 0.12 48.9 0.0899999C48.46 0.0299999 47.69 0.0699999 47.21 0.0799999C46.93 0.0699999 46.4299 -0.0400001 46.3199 0.05C46.3599 0.15 46.92 0.13 46.89 0.24C46.63 0.24 46.36 0.24 46.09 0.24C45.75 0.13 45.6 0.13 45.11 0.0699999C44.48 0.13 43.9599 0.0599999 43.4099 0.13C43.2299 0.11 43.0499 0.0899999 42.8199 0.0799999C42.6399 0.12 42.45 0.15 42.11 0.15C41.68 0.0899999 41.4799 0.0999999 40.8199 0.12C40.4699 0.0799999 39.78 0.11 39.43 0.0599999C39.37 0.12 39.05 0.11 38.83 0.13C38.68 0.0899999 38.15 0.13 38.24 0.03C37.81 0.05 37.83 0.02 37.45 0C37.25 0.01 37.2499 0.0599999 37.0399 0.0699999C36.8299 0.0299999 36.5499 0.13 36.0399 0.0899999C35.9299 0.11 35.9999 0.18 35.7299 0.16C35.7699 0.0700001 35.37 0.17 35.14 0.11C34.83 0.15 34.35 0.15 34.03 0.2C33.72 0.16 33.09 0.18 32.74 0.14C32.47 0.2 32.3699 0.16 32.0399 0.18C31.8699 0.24 31.75 0.32 31.42 0.34C31.34 0.27 31.0899 0.25 30.9399 0.2C30.3099 0.23 29.54 0.28 28.95 0.19C28.53 0.29 28.1799 0.16 27.6599 0.16C27.3099 0.26 26.7499 0.24 26.2599 0.2C26.2099 0.2 26.1699 0.2 26.1299 0.21L24.45 0.28L24.5 1.85C24.52 2.58 24.49 3.14 24.46 3.91C24.47 4.14 24.54 4.1 24.53 4.42C24.54 4.68 24.54 5.47 24.5 5.81C24.59 6.44 24.45 7.32 24.53 8.01C24.48 8.05 24.52 8.5 24.5 8.7C24.55 9.32 24.51 10.04 24.46 10.39C24.48 10.61 24.5 10.85 24.53 11.1C24.54 11.66 24.54 12.12 24.53 12.61L24.5099 14.18L26.1299 14.21C26.4699 14.22 26.83 14.22 27.24 14.23C27.75 14.29 27.76 14.27 28.37 14.26C28.61 14.27 28.75 14.3 29.09 14.29C29.37 14.23 29.98 14.25 30.53 14.25C30.52 14.28 30.5799 14.3 30.6299 14.32C31.3499 14.32 31.8299 14.37 32.4799 14.33C32.3199 14.44 32.87 14.38 32.99 14.43C32.99 14.36 33.18 14.33 33.4 14.31C34.08 14.39 34.99 14.22 35.36 14.36C35.72 14.36 35.7 14.28 35.97 14.27C36.01 14.32 36.42 14.29 36.49 14.34C36.96 14.3 36.8599 14.27 37.4099 14.27C37.7099 14.26 37.73 14.32 38.03 14.32C38.18 14.29 38.2899 14.29 38.4399 14.32C38.4499 14.29 38.47 14.27 38.64 14.27C38.89 14.27 39.1299 14.27 39.2599 14.29C39.3499 14.26 39.4099 14.22 39.6599 14.22C39.7099 14.27 40.1699 14.23 40.3799 14.24C40.6799 14.18 40.84 14.21 41.3 14.21C41.51 14.17 41.5899 14.16 41.9099 14.19C42.1099 14.19 42.03 14.13 42.31 14.14C43.27 14.17 43.8299 14.09 44.6599 14.04C45.4499 14.06 45.95 14.06 46.61 14.01C47.17 14.08 47.31 13.98 47.95 14.02C48.38 13.89 48.9 13.97 49.65 13.88C49.57 13.94 49.8899 13.92 50.0699 13.92C50.0699 13.99 50.45 13.97 50.61 14C50.66 13.92 51.3999 13.96 51.5999 13.91C51.7499 13.92 51.87 13.93 52.03 13.95C51.94 13.9 52.23 13.91 52.31 13.89C52.63 13.94 52.85 13.87 53.12 13.86C53.37 13.88 53.39 13.85 53.65 13.9C53.63 13.84 54.11 13.85 54.25 13.87C54.28 13.84 54.3599 13.83 54.5399 13.83C55.1699 13.83 55.39 13.83 56.08 13.84C56.27 13.83 56.3199 13.79 56.5699 13.8C56.6999 13.8 56.73 13.82 56.89 13.82C57.11 13.78 57.14 13.78 57.4 13.81C57.7 13.76 58.3099 13.76 58.6899 13.72C59.2099 13.72 59.17 13.72 59.72 13.73C59.97 13.68 60.66 13.69 60.9 13.64C61.29 13.68 61.8099 13.62 62.0999 13.59C62.4999 13.62 62.69 13.56 63.09 13.54C63.69 13.52 64.0899 13.55 64.5399 13.56C64.8399 13.5 65.5699 13.5 66.0399 13.51C66.3499 13.47 66.84 13.45 67.43 13.44L67.27 13.28C67.12 13.29 66.94 13.31 66.59 13.3C66.34 13.33 65.92 13.35 65.52 13.36C65.08 13.34 64.5399 13.35 64.1599 13.32C63.7799 13.35 63.4699 13.37 63.0999 13.4C62.8299 13.4 62.51 13.41 62.47 13.37C61.95 13.41 61.73 13.34 61.31 13.3C61.29 13.35 60.84 13.34 60.64 13.36C60.51 13.36 60.4799 13.34 60.3199 13.34C59.9699 13.39 58.83 13.34 58.61 13.37C58.74 13.37 58.85 13.37 58.84 13.41C58.49 13.45 58.46 13.39 58.2 13.36C57.97 13.37 57.75 13.39 57.4 13.38C56.95 13.32 56.4099 13.4 56.1299 13.29C56.6399 13.28 56.7299 13.2 57.1899 13.19C57.5699 13.24 57.9 13.17 58.4 13.19C58.66 13.13 59.14 13.11 59.55 13.07C59.65 13.11 59.86 13.08 59.68 13.13C60 13.14 59.8699 13.07 60.2599 13.09C60.4999 13.1 60.49 13.15 60.8 13.14C60.83 13.12 60.88 13.1 60.97 13.08C61.37 13.06 61.94 13 62.24 13.02C62.38 12.99 62.5799 12.97 62.7899 12.95C63.2599 12.99 63.73 12.91 64.12 12.98C64.26 12.92 65 12.96 65.17 12.91C65.55 13.02 66.05 12.87 66.42 12.96C66.58 12.94 66.73 12.92 66.9 12.9L66.84 12.84H66.83C66.67 12.89 65.8499 12.92 65.5399 12.86C65.4999 12.79 66.3 12.84 66.62 12.83C66.73 12.83 66.7699 12.83 66.8199 12.82L66.2299 12.23C66.0299 12.22 65.82 12.21 65.61 12.2C65.46 12.24 65.35 12.25 65.15 12.25C64.78 12.25 64.21 12.23 63.87 12.25C63.35 12.22 62.15 12.26 61.47 12.21C61.39 12.23 61.23 12.24 61.11 12.26C60.85 12.19 60.52 12.24 60.22 12.25C60.03 12.23 59.9199 12.2 59.6899 12.19C59.3799 12.17 59.53 12.24 59.22 12.22C58.19 12.19 56.61 12.27 55.75 12.18C55.67 12.22 55.13 12.18 54.87 12.19C54.83 12.21 54.79 12.23 54.7 12.25C54.25 12.19 53.81 12.22 53.09 12.19C52.96 12.19 53.0199 12.22 52.9099 12.23C52.5999 12.18 52.2799 12.19 52.0099 12.2C52.0699 12.08 51.79 12.17 51.77 12.09C52.08 12.08 51.9999 12.15 52.1899 12.16C51.9999 12.05 52.35 12.1 52.55 12.08C52.6 12.08 52.5199 12.02 52.7299 12.04C53.0399 12.03 53.13 12.07 53.34 12.09C53.3 12.05 53.39 12.03 53.61 12.03C53.75 12.05 53.92 12.07 54.03 12.1C54.42 12.08 54.4099 12.07 54.9099 12.09C55.2299 12.05 55.6 12.02 55.72 11.94C55.81 12 56.23 11.99 56.45 12.03C56.57 12.03 56.57 12.01 56.74 12.02C56.88 12.04 57.05 12.06 57.17 12.08C57.69 12.07 57.67 12.12 58.15 12.07C58.46 12.1 58.77 12.12 59.05 12.1L59.08 12.16C59.31 12.17 59.57 12.07 59.67 12.17C60.03 12.18 59.8699 12.11 60.2299 12.12C60.4099 12.12 60.46 12.14 60.64 12.14C60.87 12.1 61.4399 12.13 61.6899 12.1C61.7899 12.17 62.06 12.09 62.31 12.14C62.81 12.08 63.58 12.11 64.03 12.08C64.42 12.07 64.6099 12.1 64.9399 12.11C65.0499 12.08 65.3099 12.08 65.3799 12.05C65.6299 12.07 65.8599 12.08 66.0699 12.08L65.8799 11.89C65.5499 11.89 65.2599 11.89 65.0699 11.91C64.8199 11.84 64.3999 11.91 64.1299 11.83C63.7799 11.86 63.2799 11.82 62.9399 11.79C62.7399 11.81 63.0899 11.83 62.8799 11.84C62.7199 11.84 62.79 11.79 62.65 11.78C62.57 11.83 62.14 11.77 61.96 11.77C61.96 11.79 62.01 11.82 61.9 11.82C61.65 11.75 61.33 11.82 60.99 11.77C60.97 11.85 60.23 11.8 59.97 11.84C60 11.89 59.9999 11.94 59.6299 11.93C59.5599 11.88 59.79 11.89 59.67 11.84C59.26 11.8 59.69 11.92 59.42 11.91L59.09 11.85C58.64 11.88 58.19 11.91 57.78 11.94C57.56 11.92 57.56 11.86 57.24 11.86C56.69 11.9 55.9399 11.89 55.2899 11.87C55.2799 11.92 55.2299 11.95 55.0399 11.96C54.8699 11.91 54.49 11.9 54.3 11.85C54.45 11.98 53.5499 11.91 53.3799 11.98C53.0399 11.92 52.8299 11.96 52.2899 11.94C52.0999 11.93 52.02 11.89 51.78 11.89C51.67 11.98 51.06 11.93 50.71 11.9C50.71 11.93 50.77 11.98 50.64 11.98C50.39 11.96 50.35 11.97 50.12 11.91C49.78 11.95 49.67 11.92 49.36 11.96C49.57 11.98 49.8399 11.99 49.8799 12.05C49.2099 12.05 49.96 12.09 49.92 12.16C49.77 12.19 49.3399 12.17 49.0399 12.17C48.9899 12.04 48.57 12.11 48.11 12.05C47.89 12.08 47.9099 12.15 47.6599 12.17C47.5499 12.14 47.48 12.1 47.34 12.08C47.38 12.12 47.0499 12.07 47.0399 12.06L46.45 12.05C46.13 11.97 45.3799 12 45.0399 11.92C44.6999 11.96 44.2999 11.9 43.8499 11.86C43.5899 11.85 43.79 11.95 43.47 11.92C43.09 11.85 43.39 11.74 43.2 11.61C42.93 11.56 42.7699 11.49 42.4799 11.44C42.1999 11.47 41.67 11.47 41.31 11.42C40.92 11.41 40.78 11.45 40.34 11.43C40.13 11.41 40.04 11.36 39.75 11.35C39.81 11.42 39.52 11.41 39.37 11.44C38.8 11.41 38.67 11.48 38.31 11.5C38 11.47 38.0499 11.5 37.8199 11.47C37.6199 11.52 37.43 11.57 37.05 11.58C36.41 11.5 36.05 11.63 35.59 11.66C35.33 11.64 35.21 11.59 35 11.56C34.98 11.58 34.84 11.61 34.81 11.58C34.49 11.58 34.4799 11.65 34.1299 11.64C34.0399 11.51 33.59 11.6 33.15 11.58C33.11 11.65 32.9799 11.69 32.7599 11.72C32.0099 11.67 31.8999 11.79 31.2899 11.78C31.2699 11.82 31.22 11.86 31.09 11.87C30.53 11.76 29.68 11.85 29.22 11.9C29.12 11.87 29.13 11.81 28.93 11.8C28.77 11.83 28.66 11.88 28.43 11.89C28.3 11.86 28 11.86 27.74 11.86C27.42 11.88 27.3099 11.86 27.0399 11.93C27.0299 11.9 26.89 11.9 26.75 11.9C26.64 11.95 26.3199 11.93 26.0999 11.97L26.72 12.59C26.71 12.53 26.7 12.48 26.68 12.44C26.68 12.14 26.62 12.09 26.61 11.83C26.65 11.82 26.58 11.49 26.61 11.23C26.64 11.22 26.6499 11.38 26.6599 11.24C26.6199 11.19 26.6999 10.82 26.7299 10.75C26.7199 10.31 26.7699 10.19 26.7599 9.76C26.6999 9.55 26.69 9.13 26.7 8.66C26.65 8.47 26.62 8.2 26.61 7.85C26.64 7.88 26.65 8 26.7 7.96C26.69 7.38 26.7099 6.67 26.7599 6.27C26.7299 6.23 26.71 6.14 26.71 5.97C26.81 5.59 26.69 5.43 26.74 4.98C26.7 4.77 26.69 4.42 26.65 4.17C26.64 3.82 26.69 3.23 26.61 3.17C26.56 3.41 26.6 4 26.55 4.26C26.55 4.52 26.64 4.42 26.64 4.67C26.57 4.68 26.54 4.91 26.49 5.05C26.49 5.47 26.6399 5.31 26.6299 5.76C26.5199 5.72 26.53 6.2 26.42 6.13C26.39 6.07 26.3599 5.97 26.3499 5.82C26.4299 5.47 26.35 5.26 26.33 4.82C26.43 4.9 26.38 4.31 26.45 4.24C26.44 3.51 26.5699 2.66 26.4099 2.44C26.3399 2.82 26.48 3.77 26.33 3.93C26.33 3.37 26.3899 3.07 26.2899 2.83C26.2999 2.6 26.3399 2.33 26.2899 2.13C26.3299 2.08 26.3899 2.09 26.4099 1.95C26.3999 1.92 26.3899 1.88 26.3799 1.84L26.06 2.16C26.28 2.12 26.6 2.15 26.86 2.13C26.96 2.06 26.71 2.06 26.68 2.01C27.1 2.04 26.9599 1.93 27.1899 1.92C27.3799 2.04 27.4699 1.89 27.7899 1.9C27.7999 2 28.4 1.98 28.06 2.09C28.27 2.11 28.75 2.11 29.05 2.17C29.21 2.15 29.21 2.1 29.46 2.1C29.47 2.13 29.48 2.16 29.65 2.15C29.55 2.06 28.9999 2.07 28.9799 1.96C28.8099 1.94 28.5599 2.03 28.4799 1.96C28.6499 1.91 28.92 1.96 29.18 1.94C29.29 1.93 29.38 1.89 29.49 1.9C29.69 1.9 29.6799 1.97 29.8799 1.95C29.9699 1.92 30.0399 1.88 30.2899 1.88C30.6799 1.92 31.2399 1.88 31.6899 1.87C31.6899 1.96 32.2899 1.92 32.4799 1.97C32.4999 1.95 32.49 1.92 32.58 1.92C33.03 1.9 33.57 1.91 33.59 1.78C33.23 1.78 32.9 1.78 33 1.68C33.5 1.66 33.52 1.76 33.89 1.71C33.91 1.74 34.05 1.75 34.08 1.78C34.46 1.76 34.55 1.81 34.87 1.81C35.28 1.8 36.39 1.76 36.86 1.85C37.14 1.84 37.3799 1.82 37.6599 1.81C38.3399 1.86 39.3999 1.78 40.3499 1.85C40.4799 1.82 40.7 1.81 40.95 1.81C42.47 1.85 43.93 1.82 45.83 1.82C46.06 1.87 46.25 1.87 46.52 1.87C46.67 1.87 46.9 1.84 47.02 1.85C47.18 1.86 47.1799 1.91 47.4099 1.9C47.8099 1.85 48.22 1.8 48.92 1.82C49.15 1.83 49.0899 1.9 49.4099 1.89C50.0499 1.93 50.44 1.86 50.81 1.85C51 1.85 51.03 1.87 51.2 1.88C51.45 1.88 51.75 1.82 52 1.89C51.95 2.01 51.29 1.97 50.99 2.02C51.1 1.93 50.71 1.94 50.5 1.92C50.14 1.93 49.97 2 49.59 2.01C49.2 1.9 48.6499 2.03 48.2899 2.07C48.2599 2.04 48.15 2.02 48.2 1.98C47.52 2.01 47.02 1.88 46.71 1.97V1.92C46.27 1.96 46.19 1.97 45.71 2.01C45.59 2.07 45.4399 2.12 45.1899 2.15C45.0099 2.15 45.05 2.09 44.7 2.08C44.64 2.13 44.4999 2.16 44.2899 2.17C44.0999 2.09 44.1299 2.16 43.7899 2.17C43.8699 2.13 43.6 2.07 43.59 2.12C43.79 2.11 43.5599 2.19 43.4799 2.19C43.1099 2.21 42.5099 2.17 42.7899 2.11C43.0699 2.11 42.9699 2.19 43.3799 2.16L43.4 2.02C42.81 2.05 42.4199 2.01 41.9099 1.94C41.9199 2.06 41.3 2.03 41.39 2.17C41.88 2.18 42.05 2.08 42.39 2.18C42.25 2.39 40.98 2.17 40.77 2.36C41.31 2.39 41.73 2.41 42.25 2.44C42.99 2.42 43.72 2.29 44.55 2.36C44.64 2.33 44.87 2.33 45.05 2.32C45.69 2.36 46.33 2.41 46.93 2.45C46.91 2.39 46.98 2.35 47.24 2.36C47.47 2.47 47.92 2.36 48.24 2.34C48.53 2.35 48.54 2.43 48.93 2.42C49.12 2.4 49.3399 2.39 49.4399 2.35C50.5899 2.32 51.6799 2.38 53.2299 2.35C53.3599 2.27 54.1899 2.3 54.3199 2.36C54.2499 2.27 54.79 2.33 55.02 2.32C55.21 2.33 55.2699 2.37 55.5099 2.37C55.7599 2.38 55.8199 2.34 56.0099 2.33C56.1999 2.38 56.74 2.29 57 2.36C57.04 2.33 57.13 2.31 57.3 2.32C57.37 2.4 57.85 2.32 58.09 2.4C58.47 2.37 59.11 2.31 59.39 2.39C59.63 2.4 59.61 2.35 59.89 2.37C60.12 2.37 60.1799 2.41 60.4799 2.4C60.6799 2.4 60.6099 2.34 60.8799 2.36C61.8299 2.44 62.41 2.36 63.46 2.42C64.05 2.38 64.4699 2.41 64.8499 2.45C64.9799 2.44 65.04 2.42 65.25 2.43C65.57 2.44 65.6599 2.51 66.0399 2.51C66.2099 2.49 66.36 2.47 66.53 2.44L65.9799 1.89C65.9899 1.98 66 2.08 66 2.2C66.01 2.65 65.95 2.83 65.95 3.24C66 4.6 65.9499 5.32 66.0699 6.43C66.1799 6.44 66.1699 6.94 66.2899 6.93L66.3 6.9V7.4C66.17 7.23 66.18 7.74 66.11 7.87C66.12 8.2 66.15 8.43 66.2 8.6C66.17 8.77 66.2 8.72 66.2 8.99C66.15 8.92 66.1199 8.95 66.0999 9.01C66.1199 9.28 66.0699 9.33 66.0699 9.55C66.0699 9.89 66.1299 10.31 66.1299 10.64C66.1299 10.86 66.0999 10.95 66.0999 11.18C66.1499 11.59 66.15 11.93 66.14 12.26L66.7299 12.85C66.7299 12.82 66.73 12.79 66.72 12.75C66.77 12.45 66.6799 12.32 66.7299 12.05C66.7799 12.13 66.75 12.57 66.75 12.88L66.81 12.94C66.8 12.84 66.7999 12.75 66.7899 12.63C66.8199 12.5 66.79 12.11 66.81 11.72C66.81 11.58 66.78 11.6 66.78 11.48C66.82 11.19 66.7799 9.97 66.7599 9.31C66.7999 9.05 66.85 8.46 66.75 8.28C66.75 8.51 66.73 8.59 66.68 8.54C66.67 8.25 66.6099 7.57 66.6899 7.53C66.7399 7.63 66.69 8.11 66.77 8.08C66.83 7.74 66.7199 7.07 66.7899 6.66C66.7299 6.42 66.7 6.05 66.67 5.71L66.7 5.63C66.61 4.79 66.74 3.25 66.7 1.88L66.6899 1.68L66.5099 1.69C66.4399 1.69 66.38 1.7 66.31 1.7C66 1.66 65.37 1.68 65.02 1.64C64.77 1.63 64.71 1.67 64.52 1.68C64.11 1.6 63.5599 1.69 63.2299 1.6C62.8299 1.71 61.96 1.58 61.43 1.64C61.15 1.61 60.73 1.6 60.43 1.63C60.38 1.57 60.06 1.57 59.84 1.55C59.17 1.56 58.92 1.62 58.45 1.54C58.41 1.57 58.32 1.59 58.14 1.59C58.06 1.55 58 1.51 57.75 1.52C57.11 1.58 56.79 1.57 56.05 1.6C55.87 1.57 55.28 1.6 55.17 1.5C54.82 1.48 54.92 1.58 54.56 1.57C54.45 1.48 53.6499 1.54 53.4799 1.47C53.4099 1.55 52.41 1.57 52.28 1.49C52.43 1.46 52.5899 1.42 52.7899 1.4C53.7499 1.41 53.96 1.37 54.68 1.41C54.83 1.39 54.94 1.38 55.08 1.37C55.39 1.4 55.5 1.38 55.87 1.42C56.29 1.41 56.5399 1.44 56.7599 1.47C56.8999 1.41 57.3 1.43 57.56 1.45C57.66 1.4 57.9499 1.4 58.2599 1.41C58.4499 1.41 58.32 1.49 58.55 1.48C58.82 1.45 59.24 1.46 59.65 1.49C60.12 1.43 60.84 1.43 61.45 1.41C62.1 1.43 62.65 1.46 62.95 1.35C62.97 1.37 62.9499 1.4 63.0399 1.4C63.0999 1.4 63.16 1.4 63.14 1.38C63.05 1.32 62.5199 1.35 62.3499 1.3C62.5599 1.25 62.06 1.23 62.46 1.18C62.64 1.21 62.93 1.21 63.15 1.23C63.31 1.21 63.31 1.16 63.56 1.16C63.88 1.14 63.86 1.2 64.05 1.21C64.18 1.15 64.57 1.21 64.75 1.21C65.15 1.1 65.7199 1.11 66.4799 1.12L67.25 1.14L67.2299 1.87C67.2299 1.92 67.2299 1.99 67.2299 2.05C67.2599 2.36 67.2699 2.65 67.2599 2.94C67.2299 2.84 67.21 2.75 67.18 2.65C67.2 2.83 67.1299 3.1 67.1299 2.85C67.0899 2.85 67.11 3.19 67.06 3.15L66.97 3.13L66.96 3.75C67.03 3.86 67.04 4.17 67.12 4C67.22 4.49 67.1399 5.71 67.1899 6.34C67.1999 6.67 67.14 6.63 67.15 6.96C67.16 7.26 67.19 7.43 67.2 7.73C67.15 8.2 67.19 9.05 67.2 9.55C67.19 10.07 67.1299 10.76 67.1599 11.13C67.1999 11.29 67.26 10.89 67.27 11.23C67.42 11.53 67.3599 11.51 67.3199 11.61ZM59.74 13.49C59.73 13.51 59.64 13.5 59.64 13.49C59.64 13.47 59.73 13.48 59.74 13.49ZM66.21 12.51L66.27 12.58C65.96 12.59 65.94 12.55 65.74 12.54C65.81 12.52 65.96 12.51 66.21 12.51ZM66.55 12.68C66.31 12.75 65.98 12.71 65.49 12.73C65.45 12.7 65.5799 12.69 65.5399 12.66C65.8999 12.69 66.14 12.65 66.55 12.68ZM64.2299 12.52C64.4099 12.52 64.46 12.54 64.64 12.54C64.95 12.54 64.88 12.49 65.31 12.51C65.48 12.56 65.4399 12.58 65.2899 12.61C64.7599 12.57 64.17 12.57 63.59 12.6C63.6 12.54 64.0899 12.56 64.2299 12.52ZM64.1299 12.78C63.9299 12.79 63.86 12.77 63.72 12.76C63.66 12.73 64.2499 12.73 64.1299 12.78ZM62.52 12.49C62.91 12.5 63.3099 12.51 63.3799 12.58C63.1299 12.58 63.05 12.61 62.92 12.63C62.53 12.65 62.5799 12.58 62.1899 12.59C62.0699 12.52 62.58 12.56 62.52 12.49ZM62.3199 12.78C62.3299 12.8 62.2099 12.79 62.1299 12.8C62.1199 12.78 62.2399 12.78 62.3199 12.78ZM61.49 12.59C61.55 12.6 61.43 12.61 61.4 12.61C61.35 12.6 61.46 12.59 61.49 12.59ZM61.65 12.83C61.43 12.89 61.35 12.74 61.65 12.83V12.83ZM60.9 12.61C60.96 12.62 60.84 12.63 60.81 12.63C60.76 12.62 60.87 12.6 60.9 12.61ZM57.15 11.96C57.21 11.97 57.09 11.98 57.06 11.98C57 11.96 57.12 11.95 57.15 11.96ZM44.65 13.47C44.14 13.56 44.23 13.35 44.65 13.47V13.47ZM44.87 13.53C44.87 13.51 44.9899 13.51 45.0699 13.51C45.0699 13.53 44.94 13.53 44.87 13.53ZM45.47 13.51C45.48 13.49 45.5699 13.5 45.5699 13.51C45.5599 13.54 45.47 13.52 45.47 13.51ZM54.9 13.62C54.43 13.57 54.0699 13.67 53.4799 13.65C53.3899 13.66 53.3099 13.67 53.2899 13.69C52.7699 13.65 52.05 13.66 51.43 13.64C51.18 13.64 51.0099 13.65 50.9399 13.68C50.6199 13.63 49.97 13.66 49.68 13.6C49.21 13.68 48.7 13.64 48.18 13.71C47.98 13.7 47.9799 13.65 47.6599 13.67C47.4799 13.63 47.6599 13.64 47.6299 13.58C46.8499 13.61 46.67 13.49 46.09 13.54C45.98 13.45 46.71 13.53 46.78 13.47C47.22 13.46 47.6599 13.52 48.0999 13.47C48.3099 13.48 48.32 13.53 48.53 13.53C48.8 13.51 49.59 13.48 49.96 13.55C50.55 13.47 51.41 13.56 51.97 13.48C52.29 13.46 52.2 13.53 52.4 13.54C52.64 13.53 52.8299 13.52 52.8799 13.48C53.0899 13.51 53.38 13.52 53.62 13.54C53.96 13.51 54.5399 13.52 55.0399 13.51C55.2299 13.51 55.39 13.52 55.47 13.55C55.7 13.56 55.76 13.49 55.78 13.57C55.43 13.58 54.99 13.57 54.9 13.62ZM55.4399 13.26C55.4799 13.23 55.54 13.26 55.55 13.28C55.51 13.31 55.4399 13.28 55.4399 13.26ZM57.17 13.47C57.41 13.48 57.48 13.53 57.72 13.54C57.48 13.6 57.15 13.57 56.71 13.57C56.67 13.5 57.22 13.53 57.17 13.47ZM56.59 13.53C56.39 13.63 56.04 13.48 56.59 13.53V13.53ZM60.59 12.59C60.56 12.62 60.5 12.59 60.39 12.59C60.4 12.57 60.58 12.57 60.59 12.59ZM51.58 12.02C51.27 12.03 51.2599 11.98 51.0699 11.97C51.0799 11.94 51.62 11.97 51.58 12.02ZM51.18 12C51.41 12.1 51.11 12.11 50.93 12.12C50.69 12.11 50.68 12.04 50.58 11.99L51.18 12ZM44.5 12.85C44.85 12.9 45.37 12.9 45.81 12.88C45.99 12.92 45.81 12.91 45.83 12.97C46.28 12.95 46.57 12.9 46.8 12.84C47.21 12.88 48.29 12.9 48.39 12.8C48.65 12.89 48.8999 12.74 49.0099 12.87C49.1999 12.86 49.25 12.83 49.5 12.83C49.45 12.89 49.72 12.87 49.83 12.89C50.14 12.89 50.52 12.81 50.83 12.87C51.03 12.86 51.01 12.81 51.21 12.81C51.67 12.86 52.05 12.76 52.42 12.83C53.07 12.78 54.0899 12.78 54.7599 12.7C54.9799 12.69 55.14 12.71 55.18 12.74C55.46 12.69 55.83 12.76 56.28 12.74L56.3 12.78C56.68 12.73 57.1499 12.78 57.4799 12.74C57.6499 12.74 57.75 12.75 57.8 12.78C57.93 12.77 57.94 12.75 58.08 12.74C58.61 12.77 59.0999 12.74 59.5699 12.73C60.1199 12.79 60.2 12.71 60.7 12.77C60.75 12.87 59.95 12.91 59.45 12.86C59.36 12.93 58.34 12.94 58.05 12.88C57.8 12.95 57.22 12.96 57.03 13.03C56.69 13.05 56.58 13.01 56.49 12.97C56.03 13.01 55.74 13.08 55.12 13.05C55.02 13.05 55.0499 13.07 55.0399 13.09C54.6699 13.08 54.79 13.08 54.43 13.07C54.38 13.03 54.4199 13.01 54.5999 13.01C54.1799 12.96 54.0899 12.96 53.6599 12.93C53.4499 12.92 53.3499 12.93 53.3799 12.97C53.1299 12.92 53.04 12.94 52.67 12.95C52.71 13 51.93 13.06 52.42 13.07C52.4 13.12 51.9599 13.09 52.0999 13.03C51.8599 13.11 51.41 12.99 51 13.05C50.75 13.05 50.6799 13.02 50.4799 13.01C50.2999 13.03 50 13.03 50.11 13.12C49.78 13.13 49.3899 13.17 49.1899 13.1C48.7899 13.16 48.17 13.09 47.68 13.1C47.54 13.04 47.63 13.03 47.74 12.97C47.58 12.89 47.41 12.96 47.12 12.92C46.69 12.93 46.61 13.02 46.14 13.03C46.02 13.04 45.94 13.06 45.96 13.1C45.75 13.09 45.7 13.11 45.56 13.12C45.26 13.12 45.1999 13.06 44.9399 13.05C44.4999 13.07 44.34 13.11 43.84 13.07C44.19 13.02 44.31 12.93 44.5 12.85ZM44.14 13.47C44.07 13.51 43.8 13.55 43.64 13.51C43.72 13.48 43.89 13.46 44.14 13.47ZM43.5099 13.4L43.53 13.47C43.24 13.5 43.2099 13.37 43.5099 13.4ZM42.72 13.47L42.7299 13.54C42.5599 13.58 41.9899 13.57 42.0099 13.49C41.7499 13.51 41.39 13.52 41 13.51C41.29 13.4 42.18 13.41 42.72 13.47ZM36.6299 13.57C35.7999 13.5 35.52 13.64 34.7 13.63C34.74 13.59 34.62 13.59 34.5 13.58C34.61 13.48 35.1399 13.49 35.5099 13.47C35.5999 13.46 35.77 13.43 35.81 13.43C36.08 13.42 36.44 13.46 36.72 13.43C36.74 13.47 37.0599 13.45 37.1299 13.48C37.2099 13.57 36.7799 13.54 36.6299 13.57ZM37.24 13.53C37.28 13.5 37.3299 13.53 37.4399 13.53C37.4199 13.56 37.24 13.55 37.24 13.53ZM38.1599 13.6C38.1199 13.51 38.3999 13.5 38.6599 13.49C38.7099 13.51 38.75 13.53 38.87 13.54C38.8 13.59 38.5499 13.61 38.1599 13.6ZM35.08 12.77C35.44 12.72 35.5699 12.76 35.8799 12.71C36.4099 12.76 36.5499 12.63 36.9799 12.74C37.8999 12.66 39.0599 12.74 40.0699 12.71L40.09 12.82C39.73 12.81 39.58 12.84 39.5 12.89C39.26 12.89 39.2 12.85 38.89 12.86C38.75 12.87 38.6499 12.89 38.5999 12.93C38.2199 12.95 38.28 12.86 37.99 12.86C37.22 12.9 36.32 12.92 35.68 12.82C35.48 12.82 35.55 12.88 35.28 12.86C35.03 12.8 34.2099 12.87 34.0699 12.78C34.3099 12.76 34.83 12.73 35.08 12.77ZM33.08 13.54C33.56 13.52 33.73 13.58 34.2 13.57C34.21 13.7 33.28 13.61 33.08 13.68C32.7 13.69 32.48 13.66 32.47 13.58C32.82 13.63 32.8 13.56 33.08 13.54ZM30.4399 13.52C30.4099 13.55 30.24 13.54 30.24 13.52C30.33 13.51 30.4199 13.49 30.4399 13.52ZM30.2299 13.57C30.5399 13.6 31 13.56 31.55 13.58C31.78 13.57 32.16 13.54 32.36 13.58C32.27 13.62 31.95 13.61 32.05 13.7C31.56 13.74 31.44 13.74 30.83 13.72V13.67C30.4 13.67 30.12 13.63 29.61 13.64C29.53 13.54 30.1599 13.62 30.2299 13.57ZM28.31 13.58C28.77 13.56 28.88 13.62 29.22 13.63C28.89 13.7 28.59 13.74 27.99 13.69C27.98 13.63 28.3 13.64 28.31 13.58ZM33.58 0.56C34 0.54 34.28 0.56 34.68 0.5L34.6899 0.43C34.9999 0.42 34.95 0.5 35.18 0.5C35.11 0.57 34.97 0.48 34.78 0.5C34.84 0.57 34.84 0.55 34.77 0.62C34.47 0.6 34.47 0.66 34.17 0.64C34.28 0.55 33.25 0.67 33.08 0.59C32.93 0.51 33.6 0.52 33.58 0.56ZM31.58 0.57C31.78 0.56 31.89 0.58 31.87 0.62H31.5699L31.58 0.57ZM29.25 1.71C29.34 1.68 29.58 1.68 29.75 1.67C29.6 1.7 29.48 1.77 29.25 1.71ZM31.15 1.68C30.87 1.69 31.07 1.59 30.86 1.58C31.03 1.54 31.65 1.59 31.65 1.66C31.36 1.69 31.12 1.58 31.15 1.68ZM31.75 1.66V1.61C31.95 1.6 32.0599 1.62 32.0399 1.66H31.75ZM32.5399 1.71C32.3999 1.69 32.23 1.67 32.25 1.61C32.59 1.57 32.5899 1.63 32.9399 1.64C32.9099 1.69 32.5099 1.65 32.5399 1.71ZM34.8199 0.97C34.7799 1.04 34.65 1.09 34.5 1.13C34.29 1.06 34.1 1.12 33.61 1.1C33.25 1.13 32.98 1.08 32.61 1.14C32.55 1.1 32.14 1.14 32.12 1.09C31.56 1.13 31.25 1.13 30.42 1.13C30.16 1.12 29.74 1.2 29.62 1.15C29.52 1.15 29.5399 1.18 29.5099 1.2C29.3999 1.2 29.43 1.16 29.42 1.13C29.15 1.14 28.91 1.16 28.71 1.2C28.05 1.2 27.6799 1.18 27.4099 1.24C27.1799 1.25 27.03 1.23 26.92 1.21C26.8 1.21 26.83 1.25 26.81 1.28C26.58 1.27 26.3799 1.25 26.3199 1.21C26.1999 1.22 26.06 1.25 26.22 1.26L26.12 1.27L25.52 1.31L25.55 1.83C25.6 2.54 25.54 3.19 25.55 3.72C25.51 3.76 25.53 4.03 25.45 3.91C25.44 4.11 25.45 4.22 25.5 4.21C25.48 4.35 25.46 4.52 25.4 4.5C25.38 4.13 25.38 3.67 25.31 3.49C25.21 4.11 25.35 4.86 25.27 5.38C25.2 5.45 25.22 5.18 25.18 5.17C25.09 5.33 25.15 5.67 25.17 5.97C25.18 6.12 25.1 6.61 25.21 6.67C25.27 6.59 25.19 6.3 25.17 6.27C25.26 6.13 25.22 6.03 25.24 5.68C25.3 5.92 25.35 5.93 25.4 6C25.32 6.15 25.3599 6.54 25.3199 6.69C25.3499 6.84 25.4 6.89 25.46 6.91C25.44 7.22 25.39 7.07 25.37 6.9C25.34 7.04 25.35 7.21 25.42 7.2C25.42 7.32 25.3799 7.28 25.3499 7.29C25.3399 7.52 25.42 7.41 25.42 7.6C25.41 7.85 25.38 8.05 25.34 8.19C25.38 8.44 25.37 8.91 25.4 9.19C25.41 9.46 25.35 9.38 25.33 9.48C25.36 9.91 25.3 10.52 25.3 11.07C25.3 11.19 25.34 11.16 25.37 11.18C25.31 11.69 25.33 12.18 25.24 12.58L25.09 13.21L26.0999 13.45L26.17 13.47C26.3 13.47 26.4399 13.47 26.5699 13.47L26.56 13.54C26.92 13.5 26.9399 13.57 27.2599 13.59C27.1199 13.68 26.54 13.66 26.08 13.67L25.02 13.7L24.99 12.58C24.99 12.44 24.98 12.32 24.97 12.23C25 11.83 24.9699 11.83 24.9799 11.33C25.0299 10.58 25.01 10.01 24.95 9.43C24.97 8.84 24.97 8.56 24.89 8.23C24.91 7.78 24.9099 7.02 24.8499 6.63C24.9299 6.19 24.84 5.73 24.93 5.14C24.9 4.93 24.87 4.74 24.84 4.53C24.9 4.23 24.8299 3.97 24.8499 3.74C24.8499 3.67 24.92 3.64 24.9 3.45C24.88 3.2 24.88 2.87 24.81 2.84C24.83 2.55 24.83 2.54 24.81 2.24L24.86 2.25C24.85 2.1 24.84 1.96 24.83 1.84L24.74 0.63L26.0999 0.58C26.4599 0.57 26.79 0.58 27.28 0.62C28.22 0.55 28.7499 0.6 29.5699 0.61C29.7399 0.62 29.76 0.59 29.77 0.56C29.91 0.61 30.42 0.57 30.56 0.61C30.63 0.56 31.1499 0.63 31.0699 0.54C31.3099 0.56 31.43 0.61 31.55 0.66C31.46 0.72 31.1 0.71 31.14 0.8C31.06 0.78 30.8699 0.78 30.8499 0.75C30.4899 0.82 30.0799 0.86 29.4399 0.86C29.4499 0.79 29.2599 0.78 29.1599 0.69C28.8599 0.69 29.02 0.8 28.84 0.83C28.52 0.85 28.5299 0.79 28.3499 0.78C27.6999 0.79 27.58 0.79 27.05 0.79C27.22 0.85 27.2099 0.95 27.3199 1.03C27.5399 0.92 28.46 1.1 28.72 0.97C29.13 1.05 29.7 0.92 30.02 0.98C30.14 0.97 30.2299 0.95 30.2299 0.91C30.8099 1.02 31.63 0.81 32.22 0.95C32.45 0.96 32.34 0.88 32.53 0.88C33.04 0.93 33.56 0.9 33.64 0.77C34.12 0.77 34.4299 0.76 35.0399 0.76C35.0199 0.78 34.9399 0.78 34.9399 0.81C35.2999 0.76 35.4199 0.81 35.7299 0.84C35.6199 0.91 35.1999 0.94 34.8199 0.97ZM37.24 0.8C36.73 0.75 36.34 0.82 35.84 0.84C36.01 0.72 36.2799 0.74 36.8499 0.75C37.0499 0.75 36.98 0.69 37.25 0.71L37.24 0.8ZM37.64 0.75C37.59 0.74 37.72 0.72 37.74 0.73C37.79 0.74 37.67 0.76 37.64 0.75ZM39.46 0.51C38.77 0.45 38.61 0.54 37.96 0.55C37.85 0.52 37.68 0.5 37.78 0.43C37.54 0.4 37.36 0.5 37.28 0.43C37.13 0.44 37.32 0.46 37.27 0.5C36.83 0.51 36.3999 0.52 36.0699 0.56C36.0899 0.52 35.9499 0.51 35.9799 0.46C36.3899 0.5 36.93 0.38 37.39 0.35C37.7 0.34 37.74 0.39 38.09 0.38C38.8 0.32 39.29 0.34 40.08 0.39C40 0.46 39.61 0.46 39.46 0.51ZM40.47 0.44C40.55 0.36 40.9099 0.34 41.3799 0.35C41.2199 0.42 40.85 0.43 40.47 0.44ZM41.68 0.33C41.8 0.34 41.88 0.36 41.87 0.4C41.52 0.42 41.53 0.37 41.68 0.33ZM43.2599 0.39C43.0899 0.4 42.8299 0.4 42.6599 0.41C42.4399 0.41 42.49 0.34 42.06 0.38C42.21 0.32 42.87 0.29 43.06 0.32C43.3 0.3 43.4999 0.29 43.7599 0.35C43.7099 0.43 43.4699 0.39 43.2599 0.39ZM44.06 0.37C44.01 0.36 44.1399 0.34 44.1599 0.35C44.2099 0.36 44.09 0.38 44.06 0.37ZM45.84 2.13H45.64L45.65 2.08H45.8499L45.84 2.13ZM45.9399 2.13C45.9599 2.11 46.0399 2.11 46.0399 2.08C46.1599 2.09 46.2399 2.11 46.2299 2.15C46.0799 2.17 46.0699 2.14 45.9399 2.13ZM66.81 7.26C66.76 7.55 66.76 6.83 66.75 6.62C66.85 6.66 66.77 7.26 66.81 7.26ZM51.61 1.42C51.69 1.33 52.1499 1.4 52.0999 1.47C51.8499 1.47 51.8 1.43 51.61 1.42ZM58.9099 1.23H58.71C58.71 1.21 58.71 1.2 58.72 1.18H58.92L58.9099 1.23ZM58.7899 0.59C58.3399 0.51 57.5699 0.59 57.0999 0.51C56.7999 0.52 56.6 0.55 56.49 0.6C55.82 0.56 55.26 0.61 54.71 0.52C54.6 0.52 54.6399 0.57 54.5099 0.57C53.9799 0.57 53.36 0.6 53.12 0.49C52.67 0.54 51.76 0.55 51.53 0.43C51.09 0.55 49.73 0.49 49.14 0.44C49.29 0.35 48.87 0.39 48.95 0.32C48.71 0.33 48.36 0.43 48.15 0.36C47.8 0.4 47.5899 0.46 47.0399 0.45C47.0199 0.39 47.4899 0.34 47.1599 0.29C47.8299 0.26 48.6 0.28 49.25 0.3C49.5 0.3 49.6399 0.27 49.6599 0.21C49.8399 0.26 49.8399 0.2 50.1599 0.21C50.4399 0.3 50.9999 0.33 51.5399 0.36C51.7699 0.34 52.04 0.32 52.25 0.29C52.87 0.31 53.66 0.3 54.03 0.37C54.23 0.32 54.6 0.36 54.83 0.38C55.7 0.38 56.3199 0.36 57.0099 0.47C57.8499 0.45 58.76 0.53 59.59 0.53C59.43 0.61 59.1099 0.53 58.7899 0.59ZM60.09 0.55C60.04 0.54 60.1699 0.52 60.1899 0.53C60.2399 0.54 60.11 0.56 60.09 0.55ZM60.31 1.17C60.33 1.14 60.5 1.15 60.61 1.15C60.59 1.17 60.43 1.17 60.31 1.17ZM60.9799 0.56C61.1499 0.52 61.6099 0.54 61.5699 0.61C61.3699 0.59 60.8799 0.64 60.9799 0.56ZM62.11 1.11C62.23 1.12 62.31 1.14 62.3 1.18C62.18 1.17 62.1 1.15 62.11 1.11ZM67.45 10.86C67.47 10.9 67.46 10.98 67.45 10.96C67.42 10.93 67.43 10.85 67.45 10.86ZM66 11.36C66.02 11.37 66.04 11.38 66.03 11.21C65.96 10.97 65.9199 11.2 65.8799 11.33C65.8899 11.51 65.9 11.68 65.9 11.85L66.09 12.04C66.08 11.78 66.05 11.54 66 11.36Z" fill="#1E1E1E"/><path d="M54.95 33.7109C55.03 33.7109 55.15 33.7109 55.15 33.6909C55.07 33.7009 54.95 33.6909 54.95 33.7109ZM55.03 33.8809C55.42 33.8009 56.1099 33.9509 56.2299 33.8209C55.8399 33.8009 54.8199 33.8209 54.5399 33.7809C54.5699 33.8409 54.79 33.8609 55.03 33.8809ZM58.02 33.8109C57.49 33.8809 57.5 33.7409 56.93 33.7609C57.08 33.8709 57.83 33.9209 58.02 33.8109ZM58.95 33.5309C58.92 33.5209 58.7999 33.5409 58.8499 33.5509C58.8799 33.5609 59 33.5409 58.95 33.5309ZM62.9399 33.5309C63.0399 33.5609 63.0199 33.6209 63.2299 33.6309C63.5499 33.5709 63.7199 33.6109 64.1299 33.5909C64.3199 33.6009 64 33.7209 64.22 33.6609C64.34 33.5809 64.94 33.5709 65.12 33.6409C65.17 33.5909 66.03 33.5109 65.92 33.6509C66.1 33.6609 66.22 33.6509 66.3 33.6409L65.87 34.0709C65.85 33.9209 65.8 33.8709 65.77 33.7409C65.75 33.5109 65.8199 32.9709 65.7299 33.0409C65.6499 33.4109 65.74 33.5609 65.7 34.0709L66.3 33.4709C66.28 33.4709 66.26 33.4709 66.24 33.4609C66.24 33.5009 66.16 33.5209 66.03 33.5309C66.01 33.5009 65.92 33.4909 65.84 33.4809C65.63 33.5509 65.33 33.4809 65.03 33.5509C64.9 33.5509 64.9 33.5209 64.74 33.5209C64.45 33.5709 63.88 33.6009 63.75 33.4909C63.24 33.5209 62.81 33.4709 62.55 33.5309C62.54 33.5009 62.57 33.4609 62.46 33.4609C62.41 33.5109 61.48 33.3709 61.75 33.5309C62.14 33.4609 62.4499 33.6009 62.9399 33.5309ZM62.92 33.6709C62.7 33.5509 62.66 33.7509 62.92 33.6709V33.6709ZM44.1899 23.9209C44.2199 23.9309 44.34 23.9109 44.28 23.9009C44.26 23.9009 44.1399 23.9109 44.1899 23.9209ZM65.71 33.7409C65.71 33.7009 65.73 33.6609 65.52 33.6709C65.51 33.7109 65.58 33.7309 65.71 33.7409ZM46.43 35.7809C46.46 35.7909 46.58 35.7709 46.53 35.7609C46.5 35.7509 46.38 35.7709 46.43 35.7809ZM41.47 24.9209C41.5 24.9309 41.61 24.9109 41.56 24.9009C41.53 24.8909 41.41 24.9109 41.47 24.9209ZM43.4099 23.9409C43.4799 24.0109 43.0899 23.9909 43.3499 24.0409C43.2699 24.0609 42.99 24.0409 43.08 24.1009C43.54 24.1709 43.63 24.0309 43.93 24.0109C44.14 24.0209 44.24 24.0009 44.2 23.9509C43.87 23.9109 43.8299 23.9509 43.4099 23.9409ZM61.52 33.7109C62.16 33.7609 62.03 33.6309 61.52 33.7109V33.7109ZM57.36 33.5609L57.3499 33.6509C57.6999 33.6309 58.0399 33.6109 58.2599 33.5609H57.36ZM55.95 33.6309C56.03 33.5709 55.7599 33.5809 55.7599 33.5309C55.3899 33.5409 54.8999 33.5309 54.7599 33.5909C55.0799 33.6209 55.23 33.5809 55.55 33.6709C55.57 33.6309 55.89 33.6609 55.95 33.6309ZM60.03 33.7209C60 33.7109 59.88 33.7309 59.93 33.7409C59.95 33.7509 60.08 33.7409 60.03 33.7209ZM59.65 33.5809C59.67 33.5109 59.1999 33.3909 59.1599 33.5309C59.4699 33.5109 59.46 33.5709 59.65 33.5809ZM60.5099 33.8709C61.1099 33.8509 61.56 33.9309 61.72 33.7809C61.24 33.6909 60.56 33.8009 60.22 33.7909C60.31 33.8209 60.5899 33.8109 60.5099 33.8709ZM61.05 33.5209C60.61 33.5009 60.7299 33.5109 60.3499 33.4909C60.2699 33.5909 59.8999 33.4609 59.8499 33.5609C60.2499 33.5609 60.34 33.6209 60.74 33.6109C60.66 33.5309 61.07 33.5809 61.05 33.5209ZM54.5399 35.4409C54.3899 35.4509 54.0299 35.4109 54.0399 35.4609H54.34C54.42 35.4509 54.5299 35.4609 54.5399 35.4409ZM26.7599 34.4409C26.4899 34.4409 26.56 34.4009 26.36 34.4409L26.3499 34.4909C26.5399 34.5309 26.48 34.4909 26.75 34.4909L26.7599 34.4409ZM26.14 34.6109C26.03 34.6109 25.9899 34.5709 25.9399 34.6109C25.9399 34.6309 26.11 34.6309 26.14 34.6109ZM67.12 32.8109C67.07 32.7009 67.0399 32.8009 66.9799 32.5909C66.9199 32.8809 66.91 32.8709 66.93 33.3809C66.99 33.2909 67.05 33.1809 67.12 33.1109V32.8109ZM25.86 34.4609C25.83 34.4609 25.8099 34.4709 25.7899 34.4709L25.5399 34.5609L25.39 34.0709C25.38 34.0509 25.3799 34.0409 25.3799 34.0709L25.37 34.5209L25.8 34.4909C25.81 34.4909 25.83 34.4909 25.87 34.4909C25.9 34.4909 25.94 34.4909 25.97 34.4909C26.08 34.4809 25.99 34.4509 25.86 34.4609ZM28.5399 34.5309C28.4599 34.5309 28.34 34.5309 28.34 34.5509C28.42 34.5409 28.5399 34.5509 28.5399 34.5309ZM28.74 34.5309V34.5809H28.9399L28.95 34.5309H28.74ZM63.09 33.9609C63.12 33.9709 63.2399 33.9509 63.1899 33.9409C63.1599 33.9309 63.04 33.9509 63.09 33.9609ZM54.8499 33.6909C54.6599 33.7009 54.4199 33.7009 54.4399 33.7609C54.6899 33.7609 54.7599 33.7209 54.8499 33.6909ZM62.7899 33.9609C62.8199 33.9709 62.94 33.9509 62.89 33.9409C62.87 33.9309 62.7399 33.9409 62.7899 33.9609ZM34.95 23.0009C34.89 22.9409 35.27 23.0509 35.24 22.9809C35.06 22.9709 34.63 22.9609 34.95 23.0009ZM52.64 33.8209C52.55 33.7809 52.3 33.7709 52.15 33.7509C52.2 33.9109 52.8099 33.8909 53.2299 33.9209C53.2899 33.8109 53.14 33.7409 52.86 33.7009C52.68 33.7109 52.85 33.8109 52.64 33.8209ZM61.84 35.2009C61.84 35.2209 62.0099 35.2309 62.0399 35.2009C62.0199 35.1809 61.93 35.1909 61.84 35.2009ZM53.87 33.5609C53.56 33.5709 53.6099 33.4909 53.3799 33.4909C53.3199 33.6109 53 33.4809 52.78 33.4909C52.5 33.6009 51.99 33.5309 51.67 33.6009C52.04 33.6309 52.24 33.7009 52.75 33.7009C52.95 33.6109 53.79 33.6809 53.87 33.5609ZM67.24 31.5209C67.28 31.2909 67.3 31.0509 67.24 30.8209C67.2 31.2309 67.18 31.3009 67.21 31.8109C67.15 31.9009 67.1299 32.6209 67.2299 32.6109C67.2999 32.3809 67.24 31.8209 67.24 31.5209ZM66.93 32.0909C66.91 32.0909 66.9 32.2609 66.93 32.2909C66.93 32.1709 66.97 32.1309 66.93 32.0909ZM67.15 27.6309V28.0309C67.23 28.0609 67.25 27.5709 67.15 27.6309ZM25.0999 24.2809C25.1099 24.0209 25.12 23.7809 25.14 23.6809C25.12 23.5109 25.11 23.3509 25.09 23.1909C25.11 22.9709 25.11 22.8209 25.11 22.6509L24.95 22.4909C24.94 22.5909 24.94 22.6809 24.93 22.7909C24.92 22.9309 24.95 22.9209 24.95 23.0409C24.89 23.3809 24.96 23.5609 24.93 24.0209C24.86 24.4609 24.92 24.9309 24.84 25.4809C24.86 25.5409 24.87 25.6509 24.86 25.8309C24.83 26.4109 24.85 26.8309 24.86 27.2509C24.8 27.7409 24.86 28.2109 24.77 28.5009C24.75 28.8109 24.8099 28.8609 24.7899 29.1609C24.7099 29.5409 24.73 30.0609 24.75 30.5709C24.72 30.6309 24.68 30.6709 24.64 30.7009C24.6 30.8909 24.5999 31.3609 24.5099 31.3109C24.5399 31.7109 24.49 31.5709 24.47 31.9609C24.58 32.3409 24.54 33.3609 24.58 34.0609L24.65 35.3309L25.75 35.2309C25.85 35.2209 25.94 35.2109 26.03 35.2109C26.2 35.2109 26.2799 35.2309 26.3199 35.2609C26.8399 35.2009 27.42 35.2609 28.12 35.2309C28.54 35.3109 29.09 35.2409 29.61 35.2909C29.69 35.3709 29.28 35.3209 29.3 35.3809C29.73 35.3809 29.6999 35.4909 30.2899 35.4609C30.4199 35.5009 30.6199 35.5209 30.8799 35.5409C31.0299 35.4709 31.25 35.5409 31.58 35.5009C31.89 35.4809 31.94 35.5309 32.18 35.5309C32.18 35.4909 32.26 35.4709 32.39 35.4609C32.5 35.5109 32.7699 35.5109 32.8799 35.5609C33.3999 35.5509 33.66 35.6009 33.97 35.6409C34.22 35.6509 34.28 35.6109 34.47 35.6009C34.52 35.6609 34.84 35.6509 35.06 35.6709C35.38 35.6309 35.48 35.6809 35.86 35.6509C36.25 35.7109 37.1 35.7609 37.65 35.7109C37.59 35.7809 38.1 35.7309 38.14 35.7809C38.43 35.7909 38.45 35.7309 38.74 35.7409C39.74 35.8709 41.0299 35.7509 41.9099 35.8609C42.1699 35.8509 42.22 35.7909 42.52 35.7909C42.68 35.8209 43.0999 35.7709 43.5099 35.8009C43.9499 35.8609 44.72 35.8209 45.2 35.8109C45.48 35.8209 45.98 35.9309 46.09 35.8409C46.05 35.7409 45.49 35.7609 45.52 35.6509C45.78 35.6509 46.0499 35.6509 46.3199 35.6509C46.6599 35.7609 46.81 35.7609 47.3 35.8209C47.93 35.7609 48.45 35.8309 49 35.7609C49.18 35.7809 49.36 35.8009 49.59 35.8109C49.77 35.7709 49.96 35.7409 50.3 35.7409C50.73 35.8009 50.93 35.7909 51.59 35.7709C51.94 35.8109 52.6299 35.7809 52.9799 35.8309C53.0399 35.7709 53.36 35.7809 53.58 35.7609C53.73 35.8009 54.26 35.7609 54.17 35.8609C54.6 35.8409 54.58 35.8709 54.96 35.8909C55.16 35.8809 55.16 35.8309 55.37 35.8209C55.58 35.8609 55.86 35.7609 56.37 35.8009C56.48 35.7809 56.41 35.7109 56.68 35.7309C56.64 35.8209 57.04 35.7209 57.27 35.7809C57.58 35.7409 58.0599 35.7409 58.3799 35.6909C58.6899 35.7309 59.32 35.7109 59.67 35.7509C59.93 35.6909 60.04 35.7309 60.37 35.7109C60.54 35.6509 60.66 35.5709 60.99 35.5509C61.07 35.6209 61.32 35.6409 61.47 35.6909C62.1 35.6609 62.87 35.6109 63.46 35.7009C63.88 35.6009 64.23 35.7309 64.75 35.7309C65.1 35.6309 65.66 35.6509 66.15 35.6909C66.2 35.6909 66.24 35.6909 66.28 35.6809L67.96 35.6109L67.9099 34.0409C67.8899 33.3109 67.92 32.7509 67.95 31.9809C67.94 31.7509 67.8699 31.7909 67.8799 31.4709C67.8699 31.2109 67.8699 30.4209 67.9099 30.0809C67.8199 29.4509 67.9599 28.5709 67.8799 27.8809C67.9299 27.8409 67.8899 27.3909 67.9099 27.1909C67.8599 26.5709 67.8999 25.8509 67.9399 25.5009C67.9199 25.2809 67.9 25.0409 67.87 24.7909C67.86 24.2309 67.86 23.7709 67.87 23.2809L67.89 21.7109L66.27 21.6809C65.93 21.6709 65.5699 21.6709 65.1599 21.6609C64.6499 21.6009 64.64 21.6209 64.03 21.6309C63.79 21.6209 63.65 21.5909 63.31 21.6009C63.03 21.6609 62.42 21.6409 61.87 21.6409C61.88 21.6109 61.82 21.5909 61.77 21.5709C61.05 21.5709 60.57 21.5209 59.92 21.5609C60.08 21.4509 59.5299 21.5109 59.4099 21.4609C59.4099 21.5309 59.22 21.5609 59 21.5809C58.32 21.5009 57.4099 21.6709 57.0399 21.5309C56.6799 21.5309 56.7 21.6109 56.43 21.6209C56.39 21.5709 55.9799 21.6009 55.9099 21.5509C55.4399 21.5909 55.54 21.6209 54.99 21.6209C54.69 21.6309 54.67 21.5709 54.37 21.5709C54.22 21.6009 54.11 21.6009 53.96 21.5709C53.95 21.6009 53.9299 21.6209 53.7599 21.6209C53.5099 21.6209 53.27 21.6209 53.14 21.6009C53.05 21.6309 52.99 21.6709 52.74 21.6709C52.69 21.6209 52.23 21.6609 52.02 21.6509C51.72 21.7109 51.5599 21.6809 51.0999 21.6809C50.8899 21.7209 50.81 21.7309 50.49 21.7009C50.29 21.7009 50.37 21.7609 50.09 21.7509C49.13 21.7209 48.57 21.8009 47.74 21.8509C46.95 21.8309 46.4499 21.8309 45.7899 21.8809C45.2299 21.8109 45.09 21.9109 44.45 21.8709C44.02 22.0009 43.5 21.9209 42.75 22.0109C42.83 21.9509 42.51 21.9709 42.33 21.9709C42.33 21.9009 41.9499 21.9209 41.7899 21.8909C41.7399 21.9709 41 21.9309 40.8 21.9809C40.65 21.9709 40.53 21.9609 40.37 21.9409C40.46 21.9909 40.17 21.9809 40.09 22.0109C39.77 21.9609 39.55 22.0309 39.28 22.0409C39.03 22.0209 39.01 22.0509 38.75 22.0009C38.77 22.0609 38.29 22.0509 38.15 22.0309C38.12 22.0609 38.04 22.0709 37.86 22.0709C37.23 22.0709 37.0099 22.0709 36.3199 22.0609C36.1299 22.0709 36.08 22.1109 35.83 22.1109C35.7 22.1109 35.6699 22.0909 35.5099 22.0909C35.2899 22.1309 35.26 22.1309 35 22.1009C34.7 22.1509 34.09 22.1509 33.71 22.1909C33.19 22.1909 33.23 22.1909 32.68 22.1809C32.43 22.2309 31.74 22.2209 31.5 22.2709C31.11 22.2309 30.59 22.2909 30.3 22.3209C29.9 22.2909 29.71 22.3509 29.31 22.3709C28.71 22.3909 28.31 22.3609 27.86 22.3509C27.56 22.4109 26.83 22.4109 26.36 22.4009C26.05 22.4409 25.56 22.4609 24.97 22.4709L25.1299 22.6309C25.2799 22.6209 25.46 22.6009 25.81 22.6109C26.06 22.5809 26.4799 22.5609 26.8799 22.5509C27.3199 22.5709 27.86 22.5609 28.24 22.5909C28.62 22.5609 28.93 22.5409 29.3 22.5109C29.57 22.5109 29.89 22.5009 29.93 22.5409C30.45 22.5009 30.67 22.5709 31.09 22.6109C31.11 22.5609 31.5599 22.5709 31.7599 22.5509C31.8899 22.5509 31.92 22.5709 32.08 22.5709C32.43 22.5209 33.5699 22.5709 33.7899 22.5409C33.6599 22.5409 33.55 22.5409 33.56 22.5009C33.91 22.4609 33.94 22.5209 34.2 22.5509C34.43 22.5409 34.65 22.5209 35 22.5309C35.45 22.5909 35.99 22.5109 36.27 22.6209C35.76 22.6309 35.67 22.7109 35.21 22.7209C34.83 22.6709 34.5 22.7409 34 22.7209C33.74 22.7809 33.2599 22.8009 32.8499 22.8409C32.7499 22.8009 32.54 22.8309 32.71 22.7809C32.39 22.7709 32.5199 22.8409 32.1299 22.8209C31.8899 22.8109 31.9 22.7609 31.59 22.7709C31.56 22.7909 31.51 22.8109 31.42 22.8309C31.02 22.8509 30.45 22.9109 30.15 22.8909C30.01 22.9209 29.8099 22.9409 29.5999 22.9609C29.1299 22.9209 28.66 23.0009 28.27 22.9309C28.13 22.9909 27.39 22.9509 27.22 23.0009C26.84 22.8909 26.34 23.0409 25.97 22.9509C25.81 22.9709 25.66 22.9909 25.49 23.0109L25.55 23.0709H25.56C25.72 23.0209 26.5399 22.9909 26.8499 23.0509C26.8899 23.1209 26.09 23.0709 25.77 23.0809C25.66 23.0809 25.6199 23.0809 25.5699 23.0909L26.1599 23.6809C26.3599 23.6909 26.57 23.7009 26.78 23.7109C26.93 23.6709 27.04 23.6609 27.24 23.6609C27.61 23.6609 28.18 23.6809 28.52 23.6609C29.04 23.6909 30.24 23.6509 30.92 23.7009C31 23.6809 31.16 23.6709 31.28 23.6509C31.54 23.7209 31.87 23.6709 32.17 23.6609C32.36 23.6809 32.48 23.7109 32.7 23.7209C33.01 23.7409 32.86 23.6709 33.17 23.6909C34.2 23.7209 35.78 23.6409 36.64 23.7309C36.72 23.6909 37.26 23.7309 37.52 23.7209C37.56 23.7009 37.5999 23.6809 37.6899 23.6609C38.1399 23.7209 38.58 23.6909 39.3 23.7209C39.43 23.7209 39.3699 23.6909 39.4799 23.6809C39.7899 23.7309 40.1099 23.7209 40.3799 23.7109C40.3199 23.8309 40.6 23.7409 40.62 23.8209C40.31 23.8309 40.39 23.7609 40.2 23.7509C40.39 23.8609 40.04 23.8109 39.84 23.8309C39.79 23.8309 39.8699 23.8909 39.6599 23.8709C39.3499 23.8809 39.26 23.8409 39.05 23.8209C39.09 23.8609 39 23.8809 38.78 23.8809C38.64 23.8609 38.47 23.8409 38.36 23.8109C37.97 23.8309 37.9799 23.8409 37.4799 23.8209C37.1599 23.8609 36.79 23.8909 36.67 23.9709C36.58 23.9109 36.1599 23.9209 35.9399 23.8809C35.8199 23.8809 35.82 23.9009 35.65 23.8909C35.51 23.8709 35.34 23.8509 35.22 23.8309C34.7 23.8409 34.72 23.7909 34.24 23.8409C33.93 23.8109 33.62 23.7909 33.34 23.8109L33.3 23.7509C33.07 23.7409 32.81 23.8409 32.71 23.7409C32.35 23.7309 32.51 23.8009 32.15 23.7909C31.97 23.7909 31.92 23.7709 31.74 23.7709C31.51 23.8109 30.9399 23.7809 30.6899 23.8109C30.5899 23.7409 30.3199 23.8209 30.0699 23.7709C29.5699 23.8309 28.7999 23.8009 28.3499 23.8309C27.9599 23.8409 27.7699 23.8109 27.4399 23.8009C27.3399 23.8309 27.07 23.8309 27 23.8609C26.75 23.8409 26.52 23.8309 26.31 23.8309L26.5 24.0209C26.83 24.0209 27.12 24.0209 27.31 24.0009C27.56 24.0709 27.98 24.0009 28.25 24.0809C28.6 24.0509 29.0999 24.0909 29.4399 24.1209C29.6399 24.1009 29.29 24.0809 29.5 24.0709C29.66 24.0709 29.59 24.1209 29.74 24.1309C29.82 24.0809 30.25 24.1409 30.43 24.1409C30.43 24.1209 30.38 24.0909 30.49 24.0909C30.74 24.1609 31.06 24.0909 31.4 24.1409C31.42 24.0609 32.16 24.1109 32.42 24.0709C32.39 24.0209 32.3899 23.9709 32.7599 23.9809C32.8299 24.0309 32.6 24.0209 32.72 24.0709C33.13 24.1109 32.7 23.9909 32.97 24.0009L33.3 24.0609C33.75 24.0309 34.2 24.0009 34.61 23.9709C34.83 23.9909 34.83 24.0509 35.15 24.0509C35.7 24.0109 36.4499 24.0209 37.0999 24.0409C37.1099 23.9909 37.1599 23.9609 37.3499 23.9509C37.5199 24.0009 37.9 24.0109 38.09 24.0609C37.94 23.9309 38.8399 24.0009 39.0099 23.9309C39.3499 23.9909 39.5599 23.9509 40.0999 23.9709C40.2899 23.9809 40.37 24.0209 40.61 24.0209C40.72 23.9309 41.33 23.9809 41.68 24.0109C41.68 23.9809 41.62 23.9309 41.75 23.9309C42 23.9509 42.04 23.9409 42.27 24.0009C42.61 23.9609 42.72 23.9909 43.03 23.9509C42.82 23.9309 42.5499 23.9209 42.5099 23.8609C43.1799 23.8609 42.43 23.8209 42.47 23.7509C42.62 23.7209 43.0499 23.7409 43.3499 23.7409C43.3999 23.8709 43.82 23.8009 44.28 23.8609C44.5 23.8309 44.4799 23.7609 44.7299 23.7409C44.8399 23.7709 44.91 23.8109 45.05 23.8309C45 23.7909 45.3399 23.8409 45.3499 23.8509L45.9399 23.8609C46.2599 23.9409 47.0099 23.9109 47.3499 23.9909C47.6899 23.9509 48.0899 24.0109 48.5399 24.0509C48.7999 24.0609 48.6 23.9609 48.92 23.9909C49.3 24.0609 48.9999 24.1709 49.1899 24.3009C49.4599 24.3509 49.6199 24.4209 49.9099 24.4709C50.1899 24.4409 50.72 24.4409 51.08 24.4909C51.47 24.5009 51.61 24.4609 52.05 24.4809C52.26 24.5009 52.35 24.5509 52.64 24.5609C52.58 24.4909 52.87 24.5009 53.02 24.4709C53.59 24.5009 53.72 24.4309 54.08 24.4109C54.39 24.4409 54.3399 24.4109 54.5699 24.4409C54.7699 24.3909 54.96 24.3409 55.34 24.3309C55.98 24.4109 56.34 24.2809 56.8 24.2509C57.06 24.2709 57.18 24.3209 57.39 24.3509C57.41 24.3309 57.55 24.3009 57.58 24.3309C57.9 24.3309 57.9099 24.2609 58.2599 24.2709C58.3499 24.4009 58.8 24.3109 59.24 24.3309C59.28 24.2609 59.4099 24.2209 59.6299 24.1909C60.3799 24.2409 60.4899 24.1209 61.0999 24.1309C61.1199 24.0909 61.17 24.0509 61.3 24.0409C61.86 24.1509 62.71 24.0609 63.17 24.0109C63.27 24.0409 63.26 24.1009 63.46 24.1109C63.62 24.0809 63.73 24.0309 63.96 24.0209C64.09 24.0509 64.39 24.0509 64.65 24.0509C64.97 24.0309 65.0799 24.0509 65.3499 23.9809C65.3599 24.0109 65.5 24.0109 65.64 24.0109C65.75 23.9609 66.0699 23.9809 66.2899 23.9409L65.67 23.3209C65.68 23.3809 65.69 23.4309 65.71 23.4709C65.71 23.7709 65.77 23.8209 65.78 24.0809C65.74 24.0909 65.81 24.4209 65.78 24.6809C65.75 24.6909 65.7399 24.5309 65.7299 24.6709C65.7699 24.7209 65.6899 25.0909 65.6599 25.1609C65.6699 25.6009 65.6199 25.7209 65.6299 26.1509C65.6899 26.3609 65.6999 26.7809 65.6899 27.2509C65.7399 27.4409 65.77 27.7109 65.78 28.0609C65.75 28.0309 65.7399 27.9109 65.6899 27.9509C65.6999 28.5309 65.6799 29.2409 65.6299 29.6409C65.6599 29.6809 65.68 29.7709 65.68 29.9409C65.59 30.3209 65.7 30.4809 65.65 30.9309C65.69 31.1409 65.7 31.4909 65.74 31.7409C65.75 32.0909 65.7 32.6809 65.78 32.7409C65.83 32.5009 65.79 31.9109 65.84 31.6509C65.84 31.3909 65.75 31.4909 65.75 31.2409C65.82 31.2309 65.85 31.0009 65.9 30.8609C65.9 30.4409 65.7499 30.6009 65.7599 30.1509C65.8699 30.1909 65.86 29.7109 65.97 29.7809C66 29.8409 66.0299 29.9409 66.0399 30.0909C65.9599 30.4409 66.04 30.6509 66.06 31.0909C65.96 31.0109 66.0099 31.6009 65.9399 31.6709C65.9499 32.4009 65.8199 33.2509 65.9799 33.4709C66.0499 33.0909 65.91 32.1409 66.06 31.9809C66.06 32.5409 65.9999 32.8409 66.0999 33.0809C66.0899 33.3109 66.0499 33.5809 66.0999 33.7809C66.0599 33.8309 65.9999 33.8209 65.9799 33.9609C65.9899 33.9909 65.9999 34.0309 66.0099 34.0709L66.33 33.7509C66.11 33.7909 65.79 33.7609 65.53 33.7809C65.44 33.8509 65.68 33.8509 65.71 33.9009C65.29 33.8709 65.43 33.9809 65.2 33.9909C65.01 33.8709 64.9199 34.0209 64.5999 34.0109C64.5899 33.9109 63.99 33.9309 64.33 33.8209C64.12 33.8009 63.64 33.8009 63.34 33.7409C63.18 33.7609 63.18 33.8109 62.93 33.8109C62.92 33.7809 62.91 33.7509 62.74 33.7609C62.84 33.8509 63.3899 33.8409 63.4099 33.9509C63.5799 33.9709 63.8299 33.8809 63.9099 33.9509C63.7399 34.0009 63.47 33.9509 63.21 33.9709C63.1 33.9809 63.0099 34.0209 62.9099 34.0109C62.7099 34.0109 62.72 33.9409 62.52 33.9609C62.43 33.9909 62.36 34.0309 62.11 34.0309C61.72 33.9909 61.16 34.0309 60.71 34.0409C60.71 33.9509 60.11 33.9909 59.92 33.9409C59.9 33.9609 59.9099 33.9909 59.8199 33.9909C59.3699 34.0109 58.83 34.0009 58.81 34.1309C59.17 34.1309 59.5 34.1309 59.4 34.2309C58.9 34.2509 58.8799 34.1509 58.5099 34.2009C58.4899 34.1709 58.3499 34.1609 58.3199 34.1309C57.9399 34.1509 57.85 34.1009 57.53 34.1009C57.12 34.1109 56.0099 34.1509 55.5399 34.0609C55.2599 34.0709 55.02 34.0909 54.74 34.1009C54.06 34.0509 53 34.1309 52.05 34.0609C51.92 34.0909 51.7 34.1009 51.45 34.1009C49.93 34.0609 48.4699 34.0909 46.5699 34.0909C46.3399 34.0409 46.1499 34.0409 45.8799 34.0409C45.7299 34.0409 45.4999 34.0709 45.3799 34.0609C45.2199 34.0509 45.22 34.0009 44.99 34.0109C44.59 34.0609 44.1799 34.1109 43.4799 34.0909C43.2499 34.0809 43.31 34.0109 42.99 34.0209C42.36 33.9809 41.96 34.0509 41.59 34.0609C41.4 34.0609 41.3699 34.0409 41.1899 34.0309C40.9399 34.0309 40.64 34.0909 40.39 34.0209C40.44 33.9009 41.1 33.9409 41.4 33.8909C41.29 33.9809 41.68 33.9709 41.89 33.9909C42.25 33.9809 42.42 33.9109 42.8 33.9009C43.19 34.0109 43.7399 33.8809 44.0999 33.8409C44.1299 33.8709 44.2399 33.8909 44.1899 33.9309C44.8699 33.9009 45.37 34.0309 45.68 33.9409V33.9909C46.12 33.9509 46.2 33.9409 46.68 33.9009C46.8 33.8409 46.95 33.7909 47.2 33.7609C47.38 33.7609 47.3399 33.8209 47.6899 33.8309C47.7499 33.7809 47.8899 33.7509 48.0999 33.7409C48.2899 33.8209 48.2599 33.7509 48.5999 33.7409C48.5199 33.7809 48.79 33.8409 48.8 33.7909C48.6 33.8009 48.8299 33.7209 48.9099 33.7209C49.2799 33.7009 49.8799 33.7409 49.5999 33.8009C49.3199 33.8009 49.4199 33.7209 49.0099 33.7509L48.99 33.8909C49.58 33.8609 49.97 33.9009 50.47 33.9709C50.46 33.8509 51.08 33.8809 50.99 33.7409C50.5 33.7309 50.33 33.8309 49.99 33.7309C50.12 33.5209 51.4 33.7409 51.61 33.5509C51.07 33.5209 50.65 33.5009 50.12 33.4709C49.38 33.4909 48.6499 33.6209 47.8199 33.5509C47.7299 33.5809 47.4999 33.5809 47.3199 33.5909C46.6799 33.5509 46.0399 33.5009 45.4399 33.4609C45.4599 33.5209 45.3899 33.5609 45.1299 33.5509C44.8999 33.4409 44.4499 33.5509 44.1299 33.5709C43.8499 33.5609 43.8299 33.4809 43.4399 33.4909C43.2499 33.5109 43.03 33.5209 42.93 33.5609C41.78 33.5909 40.69 33.5309 39.14 33.5609C39.01 33.6409 38.18 33.6109 38.05 33.5509C38.12 33.6409 37.5799 33.5809 37.3499 33.5909C37.1599 33.5809 37.11 33.5409 36.86 33.5409C36.61 33.5309 36.55 33.5709 36.36 33.5809C36.17 33.5309 35.63 33.6209 35.37 33.5509C35.33 33.5809 35.2399 33.6009 35.0699 33.5909C34.9999 33.5109 34.52 33.5909 34.28 33.5109C33.9 33.5409 33.2599 33.6009 32.9799 33.5209C32.7399 33.5109 32.7599 33.5609 32.4799 33.5409C32.2499 33.5409 32.19 33.5009 31.89 33.5109C31.69 33.5109 31.76 33.5709 31.49 33.5509C30.54 33.4709 29.9599 33.5509 28.9099 33.4909C28.3199 33.5309 27.9 33.5009 27.52 33.4609C27.39 33.4709 27.33 33.4909 27.12 33.4809C26.8 33.4709 26.71 33.4009 26.33 33.4009C26.16 33.4209 26.01 33.4409 25.84 33.4709L26.39 34.0209C26.38 33.9309 26.37 33.8309 26.37 33.7109C26.36 33.2609 26.42 33.0809 26.42 32.6709C26.37 31.3109 26.42 30.5909 26.3 29.4809C26.19 29.4709 26.2 28.9709 26.08 28.9809L26.0699 29.0109V28.5109C26.1999 28.6809 26.1899 28.1709 26.2599 28.0409C26.2499 27.7109 26.22 27.4809 26.17 27.3109C26.2 27.1409 26.17 27.1909 26.17 26.9209C26.22 26.9909 26.25 26.9609 26.27 26.9009C26.25 26.6309 26.3 26.5809 26.3 26.3609C26.3 26.0209 26.24 25.6009 26.24 25.2709C26.24 25.0509 26.27 24.9609 26.27 24.7309C26.22 24.3209 26.2199 23.9809 26.2299 23.6509L25.64 23.0609C25.64 23.0909 25.64 23.1209 25.65 23.1609C25.6 23.4609 25.69 23.5909 25.64 23.8609C25.59 23.7809 25.62 23.3409 25.62 23.0309L25.56 22.9709C25.57 23.0709 25.57 23.1609 25.58 23.2809C25.55 23.4109 25.58 23.8009 25.56 24.1909C25.56 24.3309 25.59 24.3109 25.59 24.4309C25.55 24.7209 25.59 25.9409 25.61 26.6009C25.57 26.8609 25.52 27.4509 25.62 27.6309C25.62 27.4009 25.6399 27.3209 25.6899 27.3709C25.6999 27.6609 25.76 28.3409 25.68 28.3809C25.63 28.2809 25.6799 27.8009 25.5999 27.8309C25.5399 28.1709 25.65 28.8409 25.58 29.2509C25.64 29.4909 25.67 29.8609 25.7 30.2009L25.67 30.2809C25.76 31.1209 25.63 32.6609 25.67 34.0309L25.68 34.2309L25.86 34.2209C25.93 34.2209 25.99 34.2109 26.06 34.2109C26.37 34.2509 26.9999 34.2309 27.3499 34.2709C27.5999 34.2809 27.6599 34.2409 27.8499 34.2309C28.2599 34.3109 28.81 34.2209 29.14 34.3109C29.54 34.2009 30.4099 34.3309 30.9399 34.2709C31.2299 34.3009 31.6399 34.3109 31.9399 34.2809C31.9899 34.3409 32.31 34.3409 32.53 34.3609C33.2 34.3509 33.45 34.2909 33.92 34.3709C33.96 34.3409 34.0499 34.3209 34.2299 34.3209C34.3099 34.3609 34.37 34.4009 34.62 34.3909C35.26 34.3309 35.5799 34.3409 36.3199 34.3109C36.4999 34.3409 37.09 34.3109 37.2 34.4109C37.55 34.4309 37.45 34.3309 37.81 34.3409C37.92 34.4309 38.72 34.3709 38.89 34.4409C38.96 34.3609 39.96 34.3409 40.09 34.4209C39.94 34.4509 39.78 34.4909 39.58 34.5109C38.62 34.5009 38.4099 34.5409 37.6899 34.5009C37.5399 34.5209 37.4299 34.5309 37.2899 34.5409C36.9799 34.5109 36.87 34.5309 36.5 34.4909C36.08 34.5009 35.83 34.4709 35.61 34.4409C35.47 34.5009 35.07 34.4809 34.81 34.4609C34.71 34.5109 34.42 34.5109 34.11 34.5009C33.92 34.5009 34.0499 34.4209 33.8199 34.4309C33.5599 34.4609 33.13 34.4509 32.72 34.4209C32.25 34.4809 31.53 34.4809 30.92 34.5009C30.27 34.4809 29.72 34.4509 29.42 34.5609C29.4 34.5409 29.42 34.5109 29.33 34.5109C29.27 34.5109 29.2099 34.5109 29.2299 34.5309C29.3199 34.5909 29.85 34.5609 30.02 34.6109C29.81 34.6609 30.3099 34.6809 29.9099 34.7309C29.7299 34.7009 29.44 34.7009 29.22 34.6809C29.06 34.7009 29.06 34.7509 28.81 34.7509C28.49 34.7709 28.5099 34.7109 28.3199 34.7009C28.1899 34.7609 27.8 34.7009 27.62 34.7009C27.22 34.8109 26.65 34.8009 25.89 34.7909L25.12 34.7709L25.14 34.0409C25.14 33.9909 25.14 33.9209 25.14 33.8609C25.11 33.5509 25.1 33.2609 25.11 32.9709C25.14 33.0709 25.1599 33.1609 25.1899 33.2609C25.1699 33.0809 25.24 32.8109 25.24 33.0609C25.28 33.0609 25.26 32.7209 25.31 32.7609L25.4 32.7809L25.4099 32.1609C25.3399 32.0509 25.33 31.7409 25.25 31.9109C25.15 31.4209 25.23 30.2009 25.18 29.5709C25.17 29.2409 25.23 29.2809 25.22 28.9509C25.21 28.6509 25.18 28.4809 25.17 28.1809C25.22 27.7109 25.18 26.8609 25.17 26.3609C25.18 25.8409 25.24 25.1509 25.21 24.7809C25.17 24.6209 25.1099 25.0209 25.0999 24.6809C24.9999 24.3509 25.0599 24.3709 25.0999 24.2809ZM32.68 22.4009C32.69 22.3809 32.78 22.3909 32.78 22.4009C32.77 22.4209 32.68 22.4109 32.68 22.4009ZM26.2 23.3709L26.14 23.3009C26.45 23.2909 26.47 23.3309 26.67 23.3409C26.61 23.3709 26.45 23.3809 26.2 23.3709ZM25.86 23.2009C26.1 23.1309 26.43 23.1709 26.92 23.1509C26.96 23.1809 26.82 23.1909 26.87 23.2209C26.51 23.1909 26.27 23.2409 25.86 23.2009ZM28.1899 23.3709C28.0099 23.3709 27.96 23.3509 27.78 23.3509C27.47 23.3509 27.54 23.4009 27.11 23.3809C26.94 23.3309 26.9799 23.3109 27.1299 23.2809C27.6599 23.3209 28.25 23.3209 28.83 23.2909C28.81 23.3409 28.3199 23.3309 28.1899 23.3709ZM28.2899 23.1109C28.4999 23.1009 28.56 23.1209 28.7 23.1309C28.76 23.1509 28.1699 23.1509 28.2899 23.1109ZM29.9 23.3909C29.51 23.3809 29.1099 23.3709 29.0399 23.3009C29.2899 23.3009 29.37 23.2709 29.5 23.2509C29.89 23.2309 29.8399 23.3009 30.2299 23.2909C30.3399 23.3609 29.83 23.3309 29.9 23.3909ZM30.0999 23.1109C30.0899 23.0909 30.2199 23.1009 30.2899 23.0909C30.2899 23.1109 30.1699 23.1009 30.0999 23.1109ZM30.92 23.2909C30.86 23.2809 30.9799 23.2709 31.0099 23.2709C31.0699 23.2809 30.95 23.3009 30.92 23.2909ZM30.7599 23.0509C30.9799 22.9909 31.0699 23.1509 30.7599 23.0509V23.0509ZM31.5099 23.2809C31.4499 23.2709 31.5699 23.2609 31.5999 23.2609C31.6599 23.2709 31.5399 23.2809 31.5099 23.2809ZM35.27 23.9309C35.21 23.9209 35.33 23.9109 35.36 23.9109C35.42 23.9209 35.3 23.9309 35.27 23.9309ZM47.77 22.4209C48.27 22.3309 48.19 22.5309 47.77 22.4209V22.4209ZM47.55 22.3509C47.55 22.3709 47.4299 22.3709 47.3499 22.3709C47.3499 22.3509 47.47 22.3609 47.55 22.3509ZM46.9399 22.3709C46.9299 22.3909 46.84 22.3809 46.84 22.3709C46.85 22.3509 46.9399 22.3609 46.9399 22.3709ZM37.52 22.2609C37.99 22.3109 38.3499 22.2109 38.9399 22.2309C39.0199 22.2209 39.1099 22.2109 39.1299 22.1909C39.6499 22.2309 40.37 22.2209 40.99 22.2409C41.24 22.2409 41.4099 22.2309 41.4799 22.2009C41.7999 22.2509 42.45 22.2209 42.74 22.2809C43.21 22.2009 43.72 22.2409 44.24 22.1709C44.44 22.1809 44.4399 22.2309 44.7599 22.2109C44.9399 22.2509 44.7599 22.2409 44.7899 22.3009C45.5699 22.2709 45.75 22.3909 46.33 22.3409C46.44 22.4309 45.71 22.3509 45.64 22.4109C45.2 22.4209 44.7599 22.3609 44.3199 22.4109C44.1099 22.4009 44.1 22.3509 43.89 22.3509C43.62 22.3709 42.83 22.4009 42.46 22.3309C41.87 22.4109 41.01 22.3209 40.45 22.4009C40.13 22.4209 40.22 22.3509 40.02 22.3409C39.78 22.3509 39.5899 22.3609 39.5399 22.4009C39.3299 22.3709 39.04 22.3609 38.8 22.3409C38.46 22.3709 37.8799 22.3609 37.3799 22.3709C37.1899 22.3709 37.03 22.3609 36.95 22.3309C36.72 22.3209 36.66 22.3909 36.64 22.3109C36.99 22.3109 37.43 22.3209 37.52 22.2609ZM36.9799 22.6309C36.9399 22.6609 36.87 22.6309 36.87 22.6109C36.9 22.5809 36.9699 22.6109 36.9799 22.6309ZM35.24 22.4209C35 22.4109 34.9299 22.3609 34.6899 22.3509C34.9299 22.2909 35.26 22.3209 35.7 22.3209C35.75 22.3809 35.2 22.3509 35.24 22.4209ZM35.8199 22.3609C36.0199 22.2609 36.3699 22.4109 35.8199 22.3609V22.3609ZM31.8199 23.3009C31.8499 23.2709 31.91 23.3009 32.02 23.3009C32.01 23.3209 31.8299 23.3109 31.8199 23.3009ZM40.83 23.8609C41.14 23.8509 41.15 23.9009 41.34 23.9109C41.33 23.9509 40.79 23.9109 40.83 23.8609ZM41.24 23.8909C41.01 23.7909 41.31 23.7809 41.49 23.7709C41.73 23.7809 41.74 23.8509 41.84 23.9009L41.24 23.8909ZM47.92 23.0409C47.57 22.9909 47.04 22.9909 46.61 23.0109C46.43 22.9709 46.61 22.9809 46.59 22.9209C46.14 22.9409 45.85 22.9909 45.62 23.0509C45.21 23.0109 44.13 22.9909 44.03 23.0909C43.77 23.0009 43.5199 23.1509 43.4099 23.0209C43.2199 23.0309 43.17 23.0609 42.92 23.0609C42.97 23.0009 42.7 23.0209 42.59 23.0009C42.28 23.0009 41.9 23.0809 41.59 23.0209C41.39 23.0309 41.41 23.0809 41.21 23.0809C40.75 23.0309 40.37 23.1309 40 23.0609C39.35 23.1109 38.3299 23.1109 37.6599 23.1909C37.4299 23.2009 37.28 23.1809 37.24 23.1509C36.96 23.2009 36.59 23.1309 36.14 23.1509L36.12 23.1109C35.74 23.1609 35.2699 23.1109 34.9399 23.1509C34.7699 23.1509 34.67 23.1409 34.62 23.1109C34.49 23.1209 34.48 23.1409 34.34 23.1509C33.81 23.1209 33.3199 23.1509 32.8499 23.1609C32.2999 23.1009 32.22 23.1809 31.72 23.1209C31.67 23.0209 32.47 22.9809 32.97 23.0309C33.06 22.9609 34.08 22.9509 34.37 23.0109C34.62 22.9409 35.2 22.9309 35.39 22.8609C35.73 22.8409 35.84 22.8809 35.93 22.9209C36.39 22.8809 36.67 22.8109 37.3 22.8409C37.4 22.8409 37.3699 22.8209 37.3799 22.8009C37.7499 22.8109 37.63 22.8109 37.99 22.8209C38.04 22.8609 37.9999 22.8809 37.8199 22.8809C38.2399 22.9309 38.3299 22.9309 38.7599 22.9609C38.9699 22.9709 39.0699 22.9609 39.0399 22.9209C39.2899 22.9709 39.38 22.9509 39.75 22.9409C39.71 22.8909 40.49 22.8309 40 22.8209C40.02 22.7709 40.4599 22.8009 40.3199 22.8609C40.5599 22.7809 41.01 22.9009 41.42 22.8409C41.67 22.8409 41.7399 22.8709 41.9399 22.8809C42.1199 22.8609 42.42 22.8609 42.31 22.7709C42.64 22.7609 43.0299 22.7209 43.2299 22.7909C43.6299 22.7309 44.25 22.8009 44.74 22.7909C44.88 22.8509 44.79 22.8609 44.68 22.9209C44.84 23.0009 45.01 22.9309 45.3 22.9709C45.73 22.9609 45.81 22.8709 46.28 22.8609C46.4 22.8509 46.48 22.8309 46.46 22.7909C46.67 22.8009 46.72 22.7809 46.86 22.7709C47.16 22.7709 47.2199 22.8309 47.4799 22.8409C47.9199 22.8209 48.08 22.7809 48.58 22.8209C48.23 22.8709 48.1 22.9609 47.92 23.0409ZM48.28 22.4209C48.35 22.3809 48.62 22.3409 48.78 22.3809C48.69 22.4109 48.53 22.4209 48.28 22.4209ZM48.9 22.4809L48.8799 22.4109C49.1699 22.3909 49.2 22.5209 48.9 22.4809ZM49.7 22.4209L49.6899 22.3509C49.8599 22.3109 50.4299 22.3209 50.4099 22.4009C50.6699 22.3809 51.03 22.3709 51.42 22.3809C51.12 22.4809 50.24 22.4709 49.7 22.4209ZM55.78 22.3109C56.61 22.3809 56.89 22.2409 57.71 22.2509C57.67 22.2909 57.7899 22.2909 57.9099 22.3009C57.7999 22.4009 57.27 22.3909 56.9 22.4109C56.81 22.4209 56.6399 22.4509 56.5999 22.4509C56.3299 22.4609 55.9699 22.4209 55.6899 22.4509C55.6699 22.4109 55.35 22.4309 55.28 22.4009C55.2 22.3209 55.63 22.3509 55.78 22.3109ZM55.17 22.3609C55.13 22.3909 55.08 22.3609 54.97 22.3609C54.99 22.3309 55.17 22.3409 55.17 22.3609ZM54.25 22.2909C54.29 22.3809 54.01 22.3909 53.75 22.4009C53.7 22.3809 53.6599 22.3609 53.5399 22.3509C53.6199 22.3009 53.86 22.2809 54.25 22.2909ZM57.34 23.1109C56.98 23.1609 56.8499 23.1209 56.5399 23.1709C56.0099 23.1209 55.8699 23.2509 55.4399 23.1409C54.5199 23.2209 53.36 23.1409 52.34 23.1709L52.3199 23.0609C52.6799 23.0709 52.8299 23.0409 52.9099 22.9909C53.1499 22.9909 53.21 23.0309 53.52 23.0209C53.66 23.0109 53.76 22.9909 53.81 22.9509C54.19 22.9309 54.13 23.0209 54.42 23.0209C55.19 22.9809 56.0899 22.9609 56.7299 23.0609C56.9299 23.0609 56.8599 23.0009 57.1299 23.0209C57.3799 23.0809 58.2 23.0109 58.34 23.1009C58.1 23.1209 57.59 23.1609 57.34 23.1109ZM59.34 22.3509C58.86 22.3709 58.69 22.3109 58.22 22.3209C58.21 22.1909 59.14 22.2809 59.34 22.2109C59.72 22.2009 59.94 22.2309 59.95 22.3109C59.59 22.2609 59.61 22.3209 59.34 22.3509ZM61.97 22.3609C62 22.3309 62.17 22.3409 62.17 22.3609C62.09 22.3809 61.99 22.3909 61.97 22.3609ZM62.18 22.3209C61.87 22.2909 61.41 22.3309 60.86 22.3109C60.63 22.3209 60.25 22.3509 60.05 22.3109C60.14 22.2709 60.46 22.2809 60.36 22.1909C60.85 22.1509 60.97 22.1509 61.58 22.1709V22.2209C62.01 22.2209 62.29 22.2609 62.8 22.2509C62.88 22.3409 62.26 22.2609 62.18 22.3209ZM64.11 22.3009C63.64 22.3209 63.54 22.2609 63.2 22.2509C63.53 22.1809 63.83 22.1409 64.43 22.1909C64.43 22.2509 64.11 22.2409 64.11 22.3009ZM58.84 35.3209C58.42 35.3409 58.14 35.3209 57.74 35.3809L57.7299 35.4509C57.4199 35.4609 57.47 35.3809 57.24 35.3809C57.31 35.3109 57.45 35.4009 57.64 35.3809C57.58 35.3109 57.5799 35.3309 57.6599 35.2609C57.9599 35.2809 57.9599 35.2209 58.2599 35.2409C58.1499 35.3309 59.1799 35.2109 59.3499 35.2909C59.4799 35.3809 58.82 35.3609 58.84 35.3209ZM60.83 35.3109C60.63 35.3209 60.5199 35.3009 60.5399 35.2609H60.84L60.83 35.3109ZM63.1599 34.1709C63.0699 34.2009 62.8299 34.2009 62.6599 34.2109C62.8199 34.1909 62.9399 34.1109 63.1599 34.1709ZM61.2599 34.2109C61.5399 34.2009 61.34 34.3009 61.55 34.3109C61.38 34.3509 60.7599 34.3009 60.7599 34.2309C61.0499 34.2009 61.2999 34.3009 61.2599 34.2109ZM60.6599 34.2309L60.65 34.2809C60.45 34.2909 60.34 34.2709 60.36 34.2309H60.6599ZM59.87 34.1709C60.01 34.1909 60.1799 34.2109 60.1599 34.2709C59.8199 34.3109 59.82 34.2509 59.47 34.2409C59.5 34.1909 59.91 34.2409 59.87 34.1709ZM57.59 34.9109C57.63 34.8409 57.7599 34.7909 57.9099 34.7509C58.1199 34.8209 58.31 34.7609 58.8 34.7809C59.16 34.7509 59.43 34.8009 59.8 34.7409C59.85 34.7809 60.2699 34.7409 60.2899 34.7909C60.8499 34.7509 61.16 34.7509 61.99 34.7509C62.25 34.7609 62.6699 34.6809 62.7899 34.7309C62.8899 34.7309 62.87 34.7009 62.9 34.6809C63.01 34.6809 62.98 34.7209 62.99 34.7509C63.26 34.7409 63.5 34.7209 63.7 34.6809C64.36 34.6809 64.73 34.7009 65 34.6409C65.23 34.6309 65.38 34.6509 65.49 34.6709C65.61 34.6709 65.5799 34.6309 65.5999 34.6009C65.8299 34.6109 66.03 34.6309 66.09 34.6709C66.2 34.6609 66.3499 34.6309 66.1899 34.6209L66.2899 34.6109L66.89 34.5709L66.86 34.0509C66.82 33.3409 66.87 32.6909 66.86 32.1609C66.9 32.1209 66.88 31.8509 66.96 31.9709C66.97 31.7709 66.9599 31.6609 66.9099 31.6709C66.9299 31.5309 66.9499 31.3609 67.0099 31.3809C67.0299 31.7509 67.0299 32.2109 67.0999 32.3909C67.1999 31.7709 67.06 31.0209 67.14 30.5009C67.2 30.4309 67.1899 30.7009 67.2299 30.7109C67.3199 30.5509 67.26 30.2109 67.24 29.9109C67.23 29.7609 67.31 29.2709 67.2 29.2109C67.14 29.2909 67.22 29.5809 67.24 29.6109C67.15 29.7509 67.19 29.8509 67.17 30.2009C67.11 29.9609 67.0599 29.9509 67.0099 29.8809C67.0899 29.7309 67.05 29.3409 67.09 29.1909C67.06 29.0409 67.01 28.9909 66.95 28.9709C66.97 28.6609 67.0199 28.8109 67.0399 28.9809C67.0699 28.8409 67.06 28.6709 66.99 28.6809C66.99 28.5609 67.03 28.6009 67.06 28.5909C67.07 28.3609 66.99 28.4709 66.99 28.2809C67 28.0309 67.0299 27.8309 67.0699 27.6909C67.0299 27.4409 67.0399 26.9709 67.0099 26.6909C66.9999 26.4209 67.06 26.5009 67.08 26.4009C67.05 25.9709 67.11 25.3609 67.11 24.8109C67.11 24.6909 67.0699 24.7209 67.0399 24.7009C67.0999 24.1909 67.08 23.7009 67.17 23.3009L67.3199 22.6709L66.31 22.4309L66.24 22.4109C66.11 22.4109 65.97 22.4109 65.84 22.4109L65.8499 22.3409C65.4899 22.3809 65.47 22.3109 65.15 22.2909C65.29 22.2009 65.8699 22.2209 66.3199 22.2109L67.3799 22.1809L67.4099 23.3009C67.4099 23.4409 67.42 23.5609 67.43 23.6509C67.4 24.0509 67.43 24.0509 67.42 24.5409C67.37 25.2909 67.39 25.8609 67.45 26.4409C67.43 27.0309 67.4299 27.3109 67.5099 27.6409C67.4899 28.0909 67.49 28.8509 67.55 29.2409C67.47 29.6809 67.56 30.1409 67.47 30.7309C67.5 30.9409 67.53 31.1309 67.56 31.3409C67.5 31.6409 67.57 31.9009 67.55 32.1309C67.55 32.2009 67.48 32.2309 67.5 32.4209C67.52 32.6709 67.52 33.0009 67.59 33.0309C67.57 33.3209 67.57 33.3309 67.59 33.6309L67.5399 33.6209C67.5499 33.7709 67.5599 33.9109 67.5699 34.0309L67.6599 35.2409L66.3 35.2909C65.94 35.3009 65.61 35.2909 65.12 35.2509C64.18 35.3209 63.65 35.2709 62.83 35.2609C62.66 35.2509 62.6399 35.2809 62.6299 35.3109C62.4899 35.2609 61.98 35.3009 61.84 35.2609C61.77 35.3109 61.25 35.2409 61.33 35.3309C61.09 35.3109 60.9699 35.2609 60.8499 35.2109C60.9399 35.1509 61.3 35.1609 61.27 35.0709C61.35 35.0909 61.54 35.0909 61.56 35.1209C61.92 35.0509 62.33 35.0109 62.97 35.0109C62.96 35.0809 63.15 35.0909 63.25 35.1809C63.55 35.1809 63.3899 35.0709 63.5699 35.0409C63.8899 35.0209 63.88 35.0809 64.06 35.0909C64.71 35.0809 64.83 35.0809 65.36 35.0809C65.19 35.0209 65.2 34.9209 65.09 34.8409C64.87 34.9509 63.9499 34.7709 63.6899 34.9009C63.2799 34.8209 62.71 34.9509 62.39 34.8909C62.27 34.9009 62.18 34.9209 62.18 34.9609C61.6 34.8509 60.7799 35.0609 60.1899 34.9209C59.9599 34.9109 60.0699 34.9909 59.8799 34.9909C59.3699 34.9409 58.85 34.9709 58.77 35.1009C58.29 35.1009 57.98 35.1109 57.37 35.1109C57.39 35.0909 57.47 35.0909 57.47 35.0609C57.11 35.1109 56.99 35.0609 56.68 35.0309C56.79 34.9709 57.22 34.9509 57.59 34.9109ZM55.18 35.0909C55.69 35.1409 56.08 35.0709 56.58 35.0509C56.41 35.1709 56.1399 35.1509 55.5699 35.1409C55.3699 35.1409 55.44 35.2009 55.17 35.1809L55.18 35.0909ZM54.77 35.1309C54.82 35.1409 54.69 35.1609 54.67 35.1509C54.62 35.1409 54.75 35.1209 54.77 35.1309ZM52.95 35.3809C53.64 35.4409 53.8 35.3509 54.45 35.3409C54.56 35.3709 54.7299 35.3909 54.6299 35.4609C54.8699 35.4909 55.0499 35.3909 55.1299 35.4609C55.2799 35.4509 55.1 35.4309 55.14 35.3909C55.58 35.3809 56.01 35.3709 56.34 35.3309C56.32 35.3709 56.46 35.3809 56.43 35.4309C56.02 35.3909 55.48 35.5109 55.02 35.5409C54.71 35.5509 54.6699 35.5009 54.3199 35.5109C53.6099 35.5709 53.12 35.5509 52.33 35.5009C52.41 35.4209 52.8 35.4309 52.95 35.3809ZM51.95 35.4409C51.87 35.5209 51.5099 35.5409 51.0399 35.5309C51.1999 35.4709 51.57 35.4509 51.95 35.4409ZM50.74 35.5509C50.62 35.5409 50.54 35.5209 50.55 35.4809C50.9 35.4609 50.89 35.5209 50.74 35.5509ZM49.15 35.4909C49.32 35.4809 49.58 35.4809 49.75 35.4709C49.97 35.4709 49.9199 35.5409 50.3499 35.5009C50.1999 35.5609 49.5399 35.5909 49.3499 35.5609C49.1099 35.5809 48.91 35.5909 48.65 35.5309C48.71 35.4509 48.95 35.5009 49.15 35.4909ZM48.3499 35.5109C48.3999 35.5209 48.27 35.5409 48.25 35.5309C48.2 35.5209 48.3199 35.5109 48.3499 35.5109ZM46.5699 33.7509H46.77L46.7599 33.8009H46.56L46.5699 33.7509ZM46.47 33.7509C46.45 33.7709 46.37 33.7709 46.37 33.8009C46.25 33.7909 46.17 33.7709 46.18 33.7309C46.34 33.7209 46.34 33.7509 46.47 33.7509ZM25.5999 28.6309C25.6499 28.3409 25.6499 29.0609 25.6599 29.2709C25.5699 29.2209 25.6399 28.6309 25.5999 28.6309ZM40.81 34.4709C40.73 34.5609 40.2699 34.4909 40.3199 34.4209C40.5599 34.4209 40.62 34.4609 40.81 34.4709ZM33.5099 34.6609H33.71C33.71 34.6809 33.71 34.6909 33.7 34.7109H33.5L33.5099 34.6609ZM33.6299 35.3009C34.0799 35.3809 34.8499 35.3009 35.3199 35.3809C35.6199 35.3709 35.82 35.3409 35.93 35.2909C36.6 35.3309 37.16 35.2809 37.71 35.3709C37.82 35.3709 37.7799 35.3209 37.9099 35.3209C38.4399 35.3209 39.06 35.2909 39.3 35.4009C39.75 35.3509 40.66 35.3409 40.89 35.4609C41.33 35.3409 42.69 35.4009 43.28 35.4509C43.13 35.5409 43.55 35.5009 43.47 35.5709C43.71 35.5609 44.06 35.4609 44.27 35.5309C44.62 35.4909 44.8299 35.4309 45.3799 35.4409C45.3999 35.5009 44.9299 35.5509 45.2599 35.6009C44.5899 35.6309 43.82 35.6109 43.17 35.5909C42.92 35.5909 42.7799 35.6209 42.7599 35.6809C42.5799 35.6309 42.5799 35.6909 42.2599 35.6809C41.9799 35.5909 41.4199 35.5609 40.8799 35.5309C40.6499 35.5509 40.38 35.5709 40.17 35.6009C39.55 35.5809 38.76 35.5909 38.39 35.5209C38.19 35.5709 37.82 35.5309 37.59 35.5109C36.72 35.5109 36.0999 35.5309 35.4099 35.4209C34.5699 35.4409 33.66 35.3609 32.83 35.3609C32.98 35.2809 33.3099 35.3509 33.6299 35.3009ZM32.33 35.3309C32.38 35.3409 32.2499 35.3609 32.2299 35.3509C32.1799 35.3409 32.3 35.3309 32.33 35.3309ZM32.11 34.7209C32.09 34.7509 31.92 34.7409 31.81 34.7409C31.82 34.7109 31.99 34.7209 32.11 34.7209ZM31.43 35.3309C31.26 35.3709 30.8 35.3509 30.84 35.2809C31.05 35.2909 31.54 35.2409 31.43 35.3309ZM30.31 34.7809C30.19 34.7709 30.11 34.7509 30.12 34.7109C30.23 34.7109 30.32 34.7309 30.31 34.7809ZM24.97 25.0209C24.95 24.9809 24.96 24.9009 24.97 24.9209C24.99 24.9609 24.98 25.0409 24.97 25.0209ZM26.4099 24.5209C26.3899 24.5109 26.3699 24.5009 26.3799 24.6709C26.4499 24.9109 26.49 24.6809 26.53 24.5509C26.52 24.3709 26.5099 24.2009 26.5099 24.0309L26.3199 23.8409C26.3299 24.1009 26.3599 24.3509 26.4099 24.5209Z" fill="#1E1E1E"/></svg>