<svg xmlns="http://www.w3.org/2000/svg" viewBox="0 0 62 59" fill="none"><path d="M38.31 48.7617C51.0125 48.7617 61.31 38.4643 61.31 25.7617C61.31 13.0592 51.0125 2.76172 38.31 2.76172C25.6074 2.76172 15.31 13.0592 15.31 25.7617C15.31 38.4643 25.6074 48.7617 38.31 48.7617Z" fill="#49A4D5"/><path d="M12.58 16.8713C12.54 16.8413 12.51 16.7813 12.49 16.7913C12.52 16.8213 12.56 16.8813 12.58 16.8713ZM12.68 16.7313C12.48 16.6013 12.35 16.1813 12.21 16.2013C12.33 16.4013 12.71 16.8713 12.8 17.0013C12.83 16.9513 12.76 16.8413 12.68 16.7313ZM11.62 15.3113C11.85 15.5413 11.72 15.6113 11.91 15.8913C11.96 15.7513 11.78 15.3513 11.62 15.3113ZM11.13 14.9413C11.13 14.9613 11.18 15.0213 11.18 14.9913C11.17 14.9713 11.12 14.9113 11.13 14.9413ZM10.34 12.6613C10.36 12.6013 10.42 12.5913 10.4 12.4713C10.31 12.2913 10.34 12.1813 10.28 11.9413C10.28 11.8313 10.42 12.0013 10.34 11.8813C10.24 11.8213 10.2 11.4613 10.27 11.3513C10.22 11.3313 10.11 10.8113 10.25 10.8713C10.26 10.5813 10.18 10.5613 10.13 10.4413C10.12 10.3013 10.2 9.98131 10.11 10.0113C10.01 10.2413 10.11 10.3413 10.05 10.6813C10.09 10.6813 10.11 10.7313 10.13 10.8113C10.1 10.8213 10.1 10.8713 10.09 10.9313C10.17 11.0613 10.1 11.2413 10.18 11.4213C10.18 11.5013 10.15 11.5013 10.16 11.6013C10.22 11.7713 10.31 12.1113 10.21 12.2013C10.28 12.5013 10.28 12.7713 10.39 12.9113C10.37 12.9213 10.32 12.9113 10.33 12.9813C10.38 12.9913 10.39 13.5813 10.5 13.3813C10.39 13.1513 10.48 12.9313 10.34 12.6613ZM10.48 12.6413C10.4 12.7913 10.6 12.7713 10.48 12.6413V12.6413ZM24.5 1.64131C24.49 1.63131 24.41 1.61131 24.43 1.63131C24.45 1.64131 24.53 1.66131 24.5 1.64131ZM10.36 10.9813C10.32 10.9813 10.28 10.9713 10.29 11.1013C10.33 11.1013 10.35 11.0513 10.36 10.9813ZM17.4 17.8113C17.39 17.8013 17.33 17.8013 17.35 17.8213C17.36 17.8313 17.42 17.8313 17.4 17.8113ZM26.95 1.81131C26.94 1.79131 26.86 1.76131 26.88 1.79131C26.89 1.80131 26.97 1.84131 26.95 1.81131ZM24.95 1.84131C24.96 1.76131 25.17 1.90131 25.07 1.77131C25.13 1.78131 25.27 1.88131 25.27 1.81131C25.07 1.60131 24.91 1.68131 24.72 1.63131C24.6 1.57131 24.53 1.56131 24.52 1.61131C24.67 1.74131 24.73 1.70131 24.95 1.84131ZM10.73 13.4413C10.69 13.0513 10.57 13.1713 10.73 13.4413V13.4413ZM11.62 15.7713L11.7 15.7313C11.58 15.5613 11.45 15.3913 11.34 15.3113L11.62 15.7713ZM12.14 16.4413C12.06 16.4413 12.17 16.5613 12.13 16.5913C12.27 16.7613 12.44 17.0113 12.56 17.0313C12.45 16.8713 12.37 16.8213 12.32 16.6113C12.28 16.6313 12.19 16.4513 12.14 16.4413ZM11.04 14.2713C11.04 14.2913 11.08 14.3513 11.08 14.3213C11.08 14.3113 11.04 14.2413 11.04 14.2713ZM10.99 14.5413C10.92 14.5613 10.94 14.8613 11.07 14.8313C10.97 14.6613 11.03 14.6513 10.99 14.5413ZM11.08 13.9513C10.93 13.6213 10.93 13.3513 10.77 13.3013C10.75 13.6113 11.01 13.9413 11.07 14.1313C11.07 14.0813 11 13.9313 11.08 13.9513ZM10.63 13.7713C10.7 14.0213 10.69 13.9613 10.75 14.1813C10.86 14.1913 10.82 14.4513 10.92 14.4413C10.83 14.2113 10.87 14.1413 10.78 13.9213C10.73 13.9813 10.69 13.7413 10.63 13.7713ZM14.04 15.9113C14.1 15.9613 14.19 16.1213 14.22 16.0813L14.12 15.9713C14.09 15.9413 14.06 15.9013 14.04 15.9113ZM26.82 16.5513C26.92 16.4413 26.92 16.5013 26.97 16.3913L26.94 16.3613C26.84 16.4113 26.89 16.4113 26.79 16.5213L26.82 16.5513ZM26.92 16.1913C26.96 16.1413 27 16.1513 26.99 16.1113C26.97 16.0913 26.91 16.1613 26.92 16.1913ZM11.52 9.97131C11.47 9.91131 11.44 9.96131 11.38 9.84131C11.31 9.99131 11.31 9.99131 11.31 10.2613C11.38 10.2213 11.44 10.1613 11.51 10.1213L11.52 9.97131ZM27.12 16.1613C27.14 16.1213 27.14 16.0713 27.1 16.1413C27.09 16.1513 27.08 16.1713 27.07 16.1813C27.04 16.2413 27.09 16.2213 27.12 16.1613ZM26.08 17.1913C26.11 17.1613 26.16 17.1213 26.15 17.1013C26.12 17.1313 26.06 17.1713 26.08 17.1913ZM26 17.2613L25.97 17.2213L25.89 17.2913L25.92 17.3313L26 17.2613ZM10.74 12.4813C10.74 12.4613 10.72 12.3913 10.71 12.4313C10.71 12.4513 10.74 12.5213 10.74 12.4813ZM12.6 16.9313C12.68 17.0113 12.78 17.1213 12.81 17.0613C12.72 16.9513 12.66 16.9413 12.6 16.9313ZM10.78 12.6513C10.78 12.6313 10.75 12.5713 10.74 12.6013C10.74 12.6213 10.77 12.6913 10.78 12.6513ZM27.59 5.74131C27.53 5.79131 27.56 5.57131 27.49 5.61131C27.52 5.70131 27.63 5.90131 27.59 5.74131ZM13.61 17.7713C13.62 17.8413 13.73 17.9413 13.78 18.0213C13.86 17.8813 13.58 17.6513 13.43 17.4713C13.33 17.5313 13.34 17.6313 13.44 17.7713C13.52 17.8413 13.51 17.7013 13.61 17.7713ZM12.12 12.8513C12.14 12.8413 12.13 12.7613 12.1 12.7513C12.07 12.7713 12.09 12.8113 12.12 12.8513ZM12.9 17.4513C13.04 17.5813 12.95 17.6113 13.05 17.7213C13.16 17.6613 13.21 17.8813 13.32 17.9713C13.52 18.0013 13.7 18.2713 13.9 18.3313C13.74 18.1813 13.71 18.0313 13.48 17.8313C13.33 17.8113 13.01 17.4113 12.9 17.4513ZM11.73 9.32131C11.79 9.21131 11.83 9.09131 11.79 8.97131C11.72 9.17131 11.69 9.20131 11.68 9.47131C11.61 9.51131 11.54 9.88131 11.65 9.88131C11.71 9.76131 11.71 9.48131 11.73 9.32131ZM11.38 9.57131C11.36 9.57131 11.34 9.66131 11.36 9.67131C11.37 9.62131 11.41 9.60131 11.38 9.57131ZM12.18 7.35131L12.11 7.54131C12.17 7.59131 12.28 7.36131 12.18 7.35131ZM28.5 11.4213C28.5 11.2913 28.51 11.1713 28.54 11.1113C28.52 11.0313 28.49 10.9613 28.46 10.8913C28.49 10.7713 28.48 10.7013 28.47 10.6313H28.24C28.24 10.6813 28.23 10.7213 28.23 10.7713C28.23 10.8413 28.27 10.8213 28.27 10.8713C28.21 11.0513 28.3 11.1113 28.29 11.3313C28.23 11.5513 28.26 11.7613 28.16 12.0213C28.19 12.0513 28.2 12.1013 28.18 12.1813C28.13 12.4513 28.1 12.6413 28.09 12.8413C28 13.0713 27.99 13.2913 27.86 13.4013C27.8 13.5413 27.85 13.5713 27.79 13.7013C27.67 13.8613 27.57 14.0713 27.5 14.3113C27.46 14.3213 27.42 14.3313 27.37 14.3313C27.29 14.4013 27.21 14.5913 27.13 14.5313C27.07 14.7013 27.05 14.6213 26.95 14.7713C26.99 15.0213 26.58 15.4713 26.45 15.7613C26.4 15.8313 26.36 15.8513 26.32 15.8513C26.18 16.0813 25.95 16.2713 25.73 16.5313C25.51 16.6113 25.37 16.8613 25.13 16.9813C25.05 16.9413 25.25 16.8613 25.19 16.8113C25.02 16.9413 24.96 16.8513 24.76 17.0413C24.68 17.0513 24.59 17.0913 24.49 17.1513C24.47 17.2513 24.34 17.2413 24.22 17.3613C24.1 17.4513 24.06 17.4313 23.96 17.4913C23.98 17.5213 23.96 17.5613 23.91 17.6013C23.85 17.5913 23.72 17.6413 23.65 17.6213C23.43 17.7313 23.29 17.7513 23.15 17.7813C23.04 17.8313 23.02 17.8713 22.94 17.9113C22.9 17.8613 22.75 17.9213 22.65 17.9413C22.52 18.0313 22.46 18.0113 22.3 18.0813C22.1 18.0613 21.71 18.1313 21.46 18.2213C21.47 18.1413 21.24 18.2313 21.22 18.1813C21.08 18.1913 21.08 18.2513 20.95 18.2713C20.47 18.1913 19.87 18.3213 19.46 18.1813C19.34 18.1813 19.31 18.2513 19.17 18.2213C19.1 18.1813 18.9 18.1913 18.71 18.1413C18.51 18.0713 18.17 17.9913 17.94 17.9513C17.81 17.9213 17.63 17.7313 17.55 17.7913C17.53 17.8913 17.79 17.9713 17.74 18.0713L17.38 17.9413C17.27 17.7813 17.2 17.7613 17.01 17.6213C16.72 17.5413 16.53 17.3913 16.27 17.3213C16.21 17.2613 16.15 17.1913 16.06 17.1313C15.97 17.1213 15.87 17.1013 15.74 17.0213C15.61 16.8513 15.53 16.8013 15.27 16.6313C15.16 16.5113 14.91 16.3013 14.82 16.1613C14.76 16.1813 14.65 16.0813 14.57 16.0113C14.56 15.9313 14.35 15.7713 14.46 15.7413C14.31 15.6113 14.34 15.6013 14.23 15.4513C14.17 15.3813 14.13 15.4213 14.06 15.3413C14.03 15.2413 13.88 15.1913 13.77 14.9813C13.72 14.9513 13.68 15.0213 13.63 14.9013C13.71 14.8713 13.54 14.7613 13.53 14.6313C13.42 14.5313 13.29 14.3413 13.19 14.2213C13.17 14.0713 13.02 13.8113 12.98 13.6513C12.87 13.5613 12.9 13.4913 12.82 13.3613C12.73 13.3113 12.64 13.2813 12.57 13.1413C12.62 13.0813 12.6 12.9613 12.63 12.8813C12.55 12.6013 12.36 12.2613 12.43 11.9613C12.31 11.7813 12.39 11.5913 12.38 11.3513C12.27 11.1913 12.28 10.9213 12.31 10.6913C12.29 10.3113 12.32 10.0313 12.41 9.66131C12.42 9.55131 12.34 9.56131 12.38 9.41131C12.39 9.28131 12.45 8.91131 12.54 8.77131C12.51 8.45131 12.78 8.10131 12.82 7.77131C12.87 7.77131 12.91 7.56131 12.97 7.48131C13.06 7.20131 13.23 6.90131 13.37 6.78131C13.4 6.68131 13.44 6.57131 13.49 6.46131C13.72 6.07131 13.92 5.81131 14.25 5.49131C14.46 5.36131 14.43 5.33131 14.62 5.13131C14.71 5.06131 14.78 5.04131 14.88 4.93131C14.94 4.80131 15.15 4.62131 15.36 4.48131C15.38 4.51131 15.41 4.51131 15.44 4.51131C15.7 4.31131 15.91 4.23131 16.14 4.05131C16.13 4.18131 16.32 4.01131 16.38 4.02131C16.35 3.95131 16.41 3.89131 16.5 3.83131C16.81 3.77131 17.12 3.43131 17.33 3.53131C17.48 3.48131 17.45 3.40131 17.57 3.35131C17.6 3.40131 17.77 3.30131 17.81 3.34131C18.01 3.26131 17.96 3.23131 18.2 3.17131C18.33 3.13131 18.35 3.19131 18.48 3.15131C18.54 3.11131 18.59 3.11131 18.67 3.12131C18.67 3.09131 18.68 3.06131 18.76 3.06131C18.87 3.04131 18.98 3.03131 19.04 3.05131C19.08 3.01131 19.1 2.97131 19.22 2.95131C19.24 2.99131 19.45 2.95131 19.55 2.96131C19.69 2.90131 19.76 2.92131 19.97 2.92131C20.07 2.87131 20.11 2.87131 20.25 2.91131C20.34 2.92131 20.32 2.85131 20.44 2.88131C20.87 2.93131 21.15 2.92131 21.54 2.93131C21.89 3.03131 22.11 3.11131 22.42 3.14131C22.62 3.31131 22.74 3.24131 22.99 3.38131C23.26 3.34131 23.42 3.54131 23.79 3.61131C23.71 3.65131 23.86 3.70131 23.93 3.75131C23.88 3.81131 24.04 3.89131 24.08 3.96131C24.16 3.91131 24.42 4.12131 24.54 4.15131C24.58 4.20131 24.62 4.25131 24.66 4.30131C24.67 4.23131 24.77 4.33131 24.82 4.33131C24.88 4.47131 25.04 4.47131 25.14 4.55131C25.2 4.65131 25.24 4.64131 25.28 4.75131C25.33 4.70131 25.49 4.87131 25.51 4.93131C25.55 4.92131 25.59 4.94131 25.65 5.00131C25.84 5.23131 25.9 5.31131 26.11 5.56131C26.18 5.62131 26.22 5.63131 26.29 5.73131C26.33 5.78131 26.3 5.80131 26.36 5.86131C26.47 5.92131 26.48 5.94131 26.5 6.06131C26.65 6.15131 26.78 6.41131 26.92 6.55131C27.03 6.77131 27.03 6.75131 27.13 6.99131C27.24 7.09131 27.35 7.39131 27.47 7.49131C27.47 7.67131 27.63 7.90131 27.71 8.03131C27.73 8.21131 27.83 8.30131 27.89 8.49131C27.97 8.77131 27.99 8.96131 27.99 9.18131C28.07 9.34131 28.15 9.69131 28.13 9.91131C28.19 10.0713 28.22 10.3213 28.23 10.6213H28.46C28.44 10.5413 28.42 10.4413 28.43 10.2713C28.38 10.1313 28.37 9.91131 28.33 9.71131C28.33 9.50131 28.29 9.23131 28.31 9.04131C28.26 8.84131 28.16 8.69131 28.09 8.51131C28.06 8.38131 28.01 8.22131 28.07 8.20131C27.94 7.95131 28 7.85131 27.98 7.64131C27.91 7.63131 27.86 7.42131 27.79 7.32131C27.76 7.26131 27.79 7.24131 27.75 7.17131C27.61 7.02131 27.45 6.48131 27.34 6.40131C27.37 6.46131 27.4 6.51131 27.35 6.51131C27.21 6.37131 27.29 6.34131 27.26 6.21131C27.18 6.11131 27.11 6.02131 27.03 5.87131C26.97 5.66131 26.72 5.47131 26.76 5.30131C26.92 5.51131 27.04 5.52131 27.2 5.70131C27.25 5.88131 27.42 6.01131 27.53 6.24131C27.68 6.33131 27.82 6.56131 27.95 6.75131C27.93 6.80131 28 6.90131 27.91 6.83131C27.97 6.99131 28.03 6.91131 28.09 7.10131C28.14 7.22131 28.06 7.22131 28.12 7.37131C28.15 7.39131 28.19 7.41131 28.22 7.45131C28.31 7.65131 28.51 7.93131 28.51 8.09131C28.57 8.16131 28.63 8.27131 28.68 8.39131C28.68 8.63131 28.87 8.90131 28.77 9.09131C28.86 9.18131 28.86 9.56131 28.95 9.68131C28.81 9.84131 29.02 10.1813 28.91 10.3313L29 10.6213H29.08V10.6113C29.01 10.4913 28.94 10.0413 29.03 9.89131C29.13 9.90131 29.07 10.3213 29.1 10.5013C29.1 10.5613 29.11 10.5913 29.12 10.6213H29.95C29.95 10.5013 29.96 10.3813 29.97 10.2613C29.91 10.1413 29.89 10.0713 29.89 9.96131C29.89 9.73131 29.86 9.40131 29.79 9.18131C29.8 8.87131 29.56 8.15131 29.52 7.76131C29.48 7.71131 29.43 7.62131 29.38 7.55131C29.42 7.41131 29.28 7.21131 29.2 7.04131C29.18 6.93131 29.21 6.86131 29.16 6.73131C29.1 6.56131 29.05 6.65131 28.99 6.47131C28.77 5.88131 28.15 5.09131 27.92 4.65131C27.83 4.63131 27.7 4.34131 27.57 4.23131C27.53 4.22131 27.48 4.21131 27.43 4.18131C27.3 3.96131 27.12 3.75131 26.81 3.45131C26.75 3.40131 26.74 3.44131 26.69 3.40131C26.6 3.25131 26.44 3.12131 26.31 3.02131C26.46 2.97131 26.24 2.92131 26.3 2.86131C26.47 2.96131 26.35 2.99131 26.44 3.07131C26.46 2.92131 26.57 3.10131 26.69 3.17131C26.72 3.19131 26.74 3.12131 26.81 3.22131C26.96 3.34131 26.96 3.41131 27.04 3.50131C27.07 3.46131 27.14 3.48131 27.22 3.58131C27.26 3.66131 27.31 3.74131 27.33 3.81131C27.52 3.98131 27.53 3.97131 27.71 4.21131C27.89 4.34131 28.06 4.52131 28.2 4.55131C28.16 4.62131 28.33 4.83131 28.37 4.95131C28.42 5.01131 28.44 5.01131 28.49 5.10131C28.51 5.18131 28.55 5.28131 28.55 5.34131C28.74 5.61131 28.67 5.61131 28.88 5.86131C28.93 6.04131 28.98 6.21131 29.09 6.37131L29.02 6.40131C29.06 6.52131 29.27 6.66131 29.17 6.73131C29.24 6.93131 29.3 6.84131 29.36 7.05131C29.4 7.16131 29.38 7.18131 29.42 7.29131C29.52 7.42131 29.61 7.75131 29.69 7.92131C29.61 7.97131 29.76 8.15131 29.73 8.29131C29.92 8.60131 29.93 9.07131 30.04 9.36131C30.1 9.60131 30.06 9.71131 30.06 9.91131C30.1 9.99131 30.12 10.1613 30.17 10.2213C30.15 10.3613 30.15 10.5113 30.16 10.6413H30.43C30.42 10.4313 30.4 10.2313 30.36 10.1013C30.45 9.98131 30.34 9.67131 30.43 9.53131C30.35 9.29131 30.34 8.98131 30.35 8.77131C30.3 8.63131 30.3 8.85131 30.27 8.71131C30.26 8.61131 30.33 8.67131 30.32 8.58131C30.25 8.51131 30.24 8.26131 30.22 8.14131C30.19 8.13131 30.16 8.16131 30.14 8.09131C30.19 7.95131 30.04 7.73131 30.05 7.52131C29.93 7.50131 29.82 7.05131 29.7 6.89131C29.63 6.91131 29.56 6.91131 29.5 6.69131C29.55 6.65131 29.59 6.78131 29.63 6.71131C29.58 6.46131 29.53 6.72131 29.47 6.56131L29.46 6.37131C29.29 6.11131 29.13 5.84131 28.94 5.63131C28.89 5.51131 28.98 5.49131 28.87 5.32131C28.64 5.02131 28.37 4.63131 28.13 4.30131C28.07 4.31131 28.01 4.30131 27.92 4.22131C27.92 4.11131 27.76 3.93131 27.73 3.82131C27.64 3.95131 27.34 3.50131 27.19 3.46131C27.1 3.28131 26.95 3.22131 26.71 2.98131C26.63 2.89131 26.63 2.84131 26.51 2.74131C26.35 2.76131 26.1 2.50131 25.95 2.34131C25.92 2.36131 25.91 2.42131 25.84 2.37131C25.73 2.26131 25.7 2.25131 25.63 2.14131C25.41 2.06131 25.38 2.00131 25.17 1.94131C25.26 2.03131 25.4 2.12131 25.38 2.18131C25.03 1.97131 25.39 2.24131 25.31 2.28131C25.2 2.26131 25 2.11131 24.84 2.01131C24.92 1.89131 24.63 1.82131 24.42 1.66131C24.28 1.63131 24.23 1.70131 24.08 1.65131C24.04 1.60131 24.02 1.54131 23.96 1.49131C23.96 1.54131 23.8 1.42131 23.8 1.40131L23.46 1.27131C23.32 1.13131 22.86 1.00131 22.69 0.891308C22.46 0.881308 22.25 0.751308 21.98 0.661308C21.82 0.631308 21.91 0.741308 21.72 0.691308C21.51 0.581308 21.74 0.501308 21.67 0.351308C21.51 0.281308 21.44 0.191308 21.26 0.121308C21.06 0.121308 20.72 0.121308 20.49 0.0613077C20.23 0.0413077 20.13 0.0713077 19.84 0.0613077C19.71 0.0413077 19.65 -0.00869232 19.45 0.00130768C19.48 0.0713077 19.29 0.0713076 19.19 0.111308C18.81 0.0913076 18.72 0.211308 18.49 0.261308C18.29 0.261308 18.32 0.291308 18.17 0.281308C18.04 0.351308 17.92 0.421308 17.68 0.491308C17.27 0.521308 17.05 0.691308 16.78 0.831308C16.62 0.871308 16.54 0.841308 16.4 0.861308C16.39 0.891308 16.32 0.951308 16.29 0.931308C16.09 1.01131 16.1 1.07131 15.9 1.16131C15.81 1.06131 15.57 1.28131 15.31 1.38131C15.32 1.46131 15.26 1.53131 15.14 1.62131C14.71 1.83131 14.7 1.97131 14.37 2.16131C14.38 2.20131 14.37 2.25131 14.31 2.31131C13.97 2.43131 13.57 2.81131 13.41 3.06131C13.35 3.08131 13.31 3.03131 13.21 3.11131C13.16 3.20131 13.13 3.28131 13.04 3.39131C12.96 3.42131 12.83 3.55131 12.72 3.68131C12.6 3.84131 12.54 3.88131 12.48 4.05131C12.45 4.04131 12.4 4.10131 12.34 4.17131C12.32 4.27131 12.13 4.47131 12.12 4.63131C12.01 4.77131 12.04 4.83131 11.95 4.96131C11.91 4.94131 11.85 5.13131 11.74 5.26131C11.72 5.25131 11.76 5.16131 11.7 5.23131C11.72 5.28131 11.53 5.43131 11.48 5.45131C11.36 5.69131 11.26 5.71131 11.15 5.96131C11.15 6.10131 11.04 6.34131 10.91 6.60131C10.9 6.72131 10.87 6.89131 10.81 7.09131C10.79 7.06131 10.8 6.99131 10.75 6.99131C10.64 7.33131 10.46 7.73131 10.37 7.95131C10.39 7.98131 10.4 8.04131 10.37 8.14131C10.22 8.34131 10.29 8.46131 10.2 8.73131C10.22 8.87131 10.2 9.08131 10.21 9.23131C10.18 9.44131 10.09 9.79131 10.18 9.84131C10.22 9.70131 10.25 9.34131 10.31 9.19131C10.33 9.04131 10.23 9.08131 10.26 8.93131C10.33 8.94131 10.38 8.80131 10.44 8.73131C10.49 8.48131 10.33 8.55131 10.41 8.28131C10.51 8.33131 10.57 8.05131 10.67 8.12131C10.69 8.16131 10.7 8.23131 10.69 8.31131C10.56 8.49131 10.59 8.63131 10.58 8.89131C10.49 8.82131 10.48 9.18131 10.41 9.21131C10.34 9.64131 10.2 10.1413 10.35 10.2813C10.43 10.0613 10.32 9.48131 10.5 9.41131C10.44 9.74131 10.4 9.91131 10.48 10.0613C10.46 10.1913 10.41 10.3513 10.45 10.4713C10.41 10.5013 10.35 10.4913 10.33 10.5813C10.41 10.7113 10.38 10.9413 10.41 11.1213C10.49 11.1713 10.48 11.0313 10.52 11.0113C10.5 11.2613 10.6 11.1713 10.63 11.3013C10.52 11.4213 10.67 11.4613 10.67 11.6413C10.57 11.6613 10.65 12.0013 10.5 11.8213C10.5 11.9513 10.54 12.2213 10.51 12.4113C10.54 12.5013 10.59 12.4913 10.62 12.6313C10.59 12.6413 10.57 12.6513 10.6 12.7513C10.67 12.6713 10.61 12.3613 10.71 12.3213C10.71 12.2213 10.61 12.0913 10.67 12.0313C10.74 12.1213 10.71 12.2813 10.75 12.4313C10.77 12.4913 10.81 12.5313 10.83 12.5913C10.86 12.7013 10.78 12.7113 10.84 12.8213C10.89 12.8613 10.93 12.8913 10.97 13.0313C10.98 13.2613 11.11 13.5613 11.22 13.7913C11.13 13.8213 11.29 14.1313 11.28 14.2513C11.3 14.2613 11.32 14.2413 11.34 14.2913C11.47 14.5213 11.6 14.8013 11.71 14.7613C11.62 14.5813 11.54 14.4113 11.65 14.4213C11.79 14.6713 11.71 14.7213 11.84 14.8913C11.82 14.9213 11.84 14.9913 11.82 15.0213C11.94 15.2013 11.93 15.2713 12.03 15.4213C12.15 15.6313 12.54 16.1213 12.64 16.3813C12.74 16.5013 12.84 16.6013 12.96 16.7113C13.07 16.8713 13.25 17.0513 13.43 17.2413C13.63 17.4213 13.84 17.6113 14.02 17.8213C14.09 17.8513 14.2 17.9113 14.32 18.0013C14.98 18.5813 15.73 18.9613 16.74 19.3613C16.85 19.4513 16.95 19.4913 17.09 19.5513C17.17 19.5813 17.31 19.6013 17.37 19.6213C17.46 19.6513 17.44 19.7013 17.58 19.7213C17.82 19.7213 18.05 19.7613 18.44 19.8213C18.57 19.8513 18.53 19.9213 18.7 19.9413C19.06 20.0413 19.29 19.9713 19.51 19.9813C19.62 19.9813 19.63 20.0113 19.74 20.0213C19.88 20.0313 20.06 19.9813 20.2 20.0313C20.17 20.1613 19.79 20.1213 19.61 20.1513C19.68 20.0613 19.45 20.0713 19.33 20.0413C19.12 20.0513 19.02 20.1113 18.8 20.0813C18.59 19.9313 18.26 20.0213 18.04 20.0213C18.03 19.9813 17.97 19.9613 18.01 19.9113C17.62 19.8413 17.37 19.6513 17.17 19.6813L17.19 19.6413C16.94 19.5813 16.89 19.5813 16.61 19.5213C16.52 19.5513 16.42 19.5713 16.27 19.5413C16.17 19.5013 16.22 19.4513 16.04 19.3513C15.99 19.3813 15.9 19.3713 15.78 19.3313C15.71 19.2113 15.7 19.2813 15.52 19.2013C15.58 19.1913 15.47 19.0613 15.44 19.1113C15.55 19.1613 15.39 19.1713 15.35 19.1413C15.15 19.0413 14.87 18.8213 15.04 18.8613C15.18 18.9413 15.09 18.9913 15.31 19.0913L15.39 18.9713C15.08 18.8213 14.9 18.6713 14.7 18.4513C14.64 18.5613 14.36 18.3113 14.32 18.4613C14.55 18.6513 14.68 18.6213 14.8 18.8013C14.6 18.9613 14.12 18.3113 13.91 18.3813C14.17 18.5813 14.33 18.7913 14.59 18.9713C14.99 19.1913 15.43 19.3113 15.85 19.5813C15.91 19.5713 16.04 19.6413 16.14 19.6713C16.49 19.8413 16.83 20.0113 17.17 20.1813C17.18 20.1213 17.23 20.0913 17.38 20.1413C17.49 20.2813 17.78 20.2413 17.97 20.2713C18.13 20.3213 18.13 20.3913 18.37 20.4113C18.49 20.4113 18.62 20.4213 18.68 20.3913C19.37 20.4613 20.03 20.5413 20.96 20.4513C21.03 20.3713 21.52 20.3213 21.62 20.3713C21.56 20.2913 21.9 20.3013 22.03 20.2613C22.14 20.2413 22.18 20.2713 22.33 20.2413C22.48 20.2113 22.5 20.1613 22.61 20.1213C22.74 20.1413 23.02 19.9713 23.19 19.9813C23.21 19.9413 23.25 19.9113 23.35 19.8813C23.42 19.9413 23.66 19.7713 23.83 19.7913C24.03 19.6713 24.34 19.4413 24.54 19.4413C24.67 19.3813 24.64 19.3513 24.8 19.2813C24.92 19.2113 24.97 19.2313 25.12 19.1213C25.22 19.0613 25.16 19.0213 25.31 18.9613C25.83 18.7113 26.08 18.4513 26.59 18.0713C26.83 17.8013 27.04 17.6613 27.22 17.5113C27.27 17.4413 27.28 17.4013 27.37 17.3213C27.51 17.1913 27.6 17.1913 27.75 17.0113C27.82 16.8613 27.85 16.7413 27.98 16.5613C28.14 16.3313 28.27 16.2813 28.41 16.0513C28.82 15.3013 29.09 14.8913 29.23 14.2213C29.11 14.1913 29.23 13.9113 29.1 13.9013L29.08 13.9213L29.19 13.6413C29.3 13.7513 29.4 13.4513 29.49 13.3813C29.54 13.1813 29.54 13.0413 29.51 12.9413C29.58 12.8413 29.53 12.8713 29.57 12.7113C29.62 12.7413 29.66 12.7313 29.7 12.6813C29.71 12.5213 29.78 12.4813 29.81 12.3413C29.85 12.1313 29.83 11.8813 29.87 11.6713C29.88 11.5313 29.93 11.4613 29.94 11.3213C29.9 11.0813 29.92 10.8713 29.95 10.6613H29.12C29.12 10.6713 29.13 10.6913 29.13 10.7113C29.06 10.9013 29.18 10.9313 29.11 11.1013C29.04 11.0813 29.09 10.8313 29.09 10.6613H29.01C29.02 10.7113 29.03 10.7513 29.03 10.8113C28.99 10.9013 29.03 11.0913 29 11.3013C29 11.3713 29.04 11.3613 29.04 11.4213C29 11.5913 28.96 12.2313 28.93 12.5813C28.85 12.7213 28.72 13.0313 28.81 13.1213C28.84 13.0013 28.87 12.9613 28.92 12.9813C28.89 13.1313 28.86 13.5113 28.76 13.5213C28.73 13.4613 28.85 13.2213 28.76 13.2213C28.67 13.3913 28.64 13.7513 28.5 13.9513C28.52 14.0913 28.48 14.2813 28.42 14.4613L28.37 14.4913C28.26 14.9713 27.68 15.7113 27.24 16.3613C27.11 16.4813 26.88 16.7413 26.72 16.8713C26.62 16.9713 26.63 17.0213 26.56 17.1113C26.34 17.2113 26.17 17.4813 25.98 17.5413C25.9 17.7913 25.41 17.9613 25.21 18.1813C25.06 18.2513 24.86 18.3613 24.73 18.4713C24.68 18.4313 24.53 18.5313 24.41 18.5813C24.09 18.7613 23.99 18.8713 23.71 18.9113C23.7 18.9513 23.66 18.9913 23.58 19.0313C23.52 19.0113 23.48 18.9913 23.35 19.0413C23.04 19.2113 22.87 19.3013 22.48 19.4213C22.38 19.4213 22.06 19.5313 21.98 19.4513C21.79 19.4813 21.86 19.5613 21.66 19.5813C21.58 19.5013 21.16 19.6313 21.05 19.5713C21.03 19.6713 20.47 19.7113 20.39 19.6313C20.47 19.5913 20.56 19.5513 20.66 19.5313C21.18 19.5213 21.29 19.4213 21.68 19.4113C21.76 19.3913 21.81 19.3613 21.89 19.3313C22.06 19.3213 22.11 19.2813 22.32 19.2713C22.54 19.2013 22.68 19.2013 22.8 19.1913C22.85 19.1013 23.07 19.0513 23.21 19.0213C23.24 18.9513 23.39 18.9113 23.55 18.8413C23.64 18.8013 23.61 18.9013 23.72 18.8413C23.84 18.7513 24.05 18.6613 24.27 18.5913C24.46 18.4113 24.8 18.2113 25.07 18.0013C25.36 17.8113 25.63 17.6513 25.68 17.4613C25.7 17.4713 25.71 17.5013 25.75 17.4613C25.77 17.4413 25.8 17.4113 25.78 17.4013C25.71 17.3913 25.5 17.5913 25.4 17.6113C25.46 17.5013 25.24 17.6513 25.38 17.4813C25.48 17.4413 25.6 17.3613 25.7 17.2913C25.75 17.2213 25.71 17.1813 25.82 17.0913C25.93 16.9613 25.97 17.0113 26.05 16.9513C26.06 16.8613 26.26 16.7713 26.32 16.6913C26.38 16.4413 26.64 16.2213 26.91 15.8713C26.98 15.7313 27.06 15.6113 27.15 15.4913C27.14 15.5513 27.14 15.6013 27.13 15.6513C27.17 15.5713 27.31 15.5013 27.23 15.6013C27.27 15.6313 27.34 15.4713 27.38 15.5113L27.45 15.5713L27.62 15.2913C27.58 15.2113 27.66 15.0713 27.54 15.1013C27.6 14.8513 27.91 14.3213 27.98 14.0113C28.02 13.8513 28.07 13.8813 28.11 13.7213C28.15 13.5813 28.13 13.4913 28.18 13.3513C28.31 13.1413 28.33 12.7113 28.36 12.4813C28.41 12.2313 28.49 11.8913 28.47 11.7113C28.42 11.6413 28.33 11.8413 28.33 11.6813C28.38 11.4813 28.45 11.4813 28.5 11.4213ZM27.4 6.95131C27.37 6.95131 27.37 6.91131 27.38 6.90131C27.4 6.90131 27.41 6.94131 27.4 6.95131ZM29.49 10.4213H29.4C29.37 10.2413 29.43 10.2513 29.44 10.1413C29.47 10.1813 29.49 10.2813 29.49 10.4213ZM29.26 10.5213C29.16 10.3513 29.2 10.1813 29.16 9.90131C29.2 9.89131 29.21 9.97131 29.26 9.96131C29.23 10.1513 29.3 10.3113 29.26 10.5213ZM29.38 9.27131C29.4 9.37131 29.37 9.39131 29.39 9.50131C29.41 9.68131 29.49 9.66131 29.47 9.90131C29.4 9.97131 29.38 9.94131 29.33 9.84131C29.38 9.56131 29.31 9.22131 29.21 8.88131C29.3 8.91131 29.31 9.18131 29.38 9.27131ZM29.01 9.14131C28.98 9.03131 29.01 8.99131 29 8.92131C29.04 8.89131 29.08 9.22131 29.01 9.14131ZM29.23 8.31131C29.27 8.53131 29.32 8.75131 29.22 8.78131C29.19 8.64131 29.13 8.59131 29.08 8.51131C29 8.30131 29.11 8.33131 29.03 8.11131C29.12 8.05131 29.15 8.33131 29.23 8.31131ZM28.8 8.16131C28.78 8.16131 28.77 8.10131 28.75 8.06131C28.78 8.05131 28.79 8.12131 28.8 8.16131ZM28.93 7.73131C28.93 7.76131 28.89 7.70131 28.89 7.68131C28.89 7.65131 28.93 7.71131 28.93 7.73131ZM28.63 7.80131C28.5 7.69131 28.7 7.65131 28.63 7.80131V7.80131ZM28.79 7.41131C28.79 7.44131 28.75 7.38131 28.75 7.36131C28.75 7.33131 28.79 7.39131 28.79 7.41131ZM28.65 5.30131C28.65 5.33131 28.6 5.28131 28.6 5.26131C28.59 5.23131 28.65 5.29131 28.65 5.30131ZM21.75 2.38131C21.47 2.43131 21.59 2.23131 21.75 2.38131V2.38131ZM21.83 2.48131C21.84 2.46131 21.89 2.48131 21.94 2.48131C21.93 2.50131 21.87 2.48131 21.83 2.48131ZM22.13 2.54131C22.15 2.52131 22.18 2.54131 22.18 2.55131C22.16 2.57131 22.13 2.55131 22.13 2.54131ZM25.95 5.04131C25.86 4.83131 25.63 4.78131 25.44 4.57131C25.4 4.55131 25.36 4.52131 25.34 4.54131C25.21 4.33131 24.91 4.14131 24.69 3.93131C24.6 3.85131 24.51 3.83131 24.46 3.83131C24.37 3.71131 24.08 3.56131 24.01 3.43131C23.75 3.39131 23.56 3.24131 23.28 3.20131C23.2 3.15131 23.23 3.10131 23.07 3.06131C23.01 2.99131 23.09 3.03131 23.11 2.97131C22.73 2.87131 22.72 2.70131 22.42 2.67131C22.42 2.56131 22.72 2.75131 22.78 2.72131C22.99 2.79131 23.16 2.91131 23.4 2.96131C23.49 3.01131 23.46 3.06131 23.55 3.11131C23.68 3.16131 24.06 3.29131 24.16 3.46131C24.47 3.55131 24.75 3.85131 25.04 3.97131C25.18 4.05131 25.08 4.08131 25.15 4.15131C25.25 4.21131 25.34 4.26131 25.4 4.26131C25.45 4.35131 25.54 4.46131 25.61 4.55131C25.77 4.64131 25.96 4.85131 26.12 5.04131C26.18 5.11131 26.22 5.18131 26.22 5.22131C26.28 5.31131 26.38 5.30131 26.3 5.35131C26.16 5.21131 26.03 5.04131 25.95 5.04131ZM26.52 5.04131C26.57 5.04131 26.56 5.08131 26.54 5.09131C26.49 5.09131 26.5 5.05131 26.52 5.04131ZM26.8 5.84131C26.85 5.94131 26.82 5.99131 26.86 6.09131C26.73 6.02131 26.67 5.87131 26.55 5.70131C26.62 5.65131 26.74 5.88131 26.8 5.84131ZM26.57 5.63131C26.4 5.60131 26.47 5.39131 26.57 5.63131V5.63131ZM28.76 7.24131C28.72 7.23131 28.75 7.19131 28.72 7.13131C28.75 7.14131 28.78 7.24131 28.76 7.24131ZM26.23 2.78131C26.06 2.68131 26.11 2.64131 26.02 2.56131C26.06 2.54131 26.3 2.76131 26.23 2.78131ZM26.05 2.61131C26.06 2.77131 25.91 2.66131 25.81 2.61131C25.7 2.51131 25.76 2.46131 25.76 2.39131L26.05 2.61131ZM21.93 1.75131C22.1 1.85131 22.37 1.93131 22.62 1.96131C22.69 2.03131 22.61 1.99131 22.59 2.05131C22.84 2.09131 23 2.12131 23.16 2.10131C23.36 2.20131 23.88 2.46131 24 2.41131C24.06 2.56131 24.3 2.48131 24.26 2.62131C24.36 2.66131 24.41 2.64131 24.53 2.72131C24.46 2.75131 24.6 2.82131 24.63 2.87131C24.77 2.96131 25.03 3.00131 25.11 3.14131C25.2 3.20131 25.24 3.16131 25.33 3.22131C25.49 3.41131 25.75 3.46131 25.84 3.64131C26.16 3.85131 26.57 4.23131 26.91 4.47131C27 4.56131 27.05 4.63131 27.02 4.67131C27.19 4.76131 27.22 4.96131 27.4 5.16131L27.36 5.19131C27.55 5.34131 27.65 5.56131 27.78 5.72131C27.83 5.80131 27.84 5.85131 27.82 5.89131C27.86 5.95131 27.9 5.95131 27.95 6.01131C28.07 6.27131 28.22 6.51131 28.35 6.75131C28.4 7.03131 28.53 7.06131 28.54 7.33131C28.42 7.36131 28.21 6.96131 28.15 6.71131C28.04 6.67131 27.79 6.19131 27.77 6.04131C27.61 5.94131 27.46 5.67131 27.29 5.62131C27.16 5.48131 27.17 5.42131 27.19 5.36131C26.99 5.18131 26.84 5.08131 26.65 4.82131C26.62 4.78131 26.6 4.81131 26.58 4.81131C26.46 4.66131 26.5 4.71131 26.39 4.55131C26.41 4.51131 26.45 4.51131 26.51 4.58131C26.42 4.38131 26.38 4.34131 26.24 4.17131C26.17 4.09131 26.11 4.06131 26.09 4.09131C26.04 3.96131 25.99 3.94131 25.83 3.81131C25.8 3.85131 25.42 3.64131 25.61 3.81131C25.55 3.84131 25.4 3.67131 25.51 3.68131C25.33 3.66131 25.25 3.43131 25.02 3.34131C24.91 3.27131 24.9 3.22131 24.82 3.16131C24.72 3.13131 24.58 3.05131 24.57 3.14131C24.41 3.06131 24.22 2.97131 24.17 2.87131C23.94 2.83131 23.69 2.62131 23.45 2.52131C23.42 2.44131 23.47 2.44131 23.56 2.41131C23.53 2.30131 23.4 2.34131 23.27 2.25131C23.04 2.18131 22.95 2.25131 22.71 2.16131C22.64 2.15131 22.59 2.16131 22.58 2.20131C22.47 2.16131 22.44 2.18131 22.36 2.17131C22.21 2.13131 22.2 2.06131 22.07 2.02131C21.84 1.97131 21.73 2.01131 21.48 1.92131C21.69 1.89131 21.79 1.80131 21.93 1.75131ZM21.5 2.34131C21.45 2.38131 21.3 2.39131 21.24 2.34131C21.29 2.32131 21.37 2.32131 21.5 2.34131ZM21.21 2.22131L21.2 2.29131C21.04 2.30131 21.07 2.16131 21.21 2.22131ZM20.79 2.24131L20.78 2.31131C20.68 2.34131 20.4 2.32131 20.43 2.24131C20.29 2.26131 20.11 2.23131 19.92 2.24131C20.07 2.11131 20.53 2.17131 20.79 2.24131ZM17.75 2.61131C17.33 2.64131 17.24 2.86131 16.85 2.98131C16.86 2.94131 16.8 2.95131 16.74 2.98131C16.76 2.86131 17.01 2.78131 17.18 2.69131C17.22 2.67131 17.29 2.60131 17.31 2.59131C17.44 2.53131 17.62 2.51131 17.76 2.46131C17.78 2.50131 17.93 2.43131 17.97 2.46131C18.03 2.53131 17.81 2.55131 17.75 2.61131ZM18.03 2.49131C18.05 2.45131 18.07 2.48131 18.13 2.47131C18.13 2.50131 18.04 2.51131 18.03 2.49131ZM18.49 2.46131C18.46 2.38131 18.6 2.35131 18.73 2.31131C18.75 2.33131 18.78 2.35131 18.84 2.34131C18.8 2.41131 18.69 2.45131 18.49 2.46131ZM16.78 2.07131C16.96 1.96131 17.03 1.97131 17.18 1.85131C17.47 1.81131 17.53 1.67131 17.78 1.71131C18.02 1.60131 18.31 1.54131 18.61 1.51131C18.91 1.47131 19.21 1.44131 19.5 1.42131V1.54131C19.3 1.53131 19.21 1.57131 19.17 1.62131C19.04 1.63131 19.01 1.60131 18.84 1.64131C18.76 1.66131 18.71 1.70131 18.68 1.73131C18.47 1.78131 18.51 1.68131 18.34 1.70131C17.93 1.83131 17.45 1.96131 17.1 1.99131C17 2.03131 17.05 2.08131 16.9 2.11131C16.75 2.09131 16.35 2.32131 16.26 2.29131C16.37 2.21131 16.63 2.07131 16.78 2.07131ZM16.07 3.23131C16.29 3.11131 16.38 3.13131 16.59 3.01131C16.64 3.13131 16.19 3.24131 16.13 3.35131C15.97 3.45131 15.87 3.48131 15.83 3.42131C16 3.37131 15.96 3.32131 16.07 3.23131ZM14.95 3.94131C14.96 3.97131 14.88 4.02131 14.87 4.00131C14.9 3.96131 14.93 3.93131 14.95 3.94131ZM14.89 4.04131C15.03 3.97131 15.19 3.79131 15.43 3.66131C15.52 3.59131 15.67 3.46131 15.78 3.45131C15.76 3.51131 15.62 3.58131 15.7 3.63131C15.51 3.79131 15.46 3.81131 15.21 3.98131L15.18 3.94131C15.01 4.07131 14.86 4.11131 14.68 4.28131C14.6 4.24131 14.89 4.10131 14.89 4.04131ZM14.17 4.69131C14.33 4.52131 14.41 4.53131 14.54 4.42131C14.47 4.59131 14.37 4.70131 14.14 4.88131C14.09 4.84131 14.21 4.73131 14.17 4.69131ZM12.77 14.2113C12.88 14.3913 12.92 14.5313 13.08 14.6613L13.14 14.6313C13.23 14.7613 13.15 14.7713 13.2 14.8713C13.12 14.8813 13.17 14.7713 13.1 14.7013C13.05 14.7613 13.08 14.7513 12.99 14.7513C12.93 14.6113 12.88 14.6413 12.82 14.5013C12.93 14.5113 12.59 14.1013 12.63 13.9813C12.68 13.9013 12.81 14.2013 12.77 14.2113ZM12.38 13.3013C12.42 13.3913 12.43 13.4513 12.38 13.4513L12.33 13.3113L12.38 13.3013ZM10.95 12.4013C10.99 12.4413 11.01 12.5813 11.05 12.6713C11.01 12.5913 10.9 12.5413 10.95 12.4013ZM11.24 13.4413C11.18 13.2913 11.31 13.3713 11.29 13.2613C11.35 13.3413 11.43 13.6813 11.36 13.7013C11.28 13.5513 11.33 13.3913 11.24 13.4413ZM11.38 13.7513L11.42 13.7413C11.47 13.8413 11.47 13.9113 11.43 13.9113L11.38 13.7513ZM11.49 14.1913C11.48 14.1113 11.46 14.0113 11.52 14.0013C11.62 14.1613 11.56 14.1913 11.64 14.3713C11.59 14.3713 11.53 14.1513 11.49 14.1913ZM12.71 14.9713C12.64 14.9913 12.56 14.9513 12.48 14.9113C12.48 14.7813 12.38 14.7213 12.29 14.4713C12.18 14.3113 12.16 14.1613 12.02 14.0113C12.05 13.9713 11.93 13.7713 11.98 13.7513C11.84 13.4813 11.76 13.3413 11.67 12.9013C11.64 12.7713 11.51 12.5713 11.55 12.4913C11.54 12.4413 11.51 12.4513 11.49 12.4513C11.48 12.3913 11.52 12.4013 11.55 12.3913C11.51 12.2513 11.48 12.1313 11.43 12.0313C11.37 11.6813 11.36 11.4813 11.31 11.3413C11.3 11.2213 11.31 11.1313 11.32 11.0713C11.31 11.0113 11.28 11.0213 11.25 11.0113C11.25 10.8913 11.27 10.7813 11.31 10.7413C11.3 10.6813 11.26 10.6013 11.26 10.6813C11.22 10.2813 11.29 9.90131 11.31 9.60131C11.35 9.58131 11.36 9.44131 11.42 9.51131C11.45 9.41131 11.44 9.35131 11.4 9.34131C11.43 9.27131 11.46 9.18131 11.52 9.20131C11.51 9.40131 11.47 9.64131 11.53 9.74131C11.69 9.43131 11.59 9.02131 11.73 8.77131C11.8 8.75131 11.75 8.88131 11.79 8.90131C11.9 8.84131 11.89 8.66131 11.9 8.50131C11.91 8.42131 12.05 8.20131 11.95 8.14131C11.88 8.16131 11.92 8.33131 11.94 8.36131C11.84 8.41131 11.86 8.47131 11.79 8.64131C11.76 8.50131 11.72 8.49131 11.67 8.44131C11.77 8.39131 11.78 8.17131 11.83 8.11131C11.82 8.03131 11.79 7.99131 11.73 7.96131C11.81 7.81131 11.83 7.90131 11.82 7.99131C11.88 7.93131 11.9 7.84131 11.83 7.82131C11.86 7.76131 11.89 7.79131 11.91 7.80131C11.96 7.69131 11.87 7.72131 11.9 7.62131C11.96 7.50131 12.02 7.41131 12.08 7.36131C12.08 7.22131 12.21 7.00131 12.25 6.85131C12.3 6.71131 12.34 6.78131 12.38 6.74131C12.44 6.51131 12.67 6.28131 12.82 6.03131C12.85 5.98131 12.81 5.97131 12.79 5.94131C12.98 5.72131 13.15 5.51131 13.36 5.40131L13.49 5.24131L13.54 5.29131C13.63 5.13131 13.69 5.16131 13.82 5.06131C13.83 5.20131 13.49 5.51131 13.42 5.72131C13.28 5.87131 13.29 5.88131 13.15 6.08131C12.92 6.38131 12.76 6.63131 12.7 6.93131C12.55 7.19131 12.49 7.31131 12.5 7.50131C12.41 7.70131 12.26 8.06131 12.27 8.26131C12.14 8.45131 12.17 8.70131 12.01 8.96131L12.05 9.28131C11.97 9.42131 12.02 9.56131 11.98 9.67131C11.97 9.70131 11.9 9.71131 11.91 9.81131C11.92 9.93131 11.91 10.1013 11.99 10.1213C11.96 10.2613 11.96 10.2713 11.97 10.4213H11.92C11.95 10.7013 11.97 10.8813 11.93 11.2213C12.02 11.6813 12.04 11.9513 12.09 12.3513C12.1 12.4313 12.13 12.4413 12.16 12.4413C12.13 12.5213 12.23 12.7513 12.21 12.8313C12.26 12.8513 12.26 13.1213 12.34 13.0513C12.36 13.1713 12.33 13.2413 12.31 13.3113C12.24 13.2813 12.18 13.1113 12.1 13.1613C12.1 13.1213 12.08 13.0213 12.1 13.0013C11.99 12.8413 11.89 12.6513 11.81 12.3313C11.88 12.3213 11.87 12.2213 11.95 12.1613C11.93 12.0113 11.83 12.1113 11.79 12.0313C11.75 11.8713 11.81 11.8713 11.8 11.7713C11.74 11.4413 11.75 11.3813 11.72 11.1113C11.66 11.2013 11.56 11.2013 11.49 11.2713C11.59 11.3813 11.49 11.8813 11.64 11.9913C11.59 12.2213 11.78 12.4913 11.76 12.6513C11.79 12.7113 11.82 12.7513 11.85 12.7413C11.8 13.0713 12.15 13.4013 12.13 13.7313C12.16 13.8413 12.21 13.7613 12.25 13.8513C12.31 14.1113 12.47 14.3413 12.59 14.3213C12.69 14.5413 12.77 14.6813 12.95 14.9313C12.93 14.9313 12.9 14.9013 12.88 14.9113C13.01 15.0413 13 15.1213 13.07 15.2713C12.98 15.2913 12.84 15.1113 12.71 14.9713ZM13.56 15.8913C13.44 15.6513 13.27 15.5313 13.1 15.3413C13.25 15.3513 13.32 15.4613 13.48 15.7013C13.54 15.7813 13.57 15.7113 13.64 15.8413L13.56 15.8913ZM13.73 16.0213C13.72 15.9913 13.78 16.0313 13.78 16.0413C13.79 16.0713 13.73 16.0413 13.73 16.0213ZM14.54 16.5113C14.32 16.2513 14.22 16.2313 14 16.0013C13.99 15.9413 13.94 15.8713 14.03 15.8513C13.98 15.7413 13.84 15.7413 13.87 15.6713C13.82 15.6213 13.86 15.7013 13.81 15.7113C13.67 15.5413 13.53 15.3813 13.4 15.2713C13.44 15.2513 13.41 15.2013 13.45 15.1813C13.54 15.3613 13.79 15.5013 13.95 15.6613C14.06 15.7713 14.03 15.8113 14.16 15.9313C14.43 16.1513 14.58 16.3313 14.84 16.6213C14.77 16.6613 14.63 16.5213 14.54 16.5113ZM14.95 16.8013C15.03 16.7613 15.19 16.8513 15.36 17.0013C15.26 17.0013 15.1 16.9013 14.95 16.8013ZM15.49 17.0613C15.53 17.1013 15.55 17.1413 15.52 17.1713C15.37 17.0913 15.41 17.0513 15.49 17.0613ZM16.1 17.5313C16.03 17.4913 15.91 17.4413 15.84 17.3913C15.75 17.3313 15.81 17.2913 15.61 17.2213C15.71 17.2013 15.99 17.3413 16.06 17.4213C16.17 17.4613 16.25 17.5113 16.34 17.6213C16.27 17.6813 16.19 17.5813 16.1 17.5313ZM16.45 17.7013C16.43 17.6813 16.5 17.6913 16.51 17.7013C16.52 17.7213 16.46 17.7113 16.45 17.7013ZM16.62 19.6913L16.51 19.6513L16.53 19.6113L16.64 19.6513L16.62 19.6913ZM16.68 19.7113C16.7 19.7013 16.75 19.7113 16.75 19.6913C16.81 19.7313 16.85 19.7613 16.83 19.8013C16.74 19.7713 16.75 19.7413 16.68 19.7113ZM28.72 13.6013C28.83 13.4613 28.7 13.8313 28.67 13.9413C28.58 13.9113 28.77 13.6113 28.72 13.6013ZM19.97 19.6013C20.02 19.5213 20.27 19.5713 20.24 19.6413C20.11 19.6613 20.08 19.6213 19.97 19.6013ZM23.78 18.5813L23.68 18.6313L23.66 18.5913L23.76 18.5513L23.78 18.5813ZM23.45 18.0313C23.22 18.0713 22.89 18.2613 22.64 18.2613C22.51 18.3213 22.42 18.3813 22.38 18.4413C22.05 18.4713 21.79 18.6213 21.5 18.5613C21.45 18.5713 21.47 18.6113 21.41 18.6213C21.15 18.6513 20.85 18.7513 20.72 18.6313C20.5 18.6913 20.05 18.7313 19.94 18.6013C19.72 18.7113 19.04 18.6213 18.77 18.5013C18.86 18.4213 18.65 18.4313 18.7 18.3713C18.59 18.3613 18.4 18.4413 18.31 18.3413C18.14 18.3313 18.02 18.3713 17.77 18.2913C17.78 18.2313 18.01 18.2413 17.87 18.1513C18.19 18.2013 18.54 18.3213 18.85 18.3713C18.97 18.3913 19.04 18.3713 19.06 18.3113C19.14 18.3713 19.15 18.3213 19.29 18.3513C19.41 18.4513 19.69 18.4813 19.94 18.5313C20.05 18.5213 20.18 18.4913 20.28 18.4613C20.58 18.4713 20.96 18.4313 21.15 18.4713C21.24 18.4113 21.42 18.4213 21.53 18.4213C21.94 18.3313 22.22 18.2413 22.58 18.2313C22.77 18.1513 22.98 18.0913 23.19 18.0313C23.39 17.9513 23.59 17.8813 23.78 17.7913C23.75 17.9013 23.57 17.9113 23.45 18.0313ZM24.01 17.7113C23.98 17.7113 24.03 17.6613 24.04 17.6613C24.07 17.6613 24.03 17.7013 24.01 17.7113ZM24.42 18.1813C24.42 18.1513 24.5 18.1113 24.55 18.0813C24.55 18.1113 24.47 18.1413 24.42 18.1813ZM24.4 17.4813C24.45 17.4113 24.65 17.3013 24.68 17.3613C24.59 17.4113 24.4 17.5713 24.4 17.4813ZM25.19 17.6013C25.25 17.5713 25.29 17.5613 25.32 17.6013C25.25 17.6313 25.21 17.6413 25.19 17.6013ZM28.33 11.8013C28.31 11.7913 28.33 11.7513 28.34 11.7513C28.36 11.7713 28.34 11.8113 28.33 11.8013ZM30.26 11.0213C30.23 11.0213 30.2 11.0313 30.21 11.1413C30.29 11.2713 30.36 11.0913 30.43 10.9813C30.44 10.8613 30.44 10.7413 30.45 10.6313H30.18C30.18 10.7913 30.2 10.9413 30.26 11.0213Z" fill="#1E1E1E"/><path d="M3.57999 52.3306C3.61999 52.2506 3.68999 52.1406 3.67999 52.1306C3.63999 52.2006 3.56999 52.3106 3.57999 52.3306ZM3.76999 52.3406C3.91999 51.9306 4.43998 51.3506 4.38998 51.1706C4.14998 51.5306 3.59997 52.5106 3.40997 52.7506C3.47997 52.7506 3.62999 52.5506 3.76999 52.3406ZM5.39999 49.4706C5.16999 50.0106 5.04999 49.9206 4.73999 50.4706C4.91999 50.3906 5.38999 49.7106 5.39999 49.4706ZM5.67999 48.4506C5.65999 48.4706 5.59998 48.6006 5.63998 48.5606C5.65998 48.5406 5.71999 48.4106 5.67999 48.4506ZM7.92999 44.6906C8.00999 44.6206 8.04998 44.6606 8.16998 44.4706C8.29998 44.1406 8.42998 44.0006 8.63998 43.6006C8.75998 43.4306 8.67 43.7906 8.75 43.5506C8.75 43.4006 9.07999 42.8306 9.23999 42.6906C9.22999 42.6206 9.63997 41.7606 9.68997 41.9406C9.98997 41.4906 9.91999 41.4206 9.98999 41.2106C10.1 40.9906 10.47 40.5106 10.35 40.5306C10.06 40.8506 10.06 41.0406 9.70999 41.5506C9.74999 41.5706 9.70999 41.6606 9.64999 41.7806C9.61999 41.7806 9.56 41.8606 9.5 41.9406C9.44 42.1806 9.20998 42.4206 9.09998 42.7306C9.02998 42.8506 8.99997 42.8406 8.90997 42.9906C8.78997 43.2906 8.48999 43.8406 8.32999 43.9106C8.06999 44.4106 7.77997 44.7906 7.68997 45.0606C7.65997 45.0606 7.64999 45.0006 7.57999 45.1106C7.59999 45.1806 6.94999 45.9806 7.23999 45.8106C7.40999 45.4206 7.70999 45.1906 7.92999 44.6906ZM8.03998 44.7806C7.80998 44.9306 7.95998 45.0706 8.03998 44.7806V44.7806ZM29.59 40.2606C29.58 40.2306 29.49 40.1106 29.51 40.1606C29.52 40.1906 29.6 40.3106 29.59 40.2606ZM9.65997 42.1906C9.62997 42.1706 9.59999 42.1306 9.48999 42.3306C9.51999 42.3606 9.57997 42.3006 9.65997 42.1906ZM4.48999 55.6906C4.45999 55.6806 4.32998 55.7006 4.38998 55.7106C4.41998 55.7106 4.54999 55.7006 4.48999 55.6906ZM32.62 43.5506C32.61 43.5206 32.52 43.4006 32.54 43.4506C32.55 43.4706 32.63 43.6006 32.62 43.5506ZM30.06 41.0306C30.11 40.9906 30.32 41.3706 30.24 41.1406C30.32 41.2306 30.45 41.5006 30.48 41.4406C30.31 41.0206 30.06 40.8606 29.85 40.5606C29.73 40.3506 29.65 40.2506 29.61 40.2706C29.75 40.5706 29.83 40.6306 30.06 41.0306ZM7.28 46.1206C7.69 45.5506 7.5 45.6006 7.28 46.1206V46.1206ZM4.81 49.9806L4.87997 50.0406C5.05997 49.7006 5.24 49.3706 5.31 49.1406L4.81 49.9806ZM4.07999 51.3306C4.06999 51.2206 3.92998 51.4906 3.88998 51.4606C3.69998 51.8106 3.39997 52.2706 3.37997 52.4406C3.58997 52.1506 3.63998 51.9906 3.88998 51.7406C3.85998 51.7006 4.06999 51.4106 4.07999 51.3306ZM6.44998 47.5406C6.42998 47.5606 6.36997 47.6906 6.40997 47.6506C6.43997 47.6306 6.48998 47.5006 6.44998 47.5406ZM6.12 47.8306C6.06 47.7806 5.70999 48.1606 5.79999 48.2706C5.95999 47.9506 6 48.0006 6.12 47.8306ZM6.84998 47.1606C7.16998 46.5806 7.48998 46.2006 7.44998 45.9806C7.09998 46.3906 6.81 47.0806 6.62 47.4006C6.7 47.3306 6.83998 47.0606 6.84998 47.1606ZM6.84998 46.4706C6.58998 46.8706 6.65999 46.7706 6.42999 47.1106C6.46999 47.2406 6.15998 47.5206 6.19998 47.6206C6.41998 47.2406 6.53 47.1806 6.75 46.8106C6.65 46.8506 6.91998 46.4806 6.84998 46.4706ZM4.84 53.5906C4.77 53.7306 4.52999 54.0606 4.57999 54.0706L4.75 53.7906C4.78 53.7206 4.85 53.6106 4.84 53.5906ZM26 57.1106C26.3 57.1106 26.24 57.1406 26.44 57.1206L26.41 57.0806C26.17 57.0506 26.27 57.0806 25.98 57.0706L26 57.1106ZM26.57 57.0006C26.69 57.0006 26.76 57.0306 26.79 57.0006C26.77 56.9806 26.58 56.9706 26.57 57.0006ZM11.69 41.0306C11.71 40.9006 11.63 40.9806 11.69 40.7506C11.48 40.9906 11.47 40.9806 11.2 41.4706C11.3 41.4206 11.42 41.3406 11.52 41.3106L11.69 41.0306ZM26.97 57.1006C27.05 57.0906 27.11 57.0706 26.96 57.0806C26.93 57.0806 26.88 57.0806 26.85 57.0806C26.72 57.0906 26.84 57.1106 26.97 57.1006ZM24.01 57.0306C24.09 57.0306 24.22 57.0306 24.22 57.0106C24.14 57.0206 24 57.0106 24.01 57.0306ZM23.79 57.0306L23.77 56.9906H23.55L23.57 57.0306H23.79ZM8.37997 44.7706C8.39997 44.7506 8.45998 44.6206 8.41998 44.6606C8.38998 44.6906 8.33997 44.8106 8.37997 44.7706ZM3.50998 52.4106C3.40998 52.6006 3.27 52.8206 3.34 52.8306C3.48 52.5906 3.48998 52.5106 3.50998 52.4106ZM8.20999 45.0506C8.22999 45.0306 8.29 44.9006 8.25 44.9406C8.22 44.9706 8.16999 45.0906 8.20999 45.0506ZM33.47 48.4506C33.41 48.4506 33.37 48.2006 33.28 48.1606C33.35 48.3106 33.57 48.7006 33.47 48.4506ZM2.37997 54.5506C2.29997 54.6106 2.14998 54.8506 2.03998 54.9706C2.20998 55.0106 2.52998 54.4206 2.78998 54.0406C2.72998 53.9306 2.58999 54.0306 2.39999 54.2806C2.30999 54.4606 2.48997 54.3606 2.37997 54.5506ZM8.73999 46.5906C8.75999 46.6006 8.85998 46.4406 8.84998 46.4006C8.81998 46.4006 8.77999 46.4906 8.73999 46.5906ZM2.84998 53.2706C2.67998 53.5706 2.64998 53.4806 2.50998 53.6906C2.57998 53.8106 2.28998 54.0406 2.16998 54.2506C2.10998 54.5706 1.75998 55.0206 1.63998 55.3506C1.86998 55.0206 2.05 54.8706 2.34 54.3806C2.37 54.1606 2.90998 53.4106 2.84998 53.2706ZM12.52 39.8906C12.68 39.6906 12.84 39.4806 12.92 39.2406C12.66 39.6106 12.59 39.6606 12.34 40.1606C12.23 40.2206 11.82 40.8806 11.91 40.9206C12.09 40.7306 12.35 40.1706 12.52 39.8906ZM11.94 40.2606C11.92 40.2506 11.82 40.4006 11.83 40.4506C11.89 40.3406 11.94 40.3206 11.94 40.2606ZM14.64 36.1606L14.41 36.5406C14.46 36.6106 14.75 36.1606 14.64 36.1606ZM36.71 56.9306C36.98 56.9306 37.23 56.9406 37.38 56.9606C37.52 56.9506 37.65 56.9406 37.75 56.9206C38.01 56.9406 38.15 56.9306 38.3 56.9306L38.1 56.8206C38 56.8206 37.9 56.8106 37.79 56.8106C37.65 56.8106 37.72 56.8306 37.61 56.8306C37.18 56.8006 37.14 56.8406 36.67 56.8306C36.14 56.7906 35.79 56.8306 35.14 56.7806C35.12 56.8006 35.03 56.8006 34.85 56.8006C34.25 56.7806 33.88 56.7906 33.49 56.8006C32.94 56.7606 32.56 56.8006 32.16 56.7406C31.84 56.7306 31.86 56.7606 31.54 56.7506C31.08 56.7006 30.59 56.7006 30.11 56.7106C30.02 56.6906 29.94 56.6606 29.88 56.6406C29.65 56.6106 29.2 56.6006 29.16 56.5406C28.81 56.5606 28.89 56.5206 28.5 56.5006C28.19 56.5906 26.86 56.5106 26.24 56.5506C26.06 56.5506 25.95 56.5306 25.89 56.5106C25.37 56.5406 24.71 56.4806 23.99 56.4906C23.49 56.4106 22.94 56.4606 22.37 56.4106C22.24 56.3506 22.71 56.3906 22.65 56.3406C22.19 56.3306 22.16 56.2406 21.56 56.2506C21.4 56.2106 21.17 56.1906 20.9 56.1706C20.78 56.2206 20.51 56.1606 20.18 56.1906C19.86 56.2006 19.78 56.1606 19.53 56.1506C19.55 56.1806 19.47 56.2006 19.35 56.2106C19.22 56.1706 18.92 56.1606 18.79 56.1106C18.25 56.1006 17.95 56.0606 17.61 56.0206C17.35 56.0106 17.3 56.0406 17.1 56.0506C17.02 56.0006 16.69 55.9906 16.45 55.9706C16.13 56.0006 16.01 55.9506 15.62 55.9706C15.18 55.9106 14.28 55.8406 13.72 55.8806C13.75 55.8106 13.24 55.8506 13.18 55.8006C12.87 55.7906 12.87 55.8406 12.56 55.8306C11.48 55.6906 10.16 55.7906 9.20999 55.6706C8.93999 55.6706 8.9 55.7306 8.59 55.7306C8.42 55.7006 7.97999 55.7406 7.54999 55.7106C7.07999 55.6506 6.27999 55.6806 5.76999 55.6906C5.46999 55.6806 4.93999 55.5706 4.82999 55.6606C4.87999 55.7606 5.46998 55.7406 5.44998 55.8506C5.16998 55.8506 4.88999 55.8406 4.60999 55.8406C4.24999 55.7306 4.07998 55.7306 3.56998 55.6606C2.90998 55.7206 2.36 55.6406 1.78 55.7206C1.58 55.7006 1.39999 55.6806 1.14999 55.6706C1.09999 55.6806 1.03999 55.6906 0.98999 55.7006L2.45999 58.2806C2.51999 58.1406 2.59999 57.9706 2.73999 57.7406C3.02999 57.3706 3.13999 57.1706 3.48999 56.5406C3.71999 56.2306 4.08998 55.5706 4.31998 55.2606C4.30998 55.1706 4.48998 54.8806 4.59998 54.6606C4.71998 54.5406 4.97998 54.0206 5.00998 54.1606C5.22998 53.7406 5.23998 53.7806 5.47998 53.4306C5.58998 53.2406 5.53999 53.2106 5.64999 53.0106C5.79999 52.8306 5.87998 52.5206 6.19998 52.0606C6.23998 51.9506 6.15 51.9806 6.31 51.7306C6.36 51.8206 6.50997 51.3806 6.68997 51.2006C6.82997 50.8906 7.09999 50.4306 7.23999 50.1106C7.44999 49.8406 7.77998 49.2406 8.00998 48.9206C8.10998 48.6406 8.2 48.5606 8.37 48.2306C8.41 48.0406 8.40999 47.8906 8.57999 47.5706C8.67999 47.5306 8.84997 47.3106 8.96997 47.1906C9.29997 46.5806 9.68998 45.8306 10.1 45.3206C10.25 44.8806 10.56 44.6006 10.85 44.1206C10.96 43.7406 11.29 43.2206 11.6 42.7806C12.02 42.0206 12.38 41.4906 12.87 40.7306C13 40.5106 12.91 40.5106 13.1 40.2206C13.24 39.9706 13.68 39.2306 13.91 38.9206C14.18 38.2806 14.8 37.5206 15.12 36.8306C15.19 36.8206 15.41 36.3706 15.53 36.1906C15.84 35.5806 16.28 34.9306 16.51 34.6106C16.62 34.3906 16.73 34.1506 16.85 33.9106C17.37 33.0006 17.76 32.3806 18.32 31.4806C18.65 31.0506 18.63 31.0206 18.96 30.4606C19.1 30.2406 19.2 30.1306 19.38 29.8206C19.48 29.5306 19.83 28.9806 20.13 28.4806C20.15 28.5006 20.2 28.4706 20.24 28.4306C20.64 27.7806 20.93 27.3706 21.26 26.7506C21.26 26.9506 21.5 26.4706 21.6 26.3606H18.47C18.47 26.3706 18.47 26.3706 18.48 26.3806C18.55 26.3506 18.67 26.5006 18.8 26.6906C19.08 27.3206 19.71 28.0506 19.77 28.4206C19.95 28.7406 20.02 28.6906 20.18 28.9306C20.15 28.9806 20.39 29.3306 20.38 29.4006C20.66 29.8006 20.65 29.7006 20.93 30.1906C21.09 30.4506 21.04 30.4806 21.2 30.7406C21.31 30.8706 21.36 30.9606 21.41 31.1006C21.45 31.1006 21.48 31.1106 21.56 31.2706C21.69 31.4906 21.82 31.7006 21.86 31.8106C21.94 31.8806 22.02 31.9306 22.15 32.1506C22.12 32.2006 22.41 32.5906 22.5 32.7806C22.72 33.0406 22.77 33.1706 23.01 33.5806C23.17 33.7606 23.22 33.8306 23.36 34.1106C23.47 34.2906 23.49 34.2106 23.62 34.4606C24.08 35.2906 24.48 35.7806 24.97 36.5006C25.37 37.1806 25.61 37.6106 26.03 38.1906C26.23 38.6606 26.44 38.8006 26.72 39.3506C27.12 39.7606 27.29 40.1906 27.81 40.8706C27.68 40.7706 27.89 41.0606 27.98 41.2206C27.89 41.1906 28.12 41.5306 28.16 41.6506C28.3 41.7306 28.63 42.3406 28.82 42.5506C28.88 42.6806 28.93 42.7706 28.99 42.9006C29.02 42.8506 29.15 43.0906 29.23 43.1806C29.32 43.4206 29.54 43.6506 29.7 43.9006C29.8 44.1006 29.86 44.1406 29.93 44.3406C30 44.3506 30.25 44.7706 30.29 44.8806C30.34 44.9206 30.41 45.0106 30.51 45.1606C30.84 45.7006 30.96 45.9006 31.33 46.4906C31.45 46.6606 31.53 46.7306 31.66 46.9506C31.73 47.0606 31.71 47.0606 31.8 47.2106C31.98 47.4306 32 47.4606 32.08 47.6606C32.32 47.9606 32.65 48.4906 32.91 48.8606C33.18 49.3106 33.16 49.2706 33.45 49.7506C33.67 50.0206 34.01 50.6006 34.23 50.8706C34.38 51.1706 34.75 51.6806 34.96 51.9706C35.12 52.2806 35.33 52.5306 35.57 52.8906C35.92 53.4306 36.1 53.7506 36.32 54.1306C36.58 54.4706 36.98 55.1206 37.22 55.5106C37.46 55.8406 37.76 56.3106 38.09 56.8406L38.29 56.9506C38.19 56.7906 38.07 56.6206 37.88 56.3106C37.68 56.0306 37.43 55.6406 37.19 55.2606C36.98 54.8906 36.67 54.4106 36.52 54.1106C36.26 53.7306 36.05 53.4306 35.8 53.0606C35.65 52.8206 35.45 52.5206 35.51 52.5406C35.15 52.0206 35.17 51.9306 34.98 51.5806C34.88 51.5006 34.66 51.1206 34.52 50.9106C34.45 50.7906 34.47 50.7906 34.37 50.6506C34.09 50.2806 33.55 49.3206 33.39 49.0906C33.46 49.2006 33.52 49.3006 33.45 49.2506C33.19 48.8906 33.28 48.9406 33.19 48.7306C33.04 48.5106 32.9 48.3006 32.72 47.9906C32.57 47.6506 32.15 47.0906 32.17 46.9406C32.46 47.4106 32.63 47.5606 32.91 47.9806C33.04 48.2706 33.33 48.6406 33.58 49.0806C33.82 49.3706 34.12 49.8306 34.4 50.2406C34.4 50.2906 34.55 50.5106 34.38 50.3006C34.54 50.5806 34.58 50.5406 34.76 50.8706C34.88 51.0806 34.78 51.0106 34.97 51.3006C35.02 51.3606 35.08 51.4206 35.15 51.5206C35.4 51.9106 35.81 52.5006 35.95 52.7506C36.08 52.9206 36.23 53.1306 36.38 53.3506C36.56 53.7206 36.98 54.2806 37.06 54.5306C37.23 54.7406 37.58 55.3606 37.77 55.6006C37.79 55.7906 38.33 56.4706 38.38 56.6706C38.51 56.8506 38.62 57.0206 38.75 57.2006L38.82 57.2406L38.81 57.2306C38.64 57.0106 38.12 56.2006 38.06 56.0106C38.16 56.0806 38.51 56.7406 38.72 57.0606C38.78 57.1606 38.81 57.2106 38.85 57.2606L39.57 57.6706C39.47 57.4906 39.37 57.3006 39.27 57.1106C39.12 56.9006 39.04 56.7806 38.93 56.5906C38.72 56.2306 38.43 55.7106 38.19 55.3406C37.95 54.8806 37.19 53.6506 36.9 53.0706C36.81 52.9606 36.71 52.7906 36.61 52.6606C36.58 52.5006 36.3 52.1106 36.12 51.8006C36.04 51.6406 36.03 51.5606 35.92 51.3606C35.77 51.0706 35.75 51.1506 35.6 50.8606C35.06 49.8906 34.02 48.2706 33.68 47.5306C33.57 47.4106 33.32 46.9306 33.16 46.6606C33.1 46.6006 33.05 46.5406 32.97 46.4506C32.8 46.0606 32.51 45.6206 32.14 44.9406C32.07 44.8106 32.05 44.8406 31.98 44.7406C31.87 44.4706 31.68 44.1606 31.51 43.8906C31.72 44.0306 31.43 43.7006 31.53 43.7206C31.73 44.0306 31.58 43.9106 31.68 44.0906C31.73 43.9806 31.86 44.2806 32 44.4906C32.04 44.5406 32.08 44.5006 32.16 44.6906C32.35 44.9906 32.34 45.0606 32.44 45.2606C32.48 45.2506 32.56 45.3606 32.68 45.5606C32.73 45.6806 32.8 45.8406 32.83 45.9306C33.09 46.3306 33.09 46.3306 33.35 46.8006C33.6 47.1506 33.85 47.5406 34.04 47.7206C34 47.7506 34.25 48.1806 34.33 48.3606C34.4 48.4806 34.44 48.5006 34.52 48.6606C34.57 48.7806 34.64 48.9306 34.67 49.0206C34.99 49.5506 34.89 49.4706 35.24 49.9906C35.38 50.2706 35.51 50.5406 35.71 50.8406L35.64 50.8106C35.75 51.0106 36.06 51.3906 35.97 51.3806C36.15 51.7106 36.19 51.6506 36.37 51.9906C36.48 52.1706 36.46 52.1906 36.56 52.3606C36.75 52.6306 37.04 53.1506 37.23 53.4406C37.17 53.4506 37.46 53.8206 37.51 53.9906C37.9 54.5706 38.28 55.2706 38.61 55.7706C38.85 56.1606 38.9 56.3006 39.08 56.6106C39.19 56.7606 39.34 57.0206 39.44 57.1406C39.54 57.3506 39.66 57.5606 39.78 57.7706L40.01 57.9006C39.82 57.5806 39.65 57.2806 39.51 57.0606C39.49 56.9206 39.13 56.4006 39.11 56.2506C38.86 55.8606 38.63 55.4106 38.48 55.1106C38.33 54.8806 38.49 55.2006 38.36 54.9706C38.27 54.8106 38.39 54.9506 38.32 54.8206C38.19 54.6706 38.04 54.3206 37.94 54.1406C37.9 54.1106 37.88 54.1206 37.82 54.0106C37.79 53.8606 37.49 53.4406 37.38 53.1606C37.23 53.0306 36.88 52.3506 36.67 52.0406C36.6 52.0006 36.52 51.9406 36.33 51.6006C36.37 51.5906 36.48 51.8006 36.5 51.7506C36.32 51.3906 36.38 51.6706 36.24 51.4206L36.15 51.1606C35.84 50.6806 35.53 50.2006 35.24 49.7506C35.15 49.5606 35.25 49.6206 35.06 49.3006C34.68 48.7106 34.26 47.9806 33.92 47.3506C33.84 47.3006 33.76 47.2206 33.63 47.0206C33.61 46.9006 33.4 46.5306 33.37 46.3806C33.25 46.4206 32.85 45.5906 32.65 45.3706C32.55 45.0806 32.36 44.8406 32.07 44.3206C31.98 44.1406 31.99 44.0906 31.84 43.8506C31.63 43.6806 31.36 43.1106 31.21 42.7806C31.16 42.7606 31.14 42.8006 31.05 42.6706C30.93 42.4306 30.9 42.3906 30.85 42.2006C30.6 41.8406 30.58 41.7506 30.33 41.4206C30.42 41.6206 30.56 41.8706 30.51 41.8906C30.13 41.2406 30.5 41.9506 30.38 41.8806C30.24 41.7206 30.03 41.3206 29.86 41.0206C30.01 41.0306 29.67 40.5906 29.49 40.1606C29.33 39.9406 29.23 39.9306 29.06 39.6706C29.04 39.5806 29.04 39.5206 28.99 39.3906C28.96 39.4206 28.83 39.1106 28.85 39.1006L28.52 38.5206C28.43 38.2306 27.97 37.4906 27.87 37.1706C27.62 36.8306 27.46 36.4506 27.25 36.0106C27.11 35.7606 27.11 35.9406 26.95 35.6306C26.82 35.2606 27.13 35.5806 27.18 35.4006C27.08 35.1306 27.08 34.9806 26.96 34.7006C26.75 34.4106 26.44 33.8906 26.28 33.5306C26.06 33.1406 25.92 32.9906 25.69 32.5606C25.59 32.3506 25.6 32.2606 25.42 31.9606C25.37 32.0206 25.21 31.7306 25.1 31.5906C24.8 31.0206 24.64 30.8906 24.41 30.5306C24.26 30.2206 24.25 30.2706 24.15 30.0406C23.98 29.8506 23.81 29.6606 23.58 29.3006C23.29 28.6506 22.94 28.3206 22.64 27.8706C22.5 27.6106 22.49 27.4806 22.39 27.2606C22.35 27.2506 22.24 27.1206 22.25 27.0706C22.06 26.7506 21.98 26.7706 21.79 26.4206C21.86 26.2906 21.51 25.8806 21.27 25.4406C21.18 25.4306 21.06 25.3206 20.91 25.1106C20.88 25.0506 20.85 24.9906 20.83 24.9606L20.12 23.6406L19.28 24.9606C18.91 25.5506 18.91 25.7406 18.58 26.2706C18.61 26.3106 18.6 26.3806 18.54 26.5206C18.13 26.9906 17.72 27.8606 17.5 28.3306C17.42 28.4006 17.38 28.3606 17.26 28.5506C17.2 28.7206 17.17 28.8506 17.05 29.0806C16.95 29.1806 16.78 29.4706 16.63 29.7206C16.47 30.0406 16.39 30.1306 16.29 30.4206C16.26 30.4206 16.18 30.5506 16.1 30.6906C16.08 30.8606 15.78 31.2606 15.74 31.5106C15.57 31.7906 15.6 31.8706 15.46 32.1206C15.42 32.1006 15.29 32.4506 15.12 32.6806C15.09 32.6706 15.17 32.5206 15.08 32.6506C15.09 32.7206 14.81 33.0306 14.74 33.0706C14.51 33.4906 14.39 33.5706 14.16 33.9906C14.1 34.2206 13.87 34.6206 13.59 35.0606C13.52 35.2706 13.4 35.5406 13.21 35.8706C13.2 35.8206 13.25 35.7106 13.19 35.7206C12.87 36.2706 12.46 36.9406 12.19 37.2806C12.19 37.3406 12.16 37.4306 12.06 37.5906C11.77 37.9006 11.77 38.1006 11.48 38.5106C11.4 38.7306 11.21 39.0706 11.1 39.3206C10.91 39.6506 10.54 40.1806 10.57 40.2806C10.74 40.0806 11.05 39.5006 11.23 39.2806C11.37 39.0406 11.24 39.0906 11.38 38.8506C11.45 38.8806 11.6 38.6706 11.72 38.5606C11.95 38.1706 11.74 38.2406 12 37.8206C12.07 37.9106 12.33 37.4606 12.4 37.5806C12.39 37.6606 12.36 37.7606 12.29 37.9106C12.02 38.2006 11.98 38.4406 11.74 38.8606C11.7 38.7306 11.41 39.3206 11.31 39.3506C10.91 40.0506 10.32 40.7706 10.33 41.0606C10.61 40.7406 11.02 39.7706 11.23 39.7006C10.92 40.2306 10.7 40.4806 10.64 40.7606C10.5 40.9706 10.31 41.2106 10.24 41.4106C10.17 41.4406 10.13 41.4006 10.03 41.5206C9.98 41.7706 9.72999 42.1106 9.57999 42.4106C9.58999 42.5406 9.72998 42.3106 9.78998 42.3006C9.52998 42.6806 9.69999 42.6006 9.57999 42.8306C9.36999 42.9506 9.44998 43.1106 9.25998 43.4106C9.16998 43.3706 8.84997 43.9406 8.93997 43.5706C8.79997 43.7606 8.53998 44.2106 8.31998 44.4606C8.24998 44.6206 8.28999 44.6506 8.14999 44.8806C8.11999 44.8706 8.09 44.8706 8 45.0406C8.14 44.9906 8.43999 44.4706 8.54999 44.5006C8.65999 44.3406 8.72999 44.0706 8.82999 44.0306C8.77999 44.2106 8.58998 44.4506 8.44998 44.7006C8.38998 44.8106 8.37998 44.9106 8.31998 45.0106C8.20998 45.2006 8.15 45.1506 8.06 45.3506C8.04 45.4506 8.02998 45.5406 7.88998 45.7706C7.63998 46.1106 7.36 46.6606 7.12 47.0906C7.04 47.0406 6.74 47.6306 6.59 47.7806C6.59 47.8106 6.62998 47.8106 6.56998 47.9006C6.32998 48.3306 6.02 48.8406 6.12 48.9206C6.32 48.5806 6.51 48.2706 6.53 48.4206C6.26 48.9006 6.17 48.8706 6 49.2506C5.96 49.2506 5.86999 49.3806 5.82999 49.4006C5.62999 49.7606 5.53999 49.8306 5.35999 50.1306C5.13999 50.5206 4.54999 51.5906 4.20999 51.9906C4.06999 52.2606 3.93999 52.5006 3.79999 52.7706C3.36999 53.3906 2.85 54.4306 2.25 55.2806C2.21 55.4206 2.08998 55.6306 1.94998 55.8706C1.63998 56.3806 1.32998 56.8806 1.00998 57.4106L0.98999 57.3706C2.05999 57.3706 3.19999 57.3606 4.54999 57.3606C4.79999 57.4106 5.02 57.4106 5.31 57.4106C5.47 57.4106 5.72999 57.3806 5.85999 57.3906C6.03999 57.4006 6.04999 57.4506 6.29999 57.4406C6.72999 57.3906 7.17997 57.3406 7.93997 57.3606C8.19997 57.3706 8.14999 57.4406 8.48999 57.4306C9.19999 57.4706 9.60999 57.4006 10.02 57.3906C10.22 57.3906 10.27 57.4106 10.46 57.4206C10.73 57.4206 11.05 57.3606 11.34 57.4306C11.31 57.5406 10.58 57.5106 10.26 57.5606C10.36 57.4706 9.92998 57.4906 9.69998 57.4706C9.29998 57.4806 9.13997 57.5506 8.71997 57.5606C8.26997 57.4506 7.68998 57.5806 7.28998 57.6206C7.24998 57.5906 7.12999 57.5806 7.17999 57.5306C6.43999 57.5606 5.87 57.4306 5.53 57.5206V57.4706C5.04 57.5106 4.95999 57.5206 4.42999 57.5606C4.30999 57.6206 4.14 57.6706 3.87 57.7006C3.67 57.7006 3.70998 57.6406 3.31998 57.6306C3.24998 57.6806 3.1 57.7106 2.87 57.7206C2.66 57.6406 2.69998 57.7106 2.31998 57.7206C2.39998 57.6806 2.10998 57.6206 2.09998 57.6706C2.31998 57.6606 2.06998 57.7406 1.97998 57.7406C1.56998 57.7606 0.899971 57.7206 1.21997 57.6606C1.52997 57.6606 1.43 57.7406 1.87 57.7106L1.87997 57.5706C1.52997 57.5906 1.24997 57.5806 0.969971 57.5706L0.689972 57.5506L0.839996 57.3306C0.979996 57.1306 1.12 56.9506 1.28 56.7506C1.17 56.7006 1.55 56.1306 1.37 56.1306C1.08 56.5906 1.06999 56.8006 0.799988 57.0706C0.689988 56.8306 1.6 55.7406 1.56 55.4506C1.23 55.9506 0.969994 56.3306 0.649994 56.8106L0.47998 57.1206L0 58.0206L0.959991 57.9606C1.66999 57.9206 2.36997 57.8306 3.15997 57.9006C3.25997 57.8706 3.51997 57.8706 3.71997 57.8606C4.43997 57.9006 5.15998 57.9506 5.81998 57.9906C5.78998 57.9306 5.85999 57.8906 6.14999 57.9006C6.41999 58.0106 6.89998 57.9006 7.25998 57.8806C7.57998 57.8906 7.60998 57.9606 8.03998 57.9506C8.24998 57.9306 8.49 57.9206 8.59 57.8806C9.86 57.8506 11.09 57.9006 12.81 57.8706C12.93 57.8006 13.86 57.8206 14.03 57.8706C13.92 57.7906 14.55 57.8406 14.8 57.8306C15.01 57.8406 15.09 57.8806 15.37 57.8706C15.65 57.8706 15.7 57.8406 15.91 57.8306C16.14 57.8806 16.7 57.7906 17.03 57.8506C17.07 57.8206 17.16 57.8106 17.35 57.8106C17.46 57.8806 17.96 57.8106 18.26 57.8706C18.67 57.8406 19.35 57.7806 19.7 57.8506C19.97 57.8606 19.93 57.8106 20.25 57.8306C20.51 57.8306 20.59 57.8606 20.93 57.8506C21.15 57.8506 21.05 57.7906 21.36 57.8106C22.46 57.8706 23.06 57.8006 24.27 57.8406C24.9 57.8006 25.39 57.8206 25.84 57.8506C25.99 57.8406 26.03 57.8206 26.27 57.8306C26.63 57.8406 26.77 57.8806 27.2 57.8806C27.46 57.8506 27.65 57.8106 28.04 57.8006C28.55 57.7906 28.81 57.8306 29.29 57.8306C30.81 57.7806 31.73 57.8106 32.88 57.7306C32.75 57.6506 33.34 57.6606 33.17 57.5806L33.12 57.5706H33.69C33.67 57.6606 34.25 57.6506 34.49 57.7006C34.86 57.6906 35.09 57.6706 35.2 57.6406C35.45 57.6606 35.34 57.6406 35.64 57.6406C35.64 57.6706 35.72 57.6906 35.83 57.7106C36.11 57.6906 36.25 57.7306 36.53 57.7306C36.91 57.7206 37.35 57.7106 37.71 57.7006C37.97 57.7106 38.13 57.7106 38.41 57.7206C38.8 57.6906 39.19 57.6906 39.6 57.7006L38.88 57.2906C38.85 57.2906 38.83 57.2906 38.79 57.2906C38.37 57.2606 38.42 57.3206 38.02 57.2806C37.99 57.2406 38.52 57.2606 38.85 57.2606L38.78 57.2206C38.69 57.2206 38.61 57.2306 38.5 57.2306C38.3 57.2106 37.97 57.2306 37.52 57.2206C37.37 57.2206 37.45 57.2406 37.33 57.2406C36.95 57.2206 35.75 57.2406 35.08 57.2606C34.75 57.2306 34.05 57.2006 34 57.2606C34.24 57.2606 34.36 57.2706 34.38 57.3006C34.08 57.3006 33.42 57.3406 33.28 57.2906C33.32 57.2606 33.9 57.2906 33.76 57.2406C33.33 57.2006 32.76 57.2706 32.23 57.2206C32.04 57.2606 31.69 57.2806 31.35 57.3006L31.23 57.2806C30.37 57.3406 28.46 57.2306 26.99 57.2806C26.62 57.2506 25.95 57.2606 25.55 57.2306C25.28 57.2206 25.23 57.2606 25.03 57.2606C24.53 57.1906 23.99 57.2706 23.58 57.1906C23.21 57.2806 22.19 57.1706 21.64 57.2106C21.31 57.1806 20.85 57.1806 20.55 57.2006C20.46 57.1506 20.12 57.1506 19.87 57.1306C19.14 57.1406 18.91 57.1906 18.35 57.1106C18.32 57.1406 18.23 57.1506 18.04 57.1506C17.94 57.1206 17.85 57.0806 17.58 57.0806C16.91 57.1306 16.55 57.1206 15.76 57.1506C15.55 57.1206 14.92 57.1506 14.76 57.0506C14.37 57.0306 14.51 57.1306 14.12 57.1106C13.97 57.0206 13.12 57.0806 12.91 57.0106C12.86 57.0806 11.78 57.1106 11.61 57.0206C11.77 56.9906 11.93 56.9506 12.14 56.9306C13.18 56.9506 13.4 56.9106 14.19 56.9506C14.34 56.9406 14.46 56.9306 14.61 56.9106C14.96 56.9406 15.07 56.9206 15.49 56.9606C15.94 56.9506 16.23 56.9806 16.48 57.0106C16.6 56.9506 17.05 56.9706 17.34 57.0006C17.43 56.9606 17.74 56.9606 18.08 56.9706C18.29 56.9706 18.18 57.0406 18.43 57.0406C18.7 57.0206 19.17 57.0206 19.63 57.0506C20.11 57.0006 20.89 57.0106 21.54 56.9906C22.25 57.0206 22.87 57.0406 23.13 56.9506C23.16 56.9706 23.15 56.9906 23.26 56.9906C23.33 56.9906 23.39 56.9906 23.36 56.9706C23.22 56.9206 22.67 56.9406 22.46 56.9006C22.66 56.8606 22.11 56.8406 22.52 56.8106C22.73 56.8306 23.04 56.8406 23.3 56.8606C23.46 56.8506 23.43 56.8006 23.7 56.8106C24.03 56.8006 24.05 56.8506 24.26 56.8606C24.36 56.8106 24.82 56.8706 25.02 56.8706C25.41 56.7906 26.1 56.8106 27.02 56.8406C27.33 56.8306 27.61 56.8206 27.91 56.8306C27.83 56.8506 27.75 56.8606 27.67 56.8806C27.84 56.8706 28.17 56.9206 27.91 56.9206C27.95 56.9506 28.28 56.9406 28.28 56.9806L28.33 57.0506L28.98 57.0606C29.03 57.0106 29.35 57.0106 29.1 56.9506C29.52 56.8906 30.84 56.9506 31.41 56.9206C31.73 56.9206 31.76 56.9506 32.08 56.9506C32.35 56.9406 32.52 56.9306 32.79 56.9206C33.32 56.9506 34.12 56.9306 34.59 56.9206C35.11 56.9306 35.88 56.9606 36.2 56.9406C36.27 56.9106 35.79 56.8706 36.1 56.8606C36.45 56.8606 36.53 56.9006 36.71 56.9306ZM33.75 49.9006C33.71 49.8706 33.68 49.8006 33.69 49.8106C33.73 49.8406 33.77 49.9006 33.75 49.9006ZM38.98 57.0906L38.89 57.0306C38.69 56.7206 38.75 56.7606 38.66 56.5906C38.74 56.6906 38.85 56.8606 38.98 57.0906ZM38.87 57.1306C38.62 56.8006 38.49 56.5406 38.19 56.0606C38.22 56.0706 38.31 56.2006 38.34 56.2106C38.49 56.5106 38.71 56.8106 38.87 57.1306ZM37.85 55.2006C37.94 55.3606 37.96 55.3906 38.05 55.5606C38.22 55.8506 38.28 55.8706 38.48 56.2406C38.48 56.3106 38.43 56.2606 38.29 56.0606C38.07 55.6306 37.74 55.0706 37.35 54.4706C37.46 54.5706 37.71 55.0106 37.85 55.2006ZM37.35 54.7306C37.22 54.5306 37.22 54.4906 37.15 54.3706C37.17 54.3606 37.5 54.9106 37.35 54.7306ZM36.94 53.6206C37.14 53.9706 37.35 54.3406 37.27 54.3106C37.13 54.0706 37.03 53.9606 36.92 53.8106C36.68 53.4306 36.82 53.5606 36.58 53.1806C36.63 53.1506 36.87 53.5906 36.94 53.6206ZM36.34 53.0506C36.32 53.0406 36.25 52.9306 36.2 52.8506C36.23 52.8706 36.29 52.9806 36.34 53.0506ZM36.19 52.5206C36.21 52.5606 36.12 52.4406 36.11 52.4206C36.09 52.3706 36.18 52.4906 36.19 52.5206ZM35.88 52.3706C35.66 52.0906 35.87 52.2006 35.88 52.3706V52.3706ZM35.83 51.9406C35.85 51.9806 35.76 51.8606 35.75 51.8306C35.74 51.8006 35.82 51.9206 35.83 51.9406ZM34.75 49.0506C34.77 49.0906 34.68 48.9706 34.67 48.9406C34.66 48.8906 34.75 49.0206 34.75 49.0506ZM25.63 36.5306C25.24 36.0706 25.54 36.1706 25.63 36.5306V36.5306ZM25.66 36.7206C25.69 36.7206 25.75 36.8306 25.79 36.9006C25.77 36.9006 25.71 36.7906 25.66 36.7206ZM26.02 37.2606C26.06 37.2806 26.09 37.3506 26.07 37.3506C26.03 37.3406 26 37.2606 26.02 37.2606ZM30.93 45.5406C30.76 45.1706 30.42 44.7806 30.12 44.2806C30.06 44.2006 30 44.1206 29.96 44.0906C29.74 43.6606 29.35 43.0306 29.03 42.4906C28.9 42.2706 28.79 42.1206 28.7 42.0406C28.59 41.7806 28.21 41.2006 28.14 40.9706C27.78 40.5306 27.57 40.0906 27.19 39.6206C27.1 39.4506 27.16 39.4606 26.96 39.1706C26.92 39.0206 27 39.1806 27.06 39.1706C26.6 38.4806 26.67 38.3506 26.29 37.8206C26.35 37.7406 26.64 38.3806 26.75 38.4506C27 38.8406 27.16 39.2206 27.47 39.6306C27.58 39.8206 27.51 39.8106 27.62 39.9906C27.79 40.2406 28.26 40.9506 28.37 41.2506C28.8 41.8106 29.13 42.5206 29.55 43.0606C29.75 43.3506 29.6 43.2406 29.7 43.4106C29.84 43.6206 29.97 43.8006 30.05 43.8706C30.13 44.0406 30.27 44.2906 30.36 44.4906C30.59 44.8106 30.89 45.3206 31.17 45.7606C31.27 45.9306 31.34 46.0606 31.34 46.1106C31.45 46.3006 31.59 46.4106 31.48 46.3706C31.28 46.0306 31.06 45.6506 30.93 45.5406ZM31.77 46.2806C31.84 46.3406 31.83 46.3806 31.8 46.3606C31.73 46.3106 31.74 46.2706 31.77 46.2806ZM32.39 47.6606C32.5 47.8606 32.46 47.8806 32.57 48.0806C32.35 47.8206 32.22 47.5606 31.98 47.1706C32.07 47.1806 32.31 47.6406 32.39 47.6606ZM31.98 47.0906C31.73 46.8406 31.76 46.6506 31.98 47.0906V47.0906ZM35.69 51.6706C35.63 51.6106 35.64 51.5906 35.58 51.4806C35.62 51.5206 35.71 51.6806 35.69 51.6706ZM31.44 43.5306C31.24 43.2206 31.31 43.2406 31.21 43.0606C31.28 43.0806 31.54 43.6006 31.44 43.5306ZM31.25 43.1406C31.23 43.3006 31.05 43.0006 30.93 42.8306C30.81 42.6006 30.9 42.6306 30.92 42.5606L31.25 43.1406ZM26.32 36.4806C26.45 36.8006 26.74 37.2806 27.01 37.6906C27.05 37.8506 26.97 37.6806 26.91 37.6906C27.18 38.1106 27.4 38.3906 27.61 38.6106C27.79 38.9806 28.36 39.9706 28.55 40.1006C28.57 40.3106 28.92 40.6006 28.81 40.6506C28.93 40.8306 29 40.8906 29.14 41.1206C29.04 41.0506 29.21 41.3106 29.23 41.3906C29.4 41.6706 29.73 42.0706 29.81 42.3206C29.93 42.5106 29.99 42.5106 30.11 42.7006C30.29 43.1006 30.65 43.5106 30.75 43.8106C31.19 44.4406 31.75 45.3906 32.26 46.0806C32.39 46.2906 32.46 46.4306 32.43 46.4406C32.67 46.7506 32.75 47.0206 33.04 47.4606L32.99 47.4506C33.28 47.8506 33.47 48.2406 33.71 48.5806C33.81 48.7406 33.84 48.8106 33.83 48.8406C33.91 48.9706 33.96 49.0006 34.05 49.1406C34.29 49.6006 34.63 50.0906 34.91 50.5406C35.12 50.9906 35.29 51.1506 35.47 51.5406C35.33 51.4706 34.83 50.7006 34.63 50.2806C34.46 50.1206 33.88 49.1806 33.83 48.9706C33.58 48.6706 33.25 48.1406 33.02 47.8906C32.81 47.5706 32.8 47.4906 32.81 47.4506C32.49 46.9906 32.23 46.6806 31.93 46.1306C31.88 46.0406 31.86 46.0506 31.83 46.0306C31.65 45.7106 31.7 45.8106 31.52 45.4906C31.55 45.4706 31.61 45.5306 31.7 45.6906C31.55 45.3506 31.49 45.2606 31.3 44.8806C31.2 44.7006 31.12 44.5906 31.08 44.5906C31.01 44.3906 30.94 44.3006 30.72 43.9506C30.67 43.9606 30.16 43.2106 30.4 43.6506C30.32 43.6006 30.13 43.2306 30.29 43.3806C30.04 43.1206 29.97 42.7806 29.65 42.3606C29.51 42.1306 29.52 42.0806 29.42 41.9106C29.29 41.7306 29.12 41.4606 29.07 41.5306C28.88 41.2206 28.61 40.8606 28.6 40.7006C28.3 40.3106 28.05 39.7806 27.77 39.3206C27.78 39.2106 27.84 39.3006 27.98 39.4206C28 39.3006 27.81 39.1206 27.7 38.8706C27.44 38.4706 27.29 38.3706 27.02 37.9406C26.94 37.8306 26.88 37.7506 26.84 37.7606C26.74 37.5706 26.68 37.5206 26.59 37.3906C26.43 37.1206 26.47 37.0706 26.33 36.8306C26.07 36.4306 25.92 36.2706 25.7 35.8106C25.93 36.1706 26.12 36.2906 26.32 36.4806ZM25.35 36.0806C25.26 36.0106 25.07 35.7706 25.03 35.6306C25.11 35.7006 25.22 35.8506 25.35 36.0806ZM25.1 35.5206L25.03 35.5306C24.83 35.2706 24.97 35.2506 25.1 35.5206ZM24.59 34.8006L24.52 34.8106C24.38 34.6506 24.08 34.1506 24.19 34.1606C24.02 33.9206 23.83 33.6106 23.62 33.2506C23.89 33.5206 24.36 34.3206 24.59 34.8006ZM21.21 29.3506C20.83 28.5806 20.55 28.3706 20.11 27.6306C20.17 27.6506 20.11 27.5406 20.05 27.4306C20.21 27.5006 20.48 27.9806 20.7 28.3106C20.76 28.3806 20.88 28.5406 20.91 28.5706C21.07 28.8106 21.22 29.1506 21.4 29.4006C21.37 29.4306 21.57 29.7206 21.57 29.7806C21.52 29.8706 21.32 29.4706 21.21 29.3506ZM21.58 29.8806C21.64 29.9106 21.63 29.9606 21.69 30.0606C21.64 30.0506 21.55 29.8906 21.58 29.8806ZM22 30.7306C22.07 30.6706 22.23 30.9306 22.39 31.1606C22.39 31.2106 22.4 31.2506 22.45 31.3506C22.35 31.2906 22.19 31.0806 22 30.7306ZM21.16 27.6906C21.41 28.0206 21.44 28.1406 21.67 28.4206C21.91 28.9306 22.12 29.0306 22.26 29.4606C22.85 30.3106 23.42 31.4106 24.02 32.3506L23.9 32.3806C23.72 32.0506 23.6 31.9006 23.5 31.8406C23.37 31.6206 23.38 31.5606 23.19 31.2706C23.1 31.1406 23.02 31.0506 22.95 31.0106C22.72 30.6606 22.85 30.7006 22.69 30.4306C22.22 29.7206 21.7 28.9006 21.45 28.2706C21.34 28.0806 21.32 28.1706 21.18 27.9106C21.1 27.6606 20.58 26.9206 20.59 26.7606C20.74 26.9806 21.07 27.4506 21.16 27.6906ZM19.33 26.1306C19.61 26.5606 19.64 26.7406 19.9 27.1506C19.78 27.2106 19.38 26.3406 19.19 26.1906C19.15 26.1206 19.11 26.0506 19.08 26.0006H21C20.86 26.2306 20.75 26.3406 20.7 26.3106C20.84 26.1206 20.88 26.0506 20.91 25.9506H19.16C19.22 25.9806 19.27 26.0306 19.33 26.1306ZM19.54 28.1406C19.55 28.1806 19.45 28.3406 19.43 28.3306C19.47 28.2406 19.51 28.1506 19.54 28.1406ZM19.47 28.3606C19.66 28.0906 19.89 27.6406 20.21 27.1406C20.33 26.9206 20.51 26.5506 20.66 26.3906C20.64 26.5006 20.45 26.7906 20.58 26.7406C20.34 27.2106 20.28 27.3306 19.92 27.8806L19.88 27.8506C19.64 28.2506 19.45 28.4806 19.18 28.9606C19.06 29.0006 19.47 28.4606 19.47 28.3606ZM18.41 30.1506C18.65 29.7106 18.76 29.6506 18.96 29.3406C18.84 29.6806 18.7 29.9806 18.34 30.5106C18.27 30.4806 18.46 30.1906 18.41 30.1506ZM7.15997 49.4806C6.93997 49.8906 6.77 50.1406 6.59 50.5506L6.64999 50.5906C6.47999 50.8906 6.45 50.8006 6.31 51.0106C6.29 50.9006 6.44998 50.8206 6.53998 50.6306C6.43998 50.6506 6.45998 50.6706 6.44998 50.5606C6.63998 50.2906 6.57999 50.2606 6.76999 49.9806C6.78999 50.1306 7.25999 49.1006 7.42999 48.9806C7.56999 48.9006 7.17997 49.5206 7.15997 49.4806ZM8.26999 47.6006C8.15999 47.7906 8.09 47.8906 8.06 47.8506L8.22998 47.5706L8.26999 47.6006ZM8.59998 44.8106C8.57998 44.9106 8.43998 45.1306 8.34998 45.3106C8.41998 45.1506 8.42998 44.9906 8.59998 44.8106ZM7.56 46.6206C7.71 46.3506 7.67999 46.5906 7.79999 46.4006C7.73999 46.5806 7.34998 47.1406 7.28998 47.1106C7.43998 46.8106 7.67 46.6406 7.56 46.6206ZM7.23999 47.2006L7.28 47.2306C7.17 47.4206 7.09998 47.5206 7.06998 47.4806L7.23999 47.2006ZM6.75 47.9206C6.85 47.8006 6.96 47.6406 7 47.7006C6.84 48.0406 6.79 48.0106 6.59 48.3406C6.56 48.2806 6.83 47.9206 6.75 47.9206ZM6.09998 50.4506C6.05998 50.3706 6.09998 50.2306 6.13998 50.0706C6.31998 49.9106 6.37998 49.6906 6.66998 49.2406C6.83998 48.8806 7.03998 48.6606 7.19998 48.2806C7.26998 48.2506 7.46999 47.8306 7.51999 47.8406C7.79999 47.2906 7.97998 47.0006 8.44998 46.2206C8.59998 45.9806 8.76997 45.5506 8.87997 45.4606C8.93997 45.3706 8.89999 45.3706 8.89999 45.3406C8.96999 45.2306 8.97998 45.2906 9.00998 45.2906C9.14998 45.0306 9.26998 44.7906 9.34998 44.5906C9.71998 43.9606 9.94999 43.6306 10.05 43.3406C10.17 43.1206 10.27 42.9806 10.35 42.8906C10.41 42.7806 10.36 42.7806 10.35 42.7506C10.49 42.5406 10.61 42.3606 10.69 42.3306C10.75 42.2206 10.8 42.0706 10.71 42.2106C11.08 41.4806 11.53 40.8606 11.82 40.3206C11.87 40.3006 12.01 40.0406 12.01 40.1906C12.13 40.0106 12.18 39.8906 12.14 39.8806C12.24 39.7606 12.35 39.6006 12.39 39.6606C12.2 40.0206 11.94 40.4506 11.9 40.6606C12.34 40.1306 12.64 39.3506 12.99 38.9006C13.08 38.8706 12.91 39.1206 12.95 39.1506C13.11 39.0406 13.26 38.6906 13.4 38.4006C13.47 38.2606 13.82 37.8406 13.76 37.7206C13.66 37.7706 13.57 38.0806 13.57 38.1206C13.41 38.2106 13.39 38.3206 13.17 38.6406C13.26 38.3806 13.22 38.3506 13.21 38.2606C13.36 38.1606 13.55 37.7706 13.66 37.6506C13.72 37.5006 13.7 37.4206 13.66 37.3706C13.85 37.0906 13.81 37.2606 13.74 37.4306C13.85 37.3106 13.93 37.1506 13.87 37.1206C13.94 37.0106 13.95 37.0706 13.98 37.0706C14.12 36.8606 13.99 36.9206 14.09 36.7406C14.24 36.5106 14.38 36.3306 14.49 36.2306C14.59 35.9706 14.87 35.5406 15 35.2506C15.14 34.9906 15.15 35.1006 15.23 35.0106C15.44 34.5906 15.84 34.0506 16.15 33.5306C16.21 33.4206 16.16 33.4206 16.15 33.3906C16.5 32.9106 16.77 32.4206 17.11 32.0706C17.18 31.9506 17.26 31.8206 17.34 31.7006L17.4 31.7406C17.56 31.3906 17.64 31.4006 17.83 31.1106C17.83 31.3406 17.26 32.1606 17.07 32.5906C16.82 32.9606 16.84 32.9706 16.56 33.4306C16.1 34.1106 15.79 34.6606 15.52 35.2406C15.17 35.7906 15.02 36.0506 14.9 36.4106C14.63 36.8206 14.2 37.5406 14.03 37.9406C13.71 38.3106 13.53 38.7906 13.13 39.3006C13.04 39.5106 12.96 39.7106 12.86 39.9206C12.64 40.1706 12.55 40.4506 12.41 40.6706C12.37 40.7306 12.29 40.7306 12.2 40.9206C12.08 41.1606 11.89 41.4706 11.94 41.5406C11.76 41.8006 11.75 41.8106 11.6 42.1006L11.56 42.0706C11.29 42.6306 11.07 42.9606 10.65 43.5706C10.18 44.4906 9.83 44.9706 9.37 45.7406C9.27 45.8906 9.27998 45.9306 9.28998 45.9606C9.16998 46.0706 8.91999 46.5706 8.79999 46.6806C8.79999 46.7706 8.44998 47.2306 8.56998 47.1906C8.40998 47.4006 8.29997 47.5006 8.18997 47.5806C8.18997 47.4606 8.39999 47.1306 8.29999 47.1206C8.35999 47.0606 8.46998 46.8706 8.50998 46.8706C8.64998 46.5006 8.84999 46.0806 9.20999 45.4906C9.25999 45.5406 9.37998 45.3606 9.50998 45.3106C9.67998 45.0306 9.48998 45.1206 9.56998 44.9406C9.73998 44.6306 9.77998 44.6706 9.88998 44.5006C10.25 43.8806 10.31 43.7706 10.61 43.2706C10.46 43.4006 10.38 43.3306 10.25 43.4006C10.22 43.6706 9.54998 44.4506 9.50998 44.7506C9.20998 45.1006 8.99999 45.7106 8.76999 45.9706C8.70999 46.0906 8.67999 46.1806 8.70999 46.2006C8.28999 46.6906 8.01 47.5706 7.56 48.0606C7.42 48.2706 7.54998 48.2106 7.44998 48.3806C7.11998 48.8406 6.84998 49.3506 6.91998 49.4806C6.64998 49.9406 6.47999 50.2306 6.14999 50.8106C6.14999 50.7806 6.18998 50.7006 6.16998 50.6906C5.99998 51.0606 5.89998 51.1406 5.69998 51.4206C5.70998 51.2306 5.92998 50.8206 6.09998 50.4506ZM4.88998 52.8106C5.21998 52.3506 5.37999 51.9506 5.64999 51.4706C5.64999 51.6906 5.48997 51.9406 5.15997 52.4606C5.04997 52.6506 5.13997 52.6206 4.96997 52.8606L4.88998 52.8106ZM4.70999 53.2206C4.74999 53.1806 4.68998 53.3106 4.66998 53.3306C4.62998 53.3606 4.67999 53.2406 4.70999 53.2206ZM3.88998 55.0606C4.32998 54.4406 4.33998 54.2406 4.69998 53.6306C4.78998 53.5406 4.88997 53.3906 4.90997 53.5206C5.07997 53.3106 5.08997 53.0906 5.18997 53.0506C5.26997 52.9006 5.13997 53.0706 5.12997 53.0006C5.36997 52.5806 5.6 52.1606 5.75 51.8306C5.78 51.8706 5.85997 51.7506 5.87997 51.8006C5.61997 52.1706 5.41999 52.7306 5.17999 53.1806C5.00999 53.4806 4.94998 53.4806 4.75998 53.8206C4.40998 54.5206 4.11997 54.9706 3.62997 55.6906C3.62997 55.5906 3.84998 55.2306 3.88998 55.0606ZM3.37997 56.0406C3.39997 56.1606 3.21998 56.5106 2.94998 56.9406C2.97998 56.7606 3.17997 56.4106 3.37997 56.0406ZM2.79999 57.2406C2.71999 57.3506 2.65997 57.4106 2.62997 57.3806C2.80997 57.0406 2.84999 57.0806 2.79999 57.2406ZM1.62997 55.9706C1.44997 55.9806 1.16999 55.9806 0.98999 55.9906C0.97999 55.9906 0.969971 55.9906 0.969971 55.9906L2.17999 58.1206C2.29999 57.9306 2.33 58.0006 2.53 57.5906C2.51 57.6906 2.38998 57.9406 2.25998 58.1706L0.969971 55.8906C1.15997 55.8806 1.32998 55.8806 1.41998 55.9006C1.67998 55.8806 1.88997 55.8706 2.15997 55.9306C2.09997 56.0106 1.84997 55.9706 1.62997 55.9706ZM2.47998 55.9506C2.42998 55.9406 2.56 55.9206 2.59 55.9306C2.64 55.9406 2.50998 55.9606 2.47998 55.9506ZM4.50998 57.7106H4.28998V57.6606H4.50998V57.7106ZM4.62 57.7106C4.64 57.6906 4.72998 57.6906 4.72998 57.6606C4.86998 57.6706 4.95998 57.6906 4.94998 57.7306C4.76998 57.7406 4.76 57.7106 4.62 57.7106ZM33.05 57.2706C33.43 57.3006 32.66 57.3106 32.44 57.3106C32.37 57.2506 33.1 57.3006 33.05 57.2706ZM10.72 57.0106C10.79 56.9306 11.3 56.9906 11.27 57.0606C11 57.0606 10.93 57.0206 10.72 57.0106ZM18.56 56.8806H18.35C18.34 56.8706 18.34 56.8506 18.33 56.8406H18.54L18.56 56.8806ZM18.13 56.3106C17.62 56.2306 16.84 56.2906 16.31 56.2106C16 56.2106 15.8 56.2406 15.7 56.2806C14.98 56.2306 14.39 56.2706 13.78 56.1806C13.67 56.1806 13.72 56.2206 13.58 56.2206C13.01 56.2106 12.37 56.2406 12.09 56.1306C11.63 56.1806 10.67 56.1706 10.4 56.0606C9.95999 56.1706 8.5 56.1006 7.87 56.0506C8.02 55.9606 7.57999 56.0006 7.64999 55.9306C7.39999 55.9306 7.05 56.0306 6.81 55.9706C6.45 56.0006 6.23999 56.0706 5.64999 56.0506C5.61999 55.9906 6.10998 55.9406 5.75998 55.8906C6.45998 55.8606 7.26997 55.8906 7.96997 55.9206C8.23997 55.9206 8.37997 55.8906 8.37997 55.8306C8.57997 55.8806 8.56999 55.8206 8.89999 55.8406C9.20999 55.9306 9.80997 55.9606 10.38 56.0006C10.61 55.9806 10.9 55.9706 11.11 55.9506C11.77 55.9806 12.59 55.9706 13.01 56.0506C13.21 56.0106 13.61 56.0506 13.85 56.0706C14.77 56.0806 15.41 56.0706 16.19 56.1906C17.07 56.1806 18.07 56.2806 18.96 56.3006C18.83 56.3406 18.44 56.2606 18.13 56.3106ZM19.49 56.3006C19.43 56.2906 19.56 56.2806 19.59 56.2806C19.65 56.3006 19.52 56.3106 19.49 56.3006ZM20.04 56.8406C20.05 56.8206 20.23 56.8306 20.36 56.8306C20.35 56.8406 20.17 56.8406 20.04 56.8406ZM20.45 56.3306C20.61 56.3006 21.1 56.3206 21.11 56.3906C20.88 56.3706 20.38 56.4006 20.45 56.3306ZM21.96 56.8106C22.1 56.8206 22.2 56.8406 22.21 56.8706C22.07 56.8606 21.97 56.8406 21.96 56.8106ZM35.76 56.8506C35.76 56.8406 35.86 56.8506 35.87 56.8506C35.86 56.8606 35.76 56.8506 35.76 56.8506ZM39.16 57.8206C39.13 57.8106 39.09 57.7906 38.91 57.8006C38.77 57.8506 39.14 57.8806 39.4 57.9006C39.61 57.9006 39.82 57.8906 40.01 57.8906L39.78 57.7606C39.49 57.7706 39.26 57.7906 39.16 57.8206Z" fill="#1E1E1E"/></svg>