<svg xmlns="http://www.w3.org/2000/svg" viewBox="0 0 74 108" fill="none"><g clip-path="url(#clip0)"><path d="M63.16 28.0996H11.16V80.0996H63.16V28.0996Z" fill="#49A4D5"/><path d="M45.88 97.4099C45.83 97.3699 45.97 97.4299 46 97.4499C46.05 97.4899 45.9 97.4399 45.88 97.4099Z" fill="#1E1E1E"/><path d="M51.27 94.3116C51.26 94.3316 51.06 94.3216 50.94 94.3216L50.46 94.3016C50.44 94.2416 51.03 94.3116 51.27 94.3116Z" fill="#1E1E1E"/><path d="M43.53 90.2402C43.56 90.2602 43.64 90.4102 43.62 90.4202C43.57 90.3502 43.51 90.2702 43.53 90.2402Z" fill="#1E1E1E"/><path d="M48.39 87.2013C48.38 87.1013 49.54 87.1813 49.69 87.2513C50.53 87.2613 50.64 87.2913 51.3 87.3713C50.92 87.4113 50.54 87.3613 50.17 87.3013C49.69 87.2813 48.77 87.2913 48.39 87.2013Z" fill="#1E1E1E"/><path d="M50.64 85.5911C50.42 85.5911 50.2 85.5811 49.99 85.5811C49.9 85.4711 50.69 85.5111 50.64 85.5911Z" fill="#1E1E1E"/><path d="M59.1 106.351C59.15 106.321 59.42 106.301 59.42 106.331C59.35 106.371 59.28 106.341 59.1 106.351Z" fill="#1E1E1E"/><path d="M48.1 87.0703L47.61 87.0403C47.5 86.9603 47.32 86.9003 47.17 86.8203C48 86.8503 47.99 86.8603 48.45 86.9403C48.11 86.9903 48.28 87.0303 48.1 87.0703Z" fill="#1E1E1E"/><path d="M54.59 106.521H54.91V106.571H54.58L54.59 106.521Z" fill="#1E1E1E"/><path d="M55.23 106.571C55.24 106.551 55.43 106.551 55.56 106.551C55.54 106.571 55.35 106.561 55.23 106.571Z" fill="#1E1E1E"/><path d="M58.77 106.49L58.76 106.54C58.44 106.6 58.56 106.55 58.12 106.58L58.13 106.53C58.56 106.51 58.45 106.47 58.77 106.49Z" fill="#1E1E1E"/><path d="M49.28 86.9509C49.2 86.9809 49.14 86.9409 48.96 86.9309C49.01 86.9009 49.29 86.9209 49.28 86.9509Z" fill="#1E1E1E"/><path d="M49.19 92.7198C48.52 92.6698 47.5 92.7698 47.4 92.6298C47.64 92.6298 48.08 92.5998 48.22 92.6398C48.56 92.6198 48.28 92.5298 48.57 92.5098C49.05 92.5398 49.29 92.6098 49.19 92.7198Z" fill="#1E1E1E"/><path d="M42.2 88.8012C42.23 88.7212 42.2 88.9312 42.19 88.9712C42.16 89.0612 42.18 88.8412 42.2 88.8012Z" fill="#1E1E1E"/><path d="M42.13 89.3012C42.15 89.2212 42.16 89.4312 42.15 89.4812C42.14 89.5612 42.12 89.3512 42.13 89.3012Z" fill="#1E1E1E"/><path d="M51.34 92.6504C51.56 92.6804 52.07 92.7004 52.6 92.7104L52.61 93.2304C52.05 93.2504 51.46 93.2704 51.14 93.2804C51.29 93.1704 52.01 93.2004 52.61 93.1804V92.7604C52.44 92.7604 52.28 92.7704 52.13 92.7804C51.74 92.7504 51.38 92.7204 51.34 92.6504Z" fill="#1E1E1E"/><path d="M49.98 93.3916C49.04 93.4316 49.06 93.2816 48.19 93.3416C48.51 93.2416 49.74 93.2916 49.98 93.3916Z" fill="#1E1E1E"/><path d="M51.18 92.6198C51.14 92.5598 51.53 92.5698 51.84 92.5798C51.69 92.6098 51.58 92.6398 51.18 92.6198Z" fill="#1E1E1E"/><path d="M44.87 92.9604C44.79 92.9204 45 92.9704 45.05 92.9904C45.12 93.0304 44.91 92.9804 44.87 92.9604Z" fill="#1E1E1E"/><path d="M52.32 92.5914C52.31 92.6114 52.12 92.6014 52 92.6114C52.01 92.5814 52.2 92.5914 52.32 92.5914Z" fill="#1E1E1E"/><path d="M46.57 92.621C47.1 92.431 47.98 92.431 48.44 92.311C48.81 92.281 49.34 92.421 49.44 92.311C49.82 92.331 49.73 92.401 50.25 92.401C50.12 92.511 48.73 92.411 48.41 92.521C47.54 92.561 47.2 92.531 46.57 92.621Z" fill="#1E1E1E"/><path d="M42.64 91.6098C42.31 91.2698 42.21 90.9798 42.21 90.9498C42.22 90.9098 42.29 91.1398 42.64 91.6098Z" fill="#1E1E1E"/><path d="M45.08 85.8707C44.87 85.8907 44.73 85.9007 44.73 85.8607C45.11 85.7707 45.06 85.8407 45.08 85.8707Z" fill="#1E1E1E"/><path d="M51.7 92.4814C51.85 92.4414 52.21 92.4414 52.6 92.4414L52.61 93.5014C52.37 93.5114 52.12 93.5214 51.9 93.5314C51.9 93.4814 51.46 93.5214 51.59 93.4514C51.69 93.4114 52.21 93.4214 52.24 93.3814C52.38 93.4014 52.5 93.4114 52.61 93.4114L52.6 92.5214C52.31 92.5014 52.08 92.5114 51.7 92.4814Z" fill="#1E1E1E"/><path d="M41.87 89.2305C41.94 89.7205 41.74 89.6405 41.87 89.2305V89.2305Z" fill="#1E1E1E"/><path d="M49.3 93.4902L49.28 93.5802C48.79 93.5802 48.29 93.5702 47.79 93.5502C48.15 93.5202 48.73 93.5202 49.3 93.4902Z" fill="#1E1E1E"/><path d="M43.67 92.5911C44.31 92.9011 44.45 93.0211 45.11 93.2011C44.99 93.2711 44.41 92.9511 44.24 92.9911C43.64 92.7011 43.81 92.8111 43.13 92.3611C43.14 92.3011 43.76 92.7411 43.67 92.5911Z" fill="#1E1E1E"/><path d="M45.46 93.2598C45.77 93.3498 45.74 93.3898 46.28 93.4598C46.18 93.5898 45.42 93.3398 45.46 93.2598Z" fill="#1E1E1E"/><path d="M46.62 93.5107C46.54 93.4907 46.75 93.4907 46.79 93.5007C46.87 93.5207 46.66 93.5207 46.62 93.5107Z" fill="#1E1E1E"/><path d="M59.81 79.5007C59.89 79.5207 59.68 79.5207 59.64 79.5107C59.56 79.4907 59.76 79.4907 59.81 79.5007Z" fill="#1E1E1E"/><path d="M59.82 79.4806C59.8 79.4306 59.97 79.4206 60.32 79.4606C60.86 79.4806 61.07 79.3206 61.86 79.5006C61.97 79.5806 61.44 79.4906 61.3 79.5106C61.68 79.6006 61.04 79.5306 61.1 79.6106C60.44 79.5306 60.34 79.5606 59.82 79.4806Z" fill="#1E1E1E"/><path d="M61.08 77.5004C61.1 77.4304 61.1 77.6104 61.09 77.6504C61.08 77.7204 61.08 77.5404 61.08 77.5004Z" fill="#1E1E1E"/><path d="M53.96 106.491C53.47 106.601 52.58 106.541 51.56 106.401C50.59 106.321 49.47 106.071 48.74 105.911C48.13 105.701 47.52 105.441 47.15 105.281C46.84 105.111 47.04 105.151 46.8 105.001C46.4 104.761 46.1 104.471 45.97 104.401C45.71 104.121 45.48 103.641 45.39 103.471C45.34 103.181 45.31 102.871 45.52 102.381C45.78 101.981 45.9 101.861 46.24 101.591C46.39 101.451 46.51 101.351 46.69 101.231C47.15 100.991 47.48 100.891 47.88 100.771C48.27 100.661 48.72 100.541 49.47 100.431C49.77 100.351 50.02 100.291 50.26 100.231C50.04 100.151 48.45 100.441 48.38 100.571C48.08 100.531 46.92 100.971 46.76 101.011C46.29 101.261 46.46 101.271 46.05 101.571C45.96 101.591 45.74 101.751 45.58 101.961C45.41 102.171 45.3 102.421 45.25 102.541C45.11 103.051 45.22 103.421 45.37 103.751C45.53 104.081 45.75 104.361 46.12 104.651C46.4 104.881 46.46 104.971 46.54 105.061C46.76 105.211 46.89 105.261 46.97 105.261C47.59 105.681 47.99 105.771 49.01 106.061C49.34 106.171 49.84 106.291 49.91 106.361C50.38 106.441 51.03 106.551 51.48 106.631C52.33 106.691 53.72 106.871 54.38 106.761C54.91 106.861 55.81 106.761 56.47 106.821C56.78 106.801 56.88 106.761 57.29 106.751C57.86 106.771 58.87 106.681 59.38 106.691C61.62 106.451 64.31 106.231 65.66 105.921C66.11 105.921 66.2 106.031 67.1 105.901C67.17 106.011 67.68 106.001 68.05 106.021C68.17 106.131 67.33 106.251 67.4 106.361C65.62 106.751 64.34 106.881 62.06 107.201C61.35 107.281 61.03 107.261 60.27 107.331C59.69 107.391 59.37 107.461 58.95 107.521C58.33 107.561 58.17 107.501 57.65 107.521C57.31 107.521 57.21 107.551 56.99 107.571C56.35 107.541 55.67 107.531 54.7 107.571C52.97 107.491 51.99 107.531 50.43 107.191C49.99 107.091 50.08 107.171 49.75 107.101C49.25 107.001 49.17 106.941 48.79 106.841C48.35 106.691 48.36 106.751 47.98 106.611C47.55 106.391 46.53 106.021 45.95 105.641C45.63 105.361 44.95 104.761 44.97 104.571C44.78 104.311 44.72 104.151 44.64 104.091C44.58 103.841 44.43 103.481 44.42 103.081C44.4 102.691 44.5 102.321 44.6 102.151C44.75 101.801 44.77 101.661 45.07 101.301C45.39 100.951 45.5 100.921 45.77 100.721C46.08 100.431 47 100.101 46.86 100.071C47.11 100.001 48.46 99.6807 48.66 99.5807C50.28 99.2607 51.6 99.2007 52.79 99.1007L52.87 100.051C52.17 100.111 51.5 100.191 50.82 100.261C50.66 100.311 50.3 100.361 49.99 100.391C49.34 100.431 49.31 100.361 48.82 100.341C48.28 100.361 47.47 100.371 47.1 100.161C46.67 100.051 46.55 100.051 46.56 100.121C45.61 99.7907 44.56 99.3307 43.71 98.4807C43.46 98.2607 43.2 97.9007 43.09 97.7607C42.71 97.0507 42.62 96.2307 42.83 95.5007C43.04 94.7807 43.46 94.2007 43.96 93.7407C44.71 93.1407 45.4 92.8207 46.36 92.6007C46.21 92.7107 45.56 92.8907 45.01 93.2007C44.45 93.4907 43.97 93.9207 43.96 94.0907C44.45 93.7807 44.62 93.5007 45.38 93.1307C45.56 93.1807 44.63 93.6507 44.73 93.7707C44.03 94.1907 43.45 94.6507 43.14 95.6407L43.01 95.5707C43.25 94.8707 43.28 95.0807 43.54 94.6607C43.82 94.2307 43.05 95.0307 42.94 95.7307C42.9 95.8807 42.93 96.3007 42.97 95.9407C43.02 95.9607 42.92 96.4307 42.89 96.2907C42.9 96.6107 42.94 96.7407 42.98 96.8407C43.01 96.9407 43.02 97.0107 43.04 97.1907C43.18 97.5507 43.35 97.7407 43.46 97.8007C43.82 98.2907 43.74 98.2607 43.98 98.4907C44.33 98.7507 44.58 98.8407 44.78 98.8907C45.5 99.2407 45.63 99.2707 46.33 99.4807L46.31 99.5207C46.82 99.5907 47.59 99.9707 48.73 99.9607C48.65 100.011 48.83 100.021 48.88 100.061C49.48 100.031 50.38 99.8407 51.02 99.8807C51.64 99.8107 51.89 99.7107 52.48 99.6407C52.58 99.6307 52.71 99.6307 52.84 99.6207L52.83 99.4607C52.54 99.4807 52.27 99.4907 52.39 99.4107C51.9 99.5007 50.83 99.5707 50.76 99.6907C51.17 99.7207 51.65 99.6107 52.05 99.5707C52.34 99.5507 52.39 99.5707 52.69 99.5407C52.74 99.5407 52.78 99.5307 52.83 99.5307C52.27 99.5907 51.66 99.7207 50.71 99.7807C50.2 99.8307 50.29 99.7507 49.91 99.7707C48.79 99.8107 48.11 99.8207 47.46 99.7507C47.09 99.6907 47.1 99.6307 46.85 99.5607C46.66 99.5107 46.29 99.4107 46.06 99.3307C45.65 99.1707 45.36 99.0307 45.06 98.8207C44.39 98.4407 43.8 97.9607 43.5 97.3407C43.18 96.7207 43.18 96.0107 43.43 95.4207C43.97 94.2507 45.09 93.5207 46.25 93.1807C46.65 93.0807 46.98 93.0007 47.2 92.9407C48.74 92.8107 50.46 92.8707 51.57 92.9507C51.92 92.9507 52.24 92.9507 52.58 92.9407V92.9107C52.49 92.9207 52.39 92.9207 52.29 92.9307C51.52 92.8707 49.72 93.0007 49.05 93.0007C48.53 93.0107 48.37 92.9507 47.76 92.9407C47.71 92.9107 47.48 92.8907 47.46 92.8507C46.86 92.8407 46.82 92.7707 46.03 92.6607C45.85 92.7207 46.37 92.8407 46.95 92.8807C46.91 93.0007 46.01 92.9207 45.3 92.7507C45.15 92.7107 45.16 92.7507 45.12 92.7607C44.98 92.6907 44.67 92.6007 44.4 92.4807C44.14 92.3607 43.92 92.2407 43.95 92.2007C43.28 91.9007 42.57 91.2107 42.42 90.5707C42.28 90.1907 42.25 90.0807 42.18 89.9307C42.11 89.5907 42.19 89.6007 42.2 89.2807C42.22 89.1107 42.19 88.9607 42.22 88.7707C42.29 88.3407 42.52 87.9307 42.63 87.6707C42.5 87.7407 42.38 88.1607 42.29 88.4307C42.14 88.4307 41.98 89.3607 41.94 89.5507C41.93 89.2507 41.96 89.2207 41.99 89.2107C42.04 88.7807 42 88.7707 42.04 88.4907C42.21 87.9807 42.65 87.2607 42.93 87.0107C42.63 87.5107 43.3 86.7307 43.4 86.8207C43.82 86.5007 43.9 86.3107 44.24 86.2907C44.6 86.1507 44.34 86.0807 45.05 85.9807C45 86.0007 44.59 86.0907 44.73 85.9807C45.25 85.8307 45.91 85.8807 46.27 85.8107C46.51 85.8407 46.49 85.9007 46.57 85.9407C46.89 85.9107 47.34 85.9707 47.7 86.0107C48.1 85.9307 48.58 86.0207 49.5 86.0707C49.25 85.9107 47.7 85.9707 47.09 85.8607C47.46 85.7207 48.82 85.9307 50.02 85.9807C50.13 86.0507 51.1 86.0607 50.96 86.1507C51.68 86.1707 52.02 86.1107 52.59 86.2207C52.83 86.2207 52.99 86.2107 53.09 86.1807C53.2 86.0707 52.42 86.0407 52.49 85.9307C51.76 85.8807 52 86.0407 51.32 86.0007C51.1 85.9407 50.72 85.9007 50.7 85.8207C50.28 85.8007 50.45 85.9007 50.03 85.8807C49.61 85.8107 48.64 85.8007 48.26 85.7307C48.36 85.6507 49.33 85.7607 49.89 85.7807C50.29 85.7707 50.86 85.7907 51.21 85.7607C51.95 85.8507 52.22 85.7507 52.82 85.8807C53.07 85.9007 53.21 85.8907 53.29 85.8707L53.22 87.2007L53.19 87.2107C52.56 87.1307 51.4 87.0707 50.46 87.0607C50.4 87.0107 50.58 87.0007 50.64 86.9707C50.08 86.9707 49.64 86.9907 49.33 87.0407C48.55 87.0207 47.87 87.0207 47.53 87.0807C46.81 87.0807 46.62 87.0207 45.9 87.0107C45.79 86.9707 45.18 86.8707 45.1 86.9107C44.86 86.8907 45.12 86.8907 45.11 86.8607C44.68 86.8107 44.14 86.8607 44.13 86.8107C43.7 86.8007 43.62 86.8507 43.13 86.8207C42.77 86.8907 42.02 86.7907 41.78 86.8307C41.55 86.8107 41.31 86.7907 41.3 86.7607C40.85 86.7807 40.66 86.7307 40.13 86.6907C39.69 86.6307 39.19 86.5507 38.99 86.4807C38.6 86.4207 38.4 86.4307 38.12 86.4007C37.78 86.3107 37.81 86.2607 37.66 86.1907C37.24 86.1007 36.72 85.9907 36.12 85.7607C35.53 85.5407 34.91 85.1507 34.55 84.6807C34.34 84.4807 34.25 84.3907 34.19 84.3907C33.81 83.8207 33.68 83.4007 33.6 82.9507C33.55 82.5107 33.49 81.9307 33.99 81.1307C34.27 80.6607 34.5 80.4407 34.53 80.3107C35.36 79.6607 36.17 79.3907 36.32 79.4507C36.95 79.2707 36.96 79.1907 37.54 79.0707C37.6 79.0907 37.85 79.0207 37.89 78.9907C38.26 78.9607 38.45 78.9907 38.9 78.9507C39.69 78.8407 40.31 78.6207 41.4 78.6507C42.05 78.6107 42.4 78.5507 42.75 78.5007C43.14 78.5307 43.06 78.4907 43.57 78.5207C44.19 78.5007 44.44 78.4207 45.37 78.4507C45.61 78.4207 46.08 78.4307 46.02 78.3507C46.52 78.3507 46.64 78.4007 46.99 78.4307C47.72 78.4507 47.98 78.4007 48.63 78.4207C49.21 78.4707 50.09 78.4707 50.59 78.4307C51.05 78.4807 51.27 78.5507 51.7 78.6007C51.94 78.7407 51.36 78.8607 51.96 78.9307C52.48 78.9507 52.2 78.8507 52.63 78.8607C53.36 78.9407 53.99 79.0607 54.58 79.0507C55.09 79.1607 56.36 79.2307 56.83 79.3407L57.81 79.4207C57.82 79.4407 58.32 79.5307 58.29 79.4807C58.5 79.5207 58.6 79.5707 58.75 79.6107C59.18 79.6307 59.22 79.5407 59.6 79.5507C60.31 79.6707 61.06 79.6607 61.02 79.8007C61.26 79.8207 61.58 79.8507 61.86 79.9007C61.98 79.9207 62.07 79.9207 62.04 79.9207C62.01 79.9307 61.98 79.9407 61.99 79.9207C61.98 79.9007 61.95 79.9107 61.96 79.8807C61.96 79.8507 62.04 79.8107 62.04 79.8107C62.04 79.8007 62.01 79.7907 62.03 79.7907C62.03 79.7907 62.05 79.7807 62.02 79.7907C61.99 79.7807 61.89 79.8607 61.91 79.8507C61.88 79.8507 61.86 79.8007 61.99 79.7307C62.12 79.7007 61.96 79.7007 61.78 79.6507C61.93 79.6607 62.03 79.6707 62.04 79.6607C62.05 79.6507 61.93 79.6607 61.86 79.7207C61.79 79.7707 61.79 79.7807 61.81 79.7407C61.81 79.7307 61.83 79.6707 61.84 79.5807C61.95 79.3607 61.95 79.2907 62.02 78.8807C62.05 78.6407 61.98 78.7307 61.95 78.6807C62.07 78.1907 62.17 77.2707 62.06 77.0007C62.06 76.6107 62.1 76.5207 62.11 76.2207C62.11 75.3607 62.04 74.9607 62.1 74.4507C62.01 74.1007 62.04 72.6907 61.89 72.7907C61.94 72.5207 61.93 71.8907 62 71.6607C61.98 71.3307 61.94 71.2007 61.89 71.1407C61.92 70.0607 62.01 68.7807 62.14 67.7507C62.24 67.1907 62.3 67.2807 62.41 66.9307C62.55 66.1707 62.8 65.2707 63.42 64.4307C63.59 64.2907 63.73 64.1507 63.93 64.0307C64.43 63.6907 63.66 63.9907 64.49 63.5607C64.67 63.5407 64.2 63.7807 64.3 63.7907C64.67 63.5907 64.89 63.5107 65.01 63.4607C65.13 63.4007 65.15 63.3607 65.16 63.3207C65.33 63.2707 65.57 63.2507 65.83 63.2207C66.06 63.2307 66.31 63.2507 66.54 63.2607C67.02 63.3407 67.43 63.4607 67.54 63.4607C68.14 63.7407 68.87 64.1907 69.07 64.5607C69.24 64.7307 69.23 64.6607 69.28 64.6707C69.53 64.9407 69.92 65.6207 70.07 65.8007C70.19 66.0407 70.03 65.8707 70.18 66.1507C70.37 66.5207 70.12 65.9407 70.33 66.3007C70.56 66.8607 70.8 67.6907 71.02 68.3007C71.02 68.4907 71.08 68.7207 71.17 69.0107C71.26 69.2907 71.33 69.5707 71.33 69.7307C71.52 70.2407 71.73 71.1107 71.9 72.0107C71.9 72.3207 71.92 72.7907 71.78 72.5007C71.72 72.2307 71.74 72.2007 71.77 72.1807C71.58 71.8007 71.39 70.9207 71.23 70.0807C71.14 69.9207 71.02 69.4807 70.91 69.2807C70.75 68.7407 70.74 68.5307 70.52 67.8607C70.24 67.0807 69.75 65.8107 68.98 65.0607C68.78 64.7207 68.2 64.3807 68.18 64.2707C67.93 64.1307 67.57 63.9307 67.18 63.8107C66.79 63.7007 66.4 63.6307 66.16 63.6507C65.84 63.6207 65.77 63.6007 65.37 63.6407C64.65 63.8207 64.85 63.8307 64.24 64.2007C64.09 64.1307 63.66 64.7207 63.45 65.0607L63.44 65.0007C63.15 65.5107 62.94 65.9807 62.75 66.4807C62.57 67.3807 62.53 67.2607 62.4 68.1707C62.34 68.3307 62.29 68.6007 62.24 68.8207C62.2 69.0907 62.23 69.1107 62.21 69.3307C62.14 69.6707 62.11 70.4007 62.04 70.4807C62.12 70.7707 62.15 71.4307 62.21 72.0107C62.2 72.8307 62.21 72.8107 62.26 73.4907C62.23 73.6407 62.22 73.9207 62.21 74.1307C62.22 74.4807 62.24 74.6507 62.29 74.6307C62.29 74.9707 62.24 75.0807 62.27 75.5907C62.25 75.9107 62.32 75.8307 62.32 75.9207C62.35 76.2607 62.29 76.7707 62.42 76.5707C62.41 76.8707 62.33 76.6807 62.34 77.1907C62.42 77.2307 62.34 76.6907 62.47 76.9007C62.47 76.4507 62.45 75.9307 62.49 75.4607C62.48 75.2807 62.44 75.3407 62.43 75.1307C62.42 73.9707 62.36 73.2307 62.41 72.5307C62.39 72.3807 62.36 72.2707 62.33 72.1907C62.31 71.7407 62.36 70.8907 62.32 70.7007C62.48 69.3907 62.48 66.5607 63.65 64.9507C63.82 64.7207 63.87 64.6507 63.94 64.5607C64 64.4807 64.04 64.3907 64.29 64.2107C64.66 63.9607 64.86 63.9207 65.21 63.8407C65.84 63.6707 66.53 63.6907 66.89 63.8807C67.14 63.9007 67.44 64.0307 67.63 64.0707C68.16 64.3507 68.86 64.9207 69.3 65.6107C69.76 66.2807 70.04 66.9907 70.17 67.3907C70.29 67.6807 70.41 68.0507 70.52 68.4207C70.62 68.7807 70.73 69.1507 70.81 69.4407C70.9 69.7507 70.97 69.9407 71.1 70.2407C71.31 71.1907 71.42 72.0207 71.68 72.9807C71.75 73.3707 71.74 73.5707 71.8 73.9407C71.89 74.5007 72.05 75.1307 72.14 75.7007C72.2 76.0807 72.16 76.2307 72.26 76.6607C72.26 76.7907 72.23 76.8707 72.17 76.8207C72.25 77.2507 72.27 77.1407 72.29 77.4607C72.39 77.6807 72.49 78.0407 72.6 78.5807C72.58 78.8607 72.73 79.7007 72.56 79.5407C72.68 80.2407 72.79 80.9407 72.88 81.6407C73.04 81.8407 73.16 83.2207 73.32 83.1207C73.37 83.4907 73.46 83.9507 73.43 84.2607C73.45 84.5207 73.48 84.5407 73.5 84.7507C73.51 85.4707 73.68 87.1507 73.64 87.8407C73.71 88.3107 73.72 88.9007 73.74 89.9707C73.71 89.9907 73.72 90.2607 73.72 90.4607C73.67 90.5507 73.65 90.7907 73.6 90.9307C73.57 91.3307 73.67 91.6207 73.6 91.7507C73.53 92.2107 73.54 91.1907 73.49 91.0707C73.51 90.2907 73.52 89.6907 73.54 88.9707C73.51 88.5807 73.5 88.4807 73.46 87.8207C73.41 87.0807 73.3 86.7107 73.25 85.3707C73.13 85.1607 73.19 85.8007 73.08 85.6707C73.01 84.9007 72.9 84.4907 72.8 84.0407C72.77 83.7707 72.74 83.5007 72.72 83.2307C72.58 82.5607 72.43 81.6207 72.26 81.1307C72.23 80.4307 71.94 79.4707 71.89 78.9007C71.96 78.7907 72.05 79.5807 72.13 79.7007C72.2 79.5807 71.94 78.5507 71.84 78.1107C71.78 78.0807 71.79 78.2407 71.86 78.5907C71.71 78.4107 71.57 77.4407 71.53 76.9907C71.32 75.9707 70.94 74.1307 70.89 73.6307C70.85 73.4607 70.82 73.5207 70.79 73.3107C70.7 72.6807 70.54 72.1407 70.52 71.8807C70.39 71.3507 70.26 71.0607 70.12 70.6307C70.14 70.1607 69.66 69.2507 69.68 68.7607C69.53 68.4207 69.23 67.3707 69.03 67.1507C68.94 66.6507 68.42 65.9807 68.02 65.5307C67.77 65.3207 67.5 65.1707 67.28 65.1007C67.11 65.0007 66.83 64.8907 66.5 64.8507C66.17 64.8107 65.81 64.8207 65.59 64.8707C65.49 64.9207 65.43 64.9607 65.39 65.0007C65.09 65.1607 65.11 65.0807 64.88 65.2407C64.71 65.4007 64.66 65.4807 64.62 65.5607C64.58 65.6407 64.55 65.7007 64.44 65.8907C64.53 65.6207 64.4 65.9007 64.32 65.9607C64.07 66.5207 63.9 67.2607 63.89 67.7207C63.72 68.4407 63.75 69.0407 63.63 69.5607C63.59 70.2907 63.68 70.5107 63.67 71.3207C63.81 71.0007 63.74 70.0707 63.88 69.4707C63.94 68.9407 63.97 68.6107 64.01 68.2407C64.11 67.8907 64.18 67.9407 64.26 67.3907C64.24 67.3207 64.19 67.4807 64.15 67.6607C64.17 67.4807 64.29 67.0107 64.47 66.5707C64.65 66.1207 64.9 65.7507 65.01 65.5907C65.12 65.4607 65.15 65.4807 65.25 65.4107C65.4 65.2507 65.75 65.1807 65.82 65.1307C66.26 65.1807 66.47 65.2707 67.03 65.4607C67.01 65.5207 67.33 65.6807 67.56 65.8807C67.92 66.1807 68.19 66.5007 68.47 66.9907C68.65 67.4307 68.91 68.1707 69.06 68.8007C69.26 69.4507 69.46 70.0707 69.61 70.4907C69.83 71.5007 69.94 71.5907 70.05 72.3407C70.12 72.5207 70.19 72.7307 70.27 72.9707C70.28 73.1607 70.34 73.5307 70.41 73.9207C70.39 74.1207 70.33 74.1707 70.42 74.7107C70.53 75.2007 70.47 74.5407 70.56 74.7107C70.7 75.2407 70.84 76.3307 70.99 77.1207C71.16 77.8707 71.49 79.1007 71.57 79.8307C71.65 80.2807 71.74 80.5007 71.82 80.9407C71.91 81.4207 71.85 81.4007 71.93 81.8907C72.14 82.8107 72.26 84.6907 72.41 85.4107C72.47 85.1207 72.51 85.6007 72.6 85.7507L72.66 86.7107L72.57 86.7007C72.51 86.6407 72.57 87.1607 72.52 87.1707C72.5 86.7907 72.46 87.2207 72.49 87.4907C72.43 87.2107 72.36 87.0407 72.32 86.5107C72.24 86.6407 72.21 86.1107 72.15 86.0107C72.13 85.7307 72.1 85.6007 72.07 85.5207C72.04 84.3107 71.63 82.5907 71.58 81.3907C71.52 80.9307 71.46 80.9007 71.39 80.4407C71.4 79.9507 71.22 79.3207 71.11 78.5607C70.96 77.9707 70.8 77.3507 70.65 76.4607C70.6 76.1807 70.56 76.0407 70.52 75.9707C70.43 75.0607 70.24 74.4507 70.17 73.7407C70.05 73.0507 69.92 72.8907 69.86 72.3307C69.82 72.1607 69.79 72.2307 69.75 72.0207C69.54 70.9207 69.28 70.0207 69.04 69.4607C68.85 68.6707 68.55 67.7207 68.27 67.3207C68.04 66.8007 67.83 66.3207 67.33 65.9207C66.98 65.6707 66.75 65.6407 66.4 65.5307C66.33 65.5107 66.22 65.5207 66.12 65.5207C66.01 65.5207 65.89 65.5207 65.84 65.5407C65.69 65.5607 65.61 65.6107 65.5 65.6407C65.45 65.7307 65.32 65.8107 65.2 66.0207C65.07 66.2107 64.96 66.4707 64.92 66.6407C64.68 67.2807 64.7 67.2507 64.53 67.9407C64.46 68.4907 64.35 69.4007 64.38 69.8907C64.31 70.2307 64.31 70.2907 64.34 70.6507C64.34 70.9007 64.31 70.9107 64.3 71.1107C64.29 71.5007 64.33 71.6007 64.34 71.9007C64.33 72.9507 64.36 73.3207 64.37 74.3007C64.38 74.5807 64.4 74.7207 64.43 74.8007C64.4 75.0007 64.41 75.7807 64.48 75.7907C64.43 76.1707 64.47 76.2407 64.44 76.6307C64.45 77.0907 64.51 77.5407 64.4 78.0407C64.42 78.2107 64.34 78.7107 64.42 78.6007C64.38 78.8507 64.32 79.0907 64.28 79.2507C64.27 79.4307 64.28 79.8207 64.05 80.4907C63.99 80.6607 63.88 80.8707 63.77 81.0307C63.65 81.2107 63.46 81.4307 63.19 81.6107C62.92 81.7907 62.63 81.8707 62.44 81.9107C62.31 81.9307 62.21 81.9407 62.1 81.9607C61.72 81.9307 61.53 81.8707 61.44 81.8507C61.34 81.8307 61.15 81.8007 61.19 81.7607C60.9 81.7307 60.38 81.7107 60.56 81.6507C59.32 81.6307 58.56 81.4607 57.79 81.5507C56.83 81.4307 56.55 81.5107 55.73 81.3707C54.67 81.3407 53.92 81.2707 52.7 81.1607C51.38 81.2007 50.46 81.2807 48.98 81.2307C48.55 81.2107 48.65 81.2707 48.33 81.2707C47.84 81.2407 47.71 81.2507 47.36 81.2907C46.63 81.2807 46.42 81.2407 45.9 81.3107C45.56 81.3007 44.81 81.3407 44.75 81.2907C44.34 81.2807 44.24 81.3207 44.09 81.3607C43.9 81.3307 43.53 81.3307 43.14 81.3407C42.87 81.3307 42.84 81.3607 42.82 81.3907C42.59 81.3707 42.43 81.3707 42.19 81.4007C41.74 81.4207 41.72 81.3607 41.28 81.3907C40.48 81.4407 40.62 81.4807 39.88 81.5807C39.78 81.5407 39.16 81.6407 39.12 81.5907C38.72 81.6607 38.74 81.7307 38.26 81.8107C38.02 81.7807 37.59 81.8707 37.19 82.0207C36.99 82.0907 36.77 82.2007 36.63 82.2707C36.53 82.3307 36.44 82.3807 36.35 82.4407C36.32 82.4807 36.32 82.5107 36.33 82.5207C36.33 82.5307 36.34 82.5407 36.35 82.5407L36.36 82.5507C36.29 82.5107 36.34 82.5407 36.33 82.5307H36.34C36.39 82.5507 36.39 82.5507 36.37 82.5707C36.36 82.5907 36.35 82.6207 36.3 82.5907C36.37 82.8007 36.29 82.9407 36.9 83.3007C36.94 83.3407 36.98 83.3807 36.96 83.4107C37.23 83.5407 37.58 83.6707 37.95 83.7807C38.32 83.8907 38.57 83.9407 38.79 83.9607C39.26 84.0607 39.46 84.1107 39.8 84.1807C40.7 84.3107 40.71 84.2807 41.47 84.4407C42.97 84.6207 44.03 84.6907 45.56 84.7307C45.95 84.7207 46.34 84.7107 46.69 84.7007C47.26 84.7607 48.42 84.8107 49.43 84.7807C49.76 84.8007 50.51 84.7707 50.57 84.8307C51.44 84.7807 52.52 84.8807 53.44 84.9207L53.28 88.1307C53.01 88.1207 52.76 88.1107 52.53 88.1207C51.97 88.0507 50.69 87.9807 50.27 87.9607C49.77 87.9207 49.83 88.0007 49.44 87.9807C48.78 87.9307 48.21 87.8807 47.65 87.8407C47.1 87.8007 46.49 87.7607 45.98 87.7707C45.32 87.7207 44.91 87.8507 44.76 88.1007C44.44 88.3107 44.13 88.5407 44.1 88.9207C43.81 89.3807 43.97 90.1007 44.29 90.3707C44.32 90.4807 44.45 90.6407 44.49 90.7407C44.77 90.9007 44.95 90.8807 45.14 90.9007C45.51 91.0107 45.63 91.1007 45.99 91.1107C46.43 91.2607 47.32 91.3407 47.79 91.4007C48.26 91.4007 49 91.3907 49.47 91.3507C49.82 91.4007 50.47 91.2907 50.4 91.3807C50.82 91.3807 50.71 91.3207 50.89 91.2907C51.71 91.2907 52.18 91.1707 52.55 91.2107C52.6 91.2107 52.64 91.2007 52.67 91.2007L52.71 94.7207C52.47 94.7307 52.42 94.7807 52.12 94.7707C51.46 94.7307 51.5 94.7007 50.8 94.6907C50.96 94.6007 50.1 94.6107 49.87 94.5607C49.52 94.5707 49.04 94.5607 48.95 94.6207C48.42 94.5707 47.45 94.6807 47.05 94.7407C46.37 94.9307 46.19 95.0807 45.77 95.2907C45.48 95.5007 45.38 95.6807 45.32 95.8107C45.19 95.9607 45.12 96.0507 45.07 96.1407C45.06 96.2907 45.06 96.3407 45.08 96.4707C45.11 96.5807 45.16 96.7207 45.37 96.8807C45.64 97.2107 45.82 97.3207 46.13 97.6007C46.43 97.7507 46.76 97.8807 47.11 97.9907C47.16 97.9007 46.46 97.6707 46.47 97.5507C46.63 97.5307 47.2 97.8507 47.58 97.9507C48.16 98.1207 49.14 98.1107 49.81 98.1307C50.41 98.1207 51.07 98.0007 51.33 98.0107C51.81 97.9607 51.88 97.8907 52.31 97.8407C52.47 97.8307 52.64 97.8307 52.82 97.8207L53.11 101.311C51.7 101.361 49.95 101.591 48.7 101.781C48.31 101.871 48.29 101.941 47.94 102.051C47.83 102.011 47.42 102.271 47.43 102.191C47.19 102.351 46.91 102.571 46.77 102.741C46.63 102.911 46.61 102.961 46.58 103.001C46.61 103.071 46.6 103.211 46.74 103.361C46.78 103.501 47.02 103.701 47.02 103.781C47.18 103.901 47.26 103.911 47.5 104.071C47.81 104.291 48.1 104.491 48.79 104.721C48.92 104.811 49.3 104.941 49.44 105.021C49.62 105.061 49.75 105.071 49.76 105.031C50.1 105.111 50.18 105.181 50.63 105.251C51.13 105.301 51.44 105.411 51.67 105.371C52.05 105.431 52.35 105.481 52.55 105.531C53.45 105.561 53.4 105.661 54.08 105.681C54.12 105.751 53.47 105.681 53.59 105.761C54.4 105.831 55.28 105.761 55.96 105.831C57.07 105.781 57.99 105.811 58.82 105.691C58.89 105.711 59.02 105.731 59.29 105.711C60.28 105.561 62.2 105.421 62.8 105.201C63.36 105.141 63.19 105.221 63.75 105.101C63.72 105.201 64.4 105.091 64.7 105.091C64.82 105.151 65.03 105.191 65.33 105.191C64.9 105.281 64.39 105.501 63.89 105.511C63.61 105.601 62.93 105.681 62.61 105.771C61.71 105.841 60.95 105.931 60.05 106.051C58.69 106.151 57.68 106.181 57 106.311C56.72 106.321 56.08 106.261 55.88 106.331C55.58 106.321 55.6 106.261 55.08 106.281C54.68 106.271 54.68 106.331 54.43 106.351C54.07 106.331 53.62 106.311 53.33 106.271C52.69 106.291 53.49 106.351 53.14 106.381C53.4 106.441 54.26 106.431 54.4 106.491C54.43 106.511 54.33 106.511 54.23 106.511C53.95 106.531 53.99 106.511 53.96 106.491ZM46.31 103.281C46.27 103.001 46.31 102.991 46.39 102.791C46.48 102.611 46.73 102.321 47.14 102.081C47.36 101.961 47.74 101.851 48.02 101.721C48.52 101.631 49.67 101.401 50.63 101.321C50.94 101.251 51.37 101.201 51.73 101.141C52.15 101.121 52.58 101.111 52.96 101.091L52.71 98.0607C52.27 98.0707 51.91 98.0907 51.67 98.0607C51.16 98.1007 51.17 98.1607 50.87 98.1407C50.85 98.2007 50.63 98.2607 50.24 98.2907C49.22 98.3507 48.19 98.3407 47.36 98.1407C47.79 98.3007 47.14 98.2007 47.16 98.2507C47.92 98.4707 48.14 98.4007 48.63 98.4007C48.92 98.4807 49.43 98.3707 49.78 98.3407C49.66 98.4207 50.3 98.3407 50.07 98.4407C50.64 98.4407 51.74 98.3407 52.72 98.2407L52.94 100.881C52.42 100.931 51.98 100.981 51.73 101.051C51.35 100.961 49.93 101.111 49.27 101.301C48.91 101.241 47.96 101.471 47.37 101.731C47.23 101.801 47.28 101.811 47.18 101.881C46.55 102.091 46.11 102.671 46.09 102.981C46.15 103.051 46.17 103.121 46.27 103.351C46.29 103.741 47.07 104.271 47.62 104.591C48.04 104.731 48.46 104.961 48.71 104.951C47.56 104.611 46.5 103.841 46.31 103.281ZM44.88 95.8907C44.94 95.7607 45.41 95.2507 45.55 95.1107C45.19 95.4407 45.21 95.3607 45.04 95.5307C44.92 95.6607 44.79 95.8807 44.75 95.9907C44.69 96.1307 44.62 96.2707 44.71 96.3107C44.77 96.1807 44.8 96.0707 44.88 95.8907ZM45.73 94.9507C45.74 94.9907 45.83 94.9607 45.96 94.9007C46.1 94.8007 46.08 94.7207 45.73 94.9507ZM44.72 96.5207C44.72 96.5007 44.69 96.4307 44.68 96.4607C44.68 96.4807 44.72 96.5607 44.72 96.5207ZM51.43 94.3407C51.59 94.2707 51.31 94.2507 51.13 94.2107C50.08 94.1807 49.82 94.2407 48.76 94.1907C48.53 94.2407 47.96 94.2607 47.86 94.3507C49.01 94.3107 49.77 94.3907 50.93 94.3707C51.5 94.3707 51.55 94.4307 52.09 94.4407C52.25 94.4307 52.43 94.4307 52.6 94.4207L52.57 91.5407C51.9 91.6007 51.26 91.7107 50.73 91.7007C50.69 91.7507 50.9 91.7507 50.88 91.7907C51.34 91.7407 51.91 91.6907 52.58 91.6607L52.61 94.3007C52.51 94.3007 52.41 94.3007 52.3 94.3007C52.22 94.3407 52.54 94.3607 52.29 94.3707C52.14 94.2907 51.84 94.3807 51.43 94.3407ZM47.31 94.3607C46.76 94.4507 46.4 94.5907 46.26 94.7307C46.72 94.5407 47.21 94.4607 47.31 94.3607ZM49.58 105.211C49.54 105.191 49.36 105.161 49.43 105.191C49.46 105.211 49.65 105.241 49.58 105.211ZM50.75 105.491C50.58 105.551 51.32 105.621 51.63 105.671C51.69 105.601 51 105.501 50.75 105.491ZM48.68 91.7707C48.06 91.8207 47.63 91.7907 47 91.7407C47.03 91.7207 46.07 91.5607 46.27 91.6607C46.49 91.8207 48.05 91.8007 47.89 91.8807C48.35 91.9207 48.35 91.8607 48.82 91.8907C48.94 91.8207 48.94 91.8407 48.84 91.7707C49.14 91.7507 49.35 91.8407 49.46 91.7707C49.1 91.7607 49.19 91.6907 48.7 91.7007L48.68 91.7707ZM52.77 87.4307C52.29 87.4307 51.73 87.4607 51.47 87.3507C51.49 87.3007 51.92 87.3507 51.82 87.2807C50.97 87.1607 49.76 87.2407 48.75 87.0807C49.04 87.0307 49.8 87.0707 50.39 87.0807C50.43 87.0207 50.16 86.9907 49.93 86.9607C49.94 87.0007 49.76 87.0107 49.43 86.9807C49.63 86.9207 49.19 86.9107 49.13 86.8707C48.24 86.8507 47.07 86.7007 45.91 86.7207C46.14 86.7307 45.92 86.7607 45.75 86.7707C45.66 86.7307 45.36 86.7107 45.04 86.7607C45.02 86.7907 45.06 86.8207 44.91 86.8607C44.76 86.8807 44.56 86.9207 44.29 87.0607C44.02 87.2807 43.56 87.5207 43.15 88.3207C43.06 88.5607 42.98 88.8807 42.96 89.2307C42.93 89.2407 42.9 89.1907 42.87 89.3407C42.89 89.3707 42.92 89.3507 42.92 89.4807C42.84 89.6507 42.99 90.1807 43.13 90.4707C43.35 90.9507 43.62 91.1707 43.87 91.3807C44.01 91.4707 44.15 91.5507 44.29 91.6307C44.45 91.6907 44.61 91.7607 44.79 91.8307C44.8 91.8807 45.39 92.0507 45.47 92.0907C46.02 92.1607 46.42 92.2807 46.99 92.3007C47.74 92.3907 48.05 92.3307 48.39 92.4107C48.62 92.3707 48.83 92.3307 48.9 92.2507C49.49 92.2107 50.17 92.1707 50.36 92.0607C49.86 92.0507 49.67 92.0107 49.1 92.0607C49.1 92.0407 49.23 92.0307 49.27 92.0107C48.31 92.0307 47.83 92.0007 47.11 91.9507C46.99 92.0607 46.17 92.0307 45.47 91.7907C45.21 91.7207 45.34 91.8307 45.03 91.7307C44.26 91.3707 43.39 90.9207 43.3 90.2007C43.26 90.2107 43.21 90.1307 43.17 89.9907C43.13 89.6507 43.05 88.9007 43.37 88.4707C43.37 88.3007 43.57 87.9707 43.83 87.7307C44.09 87.4807 44.39 87.3307 44.49 87.2207C44.64 87.2307 44.67 87.3407 44.86 87.3307C44.6 87.4407 44.44 87.5107 44.29 87.6307C44.14 87.7407 43.97 87.8807 43.75 88.1807C43.63 88.3507 43.57 88.3007 43.44 88.6507C43.41 88.8507 43.55 88.7207 43.47 89.0307C43.35 89.1107 43.33 89.3307 43.25 89.3107C43.19 90.0407 43.48 90.4807 43.75 90.7007C43.74 90.7207 43.77 90.7707 43.8 90.8207C43.85 90.8707 43.9 90.9207 43.92 90.9507C43.94 90.9107 44.02 90.9507 44.1 91.0007C44.19 91.0507 44.32 91.1007 44.38 91.1107C44.29 91.0007 44.19 90.8807 44.05 90.7107C44.02 90.8307 43.78 90.4407 43.72 90.4007C43.67 90.2807 43.5 89.8207 43.56 89.6707C43.53 89.6607 43.5 89.6407 43.51 89.4707C43.59 88.6507 43.96 88.0607 44.72 87.5907C45.33 87.4007 45.83 87.4507 46.71 87.4307L46.7 87.4807C47.18 87.4907 47.2 87.4907 47.67 87.5407C47.73 87.4707 48.26 87.5007 48.67 87.5007C48.98 87.5007 49.03 87.5707 49.14 87.5807C49.52 87.6107 49.96 87.5707 50.44 87.6607C50.79 87.6507 51.09 87.6407 51.44 87.6207C52.12 87.7207 52.7 87.7207 53.23 87.7607L53.35 85.3507C53.13 85.3407 52.92 85.3207 52.72 85.2907C52.08 85.3207 50.81 85.2907 50.09 85.2507C49.54 85.3207 49.08 85.3207 48.12 85.2807C47.18 85.3307 46.26 85.3307 45.06 85.2407C44.27 85.2007 44.27 85.2307 43.62 85.1607C42.94 85.1907 41.52 84.9907 41.22 85.0607C41.72 85.1407 41.75 85.2107 42.31 85.2207L42.29 85.2907L42.92 85.3407C43.59 85.5007 44.41 85.5307 45.29 85.6207C45.32 85.5907 45.28 85.5507 45.47 85.5607C46.36 85.6007 47.35 85.6807 48.04 85.6507C48.2 85.6807 48.07 85.7407 48.51 85.7307C48.97 85.7007 49.74 85.7307 50.15 85.6907C50.37 85.7307 50.7 85.7607 51.11 85.7907C51.42 85.8007 51.24 85.7107 51.61 85.7307C51.63 85.7607 51.57 85.8007 51.76 85.8107C51.74 85.7407 52.02 85.7407 52.26 85.7807C51.98 85.7907 51.73 85.8407 52.24 85.8707C52.27 85.8107 52.36 85.7607 52.6 85.7407C52.75 85.7707 53.06 85.7707 53.32 85.8007L53.24 87.2907C53.08 87.2707 52.93 87.2507 52.84 87.2207C52.72 87.2707 52.71 87.3207 52.31 87.3607C52.84 87.4107 53.01 87.3907 53.23 87.4707L53.32 85.6307L53.28 85.6107C53.22 85.6307 52.75 85.7007 52.61 85.6207C52.68 85.5507 53.01 85.5707 53.32 85.6007L53.22 87.4907C53.04 87.4507 52.87 87.4307 52.77 87.4307ZM44.38 91.0807C44.47 91.1507 44.57 91.2007 44.69 91.2507C44.74 91.2107 44.58 91.1707 44.41 91.0507L44.38 91.0807ZM52.15 91.9107C51.22 91.9307 50.79 91.9407 50.51 92.0707C51.24 92.0207 51.81 91.9307 52.58 91.9407L52.6 94.0007C52.53 94.0007 52.44 93.9907 52.36 93.9907L52.34 94.0807C52.46 94.0907 52.54 94.0907 52.6 94.0807L52.58 91.8507C52.4 91.8707 52.4 91.9107 52.15 91.9107ZM51.5 94.0307C51.55 94.0407 51.76 94.0307 51.67 94.0107C51.63 94.0107 51.42 94.0207 51.5 94.0307ZM36.26 83.6807L36.29 83.6407C36.03 83.4407 35.94 83.3207 35.86 83.2107C35.78 83.0907 35.71 83.0107 35.65 82.8207C35.58 82.9207 35.54 82.6507 35.51 82.5707C35.44 82.7307 35.56 83.0807 35.7 83.2407C35.94 83.6807 36.51 83.9207 36.88 84.1007C36.98 84.1007 37.83 84.4607 37.75 84.3307C37.01 84.1107 36.67 83.9407 36.26 83.6807ZM38.31 84.5007C38.79 84.6207 38.93 84.7207 39.64 84.8207C39.66 84.7607 40.14 84.8507 40.14 84.7807C39.24 84.6007 38.8 84.5407 38.31 84.5007ZM57.51 81.2007C58.02 81.2207 57.99 81.2707 58.3 81.3107C59.17 81.3007 59.95 81.4307 60.75 81.4207C60.94 81.4707 61.36 81.5107 61.61 81.5607C61.7 81.5707 61.82 81.6007 62.06 81.6107C62.28 81.6207 62.7 81.5607 63 81.3507C63.57 80.9307 63.61 80.6707 63.75 80.4407C63.83 80.1607 63.9 79.7307 63.95 79.3207C63.99 79.0707 64.03 78.8207 64.07 78.5607C64.11 78.2807 64.14 78.0007 64.16 77.7307C64.19 77.2007 64.22 76.6907 64.24 76.2707C64.21 76.2307 64.2 76.0707 64.19 75.9207C64.2 74.9707 64.06 74.3307 64.11 73.6307C64.04 73.4407 64.04 72.7607 64.03 72.1807C63.94 72.1307 64.02 72.3107 64.01 72.6507C63.98 72.7507 63.97 72.9807 63.98 73.2807C64 74.0707 64.02 74.9807 64.06 75.5607C64.04 75.9307 64.03 76.3907 64 76.7207C64.04 76.8507 64.06 77.1907 64.04 77.5907C64.01 77.9207 63.95 77.7007 63.92 78.2707C63.92 78.5207 63.89 78.8407 63.85 79.0907C63.82 79.3207 63.8 79.6407 63.69 80.0407C63.64 80.2307 63.54 80.5107 63.38 80.7607C63.29 80.8907 63.18 81.0407 62.97 81.1907C62.76 81.3407 62.47 81.4407 62.26 81.4607C61.46 81.4707 61.56 81.4007 61.25 81.4107C60.72 81.2807 59.45 81.2007 59 81.1807C58.67 81.1407 58.7 81.0907 58.38 81.0507C57.64 81.0507 57 80.9307 56.3 80.8907C56.15 80.9407 55.05 80.7707 55.16 80.8707C56.11 80.8907 56.3 81.0407 57.55 81.1007C57.53 81.1707 57.26 81.1307 57.51 81.2007ZM35.75 82.1407C35.75 82.0607 35.91 81.8807 36.15 81.7407C36.36 81.6107 36.7 81.4807 36.66 81.4207C36.36 81.5407 36.19 81.6207 36.05 81.6907C35.9 81.7707 35.76 81.8707 35.65 82.0407C35.56 82.2507 35.62 82.2207 35.53 82.4807C35.6 82.4907 35.62 82.3407 35.75 82.1407ZM64.12 69.2207C64.07 69.5707 64 69.6107 63.96 69.9607C64.04 69.9707 63.95 70.7607 64.04 70.7607C64.06 70.0907 64.15 69.6407 64.12 69.2207ZM37.33 81.2907C38.45 81.0207 38.91 80.8607 40.21 80.8007C40.47 80.7407 41.09 80.7207 41 80.6407C40.9 80.6107 40.41 80.6807 40.38 80.6407C39.92 80.7107 39.37 80.7207 38.95 80.7807C38.88 80.8007 38.62 80.8607 38.49 80.8907C37.93 80.9907 37.19 81.1607 37.06 81.3207C37.22 81.2707 37.38 81.2307 37.33 81.2907ZM52.71 106.341C52.73 106.301 52.61 106.271 52.41 106.251C52.39 106.281 52.52 106.311 52.71 106.341ZM63.99 70.9007C63.91 71.6907 64.09 71.3107 63.99 70.9007V70.9007ZM43.69 80.6207C43.51 80.6107 43.44 80.5907 43.38 80.5707C42.97 80.5907 42.52 80.6107 42.56 80.7007C43.16 80.7007 43.56 80.6807 43.69 80.6207ZM50.08 105.961C49.9 105.921 49.65 105.861 49.61 105.871C49.79 105.911 50.05 105.981 50.08 105.961ZM64.66 66.5307C64.67 66.5407 64.73 66.4507 64.71 66.4107C64.7 66.4107 64.64 66.4907 64.66 66.5307ZM36.85 84.1407C36.86 84.1207 36.65 84.0207 36.6 84.0307C36.61 84.0707 36.73 84.1107 36.85 84.1407ZM48.73 80.5807C48.66 80.6607 49.56 80.6707 49.85 80.6407L49.86 80.5707C49.03 80.5107 47.62 80.4907 47.11 80.6007C47.73 80.6107 48.3 80.6107 48.73 80.5807ZM41.15 80.6707C41.15 80.6907 41.42 80.6907 41.46 80.6507C41.29 80.6707 41.23 80.6407 41.15 80.6707ZM47.26 105.121L47.53 105.251L47.56 105.211L47.29 105.081L47.26 105.121ZM54.2 80.7507C54.2 80.7607 54.32 80.7907 54.36 80.7607C54.36 80.7507 54.23 80.7307 54.2 80.7507ZM53.23 80.7007C53.36 80.7007 53.55 80.7207 53.56 80.7007C53.43 80.7007 53.24 80.6807 53.23 80.7007ZM52.12 80.5807C51.72 80.5707 51.45 80.5907 51.31 80.6207C51.54 80.6607 51.99 80.6307 52.12 80.5807ZM52.93 80.6007C52.33 80.4507 52.07 80.6707 52.93 80.6007V80.6007ZM51.17 80.5107C50.71 80.4707 50.68 80.6107 51.16 80.5807L51.17 80.5107ZM70.43 75.0107C70.42 75.0107 70.42 75.1407 70.46 75.1707C70.47 75.1707 70.46 75.0407 70.43 75.0107ZM51.54 100.091C51.24 100.111 51.14 100.071 50.75 100.121C50.67 100.201 51.41 100.191 51.54 100.091ZM63.65 72.4207C63.68 72.4307 63.71 72.3607 63.67 72.2607C63.65 72.2507 63.61 72.3307 63.65 72.4207ZM60.42 80.8107C60.67 80.9207 61.33 80.9107 61.85 80.9907C61.79 80.9307 61.87 80.9407 62.12 80.9207C62.25 80.9107 62.47 80.8607 62.63 80.7307C62.79 80.6107 62.87 80.4807 62.92 80.3807C63.15 79.9807 63.18 79.8707 63.26 79.4307C63.29 78.7307 63.52 78.0707 63.44 77.6007C63.49 77.8807 63.57 77.1907 63.51 77.1107C63.47 77.9007 63.45 76.5507 63.38 76.5807C63.37 75.9607 63.34 75.8007 63.39 75.4307C63.35 75.4507 63.33 75.2607 63.33 74.9407C63.35 74.2707 63.34 74.1207 63.38 73.4907C63.38 73.7807 63.41 73.8707 63.46 73.8307C63.46 73.2607 63.46 73.4307 63.46 72.8707C63.44 72.8307 63.41 72.8607 63.41 72.7007C63.43 71.7307 63.35 71.2207 63.33 70.4407C63.38 70.3507 63.43 70.2107 63.45 69.6707C63.38 69.2707 63.47 68.3607 63.49 67.8907C63.56 67.7107 63.67 67.2307 63.81 66.7907C63.94 66.3507 64.11 65.9507 64.12 65.8307C64.3 65.5307 64.58 65.1707 64.85 64.9407C65.12 64.7007 65.39 64.6107 65.4 64.5407C65.08 64.5807 64.89 64.7107 64.72 64.8507C64.54 64.9907 64.39 65.1707 64.14 65.4607C63.76 66.1007 63.56 66.8907 63.36 67.6707C63.32 67.9007 63.35 67.9507 63.32 68.1607C63.28 68.2107 63.24 68.3507 63.21 68.6207C63.18 69.1907 63.06 69.8807 63.1 70.5507L63.05 70.5407C63.05 71.3007 62.97 71.8007 63.03 72.3207C62.99 72.3507 62.98 72.5907 62.99 72.9607C63.12 74.1407 63.19 75.7807 63.23 76.9007C63.13 77.4407 63.21 78.1707 63.05 78.8707C63.01 79.1907 63.08 79.1907 63.03 79.5407C62.95 79.7607 62.92 80.0807 62.68 80.4307C62.58 80.6107 62.24 80.7707 62.04 80.7507C61.84 80.7507 61.71 80.7207 61.6 80.7107C61.49 80.6707 61.02 80.6507 61.15 80.5907C60.75 80.5507 60.64 80.5807 60.33 80.5607C60.26 80.4107 59.72 80.5407 59.38 80.4007C59.14 80.4707 57.41 80.3207 56.78 80.2307C56.37 80.2707 55.87 80.2807 55.13 80.2407C55.13 80.1807 55.41 80.2107 55.16 80.1507C54.44 80.1207 53.59 80.0607 53.07 79.9607C52.72 80.0107 52.46 80.1207 51.89 80.1607C52.68 80.1907 52.96 80.1907 53.67 80.2207C54.09 80.2607 54.14 80.3307 54.62 80.3707C54.84 80.3807 54.93 80.3607 55.27 80.4007C55.27 80.3607 55.41 80.3507 55.61 80.3607C56.36 80.4107 56.55 80.3307 57.25 80.3707C57.68 80.4407 58.01 80.3907 58.21 80.4907C57.98 80.5307 57.84 80.5307 58.01 80.6207C58.8 80.6507 59.73 80.8207 60.42 80.8107ZM43.3 91.5907C43.33 91.4807 43.52 91.8307 43.94 92.0307C43.96 92.0007 43.76 91.8507 43.56 91.6807C43.37 91.4907 43.15 91.3007 43.08 91.2007C43.26 91.4507 42.97 91.3107 43.3 91.5907ZM44.82 92.3707C44.77 92.4107 45.01 92.5207 45.23 92.6007C45.19 92.5207 45.82 92.7207 45.88 92.6807C45.34 92.5407 45.34 92.5107 44.82 92.3707ZM44.07 92.1107L44.5 92.3107C44.54 92.2807 44.39 92.2007 44.1 92.0807L44.07 92.1107ZM38.2 80.3107C38.63 80.2607 38.52 80.2107 38.84 80.1707C39.85 80.1507 41.28 79.9807 42.53 79.9307C43 79.9307 42.87 80.0107 43.49 79.9907C43.59 79.9607 43.75 79.9307 43.99 79.9207C44.49 79.9007 44.58 79.9507 44.96 79.9507C45.11 79.9007 45.38 79.8707 45.95 79.8807L45.97 79.7607C44.31 79.8107 42.45 79.6907 40.94 79.8807C40.27 79.8307 40 79.9907 39.17 80.0207C38.67 80.1407 38.47 80.1207 37.89 80.2707C37.5 80.2807 36.7 80.5307 36.37 80.7007C36.57 80.6807 37.8 80.2907 38.2 80.3107ZM42.42 88.8907C42.3 89.2307 42.37 89.4407 42.41 89.6807C42.38 89.4107 42.42 89.0407 42.42 88.8907ZM70.43 71.3807C70.54 71.8607 70.65 72.6107 70.73 72.6407C70.7 72.1307 70.57 72.0807 70.51 71.5307C70.47 71.3307 70.43 71.3207 70.38 71.0607C70.25 70.5407 70 69.3607 69.89 69.3607C69.93 69.7607 70.31 71.0607 70.43 71.3807ZM66.69 64.6607C66.38 64.4707 66.29 64.6507 66.69 64.6607V64.6607ZM67.39 64.8907C67.49 64.9407 67.64 65.0407 67.66 65.0207C67.56 64.9607 67.41 64.8707 67.39 64.8907ZM69.02 66.6407C69.11 66.8307 69.12 66.9207 69.26 67.2107C69.43 67.4407 69.06 66.5707 69.02 66.6407ZM70.53 71.0607C70.44 70.4607 70.26 70.0307 70.15 69.5007C70.11 69.5407 70.05 69.3307 70.01 69.3507C70.26 70.1207 70.33 70.6007 70.53 71.0607ZM44.55 98.9607C44.64 99.0307 44.74 99.0807 44.84 99.1407L44.87 99.1007C44.77 99.0407 44.67 98.9907 44.58 98.9207L44.55 98.9607ZM44.99 99.2207C45.18 99.3207 45.18 99.3607 45.43 99.4607C45.46 99.4307 45.35 99.3607 45.17 99.2607C45.16 99.2807 45.03 99.2207 44.99 99.2207ZM72.38 80.9507C72.33 80.6207 72.13 79.4907 72.16 79.9907C72.2 79.9607 72.28 80.9507 72.38 80.9507ZM68.59 65.6507C68.77 65.8207 68.89 65.9307 69.1 66.2907C69.18 66.2307 68.87 65.6507 68.43 65.1907C68.4 65.2407 67.81 64.7107 67.83 64.8507C68.35 65.2407 68.16 65.1907 68.59 65.6507ZM65.7 64.3107C65.74 64.3107 65.94 64.2807 65.86 64.2707C65.82 64.2707 65.62 64.3007 65.7 64.3107ZM66.65 64.3607C66.69 64.3807 66.89 64.4007 66.81 64.3707C66.78 64.3607 66.58 64.3307 66.65 64.3607ZM65.08 64.4007C65.25 64.3407 65.32 64.3607 65.39 64.3107C65.39 64.2807 65.11 64.3507 65.08 64.4007ZM70.32 69.3107C70.16 68.6607 70.1 68.7107 69.96 68.2207C69.86 67.9307 69.89 67.8707 69.78 67.6007C69.65 67.3507 69.35 66.6207 69.23 66.5707C69.72 67.4407 69.97 68.3907 70.13 69.1607C70.27 69.4407 70.31 69.5207 70.32 69.3107ZM70.7 70.7307C70.61 70.3407 70.53 70.0807 70.45 69.9507C70.52 70.2507 70.46 70.2407 70.6 70.7407L70.7 70.7307ZM62.29 77.4807C62.24 77.3707 62.15 78.2007 62.18 78.2407C62.22 77.9507 62.28 77.9907 62.29 77.4807ZM62.1 79.0407C62.17 78.9407 62.24 78.9607 62.31 78.6007C62.34 78.3207 62.37 77.8407 62.23 78.1007C62.19 78.4207 62.15 78.6807 62.1 79.0407ZM62.3 68.3107C62.31 68.2607 62.33 68.0507 62.3 68.1307C62.29 68.1807 62.27 68.3907 62.3 68.3107Z" fill="#1E1E1E"/><path d="M59.57 106.441C59.81 106.401 59.69 106.451 59.57 106.461C59.35 106.491 59.21 106.471 59.41 106.451C59.46 106.441 59.53 106.441 59.57 106.441Z" fill="#1E1E1E"/><path d="M63.35 68.8304C63.46 68.3904 63.37 69.0404 63.32 69.3104C63.24 69.2704 63.43 68.8004 63.35 68.8304Z" fill="#1E1E1E"/><path d="M42.49 91.291C42.75 91.431 43.17 92.141 44.15 92.531C44.01 92.531 44.44 92.731 44.58 92.781C44.31 92.681 43.89 92.561 43.49 92.291C43.07 92.071 42.69 91.681 42.49 91.291Z" fill="#1E1E1E"/><path d="M42.74 87.0708C42.54 87.4308 42.8 86.9008 42.58 87.1608C42.16 87.7908 42.01 88.0908 41.92 88.6708C41.83 89.0308 41.8 89.0108 41.74 89.1808C41.75 90.0908 41.8 90.7508 42.24 91.3808C42.33 91.6408 42.12 91.3908 41.96 91.0108C41.8 90.6408 41.73 90.1608 41.7 90.1208C41.68 89.9008 41.73 89.9608 41.75 89.9408C41.63 89.4508 41.7 88.6008 42.11 87.7208C42.21 87.6308 42.39 87.3508 42.62 87.0708C42.85 86.7908 43.13 86.4908 43.35 86.3208C43.6 86.1408 43.63 86.1608 43.85 86.0508C44.34 85.7308 44.92 85.6908 45.29 85.5908C45.45 85.5908 45.61 85.5908 45.64 85.6208C45.86 85.6008 46 85.5908 46 85.5508C46.95 85.6208 47.17 85.5508 47.8 85.6608C47.91 85.7608 47.03 85.6408 46.65 85.6408C46.31 85.6808 46.29 85.7408 45.43 85.7508C45.53 85.6808 45.2 85.6708 44.82 85.7508C44.44 85.8208 44.06 86.0308 44.03 86.0608C43.86 86.1008 43.53 86.2608 43.25 86.4808C42.98 86.7008 42.78 86.9608 42.74 87.0708Z" fill="#1E1E1E"/><path d="M27.84 10.1509C27.89 10.1909 27.75 10.1309 27.72 10.1109C27.67 10.0809 27.82 10.1309 27.84 10.1509Z" fill="#1E1E1E"/><path d="M22.44 13.2605C22.45 13.2405 22.65 13.2505 22.77 13.2505L23.25 13.2705C23.27 13.3205 22.69 13.2605 22.44 13.2605Z" fill="#1E1E1E"/><path d="M30.18 17.3206C30.15 17.3006 30.07 17.1506 30.09 17.1406C30.15 17.2206 30.21 17.2906 30.18 17.3206Z" fill="#1E1E1E"/><path d="M25.32 20.3602C25.33 20.4602 24.17 20.3802 24.02 20.3102C23.18 20.3002 23.07 20.2702 22.41 20.1902C22.79 20.1502 23.17 20.2002 23.54 20.2602C24.03 20.2902 24.94 20.2802 25.32 20.3602Z" fill="#1E1E1E"/><path d="M23.07 21.9805C23.29 21.9805 23.51 21.9905 23.72 21.9905C23.82 22.0905 23.02 22.0605 23.07 21.9805Z" fill="#1E1E1E"/><path d="M14.61 1.21094C14.56 1.24094 14.29 1.26094 14.29 1.23094C14.37 1.20094 14.43 1.23094 14.61 1.21094Z" fill="#1E1E1E"/><path d="M25.62 20.5L26.11 20.53C26.22 20.61 26.4 20.67 26.55 20.75C25.72 20.72 25.73 20.71 25.27 20.63C25.6 20.58 25.43 20.54 25.62 20.5Z" fill="#1E1E1E"/><path d="M19.12 1.05L18.8 1.04L18.81 1H19.13L19.12 1.05Z" fill="#1E1E1E"/><path d="M18.49 1C18.48 1.02 18.29 1.02 18.16 1.02C18.17 1 18.36 1 18.49 1Z" fill="#1E1E1E"/><path d="M14.95 1.07047L14.96 1.02047C15.28 0.960469 15.16 1.01047 15.6 0.980469L15.59 1.03047C15.15 1.06047 15.26 1.09047 14.95 1.07047Z" fill="#1E1E1E"/><path d="M24.44 20.6203C24.52 20.5903 24.58 20.6303 24.76 20.6403C24.71 20.6603 24.43 20.6403 24.44 20.6203Z" fill="#1E1E1E"/><path d="M24.53 14.8398C25.2 14.8898 26.22 14.7898 26.32 14.9298C26.08 14.9298 25.64 14.9598 25.5 14.9198C25.16 14.9398 25.44 15.0298 25.15 15.0498C24.67 15.0298 24.43 14.9498 24.53 14.8398Z" fill="#1E1E1E"/><path d="M31.52 18.7603C31.49 18.8403 31.52 18.6303 31.53 18.5903C31.55 18.5103 31.54 18.7203 31.52 18.7603Z" fill="#1E1E1E"/><path d="M31.59 18.2599C31.57 18.3399 31.56 18.1299 31.57 18.0799C31.58 17.9999 31.6 18.2199 31.59 18.2599Z" fill="#1E1E1E"/><path d="M22.38 14.9093C22.16 14.8793 21.65 14.8593 21.12 14.8493L21.11 14.3293C21.67 14.3093 22.26 14.2893 22.58 14.2793C22.43 14.3893 21.71 14.3593 21.11 14.3793V14.7993C21.28 14.7993 21.45 14.7893 21.59 14.7793C21.97 14.8093 22.34 14.8493 22.38 14.9093Z" fill="#1E1E1E"/><path d="M23.74 14.1807C24.68 14.1407 24.66 14.2907 25.53 14.2307C25.21 14.3307 23.98 14.2807 23.74 14.1807Z" fill="#1E1E1E"/><path d="M22.54 14.939C22.58 14.999 22.19 14.979 21.88 14.979C22.02 14.959 22.13 14.919 22.54 14.939Z" fill="#1E1E1E"/><path d="M28.85 14.6095C28.93 14.6495 28.72 14.5995 28.67 14.5795C28.6 14.5395 28.81 14.5895 28.85 14.6095Z" fill="#1E1E1E"/><path d="M21.39 14.9692C21.4 14.9492 21.59 14.9592 21.71 14.9492C21.71 14.9792 21.52 14.9692 21.39 14.9692Z" fill="#1E1E1E"/><path d="M27.15 14.9492C26.62 15.1392 25.74 15.1392 25.28 15.2592C24.91 15.2892 24.38 15.1492 24.28 15.2592C23.9 15.2392 23.99 15.1692 23.47 15.1692C23.6 15.0592 24.99 15.1592 25.31 15.0492C26.18 15.0092 26.52 15.0392 27.15 14.9492Z" fill="#1E1E1E"/><path d="M31.08 15.9492C31.41 16.2892 31.51 16.5792 31.51 16.6092C31.49 16.6492 31.43 16.4292 31.08 15.9492Z" fill="#1E1E1E"/><path d="M28.64 21.6894C28.85 21.6694 28.99 21.6594 28.99 21.6994C28.61 21.7894 28.65 21.7294 28.64 21.6894Z" fill="#1E1E1E"/><path d="M22.01 15.0891C21.86 15.1291 21.5 15.1291 21.11 15.1291L21.1 14.0691C21.34 14.0591 21.59 14.0491 21.81 14.0391C21.81 14.0891 22.25 14.0491 22.12 14.1191C22.02 14.1591 21.5 14.1491 21.47 14.1891C21.33 14.1691 21.21 14.1591 21.1 14.1591L21.11 15.0491C21.41 15.0691 21.64 15.0491 22.01 15.0891Z" fill="#1E1E1E"/><path d="M31.84 18.3307C31.78 17.8507 31.98 17.9307 31.84 18.3307V18.3307Z" fill="#1E1E1E"/><path d="M24.41 14.0705L24.43 13.9805C24.92 13.9805 25.42 13.9905 25.92 14.0105C25.56 14.0405 24.98 14.0505 24.41 14.0705Z" fill="#1E1E1E"/><path d="M30.04 14.9697C29.4 14.6597 29.26 14.5397 28.6 14.3597C28.72 14.2897 29.3 14.6097 29.47 14.5697C30.07 14.8597 29.9 14.7497 30.58 15.1997C30.57 15.2697 29.96 14.8297 30.04 14.9697Z" fill="#1E1E1E"/><path d="M28.25 14.2994C27.94 14.2094 27.97 14.1694 27.43 14.0994C27.54 13.9794 28.3 14.2194 28.25 14.2994Z" fill="#1E1E1E"/><path d="M27.1 14.0608C27.18 14.0808 26.97 14.0808 26.93 14.0708C26.84 14.0408 27.06 14.0508 27.1 14.0608Z" fill="#1E1E1E"/><path d="M13.91 28.0693C13.83 28.0493 14.04 28.0493 14.08 28.0593C14.16 28.0793 13.95 28.0793 13.91 28.0693Z" fill="#1E1E1E"/><path d="M13.9 28.0909C13.91 28.1409 13.75 28.1509 13.4 28.1109C12.86 28.0909 12.65 28.2509 11.86 28.0709C11.75 27.9909 12.28 28.0809 12.42 28.0609C12.04 27.9709 12.68 28.0409 12.62 27.9609C13.28 28.0409 13.38 28.0009 13.9 28.0909Z" fill="#1E1E1E"/><path d="M12.63 30.0599C12.61 30.1299 12.61 29.9499 12.62 29.9099C12.64 29.8399 12.64 30.0299 12.63 30.0599Z" fill="#1E1E1E"/><path d="M19.76 1.08C20.25 0.97 21.14 1.03 22.16 1.17C23.13 1.25 24.25 1.5 24.98 1.66C25.59 1.87 26.2 2.13 26.57 2.29C26.88 2.46 26.68 2.42 26.92 2.57C27.32 2.81 27.62 3.1 27.75 3.17C28.01 3.45 28.24 3.93 28.33 4.1C28.38 4.39 28.41 4.7 28.2 5.19C27.94 5.59 27.82 5.71 27.48 5.98C27.33 6.12 27.21 6.22 27.03 6.34C26.57 6.58 26.24 6.68 25.84 6.8C25.45 6.91 25 7.02 24.25 7.14C23.95 7.22 23.7 7.28 23.46 7.34C23.68 7.42 25.27 7.13 25.34 7C25.64 7.04 26.8 6.6 26.96 6.56C27.43 6.31 27.26 6.3 27.67 6C27.76 5.98 27.98 5.82 28.14 5.61C28.31 5.4 28.42 5.15 28.47 5.03C28.61 4.52 28.5 4.15 28.35 3.82C28.19 3.49 27.97 3.21 27.6 2.92C27.32 2.69 27.26 2.6 27.18 2.51C26.96 2.36 26.83 2.31 26.75 2.31C26.12 1.89 25.73 1.8 24.71 1.51C24.38 1.39 23.88 1.28 23.81 1.21C23.34 1.13 22.69 1.02 22.24 0.94C21.39 0.88 20 0.7 19.34 0.81C18.81 0.71 17.91 0.81 17.25 0.75C16.94 0.77 16.84 0.81 16.43 0.82C15.86 0.8 14.85 0.89 14.34 0.88C12.1 1.12 9.41001 1.34 8.06001 1.65C7.61001 1.65 7.52001 1.54 6.62001 1.67C6.55001 1.56 6.04001 1.57 5.67001 1.55C5.54001 1.44 6.39001 1.32 6.32001 1.21C8.10001 0.82 9.38001 0.69 11.66 0.37C12.37 0.29 12.69 0.31 13.45 0.24C14.03 0.18 14.35 0.11 14.77 0.05C15.39 0.01 15.55 0.07 16.07 0.05C16.41 0.05 16.51 0.02 16.73 0C17.37 0.03 18.05 0.04 19.02 0C20.75 0.08 21.73 0.04 23.29 0.38C23.73 0.48 23.64 0.4 23.97 0.47C24.47 0.57 24.55 0.63 24.93 0.73C25.37 0.88 25.36 0.82 25.74 0.96C26.17 1.18 27.19 1.55 27.77 1.93C28.09 2.21 28.77 2.81 28.75 3C28.94 3.26 29 3.42 29.08 3.48C29.14 3.73 29.29 4.09 29.3 4.49C29.32 4.88 29.22 5.25 29.12 5.42C28.97 5.77 28.95 5.91 28.65 6.27C28.34 6.62 28.22 6.65 27.95 6.85C27.64 7.14 26.72 7.47 26.86 7.5C26.61 7.57 25.26 7.89 25.06 7.99C23.44 8.31 22.12 8.37 20.93 8.47L20.85 7.52C21.55 7.46 22.22 7.38 22.9 7.31C23.06 7.26 23.42 7.21 23.73 7.18C24.38 7.14 24.41 7.21 24.9 7.23C25.44 7.21 26.25 7.2 26.62 7.41C27.05 7.52 27.17 7.52 27.16 7.45C28.11 7.78 29.16 8.24 30.01 9.09C30.26 9.31 30.52 9.67 30.63 9.81C31.01 10.52 31.1 11.34 30.89 12.07C30.68 12.79 30.26 13.37 29.76 13.83C29.01 14.43 28.32 14.75 27.36 14.97C27.51 14.86 28.16 14.68 28.71 14.37C29.27 14.07 29.75 13.65 29.76 13.48C29.27 13.79 29.1 14.07 28.34 14.44C28.16 14.39 29.09 13.92 28.99 13.8C29.69 13.38 30.27 12.92 30.58 11.93L30.71 12C30.47 12.7 30.44 12.5 30.18 12.91C29.9 13.34 30.67 12.54 30.78 11.84C30.82 11.69 30.79 11.27 30.75 11.63C30.7 11.61 30.8 11.14 30.83 11.28C30.82 10.96 30.78 10.83 30.74 10.73C30.71 10.63 30.7 10.56 30.68 10.38C30.54 10.02 30.37 9.83 30.26 9.77C29.9 9.28 29.98 9.31 29.74 9.08C29.39 8.82 29.14 8.73 28.94 8.68C28.22 8.33 28.09 8.3 27.39 8.09L27.37 8C26.86 7.93 26.09 7.55 24.95 7.56C25.03 7.51 24.85 7.5 24.8 7.46C24.2 7.49 23.3 7.68 22.66 7.64C22.04 7.71 21.79 7.81 21.2 7.88C21.1 7.89 20.97 7.89 20.84 7.9L20.85 8.06C21.14 8.04 21.41 8.03 21.29 8.11C21.78 8.02 22.85 7.95 22.92 7.83C22.51 7.8 22.03 7.91 21.63 7.95C21.34 7.97 21.29 7.95 20.99 7.98C20.94 7.98 20.9 7.99 20.85 7.99C21.41 7.93 22.02 7.8 22.97 7.74C23.48 7.69 23.39 7.77 23.77 7.75C24.89 7.71 25.57 7.7 26.22 7.77C26.59 7.83 26.58 7.89 26.83 7.96C27.02 8.01 27.39 8.11 27.62 8.19C28.03 8.35 28.32 8.49 28.62 8.7C29.29 9.08 29.88 9.56 30.18 10.18C30.5 10.8 30.5 11.51 30.25 12.1C29.71 13.27 28.59 14 27.43 14.34C27.03 14.44 26.7 14.52 26.48 14.58C24.94 14.71 23.22 14.65 22.11 14.57C21.76 14.57 21.44 14.57 21.1 14.58V14.61C21.19 14.6 21.29 14.6 21.39 14.59C22.16 14.65 23.96 14.52 24.63 14.52C25.15 14.51 25.31 14.57 25.92 14.58C25.97 14.61 26.2 14.63 26.22 14.67C26.82 14.68 26.86 14.75 27.65 14.86C27.83 14.8 27.31 14.68 26.73 14.64C26.77 14.52 27.67 14.6 28.38 14.77C28.53 14.81 28.52 14.77 28.56 14.76C28.7 14.83 29.01 14.92 29.28 15.04C29.54 15.16 29.76 15.28 29.73 15.32C30.4 15.62 31.11 16.31 31.26 16.95C31.4 17.33 31.43 17.44 31.5 17.59C31.57 17.93 31.49 17.92 31.48 18.24C31.46 18.41 31.5 18.56 31.46 18.75C31.39 19.18 31.16 19.59 31.05 19.85C31.18 19.78 31.3 19.36 31.39 19.09C31.54 19.09 31.7 18.16 31.74 17.97C31.75 18.27 31.72 18.3 31.69 18.31C31.64 18.74 31.68 18.75 31.64 19.03C31.47 19.54 31.03 20.26 30.75 20.51C31.05 20.01 30.38 20.79 30.28 20.7C29.86 21.02 29.78 21.21 29.44 21.23C29.08 21.37 29.34 21.44 28.63 21.54C28.7 21.58 29.11 21.49 28.97 21.6C28.45 21.75 27.79 21.7 27.43 21.77C27.19 21.74 27.21 21.68 27.13 21.64C26.81 21.67 26.36 21.61 26 21.57C25.6 21.65 25.12 21.56 24.2 21.51C24.45 21.67 26 21.61 26.61 21.72C26.24 21.86 24.87 21.65 23.68 21.6C23.57 21.53 22.6 21.52 22.74 21.43C22.02 21.41 21.68 21.47 21.11 21.36C20.87 21.36 20.71 21.37 20.61 21.4C20.5 21.51 21.28 21.54 21.21 21.65C21.94 21.7 21.7 21.54 22.38 21.58C22.6 21.64 22.98 21.68 23 21.76C23.42 21.78 23.25 21.68 23.67 21.7C24.09 21.77 25.06 21.78 25.44 21.85C25.34 21.93 24.37 21.82 23.81 21.8C23.41 21.81 22.84 21.79 22.49 21.82C21.75 21.73 21.48 21.83 20.88 21.7C20.63 21.68 20.49 21.69 20.41 21.71L20.48 20.38L20.51 20.37C21.14 20.45 22.3 20.51 23.24 20.52C23.3 20.57 23.12 20.58 23.06 20.61C23.62 20.61 24.06 20.59 24.37 20.54C25.15 20.56 25.83 20.56 26.17 20.5C26.89 20.5 27.08 20.56 27.8 20.57C27.91 20.61 28.52 20.71 28.6 20.67C28.84 20.69 28.58 20.69 28.59 20.72C29.02 20.77 29.56 20.72 29.57 20.77C30 20.78 30.08 20.73 30.57 20.76C30.93 20.69 31.68 20.79 31.92 20.75C32.15 20.77 32.39 20.79 32.4 20.82C32.85 20.8 33.04 20.85 33.57 20.89C34.01 20.95 34.51 21.03 34.71 21.1C35.1 21.16 35.3 21.15 35.58 21.18C35.92 21.27 35.89 21.32 36.04 21.39C36.46 21.48 36.98 21.59 37.58 21.82C38.17 22.04 38.79 22.43 39.15 22.9C39.36 23.1 39.45 23.19 39.51 23.19C39.89 23.76 40.02 24.18 40.1 24.63C40.15 25.07 40.21 25.65 39.71 26.45C39.43 26.92 39.2 27.14 39.17 27.27C38.34 27.92 37.53 28.19 37.38 28.13C36.75 28.31 36.74 28.39 36.16 28.51C36.1 28.49 35.85 28.56 35.81 28.59C35.44 28.62 35.25 28.59 34.8 28.63C34.01 28.74 33.39 28.96 32.3 28.93C31.65 28.97 31.3 29.03 30.95 29.08C30.56 29.05 30.64 29.09 30.13 29.06C29.51 29.08 29.26 29.16 28.33 29.13C28.09 29.16 27.62 29.15 27.68 29.23C27.18 29.23 27.06 29.18 26.71 29.15C25.98 29.13 25.72 29.17 25.07 29.16C24.49 29.11 23.61 29.11 23.11 29.15C22.65 29.1 22.43 29.03 22 28.98C21.76 28.84 22.34 28.72 21.74 28.65C21.22 28.63 21.5 28.73 21.07 28.72C20.34 28.64 19.71 28.52 19.12 28.53C18.61 28.42 17.34 28.35 16.87 28.24L15.89 28.16C15.88 28.14 15.37 28.05 15.41 28.1C15.2 28.06 15.1 28.01 14.95 27.97C14.52 27.95 14.48 28.04 14.1 28.03C13.39 27.91 12.64 27.92 12.68 27.78C12.44 27.76 12.12 27.73 11.84 27.68C11.71 27.66 11.63 27.66 11.66 27.66C11.69 27.65 11.72 27.64 11.71 27.66C11.72 27.68 11.75 27.67 11.74 27.7C11.74 27.73 11.66 27.77 11.66 27.77C11.66 27.78 11.69 27.79 11.67 27.79C11.67 27.79 11.65 27.8 11.68 27.79C11.71 27.8 11.81 27.72 11.79 27.73C11.82 27.73 11.84 27.78 11.71 27.85C11.58 27.88 11.74 27.88 11.92 27.93C11.77 27.92 11.67 27.91 11.66 27.92C11.65 27.93 11.77 27.92 11.84 27.86C11.91 27.81 11.91 27.8 11.89 27.84C11.89 27.85 11.87 27.91 11.86 28C11.75 28.22 11.75 28.29 11.68 28.7C11.65 28.94 11.72 28.85 11.75 28.9C11.63 29.39 11.53 30.31 11.64 30.58C11.64 30.97 11.6 31.06 11.59 31.36C11.59 32.22 11.66 32.62 11.6 33.13C11.69 33.48 11.66 34.89 11.81 34.79C11.76 35.06 11.77 35.69 11.7 35.92C11.72 36.25 11.76 36.38 11.81 36.44C11.78 37.52 11.69 38.8 11.56 39.83C11.46 40.39 11.4 40.3 11.29 40.65C11.15 41.41 10.9 42.31 10.28 43.15C10.11 43.29 9.97001 43.43 9.77001 43.55C9.27001 43.89 10.04 43.59 9.21001 44.02C9.00001 44.05 9.48001 43.81 9.37001 43.8C9.00001 44 8.78001 44.08 8.66001 44.13C8.54001 44.19 8.52001 44.23 8.51001 44.27C8.34001 44.32 8.10001 44.34 7.84001 44.37C7.61001 44.36 7.36001 44.34 7.13001 44.33C6.65001 44.25 6.24001 44.13 6.13001 44.13C5.53001 43.85 4.80001 43.4 4.60001 43.03C4.43001 42.86 4.44001 42.93 4.39001 42.92C4.14001 42.65 3.75001 41.97 3.60001 41.79C3.48001 41.55 3.64001 41.72 3.49001 41.44C3.30001 41.07 3.55001 41.65 3.34001 41.29C3.11001 40.73 2.87001 39.9 2.65001 39.29C2.65001 39.1 2.59001 38.87 2.50001 38.58C2.41001 38.3 2.34001 38.02 2.34001 37.86C2.15001 37.35 1.94001 36.48 1.77001 35.58C1.77001 35.27 1.75001 34.8 1.89001 35.09C1.95001 35.36 1.93001 35.39 1.90001 35.41C2.09001 35.79 2.28001 36.67 2.44001 37.51C2.53001 37.67 2.65001 38.11 2.76001 38.31C2.92001 38.85 2.93001 39.06 3.15001 39.73C3.43001 40.51 3.92001 41.78 4.69001 42.53C4.89001 42.87 5.47001 43.21 5.49001 43.32C5.74001 43.46 6.10001 43.66 6.49001 43.78C6.88001 43.89 7.27001 43.96 7.52001 43.94C7.84001 43.97 7.91001 43.99 8.31001 43.95C9.03001 43.77 8.83001 43.76 9.44001 43.39C9.59001 43.46 10.02 42.87 10.23 42.53L10.28 42.58C10.57 42.07 10.78 41.6 10.97 41.1C11.16 40.2 11.19 40.32 11.32 39.41C11.38 39.25 11.43 38.98 11.48 38.76C11.52 38.49 11.49 38.47 11.51 38.25C11.58 37.91 11.61 37.18 11.68 37.1C11.6 36.81 11.57 36.15 11.51 35.57C11.52 34.75 11.51 34.77 11.46 34.09C11.49 33.94 11.5 33.66 11.51 33.45C11.5 33.1 11.48 32.93 11.43 32.95C11.43 32.61 11.48 32.5 11.45 31.99C11.47 31.67 11.4 31.75 11.4 31.66C11.37 31.32 11.43 30.81 11.3 31.01C11.31 30.71 11.39 30.9 11.38 30.39C11.3 30.35 11.38 30.89 11.25 30.68C11.25 31.13 11.27 31.65 11.23 32.12C11.24 32.3 11.28 32.24 11.29 32.45C11.3 33.61 11.36 34.35 11.31 35.05C11.33 35.2 11.36 35.31 11.38 35.39C11.4 35.84 11.35 36.69 11.39 36.88C11.23 38.19 11.23 41.02 10.06 42.63C9.90001 42.84 9.85001 42.92 9.79001 43C9.73001 43.08 9.69001 43.17 9.44001 43.35C9.07001 43.6 8.87001 43.64 8.52001 43.72C7.89001 43.89 7.20001 43.87 6.84001 43.68C6.59001 43.66 6.29001 43.53 6.10001 43.49C5.57001 43.21 4.87001 42.64 4.43001 41.96C3.97001 41.29 3.69001 40.58 3.56001 40.18C3.44001 39.89 3.32001 39.52 3.21001 39.15C3.10001 38.79 3.00001 38.42 2.91001 38.13C2.82001 37.82 2.75001 37.63 2.62001 37.33C2.41001 36.38 2.30001 35.55 2.04001 34.59C1.97001 34.2 1.98001 34 1.92001 33.63C1.83001 33.07 1.67001 32.44 1.58001 31.87C1.52001 31.49 1.56001 31.34 1.46001 30.92C1.47001 30.79 1.49001 30.71 1.55001 30.76C1.47001 30.33 1.45001 30.44 1.43001 30.12C1.33001 29.9 1.23001 29.54 1.12001 29C1.14001 28.72 0.990011 27.88 1.16001 28.04C1.04001 27.34 0.930011 26.64 0.840011 25.94C0.680011 25.74 0.560011 24.36 0.400011 24.46C0.350011 24.09 0.260011 23.63 0.290011 23.32C0.270011 23.06 0.240011 23.04 0.220011 22.83C0.210011 22.11 0.040011 20.43 0.080011 19.74C0.010011 19.27 1.09859e-05 18.68 -0.019989 17.61C0.010011 17.59 1.09859e-05 17.32 1.09859e-05 17.12C0.050011 17.03 0.070011 16.79 0.120011 16.65C0.150011 16.25 0.050011 15.96 0.120011 15.83C0.190011 15.37 0.180011 16.39 0.230011 16.51C0.210011 17.29 0.200011 17.89 0.180011 18.61C0.210011 19 0.220011 19.1 0.260011 19.76C0.310011 20.5 0.420011 20.87 0.470011 22.21C0.590011 22.42 0.530011 21.78 0.640011 21.91C0.710011 22.68 0.810011 23.09 0.920011 23.54C0.970011 23.83 1.00001 24.1 1.03001 24.37C1.17001 25.04 1.32001 25.98 1.49001 26.47C1.52001 27.17 1.81001 28.13 1.86001 28.7C1.79001 28.81 1.70001 28.02 1.62001 27.9C1.55001 28.02 1.81001 29.05 1.91001 29.49C1.97001 29.52 1.96001 29.36 1.89001 29.01C2.04001 29.19 2.18001 30.16 2.22001 30.61C2.43001 31.63 2.81001 33.47 2.86001 33.97C2.90001 34.14 2.93001 34.08 2.96001 34.29C3.05001 34.92 3.21001 35.46 3.23001 35.72C3.36001 36.25 3.49001 36.54 3.63001 36.97C3.61001 37.44 4.09001 38.35 4.07001 38.84C4.22001 39.18 4.52001 40.23 4.72001 40.45C4.81001 40.95 5.33001 41.62 5.73001 42.07C5.98001 42.28 6.25001 42.43 6.47001 42.5C6.64001 42.6 6.92001 42.71 7.25001 42.75C7.58001 42.79 7.94001 42.78 8.16001 42.73C8.26001 42.68 8.32001 42.64 8.36001 42.6C8.66001 42.44 8.64001 42.52 8.87001 42.36C9.04001 42.2 9.09001 42.12 9.13001 42.04C9.17001 41.96 9.20001 41.9 9.31001 41.71C9.22001 41.98 9.35001 41.7 9.43001 41.64C9.68001 41.08 9.85001 40.34 9.86001 39.88C10.03 39.16 10 38.56 10.12 38.04C10.16 37.31 10.07 37.09 10.08 36.28C9.94001 36.6 10.01 37.53 9.87001 38.13C9.81001 38.66 9.78001 38.99 9.74001 39.36C9.64001 39.71 9.57001 39.66 9.49001 40.21C9.51001 40.28 9.56001 40.12 9.60001 39.94C9.60001 40.1 9.48001 40.57 9.30001 41.02C9.12001 41.47 8.87001 41.83 8.75001 42C8.64001 42.13 8.61001 42.11 8.51001 42.18C8.36001 42.34 8.01001 42.41 7.94001 42.46C7.50001 42.41 7.29001 42.32 6.73001 42.13C6.75001 42.07 6.43001 41.91 6.20001 41.71C5.84001 41.41 5.57001 41.09 5.29001 40.6C5.11001 40.16 4.85001 39.42 4.70001 38.79C4.50001 38.14 4.30001 37.52 4.15001 37.1C3.93001 36.09 3.82001 36 3.71001 35.25C3.64001 35.07 3.57001 34.86 3.49001 34.62C3.48001 34.43 3.42001 34.06 3.35001 33.67C3.37001 33.47 3.43001 33.42 3.34001 32.88C3.23001 32.39 3.29001 33.05 3.20001 32.88C3.06001 32.35 2.92001 31.26 2.77001 30.47C2.60001 29.72 2.27001 28.49 2.19001 27.76C2.11001 27.31 2.02001 27.09 1.94001 26.65C1.85001 26.17 1.91001 26.19 1.83001 25.7C1.62001 24.78 1.50001 22.9 1.35001 22.18C1.29001 22.47 1.25001 21.99 1.16001 21.84L1.10001 20.86L1.19001 20.87C1.25001 20.93 1.19001 20.41 1.24001 20.4C1.26001 20.78 1.30001 20.35 1.27001 20.08C1.33001 20.36 1.40001 20.53 1.44001 21.06C1.52001 20.93 1.55001 21.46 1.61001 21.56C1.63001 21.83 1.66001 21.97 1.69001 22.05C1.72001 23.26 2.13001 24.99 2.18001 26.18C2.24001 26.64 2.30001 26.67 2.37001 27.13C2.36001 27.62 2.54001 28.25 2.65001 29.01C2.80001 29.6 2.96001 30.22 3.11001 31.11C3.16001 31.39 3.20001 31.53 3.24001 31.6C3.33001 32.51 3.52001 33.12 3.59001 33.83C3.71001 34.52 3.84001 34.68 3.90001 35.24C3.94001 35.41 3.97001 35.34 4.01001 35.55C4.22001 36.65 4.48001 37.55 4.72001 38.11C4.91001 38.9 5.21001 39.85 5.49001 40.25C5.72001 40.77 5.93001 41.25 6.43001 41.65C6.78001 41.9 7.01001 41.93 7.36001 42.04C7.43001 42.06 7.54001 42.05 7.64001 42.05C7.75001 42.05 7.87001 42.05 7.92001 42.03C8.07001 42.01 8.15001 41.96 8.26001 41.93C8.31001 41.84 8.44001 41.76 8.56001 41.55C8.69001 41.36 8.80001 41.1 8.84001 40.93C9.08001 40.29 9.06001 40.32 9.23001 39.63C9.30001 39.08 9.41001 38.17 9.38001 37.68C9.45001 37.34 9.45001 37.28 9.42001 36.92C9.42001 36.67 9.45001 36.66 9.46001 36.46C9.47001 36.07 9.43001 35.97 9.42001 35.67C9.43001 34.62 9.40001 34.25 9.39001 33.27C9.38001 32.99 9.36001 32.85 9.33001 32.77C9.36001 32.57 9.35001 31.79 9.28001 31.78C9.33001 31.4 9.29001 31.33 9.32001 30.94C9.31001 30.48 9.25001 30.03 9.36001 29.53C9.34001 29.36 9.42001 28.86 9.34001 28.97C9.38001 28.72 9.44001 28.48 9.48001 28.32C9.49001 28.14 9.48001 27.75 9.71001 27.08C9.79001 26.91 9.90001 26.7 10 26.54C10.12 26.36 10.31 26.14 10.58 25.96C10.85 25.78 11.14 25.7 11.33 25.66C11.46 25.64 11.56 25.62 11.67 25.61C12.05 25.64 12.24 25.7 12.33 25.72C12.43 25.74 12.62 25.77 12.58 25.81C12.87 25.84 13.39 25.86 13.21 25.92C14.45 25.94 15.21 26.11 15.98 26.03C16.94 26.15 17.22 26.07 18.04 26.21C19.1 26.24 19.85 26.31 21.07 26.42C22.39 26.38 23.31 26.3 24.79 26.35C25.22 26.37 25.12 26.31 25.44 26.31C25.93 26.34 26.06 26.33 26.41 26.29C27.14 26.3 27.35 26.34 27.87 26.27C28.21 26.28 28.96 26.24 29.02 26.29C29.43 26.3 29.53 26.26 29.68 26.22C29.87 26.25 30.24 26.25 30.63 26.24C30.9 26.25 30.93 26.22 30.95 26.19C31.18 26.21 31.34 26.21 31.58 26.18C32.03 26.16 32.05 26.22 32.49 26.19C33.29 26.14 33.15 26.1 33.89 26C33.99 26.04 34.61 25.94 34.65 25.99C35.05 25.92 35.03 25.85 35.51 25.77C35.75 25.8 36.18 25.71 36.58 25.56C36.78 25.49 37 25.38 37.14 25.31C37.24 25.25 37.33 25.2 37.42 25.14C37.45 25.1 37.45 25.07 37.44 25.06C37.44 25.05 37.43 25.04 37.42 25.04L37.41 25.03C37.48 25.07 37.43 25.04 37.44 25.05H37.43C37.38 25.03 37.38 25.03 37.4 25.01C37.41 24.99 37.42 24.96 37.47 24.99C37.4 24.78 37.48 24.64 36.87 24.28C36.83 24.24 36.79 24.2 36.81 24.17C36.54 24.04 36.19 23.91 35.82 23.8C35.45 23.69 35.2 23.64 34.98 23.62C34.51 23.52 34.31 23.47 33.97 23.4C33.07 23.27 33.06 23.3 32.3 23.14C30.8 22.96 29.74 22.89 28.21 22.85C27.82 22.86 27.43 22.87 27.08 22.88C26.51 22.82 25.35 22.77 24.34 22.8C24.01 22.78 23.26 22.81 23.2 22.75C22.33 22.8 21.25 22.7 20.33 22.66L20.49 19.45C20.76 19.46 21.01 19.47 21.24 19.46C21.8 19.53 23.08 19.6 23.5 19.62C24 19.66 23.94 19.58 24.33 19.6C24.99 19.65 25.56 19.7 26.12 19.74C26.67 19.78 27.28 19.82 27.79 19.81C28.45 19.86 28.86 19.73 29.01 19.48C29.33 19.27 29.64 19.04 29.66 18.66C29.95 18.2 29.8 17.48 29.47 17.21C29.44 17.1 29.31 16.94 29.27 16.84C28.99 16.68 28.81 16.7 28.62 16.68C28.25 16.57 28.13 16.48 27.77 16.47C27.33 16.32 26.44 16.24 25.97 16.18C25.5 16.18 24.76 16.19 24.29 16.23C23.94 16.18 23.29 16.29 23.36 16.2C22.94 16.2 23.05 16.26 22.87 16.29C22.05 16.29 21.58 16.41 21.21 16.37C21.16 16.37 21.12 16.38 21.09 16.38L21.05 12.86C21.29 12.85 21.34 12.8 21.64 12.81C22.3 12.85 22.26 12.88 22.96 12.89C22.8 12.98 23.66 12.97 23.89 13.02C24.24 13.01 24.72 13.02 24.81 12.96C25.34 13.01 26.31 12.9 26.71 12.84C27.39 12.65 27.57 12.5 27.99 12.29C28.28 12.08 28.38 11.9 28.44 11.77C28.57 11.62 28.64 11.53 28.69 11.44C28.7 11.29 28.7 11.24 28.68 11.11C28.65 11 28.6 10.86 28.39 10.7C28.12 10.37 27.94 10.26 27.63 9.98C27.33 9.83 27 9.7 26.65 9.59C26.6 9.68 27.3 9.91 27.29 10.03C27.13 10.05 26.56 9.73 26.18 9.63C25.6 9.46 24.62 9.47 23.95 9.45C23.35 9.46 22.69 9.58 22.43 9.57C21.95 9.62 21.88 9.69 21.45 9.74C21.29 9.75 21.12 9.75 20.94 9.76L20.65 6.27C22.06 6.22 23.81 5.99 25.06 5.8C25.45 5.71 25.47 5.64 25.82 5.53C25.93 5.57 26.34 5.31 26.33 5.39C26.57 5.23 26.85 5.01 26.99 4.84C27.13 4.67 27.15 4.62 27.18 4.58C27.15 4.51 27.16 4.37 27.02 4.22C26.98 4.08 26.74 3.88 26.74 3.8C26.58 3.68 26.5 3.67 26.26 3.51C25.95 3.29 25.66 3.09 24.97 2.86C24.84 2.77 24.46 2.64 24.32 2.56C24.14 2.52 24.01 2.51 24 2.55C23.66 2.47 23.58 2.4 23.13 2.33C22.63 2.28 22.32 2.17 22.09 2.21C21.71 2.15 21.41 2.1 21.21 2.05C20.31 2.02 20.36 1.92 19.68 1.9C19.64 1.83 20.29 1.9 20.17 1.82C19.36 1.75 18.48 1.82 17.8 1.75C16.69 1.8 15.77 1.77 14.94 1.89C14.87 1.87 14.74 1.85 14.47 1.87C13.48 2.02 11.56 2.16 10.96 2.38C10.4 2.44 10.57 2.36 10.01 2.48C10.04 2.38 9.36001 2.49 9.06001 2.49C9.01001 2.39 8.80001 2.35 8.50001 2.35C8.93001 2.26 9.44001 2.04 9.94001 2.03C10.22 1.94 10.9 1.86 11.22 1.77C12.12 1.7 12.88 1.61 13.78 1.49C15.14 1.39 16.15 1.36 16.83 1.23C17.11 1.22 17.75 1.28 17.95 1.21C18.25 1.22 18.23 1.28 18.75 1.26C19.15 1.27 19.15 1.21 19.4 1.19C19.76 1.21 20.21 1.23 20.5 1.27C21.14 1.25 20.34 1.19 20.69 1.16C20.43 1.1 19.57 1.11 19.43 1.05C19.4 1.03 19.5 1.03 19.6 1.03C19.77 1.03 19.73 1.06 19.76 1.08ZM27.4 4.29C27.43 4.57 27.4 4.58 27.32 4.78C27.23 4.96 26.98 5.25 26.57 5.49C26.35 5.61 25.97 5.72 25.69 5.85C25.19 5.94 24.04 6.17 23.08 6.25C22.77 6.32 22.34 6.37 21.98 6.43C21.56 6.45 21.13 6.46 20.75 6.48L21 9.51C21.44 9.5 21.8 9.48 22.04 9.51C22.55 9.47 22.54 9.41 22.84 9.43C22.86 9.37 23.08 9.31 23.47 9.28C24.49 9.22 25.52 9.23 26.35 9.43C25.92 9.27 26.57 9.37 26.55 9.32C25.79 9.1 25.57 9.17 25.08 9.17C24.79 9.09 24.28 9.2 23.93 9.23C24.05 9.15 23.41 9.23 23.64 9.13C23.07 9.13 21.97 9.23 20.99 9.33L20.77 6.69C21.29 6.64 21.73 6.59 21.98 6.52C22.36 6.61 23.78 6.46 24.44 6.27C24.8 6.33 25.75 6.1 26.34 5.84C26.48 5.77 26.43 5.76 26.53 5.69C27.16 5.48 27.6 4.9 27.62 4.59C27.56 4.52 27.54 4.45 27.44 4.22C27.42 3.83 26.64 3.3 26.09 2.98C25.67 2.84 25.25 2.61 25 2.62C26.15 2.96 27.22 3.72 27.4 4.29ZM28.84 11.68C28.78 11.81 28.31 12.32 28.17 12.46C28.53 12.13 28.51 12.21 28.68 12.04C28.8 11.91 28.93 11.69 28.97 11.58C29.03 11.44 29.1 11.3 29.01 11.26C28.94 11.39 28.92 11.49 28.84 11.68ZM27.99 12.61C27.98 12.57 27.89 12.6 27.76 12.66C27.62 12.77 27.64 12.84 27.99 12.61ZM29 11.04C29 11.06 29.03 11.13 29.04 11.1C29.03 11.08 29 11.01 29 11.04ZM22.29 13.23C22.13 13.3 22.41 13.32 22.59 13.36C23.64 13.39 23.9 13.33 24.96 13.38C25.19 13.33 25.76 13.31 25.86 13.22C24.71 13.26 23.95 13.18 22.79 13.2C22.22 13.2 22.17 13.14 21.63 13.13C21.47 13.14 21.29 13.14 21.12 13.15L21.15 16.03C21.82 15.97 22.46 15.86 22.99 15.87C23.03 15.82 22.82 15.82 22.84 15.78C22.38 15.83 21.81 15.88 21.14 15.91L21.11 13.27C21.21 13.27 21.31 13.27 21.42 13.27C21.5 13.23 21.18 13.21 21.44 13.2C21.57 13.27 21.88 13.18 22.29 13.23ZM26.41 13.21C26.96 13.12 27.32 12.98 27.46 12.84C27 13.03 26.51 13.1 26.41 13.21ZM24.14 2.36C24.18 2.38 24.36 2.41 24.29 2.38C24.25 2.36 24.06 2.33 24.14 2.36ZM22.97 2.08C23.14 2.02 22.4 1.95 22.09 1.9C22.03 1.96 22.72 2.06 22.97 2.08ZM25.04 15.8C25.66 15.75 26.09 15.78 26.72 15.83C26.69 15.85 27.65 16.01 27.45 15.91C27.23 15.75 25.67 15.77 25.83 15.69C25.37 15.65 25.37 15.71 24.9 15.68C24.78 15.75 24.78 15.73 24.88 15.8C24.58 15.82 24.37 15.73 24.26 15.8C24.62 15.81 24.53 15.88 25.02 15.87L25.04 15.8ZM20.94 20.13C21.42 20.13 21.98 20.1 22.24 20.21C22.22 20.26 21.79 20.21 21.89 20.28C22.74 20.4 23.95 20.32 24.96 20.48C24.67 20.53 23.91 20.49 23.32 20.48C23.28 20.54 23.55 20.57 23.78 20.6C23.77 20.56 23.95 20.55 24.28 20.58C24.08 20.64 24.52 20.65 24.58 20.69C25.47 20.71 26.64 20.86 27.8 20.84C27.57 20.83 27.79 20.8 27.96 20.79C28.05 20.83 28.35 20.85 28.67 20.8C28.69 20.77 28.65 20.74 28.8 20.7C28.95 20.68 29.15 20.64 29.42 20.5C29.69 20.28 30.15 20.04 30.56 19.24C30.65 19 30.73 18.68 30.75 18.33C30.78 18.32 30.81 18.37 30.84 18.22C30.82 18.19 30.79 18.21 30.79 18.08C30.87 17.91 30.72 17.38 30.58 17.09C30.36 16.61 30.09 16.39 29.84 16.18C29.69 16.09 29.56 16.01 29.42 15.93C29.26 15.87 29.1 15.8 28.92 15.73C28.91 15.68 28.32 15.51 28.24 15.47C27.69 15.4 27.29 15.28 26.72 15.26C25.97 15.17 25.66 15.23 25.32 15.15C25.09 15.19 24.88 15.23 24.81 15.31C24.22 15.35 23.54 15.39 23.35 15.5C23.85 15.51 24.04 15.55 24.61 15.5C24.61 15.52 24.48 15.53 24.44 15.55C25.4 15.53 25.88 15.56 26.6 15.61C26.72 15.5 27.54 15.53 28.24 15.77C28.5 15.84 28.37 15.73 28.68 15.83C29.45 16.19 30.32 16.64 30.41 17.36C30.45 17.35 30.5 17.43 30.54 17.57C30.58 17.91 30.66 18.66 30.34 19.09C30.34 19.26 30.14 19.59 29.88 19.83C29.62 20.08 29.32 20.23 29.22 20.34C29.07 20.33 29.04 20.22 28.85 20.23C29.12 20.12 29.27 20.05 29.42 19.93C29.57 19.82 29.74 19.68 29.96 19.38C30.08 19.21 30.14 19.26 30.27 18.91C30.3 18.71 30.16 18.84 30.24 18.53C30.36 18.45 30.38 18.23 30.46 18.25C30.52 17.52 30.23 17.08 29.96 16.86C29.97 16.84 29.94 16.79 29.91 16.74C29.86 16.69 29.81 16.64 29.79 16.61C29.77 16.65 29.69 16.61 29.61 16.56C29.52 16.51 29.39 16.46 29.33 16.45C29.42 16.56 29.52 16.68 29.66 16.85C29.69 16.73 29.93 17.12 29.99 17.16C30.04 17.28 30.21 17.74 30.15 17.89C30.18 17.9 30.21 17.92 30.2 18.09C30.12 18.91 29.75 19.5 28.99 19.97C28.38 20.16 27.88 20.11 27 20.13L27.01 20.08C26.53 20.07 26.51 20.07 26.04 20.02C25.98 20.09 25.45 20.06 25.04 20.06C24.73 20.06 24.68 19.99 24.57 19.98C24.19 19.95 23.75 19.99 23.27 19.9C22.92 19.91 22.62 19.92 22.27 19.94C21.59 19.84 21.01 19.84 20.48 19.8L20.36 22.21C20.58 22.22 20.79 22.24 20.99 22.27C21.63 22.24 22.9 22.27 23.62 22.31C24.17 22.24 24.63 22.24 25.59 22.28C26.53 22.23 27.45 22.23 28.65 22.32C29.44 22.36 29.44 22.33 30.09 22.4C30.77 22.37 32.19 22.57 32.49 22.5C31.99 22.42 31.96 22.35 31.4 22.34L31.42 22.27L30.79 22.22C30.12 22.06 29.3 22.03 28.42 21.94C28.39 21.97 28.43 22.01 28.24 22C27.35 21.96 26.36 21.88 25.67 21.91C25.51 21.88 25.64 21.82 25.2 21.83C24.74 21.86 23.97 21.83 23.56 21.87C23.34 21.83 23.01 21.8 22.6 21.77C22.29 21.76 22.47 21.85 22.1 21.83C22.08 21.8 22.14 21.76 21.95 21.75C21.97 21.82 21.68 21.82 21.45 21.78C21.73 21.77 21.98 21.72 21.47 21.69C21.44 21.75 21.35 21.8 21.11 21.82C20.96 21.79 20.65 21.79 20.39 21.76L20.47 20.27C20.63 20.29 20.78 20.31 20.87 20.34C20.99 20.29 21 20.24 21.4 20.2C20.87 20.15 20.7 20.17 20.48 20.09L20.39 21.93L20.43 21.95C20.49 21.93 20.96 21.86 21.1 21.94C21.03 22.01 20.7 21.99 20.39 21.96L20.49 20.07C20.68 20.11 20.85 20.13 20.94 20.13ZM29.33 16.48C29.24 16.41 29.14 16.36 29.02 16.31C28.97 16.35 29.13 16.39 29.3 16.51L29.33 16.48ZM21.57 15.65C22.5 15.63 22.93 15.62 23.21 15.49C22.48 15.53 21.91 15.63 21.14 15.62L21.12 13.56C21.19 13.56 21.28 13.57 21.36 13.57L21.38 13.48C21.26 13.47 21.18 13.47 21.12 13.48L21.14 15.71C21.31 15.69 21.32 15.66 21.57 15.65ZM22.21 13.53C22.16 13.52 21.95 13.53 22.04 13.55C22.09 13.56 22.3 13.55 22.21 13.53ZM37.46 23.89L37.43 23.93C37.69 24.13 37.78 24.25 37.86 24.36C37.94 24.48 38.01 24.56 38.07 24.75C38.14 24.65 38.18 24.92 38.21 25C38.28 24.84 38.16 24.49 38.02 24.33C37.78 23.89 37.21 23.65 36.84 23.47C36.74 23.47 35.89 23.11 35.97 23.24C36.71 23.45 37.04 23.62 37.46 23.89ZM35.41 23.07C34.93 22.95 34.79 22.85 34.08 22.75C34.06 22.81 33.58 22.72 33.58 22.79C34.47 22.97 34.92 23.03 35.41 23.07ZM16.21 26.37C15.7 26.35 15.73 26.3 15.42 26.26C14.55 26.27 13.77 26.14 12.97 26.15C12.78 26.1 12.36 26.06 12.11 26.01C12.02 26 11.9 25.97 11.66 25.96C11.44 25.95 11.02 26.01 10.72 26.22C10.15 26.64 10.11 26.9 9.97001 27.13C9.89001 27.41 9.82001 27.84 9.77001 28.25C9.73001 28.5 9.69001 28.75 9.65001 29.01C9.61001 29.29 9.58001 29.57 9.56001 29.84C9.53001 30.37 9.50001 30.88 9.48001 31.3C9.51001 31.34 9.52001 31.5 9.53001 31.65C9.52001 32.6 9.66001 33.24 9.61001 33.94C9.68001 34.13 9.68001 34.81 9.69001 35.39C9.78001 35.44 9.70001 35.26 9.71001 34.92C9.74001 34.82 9.75001 34.59 9.74001 34.29C9.72001 33.5 9.70001 32.59 9.66001 32.01C9.68001 31.64 9.69001 31.18 9.72001 30.85C9.68001 30.72 9.66001 30.38 9.68001 29.98C9.71001 29.65 9.77001 29.87 9.80001 29.3C9.80001 29.05 9.83001 28.73 9.87001 28.48C9.90001 28.25 9.92001 27.93 10.03 27.53C10.08 27.34 10.18 27.06 10.34 26.81C10.43 26.68 10.54 26.53 10.75 26.38C10.96 26.23 11.25 26.13 11.46 26.11C12.26 26.1 12.16 26.17 12.47 26.16C13 26.29 14.27 26.37 14.72 26.39C15.05 26.43 15.02 26.48 15.34 26.52C16.08 26.52 16.72 26.64 17.42 26.68C17.57 26.63 18.67 26.8 18.56 26.7C17.61 26.68 17.42 26.53 16.17 26.47C16.18 26.4 16.46 26.43 16.21 26.37ZM37.97 25.42C37.97 25.5 37.81 25.68 37.57 25.82C37.36 25.95 37.02 26.08 37.06 26.14C37.36 26.02 37.53 25.94 37.67 25.87C37.82 25.79 37.96 25.69 38.07 25.52C38.16 25.31 38.1 25.34 38.19 25.08C38.12 25.07 38.1 25.22 37.97 25.42ZM9.60001 38.34C9.65001 37.99 9.72001 37.95 9.76001 37.6C9.68001 37.59 9.77001 36.8 9.68001 36.8C9.66001 37.48 9.57001 37.92 9.60001 38.34ZM36.38 26.28C35.26 26.55 34.8 26.71 33.5 26.77C33.24 26.83 32.62 26.85 32.71 26.93C32.81 26.96 33.3 26.89 33.33 26.93C33.79 26.86 34.34 26.85 34.76 26.79C34.83 26.77 35.09 26.71 35.22 26.68C35.78 26.58 36.52 26.41 36.65 26.25C36.5 26.3 36.34 26.33 36.38 26.28ZM21.01 1.23C20.99 1.27 21.12 1.3 21.31 1.32C21.33 1.28 21.2 1.25 21.01 1.23ZM9.73001 36.66C9.81001 35.87 9.63001 36.25 9.73001 36.66V36.66ZM30.03 26.95C30.21 26.96 30.28 26.98 30.34 27C30.75 26.98 31.2 26.96 31.16 26.87C30.56 26.87 30.16 26.89 30.03 26.95ZM23.64 1.61C23.82 1.65 24.07 1.71 24.11 1.7C23.93 1.65 23.67 1.59 23.64 1.61ZM9.06001 41.04C9.05001 41.03 9.00001 41.11 9.01001 41.15C9.02001 41.16 9.07001 41.07 9.06001 41.04ZM36.87 23.42C36.86 23.44 37.07 23.54 37.12 23.53C37.11 23.5 36.99 23.46 36.87 23.42ZM24.99 26.98C25.06 26.9 24.16 26.89 23.87 26.92L23.85 27C24.68 27.06 26.09 27.08 26.6 26.97C25.98 26.96 25.42 26.96 24.99 26.98ZM32.56 26.89C32.56 26.87 32.29 26.87 32.25 26.91C32.43 26.9 32.49 26.93 32.56 26.89ZM26.45 2.44L26.18 2.31L26.15 2.35L26.42 2.48L26.45 2.44ZM19.52 26.81C19.52 26.8 19.4 26.77 19.36 26.8C19.35 26.81 19.48 26.84 19.52 26.81ZM20.48 26.87C20.35 26.87 20.16 26.85 20.15 26.87C20.28 26.87 20.47 26.89 20.48 26.87ZM21.59 26.98C21.99 26.99 22.26 26.97 22.4 26.94C22.18 26.9 21.73 26.94 21.59 26.98ZM20.79 26.96C21.38 27.11 21.64 26.9 20.79 26.96V26.96ZM22.55 27.06C23.02 27.1 23.04 26.96 22.57 26.99L22.55 27.06ZM3.29001 32.55C3.30001 32.55 3.30001 32.42 3.26001 32.39C3.25001 32.39 3.25001 32.52 3.29001 32.55ZM22.18 7.47C22.48 7.45 22.58 7.49 22.97 7.44C23.05 7.36 22.31 7.37 22.18 7.47ZM10.07 35.14C10.04 35.13 10.01 35.2 10.05 35.3C10.07 35.31 10.1 35.23 10.07 35.14ZM13.29 26.75C13.04 26.64 12.38 26.65 11.86 26.57C11.92 26.63 11.84 26.62 11.59 26.64C11.46 26.65 11.24 26.7 11.08 26.83C10.92 26.95 10.84 27.08 10.79 27.18C10.56 27.58 10.53 27.69 10.45 28.13C10.42 28.83 10.19 29.49 10.27 29.96C10.22 29.68 10.14 30.37 10.2 30.45C10.24 29.66 10.26 31.01 10.33 30.98C10.34 31.6 10.37 31.76 10.32 32.13C10.36 32.11 10.38 32.3 10.38 32.62C10.36 33.29 10.37 33.44 10.33 34.07C10.33 33.78 10.3 33.69 10.25 33.73C10.25 34.3 10.25 34.13 10.25 34.69C10.27 34.73 10.3 34.7 10.3 34.86C10.28 35.83 10.36 36.34 10.38 37.12C10.33 37.21 10.29 37.35 10.26 37.89C10.33 38.29 10.24 39.2 10.22 39.67C10.15 39.85 10.04 40.33 9.90001 40.77C9.77001 41.21 9.60001 41.61 9.59001 41.73C9.41001 42.03 9.13001 42.39 8.85001 42.62C8.58001 42.86 8.31001 42.95 8.30001 43.02C8.62001 42.98 8.81001 42.85 8.98001 42.71C9.16001 42.57 9.31001 42.39 9.56001 42.1C9.94001 41.46 10.14 40.67 10.34 39.89C10.38 39.66 10.35 39.61 10.38 39.4C10.42 39.35 10.46 39.21 10.49 38.94C10.52 38.37 10.64 37.68 10.6 37.01L10.65 37.02C10.65 36.26 10.73 35.76 10.67 35.24C10.71 35.21 10.72 34.97 10.71 34.6C10.58 33.42 10.51 31.78 10.47 30.66C10.57 30.12 10.49 29.39 10.65 28.69C10.69 28.37 10.63 28.37 10.67 28.02C10.75 27.8 10.78 27.48 11.02 27.13C11.12 26.95 11.46 26.79 11.66 26.81C11.86 26.81 11.99 26.84 12.1 26.85C12.21 26.89 12.68 26.91 12.55 26.97C12.95 27.01 13.06 26.98 13.37 27C13.44 27.15 13.98 27.02 14.32 27.16C14.56 27.09 16.29 27.24 16.92 27.33C17.33 27.29 17.83 27.28 18.57 27.32C18.57 27.38 18.29 27.35 18.54 27.41C19.26 27.44 20.11 27.5 20.63 27.6C20.98 27.55 21.24 27.44 21.81 27.4C21.02 27.38 20.74 27.37 20.03 27.34C19.61 27.3 19.56 27.23 19.08 27.19C18.86 27.18 18.77 27.2 18.43 27.16C18.43 27.2 18.29 27.21 18.09 27.2C17.34 27.15 17.15 27.23 16.45 27.19C16.02 27.12 15.69 27.17 15.49 27.07C15.72 27.03 15.86 27.03 15.69 26.94C14.92 26.92 13.99 26.75 13.29 26.75ZM30.42 15.97C30.39 16.08 30.2 15.73 29.78 15.53C29.76 15.56 29.96 15.71 30.16 15.88C30.35 16.07 30.57 16.26 30.64 16.36C30.46 16.11 30.74 16.26 30.42 15.97ZM28.89 15.19C28.95 15.15 28.7 15.04 28.48 14.96C28.52 15.04 27.89 14.84 27.83 14.88C28.38 15.03 28.38 15.06 28.89 15.19ZM29.64 15.45L29.21 15.25C29.17 15.28 29.32 15.36 29.61 15.48L29.64 15.45ZM35.51 27.26C35.08 27.31 35.19 27.36 34.87 27.4C33.86 27.42 32.43 27.59 31.18 27.64C30.71 27.64 30.84 27.56 30.22 27.58C30.12 27.61 29.96 27.64 29.72 27.65C29.22 27.67 29.13 27.62 28.75 27.62C28.6 27.67 28.33 27.7 27.76 27.69L27.74 27.81C29.4 27.76 31.26 27.88 32.77 27.69C33.44 27.74 33.71 27.58 34.54 27.55C35.04 27.43 35.24 27.45 35.82 27.3C36.21 27.29 37.01 27.04 37.34 26.87C37.15 26.89 35.92 27.28 35.51 27.26ZM31.29 18.67C31.41 18.33 31.34 18.12 31.3 17.88C31.33 18.16 31.3 18.53 31.29 18.67ZM3.28001 36.19C3.17001 35.71 3.06001 34.96 2.98001 34.93C3.01001 35.44 3.14001 35.49 3.20001 36.04C3.24001 36.24 3.28001 36.25 3.33001 36.51C3.46001 37.03 3.71001 38.21 3.82001 38.21C3.78001 37.8 3.41001 36.5 3.28001 36.19ZM7.03001 42.9C7.33001 43.1 7.43001 42.91 7.03001 42.9V42.9ZM6.33001 42.68C6.23001 42.63 6.08001 42.53 6.06001 42.55C6.16001 42.6 6.31001 42.7 6.33001 42.68ZM4.69001 40.92C4.60001 40.73 4.59001 40.64 4.45001 40.35C4.29001 40.13 4.66001 40.99 4.69001 40.92ZM3.18001 36.51C3.27001 37.11 3.45001 37.54 3.56001 38.07C3.60001 38.03 3.66001 38.24 3.70001 38.22C3.45001 37.45 3.39001 36.97 3.18001 36.51ZM29.17 8.61C29.08 8.54 28.98 8.49 28.88 8.43L28.85 8.47C28.95 8.53 29.05 8.58 29.14 8.65L29.17 8.61ZM28.72 8.34C28.53 8.24 28.53 8.2 28.28 8.1C28.25 8.13 28.36 8.2 28.54 8.3C28.56 8.29 28.68 8.35 28.72 8.34ZM1.34001 26.62C1.39001 26.95 1.59001 28.08 1.56001 27.58C1.52001 27.61 1.43001 26.61 1.34001 26.62ZM5.13001 41.92C4.95001 41.75 4.83001 41.64 4.62001 41.28C4.54001 41.34 4.85001 41.92 5.29001 42.38C5.32001 42.33 5.91001 42.86 5.89001 42.72C5.37001 42.33 5.56001 42.38 5.13001 41.92ZM8.02001 43.26C7.98001 43.26 7.78001 43.29 7.86001 43.3C7.90001 43.3 8.10001 43.26 8.02001 43.26ZM7.06001 43.2C7.02001 43.18 6.82001 43.16 6.90001 43.19C6.94001 43.2 7.14001 43.23 7.06001 43.2ZM8.63001 43.17C8.46001 43.23 8.39001 43.21 8.32001 43.26C8.33001 43.28 8.60001 43.22 8.63001 43.17ZM3.39001 38.25C3.55001 38.9 3.61001 38.85 3.75001 39.34C3.85001 39.63 3.82001 39.69 3.93001 39.96C4.06001 40.21 4.36001 40.94 4.48001 40.99C3.99001 40.12 3.74001 39.17 3.58001 38.39C3.45001 38.12 3.41001 38.05 3.39001 38.25ZM3.02001 36.84C3.11001 37.23 3.19001 37.49 3.27001 37.62C3.20001 37.32 3.26001 37.33 3.12001 36.83L3.02001 36.84ZM11.42 30.08C11.47 30.19 11.56 29.36 11.53 29.32C11.49 29.61 11.43 29.58 11.42 30.08ZM11.62 28.52C11.55 28.62 11.48 28.6 11.41 28.96C11.38 29.24 11.35 29.72 11.49 29.46C11.52 29.15 11.57 28.89 11.62 28.52ZM11.42 39.26C11.41 39.31 11.39 39.52 11.42 39.44C11.43 39.39 11.44 39.17 11.42 39.26Z" fill="#1E1E1E"/><path d="M14.14 1.12905C13.9 1.16905 14.02 1.11905 14.14 1.10905C14.36 1.07905 14.5 1.09905 14.3 1.11905C14.26 1.11905 14.19 1.12905 14.14 1.12905Z" fill="#1E1E1E"/><path d="M10.36 38.7398C10.25 39.1798 10.34 38.5298 10.39 38.2598C10.47 38.2998 10.29 38.7598 10.36 38.7398Z" fill="#1E1E1E"/><path d="M31.23 16.2693C30.97 16.1293 30.55 15.4193 29.57 15.0293C29.71 15.0293 29.28 14.8293 29.14 14.7793C29.41 14.8793 29.83 14.9993 30.23 15.2693C30.65 15.4893 31.02 15.8893 31.23 16.2693Z" fill="#1E1E1E"/><path d="M30.98 20.5008C31.18 20.1408 30.92 20.6708 31.14 20.4108C31.56 19.7808 31.71 19.4808 31.8 18.9008C31.89 18.5408 31.92 18.5608 31.98 18.3908C31.97 17.4808 31.92 16.8208 31.48 16.1908C31.39 15.9308 31.6 16.1808 31.76 16.5608C31.92 16.9308 31.99 17.4108 32.02 17.4508C32.04 17.6708 31.99 17.6108 31.97 17.6308C32.09 18.1208 32.02 18.9708 31.61 19.8508C31.51 19.9408 31.33 20.2208 31.11 20.5008C30.88 20.7808 30.6 21.0808 30.38 21.2508C30.13 21.4308 30.1 21.4108 29.88 21.5208C29.39 21.8408 28.81 21.8808 28.44 21.9808C28.28 21.9808 28.12 21.9808 28.09 21.9508C27.87 21.9708 27.73 21.9808 27.73 22.0208C26.78 21.9508 26.56 22.0208 25.93 21.9108C25.82 21.8108 26.7 21.9308 27.08 21.9308C27.42 21.8908 27.44 21.8308 28.3 21.8208C28.2 21.8908 28.53 21.9008 28.91 21.8208C29.29 21.7508 29.67 21.5408 29.7 21.5108C29.87 21.4708 30.2 21.3108 30.48 21.0908C30.74 20.8708 30.94 20.6008 30.98 20.5008Z" fill="#1E1E1E"/></g><defs><clipPath id="clip0"><rect width="73.72" height="107.57" fill="white"/></clipPath></defs></svg>